<svg width="310" height="274" viewBox="0 0 310 274" fill="none" xmlns="http://www.w3.org/2000/svg">
<path d="M310 0H0V274H310V0Z" fill="#F4F4F4"/>
<path d="M181.79 109.397C178.333 105.94 173.451 105.396 167.687 105.396H141.245C135.55 105.396 130.669 105.938 127.21 109.397C123.752 112.855 123.243 117.702 123.243 123.364V149.535C123.243 155.332 123.75 160.146 127.209 163.603C130.667 167.06 135.549 167.604 141.345 167.604H167.686C173.45 167.604 178.331 167.062 181.788 163.603C185.247 160.146 185.754 155.332 185.754 149.535V123.465C185.754 117.667 185.248 112.819 181.79 109.397ZM180.297 122.516V150.451C180.297 153.976 179.856 157.569 177.824 159.637C175.755 161.671 172.093 162.145 168.601 162.145H140.396C136.904 162.145 133.243 161.671 131.21 159.637C129.141 157.569 128.7 153.976 128.7 150.449V122.619C128.7 119.06 129.141 115.398 131.175 113.364C133.243 111.296 136.937 110.856 140.497 110.856H168.601C172.093 110.856 175.754 111.331 177.822 113.364C179.856 115.433 180.297 119.024 180.297 122.516ZM154.5 154.586C155.857 154.586 156.942 153.535 156.942 152.179V138.924H170.197C171.552 138.924 172.637 137.771 172.637 136.517C172.637 135.195 171.552 134.076 170.197 134.076H156.942V120.787C156.942 119.431 155.857 118.381 154.5 118.381C154.183 118.376 153.868 118.435 153.573 118.554C153.279 118.674 153.012 118.851 152.788 119.075C152.563 119.3 152.386 119.567 152.267 119.861C152.148 120.155 152.088 120.47 152.093 120.787V134.076H138.838C137.481 134.076 136.396 135.195 136.396 136.517C136.396 137.771 137.481 138.924 138.838 138.924H152.093V152.179C152.093 153.535 153.145 154.586 154.5 154.586Z" fill="#999999"/>
</svg>
