<svg width="600" height="417" viewBox="0 0 600 417" fill="none" xmlns="http://www.w3.org/2000/svg">
<g filter="url(#filter0_d_71_25476)">
<g clip-path="url(#clip0_71_25476)">
<rect x="4" y="4" width="592" height="409" rx="38" fill="white"/>
<path d="M4 42C4 21.0132 21.0132 4 42 4H851C871.987 4 889 21.0132 889 42V135H4V42Z" fill="#0C4745"/>
<rect x="4" y="97" width="885" height="8" fill="white"/>
<path d="M49.1257 49.125V44.3125H51.8757V49.125H56.6882V51.875H51.8757L51.875 56.6875H49.125V51.875H44.3125V49.125H49.1257Z" fill="white"/>
<path fill-rule="evenodd" clip-rule="evenodd" d="M43.5024 59.4309C45.1854 60.951 47.0293 62.2064 49.1111 63.1964C50.2262 63.7257 51.5489 63.6776 52.618 63.0678C54.4213 62.0393 55.9909 60.8011 57.5082 59.4309C60.725 56.5256 62.5998 52.5277 62.7229 48.3113L62.8666 43.395C62.8831 42.823 62.8672 41.5621 62.8672 41.5621C62.1449 41.4482 61.4201 41.3506 60.6934 41.2692C58.4452 40.9997 56.2067 40.7323 54.2426 39.5312L52.8421 38.6753C52.2473 38.3153 51.5653 38.125 50.87 38.125C50.1747 38.125 49.4927 38.3153 48.8979 38.6753L47.5566 39.4955C45.3106 40.8677 42.5736 41.1276 39.9247 41.3792C39.3245 41.4363 38.7284 41.4934 38.1441 41.5621C38.1441 41.5621 38.1276 42.8306 38.1441 43.4108L38.2877 48.3113C38.4108 52.5277 40.2856 56.5256 43.5024 59.4309ZM39.5122 42.8003C39.5122 43.0203 39.5142 43.2231 39.5191 43.3709L39.6621 48.2714C39.7741 52.1008 41.4771 55.7487 44.4237 58.4107C46.0132 59.8455 47.7464 61.0246 49.7016 61.9541C50.0537 62.1199 50.4403 62.1991 50.8292 62.1851C51.2182 62.1711 51.5981 62.0643 51.9374 61.8736C53.6252 60.9111 55.1129 59.7417 56.5869 58.4107C59.5336 55.7487 61.2365 52.1015 61.3486 48.2714L61.4922 43.3551C61.4964 43.2011 61.4991 42.9846 61.4991 42.7536C61.1774 42.7128 60.8497 42.6724 60.516 42.6326L60.4789 42.6284C59.7152 42.5427 58.9536 42.4384 58.195 42.3156C56.6522 42.0544 55.038 41.6288 53.5255 40.7048L52.1251 39.8482C51.7461 39.6201 51.3123 39.4996 50.87 39.4996C50.4278 39.4996 49.9939 39.6201 49.615 39.8482L48.2737 40.6684C46.6787 41.6426 44.9187 42.1046 43.2226 42.3775C42.1707 42.5466 41.0377 42.6546 39.9769 42.7563L39.5122 42.8003Z" fill="white"/>
<path d="M86.3977 60V37.292H90.4297V46.448H101.322V37.292H105.382V60H101.322V50.256H90.4297V60H86.3977ZM118.288 56.5C118.68 56.5 119.128 56.472 119.576 56.388C120.024 56.332 120.472 56.22 120.892 56.108C121.312 55.996 121.704 55.828 122.068 55.66C122.404 55.492 122.684 55.324 122.908 55.1L124.644 58.6C123.804 59.076 122.824 59.496 121.732 59.832C120.612 60.168 119.296 60.336 117.756 60.336C116.496 60.336 115.348 60.14 114.284 59.72C113.22 59.3 112.324 58.712 111.54 57.956C110.756 57.228 110.168 56.332 109.748 55.324C109.3 54.316 109.104 53.196 109.104 52.02C109.104 50.816 109.3 49.696 109.748 48.66C110.196 47.652 110.784 46.756 111.54 46.028C112.296 45.3 113.192 44.712 114.2 44.292C115.208 43.9 116.3 43.676 117.476 43.676C118.68 43.676 119.8 43.9 120.808 44.32C121.816 44.768 122.712 45.384 123.44 46.224C124.168 47.064 124.728 48.072 125.12 49.248C125.512 50.452 125.68 51.796 125.624 53.308H113.136C113.388 54.4 113.92 55.212 114.76 55.716C115.6 56.248 116.636 56.5 117.868 56.5H118.288ZM117.42 47.148C116.356 47.148 115.46 47.428 114.732 47.988C114.004 48.548 113.5 49.22 113.276 50.06H121.508C121.284 49.108 120.836 48.38 120.108 47.876C119.38 47.4 118.484 47.148 117.42 47.148ZM138.507 53.168C138.115 53.084 137.695 53 137.219 52.944C136.715 52.888 136.267 52.832 135.847 52.832C135.343 52.832 134.867 52.888 134.419 52.944C133.971 53 133.607 53.112 133.271 53.28C132.935 53.448 132.655 53.644 132.459 53.896C132.263 54.176 132.179 54.484 132.179 54.848C132.179 55.576 132.487 56.108 133.159 56.388C133.831 56.668 134.643 56.808 135.623 56.808C136.099 56.808 136.603 56.78 137.107 56.696C137.611 56.64 138.059 56.528 138.507 56.36V53.168ZM135.567 60.336C134.559 60.336 133.607 60.252 132.711 60.056C131.815 59.888 131.003 59.58 130.331 59.16C129.659 58.768 129.099 58.236 128.707 57.564C128.287 56.892 128.091 56.08 128.091 55.1C128.091 54.232 128.259 53.448 128.623 52.776C128.987 52.104 129.491 51.544 130.135 51.096C130.779 50.648 131.563 50.312 132.459 50.088C133.355 49.864 134.363 49.752 135.427 49.752C135.847 49.752 136.323 49.78 136.827 49.808C137.331 49.836 137.891 49.892 138.507 49.976V49.752C138.507 48.856 138.171 48.268 137.499 47.932C136.827 47.624 135.931 47.456 134.867 47.456C134.447 47.456 133.999 47.512 133.523 47.568C133.019 47.652 132.543 47.764 132.039 47.876C131.535 48.016 131.059 48.156 130.611 48.324C130.135 48.492 129.715 48.688 129.323 48.856L129.827 44.852C130.443 44.544 131.255 44.264 132.263 44.04C133.243 43.816 134.279 43.676 135.399 43.676C136.407 43.676 137.331 43.788 138.199 44.012C139.039 44.236 139.795 44.6 140.411 45.076C141.027 45.58 141.531 46.224 141.895 47.008C142.231 47.82 142.427 48.8 142.427 49.92V59.104C141.419 59.496 140.299 59.804 139.123 60.028C137.919 60.252 136.743 60.336 135.567 60.336ZM146.651 60V37.292H150.571V60H146.651ZM153.392 44.236H156.36V38.468H160.28V44.236H166.272V47.876H160.28V53.588C160.28 54.148 160.308 54.596 160.42 54.932C160.504 55.296 160.672 55.576 160.896 55.772C161.12 55.996 161.4 56.136 161.764 56.22C162.1 56.332 162.548 56.36 163.08 56.36H166.384V60H162.66C161.54 60 160.616 59.916 159.832 59.748C159.048 59.58 158.376 59.3 157.872 58.908C157.34 58.516 156.948 58.012 156.724 57.368C156.472 56.752 156.36 55.94 156.36 54.988V47.876H153.392V44.236ZM173.84 44.012C174.428 43.928 174.988 43.844 175.548 43.788C176.08 43.732 176.556 43.676 177.004 43.676C178.012 43.676 178.936 43.788 179.832 43.956C180.728 44.152 181.484 44.488 182.156 44.964C182.8 45.468 183.304 46.14 183.696 46.952C184.088 47.792 184.284 48.856 184.284 50.144V60H180.364V51.264C180.364 49.836 180.056 48.856 179.468 48.324C178.852 47.792 177.984 47.512 176.836 47.512C176.388 47.512 175.94 47.54 175.436 47.596C174.932 47.652 174.4 47.736 173.84 47.82V60H169.92V37.292H173.84V44.012ZM197.441 60V37.292H201.473V60H197.441ZM206.534 44.488C207.15 44.376 207.766 44.292 208.438 44.18C209.082 44.068 209.726 43.984 210.342 43.928C210.958 43.872 211.574 43.816 212.134 43.76C212.694 43.704 213.17 43.676 213.618 43.676C214.626 43.676 215.55 43.788 216.446 43.956C217.342 44.152 218.098 44.488 218.77 44.964C219.414 45.468 219.918 46.14 220.31 46.952C220.702 47.792 220.898 48.856 220.898 50.144V60H216.978V51.264C216.978 49.836 216.67 48.856 216.082 48.324C215.466 47.792 214.598 47.512 213.45 47.512C213.002 47.512 212.554 47.54 212.05 47.596C211.546 47.652 211.014 47.736 210.454 47.82V60H206.534V44.488ZM231.147 56.5C231.931 56.5 232.631 56.416 233.219 56.22C233.779 56.052 234.087 55.716 234.087 55.268C234.087 54.876 233.891 54.54 233.527 54.316C233.163 54.092 232.491 53.896 231.483 53.672L230.223 53.448C228.431 53.112 227.031 52.552 226.023 51.768C225.015 50.984 224.511 49.92 224.511 48.548C224.511 47.064 225.071 45.888 226.247 44.992C227.423 44.124 229.019 43.676 231.091 43.676C232.323 43.676 233.527 43.816 234.703 44.04C235.879 44.292 236.887 44.656 237.783 45.132L236.355 48.772C235.991 48.604 235.599 48.436 235.151 48.268C234.703 48.1 234.227 47.96 233.751 47.848C233.247 47.736 232.771 47.652 232.267 47.596C231.763 47.54 231.315 47.512 230.867 47.512C229.215 47.512 228.403 47.876 228.403 48.548C228.403 48.912 228.571 49.22 228.963 49.444C229.327 49.668 229.999 49.892 231.007 50.06L232.239 50.284C234.367 50.704 235.907 51.32 236.831 52.132C237.755 52.972 238.231 54.092 238.231 55.492C238.231 56.192 238.063 56.836 237.783 57.424C237.475 58.012 237.027 58.516 236.439 58.964C235.823 59.412 235.067 59.748 234.171 59.972C233.275 60.224 232.211 60.336 231.035 60.336C230.391 60.336 229.747 60.308 229.103 60.224C228.459 60.168 227.843 60.056 227.227 59.916C226.611 59.776 226.023 59.608 225.463 59.412C224.903 59.216 224.427 58.992 223.979 58.712L225.463 54.904C226.163 55.38 227.031 55.772 228.039 56.052C229.047 56.36 230.083 56.5 231.147 56.5ZM251.409 44.236H255.329V59.188C254.769 59.384 254.209 59.552 253.705 59.692C253.173 59.832 252.641 59.944 252.109 60.056C251.577 60.168 251.017 60.224 250.457 60.28C249.869 60.336 249.253 60.336 248.581 60.336C247.573 60.336 246.621 60.252 245.753 60.028C244.885 59.804 244.129 59.44 243.485 58.936C242.841 58.432 242.337 57.788 241.973 56.948C241.609 56.136 241.441 55.1 241.441 53.868V44.236H245.361V52.748C245.361 54.204 245.585 55.184 246.089 55.716C246.565 56.248 247.349 56.5 248.469 56.5C248.889 56.5 249.337 56.472 249.813 56.416C250.289 56.36 250.821 56.276 251.409 56.108V44.236ZM269.01 47.736H266.77C266.602 47.736 266.378 47.764 266.098 47.764C265.818 47.764 265.51 47.792 265.202 47.82C264.894 47.848 264.614 47.876 264.334 47.904C264.054 47.96 263.886 47.988 263.774 48.016V60H259.854V44.656C260.33 44.572 260.862 44.488 261.422 44.404C261.982 44.32 262.514 44.236 263.074 44.18C263.606 44.124 264.138 44.096 264.642 44.04C265.146 44.012 265.622 43.984 266.042 43.984H269.01V47.736ZM281.679 53.168C281.287 53.084 280.867 53 280.391 52.944C279.887 52.888 279.439 52.832 279.019 52.832C278.515 52.832 278.039 52.888 277.591 52.944C277.143 53 276.779 53.112 276.443 53.28C276.107 53.448 275.827 53.644 275.631 53.896C275.435 54.176 275.351 54.484 275.351 54.848C275.351 55.576 275.659 56.108 276.331 56.388C277.003 56.668 277.815 56.808 278.795 56.808C279.271 56.808 279.775 56.78 280.279 56.696C280.783 56.64 281.231 56.528 281.679 56.36V53.168ZM278.739 60.336C277.731 60.336 276.779 60.252 275.883 60.056C274.987 59.888 274.175 59.58 273.503 59.16C272.831 58.768 272.271 58.236 271.879 57.564C271.459 56.892 271.263 56.08 271.263 55.1C271.263 54.232 271.431 53.448 271.795 52.776C272.159 52.104 272.663 51.544 273.307 51.096C273.951 50.648 274.735 50.312 275.631 50.088C276.527 49.864 277.535 49.752 278.599 49.752C279.019 49.752 279.495 49.78 279.999 49.808C280.503 49.836 281.063 49.892 281.679 49.976V49.752C281.679 48.856 281.343 48.268 280.671 47.932C279.999 47.624 279.103 47.456 278.039 47.456C277.619 47.456 277.171 47.512 276.695 47.568C276.191 47.652 275.715 47.764 275.211 47.876C274.707 48.016 274.231 48.156 273.783 48.324C273.307 48.492 272.887 48.688 272.495 48.856L272.999 44.852C273.615 44.544 274.427 44.264 275.435 44.04C276.415 43.816 277.451 43.676 278.571 43.676C279.579 43.676 280.503 43.788 281.371 44.012C282.211 44.236 282.967 44.6 283.583 45.076C284.199 45.58 284.703 46.224 285.067 47.008C285.403 47.82 285.599 48.8 285.599 49.92V59.104C284.591 59.496 283.471 59.804 282.295 60.028C281.091 60.252 279.915 60.336 278.739 60.336ZM289.823 44.488C290.439 44.376 291.055 44.292 291.727 44.18C292.371 44.068 293.015 43.984 293.631 43.928C294.247 43.872 294.863 43.816 295.423 43.76C295.983 43.704 296.459 43.676 296.907 43.676C297.915 43.676 298.839 43.788 299.735 43.956C300.631 44.152 301.387 44.488 302.059 44.964C302.703 45.468 303.207 46.14 303.599 46.952C303.991 47.792 304.187 48.856 304.187 50.144V60H300.267V51.264C300.267 49.836 299.959 48.856 299.371 48.324C298.755 47.792 297.887 47.512 296.739 47.512C296.291 47.512 295.843 47.54 295.339 47.596C294.835 47.652 294.303 47.736 293.743 47.82V60H289.823V44.488ZM307.072 52.02C307.072 50.844 307.268 49.724 307.688 48.716C308.108 47.708 308.696 46.812 309.452 46.056C310.208 45.328 311.104 44.74 312.14 44.32C313.176 43.9 314.296 43.676 315.528 43.676C316.592 43.676 317.572 43.788 318.468 44.012C319.336 44.236 320.176 44.572 320.988 44.964L319.42 48.492C318.888 48.212 318.328 47.96 317.712 47.792C317.096 47.624 316.424 47.512 315.696 47.512C315.024 47.512 314.408 47.624 313.848 47.848C313.288 48.072 312.812 48.38 312.42 48.772C312.028 49.164 311.72 49.64 311.496 50.2C311.272 50.76 311.188 51.348 311.188 52.02C311.188 52.692 311.272 53.308 311.496 53.868C311.72 54.428 312.028 54.876 312.42 55.268C312.812 55.66 313.288 55.968 313.848 56.192C314.408 56.416 315.024 56.5 315.696 56.5C316.424 56.5 317.096 56.416 317.712 56.248C318.328 56.08 318.888 55.856 319.42 55.52L320.988 59.076C320.176 59.496 319.336 59.804 318.468 60.028C317.572 60.252 316.592 60.336 315.528 60.336C314.296 60.336 313.176 60.14 312.14 59.72C311.104 59.3 310.208 58.712 309.452 57.984C308.696 57.256 308.108 56.36 307.688 55.352C307.268 54.344 307.072 53.224 307.072 52.02ZM331.87 56.5C332.262 56.5 332.71 56.472 333.158 56.388C333.606 56.332 334.054 56.22 334.474 56.108C334.894 55.996 335.286 55.828 335.65 55.66C335.986 55.492 336.266 55.324 336.49 55.1L338.226 58.6C337.386 59.076 336.406 59.496 335.314 59.832C334.194 60.168 332.878 60.336 331.338 60.336C330.078 60.336 328.93 60.14 327.866 59.72C326.802 59.3 325.906 58.712 325.122 57.956C324.338 57.228 323.75 56.332 323.33 55.324C322.882 54.316 322.686 53.196 322.686 52.02C322.686 50.816 322.882 49.696 323.33 48.66C323.778 47.652 324.366 46.756 325.122 46.028C325.878 45.3 326.774 44.712 327.782 44.292C328.79 43.9 329.882 43.676 331.058 43.676C332.262 43.676 333.382 43.9 334.39 44.32C335.398 44.768 336.294 45.384 337.022 46.224C337.75 47.064 338.31 48.072 338.702 49.248C339.094 50.452 339.262 51.796 339.206 53.308H326.718C326.97 54.4 327.502 55.212 328.342 55.716C329.182 56.248 330.218 56.5 331.45 56.5H331.87ZM331.002 47.148C329.938 47.148 329.042 47.428 328.314 47.988C327.586 48.548 327.082 49.22 326.858 50.06H335.09C334.866 49.108 334.418 48.38 333.69 47.876C332.962 47.4 332.066 47.148 331.002 47.148Z" fill="white"/>
<path d="M40.674 182.296V187.182H39.638V175.464H43.404C44.104 175.464 44.706 175.562 45.224 175.73C45.742 175.912 46.176 176.15 46.512 176.458C46.848 176.766 47.086 177.116 47.254 177.522C47.408 177.928 47.492 178.348 47.492 178.796C47.492 179.258 47.408 179.692 47.254 180.112C47.086 180.532 46.848 180.91 46.512 181.232C46.176 181.568 45.742 181.82 45.224 182.016C44.706 182.212 44.104 182.296 43.404 182.296H40.674ZM40.674 176.458V181.302H43.222C44.23 181.302 45.014 181.106 45.574 180.7C46.134 180.308 46.414 179.664 46.414 178.796C46.414 178.446 46.358 178.124 46.246 177.844C46.134 177.564 45.952 177.326 45.7 177.116C45.448 176.92 45.126 176.752 44.72 176.64C44.3 176.528 43.81 176.458 43.222 176.458H40.674ZM51.7065 186.342C52.2945 186.342 52.7985 186.286 53.2185 186.146C53.6385 186.02 54.0725 185.824 54.4925 185.572L54.9685 186.482C54.4785 186.762 53.9885 186.972 53.4985 187.112C53.0085 187.252 52.4065 187.322 51.7065 187.322C51.1325 187.322 50.6145 187.224 50.1385 187.014C49.6625 186.818 49.2425 186.538 48.8925 186.174C48.5285 185.81 48.2485 185.39 48.0525 184.9C47.8565 184.41 47.7585 183.878 47.7585 183.29C47.7585 182.702 47.8565 182.156 48.0665 181.666C48.2625 181.176 48.5425 180.756 48.9065 180.392C49.2705 180.028 49.6905 179.748 50.1665 179.552C50.6425 179.356 51.1465 179.244 51.7065 179.244C52.2665 179.244 52.7705 179.342 53.2325 179.538C53.6805 179.734 54.0725 180 54.4085 180.364C54.7445 180.728 54.9965 181.162 55.1925 181.666C55.3745 182.17 55.4725 182.8 55.4865 183.542H48.8225C48.8225 183.85 48.9065 184.2 49.0465 184.564C49.1865 184.928 49.3825 185.25 49.6345 185.502C49.8865 185.768 50.1945 185.978 50.5445 186.118C50.8945 186.272 51.2865 186.342 51.7065 186.342ZM51.7065 180.224C51.2865 180.224 50.9225 180.294 50.5865 180.42C50.2505 180.56 49.9705 180.742 49.7465 180.966C49.5085 181.19 49.3125 181.47 49.1725 181.778C49.0185 182.086 48.9205 182.352 48.8925 182.576H54.3525C54.3245 182.324 54.2265 182.03 54.0865 181.722C53.9465 181.414 53.7505 181.134 53.5265 180.91C53.3025 180.686 53.0365 180.518 52.7285 180.406C52.4205 180.294 52.0705 180.224 51.7065 180.224ZM61.1882 180.364H59.9002C59.6062 180.364 59.2982 180.392 58.9622 180.448C58.6262 180.504 58.3882 180.546 58.2622 180.588V187.182H57.2682V179.79C57.6602 179.692 58.0662 179.608 58.4862 179.524C58.9062 179.44 59.3262 179.398 59.7602 179.398H61.1882V180.364ZM61.5212 179.398H63.1732V178.194C63.1732 177.214 63.4252 176.514 63.9292 176.094C64.4332 175.674 65.1332 175.464 66.0152 175.464H67.4852V176.43H65.9172C65.5812 176.43 65.3012 176.472 65.0772 176.528C64.8532 176.598 64.6712 176.71 64.5452 176.85C64.4052 176.99 64.3072 177.2 64.2512 177.452C64.1952 177.704 64.1672 178.04 64.1672 178.446V179.398H67.3872V180.364H64.1672V187.182H63.1732V180.364H61.5212V179.398ZM68.6568 179.398H69.6508V187.182H68.6568V179.398ZM69.1608 176.164C69.3568 176.164 69.5388 176.248 69.6928 176.388C69.8328 176.542 69.9168 176.724 69.9168 176.92C69.9168 177.13 69.8328 177.312 69.6928 177.452C69.5388 177.606 69.3568 177.676 69.1608 177.676C68.9508 177.676 68.7688 177.606 68.6288 177.452C68.4748 177.312 68.4048 177.13 68.4048 176.92C68.4048 176.724 68.4748 176.542 68.6288 176.388C68.7688 176.248 68.9508 176.164 69.1608 176.164ZM75.5679 183.192L78.7039 187.182H77.4999L74.9519 183.948L72.4039 187.182H71.1859L74.3359 183.178L71.3679 179.398H72.5719L74.9519 182.422L77.3319 179.398H78.5499L75.5679 183.192Z" fill="#363636"/>
<path d="M44.192 212.732C45.02 212.732 45.632 212.39 46.064 211.706C46.496 211.022 46.712 210.068 46.712 208.826C46.712 207.602 46.496 206.63 46.064 205.946C45.632 205.262 45.02 204.92 44.192 204.92C43.364 204.92 42.734 205.262 42.302 205.946C41.87 206.63 41.654 207.602 41.654 208.826C41.654 210.068 41.87 211.022 42.302 211.706C42.734 212.39 43.364 212.732 44.192 212.732ZM44.192 215.198C43.328 215.198 42.59 215.054 41.942 214.73C41.294 214.406 40.772 213.974 40.34 213.398C39.908 212.84 39.584 212.174 39.368 211.382C39.152 210.608 39.044 209.762 39.044 208.826C39.044 207.908 39.152 207.062 39.368 206.27C39.584 205.496 39.908 204.83 40.34 204.254C40.772 203.696 41.294 203.264 41.942 202.94C42.59 202.616 43.328 202.454 44.192 202.454C45.02 202.454 45.758 202.616 46.406 202.94C47.054 203.264 47.594 203.696 48.026 204.254C48.458 204.83 48.782 205.496 48.998 206.27C49.214 207.062 49.34 207.908 49.34 208.826C49.34 209.762 49.214 210.608 48.998 211.382C48.782 212.174 48.458 212.84 48.026 213.398C47.594 213.974 47.054 214.406 46.406 214.73C45.758 215.054 45.02 215.198 44.192 215.198ZM56.5846 212.732C57.4126 212.732 58.0246 212.39 58.4566 211.706C58.8886 211.022 59.1046 210.068 59.1046 208.826C59.1046 207.602 58.8886 206.63 58.4566 205.946C58.0246 205.262 57.4126 204.92 56.5846 204.92C55.7566 204.92 55.1266 205.262 54.6946 205.946C54.2626 206.63 54.0466 207.602 54.0466 208.826C54.0466 210.068 54.2626 211.022 54.6946 211.706C55.1266 212.39 55.7566 212.732 56.5846 212.732ZM56.5846 215.198C55.7206 215.198 54.9826 215.054 54.3346 214.73C53.6866 214.406 53.1646 213.974 52.7326 213.398C52.3006 212.84 51.9766 212.174 51.7606 211.382C51.5446 210.608 51.4366 209.762 51.4366 208.826C51.4366 207.908 51.5446 207.062 51.7606 206.27C51.9766 205.496 52.3006 204.83 52.7326 204.254C53.1646 203.696 53.6866 203.264 54.3346 202.94C54.9826 202.616 55.7206 202.454 56.5846 202.454C57.4126 202.454 58.1506 202.616 58.7986 202.94C59.4466 203.264 59.9866 203.696 60.4186 204.254C60.8506 204.83 61.1746 205.496 61.3906 206.27C61.6066 207.062 61.7326 207.908 61.7326 208.826C61.7326 209.762 61.6066 210.608 61.3906 211.382C61.1746 212.174 60.8506 212.84 60.4186 213.398C59.9866 213.974 59.4466 214.406 58.7986 214.73C58.1506 215.054 57.4126 215.198 56.5846 215.198Z" fill="#363636"/>
<path d="M293.58 271.322C292.656 271.322 291.83 271.168 291.102 270.86C290.374 270.552 289.744 270.118 289.24 269.572C288.736 269.04 288.344 268.396 288.064 267.668C287.784 266.94 287.658 266.156 287.658 265.316C287.658 264.49 287.784 263.706 288.064 262.978C288.344 262.25 288.736 261.606 289.24 261.06C289.744 260.528 290.374 260.094 291.102 259.786C291.83 259.478 292.656 259.31 293.58 259.31C294.294 259.31 294.966 259.394 295.61 259.562C296.24 259.73 296.856 259.982 297.458 260.346L296.996 261.228C296.464 260.92 295.918 260.682 295.372 260.528C294.812 260.374 294.224 260.29 293.58 260.29C292.922 260.29 292.306 260.402 291.718 260.626C291.13 260.85 290.626 261.186 290.178 261.606C289.73 262.04 289.38 262.572 289.128 263.188C288.862 263.804 288.736 264.518 288.736 265.316C288.736 266.128 288.862 266.842 289.128 267.458C289.38 268.074 289.73 268.606 290.178 269.026C290.626 269.46 291.13 269.782 291.718 270.006C292.306 270.23 292.922 270.342 293.58 270.342C294.112 270.342 294.658 270.286 295.218 270.16C295.764 270.034 296.226 269.88 296.604 269.698V266.506H293.216V265.484H297.64V270.286C297.08 270.636 296.436 270.902 295.736 271.07C295.036 271.238 294.308 271.322 293.58 271.322ZM303.673 270.342C304.261 270.342 304.765 270.286 305.185 270.146C305.605 270.02 306.039 269.824 306.459 269.572L306.935 270.482C306.445 270.762 305.955 270.972 305.465 271.112C304.975 271.252 304.373 271.322 303.673 271.322C303.099 271.322 302.581 271.224 302.105 271.014C301.629 270.818 301.209 270.538 300.859 270.174C300.495 269.81 300.215 269.39 300.019 268.9C299.823 268.41 299.725 267.878 299.725 267.29C299.725 266.702 299.823 266.156 300.033 265.666C300.229 265.176 300.509 264.756 300.873 264.392C301.237 264.028 301.657 263.748 302.133 263.552C302.609 263.356 303.113 263.244 303.673 263.244C304.233 263.244 304.737 263.342 305.199 263.538C305.647 263.734 306.039 264 306.375 264.364C306.711 264.728 306.963 265.162 307.159 265.666C307.341 266.17 307.439 266.8 307.453 267.542H300.789C300.789 267.85 300.873 268.2 301.013 268.564C301.153 268.928 301.349 269.25 301.601 269.502C301.853 269.768 302.161 269.978 302.511 270.118C302.861 270.272 303.253 270.342 303.673 270.342ZM303.673 264.224C303.253 264.224 302.889 264.294 302.553 264.42C302.217 264.56 301.937 264.742 301.713 264.966C301.475 265.19 301.279 265.47 301.139 265.778C300.985 266.086 300.887 266.352 300.859 266.576H306.319C306.291 266.324 306.193 266.03 306.053 265.722C305.913 265.414 305.717 265.134 305.493 264.91C305.269 264.686 305.003 264.518 304.695 264.406C304.387 264.294 304.037 264.224 303.673 264.224ZM309.235 263.608C309.865 263.496 310.439 263.398 310.971 263.342C311.489 263.286 311.979 263.244 312.441 263.244C312.917 263.244 313.351 263.3 313.757 263.384C314.163 263.482 314.513 263.65 314.807 263.902C315.101 264.154 315.325 264.504 315.479 264.924C315.633 265.344 315.717 265.876 315.717 266.52V271.182H314.723V266.94C314.723 266.38 314.667 265.918 314.555 265.568C314.443 265.218 314.303 264.952 314.107 264.756C313.911 264.56 313.673 264.434 313.393 264.35C313.099 264.266 312.763 264.224 312.385 264.224C311.713 264.224 310.985 264.308 310.229 264.448V271.182H309.235V263.608ZM318.453 267.318C318.453 268.27 318.719 269.012 319.279 269.544C319.825 270.076 320.679 270.342 321.841 270.342C322.093 270.342 322.359 270.328 322.639 270.286C322.919 270.244 323.185 270.202 323.423 270.146V264.42C323.129 264.35 322.849 264.294 322.569 264.266C322.289 264.238 322.037 264.224 321.841 264.224C321.253 264.224 320.749 264.308 320.329 264.448C319.909 264.588 319.559 264.798 319.279 265.064C318.999 265.344 318.789 265.666 318.649 266.044C318.509 266.422 318.453 266.842 318.453 267.318ZM323.423 259.464H324.417V270.93C323.955 271.07 323.507 271.168 323.059 271.224C322.611 271.294 322.219 271.322 321.869 271.322C321.113 271.322 320.455 271.224 319.895 271.014C319.335 270.804 318.859 270.524 318.495 270.16C318.117 269.796 317.837 269.376 317.655 268.886C317.473 268.396 317.389 267.878 317.389 267.318C317.389 266.772 317.473 266.254 317.655 265.75C317.837 265.26 318.117 264.826 318.495 264.448C318.859 264.084 319.335 263.79 319.895 263.566C320.455 263.356 321.113 263.244 321.869 263.244C322.289 263.244 322.807 263.3 323.423 263.398V259.464ZM330.169 270.342C330.757 270.342 331.261 270.286 331.681 270.146C332.101 270.02 332.535 269.824 332.955 269.572L333.431 270.482C332.941 270.762 332.451 270.972 331.961 271.112C331.471 271.252 330.869 271.322 330.169 271.322C329.595 271.322 329.077 271.224 328.601 271.014C328.125 270.818 327.705 270.538 327.355 270.174C326.991 269.81 326.711 269.39 326.515 268.9C326.319 268.41 326.221 267.878 326.221 267.29C326.221 266.702 326.319 266.156 326.529 265.666C326.725 265.176 327.005 264.756 327.369 264.392C327.733 264.028 328.153 263.748 328.629 263.552C329.105 263.356 329.609 263.244 330.169 263.244C330.729 263.244 331.233 263.342 331.695 263.538C332.143 263.734 332.535 264 332.871 264.364C333.207 264.728 333.459 265.162 333.655 265.666C333.837 266.17 333.935 266.8 333.949 267.542H327.285C327.285 267.85 327.369 268.2 327.509 268.564C327.649 268.928 327.845 269.25 328.097 269.502C328.349 269.768 328.657 269.978 329.007 270.118C329.357 270.272 329.749 270.342 330.169 270.342ZM330.169 264.224C329.749 264.224 329.385 264.294 329.049 264.42C328.713 264.56 328.433 264.742 328.209 264.966C327.971 265.19 327.775 265.47 327.635 265.778C327.481 266.086 327.383 266.352 327.355 266.576H332.815C332.787 266.324 332.689 266.03 332.549 265.722C332.409 265.414 332.213 265.134 331.989 264.91C331.765 264.686 331.499 264.518 331.191 264.406C330.883 264.294 330.533 264.224 330.169 264.224ZM339.651 264.364H338.363C338.069 264.364 337.761 264.392 337.425 264.448C337.089 264.504 336.851 264.546 336.725 264.588V271.182H335.731V263.79C336.123 263.692 336.529 263.608 336.949 263.524C337.369 263.44 337.789 263.398 338.223 263.398H339.651V264.364Z" fill="#363636"/>
<path d="M294.776 299L291.392 286.544V299H288.8V284.402H293.192L296.378 296.696L299.6 284.402H303.956V299H301.364V286.544L297.998 299H294.776Z" fill="#363636"/>
<path d="M467.27 186.188C468.166 186.188 468.95 186.076 469.636 185.852C470.322 185.628 470.896 185.292 471.358 184.872C471.82 184.452 472.17 183.934 472.422 183.332C472.66 182.744 472.786 182.072 472.786 181.316C472.786 180.574 472.646 179.902 472.38 179.3C472.1 178.712 471.722 178.194 471.246 177.774C470.756 177.354 470.168 177.032 469.496 176.808C468.824 176.584 468.082 176.458 467.27 176.458H465.674V186.188H467.27ZM464.638 175.464H467.284C468.222 175.464 469.09 175.59 469.888 175.842C470.686 176.094 471.386 176.458 471.974 176.962C472.562 177.466 473.024 178.068 473.36 178.796C473.696 179.524 473.864 180.364 473.864 181.316C473.864 182.268 473.696 183.122 473.36 183.85C473.024 184.578 472.562 185.194 471.974 185.684C471.386 186.188 470.686 186.552 469.888 186.804C469.09 187.056 468.222 187.182 467.284 187.182H464.638V175.464ZM478.725 187.322C478.277 187.322 477.843 187.28 477.423 187.196C477.003 187.112 476.639 186.986 476.317 186.79C475.995 186.608 475.729 186.356 475.533 186.034C475.337 185.726 475.239 185.334 475.239 184.872C475.239 183.948 475.589 183.29 476.317 182.884C477.031 182.492 477.983 182.282 479.173 182.282C479.397 182.282 479.649 182.296 479.957 182.324C480.265 182.352 480.517 182.38 480.741 182.408V182.324C480.741 181.568 480.559 181.036 480.209 180.714C479.845 180.392 479.299 180.224 478.571 180.224C478.361 180.224 478.151 180.252 477.927 180.28C477.703 180.322 477.493 180.364 477.269 180.42C477.045 180.476 476.849 180.546 476.653 180.63C476.457 180.714 476.177 180.854 475.827 181.05L475.869 179.93C476.359 179.678 476.849 179.51 477.325 179.398C477.801 179.3 478.235 179.244 478.641 179.244C479.677 179.244 480.447 179.482 480.965 179.958C481.469 180.434 481.735 181.176 481.735 182.198V186.748C481.259 186.944 480.769 187.098 480.265 187.182C479.761 187.28 479.243 187.322 478.725 187.322ZM480.741 183.416C480.601 183.388 480.363 183.36 480.013 183.318C479.663 183.29 479.341 183.262 479.033 183.262C478.669 183.262 478.333 183.29 477.997 183.332C477.661 183.388 477.367 183.458 477.115 183.57C476.863 183.682 476.653 183.85 476.513 184.046C476.373 184.242 476.303 184.508 476.303 184.844C476.303 185.152 476.359 185.39 476.485 185.572C476.597 185.768 476.765 185.922 476.975 186.034C477.171 186.146 477.423 186.23 477.717 186.272C478.011 186.328 478.319 186.342 478.655 186.342C479.033 186.342 479.411 186.314 479.803 186.244C480.181 186.188 480.489 186.104 480.741 186.006V183.416ZM483.185 179.398H484.837V176.584H485.831V179.398H489.051V180.364H485.831V184.158C485.831 184.578 485.859 184.914 485.915 185.166C485.971 185.432 486.069 185.642 486.209 185.782C486.335 185.936 486.517 186.048 486.741 186.118C486.965 186.188 487.245 186.216 487.581 186.216H489.149V187.182H487.679C487.259 187.182 486.881 187.14 486.545 187.056C486.209 186.972 485.901 186.818 485.649 186.608C485.383 186.412 485.187 186.132 485.047 185.796C484.907 185.46 484.837 185.054 484.837 184.55V180.364H483.185V179.398ZM493.933 186.342C494.521 186.342 495.025 186.286 495.445 186.146C495.865 186.02 496.299 185.824 496.719 185.572L497.195 186.482C496.705 186.762 496.215 186.972 495.725 187.112C495.235 187.252 494.633 187.322 493.933 187.322C493.359 187.322 492.841 187.224 492.365 187.014C491.889 186.818 491.469 186.538 491.119 186.174C490.755 185.81 490.475 185.39 490.279 184.9C490.083 184.41 489.985 183.878 489.985 183.29C489.985 182.702 490.083 182.156 490.293 181.666C490.489 181.176 490.769 180.756 491.133 180.392C491.497 180.028 491.917 179.748 492.393 179.552C492.869 179.356 493.373 179.244 493.933 179.244C494.493 179.244 494.997 179.342 495.459 179.538C495.907 179.734 496.299 180 496.635 180.364C496.971 180.728 497.223 181.162 497.419 181.666C497.601 182.17 497.699 182.8 497.713 183.542H491.049C491.049 183.85 491.133 184.2 491.273 184.564C491.413 184.928 491.609 185.25 491.861 185.502C492.113 185.768 492.421 185.978 492.771 186.118C493.121 186.272 493.513 186.342 493.933 186.342ZM493.933 180.224C493.513 180.224 493.149 180.294 492.813 180.42C492.477 180.56 492.197 180.742 491.973 180.966C491.735 181.19 491.539 181.47 491.399 181.778C491.245 182.086 491.147 182.352 491.119 182.576H496.579C496.551 182.324 496.453 182.03 496.313 181.722C496.173 181.414 495.977 181.134 495.753 180.91C495.529 180.686 495.263 180.518 494.955 180.406C494.647 180.294 494.297 180.224 493.933 180.224ZM507.154 187.322C506.594 187.322 506.062 187.224 505.586 187.014C505.11 186.804 504.69 186.51 504.34 186.146C503.976 185.782 503.696 185.348 503.5 184.858C503.304 184.382 503.206 183.85 503.206 183.29C503.206 182.73 503.304 182.212 503.5 181.722C503.696 181.246 503.976 180.812 504.34 180.448C504.69 180.084 505.11 179.79 505.586 179.566C506.062 179.356 506.594 179.244 507.154 179.244C507.714 179.244 508.232 179.356 508.708 179.566C509.184 179.79 509.604 180.084 509.968 180.448C510.318 180.812 510.598 181.246 510.794 181.722C510.99 182.212 511.102 182.73 511.102 183.29C511.102 183.85 510.99 184.382 510.794 184.858C510.598 185.348 510.318 185.782 509.968 186.146C509.604 186.51 509.184 186.804 508.708 187.014C508.232 187.224 507.714 187.322 507.154 187.322ZM507.154 186.342C507.574 186.342 507.966 186.272 508.33 186.104C508.68 185.936 508.988 185.726 509.24 185.446C509.492 185.166 509.688 184.844 509.828 184.48C509.968 184.116 510.038 183.71 510.038 183.29C510.038 182.87 509.968 182.478 509.828 182.1C509.688 181.736 509.492 181.414 509.24 181.134C508.988 180.854 508.68 180.644 508.33 180.476C507.966 180.308 507.574 180.224 507.154 180.224C506.72 180.224 506.328 180.308 505.978 180.476C505.614 180.644 505.32 180.854 505.068 181.134C504.816 181.414 504.62 181.736 504.48 182.1C504.34 182.478 504.27 182.87 504.27 183.29C504.27 183.71 504.34 184.116 504.48 184.48C504.62 184.844 504.816 185.166 505.068 185.446C505.32 185.726 505.614 185.936 505.978 186.104C506.328 186.272 506.72 186.342 507.154 186.342ZM511.787 179.398H513.439V178.194C513.439 177.214 513.691 176.514 514.195 176.094C514.699 175.674 515.399 175.464 516.281 175.464H517.751V176.43H516.183C515.847 176.43 515.567 176.472 515.343 176.528C515.119 176.598 514.937 176.71 514.811 176.85C514.671 176.99 514.573 177.2 514.517 177.452C514.461 177.704 514.433 178.04 514.433 178.446V179.398H517.653V180.364H514.433V187.182H513.439V180.364H511.787V179.398ZM524.538 186.146C524.762 186.202 525.028 186.244 525.308 186.286C525.588 186.328 525.868 186.342 526.12 186.342C527.268 186.342 528.122 186.076 528.682 185.544C529.228 185.012 529.508 184.27 529.508 183.318C529.508 182.842 529.438 182.422 529.298 182.044C529.158 181.666 528.962 181.344 528.682 181.064C528.402 180.798 528.038 180.588 527.618 180.448C527.198 180.308 526.694 180.224 526.12 180.224C525.91 180.224 525.672 180.238 525.392 180.266C525.112 180.294 524.818 180.35 524.538 180.42V186.146ZM524.538 179.398C525.14 179.3 525.658 179.244 526.092 179.244C526.834 179.244 527.492 179.356 528.052 179.566C528.612 179.79 529.088 180.084 529.466 180.448C529.83 180.826 530.11 181.26 530.292 181.75C530.474 182.254 530.572 182.772 530.572 183.318C530.572 183.878 530.474 184.396 530.292 184.886C530.11 185.376 529.83 185.796 529.466 186.16C529.088 186.524 528.612 186.804 528.052 187.014C527.492 187.224 526.834 187.322 526.092 187.322C525.728 187.322 525.336 187.294 524.888 187.224C524.44 187.168 523.992 187.07 523.544 186.93V175.464H524.538V179.398ZM532.376 179.398H533.37V187.182H532.376V179.398ZM532.88 176.164C533.076 176.164 533.258 176.248 533.412 176.388C533.552 176.542 533.636 176.724 533.636 176.92C533.636 177.13 533.552 177.312 533.412 177.452C533.258 177.606 533.076 177.676 532.88 177.676C532.67 177.676 532.488 177.606 532.348 177.452C532.194 177.312 532.124 177.13 532.124 176.92C532.124 176.724 532.194 176.542 532.348 176.388C532.488 176.248 532.67 176.164 532.88 176.164ZM540.001 180.364H538.713C538.419 180.364 538.111 180.392 537.775 180.448C537.439 180.504 537.201 180.546 537.075 180.588V187.182H536.081V179.79C536.473 179.692 536.879 179.608 537.299 179.524C537.719 179.44 538.139 179.398 538.573 179.398H540.001V180.364ZM540.334 179.398H541.986V176.584H542.98V179.398H546.2V180.364H542.98V184.158C542.98 184.578 543.008 184.914 543.064 185.166C543.12 185.432 543.218 185.642 543.358 185.782C543.484 185.936 543.666 186.048 543.89 186.118C544.114 186.188 544.394 186.216 544.73 186.216H546.298V187.182H544.828C544.408 187.182 544.03 187.14 543.694 187.056C543.358 186.972 543.05 186.818 542.798 186.608C542.532 186.412 542.336 186.132 542.196 185.796C542.056 185.46 541.986 185.054 541.986 184.55V180.364H540.334V179.398ZM549.311 179.44C549.591 179.398 549.927 179.356 550.347 179.314C550.767 179.272 551.159 179.244 551.523 179.244C551.999 179.244 552.433 179.3 552.839 179.384C553.245 179.482 553.595 179.65 553.889 179.902C554.183 180.154 554.407 180.504 554.561 180.924C554.715 181.344 554.799 181.876 554.799 182.52V187.182H553.805V182.94C553.805 182.38 553.749 181.918 553.637 181.568C553.525 181.218 553.385 180.952 553.189 180.756C552.993 180.56 552.755 180.434 552.475 180.35C552.181 180.266 551.845 180.224 551.467 180.224C550.795 180.224 550.067 180.308 549.311 180.448V187.182H548.317V175.464H549.311V179.44Z" fill="#363636"/>
<path d="M469.192 212.732C470.02 212.732 470.632 212.39 471.064 211.706C471.496 211.022 471.712 210.068 471.712 208.826C471.712 207.602 471.496 206.63 471.064 205.946C470.632 205.262 470.02 204.92 469.192 204.92C468.364 204.92 467.734 205.262 467.302 205.946C466.87 206.63 466.654 207.602 466.654 208.826C466.654 210.068 466.87 211.022 467.302 211.706C467.734 212.39 468.364 212.732 469.192 212.732ZM469.192 215.198C468.328 215.198 467.59 215.054 466.942 214.73C466.294 214.406 465.772 213.974 465.34 213.398C464.908 212.84 464.584 212.174 464.368 211.382C464.152 210.608 464.044 209.762 464.044 208.826C464.044 207.908 464.152 207.062 464.368 206.27C464.584 205.496 464.908 204.83 465.34 204.254C465.772 203.696 466.294 203.264 466.942 202.94C467.59 202.616 468.328 202.454 469.192 202.454C470.02 202.454 470.758 202.616 471.406 202.94C472.054 203.264 472.594 203.696 473.026 204.254C473.458 204.83 473.782 205.496 473.998 206.27C474.214 207.062 474.34 207.908 474.34 208.826C474.34 209.762 474.214 210.608 473.998 211.382C473.782 212.174 473.458 212.84 473.026 213.398C472.594 213.974 472.054 214.406 471.406 214.73C470.758 215.054 470.02 215.198 469.192 215.198ZM478.579 205.586L475.753 206.216V203.912L481.099 202.724V215H478.579V205.586ZM492.802 204.92C492.244 204.92 491.74 205.028 491.29 205.208C490.84 205.406 490.408 205.658 489.994 205.982L488.86 203.768C489.4 203.372 490.03 203.048 490.786 202.814C491.542 202.58 492.316 202.454 493.108 202.454C493.72 202.454 494.314 202.526 494.872 202.67C495.412 202.814 495.898 203.048 496.312 203.336C496.726 203.624 497.05 204.002 497.302 204.452C497.554 204.902 497.68 205.424 497.68 206.036C497.68 206.63 497.554 207.188 497.338 207.728C497.122 208.268 496.798 208.808 496.366 209.348C495.934 209.888 495.412 210.428 494.782 210.968C494.152 211.508 493.432 212.084 492.64 212.66H497.806V215H488.824V212.75L491.074 211.094C491.794 210.554 492.46 210.014 493.054 209.474C493.63 208.952 494.116 208.448 494.476 207.944C494.836 207.44 495.016 206.972 495.016 206.54C495.016 206.27 494.944 206.036 494.836 205.82C494.71 205.622 494.548 205.46 494.35 205.316C494.134 205.19 493.9 205.1 493.648 205.028C493.378 204.956 493.09 204.92 492.802 204.92ZM505.104 212.732C505.932 212.732 506.544 212.39 506.976 211.706C507.408 211.022 507.624 210.068 507.624 208.826C507.624 207.602 507.408 206.63 506.976 205.946C506.544 205.262 505.932 204.92 505.104 204.92C504.276 204.92 503.646 205.262 503.214 205.946C502.782 206.63 502.566 207.602 502.566 208.826C502.566 210.068 502.782 211.022 503.214 211.706C503.646 212.39 504.276 212.732 505.104 212.732ZM505.104 215.198C504.24 215.198 503.502 215.054 502.854 214.73C502.206 214.406 501.684 213.974 501.252 213.398C500.82 212.84 500.496 212.174 500.28 211.382C500.064 210.608 499.956 209.762 499.956 208.826C499.956 207.908 500.064 207.062 500.28 206.27C500.496 205.496 500.82 204.83 501.252 204.254C501.684 203.696 502.206 203.264 502.854 202.94C503.502 202.616 504.24 202.454 505.104 202.454C505.932 202.454 506.67 202.616 507.318 202.94C507.966 203.264 508.506 203.696 508.938 204.254C509.37 204.83 509.694 205.496 509.91 206.27C510.126 207.062 510.252 207.908 510.252 208.826C510.252 209.762 510.126 210.608 509.91 211.382C509.694 212.174 509.37 212.84 508.938 213.398C508.506 213.974 507.966 214.406 507.318 214.73C506.67 215.054 505.932 215.198 505.104 215.198ZM516.111 204.92C515.553 204.92 515.049 205.028 514.599 205.208C514.149 205.406 513.717 205.658 513.303 205.982L512.169 203.768C512.709 203.372 513.339 203.048 514.095 202.814C514.851 202.58 515.625 202.454 516.417 202.454C517.029 202.454 517.623 202.526 518.181 202.67C518.721 202.814 519.207 203.048 519.621 203.336C520.035 203.624 520.359 204.002 520.611 204.452C520.863 204.902 520.989 205.424 520.989 206.036C520.989 206.63 520.863 207.188 520.647 207.728C520.431 208.268 520.107 208.808 519.675 209.348C519.243 209.888 518.721 210.428 518.091 210.968C517.461 211.508 516.741 212.084 515.949 212.66H521.115V215H512.133V212.75L514.383 211.094C515.103 210.554 515.769 210.014 516.363 209.474C516.939 208.952 517.425 208.448 517.785 207.944C518.145 207.44 518.325 206.972 518.325 206.54C518.325 206.27 518.253 206.036 518.145 205.82C518.019 205.622 517.857 205.46 517.659 205.316C517.443 205.19 517.209 205.1 516.957 205.028C516.687 204.956 516.399 204.92 516.111 204.92ZM527.027 215.198C526.631 215.198 526.253 215.18 525.857 215.108C525.461 215.054 525.065 214.964 524.687 214.856C524.291 214.748 523.931 214.604 523.589 214.442C523.229 214.298 522.923 214.118 522.671 213.902L523.787 211.652C524.201 211.994 524.651 212.264 525.155 212.444C525.659 212.642 526.181 212.732 526.721 212.732C527.063 212.732 527.405 212.714 527.729 212.642C528.053 212.588 528.323 212.498 528.575 212.372C528.827 212.246 529.025 212.084 529.169 211.886C529.313 211.706 529.403 211.472 529.403 211.202C529.403 210.932 529.331 210.716 529.187 210.536C529.043 210.356 528.845 210.23 528.593 210.122C528.341 210.032 528.035 209.96 527.675 209.924C527.315 209.888 526.937 209.87 526.523 209.87H526.109V207.494H526.487C526.919 207.494 527.315 207.494 527.639 207.458C527.963 207.422 528.251 207.368 528.467 207.278C528.683 207.206 528.827 207.08 528.935 206.936C529.043 206.792 529.097 206.594 529.097 206.342C529.097 205.892 528.863 205.55 528.431 205.298C527.999 205.046 527.441 204.92 526.775 204.92C526.235 204.92 525.713 205.028 525.227 205.208C524.741 205.406 524.291 205.658 523.877 205.982L522.761 203.75C523.301 203.354 523.949 203.048 524.723 202.814C525.497 202.58 526.271 202.454 527.045 202.454C527.729 202.454 528.341 202.544 528.917 202.688C529.493 202.85 529.979 203.084 530.393 203.372C530.807 203.66 531.131 204.02 531.365 204.452C531.581 204.884 531.707 205.352 531.707 205.892C531.707 206.216 531.653 206.504 531.581 206.792C531.509 207.08 531.401 207.35 531.257 207.584C531.113 207.818 530.951 208.016 530.771 208.196C530.591 208.376 530.393 208.52 530.177 208.592C530.717 208.808 531.149 209.15 531.509 209.618C531.851 210.104 532.031 210.734 532.031 211.526C532.031 212.12 531.905 212.642 531.653 213.092C531.401 213.56 531.059 213.938 530.627 214.244C530.177 214.568 529.655 214.802 529.043 214.964C528.431 215.126 527.747 215.198 527.027 215.198Z" fill="#363636"/>
<path d="M205.874 187.182L201.674 177.172V187.182H200.638V175.464H202.08L206.35 185.754L210.62 175.464H212.062V187.182H211.026V177.172L206.826 187.182H205.874ZM218.093 186.342C218.681 186.342 219.185 186.286 219.605 186.146C220.025 186.02 220.459 185.824 220.879 185.572L221.355 186.482C220.865 186.762 220.375 186.972 219.885 187.112C219.395 187.252 218.793 187.322 218.093 187.322C217.519 187.322 217.001 187.224 216.525 187.014C216.049 186.818 215.629 186.538 215.279 186.174C214.915 185.81 214.635 185.39 214.439 184.9C214.243 184.41 214.145 183.878 214.145 183.29C214.145 182.702 214.243 182.156 214.453 181.666C214.649 181.176 214.929 180.756 215.293 180.392C215.657 180.028 216.077 179.748 216.553 179.552C217.029 179.356 217.533 179.244 218.093 179.244C218.653 179.244 219.157 179.342 219.619 179.538C220.067 179.734 220.459 180 220.795 180.364C221.131 180.728 221.383 181.162 221.579 181.666C221.761 182.17 221.859 182.8 221.873 183.542H215.209C215.209 183.85 215.293 184.2 215.433 184.564C215.573 184.928 215.769 185.25 216.021 185.502C216.273 185.768 216.581 185.978 216.931 186.118C217.281 186.272 217.673 186.342 218.093 186.342ZM218.093 180.224C217.673 180.224 217.309 180.294 216.973 180.42C216.637 180.56 216.357 180.742 216.133 180.966C215.895 181.19 215.699 181.47 215.559 181.778C215.405 182.086 215.307 182.352 215.279 182.576H220.739C220.711 182.324 220.613 182.03 220.473 181.722C220.333 181.414 220.137 181.134 219.913 180.91C219.689 180.686 219.423 180.518 219.115 180.406C218.807 180.294 218.457 180.224 218.093 180.224ZM224.082 183.318C224.082 184.27 224.348 185.012 224.908 185.544C225.454 186.076 226.308 186.342 227.47 186.342C227.722 186.342 227.988 186.328 228.268 186.286C228.548 186.244 228.814 186.202 229.052 186.146V180.42C228.758 180.35 228.478 180.294 228.198 180.266C227.918 180.238 227.666 180.224 227.47 180.224C226.882 180.224 226.378 180.308 225.958 180.448C225.538 180.588 225.188 180.798 224.908 181.064C224.628 181.344 224.418 181.666 224.278 182.044C224.138 182.422 224.082 182.842 224.082 183.318ZM229.052 175.464H230.046V186.93C229.584 187.07 229.136 187.168 228.688 187.224C228.24 187.294 227.848 187.322 227.498 187.322C226.742 187.322 226.084 187.224 225.524 187.014C224.964 186.804 224.488 186.524 224.124 186.16C223.746 185.796 223.466 185.376 223.284 184.886C223.102 184.396 223.018 183.878 223.018 183.318C223.018 182.772 223.102 182.254 223.284 181.75C223.466 181.26 223.746 180.826 224.124 180.448C224.488 180.084 224.964 179.79 225.524 179.566C226.084 179.356 226.742 179.244 227.498 179.244C227.918 179.244 228.436 179.3 229.052 179.398V175.464ZM232.76 179.398H233.754V187.182H232.76V179.398ZM233.264 176.164C233.46 176.164 233.642 176.248 233.796 176.388C233.936 176.542 234.02 176.724 234.02 176.92C234.02 177.13 233.936 177.312 233.796 177.452C233.642 177.606 233.46 177.676 233.264 177.676C233.054 177.676 232.872 177.606 232.732 177.452C232.578 177.312 232.508 177.13 232.508 176.92C232.508 176.724 232.578 176.542 232.732 176.388C232.872 176.248 233.054 176.164 233.264 176.164ZM235.555 183.29C235.555 182.702 235.653 182.17 235.863 181.68C236.059 181.19 236.339 180.756 236.703 180.392C237.053 180.028 237.459 179.748 237.935 179.552C238.411 179.356 238.915 179.244 239.475 179.244C240.035 179.244 240.539 179.314 240.973 179.426C241.393 179.538 241.841 179.72 242.303 179.972L241.841 180.882C241.435 180.644 241.057 180.476 240.707 180.378C240.357 180.28 239.951 180.224 239.475 180.224C239.055 180.224 238.663 180.308 238.313 180.462C237.963 180.63 237.669 180.84 237.417 181.106C237.165 181.386 236.969 181.708 236.829 182.072C236.689 182.45 236.619 182.856 236.619 183.29C236.619 183.738 236.689 184.144 236.829 184.508C236.969 184.886 237.165 185.208 237.417 185.474C237.669 185.754 237.963 185.964 238.313 186.118C238.663 186.272 239.055 186.342 239.475 186.342C239.951 186.342 240.357 186.3 240.707 186.202C241.057 186.104 241.435 185.936 241.841 185.684L242.303 186.594C241.841 186.846 241.393 187.042 240.973 187.154C240.539 187.266 240.035 187.322 239.475 187.322C238.915 187.322 238.411 187.224 237.935 187.028C237.459 186.832 237.053 186.552 236.703 186.188C236.339 185.824 236.059 185.404 235.863 184.914C235.653 184.424 235.555 183.878 235.555 183.29ZM247.032 187.322C246.584 187.322 246.15 187.28 245.73 187.196C245.31 187.112 244.946 186.986 244.624 186.79C244.302 186.608 244.036 186.356 243.84 186.034C243.644 185.726 243.546 185.334 243.546 184.872C243.546 183.948 243.896 183.29 244.624 182.884C245.338 182.492 246.29 182.282 247.48 182.282C247.704 182.282 247.956 182.296 248.264 182.324C248.572 182.352 248.824 182.38 249.048 182.408V182.324C249.048 181.568 248.866 181.036 248.516 180.714C248.152 180.392 247.606 180.224 246.878 180.224C246.668 180.224 246.458 180.252 246.234 180.28C246.01 180.322 245.8 180.364 245.576 180.42C245.352 180.476 245.156 180.546 244.96 180.63C244.764 180.714 244.484 180.854 244.134 181.05L244.176 179.93C244.666 179.678 245.156 179.51 245.632 179.398C246.108 179.3 246.542 179.244 246.948 179.244C247.984 179.244 248.754 179.482 249.272 179.958C249.776 180.434 250.042 181.176 250.042 182.198V186.748C249.566 186.944 249.076 187.098 248.572 187.182C248.068 187.28 247.55 187.322 247.032 187.322ZM249.048 183.416C248.908 183.388 248.67 183.36 248.32 183.318C247.97 183.29 247.648 183.262 247.34 183.262C246.976 183.262 246.64 183.29 246.304 183.332C245.968 183.388 245.674 183.458 245.422 183.57C245.17 183.682 244.96 183.85 244.82 184.046C244.68 184.242 244.61 184.508 244.61 184.844C244.61 185.152 244.666 185.39 244.792 185.572C244.904 185.768 245.072 185.922 245.282 186.034C245.478 186.146 245.73 186.23 246.024 186.272C246.318 186.328 246.626 186.342 246.962 186.342C247.34 186.342 247.718 186.314 248.11 186.244C248.488 186.188 248.796 186.104 249.048 186.006V183.416ZM252.612 187.182V175.464H253.606V187.182H252.612ZM262.254 182.086V187.182H261.218V175.464H264.984C265.712 175.464 266.328 175.562 266.846 175.73C267.364 175.898 267.784 176.136 268.12 176.43C268.442 176.724 268.68 177.074 268.834 177.466C268.974 177.872 269.058 178.292 269.058 178.726C269.058 179.062 269.016 179.384 268.932 179.72C268.848 180.056 268.708 180.378 268.484 180.672C268.26 180.98 267.952 181.246 267.574 181.47C267.182 181.694 266.776 181.848 266.356 181.918L269.702 187.182H268.484L265.222 182.086H265.012H264.662H262.254ZM262.254 176.458V181.092H264.788C265.292 181.092 265.754 181.05 266.16 180.966C266.552 180.882 266.888 180.756 267.154 180.56C267.42 180.364 267.63 180.126 267.77 179.818C267.91 179.524 267.98 179.16 267.98 178.712C267.98 178.376 267.924 178.054 267.812 177.774C267.7 177.494 267.518 177.27 267.266 177.074C267.014 176.878 266.692 176.738 266.286 176.626C265.866 176.514 265.376 176.458 264.788 176.458H262.254ZM274.326 186.342C274.914 186.342 275.418 186.286 275.838 186.146C276.258 186.02 276.692 185.824 277.112 185.572L277.588 186.482C277.098 186.762 276.608 186.972 276.118 187.112C275.628 187.252 275.026 187.322 274.326 187.322C273.752 187.322 273.234 187.224 272.758 187.014C272.282 186.818 271.862 186.538 271.512 186.174C271.148 185.81 270.868 185.39 270.672 184.9C270.476 184.41 270.378 183.878 270.378 183.29C270.378 182.702 270.476 182.156 270.686 181.666C270.882 181.176 271.162 180.756 271.526 180.392C271.89 180.028 272.31 179.748 272.786 179.552C273.262 179.356 273.766 179.244 274.326 179.244C274.886 179.244 275.39 179.342 275.852 179.538C276.3 179.734 276.692 180 277.028 180.364C277.364 180.728 277.616 181.162 277.812 181.666C277.994 182.17 278.092 182.8 278.106 183.542H271.442C271.442 183.85 271.526 184.2 271.666 184.564C271.806 184.928 272.002 185.25 272.254 185.502C272.506 185.768 272.814 185.978 273.164 186.118C273.514 186.272 273.906 186.342 274.326 186.342ZM274.326 180.224C273.906 180.224 273.542 180.294 273.206 180.42C272.87 180.56 272.59 180.742 272.366 180.966C272.128 181.19 271.932 181.47 271.792 181.778C271.638 182.086 271.54 182.352 271.512 182.576H276.972C276.944 182.324 276.846 182.03 276.706 181.722C276.566 181.414 276.37 181.134 276.146 180.91C275.922 180.686 275.656 180.518 275.348 180.406C275.04 180.294 274.69 180.224 274.326 180.224ZM279.251 183.29C279.251 182.702 279.349 182.17 279.559 181.68C279.755 181.19 280.035 180.756 280.399 180.392C280.749 180.028 281.155 179.748 281.631 179.552C282.107 179.356 282.611 179.244 283.171 179.244C283.731 179.244 284.235 179.314 284.669 179.426C285.089 179.538 285.537 179.72 285.999 179.972L285.537 180.882C285.131 180.644 284.753 180.476 284.403 180.378C284.053 180.28 283.647 180.224 283.171 180.224C282.751 180.224 282.359 180.308 282.009 180.462C281.659 180.63 281.365 180.84 281.113 181.106C280.861 181.386 280.665 181.708 280.525 182.072C280.385 182.45 280.315 182.856 280.315 183.29C280.315 183.738 280.385 184.144 280.525 184.508C280.665 184.886 280.861 185.208 281.113 185.474C281.365 185.754 281.659 185.964 282.009 186.118C282.359 186.272 282.751 186.342 283.171 186.342C283.647 186.342 284.053 186.3 284.403 186.202C284.753 186.104 285.131 185.936 285.537 185.684L285.999 186.594C285.537 186.846 285.089 187.042 284.669 187.154C284.235 187.266 283.731 187.322 283.171 187.322C282.611 187.322 282.107 187.224 281.631 187.028C281.155 186.832 280.749 186.552 280.399 186.188C280.035 185.824 279.755 185.404 279.559 184.914C279.349 184.424 279.251 183.878 279.251 183.29ZM290.787 187.322C290.227 187.322 289.695 187.224 289.219 187.014C288.743 186.804 288.323 186.51 287.973 186.146C287.609 185.782 287.329 185.348 287.133 184.858C286.937 184.382 286.839 183.85 286.839 183.29C286.839 182.73 286.937 182.212 287.133 181.722C287.329 181.246 287.609 180.812 287.973 180.448C288.323 180.084 288.743 179.79 289.219 179.566C289.695 179.356 290.227 179.244 290.787 179.244C291.347 179.244 291.865 179.356 292.341 179.566C292.817 179.79 293.237 180.084 293.601 180.448C293.951 180.812 294.231 181.246 294.427 181.722C294.623 182.212 294.735 182.73 294.735 183.29C294.735 183.85 294.623 184.382 294.427 184.858C294.231 185.348 293.951 185.782 293.601 186.146C293.237 186.51 292.817 186.804 292.341 187.014C291.865 187.224 291.347 187.322 290.787 187.322ZM290.787 186.342C291.207 186.342 291.599 186.272 291.963 186.104C292.313 185.936 292.621 185.726 292.873 185.446C293.125 185.166 293.321 184.844 293.461 184.48C293.601 184.116 293.671 183.71 293.671 183.29C293.671 182.87 293.601 182.478 293.461 182.1C293.321 181.736 293.125 181.414 292.873 181.134C292.621 180.854 292.313 180.644 291.963 180.476C291.599 180.308 291.207 180.224 290.787 180.224C290.353 180.224 289.961 180.308 289.611 180.476C289.247 180.644 288.953 180.854 288.701 181.134C288.449 181.414 288.253 181.736 288.113 182.1C287.973 182.478 287.903 182.87 287.903 183.29C287.903 183.71 287.973 184.116 288.113 184.48C288.253 184.844 288.449 185.166 288.701 185.446C288.953 185.726 289.247 185.936 289.611 186.104C289.961 186.272 290.353 186.342 290.787 186.342ZM300.46 180.364H299.172C298.878 180.364 298.57 180.392 298.234 180.448C297.898 180.504 297.66 180.546 297.534 180.588V187.182H296.54V179.79C296.932 179.692 297.338 179.608 297.758 179.524C298.178 179.44 298.598 179.398 299.032 179.398H300.46V180.364ZM302.067 183.318C302.067 184.27 302.333 185.012 302.893 185.544C303.439 186.076 304.293 186.342 305.455 186.342C305.707 186.342 305.973 186.328 306.253 186.286C306.533 186.244 306.799 186.202 307.037 186.146V180.42C306.743 180.35 306.463 180.294 306.183 180.266C305.903 180.238 305.651 180.224 305.455 180.224C304.867 180.224 304.363 180.308 303.943 180.448C303.523 180.588 303.173 180.798 302.893 181.064C302.613 181.344 302.403 181.666 302.263 182.044C302.123 182.422 302.067 182.842 302.067 183.318ZM307.037 175.464H308.031V186.93C307.569 187.07 307.121 187.168 306.673 187.224C306.225 187.294 305.833 187.322 305.483 187.322C304.727 187.322 304.069 187.224 303.509 187.014C302.949 186.804 302.473 186.524 302.109 186.16C301.731 185.796 301.451 185.376 301.269 184.886C301.087 184.396 301.003 183.878 301.003 183.318C301.003 182.772 301.087 182.254 301.269 181.75C301.451 181.26 301.731 180.826 302.109 180.448C302.473 180.084 302.949 179.79 303.509 179.566C304.069 179.356 304.727 179.244 305.483 179.244C305.903 179.244 306.421 179.3 307.037 179.398V175.464ZM316.696 176.892V187.182H315.646V175.464H317.018L323.402 185.754V175.464H324.452V187.182H323.08L316.696 176.892ZM330.49 187.322C329.93 187.322 329.398 187.224 328.922 187.014C328.446 186.804 328.026 186.51 327.676 186.146C327.312 185.782 327.032 185.348 326.836 184.858C326.64 184.382 326.542 183.85 326.542 183.29C326.542 182.73 326.64 182.212 326.836 181.722C327.032 181.246 327.312 180.812 327.676 180.448C328.026 180.084 328.446 179.79 328.922 179.566C329.398 179.356 329.93 179.244 330.49 179.244C331.05 179.244 331.568 179.356 332.044 179.566C332.52 179.79 332.94 180.084 333.304 180.448C333.654 180.812 333.934 181.246 334.13 181.722C334.326 182.212 334.438 182.73 334.438 183.29C334.438 183.85 334.326 184.382 334.13 184.858C333.934 185.348 333.654 185.782 333.304 186.146C332.94 186.51 332.52 186.804 332.044 187.014C331.568 187.224 331.05 187.322 330.49 187.322ZM330.49 186.342C330.91 186.342 331.302 186.272 331.666 186.104C332.016 185.936 332.324 185.726 332.576 185.446C332.828 185.166 333.024 184.844 333.164 184.48C333.304 184.116 333.374 183.71 333.374 183.29C333.374 182.87 333.304 182.478 333.164 182.1C333.024 181.736 332.828 181.414 332.576 181.134C332.324 180.854 332.016 180.644 331.666 180.476C331.302 180.308 330.91 180.224 330.49 180.224C330.056 180.224 329.664 180.308 329.314 180.476C328.95 180.644 328.656 180.854 328.404 181.134C328.152 181.414 327.956 181.736 327.816 182.1C327.676 182.478 327.606 182.87 327.606 183.29C327.606 183.71 327.676 184.116 327.816 184.48C327.956 184.844 328.152 185.166 328.404 185.446C328.656 185.726 328.95 185.936 329.314 186.104C329.664 186.272 330.056 186.342 330.49 186.342Z" fill="#363636"/>
<path d="M205.192 212.732C206.02 212.732 206.632 212.39 207.064 211.706C207.496 211.022 207.712 210.068 207.712 208.826C207.712 207.602 207.496 206.63 207.064 205.946C206.632 205.262 206.02 204.92 205.192 204.92C204.364 204.92 203.734 205.262 203.302 205.946C202.87 206.63 202.654 207.602 202.654 208.826C202.654 210.068 202.87 211.022 203.302 211.706C203.734 212.39 204.364 212.732 205.192 212.732ZM205.192 215.198C204.328 215.198 203.59 215.054 202.942 214.73C202.294 214.406 201.772 213.974 201.34 213.398C200.908 212.84 200.584 212.174 200.368 211.382C200.152 210.608 200.044 209.762 200.044 208.826C200.044 207.908 200.152 207.062 200.368 206.27C200.584 205.496 200.908 204.83 201.34 204.254C201.772 203.696 202.294 203.264 202.942 202.94C203.59 202.616 204.328 202.454 205.192 202.454C206.02 202.454 206.758 202.616 207.406 202.94C208.054 203.264 208.594 203.696 209.026 204.254C209.458 204.83 209.782 205.496 209.998 206.27C210.214 207.062 210.34 207.908 210.34 208.826C210.34 209.762 210.214 210.608 209.998 211.382C209.782 212.174 209.458 212.84 209.026 213.398C208.594 213.974 208.054 214.406 207.406 214.73C206.758 215.054 206.02 215.198 205.192 215.198ZM217.585 212.732C218.413 212.732 219.025 212.39 219.457 211.706C219.889 211.022 220.105 210.068 220.105 208.826C220.105 207.602 219.889 206.63 219.457 205.946C219.025 205.262 218.413 204.92 217.585 204.92C216.757 204.92 216.127 205.262 215.695 205.946C215.263 206.63 215.047 207.602 215.047 208.826C215.047 210.068 215.263 211.022 215.695 211.706C216.127 212.39 216.757 212.732 217.585 212.732ZM217.585 215.198C216.721 215.198 215.983 215.054 215.335 214.73C214.687 214.406 214.165 213.974 213.733 213.398C213.301 212.84 212.977 212.174 212.761 211.382C212.545 210.608 212.437 209.762 212.437 208.826C212.437 207.908 212.545 207.062 212.761 206.27C212.977 205.496 213.301 204.83 213.733 204.254C214.165 203.696 214.687 203.264 215.335 202.94C215.983 202.616 216.721 202.454 217.585 202.454C218.413 202.454 219.151 202.616 219.799 202.94C220.447 203.264 220.987 203.696 221.419 204.254C221.851 204.83 222.175 205.496 222.391 206.27C222.607 207.062 222.733 207.908 222.733 208.826C222.733 209.762 222.607 210.608 222.391 211.382C222.175 212.174 221.851 212.84 221.419 213.398C220.987 213.974 220.447 214.406 219.799 214.73C219.151 215.054 218.413 215.198 217.585 215.198ZM229.977 212.732C230.805 212.732 231.417 212.39 231.849 211.706C232.281 211.022 232.497 210.068 232.497 208.826C232.497 207.602 232.281 206.63 231.849 205.946C231.417 205.262 230.805 204.92 229.977 204.92C229.149 204.92 228.519 205.262 228.087 205.946C227.655 206.63 227.439 207.602 227.439 208.826C227.439 210.068 227.655 211.022 228.087 211.706C228.519 212.39 229.149 212.732 229.977 212.732ZM229.977 215.198C229.113 215.198 228.375 215.054 227.727 214.73C227.079 214.406 226.557 213.974 226.125 213.398C225.693 212.84 225.369 212.174 225.153 211.382C224.937 210.608 224.829 209.762 224.829 208.826C224.829 207.908 224.937 207.062 225.153 206.27C225.369 205.496 225.693 204.83 226.125 204.254C226.557 203.696 227.079 203.264 227.727 202.94C228.375 202.616 229.113 202.454 229.977 202.454C230.805 202.454 231.543 202.616 232.191 202.94C232.839 203.264 233.379 203.696 233.811 204.254C234.243 204.83 234.567 205.496 234.783 206.27C234.999 207.062 235.125 207.908 235.125 208.826C235.125 209.762 234.999 210.608 234.783 211.382C234.567 212.174 234.243 212.84 233.811 213.398C233.379 213.974 232.839 214.406 232.191 214.73C231.543 215.054 230.805 215.198 229.977 215.198ZM242.37 212.732C243.198 212.732 243.81 212.39 244.242 211.706C244.674 211.022 244.89 210.068 244.89 208.826C244.89 207.602 244.674 206.63 244.242 205.946C243.81 205.262 243.198 204.92 242.37 204.92C241.542 204.92 240.912 205.262 240.48 205.946C240.048 206.63 239.832 207.602 239.832 208.826C239.832 210.068 240.048 211.022 240.48 211.706C240.912 212.39 241.542 212.732 242.37 212.732ZM242.37 215.198C241.506 215.198 240.768 215.054 240.12 214.73C239.472 214.406 238.95 213.974 238.518 213.398C238.086 212.84 237.762 212.174 237.546 211.382C237.33 210.608 237.222 209.762 237.222 208.826C237.222 207.908 237.33 207.062 237.546 206.27C237.762 205.496 238.086 204.83 238.518 204.254C238.95 203.696 239.472 203.264 240.12 202.94C240.768 202.616 241.506 202.454 242.37 202.454C243.198 202.454 243.936 202.616 244.584 202.94C245.232 203.264 245.772 203.696 246.204 204.254C246.636 204.83 246.96 205.496 247.176 206.27C247.392 207.062 247.518 207.908 247.518 208.826C247.518 209.762 247.392 210.608 247.176 211.382C246.96 212.174 246.636 212.84 246.204 213.398C245.772 213.974 245.232 214.406 244.584 214.73C243.936 215.054 243.198 215.198 242.37 215.198ZM254.762 212.732C255.59 212.732 256.202 212.39 256.634 211.706C257.066 211.022 257.282 210.068 257.282 208.826C257.282 207.602 257.066 206.63 256.634 205.946C256.202 205.262 255.59 204.92 254.762 204.92C253.934 204.92 253.304 205.262 252.872 205.946C252.44 206.63 252.224 207.602 252.224 208.826C252.224 210.068 252.44 211.022 252.872 211.706C253.304 212.39 253.934 212.732 254.762 212.732ZM254.762 215.198C253.898 215.198 253.16 215.054 252.512 214.73C251.864 214.406 251.342 213.974 250.91 213.398C250.478 212.84 250.154 212.174 249.938 211.382C249.722 210.608 249.614 209.762 249.614 208.826C249.614 207.908 249.722 207.062 249.938 206.27C250.154 205.496 250.478 204.83 250.91 204.254C251.342 203.696 251.864 203.264 252.512 202.94C253.16 202.616 253.898 202.454 254.762 202.454C255.59 202.454 256.328 202.616 256.976 202.94C257.624 203.264 258.164 203.696 258.596 204.254C259.028 204.83 259.352 205.496 259.568 206.27C259.784 207.062 259.91 207.908 259.91 208.826C259.91 209.762 259.784 210.608 259.568 211.382C259.352 212.174 259.028 212.84 258.596 213.398C258.164 213.974 257.624 214.406 256.976 214.73C256.328 215.054 255.59 215.198 254.762 215.198ZM267.155 212.732C267.983 212.732 268.595 212.39 269.027 211.706C269.459 211.022 269.675 210.068 269.675 208.826C269.675 207.602 269.459 206.63 269.027 205.946C268.595 205.262 267.983 204.92 267.155 204.92C266.327 204.92 265.697 205.262 265.265 205.946C264.833 206.63 264.617 207.602 264.617 208.826C264.617 210.068 264.833 211.022 265.265 211.706C265.697 212.39 266.327 212.732 267.155 212.732ZM267.155 215.198C266.291 215.198 265.553 215.054 264.905 214.73C264.257 214.406 263.735 213.974 263.303 213.398C262.871 212.84 262.547 212.174 262.331 211.382C262.115 210.608 262.007 209.762 262.007 208.826C262.007 207.908 262.115 207.062 262.331 206.27C262.547 205.496 262.871 204.83 263.303 204.254C263.735 203.696 264.257 203.264 264.905 202.94C265.553 202.616 266.291 202.454 267.155 202.454C267.983 202.454 268.721 202.616 269.369 202.94C270.017 203.264 270.557 203.696 270.989 204.254C271.421 204.83 271.745 205.496 271.961 206.27C272.177 207.062 272.303 207.908 272.303 208.826C272.303 209.762 272.177 210.608 271.961 211.382C271.745 212.174 271.421 212.84 270.989 213.398C270.557 213.974 270.017 214.406 269.369 214.73C268.721 215.054 267.983 215.198 267.155 215.198ZM279.547 212.732C280.375 212.732 280.987 212.39 281.419 211.706C281.851 211.022 282.067 210.068 282.067 208.826C282.067 207.602 281.851 206.63 281.419 205.946C280.987 205.262 280.375 204.92 279.547 204.92C278.719 204.92 278.089 205.262 277.657 205.946C277.225 206.63 277.009 207.602 277.009 208.826C277.009 210.068 277.225 211.022 277.657 211.706C278.089 212.39 278.719 212.732 279.547 212.732ZM279.547 215.198C278.683 215.198 277.945 215.054 277.297 214.73C276.649 214.406 276.127 213.974 275.695 213.398C275.263 212.84 274.939 212.174 274.723 211.382C274.507 210.608 274.399 209.762 274.399 208.826C274.399 207.908 274.507 207.062 274.723 206.27C274.939 205.496 275.263 204.83 275.695 204.254C276.127 203.696 276.649 203.264 277.297 202.94C277.945 202.616 278.683 202.454 279.547 202.454C280.375 202.454 281.113 202.616 281.761 202.94C282.409 203.264 282.949 203.696 283.381 204.254C283.813 204.83 284.137 205.496 284.353 206.27C284.569 207.062 284.695 207.908 284.695 208.826C284.695 209.762 284.569 210.608 284.353 211.382C284.137 212.174 283.813 212.84 283.381 213.398C282.949 213.974 282.409 214.406 281.761 214.73C281.113 215.054 280.375 215.198 279.547 215.198ZM291.94 212.732C292.768 212.732 293.38 212.39 293.812 211.706C294.244 211.022 294.46 210.068 294.46 208.826C294.46 207.602 294.244 206.63 293.812 205.946C293.38 205.262 292.768 204.92 291.94 204.92C291.112 204.92 290.482 205.262 290.05 205.946C289.618 206.63 289.402 207.602 289.402 208.826C289.402 210.068 289.618 211.022 290.05 211.706C290.482 212.39 291.112 212.732 291.94 212.732ZM291.94 215.198C291.076 215.198 290.338 215.054 289.69 214.73C289.042 214.406 288.52 213.974 288.088 213.398C287.656 212.84 287.332 212.174 287.116 211.382C286.9 210.608 286.792 209.762 286.792 208.826C286.792 207.908 286.9 207.062 287.116 206.27C287.332 205.496 287.656 204.83 288.088 204.254C288.52 203.696 289.042 203.264 289.69 202.94C290.338 202.616 291.076 202.454 291.94 202.454C292.768 202.454 293.506 202.616 294.154 202.94C294.802 203.264 295.342 203.696 295.774 204.254C296.206 204.83 296.53 205.496 296.746 206.27C296.962 207.062 297.088 207.908 297.088 208.826C297.088 209.762 296.962 210.608 296.746 211.382C296.53 212.174 296.206 212.84 295.774 213.398C295.342 213.974 294.802 214.406 294.154 214.73C293.506 215.054 292.768 215.198 291.94 215.198ZM304.333 212.732C305.161 212.732 305.773 212.39 306.205 211.706C306.637 211.022 306.853 210.068 306.853 208.826C306.853 207.602 306.637 206.63 306.205 205.946C305.773 205.262 305.161 204.92 304.333 204.92C303.505 204.92 302.875 205.262 302.443 205.946C302.011 206.63 301.795 207.602 301.795 208.826C301.795 210.068 302.011 211.022 302.443 211.706C302.875 212.39 303.505 212.732 304.333 212.732ZM304.333 215.198C303.469 215.198 302.731 215.054 302.083 214.73C301.435 214.406 300.913 213.974 300.481 213.398C300.049 212.84 299.725 212.174 299.509 211.382C299.293 210.608 299.185 209.762 299.185 208.826C299.185 207.908 299.293 207.062 299.509 206.27C299.725 205.496 300.049 204.83 300.481 204.254C300.913 203.696 301.435 203.264 302.083 202.94C302.731 202.616 303.469 202.454 304.333 202.454C305.161 202.454 305.899 202.616 306.547 202.94C307.195 203.264 307.735 203.696 308.167 204.254C308.599 204.83 308.923 205.496 309.139 206.27C309.355 207.062 309.481 207.908 309.481 208.826C309.481 209.762 309.355 210.608 309.139 211.382C308.923 212.174 308.599 212.84 308.167 213.398C307.735 213.974 307.195 214.406 306.547 214.73C305.899 215.054 305.161 215.198 304.333 215.198ZM316.725 212.732C317.553 212.732 318.165 212.39 318.597 211.706C319.029 211.022 319.245 210.068 319.245 208.826C319.245 207.602 319.029 206.63 318.597 205.946C318.165 205.262 317.553 204.92 316.725 204.92C315.897 204.92 315.267 205.262 314.835 205.946C314.403 206.63 314.187 207.602 314.187 208.826C314.187 210.068 314.403 211.022 314.835 211.706C315.267 212.39 315.897 212.732 316.725 212.732ZM316.725 215.198C315.861 215.198 315.123 215.054 314.475 214.73C313.827 214.406 313.305 213.974 312.873 213.398C312.441 212.84 312.117 212.174 311.901 211.382C311.685 210.608 311.577 209.762 311.577 208.826C311.577 207.908 311.685 207.062 311.901 206.27C312.117 205.496 312.441 204.83 312.873 204.254C313.305 203.696 313.827 203.264 314.475 202.94C315.123 202.616 315.861 202.454 316.725 202.454C317.553 202.454 318.291 202.616 318.939 202.94C319.587 203.264 320.127 203.696 320.559 204.254C320.991 204.83 321.315 205.496 321.531 206.27C321.747 207.062 321.873 207.908 321.873 208.826C321.873 209.762 321.747 210.608 321.531 211.382C321.315 212.174 320.991 212.84 320.559 213.398C320.127 213.974 319.587 214.406 318.939 214.73C318.291 215.054 317.553 215.198 316.725 215.198ZM329.118 212.732C329.946 212.732 330.558 212.39 330.99 211.706C331.422 211.022 331.638 210.068 331.638 208.826C331.638 207.602 331.422 206.63 330.99 205.946C330.558 205.262 329.946 204.92 329.118 204.92C328.29 204.92 327.66 205.262 327.228 205.946C326.796 206.63 326.58 207.602 326.58 208.826C326.58 210.068 326.796 211.022 327.228 211.706C327.66 212.39 328.29 212.732 329.118 212.732ZM329.118 215.198C328.254 215.198 327.516 215.054 326.868 214.73C326.22 214.406 325.698 213.974 325.266 213.398C324.834 212.84 324.51 212.174 324.294 211.382C324.078 210.608 323.97 209.762 323.97 208.826C323.97 207.908 324.078 207.062 324.294 206.27C324.51 205.496 324.834 204.83 325.266 204.254C325.698 203.696 326.22 203.264 326.868 202.94C327.516 202.616 328.254 202.454 329.118 202.454C329.946 202.454 330.684 202.616 331.332 202.94C331.98 203.264 332.52 203.696 332.952 204.254C333.384 204.83 333.708 205.496 333.924 206.27C334.14 207.062 334.266 207.908 334.266 208.826C334.266 209.762 334.14 210.608 333.924 211.382C333.708 212.174 333.384 212.84 332.952 213.398C332.52 213.974 331.98 214.406 331.332 214.73C330.684 215.054 329.946 215.198 329.118 215.198ZM338.504 205.586L335.678 206.216V203.912L341.024 202.724V215H338.504V205.586Z" fill="#363636"/>
<path d="M40.688 260.892V271.182H39.638V259.464H41.01L47.394 269.754V259.464H48.444V271.182H47.072L40.688 260.892ZM54.2859 271.322C53.8379 271.322 53.4039 271.28 52.9839 271.196C52.5639 271.112 52.1999 270.986 51.8779 270.79C51.5559 270.608 51.2899 270.356 51.0939 270.034C50.8979 269.726 50.7999 269.334 50.7999 268.872C50.7999 267.948 51.1499 267.29 51.8779 266.884C52.5919 266.492 53.5439 266.282 54.7339 266.282C54.9579 266.282 55.2099 266.296 55.5179 266.324C55.8259 266.352 56.0779 266.38 56.3019 266.408V266.324C56.3019 265.568 56.1199 265.036 55.7699 264.714C55.4059 264.392 54.8599 264.224 54.1319 264.224C53.9219 264.224 53.7119 264.252 53.4879 264.28C53.2639 264.322 53.0539 264.364 52.8299 264.42C52.6059 264.476 52.4099 264.546 52.2139 264.63C52.0179 264.714 51.7379 264.854 51.3879 265.05L51.4299 263.93C51.9199 263.678 52.4099 263.51 52.8859 263.398C53.3619 263.3 53.7959 263.244 54.2019 263.244C55.2379 263.244 56.0079 263.482 56.5259 263.958C57.0299 264.434 57.2959 265.176 57.2959 266.198V270.748C56.8199 270.944 56.3299 271.098 55.8259 271.182C55.3219 271.28 54.8039 271.322 54.2859 271.322ZM56.3019 267.416C56.1619 267.388 55.9239 267.36 55.5739 267.318C55.2239 267.29 54.9019 267.262 54.5939 267.262C54.2299 267.262 53.8939 267.29 53.5579 267.332C53.2219 267.388 52.9279 267.458 52.6759 267.57C52.4239 267.682 52.2139 267.85 52.0739 268.046C51.9339 268.242 51.8639 268.508 51.8639 268.844C51.8639 269.152 51.9199 269.39 52.0459 269.572C52.1579 269.768 52.3259 269.922 52.5359 270.034C52.7319 270.146 52.9839 270.23 53.2779 270.272C53.5719 270.328 53.8799 270.342 54.2159 270.342C54.5939 270.342 54.9719 270.314 55.3639 270.244C55.7419 270.188 56.0499 270.104 56.3019 270.006V267.416ZM69.8058 266.912C69.8058 266.352 69.7498 265.89 69.6658 265.54C69.5678 265.19 69.4278 264.924 69.2598 264.728C69.0918 264.546 68.8678 264.42 68.5878 264.336C68.3078 264.266 67.9718 264.224 67.5938 264.224C67.4398 264.224 67.2718 264.238 67.0898 264.266C66.8938 264.294 66.7118 264.322 66.5158 264.364C66.3198 264.42 66.1378 264.476 65.9418 264.546C65.7458 264.616 65.6198 264.658 65.5638 264.686C65.6198 264.84 65.6898 265.078 65.7598 265.4C65.8298 265.722 65.8718 266.1 65.8718 266.52V271.182H64.8778V266.912C64.8778 266.352 64.8218 265.89 64.7378 265.54C64.6398 265.204 64.4998 264.938 64.3178 264.742C64.1358 264.546 63.9118 264.42 63.6318 264.336C63.3518 264.266 63.0158 264.224 62.6238 264.224C62.2878 264.224 61.9798 264.252 61.6998 264.294C61.4198 264.35 61.1398 264.406 60.8598 264.462V271.182H59.8658V263.65L61.4618 263.356C61.8678 263.286 62.2738 263.244 62.6938 263.244C63.1698 263.244 63.6038 263.3 63.9958 263.384C64.3878 263.482 64.6958 263.636 64.9198 263.846C65.2838 263.678 65.7178 263.538 66.2358 263.426C66.7398 263.314 67.2158 263.244 67.6498 263.244C68.1258 263.244 68.5598 263.3 68.9518 263.384C69.3438 263.482 69.6658 263.664 69.9458 263.916C70.2258 264.168 70.4358 264.504 70.5758 264.924C70.7158 265.344 70.7998 265.876 70.7998 266.52V271.182H69.8058V266.912ZM76.4116 270.342C76.9996 270.342 77.5036 270.286 77.9236 270.146C78.3436 270.02 78.7776 269.824 79.1976 269.572L79.6736 270.482C79.1836 270.762 78.6936 270.972 78.2036 271.112C77.7136 271.252 77.1116 271.322 76.4116 271.322C75.8376 271.322 75.3196 271.224 74.8436 271.014C74.3676 270.818 73.9476 270.538 73.5976 270.174C73.2336 269.81 72.9536 269.39 72.7576 268.9C72.5616 268.41 72.4636 267.878 72.4636 267.29C72.4636 266.702 72.5616 266.156 72.7716 265.666C72.9676 265.176 73.2476 264.756 73.6116 264.392C73.9756 264.028 74.3956 263.748 74.8716 263.552C75.3476 263.356 75.8516 263.244 76.4116 263.244C76.9716 263.244 77.4756 263.342 77.9376 263.538C78.3856 263.734 78.7776 264 79.1136 264.364C79.4496 264.728 79.7016 265.162 79.8976 265.666C80.0796 266.17 80.1776 266.8 80.1916 267.542H73.5276C73.5276 267.85 73.6116 268.2 73.7516 268.564C73.8916 268.928 74.0876 269.25 74.3396 269.502C74.5916 269.768 74.8996 269.978 75.2496 270.118C75.5996 270.272 75.9916 270.342 76.4116 270.342ZM76.4116 264.224C75.9916 264.224 75.6276 264.294 75.2916 264.42C74.9556 264.56 74.6756 264.742 74.4516 264.966C74.2136 265.19 74.0176 265.47 73.8776 265.778C73.7236 266.086 73.6256 266.352 73.5976 266.576H79.0576C79.0296 266.324 78.9316 266.03 78.7916 265.722C78.6516 265.414 78.4556 265.134 78.2316 264.91C78.0076 264.686 77.7416 264.518 77.4336 264.406C77.1256 264.294 76.7756 264.224 76.4116 264.224ZM86.8743 271.182V259.464H93.5943V260.458H87.9103V264.574H93.0063V265.596H87.9103V271.182H86.8743ZM94.9205 263.398H95.9145V271.182H94.9205V263.398ZM95.4245 260.164C95.6205 260.164 95.8025 260.248 95.9565 260.388C96.0965 260.542 96.1805 260.724 96.1805 260.92C96.1805 261.13 96.0965 261.312 95.9565 261.452C95.8025 261.606 95.6205 261.676 95.4245 261.676C95.2145 261.676 95.0325 261.606 94.8925 261.452C94.7385 261.312 94.6685 261.13 94.6685 260.92C94.6685 260.724 94.7385 260.542 94.8925 260.388C95.0325 260.248 95.2145 260.164 95.4245 260.164ZM102.546 264.364H101.258C100.964 264.364 100.656 264.392 100.32 264.448C99.9836 264.504 99.7456 264.546 99.6196 264.588V271.182H98.6256V263.79C99.0176 263.692 99.4236 263.608 99.8436 263.524C100.264 263.44 100.684 263.398 101.118 263.398H102.546V264.364ZM106.529 270.342C106.837 270.342 107.117 270.328 107.397 270.286C107.677 270.244 107.915 270.174 108.111 270.09C108.307 270.006 108.475 269.88 108.587 269.712C108.699 269.558 108.755 269.348 108.755 269.096C108.755 268.746 108.615 268.466 108.335 268.242C108.055 268.032 107.579 267.85 106.935 267.71L106.347 267.584C105.871 267.472 105.465 267.36 105.129 267.22C104.793 267.08 104.513 266.926 104.303 266.73C104.079 266.548 103.925 266.338 103.841 266.086C103.743 265.848 103.701 265.582 103.701 265.274C103.701 264.98 103.771 264.7 103.925 264.448C104.065 264.196 104.275 263.986 104.527 263.804C104.779 263.636 105.087 263.496 105.437 263.398C105.787 263.3 106.165 263.244 106.585 263.244C107.677 263.244 108.685 263.496 109.609 263.986L109.161 264.896C108.699 264.644 108.279 264.476 107.915 264.378C107.537 264.28 107.089 264.224 106.585 264.224C105.983 264.224 105.535 264.322 105.227 264.518C104.919 264.714 104.765 264.966 104.765 265.288C104.765 265.638 104.891 265.904 105.157 266.072C105.409 266.254 105.885 266.408 106.571 266.548L107.089 266.66C107.579 266.772 107.999 266.912 108.349 267.052C108.685 267.192 108.979 267.36 109.203 267.556C109.427 267.752 109.581 267.99 109.679 268.242C109.763 268.508 109.819 268.788 109.819 269.096C109.819 269.46 109.735 269.782 109.581 270.062C109.413 270.342 109.189 270.58 108.895 270.762C108.601 270.958 108.251 271.098 107.859 271.182C107.453 271.28 107.005 271.322 106.529 271.322C105.969 271.322 105.451 271.266 104.975 271.14C104.499 271.028 104.009 270.818 103.505 270.538L103.981 269.586C104.429 269.866 104.863 270.062 105.297 270.174C105.731 270.286 106.137 270.342 106.529 270.342ZM111.013 263.398H112.665V260.584H113.659V263.398H116.879V264.364H113.659V268.158C113.659 268.578 113.687 268.914 113.743 269.166C113.799 269.432 113.897 269.642 114.037 269.782C114.163 269.936 114.345 270.048 114.569 270.118C114.793 270.188 115.073 270.216 115.409 270.216H116.977V271.182H115.507C115.087 271.182 114.709 271.14 114.373 271.056C114.037 270.972 113.729 270.818 113.477 270.608C113.211 270.412 113.015 270.132 112.875 269.796C112.735 269.46 112.665 269.054 112.665 268.55V264.364H111.013V263.398ZM124.948 270.188H130.744V271.182H123.898V259.464H124.948V270.188ZM135.182 271.322C134.734 271.322 134.3 271.28 133.88 271.196C133.46 271.112 133.096 270.986 132.774 270.79C132.452 270.608 132.186 270.356 131.99 270.034C131.794 269.726 131.696 269.334 131.696 268.872C131.696 267.948 132.046 267.29 132.774 266.884C133.488 266.492 134.44 266.282 135.63 266.282C135.854 266.282 136.106 266.296 136.414 266.324C136.722 266.352 136.974 266.38 137.198 266.408V266.324C137.198 265.568 137.016 265.036 136.666 264.714C136.302 264.392 135.756 264.224 135.028 264.224C134.818 264.224 134.608 264.252 134.384 264.28C134.16 264.322 133.95 264.364 133.726 264.42C133.502 264.476 133.306 264.546 133.11 264.63C132.914 264.714 132.634 264.854 132.284 265.05L132.326 263.93C132.816 263.678 133.306 263.51 133.782 263.398C134.258 263.3 134.692 263.244 135.098 263.244C136.134 263.244 136.904 263.482 137.422 263.958C137.926 264.434 138.192 265.176 138.192 266.198V270.748C137.716 270.944 137.226 271.098 136.722 271.182C136.218 271.28 135.7 271.322 135.182 271.322ZM137.198 267.416C137.058 267.388 136.82 267.36 136.47 267.318C136.12 267.29 135.798 267.262 135.49 267.262C135.126 267.262 134.79 267.29 134.454 267.332C134.118 267.388 133.824 267.458 133.572 267.57C133.32 267.682 133.11 267.85 132.97 268.046C132.83 268.242 132.76 268.508 132.76 268.844C132.76 269.152 132.816 269.39 132.942 269.572C133.054 269.768 133.222 269.922 133.432 270.034C133.628 270.146 133.88 270.23 134.174 270.272C134.468 270.328 134.776 270.342 135.112 270.342C135.49 270.342 135.868 270.314 136.26 270.244C136.638 270.188 136.946 270.104 137.198 270.006V267.416ZM143.156 270.342C143.464 270.342 143.744 270.328 144.024 270.286C144.304 270.244 144.542 270.174 144.738 270.09C144.934 270.006 145.102 269.88 145.214 269.712C145.326 269.558 145.382 269.348 145.382 269.096C145.382 268.746 145.242 268.466 144.962 268.242C144.682 268.032 144.206 267.85 143.562 267.71L142.974 267.584C142.498 267.472 142.092 267.36 141.756 267.22C141.42 267.08 141.14 266.926 140.93 266.73C140.706 266.548 140.552 266.338 140.468 266.086C140.37 265.848 140.328 265.582 140.328 265.274C140.328 264.98 140.398 264.7 140.552 264.448C140.692 264.196 140.902 263.986 141.154 263.804C141.406 263.636 141.714 263.496 142.064 263.398C142.414 263.3 142.792 263.244 143.212 263.244C144.304 263.244 145.312 263.496 146.236 263.986L145.788 264.896C145.326 264.644 144.906 264.476 144.542 264.378C144.164 264.28 143.716 264.224 143.212 264.224C142.61 264.224 142.162 264.322 141.854 264.518C141.546 264.714 141.392 264.966 141.392 265.288C141.392 265.638 141.518 265.904 141.784 266.072C142.036 266.254 142.512 266.408 143.198 266.548L143.716 266.66C144.206 266.772 144.626 266.912 144.976 267.052C145.312 267.192 145.606 267.36 145.83 267.556C146.054 267.752 146.208 267.99 146.306 268.242C146.39 268.508 146.446 268.788 146.446 269.096C146.446 269.46 146.362 269.782 146.208 270.062C146.04 270.342 145.816 270.58 145.522 270.762C145.228 270.958 144.878 271.098 144.486 271.182C144.08 271.28 143.632 271.322 143.156 271.322C142.596 271.322 142.078 271.266 141.602 271.14C141.126 271.028 140.636 270.818 140.132 270.538L140.608 269.586C141.056 269.866 141.49 270.062 141.924 270.174C142.358 270.286 142.764 270.342 143.156 270.342ZM147.64 263.398H149.292V260.584H150.286V263.398H153.506V264.364H150.286V268.158C150.286 268.578 150.314 268.914 150.37 269.166C150.426 269.432 150.524 269.642 150.664 269.782C150.79 269.936 150.972 270.048 151.196 270.118C151.42 270.188 151.7 270.216 152.036 270.216H153.604V271.182H152.134C151.714 271.182 151.336 271.14 151 271.056C150.664 270.972 150.356 270.818 150.104 270.608C149.838 270.412 149.642 270.132 149.502 269.796C149.362 269.46 149.292 269.054 149.292 268.55V264.364H147.64V263.398Z" fill="#363636"/>
<path d="M39.8 299V284.402H49.106V286.814H42.392V290.288H48.458V292.736H42.392V299H39.8ZM56.3538 294.608C56.1018 294.554 55.8318 294.5 55.5258 294.464C55.2018 294.428 54.9138 294.392 54.6438 294.392C54.3198 294.392 54.0138 294.428 53.7258 294.464C53.4378 294.5 53.2038 294.572 52.9878 294.68C52.7718 294.788 52.5918 294.914 52.4658 295.076C52.3398 295.256 52.2858 295.454 52.2858 295.688C52.2858 296.156 52.4838 296.498 52.9158 296.678C53.3478 296.858 53.8698 296.948 54.4998 296.948C54.8058 296.948 55.1298 296.93 55.4538 296.876C55.7778 296.84 56.0658 296.768 56.3538 296.66V294.608ZM54.4638 299.216C53.8158 299.216 53.2038 299.162 52.6278 299.036C52.0518 298.928 51.5298 298.73 51.0978 298.46C50.6658 298.208 50.3058 297.866 50.0538 297.434C49.7838 297.002 49.6578 296.48 49.6578 295.85C49.6578 295.292 49.7658 294.788 49.9998 294.356C50.2338 293.924 50.5578 293.564 50.9718 293.276C51.3858 292.988 51.8898 292.772 52.4658 292.628C53.0418 292.484 53.6898 292.412 54.3738 292.412C54.6438 292.412 54.9498 292.43 55.2738 292.448C55.5978 292.466 55.9578 292.502 56.3538 292.556V292.412C56.3538 291.836 56.1378 291.458 55.7058 291.242C55.2738 291.044 54.6978 290.936 54.0138 290.936C53.7438 290.936 53.4558 290.972 53.1498 291.008C52.8258 291.062 52.5198 291.134 52.1958 291.206C51.8718 291.296 51.5658 291.386 51.2778 291.494C50.9718 291.602 50.7018 291.728 50.4498 291.836L50.7738 289.262C51.1698 289.064 51.6918 288.884 52.3398 288.74C52.9698 288.596 53.6358 288.506 54.3558 288.506C55.0038 288.506 55.5978 288.578 56.1558 288.722C56.6958 288.866 57.1818 289.1 57.5778 289.406C57.9738 289.73 58.2978 290.144 58.5318 290.648C58.7478 291.17 58.8738 291.8 58.8738 292.52V298.424C58.2258 298.676 57.5058 298.874 56.7498 299.018C55.9758 299.162 55.2198 299.216 54.4638 299.216ZM64.1089 288.722C64.4869 288.668 64.8469 288.614 65.2069 288.578C65.5489 288.542 65.8549 288.506 66.1429 288.506C66.7909 288.506 67.3849 288.578 67.9609 288.686C68.5369 288.812 69.0229 289.028 69.4549 289.334C69.8689 289.658 70.1929 290.09 70.4449 290.612C70.6969 291.152 70.8229 291.836 70.8229 292.664V299H68.3029V293.384C68.3029 292.466 68.1049 291.836 67.7269 291.494C67.3309 291.152 66.7729 290.972 66.0349 290.972C65.7469 290.972 65.4589 290.99 65.1349 291.026C64.8109 291.062 64.4689 291.116 64.1089 291.17V299H61.5889V284.402H64.1089V288.722ZM75.324 293.888C75.324 294.878 75.612 295.598 76.206 296.066C76.782 296.534 77.574 296.75 78.582 296.75C79.032 296.75 79.554 296.696 80.148 296.552V291.188C79.824 291.116 79.554 291.062 79.302 291.026C79.05 290.99 78.798 290.972 78.582 290.972C77.574 290.972 76.782 291.224 76.206 291.692C75.612 292.178 75.324 292.916 75.324 293.888ZM80.148 284.402H82.668V298.694C81.408 299.054 80.04 299.216 78.6 299.216C77.664 299.216 76.818 299.09 76.098 298.82C75.36 298.55 74.73 298.172 74.226 297.686C73.722 297.218 73.326 296.642 73.074 295.994C72.804 295.346 72.678 294.644 72.678 293.888C72.678 293.132 72.804 292.43 73.074 291.782C73.344 291.134 73.74 290.558 74.244 290.072C74.748 289.586 75.342 289.208 76.044 288.92C76.746 288.65 77.538 288.506 78.402 288.506C78.618 288.506 78.888 288.524 79.176 288.542C79.464 288.578 79.788 288.614 80.148 288.65V284.402ZM103.651 299H100.933L99.6915 295.562H93.6435L92.4195 299H89.7015L95.1015 284.402H98.2515L103.651 299ZM94.5075 293.132H98.8275L96.6675 287.066L94.5075 293.132ZM107.808 296.552C108.384 296.696 108.906 296.75 109.374 296.75C110.364 296.75 111.156 296.534 111.75 296.066C112.326 295.598 112.632 294.878 112.632 293.888C112.632 292.916 112.326 292.178 111.75 291.692C111.156 291.224 110.364 290.972 109.374 290.972C109.122 290.972 108.888 290.99 108.636 291.026C108.384 291.062 108.096 291.116 107.808 291.188V296.552ZM107.808 288.65C108.15 288.614 108.474 288.578 108.762 288.542C109.05 288.524 109.302 288.506 109.554 288.506C110.418 288.506 111.192 288.65 111.894 288.92C112.596 289.208 113.19 289.586 113.694 290.072C114.198 290.558 114.576 291.134 114.846 291.782C115.116 292.43 115.26 293.132 115.26 293.888C115.26 294.644 115.116 295.346 114.864 295.994C114.594 296.642 114.216 297.218 113.712 297.686C113.208 298.172 112.578 298.55 111.858 298.82C111.12 299.09 110.292 299.216 109.356 299.216C107.88 299.216 106.53 299.054 105.288 298.694V284.402H107.808V288.65ZM119.357 293.888C119.357 294.878 119.645 295.598 120.239 296.066C120.815 296.534 121.607 296.75 122.615 296.75C123.065 296.75 123.587 296.696 124.181 296.552V291.188C123.857 291.116 123.587 291.062 123.335 291.026C123.083 290.99 122.831 290.972 122.615 290.972C121.607 290.972 120.815 291.224 120.239 291.692C119.645 292.178 119.357 292.916 119.357 293.888ZM124.181 284.402H126.701V298.694C125.441 299.054 124.073 299.216 122.633 299.216C121.697 299.216 120.851 299.09 120.131 298.82C119.393 298.55 118.763 298.172 118.259 297.686C117.755 297.218 117.359 296.642 117.107 295.994C116.837 295.346 116.711 294.644 116.711 293.888C116.711 293.132 116.837 292.43 117.107 291.782C117.377 291.134 117.773 290.558 118.277 290.072C118.781 289.586 119.375 289.208 120.077 288.92C120.779 288.65 121.571 288.506 122.435 288.506C122.651 288.506 122.921 288.524 123.209 288.542C123.497 288.578 123.821 288.614 124.181 288.65V284.402ZM135.754 294.608C135.502 294.554 135.232 294.5 134.926 294.464C134.602 294.428 134.314 294.392 134.044 294.392C133.72 294.392 133.414 294.428 133.126 294.464C132.838 294.5 132.604 294.572 132.388 294.68C132.172 294.788 131.992 294.914 131.866 295.076C131.74 295.256 131.686 295.454 131.686 295.688C131.686 296.156 131.884 296.498 132.316 296.678C132.748 296.858 133.27 296.948 133.9 296.948C134.206 296.948 134.53 296.93 134.854 296.876C135.178 296.84 135.466 296.768 135.754 296.66V294.608ZM133.864 299.216C133.216 299.216 132.604 299.162 132.028 299.036C131.452 298.928 130.93 298.73 130.498 298.46C130.066 298.208 129.706 297.866 129.454 297.434C129.184 297.002 129.058 296.48 129.058 295.85C129.058 295.292 129.166 294.788 129.4 294.356C129.634 293.924 129.958 293.564 130.372 293.276C130.786 292.988 131.29 292.772 131.866 292.628C132.442 292.484 133.09 292.412 133.774 292.412C134.044 292.412 134.35 292.43 134.674 292.448C134.998 292.466 135.358 292.502 135.754 292.556V292.412C135.754 291.836 135.538 291.458 135.106 291.242C134.674 291.044 134.098 290.936 133.414 290.936C133.144 290.936 132.856 290.972 132.55 291.008C132.226 291.062 131.92 291.134 131.596 291.206C131.272 291.296 130.966 291.386 130.678 291.494C130.372 291.602 130.102 291.728 129.85 291.836L130.174 289.262C130.57 289.064 131.092 288.884 131.74 288.74C132.37 288.596 133.036 288.506 133.756 288.506C134.404 288.506 134.998 288.578 135.556 288.722C136.096 288.866 136.582 289.1 136.978 289.406C137.374 289.73 137.698 290.144 137.932 290.648C138.148 291.17 138.274 291.8 138.274 292.52V298.424C137.626 298.676 136.906 298.874 136.15 299.018C135.376 299.162 134.62 299.216 133.864 299.216ZM140.989 299V284.402H143.509V299H140.989ZM146.421 299V284.402H148.941V299H146.421ZM157.991 294.608C157.739 294.554 157.469 294.5 157.163 294.464C156.839 294.428 156.551 294.392 156.281 294.392C155.957 294.392 155.651 294.428 155.363 294.464C155.075 294.5 154.841 294.572 154.625 294.68C154.409 294.788 154.229 294.914 154.103 295.076C153.977 295.256 153.923 295.454 153.923 295.688C153.923 296.156 154.121 296.498 154.553 296.678C154.985 296.858 155.507 296.948 156.137 296.948C156.443 296.948 156.767 296.93 157.091 296.876C157.415 296.84 157.703 296.768 157.991 296.66V294.608ZM156.101 299.216C155.453 299.216 154.841 299.162 154.265 299.036C153.689 298.928 153.167 298.73 152.735 298.46C152.303 298.208 151.943 297.866 151.691 297.434C151.421 297.002 151.295 296.48 151.295 295.85C151.295 295.292 151.403 294.788 151.637 294.356C151.871 293.924 152.195 293.564 152.609 293.276C153.023 292.988 153.527 292.772 154.103 292.628C154.679 292.484 155.327 292.412 156.011 292.412C156.281 292.412 156.587 292.43 156.911 292.448C157.235 292.466 157.595 292.502 157.991 292.556V292.412C157.991 291.836 157.775 291.458 157.343 291.242C156.911 291.044 156.335 290.936 155.651 290.936C155.381 290.936 155.093 290.972 154.787 291.008C154.463 291.062 154.157 291.134 153.833 291.206C153.509 291.296 153.203 291.386 152.915 291.494C152.609 291.602 152.339 291.728 152.087 291.836L152.411 289.262C152.807 289.064 153.329 288.884 153.977 288.74C154.607 288.596 155.273 288.506 155.993 288.506C156.641 288.506 157.235 288.578 157.793 288.722C158.333 288.866 158.819 289.1 159.215 289.406C159.611 289.73 159.935 290.144 160.169 290.648C160.385 291.17 160.511 291.8 160.511 292.52V298.424C159.863 298.676 159.143 298.874 158.387 299.018C157.613 299.162 156.857 299.216 156.101 299.216ZM165.746 288.722C166.124 288.668 166.484 288.614 166.844 288.578C167.186 288.542 167.492 288.506 167.78 288.506C168.428 288.506 169.022 288.578 169.598 288.686C170.174 288.812 170.66 289.028 171.092 289.334C171.506 289.658 171.83 290.09 172.082 290.612C172.334 291.152 172.46 291.836 172.46 292.664V299H169.94V293.384C169.94 292.466 169.742 291.836 169.364 291.494C168.968 291.152 168.41 290.972 167.672 290.972C167.384 290.972 167.096 290.99 166.772 291.026C166.448 291.062 166.106 291.116 165.746 291.17V299H163.226V284.402H165.746V288.722Z" fill="#363636"/>
<path d="M38 355.076V372.676H39.753H41.5059V355.076V337.477H39.753H38V355.076Z" fill="#363636"/>
<path d="M44.0117 355.076V372.676H44.763H45.5143V355.076V337.477H44.763H44.0117V355.076Z" fill="#363636"/>
<path d="M49.7715 355.076V372.676H50.5228H51.274V355.076V337.477H50.5228H49.7715V355.076Z" fill="#363636"/>
<path d="M59.7871 355.076V372.676H63.4183H67.0494V355.076V337.477H63.4183H59.7871V355.076Z" fill="#363636"/>
<path d="M69.5527 355.076V372.676H70.304H71.0553V355.076V337.477H70.304H69.5527V355.076Z" fill="#363636"/>
<path d="M73.5605 355.076V372.676H76.3152H79.0699V355.076V337.477H76.3152H73.5605V355.076Z" fill="#363636"/>
<path d="M81.5762 355.076V372.676H84.2056H86.8351V355.076V337.477H84.2056H81.5762V355.076Z" fill="#363636"/>
<path d="M89.3379 355.076V372.676H90.0892H90.8404V355.076V337.477H90.0892H89.3379V355.076Z" fill="#363636"/>
<path d="M97.0977 355.076V372.676H98.8506H100.604V355.076V337.477H98.8506H97.0977V355.076Z" fill="#363636"/>
<path d="M103.111 355.076V372.676H103.863H104.614V355.076V337.477H103.863H103.111V355.076Z" fill="#363636"/>
<path d="M112.879 355.076V372.676H114.632H116.385V355.076V337.477H114.632H112.879V355.076Z" fill="#363636"/>
<path d="M118.887 355.076V372.676H119.638H120.389V355.076V337.477H119.638H118.887V355.076Z" fill="#363636"/>
<path d="M124.898 355.076V372.676H126.526H128.154V355.076V337.477H126.526H124.898V355.076Z" fill="#363636"/>
<path d="M136.67 355.076V372.676H137.421H138.172V355.076V337.477H137.421H136.67V355.076Z" fill="#363636"/>
<path d="M142.678 355.076V372.676H143.429H144.18V355.076V337.477H143.429H142.678V355.076Z" fill="#363636"/>
<path d="M146.686 355.076V372.676H147.312H147.938V355.076V337.477H147.312H146.686V355.076Z" fill="#363636"/>
<path d="M156.449 355.076V372.676H158.202H159.955V355.076V337.477H158.202H156.449V355.076Z" fill="#363636"/>
<path d="M162.209 355.076V372.676H162.96H163.712V355.076V337.477H162.96H162.209V355.076Z" fill="#363636"/>
<path d="M168.221 355.076V372.676H168.972H169.723V355.076V337.477H168.972H168.221V355.076Z" fill="#363636"/>
<path d="M172.227 355.076V372.676H172.978H173.729V355.076V337.477H172.978H172.227V355.076Z" fill="#363636"/>
<path d="M177.988 355.076V372.676H181.745H185.501V355.076V337.477H181.745H177.988V355.076Z" fill="#363636"/>
<path d="M190.008 355.076V372.676H190.759H191.51V355.076V337.477H190.759H190.008V355.076Z" fill="#363636"/>
<path d="M194.014 355.076V372.676H195.641H197.269V355.076V337.477H195.641H194.014V355.076Z" fill="#363636"/>
<path d="M201.779 355.076V372.676H202.531H203.282V355.076V337.477H202.531H201.779V355.076Z" fill="#363636"/>
<path d="M211.543 355.076V372.676H212.294H213.046V355.076V337.477H212.294H211.543V355.076Z" fill="#363636"/>
<path d="M221.312 355.076V372.676H222.064H222.815V355.076V337.477H222.064H221.312V355.076Z" fill="#363636"/>
<path d="M227.32 355.076V372.676H229.073H230.826V355.076V337.477H229.073H227.32V355.076Z" fill="#363636"/>
<path d="M233.332 355.076V372.676H234.083H234.835V355.076V337.477H234.083H233.332V355.076Z" fill="#363636"/>
<path d="M243.1 355.076V372.676H244.853H246.606V355.076V337.477H244.853H243.1V355.076Z" fill="#363636"/>
<path d="M249.107 355.076V372.676H249.859H250.61V355.076V337.477H249.859H249.107V355.076Z" fill="#363636"/>
<path d="M254.994 355.076V372.676H255.695H256.371V355.076V337.477H255.695H254.994V355.076Z" fill="#363636"/>
<path d="M260.879 355.076V372.676H261.63H262.381V355.076V337.477H261.63H260.879V355.076Z" fill="#363636"/>
<path d="M264.883 355.076V372.676H266.636H268.389V355.076V337.477H266.636H264.883V355.076Z" fill="#363636"/>
<path d="M276.654 355.076V372.676H277.406H278.157V355.076V337.477H277.406H276.654V355.076Z" fill="#363636"/>
<path d="M280.664 355.076V372.676H284.295H287.926V355.076V337.477H284.295H280.664V355.076Z" fill="#363636"/>
<path d="M290.428 355.076V372.676H293.182H295.937V355.076V337.477H293.182H290.428V355.076Z" fill="#363636"/>
<path d="M298.441 355.076V372.676H300.194H301.947V355.076V337.477H300.194H298.441V355.076Z" fill="#363636"/>
<path d="M308.211 355.076V372.676H310.966H313.72V355.076V337.477H310.966H308.211V355.076Z" fill="#363636"/>
<path d="M315.971 355.076V372.676H316.722H317.473V355.076V337.477H316.722H315.971V355.076Z" fill="#363636"/>
<path d="M319.977 355.076V372.676H321.73H323.483V355.076V337.477H321.73H319.977V355.076Z" fill="#363636"/>
<path d="M470.34 351.46V354.2H466.62V365.5H463.2V354.2H459.48V351.46H470.34ZM477.136 365.66C476.043 365.66 475.056 365.427 474.176 364.96C473.31 364.493 472.623 363.827 472.116 362.96C471.623 362.093 471.376 361.08 471.376 359.92C471.376 358.773 471.63 357.767 472.136 356.9C472.643 356.02 473.336 355.347 474.216 354.88C475.096 354.413 476.083 354.18 477.176 354.18C478.27 354.18 479.256 354.413 480.136 354.88C481.016 355.347 481.71 356.02 482.216 356.9C482.723 357.767 482.976 358.773 482.976 359.92C482.976 361.067 482.716 362.08 482.196 362.96C481.69 363.827 480.99 364.493 480.096 364.96C479.216 365.427 478.23 365.66 477.136 365.66ZM477.136 362.7C477.79 362.7 478.343 362.46 478.796 361.98C479.263 361.5 479.496 360.813 479.496 359.92C479.496 359.027 479.27 358.34 478.816 357.86C478.376 357.38 477.83 357.14 477.176 357.14C476.51 357.14 475.956 357.38 475.516 357.86C475.076 358.327 474.856 359.013 474.856 359.92C474.856 360.813 475.07 361.5 475.496 361.98C475.936 362.46 476.483 362.7 477.136 362.7ZM491.011 362.6V365.5H489.271C488.031 365.5 487.064 365.2 486.371 364.6C485.677 363.987 485.331 362.993 485.331 361.62V357.18H483.971V354.34H485.331V351.62H488.751V354.34H490.991V357.18H488.751V361.66C488.751 361.993 488.831 362.233 488.991 362.38C489.151 362.527 489.417 362.6 489.791 362.6H491.011ZM492.236 359.9C492.236 358.753 492.449 357.747 492.876 356.88C493.316 356.013 493.909 355.347 494.656 354.88C495.402 354.413 496.236 354.18 497.156 354.18C497.942 354.18 498.629 354.34 499.216 354.66C499.816 354.98 500.276 355.4 500.596 355.92V354.34H504.016V365.5H500.596V363.92C500.262 364.44 499.796 364.86 499.196 365.18C498.609 365.5 497.922 365.66 497.136 365.66C496.229 365.66 495.402 365.427 494.656 364.96C493.909 364.48 493.316 363.807 492.876 362.94C492.449 362.06 492.236 361.047 492.236 359.9ZM500.596 359.92C500.596 359.067 500.356 358.393 499.876 357.9C499.409 357.407 498.836 357.16 498.156 357.16C497.476 357.16 496.896 357.407 496.416 357.9C495.949 358.38 495.716 359.047 495.716 359.9C495.716 360.753 495.949 361.433 496.416 361.94C496.896 362.433 497.476 362.68 498.156 362.68C498.836 362.68 499.409 362.433 499.876 361.94C500.356 361.447 500.596 360.773 500.596 359.92ZM509.91 350.7V365.5H506.49V350.7H509.91ZM515.947 359.92C515.947 358.76 516.18 357.747 516.647 356.88C517.127 356.013 517.787 355.347 518.627 354.88C519.48 354.413 520.453 354.18 521.547 354.18C522.947 354.18 524.113 354.547 525.047 355.28C525.993 356.013 526.613 357.047 526.907 358.38H523.267C522.96 357.527 522.367 357.1 521.487 357.1C520.86 357.1 520.36 357.347 519.987 357.84C519.613 358.32 519.427 359.013 519.427 359.92C519.427 360.827 519.613 361.527 519.987 362.02C520.36 362.5 520.86 362.74 521.487 362.74C522.367 362.74 522.96 362.313 523.267 361.46H526.907C526.613 362.767 525.993 363.793 525.047 364.54C524.1 365.287 522.933 365.66 521.547 365.66C520.453 365.66 519.48 365.427 518.627 364.96C517.787 364.493 517.127 363.827 516.647 362.96C516.18 362.093 515.947 361.08 515.947 359.92ZM528.056 359.9C528.056 358.753 528.269 357.747 528.696 356.88C529.136 356.013 529.729 355.347 530.476 354.88C531.223 354.413 532.056 354.18 532.976 354.18C533.763 354.18 534.449 354.34 535.036 354.66C535.636 354.98 536.096 355.4 536.416 355.92V354.34H539.836V365.5H536.416V363.92C536.083 364.44 535.616 364.86 535.016 365.18C534.429 365.5 533.743 365.66 532.956 365.66C532.049 365.66 531.223 365.427 530.476 364.96C529.729 364.48 529.136 363.807 528.696 362.94C528.269 362.06 528.056 361.047 528.056 359.9ZM536.416 359.92C536.416 359.067 536.176 358.393 535.696 357.9C535.229 357.407 534.656 357.16 533.976 357.16C533.296 357.16 532.716 357.407 532.236 357.9C531.769 358.38 531.536 359.047 531.536 359.9C531.536 360.753 531.769 361.433 532.236 361.94C532.716 362.433 533.296 362.68 533.976 362.68C534.656 362.68 535.229 362.433 535.696 361.94C536.176 361.447 536.416 360.773 536.416 359.92ZM545.73 356.2C546.13 355.587 546.63 355.107 547.23 354.76C547.83 354.4 548.497 354.22 549.23 354.22V357.84H548.29C547.437 357.84 546.797 358.027 546.37 358.4C545.944 358.76 545.73 359.4 545.73 360.32V365.5H542.31V354.34H545.73V356.2ZM561.385 359.74C561.385 360.06 561.365 360.393 561.325 360.74H553.585C553.638 361.433 553.858 361.967 554.245 362.34C554.645 362.7 555.132 362.88 555.705 362.88C556.558 362.88 557.152 362.52 557.485 361.8H561.125C560.938 362.533 560.598 363.193 560.105 363.78C559.625 364.367 559.018 364.827 558.285 365.16C557.552 365.493 556.732 365.66 555.825 365.66C554.732 365.66 553.758 365.427 552.905 364.96C552.052 364.493 551.385 363.827 550.905 362.96C550.425 362.093 550.185 361.08 550.185 359.92C550.185 358.76 550.418 357.747 550.885 356.88C551.365 356.013 552.032 355.347 552.885 354.88C553.738 354.413 554.718 354.18 555.825 354.18C556.905 354.18 557.865 354.407 558.705 354.86C559.545 355.313 560.198 355.96 560.665 356.8C561.145 357.64 561.385 358.62 561.385 359.74ZM557.885 358.84C557.885 358.253 557.685 357.787 557.285 357.44C556.885 357.093 556.385 356.92 555.785 356.92C555.212 356.92 554.725 357.087 554.325 357.42C553.938 357.753 553.698 358.227 553.605 358.84H557.885Z" fill="#0C4745"/>
</g>
</g>
<defs>
<filter id="filter0_d_71_25476" x="0" y="0" width="600" height="417" filterUnits="userSpaceOnUse" color-interpolation-filters="sRGB">
<feFlood flood-opacity="0" result="BackgroundImageFix"/>
<feColorMatrix in="SourceAlpha" type="matrix" values="0 0 0 0 0 0 0 0 0 0 0 0 0 0 0 0 0 0 127 0" result="hardAlpha"/>
<feOffset/>
<feGaussianBlur stdDeviation="2"/>
<feComposite in2="hardAlpha" operator="out"/>
<feColorMatrix type="matrix" values="0 0 0 0 0 0 0 0 0 0 0 0 0 0 0 0 0 0 0.25 0"/>
<feBlend mode="normal" in2="BackgroundImageFix" result="effect1_dropShadow_71_25476"/>
<feBlend mode="normal" in="SourceGraphic" in2="effect1_dropShadow_71_25476" result="shape"/>
</filter>
<clipPath id="clip0_71_25476">
<rect x="4" y="4" width="592" height="409" rx="38" fill="white"/>
</clipPath>
</defs>
</svg>
