<svg width="281" height="281" viewBox="0 0 281 281" fill="none" xmlns="http://www.w3.org/2000/svg">
<g clip-path="url(#clip0_14_11639)">
<path d="M91.3274 166.868C83.3436 154.114 76.2811 140.929 74.0157 125.81C70.1308 99.8834 77.7816 78.024 97.9438 61.0159C108.548 52.0707 121.03 47.3245 134.898 46.3319C152.947 45.04 169.335 49.5171 183.657 60.7221C193.285 68.2549 200.016 77.9706 204.259 89.4207C204.353 89.6737 204.399 89.9447 204.467 90.2073C204.324 91.5647 204.951 92.7767 205.227 94.051C205.634 95.9348 205.715 97.8396 205.83 99.7466C205.853 100.117 205.818 100.48 205.492 100.737C204.592 100.633 204.713 99.8448 204.587 99.287C203.278 93.4707 201.306 87.8978 198.55 82.6066C196.112 77.9275 193.004 73.728 189.58 69.7255C187.28 67.0369 184.593 64.7978 181.939 62.5038C172.744 55.3635 162.317 51.1194 150.858 49.3477C148.474 48.979 146.067 48.6737 143.638 48.7001C137.432 48.5343 131.282 48.9346 125.209 50.3185C123.425 50.725 121.726 51.3535 120.003 51.9228C116.69 52.5449 113.681 54.0088 110.731 55.5272C106.425 57.7434 102.376 60.3826 98.6592 63.5212C92.2028 68.9741 87.0191 75.4467 83.0143 82.8708C81.4095 85.8458 80.0026 88.9146 78.9673 92.1431C76.016 100.461 75.1398 109.074 75.6436 117.809C76.2181 127.768 78.8612 137.244 82.9298 146.345C85.3424 151.741 88.2692 156.85 91.3001 161.907C91.7701 163.512 92.9102 164.746 93.6764 166.187C93.9262 166.657 94.3575 167.069 94.1757 167.684C93.8082 167.944 93.4613 167.794 93.1943 167.549C92.6573 167.056 91.9829 167.002 91.3274 166.868Z" fill="#0C4745"/>
<path d="M190.189 182.757C191.438 179.869 193.467 177.509 195.386 175.074C196.78 173.34 198.636 172.084 200.149 170.473C200.474 170.191 200.659 169.68 201.234 169.803C202.904 168.695 204.403 167.334 206.261 166.503C209.024 165.266 210.173 165.733 211.065 168.616C212.218 172.34 212.331 176.18 212.048 180.018C211.619 185.843 210.29 191.47 207.995 196.858C207.488 198.047 207.664 199.298 207.932 200.5C208.229 201.834 209.298 201.516 210.153 201.291C212.819 200.59 215.342 199.524 217.648 197.998C221.182 195.66 225.001 193.946 229.056 192.747C230.502 192.32 231.967 191.998 233.478 191.848C234.779 191.72 235.236 192.345 235.254 193.497C235.272 194.692 235.059 195.864 234.788 197.021C233.21 203.78 230.241 209.917 226.418 215.669C225.863 216.504 225.3 217.333 224.74 218.165C224.35 218.609 224.228 219.376 223.364 219.241C222.7 219.137 222.467 218.702 222.381 218.116C222.572 216.7 223.479 215.614 224.172 214.454C226.425 210.682 228.412 206.774 230.331 202.83C231.289 200.862 231.962 198.789 232.452 196.435C230.863 197.267 230.006 198.57 228.879 199.538C229.132 200.16 229.711 200.033 230.056 200.306C230.352 200.541 230.66 200.77 230.615 201.182C230.562 201.657 230.197 201.858 229.771 201.962C229.682 201.984 229.588 202.018 229.501 202.003C226.67 201.494 225.094 203.492 223.338 205.108C222.978 205.438 222.538 205.702 222.254 206.208C223.198 206.307 224.088 206.455 224.98 206.593C225.719 206.708 226.343 207.081 226.272 207.916C226.194 208.823 225.416 208.933 224.717 208.858C223.49 208.725 222.268 208.629 221.031 208.61C220.006 208.595 219.159 208.901 218.401 209.562C217.369 210.462 216.447 211.483 215.344 212.307C214.735 212.762 214.848 213.067 215.571 213.286C217.093 213.745 218.635 213.732 220.191 213.595C220.463 213.57 220.73 213.493 221.005 213.489C221.611 213.481 222.139 213.691 222.273 214.309C222.402 214.906 221.918 215.219 221.441 215.411C219.371 216.245 217.166 216.413 215.129 215.678C213.041 214.925 211.562 215.377 210.198 216.939C209.819 217.374 209.275 217.657 208.885 218.272C210.138 218.559 211.31 218.901 212.478 219.252C213.212 219.472 214.16 219.67 213.872 220.731C213.621 221.655 212.759 221.502 212.024 221.376C210.58 221.128 209.166 220.75 207.755 220.369C206.865 220.129 206.147 220.293 205.526 220.981C204.942 221.629 204.215 222.117 203.543 222.665C202.894 223.194 203.027 223.514 203.746 223.802C204.683 224.178 205.64 224.466 206.628 224.674C207.382 224.832 208.141 225.114 207.91 226.089C207.683 227.046 206.887 226.983 206.129 226.822C204.609 226.498 203.084 226.18 201.643 225.582C200.873 225.262 200.245 225.396 199.615 225.905C197.88 227.31 196.084 228.64 194.399 230.16C195.013 229.951 195.58 229.648 196.234 229.734C197.399 229.967 198.706 230.017 198.771 231.682C198.41 232.394 197.684 232.403 197.044 232.567C196.216 232.781 195.399 233.031 194.58 233.281C192.189 233.412 189.799 233.545 187.413 233.211C186.802 232.853 187.12 232.439 187.341 232.03C187.759 231.484 188.25 231.039 188.976 230.96C189.572 230.896 189.851 230.372 190.281 230.066C191.792 229.237 192.215 227.84 192.253 226.253C192.287 224.882 192.231 223.509 192.282 222.138C192.306 221.472 192.426 220.781 193.256 220.722C194.046 220.666 194.354 221.295 194.523 221.936C194.909 223.401 195.032 224.888 194.599 226.622C196.038 225.522 197.197 224.515 198.367 223.522C198.901 223.068 199.013 222.494 198.953 221.795C198.795 219.969 198.461 218.175 198.148 216.374C198.005 215.548 197.674 214.365 198.689 214.087C199.727 213.802 199.976 215.03 200.295 215.791C200.972 217.407 201.276 219.113 201.242 221.029C203.375 219.628 205.206 218.24 204.89 215.406C204.692 213.634 205.349 211.867 204.961 210.083C204.884 209.726 205.028 209.357 205.219 209.035C205.714 208.2 206.423 208.198 206.887 209.045C207.251 209.71 207.249 210.449 207.265 211.184C207.298 212.722 207.18 214.267 207.36 215.998C208.983 214.782 210.348 213.537 211.677 212.252C211.987 211.952 212.002 211.507 212.008 211.091C212.035 209.265 212.427 207.458 212.302 205.622C212.284 205.35 212.319 205.074 212.392 204.807C212.493 204.433 212.682 204.122 213.088 204.04C213.509 203.955 213.788 204.214 213.993 204.528C214.481 205.28 214.659 206.123 214.665 207.009C214.671 207.876 214.692 208.743 214.627 209.679C216.001 208.686 217.137 207.51 218.346 206.419C218.983 205.845 219.276 205.079 219.404 204.241C219.611 202.886 219.85 201.536 220.054 200.179C220.15 199.538 220.382 198.808 221.176 198.848C222.022 198.891 222.02 199.676 222.064 200.314C222.113 201.035 222.048 201.763 222.125 202.666C225.254 200.193 227.465 196.985 230.82 194.597C227.139 195.485 223.95 196.777 221.044 198.687C219.831 199.485 218.769 200.503 217.469 201.2C215.092 202.476 212.48 203.015 209.892 203.535C207.718 203.971 206.011 204.938 204.551 206.578C202.262 209.147 199.64 211.355 196.79 213.288C194.661 214.733 193.262 216.833 191.753 218.847C191.038 219.8 190.609 221.054 189.318 221.49C188.81 221.086 188.723 220.546 188.816 219.948C190.22 217.147 191.739 214.421 193.938 212.378C192.618 212.817 191.204 213.593 189.545 213.199C189.462 212.374 189.66 211.659 190.342 211.128C192.245 210.522 194.089 209.663 196.18 209.907C196.903 209.992 197.476 209.519 198.037 209.128C199.884 207.842 201.433 206.226 202.991 204.62C203.436 204.161 203.605 203.622 203.534 202.994C203.379 201.626 203.713 200.324 204.35 199.16C207.566 193.286 209.148 186.977 209.622 180.334C209.847 177.187 209.987 174.051 209.514 170.919C209.392 170.109 209.221 169.301 208.729 168.613C208.112 168.055 207.527 168.431 206.962 168.699C204.634 169.805 202.663 171.427 200.726 173.09C197.562 175.806 194.799 178.862 192.782 182.545C192.567 182.938 192.315 183.34 191.804 183.433C191.201 183.361 190.521 183.475 190.189 182.757Z" fill="#46664E"/>
<path d="M187.117 232.936C189.687 232.944 192.257 232.952 194.827 232.96C197.611 232.303 200.432 232.507 203.247 232.608C204.056 232.766 204.837 232.517 205.63 232.428C210.978 232.607 216.326 232.513 221.674 232.516C223.639 232.516 225.605 232.479 227.57 232.609C227.844 232.645 228.088 232.741 228.262 232.971C233.77 232.98 239.279 232.985 244.788 233.007C245.273 233.009 245.792 232.855 246.242 233.189C246.024 233.42 245.738 233.367 245.471 233.367C239.999 233.37 234.527 233.371 229.055 233.363C228.82 233.362 228.497 233.511 228.376 233.118C228.217 233.057 228.578 233.143 228.427 233.245C228.323 233.315 228.34 233.362 228.477 233.363C233.949 233.394 239.421 233.365 244.893 233.381C245.436 233.382 245.988 233.291 246.521 233.476C246.959 235.015 246.674 235.387 244.98 235.389C237.711 235.395 230.442 235.388 223.172 235.389C160.858 235.402 98.544 235.415 36.23 235.428C34.3328 235.429 33.9812 235.011 34.5723 233.459C35.2444 233.337 35.9123 233.231 36.6045 233.228C54.3673 233.158 72.1304 233.022 89.8926 233.166C93.4231 233.195 96.9599 233.365 100.496 233.372C97.789 233.357 95.082 233.394 92.3748 233.35C92.1806 233.278 92.1123 233.142 92.1693 232.943C93.0316 232.282 94.0293 232.617 94.9739 232.561C97.2853 232.497 99.5969 232.501 101.908 232.555C102.33 232.593 102.754 232.512 103.176 232.56C103.601 232.586 104.03 232.58 104.447 232.688C104.976 232.86 105.524 232.846 106.071 232.846C116.142 232.846 126.213 232.823 136.283 232.876C137.455 232.882 138.365 232.311 139.399 232.032C140.209 231.901 140.835 232.632 141.645 232.519C142.409 233.143 143.368 232.89 144.23 233.086C154.464 233.166 164.696 233.099 174.927 233.118C178.718 233.126 182.509 233.119 186.295 233.117C186.437 233.084 186.576 233.034 186.705 232.961C186.836 232.879 186.975 232.872 187.117 232.936Z" fill="#0C4745"/>
<path d="M84.872 170.096C90.9795 172.247 94.7862 177.501 95.2214 184.393C95.3105 185.805 95.3778 187.218 95.4414 188.632C95.5759 191.618 96.3471 194.302 98.8785 196.211C99.5312 196.703 100.101 197.306 100.708 197.859C100.543 198.493 100.154 198.112 99.8975 197.995C99.3529 197.745 98.9976 197.253 98.5903 196.813C98.624 197.398 98.4031 197.794 97.8233 197.942C95.1882 196.717 93.448 194.177 93.5968 191.922C92.5176 194.161 91.2506 196.414 88.9627 197.853C88.1308 198.376 87.8738 198.973 88.1558 199.91C88.498 201.048 88.6436 202.233 88.8517 203.402C88.8976 203.661 88.9292 203.997 89.2718 204.026C89.5084 204.046 89.6639 203.816 89.7988 203.633C90.503 202.675 91.1365 201.671 91.7836 200.675C92.0544 200.258 92.3531 199.721 92.9551 199.991C93.5511 200.258 93.5588 200.851 93.4216 201.42C92.9891 203.212 92.042 204.713 90.6407 205.876C89.8897 206.499 89.665 207.122 89.9952 208.017C90.4395 209.222 90.5992 210.501 90.9226 211.738C91.1994 212.796 91.4447 212.886 92.2554 212.135C93.7234 210.773 94.6387 209.032 95.4605 207.237C95.6506 206.822 95.7751 206.375 96.0222 205.989C96.3181 205.527 96.6445 204.959 97.2922 205.206C97.8624 205.423 97.8 206.047 97.7058 206.529C97.299 208.612 96.6531 210.605 95.1906 212.219C94.4859 212.998 93.7747 213.788 92.8933 214.368C92.0357 214.932 91.8346 215.612 92.1179 216.591C93.0321 219.75 93.7741 222.956 94.739 226.102C95.3085 227.958 95.3928 229.873 95.2995 231.8C95.2839 232.121 95.2495 232.44 95.0236 232.698C94.2303 232.516 93.8457 231.76 93.1851 231.39C92.628 229.983 92.4815 228.471 92.0818 227.022C91.7877 225.957 91.2237 225.168 90.32 224.521C87.3568 222.398 84.6992 219.867 81.5832 217.945C81.4286 217.849 81.2907 217.722 81.175 217.582C80.8919 217.24 80.4429 216.903 80.7481 216.404C81.0956 215.835 81.6339 216.051 82.0872 216.275C84.7574 217.592 87.2179 219.234 89.5081 221.134C89.8579 221.424 90.1807 221.748 90.6988 222.094C90.4073 220.058 89.6791 218.267 89.1894 216.417C89.0314 215.82 88.5 215.747 87.9988 215.669C86.6047 215.451 85.19 215.35 83.835 214.912C83.2308 214.717 82.585 214.625 82.0925 214.17C82.0103 213.506 82.3911 213.012 82.7104 212.494C83.8953 212.174 84.9435 212.795 86.0497 212.996C88.5344 213.447 88.5295 213.472 87.9455 211.102C87.694 210.082 87.385 209.073 87.1898 208.042C86.9973 207.026 86.4626 206.447 85.4628 206.165C83.202 205.527 81.107 204.515 79.2038 203.132C78.665 202.74 77.8061 202.287 78.1853 201.561C78.6317 200.707 79.4838 201.248 80.1186 201.553C82.0463 202.478 83.9633 203.422 86.2665 204.077C85.8668 202.208 85.5807 200.519 85.1603 198.858C84.9882 198.179 84.3479 198.059 83.7723 197.896C81.7854 197.334 79.8696 196.589 78.0999 195.52C77.4213 195.11 76.4222 194.632 76.9234 193.669C77.4105 192.733 78.3107 193.401 78.9964 193.653C80.8236 194.323 82.5994 195.133 84.5711 195.832C84.3652 193.741 83.9635 191.872 83.6015 189.997C83.4901 189.419 83.0605 189.188 82.5651 189.019C81.0496 188.501 79.5983 187.832 78.1539 187.146C77.2783 186.765 76.3303 186.541 75.5633 185.922C74.8846 185.374 73.9689 184.833 74.6099 183.83C75.2235 182.87 76.0916 183.467 76.7864 183.869C78.4517 184.831 80.1581 185.699 81.9589 186.377C83.1776 186.836 83.1869 186.834 83.0826 185.552C82.9493 183.912 82.6109 182.298 82.4388 180.663C82.3349 179.676 81.8773 179.111 80.8356 178.942C79.4635 178.719 78.2715 178.005 77.0915 177.302C76.8169 177.139 76.5568 176.947 76.3563 176.693C76.0121 176.256 75.9167 175.778 76.2512 175.305C76.589 174.827 77.0532 174.966 77.4875 175.148C78.4977 175.571 79.4333 176.16 80.486 176.492C81.7803 176.901 81.8937 176.83 81.9675 175.492C81.9725 175.401 81.9672 175.31 81.9741 175.218C82.0182 174.631 81.9402 173.925 82.6345 173.7C83.3042 173.483 83.466 174.268 83.9545 174.62C84.5136 174.069 84.6999 173.12 85.6082 172.933C85.8256 172.909 86.0273 172.95 86.2087 173.075C86.7397 174.209 86.0747 175.192 85.5772 176.022C84.5938 177.661 84.7073 179.297 85.0198 181.032C85.3181 182.689 85.5145 184.362 85.5898 186.063C86.3866 185.075 86.9745 183.942 87.5362 182.792C87.7364 182.383 87.9214 181.96 88.2134 181.605C88.475 181.287 88.7637 180.932 89.2397 181.124C89.6777 181.301 89.7586 181.728 89.7835 182.152C89.8138 182.667 89.664 183.148 89.4557 183.608C88.758 185.15 88.014 186.67 86.8512 187.927C86.3534 188.465 86.0668 189.022 86.2326 189.777C86.6145 191.516 86.8481 193.285 87.2309 195.024C87.4714 196.116 87.7173 196.193 88.5195 195.363C90.0787 193.749 91.4155 191.955 92.5603 190.024C93.1334 189.058 93.0063 187.971 92.8986 186.943C92.7091 185.13 92.5184 183.316 92.1732 181.518C91.5824 178.443 90.0192 176.032 87.454 174.254C87.044 173.97 86.592 173.722 86.4029 173.212C86.4318 172.189 87.1832 172.32 87.7502 172.295C86.7384 171.694 85.4653 171.363 84.558 170.407C84.48 170.325 84.4855 170.148 84.6343 170.062C84.7014 170.023 84.7841 170.04 84.872 170.096Z" fill="#486A51"/>
<path d="M205.273 100.716C205.65 99.0379 205.341 97.3569 205.136 95.7103C204.984 94.4815 204.815 93.208 204.254 92.0375C203.971 91.4486 204.136 90.7881 204.468 90.207C204.843 90.9274 205.119 91.6819 205.257 92.4843C205.301 94.043 206 95.4484 206.309 96.9488C206.725 98.9704 207.239 100.971 207.336 102.814C207.316 102.688 207.203 102.331 207.48 102.013C208.508 107.243 208.551 112.534 208.294 117.821C207.646 131.169 203.335 143.435 197.109 155.124C192.019 164.681 186.183 173.785 180.308 182.865C180.21 183.017 180.082 183.149 179.968 183.291C179.275 183.001 179.674 182.574 179.88 182.244C180.408 181.404 180.913 180.545 181.513 179.866C180.64 179.983 180.254 181.295 179.092 181.041C178.896 180.26 179.444 179.735 179.801 179.189C182.225 175.479 184.59 171.73 186.888 167.941C191.579 160.204 196.163 152.407 199.676 144.038C199.978 143.317 200.184 142.573 200.365 141.815C202.888 135.354 204.705 128.718 205.485 121.81C206.196 115.511 206.149 109.23 205.212 102.955C205.102 102.22 204.706 101.445 205.273 100.716Z" fill="#0C4745"/>
<path d="M139.92 232.141C138.538 232.992 137.066 233.276 135.419 233.266C125.571 233.203 115.722 233.237 105.874 233.227C105.342 233.227 104.775 233.391 104.284 233.024C105.065 232.238 106.064 232.605 106.974 232.535C107.555 232.49 108.144 232.498 108.726 232.556C118.114 232.576 127.503 232.557 137.17 232.567C133.601 227.911 129.917 223.698 126.651 219.164C126.349 218.867 126.4 218.077 125.627 218.433C124.929 216.675 123.653 215.312 122.521 213.849C121.051 211.95 119.685 209.973 118.147 208.128C117.847 207.5 117.405 206.977 116.928 206.479C114.947 203.508 112.755 200.685 110.748 197.733C110.612 197.522 110.486 197.305 110.345 197.096C109.54 195.699 108.347 194.53 107.884 192.93C102.12 184.399 96.6126 175.704 91.3281 166.867C92.0457 166.431 92.679 166.484 93.2309 167.164C93.4606 167.446 93.7456 167.67 94.1456 167.66C95.0106 167.599 95.1258 168.38 95.4281 168.878C100.315 176.925 105.374 184.864 110.666 192.65C115.829 200.248 121.28 207.636 126.868 214.93C131.037 220.371 135.369 225.681 139.579 231.087C139.758 231.417 140.147 231.681 139.92 232.141Z" fill="#0C4745"/>
<path d="M52.0852 232.912C50.1922 232.264 48.2439 231.767 46.4597 230.821C44.8711 229.978 43.3916 228.996 42.3025 227.536C40.5153 225.139 40.7047 222.344 42.8215 220.05C44.2463 218.506 46.0768 217.568 47.9771 216.755C50.3777 215.728 52.9251 215.157 55.4052 214.377C58.2017 213.498 58.371 213.141 57.1689 210.535C55.6622 207.269 54.4806 203.926 54.8724 200.242C55.044 198.629 55.483 197.106 56.6582 195.892C58.3292 194.166 60.3959 194.191 62.5221 194.602C66.1651 195.306 69.4753 196.779 72.4414 199.017C72.7509 199.251 73.013 199.66 73.5084 199.415C73.6252 199.511 73.6859 199.634 73.6918 199.784C73.5144 200.536 73.4791 201.362 72.6571 201.78C72.007 201.738 71.6015 201.258 71.1551 200.889C68.4822 198.681 65.3794 197.428 62.025 196.726C59.4089 196.179 57.8907 197.161 57.3469 199.795C56.8681 202.116 57.4513 204.329 58.1396 206.52C58.5922 207.96 59.3259 209.29 59.8048 210.72C60.7342 213.494 59.9434 215.193 57.2014 216.238C54.9386 217.099 52.5865 217.691 50.2914 218.459C48.8517 218.941 47.49 219.581 46.1928 220.345C42.7113 222.393 42.5641 225.435 45.9261 227.647C49.1707 229.782 52.8494 230.901 56.6129 231.74C57.4593 231.929 58.3262 232.054 59.1221 232.409C59.4935 232.574 59.9865 232.84 59.2137 233.195C57.2129 233.282 55.2136 233.219 53.2147 233.228C52.8161 233.23 52.3825 233.298 52.0852 232.912Z" fill="#679576"/>
<path d="M179.169 181.101C180.108 180.422 181.046 179.744 182.173 178.929C181.826 180.226 180.942 180.969 180.477 181.934C180.274 182.356 179.517 182.618 179.967 183.291C178.154 186.021 176.343 188.751 174.526 191.478C174.223 191.932 173.857 192.346 173.726 192.895C173.319 193.576 172.932 194.269 172.481 194.923C171.8 195.726 171.243 196.616 170.668 197.494C169.736 198.755 168.814 200.023 167.936 201.323C166.46 203.287 165.107 205.341 163.604 207.286C163.464 207.493 163.319 207.696 163.177 207.902C162.104 209.346 161.056 210.809 160.002 212.268C159.605 212.818 159.242 213.394 158.816 213.923C158.159 214.821 157.456 215.685 156.847 216.619C155.545 218.5 154.004 220.204 152.754 222.125C150.242 225.141 148.018 228.383 145.52 231.411C145.025 232.011 144.519 232.596 143.981 233.154C143.924 233.184 143.866 233.213 143.809 233.242C142.986 233.359 142.096 233.744 141.573 232.677C141.504 232.555 141.492 232.428 141.534 232.295C146.293 226.102 151.124 219.96 155.748 213.666C163.268 203.43 170.667 193.105 177.678 182.508C178.051 181.944 178.239 181.107 179.169 181.101Z" fill="#0C4745"/>
<path d="M107.884 192.931C108.797 194.293 109.709 195.655 110.622 197.018C110.863 197.645 110.543 198.166 110.299 198.699C109.498 200.452 108.887 202.257 108.755 204.199C108.727 204.602 108.75 205.112 108.282 205.245C107.848 205.369 107.519 205.003 107.265 204.679C106.701 203.961 106.056 203.315 105.376 202.535C106.333 204.689 107.756 206.401 109.079 208.177C110.156 209.624 110.004 210.085 108.275 210.657C106.361 211.289 104.4 211.152 102.443 211.022C101.901 210.986 101.361 210.809 101.061 210.264C100.578 206.671 101.636 203.406 103.252 200.28C104.085 198.667 105.042 197.121 106.173 195.717C105.682 195.179 104.727 195.783 104.573 194.847C105.016 194.803 105.472 194.669 105.899 194.731C107.326 194.937 107.828 194.196 107.884 192.931Z" fill="#4F705D"/>
<path d="M73.5561 199.768C73.5403 199.65 73.5244 199.532 73.5085 199.415C74.2939 195.71 73.1679 192.29 71.9543 188.879C69.6878 182.509 71.0794 176.87 75.418 171.849C76.3199 170.805 77.3897 169.955 78.7819 169.624C80.4291 169.677 80.4501 169.701 80.0413 171.026C77.8082 172.665 75.8907 174.586 74.7212 177.145C73.2872 180.282 72.9039 183.508 73.8953 186.866C74.4246 188.659 75.0252 190.43 75.5188 192.235C76.0034 194.136 76.2605 196.062 76.1474 198.027C76.1055 198.754 76.0818 199.487 75.5033 200.044C74.8166 200.224 74.0694 200.816 73.5561 199.768Z" fill="#568062"/>
<path d="M205.24 232.649C204.743 233.005 204.222 233.238 203.604 232.959C203.088 232.7 202.48 232.636 202.041 232.22C201.394 231.605 200.66 231.448 199.805 231.717C199.428 231.836 199.012 231.942 198.668 231.591C198.303 230.355 197.149 230.312 196.199 229.961C196.543 229.367 197.18 229.344 197.738 229.187C200.56 228.392 203.463 228.038 206.358 227.649C207.65 227.475 208.812 226.991 209.916 226.305C212.636 224.617 215.256 222.809 217.576 220.578C218.954 219.253 220.671 218.505 222.551 218.147C223.291 219.255 223.537 219.261 224.32 218.2C224.441 218.036 224.584 217.991 224.74 218.165C224.534 218.871 224.918 219.127 225.531 219.283C226.488 219.526 227.499 219.559 228.401 220.014C228.462 220.857 228.092 221.315 227.224 221.329C226.578 221.335 225.957 221.177 225.363 220.952C223.898 220.398 222.524 220.57 221.18 221.341C218.803 222.705 216.872 224.652 214.695 226.278C214.636 226.322 214.647 226.448 214.645 226.541C214.348 227.045 213.801 227.019 213.339 227.115C212.032 227.385 211.018 228.018 210.435 229.255C208.8 229.972 207.021 230.119 205.313 230.549C204.852 230.666 204.316 230.59 203.944 231.007C204.213 231.701 205.238 231.774 205.24 232.649Z" fill="#0C4745"/>
<path d="M97.9743 197.868C98.1777 197.465 98.3813 197.062 98.5882 196.652C99.4664 196.823 99.6513 198.114 100.71 197.859C101.159 197.919 101.251 197.476 101.521 197.283C102.705 197.022 103.081 197.359 102.819 198.452C102.766 198.675 102.681 198.89 102.569 199.089C100.891 202.073 100.554 205.302 100.823 208.642C100.852 209.006 100.848 209.373 100.841 209.737C101.065 212.293 101.551 212.803 104.091 213.143C104.365 213.179 104.63 213.235 104.844 213.429C104.89 213.558 104.933 213.695 104.865 213.82C104.152 215.126 100.777 216.402 99.2719 215.939C98.7897 212.162 97.9036 208.429 98.1143 204.576C98.1743 203.479 98.2265 202.38 98.5867 201.352C98.9461 200.327 99.062 199.431 98.1694 198.623C97.9712 198.444 97.8859 198.16 97.9743 197.868Z" fill="#53795E"/>
<path d="M227.201 221.159C227.903 221.094 228.007 220.402 228.401 220.014C231.252 220.582 234.11 221.116 236.951 221.734C238.063 221.976 239.113 222.452 239.996 223.211C241.276 224.313 241.326 225.143 240.061 226.24C238.157 227.89 235.978 229.126 233.715 230.213C233.241 230.441 232.744 230.621 232.258 230.823C231.403 230.65 231.611 229.936 231.523 229.374C232.209 228.608 233.31 228.542 234.054 227.874C234.196 227.747 234.356 227.65 234.537 227.589C236.044 226.821 237.639 226.173 238.529 224.59C237.887 222.917 236.301 223.216 235.012 222.917C234.707 222.846 234.4 223.043 234.088 223.093C231.681 222.843 229.237 222.724 227.201 221.159Z" fill="#445347"/>
<path d="M100.451 209.911C100.295 206.854 100.161 203.806 101.283 200.857C101.575 200.089 101.988 199.398 102.359 198.679C102.841 197.745 102.72 197.196 101.521 197.282C102.146 195.979 102.834 194.754 104.574 194.847C105.233 195.415 106.079 194.866 106.922 195.277C103.558 199.705 100.992 204.433 101.269 210.206C101.175 210.347 101.106 210.514 100.913 210.555C100.506 210.523 100.661 210.085 100.451 209.911Z" fill="#65946D"/>
<path d="M241.737 170.437C238.543 170.533 237.166 172.362 236.904 175.36C236.207 174.583 236.114 173.773 235.994 173.023C235.81 171.876 235.255 171.249 234.097 171.067C233.319 170.945 232.562 170.69 231.719 170.302C234.578 169.951 236.502 168.742 236.403 165.469C236.535 165.51 236.666 165.551 236.798 165.592C237.209 166.732 237.369 168.081 238.099 168.955C238.892 169.904 240.468 169.669 241.737 170.437Z" fill="#0C4745"/>
<path d="M52.539 62.1162C52.865 65.3362 54.7342 66.6042 57.9384 66.6701C56.8211 67.4747 55.8933 67.5742 55.0395 67.7621C54.0441 67.9811 53.5792 68.4775 53.393 69.4606C53.2359 70.2898 53.1422 71.1646 52.4941 72.0822C52.2089 69.0873 50.9206 67.1339 47.5195 67.0376C50.4048 66.563 52.3782 65.38 52.539 62.1162Z" fill="#0C4745"/>
<path d="M205.111 52.3835C201.931 52.2287 200.417 53.8636 199.993 56.9622C199.746 53.6641 197.905 52.3216 194.898 52.0708C197.601 51.4869 199.84 50.6515 199.691 47C200.674 48.5083 200.387 50.1257 201.499 50.8059C202.509 51.4239 203.79 51.6001 204.951 51.971C205.004 52.1084 205.057 52.246 205.111 52.3835Z" fill="#0C4745"/>
<path d="M238.348 95.1523C239.066 96.3747 239.012 97.7807 239.892 98.6262C240.77 99.4699 242.2 99.2839 243.34 99.8036C243.276 99.8672 238.491 104.618 238.22 104.888C237.962 101.946 236.733 100.012 233.428 99.9746C236.239 99.4495 238.271 98.3253 238.348 95.1523Z" fill="#0C4745"/>
<path d="M41.3945 145.853C42.1594 147.164 42.1211 148.67 43.0628 149.372C43.9643 150.045 45.3053 150.128 46.546 150.498C45.4468 151.12 42.1907 154.466 41.6723 155.449C41.6723 155.449 36.8034 150.573 36.6094 150.379C39.4445 150.194 41.4037 149.087 41.3945 145.853Z" fill="#0C4745"/>
<path d="M173.957 197.299C174.044 198.027 174.543 197.842 174.974 197.738C176.31 197.414 177.661 197.276 179.036 197.268C180.582 197.259 181.867 196.639 182.829 195.414C183.475 194.59 184.098 193.748 184.731 192.914C185.491 192.927 185.647 193.537 185.881 194.074C185.878 194.364 185.758 194.614 185.614 194.856C184.748 196.286 183.595 197.414 182.156 198.279C181.091 198.919 179.937 198.99 178.75 199.099C176.894 199.27 175.051 199.57 173.222 199.941C173.001 199.908 172.831 199.797 172.713 199.608C172.365 198.429 173.286 197.931 173.957 197.299Z" fill="#0C4745"/>
<path d="M185.761 194.003C185.418 193.64 185.074 193.277 184.73 192.914C186.599 190.22 187.871 187.209 189.334 184.299C189.597 183.774 189.902 183.27 190.187 182.757C190.645 183.188 191.383 182.797 191.811 183.314C191.984 184.558 191.038 185.38 190.648 186.413C189.309 188.53 188.431 190.9 187.036 192.984C186.731 193.44 186.532 194.1 185.761 194.003Z" fill="#0C4745"/>
<path d="M92.2019 233.227C95.3881 233.227 98.5744 233.227 102.009 233.227C101.333 233.654 100.842 233.5 100.386 233.501C79.1106 233.511 57.8351 233.513 36.5598 233.495C35.9 233.494 35.2278 233.74 34.5723 233.459C34.6285 233.2 34.8238 233.175 35.0379 233.182C36.0819 233.006 37.1341 233.109 38.1817 233.107C45.0352 233.096 51.8965 233.311 58.7401 233.052C69.1955 232.656 79.6473 232.996 90.0993 232.851C90.813 232.841 91.5765 232.686 92.2019 233.227Z" fill="#0C4745"/>
<path d="M60.0475 95.3518C60.0601 96.6615 58.9551 97.7469 57.5949 97.7602C56.2441 97.7736 55.1624 96.7291 55.1277 95.3781C55.0937 94.0567 56.1861 92.9849 57.5587 92.9932C58.953 93.0016 60.0347 94.0266 60.0475 95.3518Z" fill="#DBAB33"/>
<path d="M221.57 154.971C221.546 156.277 220.524 157.287 219.217 157.295C217.83 157.303 216.79 156.278 216.785 154.899C216.78 153.533 217.839 152.499 219.222 152.52C220.618 152.54 221.596 153.561 221.57 154.971Z" fill="#DBAB33"/>
<path d="M67.5515 160.349C67.5842 159.005 68.7123 157.962 70.0583 158.031C71.4081 158.1 72.4562 159.219 72.4043 160.536C72.3539 161.822 71.2864 162.805 69.9766 162.773C68.6013 162.738 67.5196 161.658 67.5515 160.349Z" fill="#DBAB33"/>
<path d="M229.696 72.2741C229.719 73.602 228.728 74.6098 227.392 74.6178C226.145 74.6253 225.082 73.6242 225.059 72.4208C225.035 71.1466 226.093 70.0191 227.34 69.99C228.696 69.9584 229.673 70.9054 229.696 72.2741Z" fill="#0C4745"/>
<path d="M96.9623 49.9675C95.6382 49.9414 94.6989 49.018 94.7091 47.7524C94.7197 46.4231 95.707 45.4954 97.0986 45.5069C98.4291 45.518 99.3206 46.4073 99.3248 47.7277C99.329 49.0527 98.3357 49.9947 96.9623 49.9675Z" fill="#0C4745"/>
<path d="M220.201 133.681C218.837 133.68 217.902 132.791 217.906 131.501C217.911 130.157 218.913 129.206 220.293 129.236C221.622 129.265 222.558 130.212 222.524 131.494C222.49 132.759 221.51 133.681 220.201 133.681Z" fill="#0C4745"/>
<path d="M185.399 52.2137C184.001 52.1894 183.025 51.2118 183.08 49.8907C183.133 48.6314 184.14 47.6857 185.417 47.6974C186.789 47.7099 187.714 48.6696 187.692 50.0582C187.671 51.3651 186.743 52.2372 185.399 52.2137Z" fill="#0C4745"/>
<path d="M56.8179 123.601C58.1244 123.568 59.23 124.608 59.2333 125.873C59.2366 127.094 58.2116 128.151 56.9988 128.177C55.6446 128.206 54.5912 127.219 54.5957 125.926C54.6002 124.673 55.595 123.633 56.8179 123.601Z" fill="#0C4745"/>
<path d="M223.525 117.424C222.259 117.45 221.231 116.486 221.206 115.249C221.181 114.032 222.178 112.954 223.386 112.892C224.673 112.826 225.756 113.852 225.779 115.157C225.799 116.354 224.761 117.398 223.525 117.424Z" fill="#0C4745"/>
<path d="M242.826 132.202C242.788 133.518 241.738 134.48 240.4 134.424C239.217 134.375 238.218 133.351 238.243 132.211C238.269 130.949 239.404 129.844 240.63 129.886C241.889 129.929 242.863 130.956 242.826 132.202Z" fill="#0C4745"/>
<path d="M41.3502 110.277C40.0645 110.213 39.1535 109.208 39.2031 107.911C39.2519 106.636 40.2866 105.696 41.5662 105.764C42.8704 105.834 43.7604 106.821 43.7001 108.13C43.6395 109.444 42.6559 110.343 41.3502 110.277Z" fill="#0C4745"/>
<path d="M70.4019 70.3465C69.0398 70.3354 68.107 69.4246 68.1583 68.1558C68.2094 66.8911 69.2279 65.9003 70.4533 65.9232C71.6788 65.9461 72.7301 67.0026 72.7152 68.196C72.6996 69.4502 71.724 70.3571 70.4019 70.3465Z" fill="#0C4745"/>
<path d="M221.932 184.172C220.605 184.157 219.738 183.256 219.748 181.903C219.758 180.589 220.673 179.707 222.018 179.715C223.332 179.723 224.231 180.653 224.21 181.984C224.19 183.292 223.258 184.187 221.932 184.172Z" fill="#0C4745"/>
<path d="M84.2959 47.7414C85.5484 47.728 86.4311 48.5862 86.472 49.8569C86.5156 51.2074 85.5614 52.1924 84.2021 52.2C82.9398 52.2072 82.0513 51.3459 82.0204 50.0853C81.9868 48.7167 82.9193 47.7561 84.2959 47.7414Z" fill="#0C4745"/>
<path d="M207.108 65.0795C207.084 66.3632 206.115 67.2939 204.81 67.286C203.509 67.2781 202.564 66.3024 202.603 65.0071C202.64 63.7654 203.683 62.8247 204.978 62.8666C206.222 62.9069 207.131 63.8519 207.108 65.0795Z" fill="#0C4745"/>
<path d="M92.2008 233.228C73.5556 233.237 54.9106 233.246 36.2654 233.252C35.8561 233.252 35.4467 233.207 35.0371 233.183C35.6459 232.91 36.2933 233.022 36.923 233.017C41.9771 232.973 47.0313 232.945 52.0854 232.912C54.5833 232.916 57.0814 232.92 59.5795 232.924C60.0191 232.505 60.582 232.523 61.1229 232.523C63.9448 232.524 66.7672 232.462 69.5884 232.556C70.1953 232.456 70.8039 232.599 71.4112 232.539C73.7397 232.517 76.0682 232.491 78.3965 232.556C78.914 232.47 79.4308 232.583 79.9479 232.556C82.6306 232.492 85.3132 232.495 87.9955 232.556C89.2721 232.54 90.5519 232.438 91.8209 232.679C91.987 232.74 92.1228 232.842 92.2296 232.983C92.2199 233.065 92.2102 233.146 92.2008 233.228Z" fill="#535544"/>
<path d="M52.682 179.004C52.651 180.335 51.6029 181.346 50.3124 181.29C49.11 181.238 48.2297 180.278 48.2403 179.031C48.2519 177.69 49.1081 176.891 50.5209 176.901C51.8149 176.911 52.7103 177.783 52.682 179.004Z" fill="#0C4745"/>
<path d="M79.8686 170.95C80.4809 169.711 79.2661 169.967 78.7832 169.625C80.8813 168.904 82.9103 169.076 84.8737 170.096C85.2095 170.602 85.2167 170.59 85.5599 170.786C86.3628 171.244 87.3078 171.486 87.9258 172.269C87.5348 172.8 86.661 172.414 86.4527 173.147C86.3597 173.246 86.266 173.247 86.1713 173.149C85.9879 173.148 85.8045 173.147 85.6212 173.146C83.8574 172.011 81.7451 171.79 79.8686 170.95Z" fill="#4D765A"/>
<path d="M201.233 169.803C200.913 170.098 200.592 170.394 200.272 170.689C198.832 171.265 198.201 171.877 197.139 173.205C196.663 173.801 196.356 174.69 195.393 174.786C195.438 174.061 195.419 173.325 195.538 172.612C196.068 169.446 198.308 168.354 201.233 169.803Z" fill="#5C6A57"/>
<path d="M231.592 229.399C232.037 229.769 231.901 230.412 232.257 230.824C231.017 231.71 229.425 231.942 228.261 232.97C228.084 232.962 227.907 232.953 227.731 232.944C227.287 232.55 226.279 233.268 226.205 232.258C226.143 231.417 226.83 230.952 227.503 230.677C228.825 230.136 230.076 229.329 231.592 229.399Z" fill="#485E50"/>
<path d="M173.958 197.299C173.896 198.183 172.7 198.506 172.869 199.503C172.675 199.509 172.467 199.438 172.437 199.262C172.188 197.795 171.552 196.334 172.321 194.84C172.578 194.039 172.958 193.327 173.727 192.896C173.804 194.363 173.881 195.831 173.958 197.299Z" fill="#445243"/>
<path d="M195.392 174.787C196.311 173.917 197.221 173.056 197.323 171.664C197.372 170.988 197.767 170.614 198.507 170.665C199.093 170.705 199.684 170.684 200.272 170.69C198.802 172.329 197.198 173.819 195.385 175.075C195.387 174.979 195.39 174.883 195.392 174.787Z" fill="#778E72"/>
<path d="M246.52 233.475C240.469 233.475 234.418 233.475 228.367 233.475C228.366 233.379 228.366 233.284 228.365 233.188C234.324 233.188 240.282 233.188 246.24 233.188C246.334 233.284 246.427 233.38 246.52 233.475Z" fill="#0C4745"/>
<path d="M207.478 102.013C207.447 102.317 207.415 102.621 207.384 102.924C206.783 99.7175 206.072 96.5638 205.162 93.4558C205.06 93.1074 204.854 92.7734 205.256 92.4844C206.315 95.5862 207.08 98.7567 207.478 102.013Z" fill="#0C4745"/>
<path d="M91.1243 162.161C88.9307 159.169 87.2803 155.855 85.5497 152.597C81.3108 144.618 78.1024 136.244 76.4646 127.334C74.3028 115.575 74.5931 103.93 78.4573 92.5038C78.5287 92.2927 78.6462 92.0973 78.7423 91.8946C79.4963 92.2408 79.3684 92.9129 79.3326 93.5369C79.3067 93.9866 79.1823 94.4359 79.3497 94.8802C79.4668 95.1908 79.6425 95.473 80.0213 95.4437C80.3389 95.4193 80.4285 95.136 80.5236 94.8763C80.6848 94.4364 80.5393 93.6208 81.1067 93.6616C81.7571 93.7084 81.5248 94.5257 81.644 95.0207C81.6757 95.1526 81.7153 95.2826 81.7502 95.4142C81.9226 96.4077 82.4122 97.1172 83.4721 97.2777C84.7692 97.4741 86.6355 96.5815 87.2474 95.4829C87.5157 95.0013 87.6402 94.4611 87.8316 93.9481C90.3749 87.1278 93.8545 80.8909 98.7195 75.3976C104.763 68.5737 112.27 64.1037 120.704 60.9937C122.797 60.2217 123.025 59.8741 122.666 57.6528C122.578 57.1117 122.465 56.5727 122.399 56.031C122.281 55.0434 121.833 54.4137 120.794 54.3108C120.395 53.5913 120.163 52.82 119.281 52.3754C118.651 52.0576 119.339 51.8011 119.646 51.6169C127.447 48.7404 135.537 47.9871 143.777 48.3472C143.777 48.7762 143.433 48.9027 143.135 48.9214C141.879 49.0001 141.756 49.8058 141.757 50.8211C141.768 61.9731 141.78 73.1253 141.746 84.2774C141.744 85.2071 141.985 85.7669 142.967 85.8715C143.19 85.8952 143.393 86.0291 143.506 86.2747C143.375 86.7705 142.929 86.7523 142.535 86.8208C138.161 86.8467 133.855 87.3636 129.826 89.1684C121.421 92.9338 115.806 99.203 113.77 108.244C111.462 118.494 114.193 127.428 121.744 134.761C125.903 138.799 131.019 141.02 136.711 141.958C137.837 142.143 138.959 142.351 140.111 142.341C140.696 142.335 141.333 142.323 141.616 143.033C141.832 143.748 141.777 144.481 141.778 145.208C141.782 155.322 141.782 165.437 141.777 175.552C141.776 176.322 141.857 177.105 141.557 177.847C141.122 178.562 140.391 178.445 139.72 178.486C137.066 178.649 134.427 178.325 131.789 178.149C126.214 177.775 120.722 176.828 115.346 175.294C111.037 174.065 106.78 172.676 102.826 170.513C99.3274 168.648 96.0994 166.368 92.9513 163.973C92.2693 163.453 91.571 162.927 91.1243 162.161Z" fill="#DBAB33"/>
<path d="M141.316 178.062C141.32 166.269 141.325 154.475 141.329 142.682C141.973 142.158 142.769 142.144 143.53 142.071C149.152 141.534 154.128 139.454 158.459 135.841C163.875 131.322 167.095 125.538 168.214 118.599C168.845 114.681 168.614 110.792 167.499 106.962C167.275 106.196 166.779 105.461 167.034 104.593C167.483 104.277 167.917 104.504 168.335 104.657C173.185 106.429 178.036 108.202 182.883 109.984C183.956 110.378 185.028 110.774 186.138 111.053C189.193 111.821 191.808 110.439 192.948 107.485C193.746 105.418 193.782 103.285 193.502 101.134C192.707 95.0297 190.182 89.5819 187.123 84.3292C184.82 80.3746 182.048 76.7244 179.708 72.7965C178.866 71.3833 178.066 69.9414 177.73 68.2996C177.051 64.9812 178.786 62.6578 182.196 62.3223C188.514 67.2082 193.507 73.2405 197.546 80.0913C201.331 86.5105 203.731 93.453 205.271 100.715C206.241 106.064 206.606 111.462 206.319 116.881C205.856 125.621 204.026 134.072 200.585 142.147C197.833 148.221 194.023 153.603 189.846 158.764C181.324 169.292 169.943 174.627 156.935 177.052C152.396 177.898 147.812 178.32 143.199 178.448C142.613 178.464 142.006 178.534 141.455 178.226C141.409 178.172 141.362 178.117 141.316 178.062Z" fill="#DBAB33"/>
<path d="M182.196 62.3224C181.972 62.4704 181.766 62.6746 181.52 62.7579C178.272 63.8563 177.235 65.8881 178.331 69.158C178.93 70.9437 179.919 72.5404 180.946 74.1065C184.196 79.0628 187.659 83.8904 190.191 89.2814C192.457 94.104 194.157 99.0721 194.006 104.509C193.913 107.825 192.026 110.602 189.245 111.491C187.85 111.937 186.528 111.64 185.237 111.173C179.196 108.983 173.166 106.763 167.132 104.554C166.461 104.326 166.404 103.659 166.152 103.147C162.783 96.312 157.774 91.2457 150.515 88.5953C148.229 87.7606 145.876 87.2386 143.443 87.0728C142.936 87.0383 142.306 87.2056 142.092 86.4753C142.451 86.4535 142.81 86.4317 143.213 86.4074C143.156 86.305 143.118 86.205 143.099 86.2083C141.54 86.4923 141.269 85.8228 141.28 84.3279C141.359 73.0797 141.323 61.8308 141.323 50.582C141.323 48.7243 141.324 48.7305 143.16 48.577C143.37 48.5594 143.571 48.4255 143.776 48.3457C150.678 48.4972 157.342 49.945 163.831 52.1975C170.521 54.5196 176.664 57.8786 182.196 62.3224Z" fill="#CF9400"/>
<path d="M91.1248 162.16C92.2857 163.029 93.4636 163.875 94.604 164.77C97.1459 166.763 99.9285 168.392 102.642 170.126C103.153 170.467 103.458 170.978 103.774 171.483C108.272 178.647 113.277 185.468 117.991 192.485C123.013 199.961 127.774 207.6 132.246 215.418C134.061 218.591 135.881 221.761 137.477 225.054C138.215 226.578 138.818 228.158 139.379 229.754C139.553 230.249 139.853 230.78 139.409 231.304C134.169 224.963 129.166 218.437 124.158 211.913C117.362 203.061 110.987 193.92 104.894 184.58C101.387 179.205 97.9257 173.796 94.6875 168.249C94.5559 168.024 94.3281 167.855 94.1453 167.66C93.2647 166.197 92.4011 164.723 91.4915 163.278C91.2656 162.919 91.0765 162.59 91.1248 162.16Z" fill="#DBAB33"/>
<path d="M81.4846 95.5076C80.9759 95.0526 81.4558 94.3583 81.0242 93.7498C80.9971 94.2099 80.9929 94.5571 80.9524 94.9002C80.8932 95.4011 80.8199 95.958 80.1889 96.0132C79.6023 96.0645 79.1686 95.7959 78.9763 95.1646C78.8408 94.7205 78.7217 94.3159 78.8998 93.8528C79.1568 93.1848 79.1013 92.5228 78.7422 91.8946C80.0394 87.5792 82.0366 83.575 84.3663 79.7502C91.0683 68.7468 100.139 60.2823 111.757 54.6388C114.29 53.4086 116.834 52.1474 119.645 51.6162C119.096 52.0828 119.257 52.3436 119.893 52.456C120.878 52.6299 121.266 53.1173 120.762 54.0834C120.678 54.8094 120.02 54.8028 119.552 54.9777C114.187 56.9853 109.055 59.4505 104.371 62.7723C96.8105 68.1331 90.6865 74.7908 86.245 82.9605C84.6724 85.8533 83.3138 88.8293 82.2709 91.9598C81.8815 93.1288 82.1766 94.4245 81.4846 95.5076Z" fill="#CF9400"/>
<path d="M189.359 221.465C190.915 219.39 192.416 217.271 194.045 215.254C195.58 213.351 197.765 212.194 199.665 210.712C201.802 209.045 203.57 207.007 205.489 205.121C206.328 204.298 207.262 203.829 208.428 203.534C212.072 202.61 215.971 202.248 219.03 199.781C222.665 196.848 226.818 195.15 231.394 194.199C228.102 197.133 225.207 200.465 221.724 203.657C221.724 202.329 221.733 201.265 221.719 200.202C221.713 199.761 221.81 199.146 221.224 199.078C220.569 199.001 220.468 199.674 220.386 200.131C220.147 201.471 219.969 202.822 219.799 204.174C219.651 205.356 219.172 206.288 218.209 207.063C216.836 208.17 215.573 209.413 214.182 210.672C214.287 208.765 214.555 207.003 213.997 205.283C213.854 204.843 213.754 204.152 213.088 204.302C212.543 204.425 212.636 205.041 212.668 205.481C212.816 207.496 212.336 209.478 212.388 211.485C212.402 212.033 212.217 212.435 211.796 212.792C210.475 213.909 209.182 215.059 207.87 216.188C207.644 216.382 207.463 216.783 207.096 216.604C206.746 216.432 206.912 216.031 206.909 215.733C206.894 213.996 206.948 212.258 206.875 210.524C206.846 209.821 206.91 208.633 205.962 208.743C205.173 208.834 205.328 209.919 205.353 210.73C205.431 213.269 205.409 215.826 204.908 218.32C204.732 219.196 203.625 219.54 203.006 220.201C202.452 220.792 201.752 221.246 200.981 221.87C200.76 220.519 200.949 219.209 200.598 217.957C200.278 216.812 199.971 215.671 199.366 214.638C199.232 214.41 199.034 214.13 198.73 214.216C198.434 214.299 198.413 214.62 198.389 214.901C198.303 215.921 198.653 216.879 198.801 217.865C199.029 219.391 199.242 220.919 199.459 222.446C199.535 222.981 199.178 223.298 198.834 223.594C197.391 224.833 195.936 226.057 194.3 227.443C194.242 225.701 194.839 224.132 194.29 222.597C194.2 222.346 194.253 222.042 194.156 221.796C193.991 221.381 193.832 220.86 193.243 220.944C192.651 221.029 192.633 221.537 192.632 222.008C192.63 223.47 192.637 224.933 192.627 226.395C192.616 227.921 192.172 229.25 190.866 230.179C190.711 230.289 190.581 230.418 190.412 230.216C190.074 229.909 190.025 229.489 190.043 229.085C190.137 226.966 189.657 224.928 189.211 222.883C189.107 222.403 188.943 221.899 189.359 221.465Z" fill="#67926E"/>
<path d="M222.549 218.147C222.39 218.304 222.252 218.563 222.068 218.602C219.078 219.235 217.272 221.605 214.994 223.305C211.688 225.771 208.402 228.257 203.915 228.374C201.304 228.442 198.732 229.234 196.198 229.96C195.198 230.08 194.351 230.648 193.166 231.109C194.203 229.569 195.536 228.763 196.658 227.754C197.67 226.844 198.857 226.13 199.887 225.239C200.403 224.794 200.778 224.828 201.34 225.081C202.967 225.815 204.726 226.122 206.447 226.549C206.979 226.681 207.507 226.699 207.663 226.052C207.846 225.294 207.248 225.095 206.693 225.03C205.312 224.87 204.062 224.332 202.809 223.789C202.217 223.532 202.173 223.26 202.716 222.829C203.749 222.009 204.759 221.155 205.729 220.262C206.233 219.799 206.735 219.735 207.359 219.893C208.99 220.305 210.625 220.697 212.264 221.074C212.796 221.196 213.459 221.352 213.673 220.665C213.917 219.878 213.167 219.815 212.674 219.672C211.195 219.241 209.704 218.849 208.069 218.402C209.413 217.187 210.673 216.101 211.865 214.944C212.453 214.374 212.978 214.721 213.502 214.905C215.927 215.757 218.376 216.019 220.871 215.264C221.36 215.116 222.167 215.052 222.033 214.372C221.894 213.664 221.2 213.789 220.558 213.887C218.377 214.223 216.225 214.152 213.996 213.03C215.805 211.443 217.366 209.726 219.258 208.535C220.528 207.735 222.278 208.271 223.816 208.38C224.176 208.405 224.532 208.513 224.893 208.528C225.397 208.55 226.022 208.579 226.04 207.889C226.057 207.256 225.555 206.921 224.941 206.908C223.758 206.881 222.623 206.426 221.297 206.41C222.438 205.415 223.718 204.538 224.687 203.397C225.95 201.909 227.424 201.437 229.269 201.68C229.691 201.736 230.306 201.795 230.362 201.171C230.414 200.597 229.812 200.496 229.401 200.371C227.973 199.938 227.96 199.947 229.016 198.913C230.177 197.777 231.239 196.523 232.813 195.638C232.914 196.71 232.621 197.596 232.347 198.47C230.599 204.043 227.62 209.024 224.794 214.078C224.038 215.43 223.297 216.791 222.549 218.147Z" fill="#66916D"/>
<path d="M208.814 168.214C210.026 169.357 210.047 170.966 210.122 172.388C210.476 179.068 209.886 185.677 207.823 192.074C207.072 194.403 206.194 196.708 204.923 198.842C204.121 200.188 203.648 201.687 203.928 203.291C204.028 203.861 203.883 204.271 203.515 204.651C201.927 206.289 200.346 207.938 198.499 209.291C197.551 209.986 196.629 210.479 195.263 210.272C193.795 210.049 192.363 210.886 190.928 211.306C190.754 211.356 190.593 211.461 190.436 211.285C190.801 209.711 191.57 208.429 193.052 207.661C195.329 206.45 197.907 205.901 200.438 204.687C199.6 204.128 199.139 204.438 198.69 204.575C197.255 205.014 195.868 205.577 194.5 206.196C194.017 206.415 193.42 206.911 193.019 206.035C193.276 204.551 193.956 203.215 194.475 201.823C194.702 201.216 195.203 200.928 195.812 200.801C197.584 200.61 199.069 199.439 200.862 199.31C201.041 199.298 201.237 199.182 201.224 198.979C201.202 198.633 200.89 198.569 200.631 198.541C199.468 198.417 198.409 198.836 197.338 199.198C196.711 199.41 196.123 199.854 195.399 199.56C195.074 198.85 195.464 198.193 195.903 197.865C196.5 197.42 196.159 196.946 196.247 196.493C196.342 196.043 196.532 195.627 196.715 195.208C197.138 194.237 197.842 193.808 198.906 194.039C199.669 194.204 200.45 194.212 201.222 194.293C201.709 194.344 202.209 194.343 202.674 193.841C201.688 193.332 200.678 193.665 199.783 193.361C199.181 193.157 198.229 193.385 198.216 192.402C198.203 191.482 198.672 190.707 199.612 190.409C200.788 190.037 201.996 189.766 203.15 189.325C203.903 189.037 204.707 188.81 205.187 187.943C204.581 187.659 204.161 187.986 203.733 188.161C202.675 188.591 201.647 189.104 200.528 189.362C199.794 189.532 199.401 189.241 199.713 188.494C200.171 187.401 200.567 186.275 201.186 185.254C201.571 184.618 202.223 184.415 202.88 184.182C203.891 183.825 205.021 183.721 206.042 182.755C205.071 182.531 204.397 182.993 203.689 183.093C203.29 183.149 202.825 183.357 202.536 182.968C202.302 182.651 202.549 182.27 202.669 181.926C203.287 180.158 204.196 178.725 206.29 178.479C206.81 178.418 207.312 178.141 207.586 177.659C207.42 177.375 207.238 177.434 207.065 177.462C206.465 177.557 205.761 178.127 205.298 177.469C204.93 176.947 205.461 176.35 205.71 175.827C206.455 174.259 207.287 172.734 207.955 171.127C208.328 170.231 208.646 169.344 208.689 168.371C208.73 168.318 208.772 168.266 208.814 168.214Z" fill="#67916E"/>
<path d="M190.42 186.322C190.884 185.319 191.348 184.317 191.812 183.314C193.452 180.692 195.12 178.092 197.304 175.868C200.282 172.836 203.42 170.015 207.299 168.151C207.808 167.907 208.328 167.751 208.815 168.214L208.822 168.206C208.183 168.812 207.725 169.542 207.335 170.325C205.83 173.353 204.298 176.368 202.814 179.406C202.734 179.571 202.667 179.741 202.578 179.901C202.399 180.224 202.207 180.611 201.782 180.533C201.433 180.469 201.408 180.062 201.311 179.762C201.079 179.05 201.11 178.215 200.286 177.605C200.047 178.821 200.402 179.862 200.64 180.876C200.959 182.234 200.834 183.467 200.262 184.733C199.604 186.189 199 187.671 198.399 189.153C198.247 189.528 198.075 189.976 197.579 189.962C197.052 189.948 196.978 189.454 196.876 189.073C196.534 187.791 196.137 186.527 195.682 185.282C195.468 184.7 195.234 184.117 194.509 183.883C195.43 186.332 195.856 188.889 196.554 191.374C196.944 192.763 196.619 193.968 195.472 194.905C194.407 194.168 193.587 193.246 193.243 191.962C193.282 190.911 193.547 189.885 193.604 188.838C193.706 186.989 193.19 186.461 191.35 186.451C191.034 186.45 190.709 186.514 190.42 186.322Z" fill="#67916E"/>
<path d="M193.43 192.097C193.983 193.077 194.931 193.779 195.37 194.84C196.049 195.173 196.12 195.919 196.476 196.471C196.721 197.693 195.707 198.454 195.38 199.467C195.89 199.913 195.77 200.562 195.914 201.125C195.163 201.171 194.869 201.666 194.637 202.31C194.179 203.578 193.654 204.822 193.157 206.076C192.923 206.712 193.206 207.346 193.166 207.982C191.626 208.563 191.37 210.205 190.436 211.286C189.933 211.816 190.003 212.599 189.603 213.174C189.507 213.276 189.388 213.322 189.25 213.323C188.582 213.078 188.594 212.437 188.399 211.903C188.236 211.458 188.313 210.835 187.636 210.705C186.733 208.566 186.261 206.291 185.549 204.092C185.356 203.494 185.504 202.908 186.177 202.613C187.025 202.459 187.285 203.112 187.557 203.675C188.419 205.457 188.862 207.365 189.191 209.36C190.049 207.789 190.885 206.253 191.417 204.571C191.583 204.045 191.792 203.486 191.5 202.975C190.494 201.211 190.409 199.111 189.402 197.347C189.083 196.789 188.828 196.073 189.556 195.646C190.299 195.21 190.754 195.851 191.106 196.364C191.903 197.524 192.365 198.874 193.133 200.221C193.961 198.398 194.274 196.785 192.93 195.157C192.061 194.103 191.232 193.012 190.372 191.947C190.115 191.628 189.854 191.303 189.716 190.91C189.558 190.459 189.509 189.98 189.876 189.625C190.266 189.249 190.757 189.377 191.143 189.639C192.087 190.281 192.994 190.975 193.43 192.097Z" fill="#465747"/>
<path d="M187.116 232.935C187.041 232.962 186.966 232.988 186.89 233.011C185.399 233.424 183.889 233.222 182.384 233.145C181.818 232.733 182.161 232.224 182.288 231.786C183.681 226.965 184.732 222.071 185.562 217.124C185.649 216.601 185.414 215.749 186.392 215.68C186.747 216.011 186.856 216.453 186.94 216.903C187.551 220.169 188.242 223.423 188.566 226.734C188.75 228.605 188.576 230.442 187.624 232.129C187.455 232.398 187.285 232.667 187.116 232.935Z" fill="#879F75"/>
<path d="M187.625 232.13C188.909 227.405 187.562 222.844 186.762 218.25C186.614 217.399 186.449 216.552 186.292 215.703C185.309 213.482 185.671 211.153 185.759 208.849C185.769 208.588 185.901 208.277 186.236 208.279C186.528 208.281 186.737 208.509 186.854 208.762C187.256 209.636 187.381 210.589 187.613 211.549C187.676 211.24 187.703 210.945 187.955 210.755C188.562 210.888 188.735 211.361 188.777 211.886C188.818 212.405 188.919 212.875 189.354 213.211C189.409 213.286 189.496 213.394 189.464 213.448C188.445 215.164 189.056 216.95 189.222 218.718C189.256 219.078 189.268 219.441 189.073 219.772C188.965 220.37 189.242 220.904 189.358 221.465C189.92 224.357 190.755 227.215 190.411 230.216C190.114 230.927 189.713 231.471 188.809 231.326C188.184 231.226 188.065 231.927 187.625 232.13Z" fill="#47513F"/>
<path d="M189.074 219.771C188.895 218.71 188.84 217.608 188.506 216.598C188.053 215.227 188.923 214.298 189.355 213.211C189.439 213.208 189.523 213.195 189.605 213.174C191.41 212.85 193.218 212.535 194.933 211.678C192.326 213.948 190.936 217.03 189.074 219.771Z" fill="#64926D"/>
<path d="M198.668 231.591C200.687 230.697 202.206 231.608 203.603 232.959C200.678 232.959 197.752 232.96 194.826 232.96C195.973 232.128 197.519 232.418 198.668 231.591Z" fill="#4A765B"/>
<path d="M139.408 231.303C138.655 227.928 137.098 224.877 135.476 221.874C132.683 216.706 129.728 211.627 126.645 206.625C122.059 199.183 117.228 191.904 112.235 184.726C108.911 179.948 105.427 175.262 102.641 170.126C106.199 171.769 109.816 173.267 113.583 174.366C119.045 175.958 124.58 177.14 130.277 177.577C133.955 177.86 137.623 178.184 141.316 178.062L141.332 178.119C141.966 178.864 141.773 179.768 141.773 180.615C141.786 195.723 141.782 210.831 141.782 225.939C141.782 227.353 141.754 228.768 141.984 230.173C142.113 230.956 142.042 231.723 141.605 232.418C141.6 232.505 141.589 232.591 141.572 232.677C140.774 233.262 140.337 232.731 139.919 232.141C139.748 231.862 139.578 231.583 139.408 231.303Z" fill="#CF9400"/>
<path d="M97.9731 197.868C98.1447 198.079 98.28 198.341 98.4939 198.492C99.455 199.168 99.5296 199.891 99.1119 201.027C98.165 203.602 98.4012 206.329 98.6544 208.999C98.8421 210.978 99.2619 212.934 99.5866 214.9C99.651 215.289 99.5202 215.616 99.3333 215.937C99.2487 216.046 99.1439 216.13 99.0169 216.185C97.9737 216.481 97.0483 216.012 96.0875 215.743C94.7689 215.373 94.174 215.86 94.2343 217.218C94.2657 217.928 94.5649 218.543 94.9054 219.14C96.1583 221.334 97.6466 223.342 99.6005 224.973C99.9533 225.268 100.262 225.602 100.532 225.975C101.847 227.432 102.674 229.1 102.723 231.093C102.74 231.776 102.731 232.467 102.06 232.907C99.6982 232.918 97.3369 232.93 94.9755 232.942C94.8696 232.892 94.8318 232.839 94.8616 232.78C94.8925 232.718 94.9244 232.687 94.9576 232.687C95.4781 228.183 93.6186 224.106 92.6402 219.872C92.374 218.721 92.0779 217.569 91.6867 216.456C91.3318 215.445 91.5528 214.795 92.4582 214.202C95.1096 212.466 96.6707 209.974 97.2942 206.881C97.3479 206.614 97.408 206.345 97.4176 206.075C97.4267 205.818 97.4979 205.472 97.1422 205.394C96.8373 205.328 96.6208 205.585 96.506 205.819C95.9838 206.882 95.5368 207.984 94.9813 209.028C94.1879 210.52 93.2391 211.875 91.8649 212.948C90.9738 213.644 90.9064 213.255 90.728 212.477C90.3619 210.883 89.9626 209.294 89.5034 207.725C89.2572 206.884 89.3683 206.339 90.1421 205.796C91.6836 204.713 92.5972 203.157 93.1031 201.343C93.2415 200.848 93.2911 200.367 92.7923 200.18C92.3474 200.014 92.2553 200.558 92.0748 200.85C91.3074 202.089 90.5699 203.349 89.5941 204.444C89.1014 204.997 88.7978 204.968 88.642 204.185C88.3055 202.493 87.9343 200.808 87.5834 199.118C87.4814 198.627 87.5921 198.263 88.0882 197.988C90.8094 196.478 92.3254 193.991 93.6527 190.839C93.7841 194.249 95.5772 196.262 97.9731 197.868Z" fill="#699671"/>
<path d="M231.592 229.399C230.461 229.851 229.33 230.304 228.198 230.755C228.072 230.805 227.933 230.824 227.813 230.883C227.197 231.183 226.473 231.51 226.459 232.254C226.444 233.026 227.453 232.413 227.731 232.944C220.81 232.955 213.889 232.96 206.968 232.986C206.356 232.988 205.809 232.794 205.239 232.649C204.665 232.213 204.08 231.79 203.524 231.333C203.364 231.202 203.195 230.971 203.195 230.786C203.195 230.504 203.5 230.535 203.717 230.491C205.969 230.033 208.219 229.569 210.469 229.106C211.461 229.066 211.979 229.856 212.642 230.371C213.645 231.15 214.675 231.837 216.014 231.871C214.919 231.219 213.775 230.656 212.795 229.837C212.453 229.552 211.931 229.334 212.03 228.798C212.135 228.229 212.706 228.262 213.142 228.198C214.725 227.966 216.297 227.666 217.867 227.36C218.914 227.155 219.816 227.322 220.734 227.887C222.245 228.817 223.792 229.718 225.809 229.748C225.452 229.24 224.981 229.249 224.594 229.13C223.759 228.875 222.949 228.567 222.216 228.087C221.909 227.886 221.594 227.638 221.701 227.209C221.787 226.867 222.09 226.678 222.419 226.652C225.371 226.425 228.354 225.193 231.245 226.977C232.181 227.554 233.382 227.432 234.334 228.015C233.586 228.804 232.545 229.015 231.592 229.399Z" fill="#4C6E5B"/>
<path d="M94.9584 232.687C94.9634 232.772 94.9693 232.857 94.9763 232.942C94.0612 232.955 93.1458 232.969 92.2308 232.982C92.1413 232.972 92.0512 232.967 91.961 232.968C89.9054 231.81 87.9216 230.532 85.8907 229.331C83.669 227.445 81.2542 225.776 79.4905 223.388C77.6477 220.894 76.5565 218.143 76.4854 215.028C76.4446 213.246 75.5537 211.943 74.3174 210.768C72.0284 208.593 71.3248 205.944 72.0898 202.891C72.2007 202.449 72.2608 201.986 72.6935 201.71C73.1155 201.122 73.0378 200.312 73.5573 199.768C74.0206 200.381 74.6898 199.746 75.206 200.04C75.6587 200.975 75.0878 201.811 74.9147 202.671C74.3784 205.338 74.8249 207.665 77.0861 209.404C78.3616 210.385 79.8326 211.011 81.3017 211.641C81.805 211.857 82.4992 211.887 82.6126 212.64C82.8729 213.274 82.5804 213.688 82.0636 214.012C81.2747 214.337 80.6617 213.799 80.0059 213.555C79.2389 213.27 78.9677 213.312 79.0592 214.266C79.3662 217.47 80.6419 220.194 82.7473 222.611C85.0483 225.251 87.7456 227.366 90.7433 229.144C91.7063 229.715 92.7939 230.184 93.3024 231.311C94.0425 231.543 94.7731 231.787 94.9584 232.687Z" fill="#497154"/>
<path d="M108.946 232.963C107.392 232.983 105.837 233.003 104.283 233.024C103.92 233 103.557 232.975 103.195 232.95C103.099 232.786 103.068 232.602 103.138 232.433C104.388 229.408 102.89 227.35 100.717 225.528C98.7007 223.531 96.8574 221.401 95.6654 218.79C95.4264 218.266 95.0309 217.683 95.4364 217.116C95.8499 216.538 96.5073 216.761 97.0862 216.848C97.9032 216.971 98.7182 217.004 99.5345 216.85C99.7496 216.823 99.9556 216.85 100.145 216.959C100.236 217.065 100.279 217.19 100.28 217.329C99.5255 219.049 100.505 220.531 100.989 222.056C101.609 224.01 103.041 225.538 103.93 227.365C103.941 226.048 103.16 225.097 102.52 224.078C101.799 222.93 100.921 221.838 101.066 220.35C101.284 219.927 101.519 219.999 101.766 220.325C102.009 220.647 102.008 221.101 102.359 221.412C103.009 220.888 102.661 219.664 103.718 219.448C104.723 220.241 105.013 221.476 105.614 222.519C105.946 223.094 106.17 223.732 106.658 224.302C106.747 223.488 106.638 222.738 106.663 221.988C106.712 221.55 106.664 221.066 107.338 220.824C108.02 222.399 107.523 224.379 108.911 225.697C109.14 227.644 109.419 229.587 109.373 231.554C109.361 232.062 109.312 232.561 108.946 232.963Z" fill="#608B6A"/>
<path d="M100.981 225.29C103.892 227.513 104.617 230.02 103.196 232.951C102.818 232.936 102.439 232.922 102.061 232.907C102.936 230.222 101.853 228.075 100.188 226.087C100.305 225.675 100.574 225.414 100.981 225.29Z" fill="#51735D"/>
<path d="M186.866 233.234C186.803 233.759 186.396 233.496 186.167 233.497C172.43 233.511 158.693 233.51 144.955 233.505C144.561 233.505 144.121 233.629 143.809 233.242C143.809 233.242 143.816 233.201 143.816 233.201C143.96 233.086 144.119 232.999 144.293 232.939C144.879 232.798 145.476 232.846 146.068 232.846C157.403 232.842 168.738 232.791 180.071 232.888C182.327 232.908 184.608 232.993 186.866 233.234Z" fill="#0C4745"/>
<path d="M186.866 233.234C172.596 233.225 158.325 233.216 144.055 233.207C144.281 232.436 144.957 232.551 145.501 232.54C147.398 232.503 149.295 232.474 151.192 232.552C153.912 232.493 156.633 232.484 159.354 232.553C160.477 232.514 161.601 232.503 162.726 232.545C164.112 232.538 165.499 232.48 166.886 232.547C170.157 232.497 173.427 232.476 176.697 232.55C178.038 232.472 179.38 232.512 180.722 232.525C181.252 232.53 181.808 232.507 182.229 232.939C183.783 232.963 185.337 232.987 186.891 233.011C186.879 233.085 186.871 233.16 186.866 233.234Z" fill="#595945"/>
<path d="M82.6116 212.64C80.8887 211.752 79.0125 211.186 77.3873 210.087C74.7861 208.329 73.7797 205.837 74.5079 202.795C74.7284 201.874 74.9719 200.959 75.205 200.04C76.1654 198.389 75.732 196.616 75.6193 194.883C75.5583 193.944 75.345 193.015 75.2005 192.082C75.0237 191.802 75.013 191.538 75.407 191.517C75.8074 191.495 75.9863 191.903 76.3384 192.154C76.1792 191.049 75.8677 189.917 76.7714 189.08C77.5978 188.315 78.7862 188.978 79.7691 188.545C79.2786 187.824 78.2221 187.856 77.9312 186.99C77.9217 186.961 77.9617 186.91 77.9881 186.877C78.0408 186.811 78.1198 186.812 78.2157 186.871C79.9085 187.537 81.5993 188.209 83.2952 188.867C83.787 189.058 83.9206 189.403 83.9982 189.911C84.2783 191.75 84.6304 193.578 84.9659 195.408C85.015 195.676 85.1807 195.987 84.972 196.187C84.7019 196.445 84.3657 196.2 84.0945 196.093C82.1452 195.323 80.2062 194.526 78.2624 193.742C77.8618 193.58 77.3642 193.162 77.0789 193.756C76.8527 194.227 77.2945 194.572 77.6887 194.838C79.6016 196.132 81.7249 196.965 83.9372 197.536C84.9956 197.809 85.5688 198.204 85.6951 199.397C85.8473 200.833 86.2543 202.248 86.6211 203.653C86.8403 204.493 86.5907 204.634 85.8428 204.381C83.8942 203.723 82.0128 202.911 80.1851 201.97C79.9415 201.845 79.6935 201.728 79.4464 201.61C79.1134 201.45 78.6755 201.218 78.4414 201.552C78.1102 202.024 78.6618 202.293 78.9441 202.504C81.0093 204.047 83.2732 205.224 85.7746 205.87C86.7764 206.129 87.3007 206.64 87.5083 207.662C87.8611 209.4 88.2893 211.125 88.7594 212.835C88.9953 213.692 88.676 213.81 87.9574 213.669C86.1766 213.32 84.3937 212.982 82.6116 212.64Z" fill="#6B9671"/>
<path d="M78.216 186.871C78.5432 187.635 79.4672 187.564 79.9543 188.114C80.1355 188.318 80.693 188.199 80.531 188.687C80.4179 189.027 80.0497 189.059 79.7201 189.06C79.2203 189.061 78.7204 189.06 78.2207 189.063C76.772 189.073 76.3949 189.496 76.5299 190.953C76.555 191.224 76.5652 191.498 76.6118 191.765C76.6842 192.18 77.1243 192.739 76.515 192.943C75.9432 193.135 76.1481 192.347 75.8652 192.114C75.6734 191.955 75.4565 191.234 75.2009 192.082C74.1311 188.918 72.7185 185.823 73.0119 182.361C73.4285 177.445 75.5284 173.52 79.8677 170.95C81.776 171.004 83.503 171.668 85.1753 172.522C85.4415 172.658 85.6135 172.837 85.6205 173.146C84.598 173.619 84.6377 174.952 83.7655 175.554C83.6403 175.454 83.5334 175.412 83.5127 175.345C83.3495 174.813 83.5252 173.878 82.7701 173.948C81.9986 174.02 82.3505 174.919 82.3398 175.45C82.2992 177.5 82.3112 177.532 80.4005 176.833C79.4188 176.474 78.4927 175.965 77.529 175.553C77.1596 175.395 76.7167 174.877 76.3787 175.541C76.1403 176.01 76.3648 176.409 76.8106 176.697C78.1185 177.542 79.4472 178.375 81.0103 178.612C82.0201 178.765 82.6377 179.045 82.7546 180.225C82.9693 182.389 83.3694 184.535 83.6643 186.692C83.7759 187.508 83.3153 187.322 82.8298 187.129C80.7515 186.303 78.6793 185.469 76.7824 184.26C76.514 184.089 76.2157 183.965 75.9325 183.817C75.5498 183.617 75.1443 183.45 74.8342 183.89C74.514 184.345 74.7128 184.71 75.077 185.086C75.9557 185.991 77.1696 186.278 78.216 186.871Z" fill="#68936E"/>
<path d="M86.17 173.149C86.2639 173.148 86.3576 173.147 86.4514 173.146C91.1701 175.741 92.785 180.044 93.0482 185.101C93.0811 185.733 93.1832 186.367 93.3116 186.988C93.8665 189.669 92.133 191.448 90.7687 193.339C90.027 194.366 89.1101 195.277 88.2078 196.175C87.6627 196.718 87.1513 196.915 86.9794 195.78C86.667 193.716 86.3109 191.653 85.8258 189.625C85.6434 188.863 85.8257 188.443 86.3229 187.96C87.7608 186.563 88.5487 184.76 89.3394 182.966C89.4111 182.803 89.4528 182.613 89.4525 182.436C89.4521 182.04 89.6199 181.497 89.1527 181.337C88.6562 181.167 88.5027 181.709 88.3239 182.055C87.4969 183.655 86.7788 185.321 85.4498 186.809C85.0386 183.927 84.6495 181.205 84.2626 178.482C84.1942 178.001 84.4164 177.626 84.6429 177.212C85.3418 175.935 85.983 174.624 86.17 173.149Z" fill="#6A9570"/>
<path d="M93.3028 231.311C91.1401 229.559 88.5563 228.426 86.4201 226.634C83.3591 224.065 80.5184 221.311 79.3097 217.347C78.9153 216.054 78.7554 214.686 78.5332 213.344C78.4268 212.703 78.7672 212.684 79.2711 212.9C80.1918 213.295 81.1319 213.644 82.0639 214.012C84.1749 214.772 86.3715 215.127 88.5875 215.388C88.9484 215.43 89.3378 215.373 89.4479 215.864C89.9614 218.151 90.8941 220.336 91.2352 222.94C89.6876 221.738 88.337 220.679 86.9748 219.634C85.4123 218.436 83.6791 217.513 81.9493 216.591C81.6589 216.436 81.2722 216.043 80.9759 216.439C80.6029 216.938 81.1996 217.177 81.4655 217.38C83.3843 218.842 85.4493 220.101 87.281 221.691C88.5154 222.763 89.8752 223.69 91.18 224.681C91.6703 225.053 92.0084 225.54 92.1764 226.123C92.6676 227.827 93.1636 229.531 93.3028 231.311Z" fill="#699570"/>
<path d="M141.604 232.418C140.991 214.321 141.477 196.218 141.332 178.119C149.89 178.034 158.285 176.907 166.448 174.243C175.008 171.449 182.356 166.79 188.315 160.019C192.545 155.212 196.11 149.933 199.219 144.34C199.637 143.588 200.128 142.877 200.585 142.147C200.147 144.763 198.738 146.996 197.635 149.328C193.747 157.544 188.953 165.253 184.181 172.974C182.508 175.681 180.582 178.234 179.168 181.101C178.033 182.243 177.31 183.678 176.425 184.995C169.056 195.962 161.352 206.692 153.486 217.304C149.91 222.129 146.179 226.839 142.506 231.591C142.26 231.909 141.907 232.145 141.604 232.418Z" fill="#DBAB33"/>
<path d="M108.946 232.964C109.133 230.483 108.568 228.031 108.668 225.554C108.286 225.055 108.221 224.471 108.277 223.881C108.477 221.771 108.713 219.665 109.116 217.582C109.184 217.228 109.262 216.866 109.664 216.717C110.487 217.131 110.374 217.918 110.429 218.636C110.499 220.82 110.053 222.982 110.152 225.176C110.213 226.507 110.478 227.8 110.583 229.117C110.436 226.947 109.95 224.796 110.308 222.601C110.572 221.889 110.433 221.126 110.585 220.4C110.563 218.166 111.604 216.091 111.575 213.856C111.562 212.889 111.497 211.931 110.529 211.358C110.414 211.263 110.325 211.149 110.258 211.017C110.242 210.698 110.432 210.476 110.685 210.376C112.272 209.748 113.594 208.669 115.063 207.842C116.159 207.225 117.241 207.259 118.288 207.973C119.939 209.44 120.972 211.401 122.37 213.071C123.304 214.187 124.128 215.392 125.038 216.528C125.49 217.092 125.74 217.691 125.693 218.412C126.312 219.479 126.234 220.688 126.332 221.846C126.434 223.064 126.36 224.295 126.355 225.354C126.923 223.651 126.446 221.777 126.36 219.903C126.341 219.475 126.059 218.891 126.782 218.695C130.303 223.502 134.157 228.046 138.058 232.963C128.206 232.964 118.576 232.964 108.946 232.964Z" fill="#4A6858"/>
<path d="M110.874 197.573C113.153 200.375 115.194 203.347 117.187 206.354C115.587 206.86 114.162 207.657 112.761 208.604C111.234 209.636 109.043 208.43 109.029 206.514C109.007 203.564 109.252 200.606 110.612 197.884C110.674 197.761 110.774 197.666 110.874 197.573Z" fill="#4C6B59"/>
<path d="M110.874 197.573C109.877 200.384 109.472 203.312 109.329 206.265C109.279 207.309 110.106 208.192 110.944 208.618C111.785 209.045 112.736 208.467 113.364 207.797C114.424 206.665 115.695 206.259 117.186 206.354C117.733 206.771 118.204 207.24 118.287 207.973C116.313 207.351 114.744 208.198 113.3 209.395C112.404 210.138 111.224 210.315 110.303 210.991C109.517 211.892 108.335 211.806 107.338 212.183C106.816 212.256 106.312 212.431 105.783 212.469C104.795 212.536 103.805 212.57 102.822 212.466C101.539 212.33 101.137 211.861 100.982 210.457C101.078 210.373 101.173 210.289 101.268 210.205C103.957 211.23 106.599 210.914 109.21 209.911C109.83 209.673 109.575 209.36 109.269 208.993C107.958 207.421 106.785 205.746 105.661 204.036C105.282 203.46 104.969 202.894 105.209 202.106C106.508 202.855 107.118 204.204 108.37 205.228C108.244 202.106 109.516 199.587 110.62 197.018C110.826 197.147 110.865 197.353 110.874 197.573Z" fill="#41483D"/>
<path d="M126.78 218.695C126.623 219.762 126.789 220.807 126.959 221.858C127.236 223.561 126.868 225.177 126.222 226.77C125.924 223.973 126.052 221.177 125.691 218.412C126.254 217.74 126.515 218.224 126.78 218.695Z" fill="#43453A"/>
<path d="M72.6935 201.711C72.5527 202.835 72.208 203.919 72.1586 205.068C72.0816 206.861 72.583 208.525 73.8398 209.683C75.9129 211.591 76.8871 213.776 77.0714 216.6C77.3366 220.662 79.7523 223.66 82.7032 226.247C83.832 227.236 85.0074 228.172 86.1616 229.132C86.9123 230.347 88.0129 231.386 88.0792 232.945C85.3448 232.947 82.6104 232.949 79.8761 232.951C79.5593 232.682 79.2898 232.376 79.1212 231.992C77.7078 228.771 75.4204 226.148 73.2628 223.437C72.1243 222.007 71.0617 220.532 70.2333 218.891C68.6631 215.78 68.4512 212.527 69.1089 209.163C69.2359 208.513 69.5701 207.868 69.2197 207.108C68.5387 207.292 68.5231 207.875 68.4001 208.367C67.5739 211.67 68.0128 214.883 69.1333 218.036C70.036 220.577 71.6806 222.66 73.3695 224.701C75.0305 226.708 76.604 228.774 77.8903 231.043C78.2144 231.615 78.7241 232.164 78.4534 232.927C76.091 232.935 73.7287 232.942 71.3663 232.949C70.0514 231.903 69.1394 230.466 67.7927 229.422C65.5118 227.655 63.1032 226.129 60.5016 224.899C60.1899 224.751 59.8685 224.519 59.3911 224.779C59.8706 225.697 60.7819 226.026 61.5909 226.451C63.7265 227.573 65.9247 228.609 67.7497 230.212C68.5854 230.946 69.7862 231.512 69.6955 232.943C66.3239 232.937 62.9523 232.931 59.5809 232.924C56.9556 232.027 54.1643 231.742 51.5676 230.73C49.4417 229.902 47.354 229.036 45.4147 227.786C42.7009 226.036 41.6834 222.505 46.0277 219.978C48.3749 218.613 50.9509 217.828 53.5276 217.038C54.9642 216.598 56.4191 216.175 57.7884 215.569C59.7218 214.713 60.2827 213.32 59.6066 211.308C58.7092 208.637 57.3207 206.134 56.9379 203.287C56.7346 201.776 56.7218 200.279 57.1796 198.82C57.8411 196.711 59.624 195.822 61.9652 196.311C66.0255 197.158 69.6526 198.847 72.6935 201.711Z" fill="#9BBE9A"/>
<path d="M166.878 232.932C165.479 232.927 164.08 232.922 162.681 232.917C162.552 232.361 162.853 231.943 163.146 231.537C164.512 229.641 164.992 227.471 165.036 225.198C165.09 222.41 165.05 219.621 165.049 216.832C165.047 214.779 164.983 212.722 165.369 210.689C165.416 210 165.661 209.372 165.967 208.764C166.833 206.6 167.621 204.398 168.842 202.393C169.967 200.881 170.501 199.186 170.415 197.299C171.017 196.454 171.41 195.446 172.32 194.84C172.308 196.417 172.5 197.97 172.867 199.503C172.955 199.586 173.044 199.67 173.132 199.753C173.241 199.837 173.36 199.905 173.475 199.979C176.434 201.886 177.893 204.503 177.358 208.091C177.111 209.75 177.175 211.461 176.721 212.611C176.954 211.743 177.239 210.386 177.75 209.102C178.274 207.783 178.927 206.524 179.637 205.297C180.369 204.031 181.12 202.775 181.896 201.535C182.449 200.652 182.931 199.695 183.872 199.123C185.532 198.872 186.465 200.134 187.597 200.952C187.994 201.24 187.844 201.661 187.564 202.022C187.242 202.437 186.785 202.599 186.32 202.759C185.842 203 185.663 203.396 185.816 203.894C186.519 206.184 187.24 208.468 187.954 210.755C187.899 211.412 188.153 212.131 187.548 212.735C187.037 211.324 187.086 209.783 186.151 208.129C185.885 210.904 186.1 213.304 186.291 215.703C185.752 218.439 185.262 221.186 184.66 223.907C183.987 226.953 183.405 230.028 182.227 232.94C180.377 232.934 178.525 232.929 176.674 232.923C176.125 232.185 176.401 231.374 176.657 230.688C178.329 226.198 179.172 221.404 181.461 217.146C183.517 213.322 184.167 209.413 182.566 205.248C182.295 206.172 182.078 207.115 181.836 208.052C181.32 210.048 180.853 212.104 179.685 213.81C176.681 218.197 175.421 223.168 174.514 228.284C174.402 228.913 174.311 229.552 174.037 230.139C173.812 230.621 173.492 231.033 172.891 230.912C172.33 230.798 172.247 230.284 172.244 229.83C172.209 225.355 172.048 220.885 172.932 216.442C173.627 212.95 173.834 209.382 174.114 205.833C174.198 204.758 173.939 203.76 172.925 202.939C172.59 203.737 172.707 204.524 172.55 205.253C170.697 213.88 169.748 222.677 167.664 231.26C167.517 231.866 167.539 232.563 166.878 232.932Z" fill="#5D876D"/>
<path d="M159.429 232.93C156.698 232.93 153.967 232.93 151.236 232.93C150.934 232.647 150.927 232.282 150.975 231.915C151.374 228.844 151.794 225.775 152.251 222.712C152.291 222.443 152.432 222.197 152.548 221.95C153.761 219.995 155.205 218.214 156.679 216.455C157.174 216.924 157.093 217.547 157.084 218.126C157.015 222.302 158.112 226.248 159.422 230.155C159.68 231.078 160.13 232.004 159.429 232.93Z" fill="#A3B487"/>
<path d="M152.547 221.949C152.604 224.716 151.923 227.4 151.633 230.128C151.534 231.066 151.369 231.996 151.235 232.929C149.323 232.942 147.41 232.946 145.498 232.973C145.011 232.98 144.488 232.844 144.054 233.207L143.934 233.211L143.814 233.201C144.765 231.49 146.185 230.137 147.35 228.589C149.04 226.344 150.648 224.032 152.547 221.949Z" fill="#5E8A6B"/>
<path d="M166.29 208.815C166.105 209.365 165.92 209.914 165.734 210.464C164.016 213.919 162.177 217.32 160.971 221.009C160.762 221.65 160.384 222.129 159.738 221.328C159.061 218.85 158.288 216.386 158.621 213.76C158.992 213.215 159.362 212.669 159.733 212.124C160.281 212.539 160.608 212.336 161.031 211.838C162.06 210.623 162.47 209.148 162.983 207.708C163.101 207.539 163.219 207.37 163.336 207.201C164.327 207.727 165.539 207.85 166.29 208.815Z" fill="#A6B786"/>
<path d="M158.621 213.761C159.085 216.321 159.548 218.881 160.012 221.441C160.537 222.173 160.675 222.995 160.696 223.885C160.739 225.62 160.381 227.323 160.352 229.054C160.341 229.737 160.151 230.456 159.154 230.262C158.062 228.331 157.853 226.129 157.278 224.044C156.595 221.566 156.707 218.999 156.68 216.455C157.124 215.41 157.906 214.61 158.621 213.761Z" fill="#608A72"/>
<path d="M166.29 208.816C165.25 208.379 164.047 208.241 163.336 207.201C164.79 205.186 166.244 203.17 167.699 201.154C168.435 201.321 168.36 202.311 169.068 202.506C168.142 204.61 167.216 206.713 166.29 208.816Z" fill="#A1B27D"/>
<path d="M169.067 202.507C167.725 202.952 168.184 201.574 167.697 201.154C168.603 199.869 169.509 198.584 170.415 197.299C171.213 199.358 170.302 200.974 169.067 202.507Z" fill="#91AD7C"/>
<path d="M162.983 207.708C163.024 209.428 162.272 210.82 161.236 212.127C160.673 212.838 160.232 212.766 159.732 212.125C160.816 210.652 161.899 209.18 162.983 207.708Z" fill="#658F6F"/>
<path d="M234.335 228.014C233.199 228.176 232.054 227.916 231.176 227.337C228.937 225.86 226.616 226.508 224.289 226.756C224.019 226.785 223.754 226.859 223.489 226.92C222.952 227.042 222.06 226.606 221.96 227.331C221.883 227.891 222.818 228.022 223.33 228.258C223.985 228.559 224.723 228.674 225.397 228.941C225.862 229.125 226.723 229.089 226.556 229.823C226.398 230.521 225.656 230.182 225.15 230.125C223.477 229.938 222.013 229.165 220.653 228.267C219.74 227.665 218.912 227.496 217.859 227.726C216.014 228.128 214.142 228.399 212.119 228.753C213.379 230.012 214.786 230.78 216.256 231.463C216.548 231.599 217.106 231.559 216.954 232.103C216.823 232.574 216.342 232.425 216.009 232.402C214.726 232.316 213.691 231.626 212.693 230.911C211.918 230.356 211.209 229.711 210.47 229.106C210.32 227.984 211.086 227.539 211.933 227.221C212.8 226.895 213.701 226.66 214.586 226.385C216.057 225.448 217.769 225.738 219.368 225.496C220.361 225.345 221.193 225.079 221.952 224.409C223.461 223.074 225.246 222.284 227.247 222.012C227.883 221.926 228.623 221.801 228.78 222.693C228.918 223.484 228.339 223.838 227.677 224.021C226.723 224.285 225.774 224.561 224.829 224.901C228.227 224.459 231.567 223.702 234.904 223.278C235.122 223.404 235.019 223.085 234.972 223.261C234.962 223.296 234.923 223.278 234.839 223.244C234.619 223.156 234.446 223.018 234.334 222.807C236.055 222.179 238.496 223.19 238.994 224.737C236.537 225.24 234.009 225.329 231.533 226.024C232.317 226.256 233.058 226.437 233.784 226.661C234.264 226.809 234.924 226.94 234.595 227.745C234.508 227.835 234.422 227.924 234.335 228.014Z" fill="#434E40"/>
<path d="M234.333 222.807C235.012 222.955 235.691 223.103 236.37 223.252C232.191 223.821 228.152 225.033 223.699 225.339C224.927 224.212 226.264 224.01 227.53 223.681C228.109 223.531 228.703 223.414 228.512 222.688C228.329 221.993 227.718 222.307 227.245 222.381C225.113 222.713 223.222 223.558 221.729 225.138C220.692 226.237 219.299 225.678 218.098 226.013C216.98 226.325 215.76 226.275 214.585 226.385C214.425 226.349 214.107 226.228 214.251 226.131C216.694 224.486 218.72 222.298 221.328 220.851C223.423 219.688 225.27 220.604 227.201 221.16C229.52 221.963 231.863 222.661 234.333 222.807Z" fill="#4B6E5C"/>
<path d="M105.898 212.127C106.385 212.081 106.818 211.744 107.335 211.858C107.823 212.767 107.183 213.422 106.774 214.083C105.449 216.224 102.14 217.692 100.166 217.07C99.9852 217.063 99.805 217.057 99.6247 217.051C98.4954 217.163 98.9953 216.457 99.0766 215.961C99.1622 215.952 99.2479 215.945 99.3335 215.937C101.383 215.6 103.348 215.073 104.843 213.488C104.992 212.877 105.406 212.471 105.898 212.127Z" fill="#46584B"/>
<path d="M105.899 212.127C105.681 212.685 105.406 213.198 104.843 213.488C103.574 213.397 102.164 213.874 101.232 212.487C100.7 211.695 100.588 210.806 100.449 209.911C100.627 210.093 100.805 210.276 100.983 210.458C101.394 211.826 102.346 212.274 103.709 212.14C104.432 212.069 105.168 212.127 105.899 212.127Z" fill="#5A8866"/>
<path d="M234.594 227.745C234.486 227.022 233.907 227.007 233.367 226.922C232.481 226.781 231.645 226.519 230.775 225.827C232.81 225.217 234.721 224.96 236.63 224.761C237.4 224.681 238.206 224.122 238.994 224.738C237.883 226.261 236.386 227.219 234.594 227.745Z" fill="#4C6E5B"/>
<path d="M186.322 202.759C187.7 201.468 187.668 201.506 186.224 200.31C185.581 199.778 184.867 199.482 184.119 199.202C184.579 197.949 184.887 197.88 187.027 198.586C186.828 197.085 185.877 195.91 185.494 194.531C185.584 194.355 185.673 194.18 185.763 194.004C186.698 193.132 187.29 192.025 187.865 190.91C188.668 189.353 189.351 187.73 190.421 186.322C192.939 185.477 194.148 186.312 193.973 188.908C193.902 189.972 193.88 191.08 193.432 192.096C192.733 191.441 192.062 190.753 191.325 190.143C190.974 189.852 190.49 189.335 190.033 189.833C189.673 190.224 189.876 190.76 190.227 191.197C191.197 192.403 192.159 193.616 193.093 194.849C194.656 196.914 194.652 198.749 193.064 201.012C192.459 199.765 191.883 198.549 191.281 197.348C191.078 196.944 190.839 196.547 190.553 196.198C190.34 195.938 190.087 195.546 189.652 195.827C189.271 196.073 189.284 196.463 189.512 196.793C190.78 198.629 190.655 201.016 191.932 202.851C192.241 203.296 192.039 203.803 191.898 204.3C191.286 206.46 190.085 208.337 188.956 210.742C188.754 208.448 188.356 206.607 187.675 204.849C187.375 204.075 187.252 203.143 186.322 202.759Z" fill="#577E64"/>
<path d="M185.493 194.531C186.71 195.813 187.097 197.445 187.605 199.126C186.323 199.038 185.172 197.52 184.118 199.202C181.165 202.943 178.757 206.986 177.294 211.551C177.088 212.191 176.869 212.828 176.452 213.432C176.589 212.071 176.688 210.704 176.873 209.349C177.077 207.847 177.077 206.338 176.94 204.846C176.774 203.045 175.352 202.046 174.124 200.967C173.719 200.61 173.168 200.402 173.133 199.753C174.914 198.931 176.868 198.83 178.743 198.76C181.493 198.658 183.36 197.344 184.899 195.278C185.089 195.023 185.295 194.78 185.493 194.531Z" fill="#9FB380"/>
<path d="M78.4538 232.927C76.8977 229.473 74.5047 226.587 72.102 223.725C69.3329 220.425 67.8619 216.629 67.5698 212.376C67.4542 210.692 67.8353 209.026 68.2584 207.396C68.3824 206.918 68.6688 206.333 69.262 206.464C69.9192 206.609 69.922 207.154 69.7671 207.782C68.9554 211.069 68.7326 214.356 70.0239 217.591C71.0902 220.262 72.9134 222.434 74.6917 224.637C76.7581 227.196 78.7851 229.782 79.8762 232.951C79.4021 232.943 78.928 232.935 78.4538 232.927Z" fill="#699371"/>
<path d="M69.6951 232.943C68.6167 230.927 66.7711 229.751 64.8928 228.641C63.4071 227.763 61.854 227 60.344 226.162C59.95 225.943 59.5862 225.659 59.2431 225.364C58.9753 225.134 58.6178 224.855 58.8341 224.45C59.0816 223.988 59.5809 224.096 59.926 224.26C64.1301 226.266 68.1709 228.506 71.0356 232.352C71.1702 232.533 71.257 232.749 71.366 232.949C70.809 232.947 70.252 232.945 69.6951 232.943Z" fill="#699473"/>
<path d="M88.0795 232.946C87.4919 231.649 86.4403 230.585 86.1621 229.133C88.0885 230.421 90.3328 231.229 91.9612 232.969C90.6674 232.961 89.3735 232.953 88.0795 232.946Z" fill="#6D9B79"/>
<path d="M81.4852 95.5071C81.2927 92.907 82.2788 90.5724 83.2493 88.2748C86.6498 80.2257 91.6188 73.2513 98.05 67.3504C104.448 61.4804 111.881 57.3277 120.041 54.4325C120.291 54.3437 120.522 54.2006 120.762 54.0829C122.045 53.8831 122.624 54.4774 122.693 55.7308C122.725 56.3174 122.874 56.8972 122.967 57.4807C123.42 60.3444 123.328 60.438 120.603 61.4135C112.939 64.1576 106.061 68.2031 100.374 74.079C94.7684 79.8698 90.714 86.6574 88.1469 94.2837C87.4677 96.3015 86.2587 97.2923 84.2973 97.6359C82.718 97.913 81.67 97.1255 81.4852 95.5071Z" fill="white"/>
<path d="M142.091 86.4756C144.007 86.8344 145.969 86.8896 147.865 87.3942C156.907 89.7987 163.095 95.4645 166.846 103.934C166.938 104.142 167.036 104.347 167.131 104.554C168.309 107.693 168.957 110.961 168.955 114.29C168.953 119.436 167.672 124.294 164.997 128.732C160.389 136.376 153.621 140.851 144.86 142.349C143.697 142.548 142.506 142.576 141.328 142.683C133.036 142.604 125.882 139.763 120.153 133.712C115.736 129.046 113.324 123.44 112.745 117.018C111.404 102.135 121.829 89.7834 135.017 87.1378C137.351 86.6693 139.716 86.509 142.091 86.4756Z" fill="#0C4745"/>
<path d="M196.478 196.47C195.542 196.311 195.781 195.355 195.371 194.839C196.18 193.639 196.635 192.468 196.087 190.92C195.301 188.698 195.093 186.288 194.009 184.147C193.843 183.818 193.838 183.546 194.147 183.303C194.482 183.04 194.791 183.222 195.007 183.429C195.47 183.872 195.799 184.411 195.992 185.04C196.472 186.601 196.981 188.154 197.584 190.038C198.263 188.494 198.747 187.109 199.453 185.849C200.759 183.517 200.468 181.172 199.869 178.747C199.74 178.229 199.197 177.322 200.033 177.088C200.922 176.84 201.174 177.793 201.383 178.485C201.566 179.086 201.66 179.715 201.841 180.554C202.352 179.521 202.78 178.648 203.215 177.778C204.584 175.04 205.937 172.295 207.338 169.574C207.65 168.968 207.845 168.134 208.822 168.206C209.21 169.137 208.884 169.971 208.488 170.806C207.454 172.985 206.432 175.17 205.367 177.434C206.13 177.56 206.699 177.106 207.334 176.983C207.634 176.925 207.96 176.715 208.175 177.12C208.355 177.458 208.186 177.72 207.975 177.985C207.516 178.564 206.852 178.807 206.188 178.899C204.672 179.11 203.729 179.877 203.323 181.364C203.184 181.873 202.883 182.338 202.566 183.015C203.663 182.714 204.559 182.428 205.475 182.235C205.831 182.16 206.372 181.997 206.537 182.532C206.68 182.999 206.293 183.336 205.921 183.482C204.822 183.914 203.708 184.321 202.573 184.644C202.046 184.794 201.639 184.994 201.416 185.488C200.881 186.674 200.358 187.867 199.764 189.206C201.444 188.835 202.813 188.131 204.232 187.552C204.665 187.375 205.294 186.834 205.668 187.56C206.038 188.279 205.342 188.653 204.871 188.934C203.411 189.809 201.772 190.273 200.126 190.599C199.251 190.772 198.915 191.26 198.594 191.943C198.291 192.589 198.453 192.824 199.161 192.916C200.198 193.05 201.227 193.202 202.279 193.206C202.718 193.208 203.263 193.332 203.269 193.924C203.274 194.451 202.769 194.437 202.385 194.586C201.375 194.976 200.322 194.707 199.442 194.462C197.825 194.013 197.141 194.611 196.747 196.014C196.701 196.178 196.57 196.319 196.478 196.47Z" fill="#48654F"/>
<path d="M193.167 207.982C192.376 207.35 192.568 206.714 193.159 206.075C193.646 206.571 193.993 206.036 194.347 205.872C195.912 205.144 197.52 204.538 199.172 204.045C199.72 203.882 200.499 203.556 200.734 204.205C200.982 204.892 200.237 205.306 199.633 205.504C197.436 206.224 195.266 207.006 193.167 207.982Z" fill="#4A6550"/>
<path d="M195.915 201.125C194.761 200.887 195.624 199.999 195.381 199.467C196.632 199.073 197.882 198.676 199.136 198.291C199.394 198.211 199.665 198.136 199.931 198.131C200.691 198.118 201.754 197.939 201.827 198.935C201.901 199.944 200.833 199.682 200.164 199.76C199.146 199.879 198.354 200.598 197.369 200.803C196.883 200.905 196.4 201.017 195.915 201.125Z" fill="#4A614E"/>
<path d="M99.0768 215.961C99.4899 216.209 98.8847 216.968 99.6249 217.051C98.6702 217.542 97.6988 217.364 96.7229 217.131C96.3706 217.046 95.9698 216.913 95.683 217.201C95.3506 217.535 95.6736 217.882 95.8034 218.201C96.9394 220.993 98.8982 223.187 100.98 225.29C100.811 225.651 100.546 225.917 100.186 226.088C98.1281 224.215 96.2332 222.203 94.8392 219.77C94.2721 218.781 93.6829 217.796 93.8488 216.57C93.9988 215.461 94.6731 214.967 95.7593 215.274C96.8507 215.584 97.8984 216.079 99.0768 215.961Z" fill="#496251"/>
<path d="M100.166 217.07C102.874 216.727 105.394 216.049 106.803 213.371C107.055 212.892 107.336 212.426 107.335 211.859C108.325 211.57 109.314 211.281 110.304 210.992C110.398 211 110.493 211.008 110.588 211.016C110.817 211.349 110.959 211.709 110.935 212.122C110.519 213.665 110.6 215.333 109.771 216.773C109.254 218.123 109.176 219.572 109.006 220.973C108.822 222.484 108.514 224.009 108.668 225.554C107.148 225.047 107.641 223.613 107.325 222.566C107.2 222.15 107.305 221.666 107.305 221.048C106.884 221.512 107.101 221.924 107.02 222.275C106.741 222.314 106.553 222.143 106.542 221.915C106.49 220.861 106.366 219.809 106.336 218.789C106.178 219.483 106.551 220.202 106.471 220.931C106.442 221.201 106.466 221.514 106.192 221.655C105.819 221.847 105.607 221.52 105.406 221.299C104.859 220.699 104.454 219.968 103.744 219.52C103.175 219.98 103.14 220.689 102.937 221.312C102.829 221.644 102.88 222.11 102.415 222.116C101.974 222.122 101.947 221.651 101.827 221.332C101.703 221.001 101.606 220.661 101.49 220.327C101.481 220.3 101.412 220.277 101.375 220.281C101.335 220.286 101.299 220.325 101.262 220.35C100.09 219.617 100.394 218.356 100.167 217.286C100.167 217.214 100.167 217.142 100.166 217.07Z" fill="#5D8768"/>
<path d="M100.165 217.285C101.055 218.119 100.546 219.452 101.261 220.349C101.365 221.775 102.131 222.907 102.907 224.031C103.555 224.97 104.17 225.922 104.465 227.041C104.575 227.456 104.646 227.925 104.191 228.122C103.684 228.342 103.626 227.785 103.482 227.505C102.164 224.926 100.415 222.547 99.8055 219.636C99.6312 218.804 99.2588 217.949 100.165 217.285Z" fill="#45584B"/>
<path d="M103.744 219.519C105.144 219.411 105.144 221.03 106.13 221.446C106.507 220.447 105.434 219.347 106.313 218.352C107.189 219.573 106.355 221.055 107.021 222.274C107.021 223.209 107.021 224.144 107.021 225.536C105.565 223.435 104.715 221.441 103.744 219.519Z" fill="#445148"/>
<path d="M166.879 232.932C168.068 227.793 169.141 222.636 169.901 217.409C170.424 213.813 171.233 210.259 171.882 206.68C172.156 205.171 172.346 203.648 172.592 202.013C174.81 203.526 174.691 205.63 174.458 207.735C173.656 214.962 172.14 222.127 172.592 229.46C172.619 229.898 172.276 230.607 173.019 230.699C173.697 230.783 173.723 230.061 173.826 229.615C174.268 227.71 174.7 225.801 175.051 223.878C175.589 220.926 176.562 218.146 178.22 215.639C180.142 212.734 181.154 209.488 181.925 206.141C182.067 205.525 182.185 204.897 182.643 204.272C184.327 208.397 184.371 212.374 182.302 216.291C179.748 221.123 178.548 226.435 176.864 231.575C176.725 232 176.735 232.473 176.676 232.924C173.41 232.926 170.144 232.929 166.879 232.932Z" fill="#A1B487"/>
<path d="M159.152 230.261C159.694 230.191 159.97 229.869 159.961 229.337C159.92 226.704 160.602 224.076 160.01 221.44C160.846 221.734 160.636 220.913 160.728 220.642C161.875 217.281 163.374 214.089 165.187 211.042C165.319 210.82 165.549 210.655 165.734 210.464C165.215 215.567 165.623 220.687 165.449 225.796C165.358 228.472 164.422 230.861 162.682 232.917C161.597 232.921 160.513 232.925 159.428 232.929C159.532 232.02 159.301 231.145 159.152 230.261Z" fill="#A1B27D"/>
<path d="M117.501 228.789C117.378 229.544 117.268 230.216 117.158 230.887C117.111 231.174 116.992 231.467 116.677 231.446C116.305 231.422 116.374 231.06 116.357 230.801C116.17 227.99 116.15 225.156 115.762 222.372C115.257 218.736 116.282 215.452 117.576 212.183C117.686 211.906 117.59 211.293 118.146 211.44C118.639 211.571 118.429 212.008 118.325 212.361C117.852 213.976 117.355 215.585 116.93 217.213C116.279 219.699 116.723 222.192 117.04 224.666C117.22 226.064 117.075 227.489 117.501 228.789Z" fill="#3E463B"/>
<path d="M110.603 222.535C110.529 224.941 110.687 227.331 111.096 229.705C111.158 230.062 111.192 230.544 110.707 230.555C110.337 230.563 110.386 230.098 110.316 229.791C109.477 226.11 109.786 222.404 110.051 218.698C110.347 218.392 109.987 217.861 110.622 217.475C111.131 219.224 110.681 220.886 110.603 222.535Z" fill="#3B473E"/>
<path d="M110.597 212.113C110.595 211.747 110.592 211.381 110.589 211.016C112.091 211.557 111.974 212.841 111.963 214.057C111.944 216.207 111.002 218.202 110.874 220.337C110.639 217.817 110.197 215.303 110.66 212.764C110.701 212.537 110.751 212.317 110.597 212.113Z" fill="#50755C"/>
<path d="M110.597 212.113C111.124 212.755 110.841 213.511 110.856 214.209C110.901 216.251 110.873 218.294 110.874 220.337C110.749 221.065 111.135 221.857 110.603 222.535C110.603 221.001 110.603 219.466 110.603 217.898C110.133 218.006 110.427 218.581 110.051 218.699C110.126 218.032 109.935 217.405 109.771 216.773C109.808 215.177 110.311 213.665 110.597 212.113Z" fill="#475F4E"/>
<path d="M140.796 140.57C126.115 140.461 114.523 128.746 114.675 114.111C114.813 100.938 125.811 88.3074 141.45 88.6088C155.654 88.8825 166.971 100.587 166.891 115.184C166.815 128.965 154.78 140.674 140.796 140.57Z" fill="#FBFBFB"/>
</g>
<defs>
<clipPath id="clip0_14_11639">
<rect width="281" height="281" fill="white"/>
</clipPath>
</defs>
</svg>
