<svg width="250" height="250" viewBox="0 0 250 250" fill="none" xmlns="http://www.w3.org/2000/svg">
<mask id="path-1-inside-1_105_25775" fill="white">
<path d="M222.656 23.4375H199.219V19.5312C199.219 16.4232 197.984 13.4425 195.786 11.2448C193.589 9.04715 190.608 7.8125 187.5 7.8125C184.392 7.8125 181.411 9.04715 179.214 11.2448C177.016 13.4425 175.781 16.4232 175.781 19.5312V23.4375H136.719V19.5312C136.719 16.4232 135.484 13.4425 133.286 11.2448C131.089 9.04715 128.108 7.8125 125 7.8125C121.892 7.8125 118.911 9.04715 116.714 11.2448C114.516 13.4425 113.281 16.4232 113.281 19.5312V23.4375H74.2188V19.5312C74.2188 16.4232 72.9841 13.4425 70.7864 11.2448C68.5887 9.04715 65.608 7.8125 62.5 7.8125C59.392 7.8125 56.4113 9.04715 54.2136 11.2448C52.0159 13.4425 50.7812 16.4232 50.7812 19.5312V23.4375H27.3438C22.1655 23.4433 17.2011 25.5029 13.5395 29.1645C9.87793 32.8261 7.81832 37.7905 7.8125 42.9688V222.656C7.81832 227.834 9.87793 232.799 13.5395 236.461C17.2011 240.122 22.1655 242.182 27.3438 242.188H222.656C227.834 242.182 232.799 240.122 236.461 236.461C240.122 232.799 242.182 227.834 242.188 222.656V42.9688C242.182 37.7905 240.122 32.8261 236.461 29.1645C232.799 25.5029 227.834 23.4433 222.656 23.4375ZM183.594 19.5312C183.594 18.4952 184.005 17.5017 184.738 16.7691C185.47 16.0366 186.464 15.625 187.5 15.625C188.536 15.625 189.53 16.0366 190.262 16.7691C190.995 17.5017 191.406 18.4952 191.406 19.5312V42.9688C191.406 44.0048 190.995 44.9983 190.262 45.7309C189.53 46.4634 188.536 46.875 187.5 46.875C186.464 46.875 185.47 46.4634 184.738 45.7309C184.005 44.9983 183.594 44.0048 183.594 42.9688V19.5312ZM121.094 19.5312C121.094 18.4952 121.505 17.5017 122.238 16.7691C122.97 16.0366 123.964 15.625 125 15.625C126.036 15.625 127.03 16.0366 127.762 16.7691C128.495 17.5017 128.906 18.4952 128.906 19.5312V42.9688C128.906 44.0048 128.495 44.9983 127.762 45.7309C127.03 46.4634 126.036 46.875 125 46.875C123.964 46.875 122.97 46.4634 122.238 45.7309C121.505 44.9983 121.094 44.0048 121.094 42.9688V19.5312ZM58.5938 19.5312C58.5938 18.4952 59.0053 17.5017 59.7379 16.7691C60.4704 16.0366 61.464 15.625 62.5 15.625C63.536 15.625 64.5296 16.0366 65.2621 16.7691C65.9947 17.5017 66.4062 18.4952 66.4062 19.5312V42.9688C66.4062 44.0048 65.9947 44.9983 65.2621 45.7309C64.5296 46.4634 63.536 46.875 62.5 46.875C61.464 46.875 60.4704 46.4634 59.7379 45.7309C59.0053 44.9983 58.5938 44.0048 58.5938 42.9688V19.5312ZM27.3438 31.25H50.7812V42.9688C50.7812 46.0768 52.0159 49.0575 54.2136 51.2552C56.4113 53.4529 59.392 54.6875 62.5 54.6875C65.608 54.6875 68.5887 53.4529 70.7864 51.2552C72.9841 49.0575 74.2188 46.0768 74.2188 42.9688V31.25H113.281V42.9688C113.281 46.0768 114.516 49.0575 116.714 51.2552C118.911 53.4529 121.892 54.6875 125 54.6875C128.108 54.6875 131.089 53.4529 133.286 51.2552C135.484 49.0575 136.719 46.0768 136.719 42.9688V31.25H175.781V42.9688C175.781 46.0768 177.016 49.0575 179.214 51.2552C181.411 53.4529 184.392 54.6875 187.5 54.6875C190.608 54.6875 193.589 53.4529 195.786 51.2552C197.984 49.0575 199.219 46.0768 199.219 42.9688V31.25H222.656C225.763 31.2536 228.742 32.4894 230.939 34.6863C233.136 36.8832 234.371 39.8619 234.375 42.9688V70.3125H15.625V42.9688C15.6286 39.8619 16.8644 36.8832 19.0613 34.6863C21.2582 32.4894 24.2369 31.2536 27.3438 31.25ZM222.656 234.375H27.3438C24.2369 234.371 21.2582 233.136 19.0613 230.939C16.8644 228.742 15.6286 225.763 15.625 222.656V78.125H234.375V222.656C234.371 225.763 233.136 228.742 230.939 230.939C228.742 233.136 225.763 234.371 222.656 234.375Z"/>
</mask>
<path d="M222.656 23.4375H199.219V19.5312C199.219 16.4232 197.984 13.4425 195.786 11.2448C193.589 9.04715 190.608 7.8125 187.5 7.8125C184.392 7.8125 181.411 9.04715 179.214 11.2448C177.016 13.4425 175.781 16.4232 175.781 19.5312V23.4375H136.719V19.5312C136.719 16.4232 135.484 13.4425 133.286 11.2448C131.089 9.04715 128.108 7.8125 125 7.8125C121.892 7.8125 118.911 9.04715 116.714 11.2448C114.516 13.4425 113.281 16.4232 113.281 19.5312V23.4375H74.2188V19.5312C74.2188 16.4232 72.9841 13.4425 70.7864 11.2448C68.5887 9.04715 65.608 7.8125 62.5 7.8125C59.392 7.8125 56.4113 9.04715 54.2136 11.2448C52.0159 13.4425 50.7812 16.4232 50.7812 19.5312V23.4375H27.3438C22.1655 23.4433 17.2011 25.5029 13.5395 29.1645C9.87793 32.8261 7.81832 37.7905 7.8125 42.9688V222.656C7.81832 227.834 9.87793 232.799 13.5395 236.461C17.2011 240.122 22.1655 242.182 27.3438 242.188H222.656C227.834 242.182 232.799 240.122 236.461 236.461C240.122 232.799 242.182 227.834 242.188 222.656V42.9688C242.182 37.7905 240.122 32.8261 236.461 29.1645C232.799 25.5029 227.834 23.4433 222.656 23.4375ZM183.594 19.5312C183.594 18.4952 184.005 17.5017 184.738 16.7691C185.47 16.0366 186.464 15.625 187.5 15.625C188.536 15.625 189.53 16.0366 190.262 16.7691C190.995 17.5017 191.406 18.4952 191.406 19.5312V42.9688C191.406 44.0048 190.995 44.9983 190.262 45.7309C189.53 46.4634 188.536 46.875 187.5 46.875C186.464 46.875 185.47 46.4634 184.738 45.7309C184.005 44.9983 183.594 44.0048 183.594 42.9688V19.5312ZM121.094 19.5312C121.094 18.4952 121.505 17.5017 122.238 16.7691C122.97 16.0366 123.964 15.625 125 15.625C126.036 15.625 127.03 16.0366 127.762 16.7691C128.495 17.5017 128.906 18.4952 128.906 19.5312V42.9688C128.906 44.0048 128.495 44.9983 127.762 45.7309C127.03 46.4634 126.036 46.875 125 46.875C123.964 46.875 122.97 46.4634 122.238 45.7309C121.505 44.9983 121.094 44.0048 121.094 42.9688V19.5312ZM58.5938 19.5312C58.5938 18.4952 59.0053 17.5017 59.7379 16.7691C60.4704 16.0366 61.464 15.625 62.5 15.625C63.536 15.625 64.5296 16.0366 65.2621 16.7691C65.9947 17.5017 66.4062 18.4952 66.4062 19.5312V42.9688C66.4062 44.0048 65.9947 44.9983 65.2621 45.7309C64.5296 46.4634 63.536 46.875 62.5 46.875C61.464 46.875 60.4704 46.4634 59.7379 45.7309C59.0053 44.9983 58.5938 44.0048 58.5938 42.9688V19.5312ZM27.3438 31.25H50.7812V42.9688C50.7812 46.0768 52.0159 49.0575 54.2136 51.2552C56.4113 53.4529 59.392 54.6875 62.5 54.6875C65.608 54.6875 68.5887 53.4529 70.7864 51.2552C72.9841 49.0575 74.2188 46.0768 74.2188 42.9688V31.25H113.281V42.9688C113.281 46.0768 114.516 49.0575 116.714 51.2552C118.911 53.4529 121.892 54.6875 125 54.6875C128.108 54.6875 131.089 53.4529 133.286 51.2552C135.484 49.0575 136.719 46.0768 136.719 42.9688V31.25H175.781V42.9688C175.781 46.0768 177.016 49.0575 179.214 51.2552C181.411 53.4529 184.392 54.6875 187.5 54.6875C190.608 54.6875 193.589 53.4529 195.786 51.2552C197.984 49.0575 199.219 46.0768 199.219 42.9688V31.25H222.656C225.763 31.2536 228.742 32.4894 230.939 34.6863C233.136 36.8832 234.371 39.8619 234.375 42.9688V70.3125H15.625V42.9688C15.6286 39.8619 16.8644 36.8832 19.0613 34.6863C21.2582 32.4894 24.2369 31.2536 27.3438 31.25ZM222.656 234.375H27.3438C24.2369 234.371 21.2582 233.136 19.0613 230.939C16.8644 228.742 15.6286 225.763 15.625 222.656V78.125H234.375V222.656C234.371 225.763 233.136 228.742 230.939 230.939C228.742 233.136 225.763 234.371 222.656 234.375Z" fill="#DBAB33" stroke="#0C4745" stroke-width="4" mask="url(#path-1-inside-1_105_25775)"/>
<path d="M199.219 106.469H214.844C215.615 106.469 216.353 106.775 216.898 107.32C217.443 107.865 217.75 108.604 217.75 109.375V125C217.75 125.771 217.443 126.51 216.898 127.055C216.353 127.6 215.615 127.906 214.844 127.906H199.219C198.448 127.906 197.709 127.6 197.164 127.055C196.619 126.51 196.312 125.771 196.312 125V109.375C196.312 108.604 196.619 107.865 197.164 107.32C197.709 106.775 198.448 106.469 199.219 106.469ZM202.125 122.094H211.938V112.281H202.125V122.094Z" fill="white" stroke="#0C4745" stroke-width="2"/>
<path d="M121.094 184.594H136.719C137.49 184.594 138.228 184.9 138.773 185.445C139.318 185.99 139.625 186.729 139.625 187.5V203.125C139.625 203.896 139.318 204.635 138.773 205.18C138.228 205.725 137.49 206.031 136.719 206.031H121.094C120.323 206.031 119.584 205.725 119.039 205.18C118.494 204.635 118.188 203.896 118.188 203.125V187.5C118.188 186.729 118.494 185.99 119.039 185.445C119.584 184.9 120.323 184.594 121.094 184.594ZM124 200.219H133.812V190.406H124V200.219Z" fill="white" stroke="#0C4745" stroke-width="2"/>
<path d="M82.0312 106.469H97.6562C98.427 106.469 99.1659 106.775 99.7109 107.32C100.256 107.865 100.562 108.604 100.562 109.375V125C100.562 125.771 100.256 126.51 99.7109 127.055C99.1659 127.6 98.427 127.906 97.6562 127.906H82.0312C81.2605 127.906 80.5216 127.6 79.9766 127.055C79.4315 126.51 79.125 125.771 79.125 125V109.375C79.125 108.604 79.4315 107.865 79.9766 107.32C80.5216 106.775 81.2605 106.469 82.0312 106.469ZM84.9375 122.094H94.75V112.281H84.9375V122.094Z" fill="white" stroke="#0C4745" stroke-width="2"/>
<path d="M42.9688 145.531H58.5938C59.3645 145.531 60.1034 145.838 60.6484 146.383C61.1935 146.928 61.5 147.667 61.5 148.438V164.062C61.5 164.833 61.1935 165.572 60.6484 166.117C60.1034 166.662 59.3645 166.969 58.5938 166.969H42.9688C42.198 166.969 41.4591 166.662 40.9141 166.117C40.369 165.572 40.0625 164.833 40.0625 164.062V148.438C40.0625 147.667 40.369 146.928 40.9141 146.383C41.4591 145.838 42.198 145.531 42.9688 145.531ZM45.875 161.156H55.6875V151.344H45.875V161.156Z" fill="white" stroke="#0C4745" stroke-width="2"/>
<path d="M82.0312 145.531H97.6562C98.427 145.531 99.1659 145.838 99.7109 146.383C100.256 146.928 100.562 147.667 100.562 148.438V164.062C100.562 164.833 100.256 165.572 99.7109 166.117C99.1659 166.662 98.427 166.969 97.6562 166.969H82.0312C81.2605 166.969 80.5216 166.662 79.9766 166.117C79.4315 165.572 79.125 164.833 79.125 164.062V148.438C79.125 147.667 79.4315 146.928 79.9766 146.383C80.5216 145.838 81.2605 145.531 82.0312 145.531ZM84.9375 161.156H94.75V151.344H84.9375V161.156Z" fill="white" stroke="#0C4745" stroke-width="2"/>
<path d="M42.9688 184.594H58.5938C59.3645 184.594 60.1034 184.9 60.6484 185.445C61.1935 185.99 61.5 186.729 61.5 187.5V203.125C61.5 203.896 61.1935 204.635 60.6484 205.18C60.1034 205.725 59.3645 206.031 58.5938 206.031H42.9688C42.198 206.031 41.4591 205.725 40.9141 205.18C40.369 204.635 40.0625 203.896 40.0625 203.125V187.5C40.0625 186.729 40.369 185.99 40.9141 185.445C41.4591 184.9 42.198 184.594 42.9688 184.594ZM45.875 200.219H55.6875V190.406H45.875V200.219Z" fill="white" stroke="#0C4745" stroke-width="2"/>
<path d="M82.0312 184.594H97.6562C98.427 184.594 99.1659 184.9 99.7109 185.445C100.256 185.99 100.562 186.729 100.562 187.5V203.125C100.562 203.896 100.256 204.635 99.7109 205.18C99.1659 205.725 98.427 206.031 97.6562 206.031H82.0312C81.2605 206.031 80.5216 205.725 79.9766 205.18C79.4315 204.635 79.125 203.896 79.125 203.125V187.5C79.125 186.729 79.4315 185.99 79.9766 185.445C80.5216 184.9 81.2605 184.594 82.0312 184.594ZM84.9375 200.219H94.75V190.406H84.9375V200.219Z" fill="white" stroke="#0C4745" stroke-width="2"/>
<path d="M148.436 98.6562C148.988 98.6562 149.528 98.8134 149.994 99.1094C150.46 99.4054 150.832 99.8284 151.066 100.328L159.839 119.015L160.065 119.498L160.593 119.578L180.124 122.562L180.193 122.572C180.697 122.661 181.17 122.88 181.562 123.21C181.97 123.554 182.277 124.004 182.446 124.511C182.616 125.018 182.642 125.562 182.522 126.083C182.418 126.539 182.205 126.962 181.903 127.316L181.769 127.465L167.52 142.068L167.167 142.43L167.248 142.928L170.617 163.595C170.705 164.133 170.64 164.685 170.429 165.188C170.217 165.69 169.869 166.124 169.423 166.438C168.977 166.752 168.452 166.934 167.907 166.964C167.363 166.994 166.82 166.869 166.343 166.605L148.919 156.975L148.436 156.707L147.952 156.975L130.53 166.604C130.053 166.867 129.511 166.99 128.968 166.96C128.424 166.93 127.9 166.747 127.455 166.434C127.01 166.12 126.662 165.687 126.451 165.186C126.24 164.684 126.173 164.134 126.26 163.597L129.629 142.93L129.71 142.432L129.357 142.07L115.109 127.468L115.108 127.467C114.735 127.085 114.474 126.607 114.354 126.086C114.235 125.565 114.262 125.021 114.432 124.514C114.601 124.007 114.907 123.556 115.316 123.212C115.725 122.868 116.222 122.643 116.75 122.562H116.751L136.282 119.578L136.81 119.498L137.036 119.015L145.805 100.328C146.039 99.8285 146.411 99.4054 146.877 99.1094C147.343 98.8134 147.884 98.6563 148.436 98.6562ZM147.53 110.331L141.41 123.374C141.207 123.806 140.902 124.181 140.52 124.467C140.185 124.717 139.801 124.891 139.395 124.979L139.219 125.012L125.141 127.16L123.216 127.454L124.575 128.848L134.889 139.42C135.206 139.745 135.443 140.141 135.58 140.574C135.717 141.008 135.75 141.468 135.677 141.917L133.284 156.591L132.953 158.623L134.756 157.627L147.029 150.84L147.028 150.839C147.459 150.601 147.943 150.477 148.435 150.477C148.926 150.477 149.41 150.602 149.841 150.84L162.114 157.627L163.916 158.623L163.585 156.591L161.192 141.917C161.119 141.468 161.152 141.008 161.289 140.574C161.409 140.195 161.605 139.845 161.865 139.545L161.98 139.42L172.297 128.845L173.655 127.451L171.731 127.158L157.653 125.01C157.182 124.938 156.735 124.75 156.353 124.465C155.97 124.179 155.665 123.803 155.462 123.371L149.341 110.331L148.436 108.402L147.53 110.331Z" fill="#DBAB33" stroke="#0C4745" stroke-width="2"/>
<path d="M199.219 145.531H214.844C215.615 145.531 216.353 145.838 216.898 146.383C217.443 146.928 217.75 147.667 217.75 148.438V164.062C217.75 164.833 217.443 165.572 216.898 166.117C216.353 166.662 215.615 166.969 214.844 166.969H199.219C198.448 166.969 197.709 166.662 197.164 166.117C196.619 165.572 196.312 164.833 196.312 164.062V148.438C196.312 147.667 196.619 146.928 197.164 146.383C197.709 145.838 198.448 145.531 199.219 145.531ZM202.125 161.156H211.938V151.344H202.125V161.156Z" fill="white" stroke="#0C4745" stroke-width="2"/>
<path d="M199.219 184.594H214.844C215.615 184.594 216.353 184.9 216.898 185.445C217.443 185.99 217.75 186.729 217.75 187.5V203.125C217.75 203.896 217.443 204.635 216.898 205.18C216.353 205.725 215.615 206.031 214.844 206.031H199.219C198.448 206.031 197.709 205.725 197.164 205.18C196.619 204.635 196.312 203.896 196.312 203.125V187.5C196.312 186.729 196.619 185.99 197.164 185.445C197.709 184.9 198.448 184.594 199.219 184.594ZM202.125 200.219H211.938V190.406H202.125V200.219Z" fill="white" stroke="#0C4745" stroke-width="2"/>
<path d="M160.156 184.594H175.781C176.552 184.594 177.291 184.9 177.836 185.445C178.381 185.99 178.688 186.729 178.688 187.5V203.125C178.688 203.896 178.381 204.635 177.836 205.18C177.291 205.725 176.552 206.031 175.781 206.031H160.156C159.385 206.031 158.647 205.725 158.102 205.18C157.557 204.635 157.25 203.896 157.25 203.125V187.5C157.25 186.729 157.557 185.99 158.102 185.445C158.647 184.9 159.385 184.594 160.156 184.594ZM163.062 200.219H172.875V190.406H163.062V200.219Z" fill="white" stroke="#0C4745" stroke-width="2"/>
</svg>
