<svg width="250" height="250" viewBox="0 0 250 250" fill="none" xmlns="http://www.w3.org/2000/svg">
<path d="M119.395 118.448C119.395 111.992 124.765 106.758 131.39 106.758C138.014 106.758 143.385 111.992 143.385 118.448" stroke="#DBAB33" stroke-width="5" stroke-miterlimit="10" stroke-linecap="round" stroke-linejoin="round"/>
<path d="M199.48 204.891C194.636 198.56 191.77 190.712 191.77 182.206C191.77 164.583 204.079 149.765 220.771 145.469" stroke="#DBAB33" stroke-width="5" stroke-miterlimit="10" stroke-linecap="round" stroke-linejoin="round"/>
<path d="M207.253 36.6211L181.852 25.0117" stroke="white" stroke-width="5" stroke-miterlimit="10" stroke-linecap="round" stroke-linejoin="round"/>
<path d="M57.1678 120.059C43.734 148.686 35.2996 189.901 49.9702 244.49H154.95C157.735 244.49 159.968 242.227 159.84 239.517C158.945 220.624 153.072 208.674 148.686 201.887" stroke="#DBAB33" stroke-width="5" stroke-miterlimit="10" stroke-linecap="round" stroke-linejoin="round"/>
<path d="M114.254 159.177C111.35 163.555 109.636 168.751 109.555 174.335C109.454 181.235 111.907 187.637 116.056 192.671C121.356 199.101 129.421 203.3 138.464 203.462C145.712 203.591 152.379 201.166 157.58 197.051C162.111 193.466 168.231 192.449 173.634 194.603L198.379 204.468C202.262 206.039 206.291 206.782 210.246 206.782C222.407 206.782 233.945 199.77 238.895 188.139C244.041 176.046 240.61 162.096 230.396 153.592L142.196 79.1889C140.757 77.975 140.181 76.0593 140.696 74.2737C148.345 47.7497 130.968 32.4695 124.31 27.7416C122.798 26.6679 120.79 26.5496 119.138 27.405C112.225 30.9848 94.5689 42.6132 95.6892 67.5829C95.7562 69.0786 95.131 70.5266 93.9485 71.4825C91.4006 73.5423 86.5298 77.7695 80.7578 84.2263" stroke="#DBAB33" stroke-width="5" stroke-miterlimit="10" stroke-linecap="round" stroke-linejoin="round"/>
<path d="M154.23 39.4515L206.515 12.189C214.391 8.09813 221.221 15.2977 216.422 22.626L183.032 73.638L178.687 80.2797L178.682 80.2845" stroke="white" stroke-width="5" stroke-miterlimit="10" stroke-linecap="round" stroke-linejoin="round"/>
<path d="M192.963 58.3347L157.914 42.3164" stroke="white" stroke-width="5" stroke-miterlimit="10" stroke-linecap="round" stroke-linejoin="round"/>
<path d="M49.9718 244.491C47.5721 244.959 45.077 245.168 42.5257 245.094C25.2895 244.599 11.2505 230.941 10.7084 214.143C10.4946 207.518 12.3488 201.327 15.6898 196.139C18.5812 191.648 18.4305 185.933 15.1874 181.676C11.1341 176.356 8.73438 169.77 8.73438 162.637C8.73438 154.164 12.1164 146.464 17.6321 140.743C21.1873 137.056 22.0997 131.63 20.1037 126.959C18.4867 123.175 17.5934 119.024 17.5934 114.668C17.5934 101.827 25.357 90.7589 36.5575 85.6662C41.3608 83.482 44.4259 78.8257 44.4088 73.6601C44.4083 73.5533 44.4088 73.4465 44.4092 73.3392C44.5232 56.3864 58.4302 42.3072 75.8102 41.5882C84.5449 41.2268 92.5757 44.1953 98.6515 49.2994" stroke="#DBAB33" stroke-width="5" stroke-miterlimit="10" stroke-linecap="round" stroke-linejoin="round"/>
<ellipse cx="67.6033" cy="101.334" rx="4.89233" ry="4.76792" fill="white"/>
<ellipse cx="218.017" cy="171.971" rx="4.89233" ry="4.76792" fill="white"/>
<path d="M134.824 38.0649C134.824 38.0649 156.483 25.5453 163.955 58.5412C168.796 79.9206 185.204 84.8878 193.722 86.0106C196.744 86.4092 198.658 89.4092 197.682 92.2252C195.688 97.9829 190.578 106.256 177.522 108.989" stroke="#DBAB33" stroke-width="5" stroke-miterlimit="10" stroke-linecap="round" stroke-linejoin="round"/>
</svg>
