<svg width="293" height="293" viewBox="0 0 293 293" fill="none" xmlns="http://www.w3.org/2000/svg">
<g clip-path="url(#clip0_77_33432)">
<path d="M132.651 1.50391C149.49 1.50391 163.198 15.2078 163.198 32.0508C163.198 40.5913 159.662 48.3137 153.984 53.8691L151.356 56.4414H173.854C180.598 56.4414 186.089 61.932 186.089 68.6758V88.4883H200.604L200.92 88.3311L236.803 70.4951L236.807 70.4932C237.761 70.0163 238.895 70.0703 239.791 70.6299L239.795 70.6328C240.706 71.1981 241.256 72.1863 241.256 73.249V155.655C241.256 156.718 240.706 157.707 239.795 158.272L239.79 158.275C239.303 158.58 238.746 158.733 238.177 158.733C237.706 158.733 237.239 158.629 236.807 158.414H236.808L200.924 140.578L200.608 140.421H186.094V160.233C186.094 166.977 180.603 172.468 173.859 172.468C172.157 172.468 170.781 171.089 170.781 169.39C170.781 167.691 172.161 166.312 173.859 166.312C177.216 166.311 179.938 163.583 179.938 160.233V68.6709C179.937 65.3211 177.216 62.5929 173.859 62.5928H63.9844C60.6279 62.5928 57.9064 65.321 57.9062 68.6709V160.238C57.9063 163.588 60.6279 166.316 63.9844 166.316H155.647C157.35 166.316 158.726 167.695 158.726 169.395C158.726 171.094 157.35 172.473 155.647 172.473H144.991V178.551C144.991 184.553 140.632 189.542 134.909 190.566L133.01 190.906L133.809 192.663L176.761 287.155V287.156C177.465 288.703 176.785 290.523 175.237 291.229C174.814 291.421 174.384 291.509 173.965 291.509C172.784 291.509 171.672 290.837 171.16 289.707L171.159 289.705L126.601 191.669L126.201 190.79H111.849L111.449 191.669L66.8896 289.705V289.706C66.3775 290.834 65.2631 291.509 64.085 291.509C63.718 291.509 63.3426 291.441 62.9707 291.296L62.8115 291.229C61.2644 290.523 60.585 288.699 61.2881 287.157L61.2891 287.155L104.241 192.663L105.039 190.907L103.141 190.566C97.4127 189.538 93.0586 184.548 93.0586 178.551V172.473H63.9795C57.2357 172.473 51.7452 166.982 51.7451 160.238V68.6758L51.749 68.3604C51.917 61.7616 57.3411 56.4414 63.9795 56.4414H71.6953L69.8721 54.0352C67.1448 50.4359 65.4795 46.0247 65.4795 41.207C65.4795 29.4136 75.0767 19.8164 86.8701 19.8164C92.1601 19.8164 96.9569 21.8219 100.717 25.0488L102.535 26.6094L103.145 24.293C106.593 11.1966 118.503 1.50392 132.651 1.50391ZM99.2188 178.546C99.2188 181.896 101.94 184.624 105.297 184.624H132.766C136.122 184.624 138.844 181.896 138.844 178.546V172.468H99.2188V178.546ZM232.927 79.2949L205.234 93.0566L204.401 93.4707V119.03C204.401 120.73 203.026 122.108 201.323 122.108C199.621 122.108 198.245 120.73 198.245 119.03V94.6396H186.089V134.265H201.323C201.8 134.265 202.267 134.373 202.693 134.585V134.584L232.927 149.609L235.095 150.687V78.2178L232.927 79.2949ZM86.875 25.9678C78.4744 25.9678 71.6408 32.8016 71.6406 41.2021C71.6406 49.6028 78.4744 56.4365 86.875 56.4365C95.2755 56.4364 102.109 49.6027 102.109 41.2021C102.109 32.8017 95.2754 25.9679 86.875 25.9678ZM105.881 50.79C105.299 51.9414 104.636 53.0254 103.874 54.0293L102.045 56.4365H113.956L111.316 53.8633C110.274 52.8473 109.314 51.7364 108.411 50.5557L106.96 48.6572L105.881 50.79ZM132.656 7.65527C119.206 7.65527 108.266 18.5957 108.266 32.0459C108.266 45.4962 119.206 56.4365 132.656 56.4365C146.106 56.4364 157.047 45.4961 157.047 32.0459C157.047 18.5958 146.106 7.65542 132.656 7.65527Z" fill="#DBAB33" stroke="#0C4745" stroke-width="3"/>
<path d="M73.1396 74.75H91.5625C93.2646 74.7503 94.6406 76.1286 94.6406 77.8281C94.6406 79.5276 93.2646 80.906 91.5625 80.9062H76.2178V120.531H161.624V80.9062H109.875C108.173 80.9062 106.797 79.5278 106.797 77.8281C106.797 76.1285 108.173 74.75 109.875 74.75H164.702C166.404 74.75 167.78 76.1284 167.78 77.8281V123.609C167.78 125.309 166.404 126.688 164.702 126.688H73.1396C71.4373 126.688 70.0615 125.309 70.0615 123.609V77.8281C70.0615 76.1285 71.4373 74.75 73.1396 74.75Z" fill="white" stroke="#0C4745" stroke-width="3"/>
<path d="M155.656 151.078C158.185 151.078 160.234 149.028 160.234 146.5C160.234 143.972 158.185 141.922 155.656 141.922C153.128 141.922 151.078 143.972 151.078 146.5C151.078 149.028 153.128 151.078 155.656 151.078Z" fill="white"/>
<path d="M137.344 151.078C139.872 151.078 141.922 149.028 141.922 146.5C141.922 143.972 139.872 141.922 137.344 141.922C134.815 141.922 132.766 143.972 132.766 146.5C132.766 149.028 134.815 151.078 137.344 151.078Z" fill="white"/>
</g>
<defs>
<clipPath id="clip0_77_33432">
<rect width="293" height="293" fill="white"/>
</clipPath>
</defs>
</svg>
