<svg width="250" height="250" viewBox="0 0 250 250" fill="none" xmlns="http://www.w3.org/2000/svg">
<path d="M229.167 77.3958V139.896C229.167 155.521 223.959 168.541 214.792 177.708C205.73 186.771 192.709 191.979 177.084 191.979V214.166C177.084 222.5 167.813 227.501 160.938 222.917L114.584 191.979H92.5006C93.334 188.854 93.7506 185.625 93.7506 182.291C93.7506 171.666 89.6881 161.876 83.0215 154.48C75.5215 145.938 64.3756 140.625 52.084 140.625C40.4173 140.625 29.7923 145.417 22.1882 153.23C21.2507 149.063 20.834 144.583 20.834 139.896V77.3958C20.834 46.1458 41.6673 25.3125 72.9173 25.3125H177.084C208.334 25.3125 229.167 46.1458 229.167 77.3958Z" fill="#0C4745"/>
<path d="M93.7494 182.292C93.7494 185.625 93.3327 188.854 92.4994 191.979C91.5619 196.146 89.8953 200.208 87.7078 203.75C80.5203 215.833 67.291 223.958 52.0827 223.958C41.3535 223.958 31.666 219.896 24.3743 213.229C21.2493 210.521 18.5409 207.292 16.4576 203.75C12.6034 197.5 10.416 190.104 10.416 182.292C10.416 171.042 14.8952 160.729 22.1869 153.229C29.791 145.417 40.416 140.625 52.0827 140.625C64.3744 140.625 75.5202 145.937 83.0202 154.479C89.6868 161.875 93.7494 171.667 93.7494 182.292Z" fill="#DBAB33"/>
<path d="M63.2279 193.124L41.1445 171.145" stroke="#0C4745" stroke-width="2" stroke-miterlimit="10" stroke-linecap="round" stroke-linejoin="round"/>
<path d="M63.0208 171.457L40.9375 193.435" stroke="#0C4745" stroke-width="2" stroke-miterlimit="10" stroke-linecap="round" stroke-linejoin="round"/>
<path d="M88.541 109.375H161.458" stroke="#DBAB33" stroke-width="2" stroke-miterlimit="10" stroke-linecap="round" stroke-linejoin="round"/>
</svg>
