<svg width="251" height="250" viewBox="0 0 251 250" fill="none" xmlns="http://www.w3.org/2000/svg">
<path d="M189.146 23.9687L26.2324 43.3281C14.45 44.7283 6.03347 55.4148 7.43359 67.1973L18.4961 160.291C19.8962 172.073 30.5828 180.49 42.3652 179.09L205.279 159.73C217.062 158.33 225.478 147.644 224.078 135.861L213.016 42.7676C211.615 30.9851 200.929 22.5686 189.146 23.9687Z" fill="#0C4745"/>
<path d="M223.156 62.5H59.0938C47.2283 62.5 37.6094 72.1189 37.6094 83.9844V177.734C37.6094 189.6 47.2283 199.219 59.0938 199.219H223.156C235.022 199.219 244.641 189.6 244.641 177.734V83.9844C244.641 72.1189 235.022 62.5 223.156 62.5Z" fill="#FFF1CE"/>
<path d="M197.766 89.8438H37.6094V121.094H197.766H244.641V89.8438H197.766Z" fill="#DBAB33"/>
<path d="M175.305 179.688C186.631 179.688 195.812 170.506 195.812 159.18C195.812 147.854 186.631 138.672 175.305 138.672C163.979 138.672 154.797 147.854 154.797 159.18C154.797 170.506 163.979 179.688 175.305 179.688Z" fill="#0C4745"/>
<path d="M204.602 179.688C215.928 179.688 225.109 170.506 225.109 159.18C225.109 147.854 215.928 138.672 204.602 138.672C193.275 138.672 184.094 147.854 184.094 159.18C184.094 170.506 193.275 179.688 204.602 179.688Z" fill="#DBAB33"/>
<path d="M204.602 138.672C201.872 138.669 199.169 139.214 196.653 140.273C194.137 141.333 191.859 142.885 189.953 144.84C193.709 148.668 195.813 153.817 195.813 159.18C195.813 164.543 193.709 169.691 189.953 173.52C192.318 175.938 195.245 177.733 198.473 178.746C201.7 179.759 205.128 179.958 208.451 179.325C211.774 178.693 214.888 177.248 217.518 175.119C220.147 172.991 222.209 170.245 223.519 167.127C224.83 164.008 225.349 160.614 225.03 157.247C224.712 153.879 223.565 150.643 221.692 147.826C219.819 145.009 217.279 142.699 214.297 141.102C211.315 139.505 207.984 138.67 204.602 138.672Z" fill="#DBAB33"/>
<path d="M223.156 60.5469H59.0938C52.8798 60.5536 46.9223 63.0251 42.5284 67.419C38.1344 71.8129 35.663 77.7704 35.6562 83.9844V177.734C35.663 183.948 38.1344 189.906 42.5284 194.3C46.9223 198.694 52.8798 201.165 59.0938 201.172H223.156C229.37 201.165 235.328 198.694 239.722 194.3C244.116 189.906 246.587 183.948 246.594 177.734V83.9844C246.587 77.7704 244.116 71.8129 239.722 67.419C235.328 63.0251 229.37 60.5536 223.156 60.5469ZM242.688 119.141H39.5625V91.7969H242.688V119.141ZM223.156 197.266H59.0938C53.9155 197.26 48.9509 195.2 45.2894 191.539C41.6278 187.877 39.5682 182.913 39.5625 177.734V123.047H242.688V177.734C242.682 182.913 240.622 187.877 236.961 191.539C233.299 195.2 228.335 197.26 223.156 197.266ZM242.688 87.8906H39.5625V83.9844C39.5682 78.8061 41.6278 73.8416 45.2894 70.18C48.9509 66.5184 53.9155 64.4588 59.0938 64.4531H223.156C228.335 64.4588 233.299 66.5184 236.961 70.18C240.622 73.8416 242.682 78.8061 242.688 83.9844V87.8906Z" fill="#0C4745"/>
<path d="M25.4341 45.7953L188.241 25.5414C190.786 25.2248 193.369 25.4126 195.842 26.0943C198.315 26.7759 200.629 27.9379 202.653 29.514C204.676 31.0901 206.37 33.0493 207.636 35.2799C208.903 37.5104 209.717 39.9686 210.034 42.5141L213.911 42.0336C213.531 38.9792 212.553 36.0295 211.034 33.3529C209.514 30.6763 207.482 28.3252 205.054 26.434C202.625 24.5427 199.848 23.1482 196.881 22.3302C193.914 21.5122 190.815 21.2866 187.76 21.6664L24.9517 41.9203C18.7863 42.694 13.1795 45.8818 9.36159 50.7843C5.54365 55.6868 3.82635 61.9036 4.58645 68.0707L16.1607 161.102C16.6514 165.062 18.1452 168.832 20.5005 172.053L23.6509 169.745C21.6875 167.061 20.4412 163.921 20.0298 160.621L8.4634 67.5785C7.82393 62.4381 9.25266 57.2543 12.4353 53.1673C15.6179 49.0803 20.2937 46.425 25.4341 45.7855V45.7953Z" fill="#002928"/>
<path d="M76.6719 142.578H111.828V146.484H76.6719V142.578Z" fill="#0C4745"/>
<path d="M76.6719 158.203H111.828V162.109H76.6719V158.203Z" fill="#0C4745"/>
<path d="M76.6719 173.828H111.828V177.734H76.6719V173.828Z" fill="#0C4745"/>
<path d="M175.305 136.719C170.862 136.719 166.52 138.036 162.826 140.504C159.132 142.972 156.254 146.48 154.554 150.584C152.853 154.688 152.409 159.205 153.275 163.562C154.142 167.919 156.281 171.921 159.422 175.062C162.564 178.203 166.566 180.342 170.923 181.209C175.28 182.076 179.796 181.631 183.9 179.931C188.004 178.231 191.512 175.352 193.98 171.658C196.448 167.965 197.766 163.622 197.766 159.18C197.759 153.225 195.39 147.516 191.18 143.305C186.969 139.094 181.26 136.725 175.305 136.719ZM175.305 177.734C171.635 177.734 168.048 176.646 164.996 174.607C161.945 172.569 159.567 169.671 158.162 166.28C156.758 162.89 156.391 159.159 157.107 155.56C157.822 151.961 159.59 148.654 162.185 146.06C164.779 143.465 168.086 141.697 171.685 140.982C175.284 140.266 179.015 140.633 182.405 142.037C185.796 143.442 188.694 145.82 190.732 148.871C192.771 151.923 193.859 155.51 193.859 159.18C193.854 164.099 191.897 168.815 188.419 172.294C184.94 175.772 180.224 177.729 175.305 177.734Z" fill="#0C4745"/>
<path d="M204.602 136.719C202.052 136.717 199.52 137.149 197.115 137.996L198.416 141.682C201.252 140.681 204.289 140.384 207.265 140.818C210.24 141.251 213.066 142.402 215.499 144.17C217.932 145.938 219.898 148.271 221.229 150.967C222.56 153.664 223.216 156.644 223.139 159.65C223.063 162.657 222.257 165.599 220.791 168.225C219.324 170.851 217.242 173.081 214.723 174.723C212.203 176.365 209.322 177.37 206.328 177.652C203.334 177.934 200.317 177.483 197.535 176.34L196.043 179.953C199.112 181.215 202.422 181.781 205.735 181.611C209.049 181.441 212.284 180.539 215.207 178.97C218.131 177.401 220.67 175.203 222.643 172.536C224.616 169.868 225.974 166.796 226.618 163.541C227.262 160.287 227.177 156.929 226.37 153.711C225.562 150.493 224.051 147.494 221.946 144.929C219.841 142.365 217.194 140.298 214.195 138.879C211.196 137.459 207.92 136.721 204.602 136.719Z" fill="#0C4745"/>
</svg>
