<svg width="250" height="250" viewBox="0 0 250 250" fill="none" xmlns="http://www.w3.org/2000/svg">
<mask id="path-1-inside-1_114_40398" fill="white">
<path fill-rule="evenodd" clip-rule="evenodd" d="M190.932 205.589V216.531C190.932 218.359 189.463 219.843 187.632 219.843C185.801 219.843 184.332 218.36 184.332 216.531V205.589C184.332 203.763 185.801 202.279 187.632 202.279C189.462 202.28 190.932 203.763 190.932 205.589ZM190.932 140.977V151.92C190.932 153.748 189.463 155.229 187.632 155.229C185.801 155.229 184.332 153.748 184.332 151.92V140.977C184.332 139.149 185.801 137.665 187.632 137.665C189.462 137.665 190.932 139.149 190.932 140.977ZM149.792 81.8448C148.925 80.2309 149.551 78.2268 151.165 77.3743L160.366 72.5138C161.979 71.6613 163.979 72.2803 164.846 73.8963C165.689 75.5103 165.062 77.5144 163.449 78.3718L154.272 83.2278C152.66 84.0688 150.667 83.4828 149.792 81.8448ZM189.173 48.1933L190.594 37.8893C190.835 36.0803 192.497 34.8088 194.304 35.0568C196.134 35.3023 197.387 36.9718 197.146 38.7853L195.749 49.0873C195.493 50.9103 193.789 52.1708 192.015 51.9173C190.209 51.6718 188.933 50.0023 189.173 48.1933ZM172 67.6623C171.012 66.1183 171.494 64.0688 173.035 63.0978L181.827 57.5553L185.343 63.1508L176.552 68.7008C175.047 69.6648 172.98 69.2228 172 67.6623ZM125.007 94.1218C124.381 92.4044 125.272 90.5063 126.982 89.8803L136.761 86.3298C138.471 85.7038 140.374 86.5899 141 88.3074C141.626 90.0294 140.735 91.9273 139.001 92.5538L129.246 96.1043C127.55 96.7143 125.63 95.8624 125.007 94.1218ZM97.982 99.0953C97.7655 97.2818 99.066 95.6343 100.872 95.4243L111.205 94.2178C113.012 94.0059 114.65 95.3044 114.866 97.1228C115.083 98.9363 113.782 100.584 111.976 100.796L101.257 102.022C99.596 102.022 98.175 100.781 97.982 99.0953ZM73.414 86.7173C74.498 85.2383 76.5695 84.9133 78.0385 85.9853L86.4445 92.1033C89.0405 93.9838 87.6785 98.0933 84.4935 98.0933C83.819 98.0933 83.1445 97.8863 82.5425 97.4573L74.1365 91.3393C72.667 90.2678 72.354 88.1938 73.414 86.7173ZM61.708 63.7558C63.418 63.0863 65.345 63.9148 66.0195 65.6153L69.8495 75.2763C70.7175 77.4658 69.049 79.8118 66.7665 79.8118C65.4415 79.8118 64.213 79.0193 63.6835 77.7188L59.854 68.0553C59.179 66.3573 59.998 64.4328 61.708 63.7558ZM57.1555 39.7128C58.962 39.3998 60.672 40.6088 60.985 42.4153L62.7435 52.6593C63.093 54.6838 61.5115 56.5348 59.492 56.5348C57.9025 56.5348 56.5055 55.3958 56.2405 53.7843L54.458 43.5403C54.1445 41.7383 55.349 40.0258 57.1555 39.7128ZM92.153 169.404V180.346C92.153 182.174 90.6595 183.656 88.829 183.656C87.0225 183.656 85.529 182.175 85.529 180.346V169.404C85.529 167.576 87.0225 166.092 88.829 166.092C90.66 166.092 92.153 167.576 92.153 169.404ZM92.153 117.29V128.228C92.153 130.061 90.6595 131.54 88.829 131.54C87.0225 131.54 85.529 130.061 85.529 128.228V117.29C85.529 115.462 87.0225 113.981 88.829 113.981C90.66 113.981 92.153 115.462 92.153 117.29ZM177.732 227.638H197.531V118.832C191.58 124.5 184.886 129.53 177.732 133.662V227.638ZM142.446 101.916C144.493 117.745 144.83 130.121 143.457 139.481C156.825 136.921 169.663 131.576 180.864 123.854C211.791 102.568 227.977 65.0853 222.413 28.0423C217.234 24.4268 211.791 22.5458 205.938 22.3868C207.576 28.0423 208.515 33.3653 208.78 38.2598C209.43 50.8038 205.504 61.1299 196.785 69.8204C189.318 77.2943 179.202 82.6873 169.447 87.9093L160.294 92.9023C153.643 96.6218 149.214 98.9543 142.446 101.916ZM131.944 151.857C125.481 159.503 113.809 155.348 104.798 158.341V112.666C114.144 111.844 124.549 109.147 136.111 104.565C139.122 129.129 137.701 145.033 131.944 151.857ZM117.468 211.7H60.1905C60.7205 198.775 63.37 189.126 72.884 185.855V194.131C72.884 195.964 74.353 197.443 76.184 197.443H101.499C103.305 197.443 104.799 195.964 104.799 194.131V185.855C114.288 189.126 116.962 198.775 117.468 211.7ZM117.516 224.328C117.492 225.463 117.444 226.561 117.444 227.638H60.2385L60.094 218.321H117.588C117.588 220.272 117.54 222.276 117.516 224.328ZM26.686 36.7333C24.494 72.6413 42.366 107.266 72.884 126.309V105.898C51.7125 92.4489 44.7725 62.2104 42.511 34.8933L26.686 36.7333ZM79.508 132.101V190.822H98.175V112.931C91.3345 112.858 85.12 111.664 79.508 109.337V132.101ZM120.238 57.9558C104.485 56.5758 89.817 47.4828 76.6175 30.9238L49.0865 34.1298C51.953 69.1903 61.5635 91.6943 77.629 101.037C93.3335 110.185 115.83 107.497 146.396 92.8143C149.792 91.1763 153.501 89.1168 157.066 87.1203L166.315 82.0718C185.368 71.8833 203.384 62.2608 202.156 38.6003C201.915 33.8503 200.927 28.5948 199.217 22.9393C193.22 24.0618 186.837 26.8463 180.044 31.3093C158.776 50.6118 138.664 59.5813 120.238 57.9558ZM228.723 25.6363C228.579 24.7933 228.145 24.0368 227.447 23.5263C212.682 12.3983 195.436 13.2053 176.191 25.9228C176.046 26.0168 175.902 26.1228 175.781 26.2358C155.886 44.3658 137.387 52.8128 120.816 51.3603C106.508 50.1028 93.02 41.3668 80.712 25.3973C79.9895 24.4798 78.8575 23.9978 77.7015 24.1303L23.1935 30.4728C21.652 30.6558 20.4235 31.9083 20.279 33.4718C18.5205 53.3743 22.447 73.2773 31.624 91.0263C40.801 108.771 54.795 123.476 72.041 133.539C72.33 133.703 72.595 133.862 72.884 134.02V178.951C64.213 181.114 58.408 187.078 55.614 196.703C52.5045 207.463 53.663 219.877 53.663 230.949C53.663 232.777 55.1325 234.259 56.963 234.259H120.72C122.55 234.259 124.02 232.777 124.02 230.949C124.02 219.877 125.178 207.463 122.069 196.703C119.275 187.078 113.47 181.115 104.799 178.951V165.666C112.615 160.165 134.773 170.535 141.94 146.474C152.033 144.821 161.908 141.676 171.109 137.188V230.95C171.109 232.778 172.578 234.259 174.409 234.259H200.856C202.662 234.259 204.156 232.778 204.156 230.95V111.929C211.43 103.612 217.355 94.1653 221.739 83.8753C229.566 65.4923 231.975 45.3488 228.723 25.6363Z"/>
</mask>
<path fill-rule="evenodd" clip-rule="evenodd" d="M190.932 205.589V216.531C190.932 218.359 189.463 219.843 187.632 219.843C185.801 219.843 184.332 218.36 184.332 216.531V205.589C184.332 203.763 185.801 202.279 187.632 202.279C189.462 202.28 190.932 203.763 190.932 205.589ZM190.932 140.977V151.92C190.932 153.748 189.463 155.229 187.632 155.229C185.801 155.229 184.332 153.748 184.332 151.92V140.977C184.332 139.149 185.801 137.665 187.632 137.665C189.462 137.665 190.932 139.149 190.932 140.977ZM149.792 81.8448C148.925 80.2309 149.551 78.2268 151.165 77.3743L160.366 72.5138C161.979 71.6613 163.979 72.2803 164.846 73.8963C165.689 75.5103 165.062 77.5144 163.449 78.3718L154.272 83.2278C152.66 84.0688 150.667 83.4828 149.792 81.8448ZM189.173 48.1933L190.594 37.8893C190.835 36.0803 192.497 34.8088 194.304 35.0568C196.134 35.3023 197.387 36.9718 197.146 38.7853L195.749 49.0873C195.493 50.9103 193.789 52.1708 192.015 51.9173C190.209 51.6718 188.933 50.0023 189.173 48.1933ZM172 67.6623C171.012 66.1183 171.494 64.0688 173.035 63.0978L181.827 57.5553L185.343 63.1508L176.552 68.7008C175.047 69.6648 172.98 69.2228 172 67.6623ZM125.007 94.1218C124.381 92.4044 125.272 90.5063 126.982 89.8803L136.761 86.3298C138.471 85.7038 140.374 86.5899 141 88.3074C141.626 90.0294 140.735 91.9273 139.001 92.5538L129.246 96.1043C127.55 96.7143 125.63 95.8624 125.007 94.1218ZM97.982 99.0953C97.7655 97.2818 99.066 95.6343 100.872 95.4243L111.205 94.2178C113.012 94.0059 114.65 95.3044 114.866 97.1228C115.083 98.9363 113.782 100.584 111.976 100.796L101.257 102.022C99.596 102.022 98.175 100.781 97.982 99.0953ZM73.414 86.7173C74.498 85.2383 76.5695 84.9133 78.0385 85.9853L86.4445 92.1033C89.0405 93.9838 87.6785 98.0933 84.4935 98.0933C83.819 98.0933 83.1445 97.8863 82.5425 97.4573L74.1365 91.3393C72.667 90.2678 72.354 88.1938 73.414 86.7173ZM61.708 63.7558C63.418 63.0863 65.345 63.9148 66.0195 65.6153L69.8495 75.2763C70.7175 77.4658 69.049 79.8118 66.7665 79.8118C65.4415 79.8118 64.213 79.0193 63.6835 77.7188L59.854 68.0553C59.179 66.3573 59.998 64.4328 61.708 63.7558ZM57.1555 39.7128C58.962 39.3998 60.672 40.6088 60.985 42.4153L62.7435 52.6593C63.093 54.6838 61.5115 56.5348 59.492 56.5348C57.9025 56.5348 56.5055 55.3958 56.2405 53.7843L54.458 43.5403C54.1445 41.7383 55.349 40.0258 57.1555 39.7128ZM92.153 169.404V180.346C92.153 182.174 90.6595 183.656 88.829 183.656C87.0225 183.656 85.529 182.175 85.529 180.346V169.404C85.529 167.576 87.0225 166.092 88.829 166.092C90.66 166.092 92.153 167.576 92.153 169.404ZM92.153 117.29V128.228C92.153 130.061 90.6595 131.54 88.829 131.54C87.0225 131.54 85.529 130.061 85.529 128.228V117.29C85.529 115.462 87.0225 113.981 88.829 113.981C90.66 113.981 92.153 115.462 92.153 117.29ZM177.732 227.638H197.531V118.832C191.58 124.5 184.886 129.53 177.732 133.662V227.638ZM142.446 101.916C144.493 117.745 144.83 130.121 143.457 139.481C156.825 136.921 169.663 131.576 180.864 123.854C211.791 102.568 227.977 65.0853 222.413 28.0423C217.234 24.4268 211.791 22.5458 205.938 22.3868C207.576 28.0423 208.515 33.3653 208.78 38.2598C209.43 50.8038 205.504 61.1299 196.785 69.8204C189.318 77.2943 179.202 82.6873 169.447 87.9093L160.294 92.9023C153.643 96.6218 149.214 98.9543 142.446 101.916ZM131.944 151.857C125.481 159.503 113.809 155.348 104.798 158.341V112.666C114.144 111.844 124.549 109.147 136.111 104.565C139.122 129.129 137.701 145.033 131.944 151.857ZM117.468 211.7H60.1905C60.7205 198.775 63.37 189.126 72.884 185.855V194.131C72.884 195.964 74.353 197.443 76.184 197.443H101.499C103.305 197.443 104.799 195.964 104.799 194.131V185.855C114.288 189.126 116.962 198.775 117.468 211.7ZM117.516 224.328C117.492 225.463 117.444 226.561 117.444 227.638H60.2385L60.094 218.321H117.588C117.588 220.272 117.54 222.276 117.516 224.328ZM26.686 36.7333C24.494 72.6413 42.366 107.266 72.884 126.309V105.898C51.7125 92.4489 44.7725 62.2104 42.511 34.8933L26.686 36.7333ZM79.508 132.101V190.822H98.175V112.931C91.3345 112.858 85.12 111.664 79.508 109.337V132.101ZM120.238 57.9558C104.485 56.5758 89.817 47.4828 76.6175 30.9238L49.0865 34.1298C51.953 69.1903 61.5635 91.6943 77.629 101.037C93.3335 110.185 115.83 107.497 146.396 92.8143C149.792 91.1763 153.501 89.1168 157.066 87.1203L166.315 82.0718C185.368 71.8833 203.384 62.2608 202.156 38.6003C201.915 33.8503 200.927 28.5948 199.217 22.9393C193.22 24.0618 186.837 26.8463 180.044 31.3093C158.776 50.6118 138.664 59.5813 120.238 57.9558ZM228.723 25.6363C228.579 24.7933 228.145 24.0368 227.447 23.5263C212.682 12.3983 195.436 13.2053 176.191 25.9228C176.046 26.0168 175.902 26.1228 175.781 26.2358C155.886 44.3658 137.387 52.8128 120.816 51.3603C106.508 50.1028 93.02 41.3668 80.712 25.3973C79.9895 24.4798 78.8575 23.9978 77.7015 24.1303L23.1935 30.4728C21.652 30.6558 20.4235 31.9083 20.279 33.4718C18.5205 53.3743 22.447 73.2773 31.624 91.0263C40.801 108.771 54.795 123.476 72.041 133.539C72.33 133.703 72.595 133.862 72.884 134.02V178.951C64.213 181.114 58.408 187.078 55.614 196.703C52.5045 207.463 53.663 219.877 53.663 230.949C53.663 232.777 55.1325 234.259 56.963 234.259H120.72C122.55 234.259 124.02 232.777 124.02 230.949C124.02 219.877 125.178 207.463 122.069 196.703C119.275 187.078 113.47 181.115 104.799 178.951V165.666C112.615 160.165 134.773 170.535 141.94 146.474C152.033 144.821 161.908 141.676 171.109 137.188V230.95C171.109 232.778 172.578 234.259 174.409 234.259H200.856C202.662 234.259 204.156 232.778 204.156 230.95V111.929C211.43 103.612 217.355 94.1653 221.739 83.8753C229.566 65.4923 231.975 45.3488 228.723 25.6363Z" fill="#DBAB33" stroke="#0C4745" stroke-width="4" mask="url(#path-1-inside-1_114_40398)"/>
</svg>
