<svg width="250" height="250" viewBox="0 0 250 250" fill="none" xmlns="http://www.w3.org/2000/svg">
<g clip-path="url(#clip0_97_35145)">
<path d="M233.933 30.2637C236.201 29.5475 238.67 30.8047 239.425 33.0762V33.0771C243.464 45.5788 246.138 60.7242 247.38 78.0342C247.536 80.4505 245.754 82.5077 243.386 82.6885H243.008C240.727 82.6885 238.835 80.9508 238.675 78.6504V78.6475L238.561 77.1025C237.337 61.1945 234.854 47.2954 231.122 35.7529L231.12 35.749L231.057 35.5342C230.459 33.3192 231.71 31.0034 233.933 30.2637Z" fill="#DBAB33" stroke="#0C4745" stroke-width="4"/>
<path d="M217.255 3.14746C219.051 1.52276 221.765 1.65399 223.405 3.41895C225.37 5.61155 227.261 8.03174 229 10.6406C230.328 12.6326 229.784 15.3328 227.808 16.6855C227.033 17.1795 226.203 17.414 225.391 17.4141C223.965 17.4141 222.573 16.7128 221.747 15.4609C220.282 13.2226 218.654 11.1482 216.985 9.31641C215.348 7.51738 215.478 4.78949 217.255 3.14746Z" fill="#DBAB33" stroke="#0C4745" stroke-width="4"/>
<path d="M211.542 149.767C212.155 147.486 214.53 146.078 216.91 146.696V146.697C219.226 147.309 220.6 149.68 219.98 152.025V152.026C219.247 154.806 218.435 157.589 217.584 160.297C216.995 162.172 215.286 163.35 213.438 163.35C212.97 163.35 212.512 163.29 212.119 163.167C209.806 162.439 208.531 160.001 209.252 157.706L209.251 157.705C210.083 155.09 210.834 152.442 211.542 149.767Z" fill="#DBAB33" stroke="#0C4745" stroke-width="4"/>
<path d="M194.695 108.208C197.246 108.173 199.16 109.965 199.292 112.335C199.407 114.809 199.484 117.271 199.484 119.725C199.484 122.136 197.528 124.092 195.117 124.092C192.693 124.092 190.762 122.128 190.789 119.786V119.764C190.789 117.454 190.71 115.113 190.591 112.787L190.59 112.777C190.458 110.39 192.278 108.356 194.695 108.208Z" fill="#DBAB33" stroke="#0C4745" stroke-width="4"/>
<path d="M164.796 38.5557C171.881 37.0297 179.061 38.4066 185.056 42.4004V42.4014C190.866 46.3104 194.828 52.1881 196.261 59.0654L196.392 59.7344C197.82 67.5705 198.866 76.706 199.409 86.1299C199.541 88.5403 197.739 90.5765 195.365 90.7334H195.078C192.772 90.7334 190.842 88.9374 190.707 86.6055H190.708C190.228 78.1209 189.333 69.8938 188.081 62.7021L187.826 61.2773C186.95 56.4641 184.268 52.3177 180.214 49.627H180.215C176.207 46.9403 171.398 46.0188 166.618 47.0273L166.609 47.0283L166.601 47.0303C162.291 47.9793 157.746 49.1655 153.123 50.5879L153.111 50.5908C150.825 51.3084 148.419 50.0456 147.689 47.7207L147.688 47.7139L147.626 47.5029C147.055 45.3212 148.306 43.0097 150.551 42.2998L150.552 42.3008C155.426 40.7922 160.209 39.5202 164.786 38.5586L164.796 38.5557Z" fill="#DBAB33" stroke="#0C4745" stroke-width="4"/>
<path d="M49.9048 42.4004C55.8995 38.4066 63.0795 37.0297 70.1646 38.5557V38.5566L70.1743 38.5586C74.7515 39.5202 79.5349 40.7922 84.4087 42.3008V42.2998C86.7272 43.0322 87.985 45.4717 87.2729 47.7139L87.271 47.7207C86.541 50.0456 84.1352 51.3085 81.8491 50.5908L81.8384 50.5879L80.1079 50.0654C76.0821 48.8726 72.1312 47.8607 68.3599 47.0303L68.3511 47.0283L68.3423 47.0273L67.894 46.9375C63.2631 46.0774 58.6283 47.0243 54.7456 49.627C50.6923 52.3177 48.0107 56.4644 47.1343 61.2773C45.7503 68.7906 44.7663 77.5388 44.2544 86.5801C44.0909 88.9512 42.1692 90.7334 39.8823 90.7334H39.5952C37.2219 90.5764 35.4194 88.5402 35.5513 86.1299C36.0942 76.706 37.1407 67.5705 38.5688 59.7344C39.8782 52.5695 43.9066 46.4355 49.9048 42.4004Z" fill="white" stroke="#0C4745" stroke-width="4"/>
<path d="M59.9062 125.367C61.2565 123.342 63.965 122.794 65.9609 124.125L66.5215 124.499C66.7795 124.683 67.0834 124.898 67.4971 125.149C69.4769 126.479 69.9928 129.198 68.6592 131.179C67.7915 132.453 66.4262 133.117 65.0391 133.117C64.212 133.117 63.3563 132.876 62.6074 132.368L61.9922 131.945L61.8779 131.867L61.7539 131.805L61.7402 131.798C61.7308 131.793 61.7175 131.785 61.7002 131.774C61.6644 131.753 61.6202 131.725 61.5605 131.687C61.4715 131.629 61.2915 131.511 61.1328 131.411C59.1204 130.057 58.5791 127.358 59.9062 125.367Z" fill="#DBAB33" stroke="#0C4745" stroke-width="4"/>
<path d="M13.4785 199.829C15.5933 198.875 18.0744 199.763 19.1338 201.829L19.2314 202.032C26.6861 218.728 34.7329 231.815 42.5723 239.777L43.3301 240.532C45.0555 242.238 45.083 244.99 43.418 246.682L43.4131 246.687L43.4082 246.692C42.5637 247.563 41.4156 247.999 40.2734 247.999C39.1945 247.999 38.0826 247.577 37.1963 246.75C28.6377 238.404 20.1717 225.197 12.0273 207.333L11.2393 205.589C10.2439 203.353 11.2411 200.8 13.4521 199.841L13.4658 199.836L13.4785 199.829Z" fill="#DBAB33" stroke="#0C4745" stroke-width="4"/>
<path d="M5.04004 177.096C7.36021 176.383 9.77392 177.624 10.5205 179.917L10.5664 180.059L10.5781 180.081C10.5972 180.137 10.6242 180.214 10.6592 180.317C10.7371 180.548 10.8508 180.886 10.999 181.318C11.2957 182.184 11.7296 183.428 12.3018 184.986C13.103 187.189 12.0267 189.596 9.90625 190.502L9.69824 190.585C9.18436 190.774 8.71615 190.853 8.20312 190.853C6.43239 190.853 4.74528 189.745 4.10645 187.989L4.10352 187.982L3.28516 185.717C3.04966 185.052 2.85227 184.481 2.69336 184.017C2.53454 183.552 2.41475 183.193 2.33496 182.952C2.29507 182.832 2.26477 182.74 2.24512 182.68C2.23531 182.65 2.22834 182.627 2.22363 182.612C2.22267 182.609 2.22145 182.607 2.2207 182.604C1.51655 180.362 2.68054 178 4.8291 177.171L5.04004 177.096Z" fill="#DBAB33" stroke="#0C4745" stroke-width="4"/>
<path d="M102.969 239.266H110.586C112.997 239.266 114.953 241.222 114.953 243.633C114.953 246.044 112.997 248 110.586 248H102.969C100.558 248 98.6016 246.044 98.6016 243.633C98.6016 241.222 100.558 239.266 102.969 239.266Z" fill="#DBAB33" stroke="#0C4745" stroke-width="4"/>
<path d="M188.242 9.5C195.444 9.5 201.797 12.3908 207.155 18.2617L207.157 18.2637C213.07 24.7329 217.248 34.3297 220.134 45.3135C223.012 56.2633 224.557 68.4002 225.329 79.7744C226.1 91.1401 226.095 101.693 225.892 109.455C225.791 113.334 225.641 116.513 225.513 118.743C225.449 119.858 225.391 120.735 225.348 121.344C225.327 121.648 225.308 121.885 225.295 122.051C225.282 122.22 225.275 122.296 225.275 122.301L225.274 122.311V122.321C225.061 124.684 222.921 126.465 220.531 126.25C218.163 126.037 216.387 123.931 216.601 121.508C217.628 110.111 217.881 90.4863 215.821 71.4404C214.79 61.9146 213.176 52.478 210.766 44.2617C208.443 36.3403 205.33 29.3717 201.142 24.5762L200.733 24.1191C197.175 20.2188 193.069 18.1953 188.242 18.1953C175.222 18.1953 160.801 20.663 145.268 25.4727H145.267C127.371 31.0172 108.487 31.0172 90.5913 25.4727H90.5923C75.0971 20.6625 60.6359 18.1953 47.6558 18.1953C42.8278 18.1954 38.722 20.219 35.1636 24.1201C30.7792 28.9241 27.5442 36.0855 25.147 44.2617C22.7382 52.4774 21.1194 61.9131 20.0815 71.4385C18.0064 90.4839 18.2309 110.107 19.2183 121.501L19.2192 121.509C22.9355 162.584 42.1888 196.69 58.9604 226.45C60.8811 229.86 62.7858 233.203 64.6167 236.515L64.6226 236.524L64.6284 236.535C66.1977 239.297 68.8692 239.274 69.6948 239.223L69.7563 239.219L69.8179 239.211C70.7225 239.098 73.2654 238.527 74.2095 235.569L74.2124 235.562L74.2144 235.555C77.389 225.349 81.9217 211.774 87.1958 198.749C92.4877 185.68 98.4599 173.333 104.478 165.474L105.67 163.917L104.138 162.694L83.4351 146.171H83.4341C81.58 144.693 81.2449 141.985 82.6772 140.128C84.1336 138.24 86.7834 137.846 88.7114 139.238C98.3204 146.275 106.952 153.115 114.367 159.685V159.686L115.036 160.281C131.521 174.984 141.284 187.6 147.619 198.829C153.957 210.063 156.912 219.987 159.723 229.475L159.729 229.494C160.039 230.503 160.34 231.503 160.643 232.51C160.945 233.512 161.248 234.521 161.562 235.54V235.541C162.182 237.587 163.627 238.539 164.797 238.929L165.105 239.031H168.12L168.477 238.889C169.42 238.511 170.426 237.806 171.15 236.539L171.16 236.523C172.994 233.246 174.866 229.929 176.782 226.528L176.783 226.527C183.845 213.964 191.228 200.925 197.751 186.857V186.856C198.77 184.658 201.365 183.727 203.525 184.74L203.534 184.744C205.732 185.763 206.663 188.357 205.65 190.518L205.645 190.528C199.004 204.897 191.583 218.031 184.389 230.816L184.375 230.842C183.404 232.629 182.444 234.318 181.455 236.099L179.804 239.07H243.632C246.043 239.07 247.96 240.987 247.96 243.398C247.96 245.809 246.004 247.766 243.593 247.766H168.991L168.805 247.801C168.109 247.933 167.414 248 166.679 248C166.076 248 165.659 247.997 165.225 247.939L165.093 247.922H165.028C165.025 247.921 165.021 247.921 165.017 247.92C164.97 247.91 164.947 247.905 164.861 247.886C164.793 247.871 164.695 247.85 164.586 247.832L164.423 247.805H131.953C129.542 247.805 127.585 245.848 127.585 243.438C127.585 241.027 129.542 239.07 131.953 239.07H153.588L152.766 236.468C152.296 234.979 151.836 233.524 151.417 232.035L151.414 232.022L151.41 232.01L150.441 228.758C148.147 221.13 145.532 213.195 140.821 204.506C135.431 194.564 127.341 183.706 113.95 171.084L112.316 169.544L110.974 171.344C102.742 182.387 92.2699 207.022 82.5435 238.193L82.5425 238.196C80.866 243.602 76.3422 247.312 70.6929 247.894L70.6694 247.896C65.0521 248.542 59.8441 245.803 57.061 240.787C55.2209 237.459 53.3418 234.131 51.4302 230.737L51.4292 230.736C33.9875 199.803 14.4869 165.116 10.6245 122.281C10.5258 120.894 9.08807 101.894 10.5845 79.7686C11.3536 68.3966 12.8945 56.2607 15.769 45.3115C18.6525 34.3284 22.8289 24.7326 28.7417 18.2637L28.7427 18.2617C34.1001 12.3906 40.4533 9.50008 47.6558 9.5C61.4359 9.5 76.7411 12.0724 93.1948 17.1826V17.1836C109.402 22.2257 126.496 22.2247 142.703 17.1826C159.156 12.0723 174.462 9.50004 188.242 9.5Z" fill="#DBAB33" stroke="#0C4745" stroke-width="4"/>
<path d="M43.3594 107.508C46.1165 107.508 48.3516 109.743 48.3516 112.5C48.3516 115.257 46.1165 117.492 43.3594 117.492C40.6023 117.492 38.3672 115.257 38.3672 112.5C38.3672 109.743 40.6023 107.508 43.3594 107.508Z" fill="white" stroke="#0C4745" stroke-width="4"/>
</g>
<defs>
<clipPath id="clip0_97_35145">
<rect width="250" height="250" fill="white"/>
</clipPath>
</defs>
</svg>
