<svg width="377" height="263" viewBox="0 0 377 263" fill="none" xmlns="http://www.w3.org/2000/svg">
<path d="M130.412 35.2223C133.422 38.2385 134.567 39.5765 135.483 41.1514C135.783 41.6684 136.073 41.9614 136.281 41.9614C137.07 41.9614 136.785 41.0306 135.385 39.0313C129.087 31.4343 122.975 28.1077 122.562 27.8225C121.648 27.1931 121.269 27.1644 121.269 27.7247C121.269 28.2204 126.972 31.7752 130.412 35.2223Z" fill="#DBAB33" fill-opacity="0.76"/>
<path d="M39.4005 30.7595C39.497 30.3523 39.5406 30.3805 40.198 31.2766C41.0578 32.4486 43.5598 36.321 43.9511 37.0851C44.1629 37.4988 44.3599 37.6538 44.6732 37.6538C45.5643 37.6538 45.2516 36.9471 42.6217 33.0173C40.384 29.6735 39.6126 28.9107 38.9166 29.3524C38.5665 29.5746 38.3432 30.5698 38.5548 30.9664C38.7922 31.4117 39.274 31.294 39.4005 30.7595Z" fill="#DBAB33" fill-opacity="0.76"/>
<path d="M129.071 55.527C129.416 55.8805 129.639 55.7167 130.129 54.7515C131.185 52.6734 133.971 49.2878 138.131 45.0304C138.625 44.5251 139.036 44.0973 139.375 43.7331C139.809 43.2664 139.197 42.6015 138.787 42.8545C138.702 42.9075 137.425 44.1969 137.385 44.2376C133.42 48.2535 130.085 52.4133 129.163 54.4929C128.857 55.1822 128.846 55.2972 129.071 55.527Z" fill="#DBAB33" fill-opacity="0.76"/>
<path d="M109.419 57.5262C110.487 56.351 113.547 53.0312 113.761 52.7346C113.964 52.4554 113.772 51.959 113.461 51.959C113.328 51.959 112.457 52.7518 111.512 53.7342C108.794 56.561 108.073 57.4631 108.279 57.7847C108.576 58.2512 108.809 58.1985 109.419 57.5262Z" fill="#DBAB33" fill-opacity="0.76"/>
<path d="M42.3911 55.1123C42.2849 54.6813 41.9706 54.518 41.6398 54.722C41.4382 54.8464 41.4624 55.2844 41.7877 57.3873C42.2954 60.6688 42.7214 62.0926 44.3158 65.8327C45.8145 69.3487 47.176 72.734 47.5042 73.7613C47.7851 74.6402 47.981 74.8815 48.4138 74.8815C48.7175 74.8815 48.7488 74.7954 48.6768 74.1576C48.5855 73.3473 46.9383 69.073 45.2698 65.3157C43.846 62.1098 43.3029 60.3996 42.8552 57.7147C42.6512 56.4912 42.4425 55.321 42.3911 55.1123Z" fill="#DBAB33" fill-opacity="0.76"/>
<path d="M105.499 70.9964C109.019 71.6183 109.721 71.9272 110.325 72.0735C109.411 72.5888 108.86 72.6336 108.86 73.2973C108.86 74.0068 109.163 73.8276 109.239 74.7107C109.284 75.2314 109.403 75.3694 110.109 75.7189C111.295 76.3054 114.375 76.5777 114.375 76.8135C114.375 76.8988 114.292 77.1237 114.19 77.3134C113.667 78.2872 115.947 78.4938 116.069 79.3127C116.234 80.4135 118.255 79.9182 119.158 80.8208C119.539 81.2014 119.744 81.2603 120.692 81.2603C121.674 81.2603 121.786 81.2955 121.786 81.6052C121.786 82.5848 123.993 82.5532 126.069 83.0186C126.828 83.1887 127.017 83.1827 127.135 82.9842C127.354 82.6171 127.026 82.1708 126.388 81.9686C125.915 81.8186 123.458 81.433 122.976 81.433C122.894 81.433 122.82 81.2778 122.82 81.1056C122.82 80.5675 122.165 80.2265 121.131 80.2265C120.39 80.2265 120.097 80.1404 119.692 79.8042C118.59 78.8885 117.445 79.5472 117.008 78.5546C116.887 78.2794 116.521 77.9269 116.193 77.7704C115.659 77.515 115.608 77.4284 115.689 76.9171C115.827 76.0513 115.391 75.781 113.22 75.3863C109.048 74.628 110.759 74.6554 110.246 73.7027C110.088 73.4087 110.134 73.3424 110.617 73.1736C111.306 72.9323 111.789 72.5008 111.789 72.1257C111.789 71.3517 110.427 70.8514 106.377 70.1371C103.533 69.6355 102.862 69.6052 102.714 69.9712C102.651 70.1264 102.67 70.3111 102.757 70.3935C102.844 70.4742 104.068 70.7436 105.499 70.9964Z" fill="#DBAB33" fill-opacity="0.76"/>
<path d="M27.0585 76.2415C30.3048 75.0611 31.5653 73.6404 34.3063 68.0732C35.6693 65.3048 36.2951 63.6092 37.774 58.6798C38.9996 54.5948 39.1668 53.6421 38.6756 53.5459C38.5203 53.5153 38.3651 53.5521 38.3205 53.6296C38.1833 53.8683 37.0331 57.456 36.2925 59.9552C35.1588 63.7816 33.4832 67.6459 31.4643 71.0896C29.4721 74.4882 27.455 75.5293 21.1295 76.4239C19.7505 76.619 18.4063 76.8394 18.1305 76.9159C17.5102 77.0878 17.1825 77.5529 17.4755 77.8459C17.8548 78.2254 24.8007 77.0625 27.0585 76.2415Z" fill="#DBAB33" fill-opacity="0.76"/>
<path d="M28.8815 61.6884C29.4849 61.6107 30.3277 61.1962 30.5432 60.5829C30.6974 60.1443 30.5009 59.6779 30.5192 59.2308C30.5335 58.8757 30.7365 58.8541 31.0829 58.7933C31.7513 58.6762 31.858 58.0545 31.1755 57.8959C29.6956 57.7827 28.2804 57.9345 27.7018 58.1531C25.5243 58.9759 27.376 61.8828 28.8815 61.6884Z" fill="#DBAB33" fill-opacity="0.76"/>
<path d="M17.8047 80.1221C17.4708 78.6915 17.3492 78.4074 17.0531 78.3641C16.8635 78.3365 16.6524 78.4322 16.5974 78.571C16.4743 78.8817 16.8663 80.8116 17.3432 82.2422C18.4629 85.6012 22.8653 89.3606 23.5595 89.3606C24.3677 89.3606 24.0076 88.8091 21.6807 86.4821C18.9596 83.7607 18.4647 82.9489 17.8047 80.1221Z" fill="#DBAB33" fill-opacity="0.76"/>
<path d="M12.1323 88.5812C11.4945 88.0456 11.2402 88.0459 10.7017 88.582C10.0349 89.2459 10.1847 90.7232 10.8914 90.4526C11.2386 90.3196 11.0492 89.7488 11.2876 89.3779C11.7058 88.7275 12.6606 92.4256 12.7198 93.2387C12.7639 93.8421 12.8239 93.9282 13.2009 93.9282C13.6083 93.9282 13.6316 93.8766 13.6276 92.9802C13.6222 91.601 12.7803 89.1251 12.1323 88.5812Z" fill="#DBAB33" fill-opacity="0.76"/>
<path d="M108.07 93.0655C110.8 90.101 114.975 84.4678 114.864 83.8962C114.763 83.3729 114.26 83.448 113.827 84.0512C112.033 86.5503 109.193 90.2554 108.396 91.1351C107.862 91.7249 105.564 94.134 103.267 96.5126C100.969 98.8912 99.0486 100.914 98.98 101.028C98.7984 101.331 99.035 101.769 99.3799 101.769C99.6872 101.77 104.402 97.0472 108.07 93.0655Z" fill="#DBAB33" fill-opacity="0.76"/>
<path d="M90.533 20.2075C90.1477 20.5623 90.6262 20.6688 90.9702 20.7856C90.9642 20.9703 91.0193 21.1519 91.1046 21.3366C91.5611 22.3261 93.3953 21.4258 92.789 20.5305C92.4061 19.9644 90.819 19.9996 90.533 20.2075Z" fill="#DBAB33" fill-opacity="0.76"/>
<path d="M0.600853 223.448C0.968679 223.643 4.30782 223.972 5.92782 223.972C8.66695 223.972 12.6582 223.122 14.873 222.063C17.6982 220.714 18.9974 218.71 18.1235 217.043C17.9174 216.647 17.9122 216.561 18.1052 216.561C18.4574 216.561 18.9322 215.729 17.9878 214.492C16.9339 213.112 16.9183 213.052 17.3904 212.027C17.6148 211.539 18.1861 210.699 18.6478 210.183C20.6226 207.968 20.0122 208.004 21.5096 207.905C23.6513 207.764 25.1487 206.736 27.473 203.807C30.8539 199.539 34.4356 195.639 40.8478 189.237C43.8974 186.19 44.2287 185.914 45.3452 185.457C48.3609 184.223 49.7565 183.574 51.1026 182.776C52.5165 181.938 52.8426 181.86 52.8426 182.363C52.8426 182.713 53.5652 183.623 54.1417 184.915C54.627 186.005 56.2104 188.517 58.4409 191.742C59.68 193.534 60.7287 194.802 62.1504 196.221C63.9452 198.016 65.1322 198.994 70.2504 202.881C73.5556 205.39 81.1835 208.445 81.3452 208.028C81.3948 207.895 81.5252 206.995 81.6348 206.011C82.2191 200.783 80.7374 189.047 76.3 192.336C75.8696 192.655 75.6609 192.715 75.4391 192.576C74.9148 192.253 72.3322 193.463 71.0278 193.463C69.7 193.463 68.393 192.803 67.9235 191.896C67.6939 191.452 67.6939 191.327 67.9235 190.776C68.08 190.406 68.1843 189.621 68.1843 188.828C68.1843 187.153 67.9417 186.691 65.7635 184.208C63.4652 181.589 60.7704 178.046 60.7704 177.642C60.7704 177.185 60.9452 177.073 62.7713 176.35C70.3939 173.332 73.7356 171.297 85.4696 167.499C91.4696 165.556 91.2609 165.595 92.4504 166.166C93.3322 166.589 93.5357 166.617 94.7957 166.516C96.4391 166.383 98.3565 165.939 99.5409 165.436C99.8696 165.783 101.19 165.404 101.758 165.313C104.216 164.919 107.015 164.851 113.977 165.016C131.218 165.428 137.122 167.836 149.537 167.836C168.157 167.836 193.25 161.577 198.658 161.577C198.919 161.577 198.945 161.663 198.817 162.13C197.461 167.118 197.495 182.937 191.03 198.981C189.83 201.963 187.48 206.81 186.63 208.064C184.978 210.496 184.37 210.957 168.444 221.896C161.555 226.628 155.437 230.893 155.07 231.112C152.774 232.474 148.986 233.935 147.165 234.188C144.919 234.501 143.808 235.38 142.159 236.966C141.611 237.493 136.772 242.267 136.913 243C136.96 243.24 138.225 243.827 138.877 244.025C140.837 244.617 144.666 245.41 147.64 245.789C151.295 246.253 153.152 245.932 153.927 244.706C154.123 244.396 154.373 244.19 154.501 244.231C155.012 244.409 155.396 243.931 155.813 242.603C156.045 241.863 156.296 240.827 156.361 240.329C156.51 239.191 156.802 238.589 157.397 238.197C159.87 236.739 162.583 236.914 163.376 236.867C165.058 236.768 166.754 236.147 168.979 234.811C175.149 231.102 190.389 220.349 194.573 216.751C196.856 214.79 195.966 215.473 198.65 214.346C206.041 211.242 208.475 211.124 208.488 205.719C208.496 203.426 208.77 200.103 209.077 198.618C209.388 197.121 211.263 190.792 211.934 188.984C213.009 186.073 213.914 184.503 216.301 181.398C217.71 179.567 223.986 173.014 224.667 172.745C228.609 177.381 231.277 180.167 235.018 184.589C249.363 201.543 258.105 201.235 260.038 213.89C260.349 215.922 260.351 222.383 260.041 224.144C259.425 227.65 257.019 238.269 256.53 241.372C256.46 241.815 256.064 242.925 255.871 243.198C255.294 244.018 254.311 245.682 252.984 246.926C251.753 248.082 248.281 250.576 246.677 251.457C245.529 252.089 245.445 252.188 242.576 256.427C239.544 260.909 239.43 261.099 239.696 261.522C240.567 262.907 252.755 262.75 254.503 262.432C257.983 261.796 259.467 260.34 258.953 258.065C258.833 257.53 258.851 257.29 259.034 257.082C259.449 256.604 259.493 256.27 259.209 255.754C258.888 255.167 258.473 253.411 258.465 252.6C258.457 251.877 259.128 250.685 259.793 250.247C260.062 250.07 260.758 249.876 261.361 249.811C262.67 249.668 264.783 248.684 265.433 247.912C266.083 247.14 266.479 245.567 267.173 241.036C269.383 226.57 269.891 226.103 271.582 220.179C271.869 219.18 272.474 217.56 272.936 216.561C274.11 214.023 274.143 213.89 274.741 209.39C275.15 206.293 275.456 207.3 276.056 204.451C276.421 202.722 275.633 201.321 275.625 201.29C274.916 199.842 274.754 199.643 273.512 198.712C272.771 198.156 271.819 197.52 271.394 197.293C268.603 195.806 264.063 191.035 262.086 187.5C260.103 183.957 254.477 179.087 257.208 171.057C257.709 169.583 259.908 165.026 262.323 160.458C264.948 155.494 266.43 151.328 266.902 147.6C267.317 144.329 266.97 137.189 266.221 133.484C265.399 129.433 264.118 126.261 262.07 123.211C261.4 122.212 260.891 121.338 260.949 121.281C261.173 121.056 264.533 120.736 266.756 120.725C272.064 120.704 276.512 122.366 281.821 126.352C292.989 134.739 297.483 146.721 309.742 152.77C311.93 153.85 312.896 154.169 317.153 155.223C325.892 157.383 332.177 159.553 336.491 161.898C342.251 165.029 346.456 169.286 353.419 170.71C356.291 171.297 362.839 171.464 366.311 171.133C368.046 170.966 369.797 170.789 371.492 170.371C371.962 170.256 373.876 169.92 373.443 169.119C373.143 168.566 372.23 168.308 371.659 168.115C370.35 167.671 368.182 167.05 368.017 166.904C367.809 166.722 368.74 166.362 371.792 165.441C375.601 164.29 376.511 163.636 376 162.404C375.572 161.371 374.135 160.625 370.274 159.428C367.569 158.585 366.88 158.324 366.88 158.131C366.88 158.063 367.483 157.795 368.223 157.529C370.704 156.642 371.32 156.115 371.163 155.011C370.856 152.843 353.607 151.876 367.052 148.124C372.585 146.583 373.005 146.395 372.88 145.531C372.742 144.597 371.033 144.029 366.914 143.543C358.329 142.536 343.099 145.336 340.389 144.19C339.306 143.734 339.697 143.157 341.75 142.187C342.473 141.845 343.19 141.42 343.352 141.24C343.759 140.786 343.558 140.108 342.922 139.776C342.361 139.484 339.061 138.652 337.096 138.308C336.39 138.183 335.904 138.018 335.993 137.93C336.272 137.65 340.18 136.766 343.472 136.236C349.746 135.227 351.207 134.828 352.642 133.737C353.25 133.273 353.774 132.417 353.25 131.69C352.952 131.275 352.271 131.178 351.802 131.233C344.526 132.091 333.543 134.34 319.532 130.818C312.123 128.956 309.776 127.99 298.196 122.016C286.728 116.103 280.063 115.304 268.29 114.443C255.23 113.489 254.784 112.122 251.831 111.629C251.537 111.579 250.642 111.008 249.763 110.306C232.331 96.4095 218.26 95.4469 201.243 96.0938C195.583 96.3104 184.78 98.2408 184.754 98.2539C184.642 97.4321 184.389 94.9069 183.77 94.5965C183.653 94.5391 181.522 94.826 180.823 94.8599C180.517 93.3625 180.155 91.9278 179.85 91.4295C179.563 90.9625 179.547 90.8452 179.75 90.6756C180.559 90.0026 181.023 87.8269 180.838 85.586C180.671 83.5852 180.019 82.6512 178.785 82.646C178.133 82.6434 176.39 83.5486 175.511 84.3495C172.412 87.1747 166.323 89.2695 162.186 88.9382C156.178 88.4551 151.514 84.8663 149.717 84.1468C152.895 78.4758 156.728 71.4774 157.457 69.6417C158.096 68.0399 158.497 66.253 158.497 65.0399C158.497 63.7695 157.879 60.9052 157.18 58.9382C155.847 55.1921 156.444 56.6243 158.904 54.4825C159.525 53.9425 159.554 53.8799 159.35 53.4939C157.488 49.9538 146.912 43.7634 143.383 42.266C142.746 41.9973 141.945 40.693 133.65 32.8408C132.152 31.4243 128.171 28.1504 127.07 27.326C122.745 24.0991 116.043 20.7391 111.301 21.0547C109.423 21.2295 109.089 21.4591 108.603 21.1043C108.888 20.2826 109.472 18.5269 109.694 17.3973C110.37 16.8991 110.547 16.2808 110.74 14.5225C111.486 7.73993 106.501 1.28341 99.6113 0.453843C96.6035 0.091234 93.7678 0.461665 91.0861 1.91732C88.8843 3.1121 87.04 4.91471 85.8217 7.10602C85.373 7.9121 85.0078 8.76514 84.7313 9.64427C84.3303 10.9215 84.0593 12.6258 84.1929 13.7775C83.6956 13.4347 81.6087 12.1304 81.4287 11.9971C81.1892 11.7894 80.8143 11.839 80.6406 12.1204C80.5044 12.3411 80.5683 12.6325 80.7645 12.8024C82.0169 13.8865 86.285 18.5744 86.5287 18.8217C86.6643 18.9834 87.4261 19.0747 88.2478 19.1269C89.0617 22.9565 88.9939 22.3043 88.5217 23.6399C88.4461 23.8512 88.4174 24.0782 88.4591 24.2973C88.5609 24.8504 88.9809 25.2495 89.4948 25.3408C89.6695 25.3721 89.8182 25.4765 89.8835 25.6382C90.2461 26.5382 91.3522 28.7608 93.7287 29.7495C95.5052 30.4904 97.4226 30.3286 99.2461 29.7469C99.2578 29.762 99.25 29.7521 99.262 29.7675C99.1485 30.0393 100.355 29.8802 100.415 29.6921C100.498 29.4286 100.616 29.3791 100.905 29.3791C101.879 29.3791 103.937 32.6165 104.918 32.9843C104.944 33.8112 105.014 34.5939 105.134 35.2408C105.411 36.7121 106.18 39.3417 106.851 41.0999C107.821 43.6512 113.542 51.9599 114.617 51.9599C114.961 51.9599 115.05 52.0695 115.152 52.6382C115.217 53.0191 115.188 53.4704 115.081 53.6556C114.812 54.1356 112.347 55.6669 109.843 57.673C108.912 58.4191 108.048 59.0243 107.92 59.0243C107.385 59.0243 107.965 57.7643 106.016 58.6512C104.826 59.1939 103.392 61.1843 103.559 62.0582C103.647 62.5252 103.621 62.5408 103.154 62.2982C102.906 62.1678 102.742 62.2147 102.465 62.4886C102.082 62.8721 102.103 62.8747 99.9846 62.3034C98.589 61.9304 98.709 61.8469 100.827 61.706C102.327 61.6043 102.711 61.4452 102.541 60.9912C102.413 60.6391 102.155 60.613 100.243 60.7617C96.1055 61.0799 96.7055 61.8547 95.3046 62.3086C93.2098 62.9895 94.1046 63.4225 92.4689 61.8521L93.0715 61.9225C93.8985 62.0165 94.1124 61.5312 93.4681 61.0199C93.082 60.7121 93.0324 60.5765 93.1159 60.0417C93.1968 59.5017 93.1342 59.3347 92.615 58.7504C92.1115 58.1817 92.0437 58.0147 92.1742 57.6625C92.5342 56.6973 91.8663 56.1652 88.7985 54.9808C83.9255 53.1025 85.8585 52.8312 84.9872 52.1243C84.5855 51.7982 84.6768 51.6704 85.5559 51.3365C86.7637 50.8799 87.142 50.5904 87.142 50.1312C87.142 49.8912 86.9803 49.6147 86.7559 49.4686C85.8246 48.8686 77.8342 48.0573 77.8342 47.0634C77.8342 46.9304 77.602 46.6278 77.3098 46.3825L76.7829 45.9443C76.9159 45.8399 78.4889 45.2843 77.7142 44.5252C77.542 44.3556 76.3707 43.9512 75.0768 43.6173C66.6324 41.4312 64.5116 39.0104 58.4281 37.6382C55.2037 36.9104 48.7107 37.2678 48.1263 38.2043C47.075 39.8869 51.7889 37.0408 58.9785 38.8721C63.5072 40.0225 67.7568 42.9208 74.3542 44.5356C75.8359 44.8982 75.9376 44.9478 75.6924 45.2191C75.2098 45.7565 75.3533 46.4139 76.042 46.8156C77.0724 47.4156 76.7229 48.0104 77.9046 48.5243C78.5829 48.8217 82.6446 49.706 84.6429 49.993L85.4881 50.1156C84.7002 50.606 82.7255 51.1512 83.4272 52.2338C83.5733 52.4582 83.7742 52.6486 83.8681 52.6486C83.9646 52.6486 84.0402 52.8208 84.0402 53.0452C84.0402 53.8382 85.5063 54.8791 87.9194 55.7973C88.7803 56.126 89.8263 56.5565 90.2698 56.7678C91.0629 57.1434 91.0707 57.1539 90.9768 57.8373C90.7759 59.3112 91.8689 58.6512 91.9942 60.5347C92.0281 61.033 92.0307 61.4373 92.002 61.4373C91.895 61.4373 84.2672 54.5399 77.9229 50.2982C68.8211 44.2147 55.9029 39.6991 47.1037 39.5269C45.2437 39.4904 44.7768 39.6182 44.962 40.1165C45.0298 40.2965 45.5698 40.3904 47.0855 40.4791C55.1385 40.9538 65.409 44.2304 73.629 48.9469C77.3229 51.0652 79.8689 52.873 85.1594 57.1382C87.8333 59.2904 92.6594 63.446 92.6594 63.5921C92.6594 63.6312 92.3803 63.9547 92.0385 64.3173C90.8098 65.6165 90.0037 68.1078 90.3742 69.4695C90.4707 69.8321 90.6063 70.2704 90.6663 70.4191C90.815 70.7791 90.5202 70.7843 85.5063 72.6886C74.1663 76.9904 60.2829 81.086 59.6698 81.086C59.5159 81.086 58.8872 80.5539 58.2533 79.8808C56.2003 77.7078 53.4194 75.9025 51.7394 75.6495L50.9829 75.5373L51.2933 74.8121C52.1463 72.8191 52.3681 70.1086 51.8985 67.3669C50.9959 62.0947 47.5002 53.8147 47.5002 52.9591C47.5002 52.4765 47.1689 52.2417 46.7255 52.4086C46.2924 52.573 46.4255 53.6478 47.0933 55.406C50.2289 63.6626 51.4446 68.7573 50.9829 71.6947C50.5342 74.5539 49.655 76.1739 47.242 78.5869C45.3976 80.4312 44.0516 81.3443 42.622 81.7173C40.3368 82.3121 37.642 81.6652 35.2446 79.9434C33.7107 78.8426 33.1003 79.5886 34.6081 80.7234C36.0037 81.7747 37.5976 82.4739 39.1863 82.7791C38.2759 83.1391 36.9663 83.9034 35.6594 84.8269C34.0055 85.9956 33.1159 85.7765 29.7481 86.1208C29.7142 85.8417 29.8863 85.2208 29.3594 84.1799L28.9707 83.413C28.9863 83.3843 35.255 71.8721 39.7237 59.3713C40.6289 56.8356 41.8133 52.706 41.8133 52.0799C41.8133 51.8139 42.502 49.753 43.3394 47.5121C45.5698 41.5486 45.7029 40.9617 44.795 41.1286C44.3594 41.2095 44.3255 42.073 42.1655 47.7025L40.7437 51.4069L39.1576 50.8434C33.8463 48.9599 33.1263 48.133 32.1429 47.6165C32.1611 47.5904 34.8324 43.5286 36.6742 41.5643L37.6759 40.4973C38.3985 41.6921 39.0898 43.5991 39.7968 43.0199C40.3863 42.5347 38.0333 40.106 36.3976 33.5843C36.1003 32.3973 35.9855 30.6599 36.1942 30.4591C36.3689 30.2869 37.3342 31.3799 38.2863 32.8278C40.0785 35.5591 42.0194 40.646 42.7263 40.5495C42.9324 40.5208 43.1281 40.3669 43.1568 40.213C43.2011 39.9704 38.2316 28.1895 35.6933 29.3478C33.6272 30.2921 36.5855 37.4139 37.2716 39.5921C37.3316 39.7825 37.269 39.8947 37.1072 39.8947C36.3794 39.8947 31.9994 45.806 31.6603 46.4008C31.4959 46.6878 31.4724 46.6852 31.0916 46.3408C30.2072 45.5321 30.0768 46.6121 30.5359 47.2695C30.9011 47.7965 30.9376 47.0582 26.255 56.2669C20.7976 67.0043 17.5837 73.1973 16.8663 74.366C10.8168 84.1982 7.55591 87.146 8.88373 91.0669C9.72634 93.553 12.7498 98.6686 15.322 98.6686C15.5463 98.6686 15.8776 98.8252 16.0446 99.013C16.3968 99.4017 17.8029 99.8738 18.6142 99.8738C19.8168 99.8738 20.4898 99.5295 21.7368 98.2721C24.3924 95.5904 24.7576 93.8999 25.4646 92.0843C25.775 91.286 28.115 90.6599 32.6777 87.973L35.0046 86.6034C41.8655 85.7008 46.9785 85.4973 56.6698 83.0556C57.9976 82.7217 59.1037 82.4712 59.1272 82.4999C60.1968 83.7208 64.9055 92.6191 66.6376 96.686C69.502 103.419 70.2116 111.156 69.8646 112.67C69.7837 113.024 68.3463 112.988 68.0359 113.609C67.4489 114.788 67.5585 116.663 68.8655 116.517C68.8968 116.515 69.8907 116.403 69.8907 116.403C69.8698 116.648 68.4376 129.396 69.0298 134.431C70.0368 142.962 72.7733 147.378 72.5803 147.582C72.5203 147.65 60.4785 146.478 55.0681 146.922C52.0863 147.136 50.435 147.556 48.2255 148.664C46.1385 149.71 44.9568 150.879 43.9968 152.841C41.902 157.122 43.0837 159.104 44.9933 166.265C46.0655 170.296 46.2507 169.943 46.5168 170.609C46.2246 170.843 41.842 173.283 35.4455 180.882C34.3655 182.165 31.3889 185.45 28.8063 188.207C16.9081 200.909 22.1698 196.518 12.3403 206.478C9.42895 209.423 6.6559 212.262 6.15503 212.802C3.75764 215.39 0.00894868 221.71 0.22547 222.801C0.279992 223.075 0.449548 223.364 0.600853 223.448ZM153.233 243.741C153.142 244.002 152.81 244.356 152.484 244.547C151.188 245.303 145.71 244.722 140.229 243.245L138.494 242.778C138.371 242.744 138.327 242.596 138.41 242.504C143.604 236.872 143.696 236.898 144.442 236.898C146.484 236.898 154.227 240.905 153.233 243.741ZM160.91 234.762C160.699 235.398 160.72 235.388 160.154 235.176C159.309 234.858 158.873 235.409 159.457 236.053C159.703 236.324 159.671 236.356 159.066 236.465C157.655 236.721 156.197 237.605 155.711 238.503C155.615 238.68 155.471 239.277 155.396 239.812C155.205 241.163 154.639 242.796 154.483 243.363C154.284 242.791 154.433 241.617 152.62 239.906C151.177 238.542 147.622 236.601 145.691 236.121C145.123 235.98 145.078 235.727 145.605 235.63C150.82 234.673 153.593 233.003 155.949 231.777C156.123 231.686 157.84 230.499 158.43 230.103C159.204 229.581 160.391 228.652 160.994 231.107C161.174 231.918 161.124 234.115 160.91 234.762ZM27.593 89.533C25.9261 90.493 24.8174 90.5582 24.3843 91.7869C24.0583 92.5095 23.6513 94.8547 20.9669 97.6173C20.4974 98.0999 19.9104 98.5721 19.6652 98.6686C18.34 99.1773 16.9887 98.4886 16.9417 98.4782C16.9965 98.4234 20.0643 96.8999 22.433 91.9121C22.7695 91.2052 22.6756 90.7382 22.1983 90.7382C21.9609 90.7382 21.567 91.273 20.7687 92.6869C19.4304 95.0478 17.5078 97.1269 16.3391 97.4765C15.1835 97.8234 14.4609 97.513 13.2009 96.133C11.0409 93.7721 9.69738 91.1399 9.69217 89.2565C9.67912 86.1443 15.1574 80.0086 19.1539 72.4878C25.8139 59.9504 31.2243 48.5112 31.6078 48.5112C31.6548 48.5112 32.0565 48.7434 32.4869 49.0199C34.0313 50.0086 39.1182 52.1112 40.7748 52.5025C39.0869 58.7347 36.6869 64.393 33.8983 70.8312C32.4791 74.1078 28.8009 81.6469 28.2739 82.3617C28.0887 82.6147 27.9556 82.6278 27.3009 82.453C25.3 81.9182 23.5209 83.4495 23.4974 85.7243C23.4739 87.913 25.073 89.3999 27.1287 89.0999C27.8148 88.9982 28.0678 88.8443 28.8087 88.0669C29.6722 87.1591 29.6878 87.1538 30.9635 87.0417L32.247 86.9295C31.613 87.3025 31.6026 87.5269 27.593 89.533ZM27.2304 87.9156C25.3861 88.6878 23.7504 86.0686 25.0104 84.3625C25.5765 83.593 25.7487 83.4991 26.5939 83.4991C27.1104 83.4991 27.4443 83.6217 27.833 83.9504C29.1504 85.0565 28.8165 87.253 27.2304 87.9156ZM50.3435 83.3973C46.673 84.1095 37.7356 85.333 37.2974 85.1843C37.193 85.1504 40.5635 82.946 40.7722 82.9512C41.8104 82.9773 42.8148 82.826 43.7252 82.4791C45.5304 81.7982 47.6617 80.0191 50.0461 77.2095C50.5783 76.5834 50.6382 76.5573 51.3948 76.6434C52.2191 76.7373 53.8417 77.5043 54.9974 78.3469C55.7904 78.926 58.1852 81.2556 58.1852 81.4486C58.1852 81.5791 52.7226 82.9382 50.3435 83.3973ZM77.2313 193.036C77.8704 192.707 77.8704 192.707 78.3165 193.124C80.8287 195.467 80.8365 205.896 80.453 206.512C80.1269 207.039 73.467 203.671 72.6296 203.288C72.6765 203.116 73.2608 195.096 77.2313 193.036ZM63.9269 191.058C64.4774 191.056 65.1843 191.16 65.5026 191.293C65.8183 191.423 66.5695 192.052 67.1565 192.67C68.8496 194.457 70.4069 194.862 72.9217 194.163C73.5948 193.975 74.2783 193.769 74.4661 193.698C74.7817 193.576 74.7765 193.602 74.4139 194.118C72.833 196.367 71.8157 201.287 71.4557 202.325C70.5974 201.694 67.6287 199.578 65.8548 198.141C64.1982 196.8 60.3374 192.963 60.3374 192.657C60.3374 192.115 62.5469 191.071 63.9269 191.058ZM215.657 180.451C212.547 184.32 211.456 186.519 209.625 192.603C207.739 198.876 207.648 199.367 207.46 204.237C207.264 209.322 207.134 209.549 203.466 211.179C195.763 214.602 197.641 212.739 194.97 215.076C193.271 216.561 190.884 218.429 188.696 219.986L187.454 220.87V220.25C187.454 219.496 186.617 216.939 185.889 215.476C185.315 214.32 184.717 213.592 183.956 213.12L183.473 212.82L184.3 212.147C186.444 210.404 187.55 208.941 189.165 205.719C198.063 187.969 197.996 172.847 199.503 163.844C199.681 162.777 199.793 161.786 199.749 161.663C199.462 160.863 215.364 161.23 215.39 161.23C217.483 164.176 221.756 169.302 224.062 172.03C222.585 172.933 218.205 177.284 215.657 180.451ZM249.504 261.563C245.745 261.571 240.885 261.222 240.885 260.943C240.885 260.856 245.74 253.565 245.99 253.273C246.567 252.603 253.803 253.936 256.691 256.594C257.586 257.421 257.949 258.052 257.949 258.788C257.949 260.802 255.674 261.55 249.504 261.563ZM258.81 249.683C258.264 250.226 257.87 250.985 257.612 251.703C257.388 252.334 257.435 253.01 257.56 253.656C257.628 254.014 257.688 254.374 257.8 254.721C257.954 255.201 258.293 255.597 258.293 256.124C258.293 256.573 258.277 256.565 257.398 255.777C254.317 253.017 247.806 252.143 247.78 252.136C249.791 250.62 253.856 248.517 256.274 244.414C256.712 243.673 256.79 243.621 257.466 243.621C258.82 243.621 259.84 244.792 260.01 246.55C260.061 247.068 260.187 248.29 260.346 248.995C259.507 249.201 259.115 249.382 258.81 249.683ZM253.329 113.147C253.681 113.147 257.75 114.54 262.861 115.116C267.971 115.693 275.876 115.581 283.373 117.467C300.794 121.852 305.033 130.542 327.669 133.419C329.484 133.649 331.339 133.727 335.166 133.732C340.501 133.743 341.75 133.651 348.332 132.777C350.401 132.501 352.167 132.326 352.263 132.383C352.493 132.524 351.919 133.119 351.194 133.484C350.124 134.024 348.833 134.322 345.178 134.867C339.387 135.73 335.39 136.68 334.631 137.371C334.185 137.776 334.217 138.42 334.699 138.738C335.25 139.101 338.842 139.727 340.018 140.035C340.457 140.147 342.058 140.515 342.058 140.697C342.058 140.768 341.526 141.076 340.871 141.378C338.354 142.547 337.91 144.13 339.82 145.143C340.806 145.664 346.386 145.578 352.402 144.942C357.812 144.37 364.451 144.237 367.31 144.644C369.309 144.929 371.343 145.375 371.45 145.549C371.563 145.732 371.43 145.776 367.861 146.765C362.278 148.312 360.862 149.087 360.857 150.6C360.849 152.056 362.208 152.932 366.121 153.989C369.035 154.776 370.154 155.163 370.154 155.374C370.154 155.536 369.155 156.01 367.464 156.65C366.035 157.192 365.628 157.56 365.703 158.236C365.787 158.963 366.603 159.412 369.447 160.294C373.308 161.491 374.98 162.258 374.98 162.837C374.98 163.779 368.119 164.95 366.903 166.25C365.526 167.721 368.5 168.206 371.291 169.116C371.401 169.153 371.403 169.299 371.299 169.343C368.37 169.936 365.39 170.285 362.401 170.327C360.624 170.35 358.848 170.217 357.077 170.066C355.553 169.936 354.058 169.818 352.574 169.416C346.819 167.864 342.836 164.277 337.457 161.17C333.366 158.809 326.461 156.404 317.291 154.148C311.57 152.739 309.33 151.709 305.002 148.487C295.712 141.571 288.306 126.399 275.083 121.187C270.956 119.559 267.238 119.262 261.656 120.115L260.103 120.35C259.522 119.716 259.571 119.585 255.88 115.86C254.396 114.36 253.253 113.147 253.329 113.147ZM159.817 117.918C161.393 117.24 163.71 115.19 164.023 114.008C164.505 112.182 163.861 109.062 162.275 105.561C161.784 104.476 161.226 103.15 161.046 102.631C160.699 101.637 160.222 98.8225 160.222 97.7712V97.1504C160.702 97.2965 167.62 99.8686 172.339 100.401C176.148 100.829 179.513 99.8269 180.473 97.9773C180.917 97.1243 180.755 95.8278 181.224 95.773C182.351 95.6347 183.009 95.4286 183.293 95.7939C183.468 96.0156 184.712 107.147 184.751 111.819C184.772 114.339 186.11 120.991 174.76 121.229C170.651 121.315 166.477 120.717 162.431 121.706C161.622 121.904 161.077 122.043 160.705 122.128C160.464 122.183 160.328 122.438 160.413 122.67C160.415 122.675 160.417 122.679 160.418 122.684C160.53 122.99 160.869 123.153 161.177 123.043C161.697 122.857 162.313 122.711 162.46 122.671C168.17 121.09 176.899 123.276 182.111 120.644C184.219 119.58 185.823 117.281 185.81 114.884C185.685 106.651 185.964 107.574 184.869 99.1327C188.093 98.9605 205.423 94.8805 222.617 98.2405C238.796 101.4 254.654 113.647 261.679 124.641C262.725 126.279 263.983 128.95 263.983 129.537C263.983 129.631 264.17 130.158 264.403 130.708C265.882 134.209 266.518 144.6 265.537 149.22C264.739 152.976 263.709 155.512 260.503 161.614C256.117 169.954 255.483 171.681 255.476 175.281C255.468 178.821 256.115 180.608 259.034 185.105C261.079 188.259 263.993 192.313 264.89 193.257C269.93 198.548 272.816 198.91 273.963 200.624C274.976 202.134 275.187 204.135 274.631 205.755C274.399 206.434 274.112 207.073 273.969 207.78C273.377 210.712 273.611 212.814 272.012 216.008C271.476 217.081 271.225 217.737 270.929 218.671C267.87 216.13 262.037 216.652 261.447 216.663L261.173 214.424C260.398 208.132 258.15 204.279 252.658 199.831C245.281 193.86 240.259 189.055 235.282 183.209C233.578 181.21 231.403 178.719 230.422 177.642C228.298 175.315 224.278 170.627 221.758 167.541C217.196 161.956 217.587 162.475 213.092 156.115C211.316 153.597 209.187 151.304 208.775 151.461C208.263 151.656 208.454 152.097 209.573 153.305C210.59 154.403 211.858 156.117 214.764 160.333C202.454 159.159 189.663 161.679 177.752 163.808C164.897 166.103 154.031 166.748 151.655 166.748C151.464 166.748 151.31 166.753 151.188 166.761C151.018 166.623 146.959 163.964 142.003 162.326C138.695 161.233 137.959 160.852 136.558 159.524C135.491 158.512 134.583 156.889 134.216 155.34C133.835 153.728 133.673 150.391 133.863 148.135C134.651 138.858 135.092 138.728 135.906 134.588C136.595 131.074 136.652 130.881 138.687 125.003C139.302 123.231 140.243 120.24 140.826 118.312C140.96 118.355 143.364 118.757 143.922 118.845C144.245 121.672 144.233 122.823 143.933 123.488C143.763 123.866 143.589 124.176 143.547 124.176C143.503 124.176 142.65 124.056 141.65 123.91C140.049 123.673 139.801 123.673 139.574 123.9C139.07 124.403 139.454 124.625 141.212 124.855C142.141 124.975 142.957 125.108 143.03 125.15C143.098 125.191 143.075 125.384 142.983 125.556C142.689 126.107 142.31 127.792 142.42 128.071C142.475 128.215 142.676 128.306 142.866 128.28C143.13 128.238 143.278 127.985 143.5 127.192C143.915 125.71 144.543 124.349 144.812 124.349C144.94 124.349 145.055 124.487 145.052 124.641C145.05 125.241 144.713 129.107 144.611 129.725L144.504 130.383C144.257 130.414 140.255 130.085 138.903 132.089C137.482 134.194 140.192 134.014 142.694 134.64L143.865 134.932L143.813 135.673C143.696 136.565 142.616 135.837 142.342 136.122C142.123 136.346 142.112 136.445 142.287 136.656C142.584 137.011 143.91 137.465 144.348 137.622C145.783 138.13 145.913 137.374 145.522 137.087C144.739 136.565 144.739 136.565 144.838 135.89L144.969 135.381C148.561 136.928 151.323 138.942 160.71 140.924C161.448 141.081 162.181 140.661 162.434 139.949C162.802 138.908 163.146 137.392 163.149 136.208C163.151 135.138 163.31 134.77 163.579 135.209C163.637 135.297 163.843 135.381 164.015 135.381C164.375 135.381 164.594 134.828 164.5 134.157C164.443 133.735 164.083 133.641 163.496 133.891C163.287 133.98 163.177 133.683 162.919 132.321C162.4 129.576 159.833 122.076 159.804 122.006C159.746 121.858 159.257 120.43 158.446 118.258C159.047 118.135 159.621 118.003 159.817 117.918ZM122.544 103.166C121.269 103.291 120.186 103.341 120.123 103.278C119.996 103.15 120.303 97.2182 122.482 92.2565C123.071 90.9104 125.13 87.1799 125.526 86.7417C125.818 86.413 126.523 86.3295 126.69 86.6034C126.742 86.6895 126.559 87.5504 126.28 88.5339C125.657 90.7199 125.424 92.0139 125.247 94.2547C125.057 96.686 125.307 100.672 125.756 102.373C127.994 110.833 134.503 114.858 135.16 115.542C135.131 116.225 135.194 121.591 134.61 121.591C134.216 121.591 132.335 120.897 130.352 120.021C126.611 118.37 124.631 116.77 122.784 113.922C119.933 109.521 120.233 105.767 120.03 104.546C123.562 104.043 125.234 104.082 125.234 103.409C125.234 102.973 124.89 102.942 122.544 103.166ZM108.849 17.606C108.593 18.6782 108.074 20.246 107.784 21.0704C104.127 22.0591 100.303 20.0034 98.5783 18.8817C104.244 18.4356 106.274 18.1799 108.849 17.606ZM99.3113 28.9017C96.8878 29.7443 94.4513 29.7652 92.5156 28.0773C92.74 28.0017 92.9513 27.8817 93.1417 27.7278C93.3087 27.5973 93.28 27.313 93.1417 27.1747C92.98 27.013 92.7556 27.0443 92.5887 27.1747C92.3722 27.3495 92.1009 27.3991 91.8322 27.3782C90.4261 25.7139 90.7913 24.7643 89.6383 24.5712C89.4948 24.5478 89.367 24.4617 89.2939 24.3339C89.2183 24.2086 89.2052 24.0573 89.2522 23.9165C89.8078 22.3538 89.8365 22.8469 89.0565 19.1634C91.1669 19.2365 95.1869 19.0721 97.2843 18.9339C97.3835 19.0095 97.5348 19.1217 97.733 19.2599C98.1244 20.7052 99.3791 26.1599 99.3791 27.8451C99.3791 27.986 99.3504 28.4191 99.3113 28.9017ZM104.912 31.8599C104.304 31.4347 102.233 28.6069 100.879 28.6069C100.451 28.6069 100.415 28.2939 100.415 27.7069C100.209 25.3095 99.3374 21.7669 98.8678 19.9878C99.6739 20.4625 100.318 20.773 100.976 21.0495C100.929 21.5843 100.623 21.746 100.514 22.1869C100.451 22.4269 100.657 22.4973 100.843 22.4347C101.208 22.3121 101.662 21.6652 101.722 21.3443C103.733 22.0747 105.867 22.3773 107.933 21.8347C108.035 21.9495 108.11 22.0278 108.136 22.0721C107.85 22.5782 106.472 24.2895 105.457 27.5712C105.134 28.6225 104.943 30.253 104.912 31.8599ZM114.669 50.8695C114.549 50.9843 111.014 46.2704 110.028 44.6843C106.151 38.4391 104.422 31.5234 107.677 24.9339C107.857 24.566 108.05 24.206 108.259 23.8695C108.943 22.7582 110.122 22.0408 111.421 21.9547C117.88 21.5217 124.957 27.1278 127.647 29.1521C129.982 30.9078 136.707 36.9208 141.327 41.9921C142.699 43.4973 143.985 43.3095 149.777 46.9982C156.303 51.1564 156.225 51.7721 157.978 53.3869C158.156 53.5617 158.117 53.8565 157.903 53.9817L156.896 54.5739C154.621 55.9121 153.776 56.1156 149.881 56.2669C145.451 56.4365 143.949 56.8565 141.486 58.6147C136.741 62.0008 135.011 67.9825 134.505 67.9904C134.234 67.9904 128.839 61.0591 127.822 59.4051C127.371 58.6731 126.666 57.7434 126.176 57.3696C126.28 56.9945 126.277 56.5074 126.217 55.7686C125.317 44.5786 124.867 38.8046 124.267 36.8624C124.273 29.1863 115.905 23.8353 111.444 28.1817C108.259 31.286 108.653 36.7825 111.549 38.6008C112.177 38.9947 112.316 39.1878 112.459 39.8582C113.638 45.3756 114.729 50.8095 114.669 50.8695ZM114.374 55.7008C116.513 54.2791 116.623 54.1643 116.422 53.5434C116.257 53.0347 113.398 39.2034 113.137 37.6539C112.613 34.5312 112.73 33.6599 112.047 33.9208C111.397 34.1712 112.17 37.2417 112.05 37.8286C109.245 35.8591 110.054 30.5843 112.597 28.5625C114.129 27.3469 116.516 27.4695 118.162 28.3852C120.311 29.5852 122.231 32.2695 122.831 34.1973C123.046 34.8928 123.62 38.9504 123.676 39.5791C123.758 40.5088 123.857 41.5032 123.94 42.3939C125.265 56.4782 124.877 53.4104 125.161 56.0947C125.283 57.2478 125.25 57.2895 123.337 58.5417C118.668 61.5965 109.751 66.1695 109.17 65.8069C108.893 65.6373 107.805 63.133 107.902 62.8852C108.05 62.4965 107.516 62.0999 107.119 62.3086C106.433 62.6712 106.965 63.6365 108.1 66.1956C108.223 66.4747 107.325 66.6625 107.033 66.4173C106.673 66.1199 105.585 63.8504 105.585 63.4043C105.585 63.1252 105.817 62.846 106.368 62.4652C108.113 61.2573 106.871 60.6939 114.374 55.7008ZM105.296 60.5947C105.716 59.9556 107.169 59.0582 107.273 59.3713C107.302 59.4547 107.166 59.8356 106.983 60.1982C106.647 60.853 105.554 61.9565 105.241 61.9565C104.855 61.9565 104.886 61.213 105.296 60.5947ZM102.966 64.2521C103.35 64.1112 104.302 63.2738 104.463 63.1434C105.1 65.0817 104.461 63.6834 106.065 66.9704C106.112 67.0669 104.103 67.6434 103.723 67.6434C103.639 67.6434 103.36 67.1791 103.11 66.626C102.575 65.4365 102.512 64.4165 102.966 64.2521ZM102.656 68.1599L102.82 68.5904C103.003 69.0704 103.188 69.1173 103.723 68.8252C104.471 68.413 109.17 67.4895 114.46 64.8417C116.495 63.8243 121.475 61.0408 122.2 60.5138C124.206 59.0592 125.28 58.5743 125.809 58.0116C126.134 58.8038 126.923 60.0628 127.793 61.2495C129.559 63.6547 128.273 62.0504 130.905 65.4886C132.379 67.4191 132.692 67.933 132.677 68.4025C132.635 69.6834 129.272 80.3947 129.444 80.846C129.585 81.2138 129.987 81.1382 130.282 80.6895C130.54 80.3008 132.4 73.9695 133.164 70.8834C133.37 70.0564 133.603 69.3678 133.678 69.3678C133.77 69.3678 133.777 69.5947 134.349 69.5112C135.369 69.3652 135.627 68.4052 136.214 67.213C142.837 53.7599 150.003 58.6799 155.07 56.7025C155.26 56.6269 155.372 56.7156 155.44 56.9921C155.623 57.7538 157.467 62.2434 157.454 64.9199C157.451 66.0339 157.039 67.7817 156.444 69.2112C154.952 72.8034 144.217 91.6356 144.194 91.6617C144.116 91.7426 143.797 91.6121 143.469 91.3617C142.618 90.7173 141.729 90.3965 140.797 90.3991C138.684 90.4069 137.208 92.4104 136.509 96.2191L136.506 96.2337C136.366 97.0045 136.493 97.7999 136.865 98.4892L152.388 127.249C152.826 128.217 152.483 128.696 152.25 128.856C151.947 129.068 151.199 129.673 150.614 130.184C149.579 131.084 149.508 131.118 148.812 131.003C146.537 130.63 145.668 130.427 145.697 130.278C145.752 130.002 145.749 128.961 146.106 125.4C146.553 125.386 148.506 125.33 149.743 125.288C150.042 125.278 150.247 124.965 150.118 124.695C149.985 124.412 149.69 124.248 149.381 124.275C148.992 124.31 148.456 124.336 147.684 124.341L146.088 124.349C146.043 123.992 146.26 123.318 145.642 122.677C145.097 122.114 145.292 121.968 144.966 118.996C145.456 119.06 145.996 119.121 146.582 119.176C146.833 119.2 147.01 118.934 146.891 118.712L135.662 97.9085C135.508 97.6627 135.307 97.2751 135.03 96.7539C134.232 95.2539 133.882 95.0399 134.093 93.4069C136.535 74.4547 139.183 63.9678 137.385 65.7652C137.214 65.9355 136.059 72.8858 134.965 79.9139C134.574 79.8208 133.652 79.9082 132.612 80.4391C129.489 82.0356 127.979 84.9443 127.371 85.6904L124.527 84.6182C116.391 81.5582 112.772 79.3617 104.153 72.2478C100.553 69.2738 100.736 69.5425 101.792 68.7808L102.656 68.1599ZM100.243 63.3991L101.706 63.7825C101.709 64.2625 101.461 65.1365 101.923 66.4878C102.105 67.0225 102.189 67.4712 102.103 67.4712C101.868 67.4712 99.7235 68.7469 99.1052 69.2582C98.4582 69.7904 97.7774 69.8243 96.9661 69.3625C95.3304 68.4312 94.66 68.1417 94.2426 68.1912C93.3844 68.293 93.6061 68.773 94.7617 69.3182C96.2409 70.0173 96.4261 70.3434 96.6557 70.5052C96.4965 70.5939 95.9174 71.0947 95.1582 71.2121C94.3469 71.3373 92.7635 70.8234 92.0539 70.2052C91.493 69.7121 91.4513 69.6078 91.4513 68.6608C91.4513 65.2225 94.72 61.9512 100.243 63.3991ZM46.0261 165.67C45.9922 165.639 45.6948 164.716 45.3687 163.63C43.5243 157.529 43.4904 156.976 44.7765 153.788C45.0817 153.029 45.6739 152.022 46.1565 151.435C46.853 150.587 47.2756 150.271 48.5852 149.611C50.9122 148.44 52.36 148.114 55.9469 147.968C61.9235 147.72 72.6322 148.659 72.9739 148.784C73.3183 148.912 74.3878 150.376 74.3878 150.72C74.3878 150.887 72.5252 152.577 69.0452 155.57C64.8974 159.133 62.0356 160.896 61.3235 161.405C60.0948 161.251 53.0148 158.783 53.0148 162.216C53.0148 162.939 53.0017 162.957 52.4461 162.957C51.4235 162.957 48.3791 164.181 46.8791 165.196C46.4487 165.488 46.06 165.704 46.0261 165.67ZM59.7191 162.352C59.4791 162.571 54.9583 165.37 54.8435 165.37C54.6478 165.37 54.2852 164.063 54.1183 163.056C53.9878 162.269 54.5513 161.536 55.347 161.457C56.8626 161.306 59.0252 161.867 59.2887 161.94C59.8417 162.096 59.9174 162.17 59.7191 162.352ZM56.5496 165.623C64.0287 161.074 66.0009 159.665 71.2861 155.084C76.9235 150.198 82.48 144.381 83.213 144.12C83.6278 143.974 83.6096 143.543 83.1791 143.309C82.9365 143.176 82.7226 143.178 82.4617 143.316C81.7026 143.723 75.3974 150.175 75.1235 149.823C74.7348 149.324 73.0026 145.67 72.4417 144.17C71.0695 140.494 70.1304 135.931 69.9609 132.104C69.7391 127.15 70.9417 118.098 70.9417 116.499C70.9417 116.186 71.0956 116.097 71.9409 115.928C73.1383 115.69 80.2835 113.301 83.1087 112.195C86.7974 110.752 95.0549 106.356 96.0869 105.636C96.7571 105.169 98.1536 104.184 98.7794 103.603C99.3478 102.913 99.087 101.087 97.72 101.262C97.1276 101.412 95.9111 102.038 93.5197 103.333C88.6936 105.947 83.805 108.357 81.5406 109.239C78.2667 110.512 71.4267 112.568 71.1136 112.372C71.0171 112.315 70.9389 111.595 70.9389 110.768C70.9284 106.763 69.4441 100.341 67.5084 95.9452C65.6641 91.7556 61.6623 84.1121 60.5536 82.6565C60.3815 82.4321 60.3006 82.1869 60.3763 82.1217C60.4519 82.0538 61.0128 81.866 61.6336 81.7017C71.5858 79.0356 82.5476 74.9634 91.8136 71.4704C92.0849 71.5669 93.0736 72.1486 94.451 72.2556C95.6562 72.3495 96.418 72.0939 97.3467 71.2878C98.2467 70.4999 98.0223 70.9512 99.0345 70.4008C99.3632 70.2234 99.6893 70.0695 99.7493 70.0643C100.041 70.0643 107.583 76.9408 113.03 80.3373C118.519 83.7599 124.263 85.5912 124.595 85.9043C124.673 85.9747 124.221 86.9139 123.585 87.9991C121.926 90.8426 121.318 92.1078 120.648 94.1165C118.866 99.4486 119.03 103.432 119.028 103.458C119.001 103.461 110.234 104.087 103.154 103.607C101.155 103.471 100.973 103.484 100.866 103.769C100.683 104.246 100.931 104.356 102.671 104.575C104.505 104.807 115.357 104.867 117.58 104.658L118.975 104.528C119.119 105.532 118.941 109.323 121.026 113.129C123.366 117.407 126.285 120.01 133.334 122.376C133.85 122.549 134.348 122.75 134.429 122.815C134.508 122.88 134.442 123.59 134.283 124.383C132.079 135.31 126.035 152.862 122.205 159.459C121.506 160.664 120.632 162.19 120.277 162.827L119.633 163.99L113.427 163.886C103.957 163.724 102.024 164.324 101.361 164.387C102.384 163.161 104.581 161.95 108.436 154.08C109.931 151.03 114.595 139.62 114.517 139.205C114.486 139.046 114.306 138.913 114.115 138.913C113.74 138.913 113.398 139.654 110.301 147.17C106.9 155.426 104.742 159.258 101.724 162.404C99.791 164.421 98.2936 165.063 94.6049 165.462C93.6736 165.563 93.4389 165.524 92.5623 165.112L92.4084 165.039C91.3154 164.525 90.4102 164.976 90.0893 165.018C87.5015 165.668 78.5406 168.639 75.4728 169.863C71.3615 171.506 64.9884 174.303 61.4093 175.73C53.5049 178.883 52.2084 181.683 45.9476 184.036C44.0876 184.735 43.4719 185.116 42.0189 186.483C41.2597 187.195 40.5736 187.776 40.4928 187.776C40.4145 187.776 40.2319 187.518 40.0963 187.208C39.645 186.185 37.8815 184.615 36.3476 183.871L34.9519 183.193C42.1365 175.166 40.827 175.184 56.5496 165.623ZM17.44 203.116C17.5574 203.116 17.7713 203.306 17.9304 203.546C19.0861 205.315 19.0678 207.798 19.1122 208.046C18.653 208.97 14.32 212.199 16.9235 214.803C17.2522 215.129 17.5104 215.567 17.5104 215.794C17.5104 216.198 17.5104 216.198 16.5452 215.614C13.0991 213.522 7.34173 213.626 7.34173 213.235C7.34173 212.992 17.2 203.116 17.44 203.116ZM5.85999 214.923C6.43651 214.31 6.14434 214.145 10.1852 214.766C13.5791 215.288 15.9843 216.183 16.8948 217.268C19.3469 220.184 9.99477 223.283 4.68608 222.853C1.92869 222.629 1.68085 222.584 1.61303 222.282C1.45651 221.611 4.46173 216.404 5.85999 214.923Z" fill="#0C4745"/>
</svg>
