<svg width="186" height="186" viewBox="0 0 186 186" fill="none" xmlns="http://www.w3.org/2000/svg">
<g clip-path="url(#clip0_56_7)">
<path d="M14.5932 95.6131C16.1934 95.6131 17.4868 94.3197 17.4868 92.7196V60.8903C17.4868 59.2902 16.1934 57.9967 14.5932 57.9967C12.9931 57.9967 11.6997 59.2902 11.6997 60.8903L11.6997 92.7196C11.6997 94.3197 12.9931 95.6131 14.5932 95.6131Z" fill="white"/>
<path d="M170.846 0.125389L115.868 0.125389C114.268 0.125389 112.975 1.41881 112.975 3.01896V26.1328C112.94 27.4696 112.413 29.0611 110.081 29.0611C108.333 29.0611 107.161 28.2827 105.243 26.9083C102.986 25.2879 100.173 23.2739 95.6132 23.2739C87.6356 23.2739 81.1453 29.7642 81.1453 37.7418C81.1453 45.7193 87.6356 52.2096 95.6132 52.2096C100.173 52.2096 102.986 50.1957 105.243 48.5753C107.161 47.2009 108.333 46.4225 110.081 46.4225C112.413 46.4225 112.94 48.0139 112.975 49.3161V69.571C112.975 71.1712 114.268 72.4646 115.868 72.4646H139.017C142.506 72.4646 147.697 70.1526 147.697 63.7839C147.697 60.0946 145.976 57.6929 144.459 55.5748C143.036 53.5899 141.91 52.0186 141.91 49.3161C141.91 44.5301 145.805 40.6353 150.591 40.6353C155.377 40.6353 159.272 44.5301 159.272 49.3161C159.272 52.0186 158.146 53.5899 156.722 55.5748C155.206 57.6929 153.485 60.0946 153.485 63.7839C153.485 70.1526 158.676 72.4646 162.165 72.4646H182.42C184.02 72.4646 185.314 71.1712 185.314 69.571V14.5932C185.314 6.61566 178.823 0.125389 170.846 0.125389ZM179.527 66.6775H162.2C160.863 66.6427 159.272 66.1161 159.272 63.7839C159.272 62.0362 160.05 60.8643 161.424 58.9458C163.045 56.6889 165.059 53.8763 165.059 49.3161C165.059 41.3385 158.569 34.8482 150.591 34.8482C142.613 34.8482 136.123 41.3385 136.123 49.3161C136.123 53.8763 138.137 56.6889 139.757 58.9458C141.132 60.8643 141.91 62.0362 141.91 63.7839C141.91 66.1161 140.319 66.6427 139.017 66.6775H118.762V49.3161C118.762 45.8264 116.45 40.6353 110.081 40.6353C106.392 40.6353 103.987 42.357 101.872 43.8733C99.8869 45.2969 98.3157 46.4225 95.6132 46.4225C90.8272 46.4225 86.9324 42.5277 86.9324 37.7418C86.9324 32.9558 90.8272 29.0611 95.6132 29.0611C98.3157 29.0611 99.8869 30.1867 101.872 31.6103C103.987 33.1265 106.392 34.8482 110.081 34.8482C116.45 34.8482 118.762 29.6571 118.762 26.1675V5.91253L170.846 5.91253C175.632 5.91253 179.527 9.80727 179.527 14.5932V66.6775Z" fill="#DBAB33"/>
<path d="M170.846 11.6997L144.804 11.6997C143.204 11.6997 141.91 12.9931 141.91 14.5932C141.91 16.1934 143.204 17.4868 144.804 17.4868H167.952V29.0611C167.952 30.6612 169.246 31.9546 170.846 31.9546C172.446 31.9546 173.739 30.6612 173.739 29.0611V14.5932C173.739 12.9931 172.446 11.6997 170.846 11.6997Z" fill="white"/>
<path d="M136.123 112.975L115.903 112.975C114.566 112.94 112.975 112.413 112.975 110.081C112.975 108.333 113.753 107.161 115.127 105.243C116.748 102.986 118.762 100.173 118.762 95.6131C118.762 87.6356 112.271 81.1453 104.294 81.1453C96.3163 81.1453 89.826 87.6356 89.826 95.6131C89.826 100.173 91.8399 102.986 93.4603 105.243C94.8348 107.161 95.6131 108.333 95.6131 110.081C95.6131 112.413 94.0217 112.94 92.7196 112.975H72.4646V95.6131C72.4646 92.1235 70.1526 86.9324 63.7839 86.9324C60.0946 86.9324 57.69 88.6541 55.5748 90.1703C53.5899 91.594 52.0186 92.7196 49.316 92.7196C44.5301 92.7196 40.6353 88.8248 40.6353 84.0389C40.6353 79.2529 44.5301 75.3582 49.316 75.3582C52.0186 75.3582 53.5899 76.4838 55.5748 77.9074C57.69 79.4236 60.0946 81.1453 63.7839 81.1453C70.1526 81.1453 72.4646 75.9542 72.4646 72.4646V49.3161C72.4646 47.7159 71.1712 46.4225 69.571 46.4225L14.5932 46.4225C6.61566 46.4225 0.125389 52.9128 0.125389 60.8903L0.125389 170.846C0.125389 178.823 6.61566 185.314 14.5932 185.314H69.571H124.549C132.526 185.314 139.017 178.823 139.017 170.846V115.868C139.017 114.268 137.723 112.975 136.123 112.975ZM14.5932 52.2096H66.6775V72.4299C66.6427 73.7667 66.1161 75.3582 63.7839 75.3582C62.0362 75.3582 60.8643 74.5798 58.9458 73.2054C56.6889 71.585 53.8763 69.571 49.316 69.571C41.3385 69.571 34.8482 76.0613 34.8482 84.0389C34.8482 92.0164 41.3385 98.5067 49.316 98.5067C53.8763 98.5067 56.6889 96.4928 58.9458 94.8724C60.8643 93.4979 62.0362 92.7196 63.7839 92.7196C66.1161 92.7196 66.6427 94.311 66.6775 95.6131V112.975H49.316C45.8264 112.975 40.6353 115.287 40.6353 121.655C40.6353 125.345 42.357 127.746 43.8732 129.864C45.2969 131.849 46.4225 133.421 46.4225 136.123C46.4225 140.909 42.5277 144.804 37.7418 144.804C32.9558 144.804 29.0611 140.909 29.0611 136.123C29.0611 133.421 30.1867 131.849 31.6103 129.864C33.1265 127.746 34.8482 125.345 34.8482 121.655C34.8482 115.287 29.6571 112.975 26.1675 112.975H5.91253L5.91253 60.8903C5.91253 56.1044 9.80727 52.2096 14.5932 52.2096ZM5.91253 170.846L5.91253 118.762H26.1328C27.4696 118.796 29.0611 119.323 29.0611 121.655C29.0611 123.403 28.2827 124.575 26.9083 126.493C25.2879 128.75 23.2739 131.563 23.2739 136.123C23.2739 144.101 29.7642 150.591 37.7418 150.591C45.7193 150.591 52.2096 144.101 52.2096 136.123C52.2096 131.563 50.1957 128.75 48.5753 126.493C47.2008 124.575 46.4225 123.403 46.4225 121.655C46.4225 119.323 48.0139 118.796 49.316 118.762H66.6775V139.017C66.6775 142.506 68.9894 147.697 75.3582 147.697C79.0475 147.697 81.4491 145.976 83.5672 144.459C85.5522 143.036 87.1234 141.91 89.826 141.91C94.612 141.91 98.5067 145.805 98.5067 150.591C98.5067 155.377 94.612 159.272 89.826 159.272C87.1234 159.272 85.5522 158.146 83.5672 156.722C81.4491 155.206 79.0475 153.485 75.3582 153.485C68.9894 153.485 66.6775 158.676 66.6775 162.165L66.6775 179.527H14.5932C9.80727 179.527 5.91253 175.632 5.91253 170.846ZM133.23 170.846C133.23 175.632 129.335 179.527 124.549 179.527H72.4646L72.4646 162.2C72.4993 160.863 73.0259 159.272 75.3582 159.272C77.103 159.272 78.2778 160.05 80.1962 161.424C82.4532 163.045 85.2657 165.059 89.826 165.059C97.8036 165.059 104.294 158.569 104.294 150.591C104.294 142.613 97.8036 136.123 89.826 136.123C85.2657 136.123 82.4532 138.137 80.1962 139.757C78.2778 141.132 77.103 141.91 75.3582 141.91C73.0259 141.91 72.4993 140.319 72.4646 139.017V118.762H92.7196C96.2092 118.762 101.4 116.45 101.4 110.081C101.4 106.392 99.6786 103.99 98.1624 101.872C96.7387 99.8869 95.6131 98.3157 95.6131 95.6131C95.6131 90.8272 99.5079 86.9324 104.294 86.9324C109.08 86.9324 112.975 90.8272 112.975 95.6131C112.975 98.3157 111.849 99.8869 110.425 101.872C108.909 103.99 107.187 106.392 107.187 110.081C107.187 116.45 112.378 118.762 115.868 118.762L133.23 118.762V170.846Z" fill="#DBAB33"/>
<path d="M124.549 173.739C126.149 173.739 127.442 172.446 127.442 170.846V153.485C127.442 151.884 126.149 150.591 124.549 150.591C122.949 150.591 121.655 151.884 121.655 153.485V170.846C121.655 172.446 122.949 173.739 124.549 173.739Z" fill="white"/>
<path d="M131.175 12.5388C130.651 13.0857 130.336 13.8409 130.336 14.5932C130.336 15.3456 130.651 16.095 131.175 16.6477C131.722 17.1685 132.477 17.4868 133.23 17.4868C133.982 17.4868 134.731 17.1685 135.284 16.6477C135.805 16.095 136.123 15.3456 136.123 14.5932C136.123 13.8409 135.805 13.0857 135.284 12.5388C134.184 11.4682 132.246 11.4682 131.175 12.5388Z" fill="white"/>
<path d="M14.5932 107.187C15.3716 107.187 16.095 106.869 16.6477 106.348C17.1685 105.798 17.4868 105.046 17.4868 104.294C17.4868 103.542 17.1685 102.786 16.6477 102.239C15.5481 101.169 13.6094 101.169 12.5388 102.239C12.0151 102.786 11.6997 103.542 11.6997 104.294C11.6997 105.046 12.0151 105.798 12.5388 106.348C13.0857 106.869 13.8091 107.187 14.5932 107.187Z" fill="white"/>
<path d="M124.549 144.804C125.301 144.804 126.051 144.486 126.603 143.965C127.124 143.415 127.442 142.691 127.442 141.91C127.442 141.158 127.124 140.403 126.603 139.856C125.504 138.785 123.565 138.785 122.494 139.856C121.971 140.403 121.655 141.158 121.655 141.91C121.655 142.691 121.971 143.415 122.494 143.965C123.041 144.486 123.765 144.804 124.549 144.804Z" fill="white"/>
</g>
<defs>
<clipPath id="clip0_56_7">
<rect width="185.188" height="185.188" fill="white" transform="translate(0.125389 0.125389)"/>
</clipPath>
</defs>
</svg>
