<svg width="151" height="151" viewBox="0 0 151 151" fill="none" xmlns="http://www.w3.org/2000/svg">
<g clip-path="url(#clip0_56_3)">
<path d="M143.264 23.8336H115.139V16.8024C115.13 13.0243 113.817 9.36523 111.422 6.4432C109.027 3.52117 105.697 1.51525 101.994 0.764242C98.2915 0.0132358 94.443 0.56317 91.0989 2.32116C87.7547 4.07915 85.1198 6.93745 83.6391 10.4133C82.463 10.0034 81.2283 9.78651 79.9829 9.77111H70.6079C69.3617 9.78651 68.1262 10.0034 66.9493 10.4133C65.4771 6.92712 62.8443 4.05757 59.4974 2.29147C56.1505 0.52537 52.2958 -0.0285207 48.587 0.723768C44.8783 1.47606 41.544 3.4882 39.1498 6.41883C36.7556 9.34946 35.449 13.0181 35.4516 16.8024V23.8336H7.32663C5.46183 23.8336 3.6734 24.5744 2.35479 25.893C1.03617 27.2116 0.29538 29.0001 0.29538 30.8649L0.29538 44.9274C0.301387 46.3764 0.754951 47.7882 1.59402 48.9696C2.43309 50.151 3.61669 51.0444 4.98288 51.5274V143.365C4.98288 145.23 5.72367 147.018 7.04229 148.337C8.3609 149.655 10.1493 150.396 12.0141 150.396H138.577C140.441 150.396 142.23 149.655 143.548 148.337C144.867 147.018 145.608 145.23 145.608 143.365V51.5274C146.974 51.0444 148.158 50.151 148.997 48.9696C149.836 47.7882 150.289 46.3764 150.295 44.9274V30.8649C150.295 29.0001 149.555 27.2116 148.236 25.893C146.917 24.5744 145.129 23.8336 143.264 23.8336ZM98.7329 5.08361C101.84 5.08733 104.818 6.32318 107.015 8.52007C109.212 10.717 110.448 13.6955 110.452 16.8024V23.8336H91.7016V21.4899C91.6965 19.8435 91.3426 18.2169 90.6631 16.7173C89.9836 15.2177 88.9939 13.8792 87.7594 12.7899C88.5752 10.5336 90.0663 8.58338 92.0297 7.20453C93.9931 5.82569 96.3337 5.08513 98.7329 5.08361ZM89.1048 114.891L79.1157 97.9899C80.4417 97.4014 81.613 96.5133 82.5376 95.3953C83.834 95.8879 85.2238 96.0858 86.6062 95.9746C87.9886 95.8635 89.3289 95.4461 90.53 94.7528C91.7311 94.0595 92.7628 93.1076 93.5504 91.9661C94.3381 90.8246 94.8618 89.5221 95.0837 88.1531C96.9378 87.8331 98.6528 86.9626 100.006 85.6547L109.763 102.71L96.7712 101.864C96.2984 101.835 95.8277 101.949 95.4205 102.191C95.0133 102.433 94.6885 102.792 94.4883 103.221L89.1048 114.891ZM61.486 114.891L56.0954 103.221C55.8968 102.791 55.5723 102.43 55.1647 102.188C54.7572 101.946 54.2857 101.833 53.8126 101.864L40.8212 102.71L50.5805 85.6547C51.9326 86.9635 53.6479 87.8342 55.5024 88.1531C55.7243 89.5221 56.248 90.8246 57.0356 91.9661C57.8232 93.1076 58.855 94.0595 60.0561 94.7528C61.2572 95.4461 62.5975 95.8635 63.9799 95.9746C65.3623 96.0858 66.7521 95.8879 68.0485 95.3953C68.9713 96.5116 70.1401 97.3988 71.4633 97.9875L61.486 114.891ZM98.2829 72.6399C97.9648 72.7825 97.6826 72.9943 97.4568 73.2597C97.2309 73.5252 97.0671 73.8377 96.9773 74.1745C96.8875 74.5113 96.8739 74.8639 96.9376 75.2066C97.0013 75.5493 97.1406 75.8734 97.3454 76.1555C97.8814 76.8863 98.1933 77.7573 98.2429 78.6623C98.2926 79.5673 98.0778 80.4672 97.6249 81.2523C97.172 82.0374 96.5005 82.6738 95.6922 83.0838C94.8839 83.4939 93.9737 83.6599 93.0727 83.5617C92.7251 83.5248 92.3736 83.5661 92.0441 83.6827C91.7145 83.7992 91.4151 83.9879 91.168 84.2351C90.9208 84.4823 90.732 84.7816 90.6155 85.1112C90.499 85.4408 90.4577 85.7922 90.4946 86.1399C90.5928 87.0409 90.4268 87.951 90.0167 88.7593C89.6066 89.5676 88.9703 90.2391 88.1852 90.6921C87.4001 91.145 86.5002 91.3597 85.5952 91.3101C84.6902 91.2604 83.8192 90.9486 83.0884 90.4125C82.8063 90.2077 82.4821 90.0684 82.1394 90.0047C81.7967 89.9411 81.4442 89.9546 81.1074 90.0444C80.7706 90.1342 80.4581 90.298 80.1926 90.5239C79.9271 90.7497 79.7154 91.032 79.5727 91.35C79.2076 92.1789 78.6093 92.8837 77.8507 93.3786C77.092 93.8734 76.2058 94.1368 75.3001 94.1368C74.3943 94.1368 73.5081 93.8734 72.7495 93.3786C71.9908 92.8837 71.3925 92.1789 71.0274 91.35C70.8853 91.0304 70.6735 90.7466 70.4074 90.5195C70.1414 90.2924 69.8279 90.1277 69.4899 90.0375C69.2926 89.9853 69.0894 89.9585 68.8852 89.9578C68.3904 89.9571 67.9079 90.1129 67.5071 90.4031C66.7763 90.9392 65.9052 91.251 65.0002 91.3007C64.0952 91.3503 63.1954 91.1356 62.4103 90.6827C61.6252 90.2298 60.9888 89.5582 60.5788 88.7499C60.1687 87.9416 60.0026 87.0315 60.1008 86.1305C60.1378 85.7829 60.0964 85.4314 59.9799 85.1018C59.8634 84.7722 59.6747 84.4729 59.4275 84.2257C59.1803 83.9785 58.881 83.7898 58.5514 83.6733C58.2218 83.5568 57.8703 83.5154 57.5227 83.5524C56.6217 83.6506 55.7116 83.4845 54.9033 83.0745C54.095 82.6644 53.4234 82.028 52.9705 81.2429C52.5176 80.4579 52.3029 79.558 52.3525 78.653C52.4022 77.748 52.714 76.877 53.2501 76.1461C53.4549 75.8641 53.5942 75.5399 53.6578 75.1972C53.7215 74.8545 53.708 74.5019 53.6181 74.1651C53.5283 73.8284 53.3645 73.5158 53.1387 73.2504C52.9128 72.9849 52.6306 72.7731 52.3126 72.6305C51.4831 72.2653 50.7778 71.6666 50.2827 70.9076C49.7875 70.1485 49.5239 69.2618 49.5239 68.3555C49.5239 67.4492 49.7875 66.5625 50.2827 65.8034C50.7778 65.0443 51.4831 64.4457 52.3126 64.0805C52.6306 63.9379 52.9128 63.7261 53.1387 63.4606C53.3645 63.1951 53.5283 62.8826 53.6181 62.5458C53.708 62.209 53.7215 61.8565 53.6578 61.5138C53.5942 61.1711 53.4549 60.8469 53.2501 60.5649C52.714 59.834 52.4022 58.963 52.3525 58.058C52.3029 57.153 52.5176 56.2531 52.9705 55.468C53.4234 54.6829 54.095 54.0466 54.9033 53.6365C55.7116 53.2265 56.6217 53.0604 57.5227 53.1586C57.8703 53.1955 58.2218 53.1542 58.5514 53.0377C58.881 52.9212 59.1803 52.7324 59.4275 52.4852C59.6747 52.2381 59.8634 51.9387 59.9799 51.6091C60.0964 51.2796 60.1378 50.9281 60.1008 50.5805C60.0032 49.6796 60.1696 48.7698 60.5797 47.9617C60.9898 47.1537 61.626 46.4823 62.4108 46.0293C63.1956 45.5763 64.0951 45.3612 65 45.4103C65.9048 45.4593 66.7758 45.7703 67.5071 46.3055C67.7891 46.5103 68.1133 46.6496 68.456 46.7133C68.7987 46.7769 69.1513 46.7634 69.4881 46.6736C69.8249 46.5838 70.1374 46.42 70.4029 46.1941C70.6683 45.9683 70.8801 45.686 71.0227 45.368C71.3878 44.5391 71.9861 43.8343 72.7448 43.3394C73.5034 42.8446 74.3896 42.5812 75.2954 42.5812C76.2011 42.5812 77.0873 42.8446 77.846 43.3394C78.6046 43.8343 79.2029 44.5391 79.568 45.368C79.7107 45.686 79.9224 45.9683 80.1879 46.1941C80.4534 46.42 80.7659 46.5838 81.1027 46.6736C81.4395 46.7634 81.7921 46.7769 82.1348 46.7133C82.4774 46.6496 82.8016 46.5103 83.0837 46.3055C83.8149 45.7703 84.686 45.4593 85.5908 45.4103C86.4956 45.3612 87.3952 45.5763 88.18 46.0293C88.9648 46.4823 89.601 47.1537 90.0111 47.9617C90.4212 48.7698 90.5876 49.6796 90.4899 50.5805C90.453 50.9281 90.4943 51.2796 90.6108 51.6091C90.7273 51.9387 90.9161 52.2381 91.1633 52.4852C91.4105 52.7324 91.7098 52.9212 92.0394 53.0377C92.369 53.1542 92.7204 53.1955 93.068 53.1586C93.9691 53.0604 94.8792 53.2265 95.6875 53.6365C96.4958 54.0466 97.1673 54.6829 97.6202 55.468C98.0731 56.2531 98.2879 57.153 98.2382 58.058C98.1886 58.963 97.8767 59.834 97.3407 60.5649C97.1359 60.8469 96.9966 61.1711 96.9329 61.5138C96.8692 61.8565 96.8828 62.209 96.9726 62.5458C97.0624 62.8826 97.2262 63.1951 97.4521 63.4606C97.6779 63.7261 97.9602 63.9379 98.2782 64.0805C99.1076 64.4457 99.8129 65.0443 100.308 65.8034C100.803 66.5625 101.067 67.4492 101.067 68.3555C101.067 69.2618 100.803 70.1485 100.308 70.9076C99.8129 71.6666 99.1076 72.2653 98.2782 72.6305L98.2829 72.6399ZM87.0141 40.8375C85.5045 40.6365 83.9687 40.8071 82.5399 41.3344C81.6629 40.26 80.5579 39.394 79.3049 38.7994C78.0519 38.2047 76.6823 37.8962 75.2954 37.8962C73.9084 37.8962 72.5389 38.2047 71.2859 38.7994C70.0329 39.394 68.9279 40.26 68.0508 41.3344C66.6217 40.8086 65.0861 40.6389 63.5766 40.8399V28.5211H87.0141V40.8375ZM79.9829 14.4586C81.8477 14.4586 83.6361 15.1994 84.9547 16.518C86.2733 17.8366 87.0141 19.6251 87.0141 21.4899V23.8336H63.5766V21.4899C63.5766 19.6251 64.3174 17.8366 65.636 16.518C66.9546 15.1994 68.7431 14.4586 70.6079 14.4586H79.9829ZM40.1391 16.8024C40.1349 14.0501 41.1012 11.3844 42.8682 9.27424C44.6352 7.16406 47.0897 5.74452 49.8 5.26529C52.5102 4.78605 55.3026 5.27782 57.6861 6.65409C60.0696 8.03036 61.8915 10.203 62.8313 12.7899C61.5968 13.8792 60.6072 15.2177 59.9277 16.7173C59.2482 18.2169 58.8942 19.8435 58.8891 21.4899V23.8336H40.1391V16.8024ZM4.98288 30.8649C4.98288 30.2433 5.22981 29.6471 5.66935 29.2076C6.10889 28.768 6.70503 28.5211 7.32663 28.5211H58.8891V42.8438C57.47 43.9911 56.4201 45.5309 55.8704 47.2711H7.32663C6.70503 47.2711 6.10889 47.0242 5.66935 46.5846C5.22981 46.1451 4.98288 45.549 4.98288 44.9274V30.8649ZM9.67038 143.365V51.9586H49.7743C49.4557 52.3265 49.1658 52.7183 48.9071 53.1305C48.2157 54.3323 47.7995 55.6725 47.6885 57.0545C47.5774 58.4365 47.7743 59.8259 48.2649 61.1227C47.1906 61.9992 46.3247 63.1039 45.73 64.3565C45.1354 65.6091 44.8269 66.9783 44.8269 68.3649C44.8269 69.7514 45.1354 71.1207 45.73 72.3733C46.3247 73.6259 47.1906 74.7305 48.2649 75.607C47.6466 77.2921 47.5262 79.1195 47.918 80.8711L34.5891 104.17C34.3791 104.538 34.2725 104.956 34.2808 105.379C34.2891 105.802 34.4119 106.215 34.6362 106.575C34.8605 106.934 35.1778 107.225 35.5546 107.419C35.9313 107.612 36.3533 107.699 36.7758 107.672L52.5141 106.648L58.8891 120.443V145.709H12.0141C11.3925 145.709 10.7964 145.462 10.3568 145.022C9.91731 144.583 9.67038 143.986 9.67038 143.365ZM63.5766 145.709V120.57L75.2954 100.737L87.0141 120.57V145.709H63.5766ZM138.577 145.709H91.7016V120.443L98.0766 106.648L113.815 107.672C114.238 107.704 114.662 107.618 115.04 107.425C115.418 107.231 115.735 106.937 115.957 106.575C116.181 106.216 116.303 105.802 116.311 105.379C116.319 104.955 116.212 104.538 116.002 104.17L102.673 80.8711C103.065 79.1195 102.944 77.2921 102.326 75.607C103.4 74.7305 104.266 73.6259 104.861 72.3733C105.455 71.1207 105.764 69.7514 105.764 68.3649C105.764 66.9783 105.455 65.6091 104.861 64.3565C104.266 63.1039 103.4 61.9992 102.326 61.1227C102.816 59.8259 103.013 58.4365 102.902 57.0545C102.791 55.6725 102.375 54.3323 101.684 53.1305C101.425 52.7183 101.135 52.3265 100.816 51.9586H140.92V143.365C140.92 143.986 140.673 144.583 140.234 145.022C139.794 145.462 139.198 145.709 138.577 145.709ZM145.608 44.9274C145.608 45.549 145.361 46.1451 144.921 46.5846C144.482 47.0242 143.886 47.2711 143.264 47.2711H94.7204C94.1707 45.5309 93.1208 43.9911 91.7016 42.8438V28.5211H143.264C143.886 28.5211 144.482 28.768 144.921 29.2076C145.361 29.6471 145.608 30.2433 145.608 30.8649V44.9274Z" fill="#DBAB33"/>
<path d="M75.2954 49.6153C71.587 49.6153 67.9619 50.7149 64.8784 52.7752C61.795 54.8355 59.3918 57.7638 57.9726 61.19C56.5535 64.6161 56.1822 68.3861 56.9057 72.0232C57.6291 75.6604 59.4149 79.0013 62.0371 81.6235C64.6594 84.2458 68.0003 86.0315 71.6374 86.755C75.2746 87.4785 79.0446 87.1072 82.4707 85.688C85.8968 84.2689 88.8252 81.8656 90.8854 78.7822C92.9457 75.6988 94.0454 72.0737 94.0454 68.3653C94.0398 63.3942 92.0626 58.6283 88.5475 55.1132C85.0324 51.5981 80.2665 49.6209 75.2954 49.6153ZM75.2954 82.4278C72.5141 82.4278 69.7952 81.603 67.4827 80.0578C65.1701 78.5126 63.3677 76.3164 62.3033 73.7468C61.239 71.1772 60.9605 68.3497 61.5031 65.6218C62.0457 62.894 63.385 60.3883 65.3517 58.4216C67.3184 56.4549 69.8241 55.1156 72.5519 54.573C75.2798 54.0304 78.1073 54.3089 80.6769 55.3732C83.2465 56.4376 85.4427 58.24 86.9879 60.5526C88.5331 62.8651 89.3579 65.584 89.3579 68.3653C89.3542 72.0937 87.8714 75.6684 85.235 78.3049C82.5985 80.9413 79.0239 82.4241 75.2954 82.4278Z" fill="white"/>
</g>
<defs>
<clipPath id="clip0_56_3">
<rect width="150" height="150" fill="white" transform="translate(0.29538 0.39653)"/>
</clipPath>
</defs>
</svg>
