<svg width="250" height="250" viewBox="0 0 250 250" fill="none" xmlns="http://www.w3.org/2000/svg">
<path d="M66.25 18.25H114.25C121.761 18.25 128.126 23.6561 129.776 30.7275L129.956 31.5H149.75C159.253 31.5 167 38.8564 167 47.75V139.608L167.848 139.738C170.903 140.208 173.006 141.37 175.029 142.383C176.354 143.172 177.668 143.693 179.184 144.198L180.414 144.609L180.498 143.314C180.745 139.486 181.358 135.781 183.039 132.626C184.648 129.606 187.269 127.026 191.657 125.351L192.088 125.191L192.102 125.187C193.546 124.645 194.993 125.329 195.563 126.852C196.105 128.296 195.421 129.742 193.898 130.312C191.669 131.102 189.768 132.204 188.389 134.255C187.027 136.28 186.257 139.111 186.002 143.188L185.909 144.668L187.316 144.198C188.841 143.69 190.163 143.165 191.496 142.368C193.222 141.382 195.121 140.378 197.664 139.786C200.206 139.195 203.447 139.005 207.836 139.736C213.605 140.698 219.679 143.837 225.06 148.974L225.068 148.981C234.054 157.36 237.298 168.542 236.472 180.116C235.644 191.709 230.728 203.655 223.449 213.401L223.447 213.404C211.323 229.735 196.053 235.54 183.94 229.603L183.513 229.393L183.081 229.592C179.964 231.03 176.607 231.75 173.25 231.75C169.196 231.75 165.095 230.557 160.926 228.595L160.415 228.354L159.945 228.668C157.096 230.568 153.536 231.75 150 231.75H30.75C21.2466 231.75 13.5 224.394 13.5 215.5V47.75C13.5 38.8564 21.2466 31.5 30.75 31.5H50.5439L50.7236 30.7275C52.3736 23.6561 58.739 18.25 66.25 18.25ZM30.75 37C24.2959 37 19 41.6044 19 47.75V215.5C19 221.38 24.2785 226.25 30.75 226.25H150C151.177 226.25 152.31 225.953 153.621 225.429L155.23 224.785L153.868 223.714C150.454 221.031 147.01 217.349 143.794 213.143L143.792 213.14L143.174 212.325C136.85 203.853 132.418 193.595 130.99 183.361L130.87 182.5H81.25C79.8023 182.5 78.5 181.198 78.5 179.75C78.5 178.302 79.8023 177 81.25 177H130.25V176C130.25 165.983 133.665 156.27 141.673 148.99L141.674 148.988C147.308 143.844 153.12 140.715 158.861 139.745C159.298 139.734 159.662 139.662 159.946 139.605C160.263 139.542 160.486 139.5 160.75 139.5H161.75V47.75C161.75 41.8702 156.471 37 150 37H130.5V43.25C130.5 47.1776 127.218 50.25 123.5 50.25H57.25C53.3023 50.25 50.25 47.1977 50.25 43.25V37H30.75ZM66.5 23.75C61.035 23.75 56.5509 27.9175 56.0479 33.25H55.75V43.25C55.75 43.7002 55.9651 44.0667 56.1992 44.3008C56.4333 44.5349 56.7998 44.75 57.25 44.75H123.75C124.2 44.75 124.567 44.5349 124.801 44.3008C125.035 44.0667 125.25 43.7002 125.25 43.25V34.25C125.25 28.4477 120.552 23.75 114.75 23.75H66.5ZM181 150.204L180.225 150.025C177.114 149.308 174.977 148.121 172.947 147.105C170.427 145.845 168.248 144.75 164.5 144.75C163.156 144.75 161.781 145.021 160.108 145.26L160.097 145.262L160.086 145.264C155.347 146.054 150.424 148.67 145.817 153.019C138.031 160.286 135.484 170.439 136.441 180.779C137.398 191.111 141.854 201.722 148.203 210.104L148.204 210.106C152.259 215.429 157.68 220.675 163.607 223.703C169.555 226.742 176.13 227.591 182.27 223.854L182.312 223.829L182.35 223.8C182.961 223.342 184.01 223.272 184.985 223.857L184.994 223.862C191.128 227.463 197.693 226.616 203.639 223.611C209.566 220.616 214.988 215.433 219.046 210.106L219.053 210.096C225.272 201.718 229.725 191.111 230.745 180.754C231.766 170.389 229.35 160.177 221.695 152.781L221.68 152.767L221.664 152.753L220.803 152.005C216.478 148.337 211.876 145.757 207.414 145.014L207.402 145.012L206.789 144.922C203.776 144.507 201.566 144.579 199.691 144.992C197.697 145.432 196.15 146.245 194.526 147.119L194.497 147.135L194.47 147.152C192.512 148.376 190.399 149.542 187.348 150.012L186.5 150.142V163.403L187.642 163.24C191.306 162.717 194.424 161.406 198.447 159.395L198.472 159.382L198.496 159.368C199.711 158.674 201.373 159.168 202.132 160.496C202.823 161.706 202.336 163.358 201.021 164.121C194.627 167.314 189.789 168.75 183.75 168.75C177.673 168.75 172.593 167.545 166.495 164.132H166.496C165.168 163.373 164.674 161.711 165.368 160.496C166.127 159.168 167.789 158.674 169.004 159.368L169.01 159.372C173.104 161.675 176.221 162.721 179.858 163.24L181 163.403V150.204Z" fill="#DBAB33" stroke="#0C4745" stroke-width="2"/>
<path d="M58.5097 76.6504C59.6331 75.3403 61.2547 75.3481 62.3593 76.2686C63.4435 77.172 63.6208 79.042 62.7314 80.1094L47.9853 97.6055L47.9492 97.6484L47.9179 97.6953C47.6261 98.1331 46.9587 98.5 46.25 98.5H46C45.3573 98.5 44.8554 98.2001 44.0966 97.6953L36.3925 91.2334L36.3633 91.209L36.331 91.1865L36.2236 91.1045C35.1478 90.2323 35.0891 88.5061 36.0185 87.3906L36.042 87.3613L36.0634 87.3311C36.9051 86.1527 38.7078 86.0585 39.8593 87.0176L44.8525 91.2617L45.6162 91.9111L46.2636 91.1455L58.5097 76.6504Z" fill="white" stroke="#0C4745" stroke-width="2"/>
<path d="M58.4736 127.69C59.6778 126.5 61.3344 126.414 62.3593 127.268C63.4435 128.171 63.6209 130.042 62.7314 131.109L47.9853 148.605L47.9492 148.648L47.9179 148.695C47.626 149.133 46.9585 149.5 46.25 149.5H46C45.3574 149.5 44.8553 149.2 44.0966 148.695L36.3925 142.233L36.3633 142.208L36.331 142.186C35.1528 141.344 35.059 139.541 36.0185 138.39L36.042 138.361L36.0634 138.331C36.9052 137.153 38.7078 137.058 39.8593 138.018L44.8525 142.262L45.6162 142.911L46.2636 142.145L58.4736 127.69Z" fill="white" stroke="#0C4745" stroke-width="2"/>
<path d="M58.4736 178.69C59.6778 177.5 61.3344 177.414 62.3593 178.268C63.4435 179.171 63.6209 181.042 62.7314 182.109L47.9853 199.605L47.9492 199.648L47.9179 199.695C47.626 200.133 46.9585 200.5 46.25 200.5H46C45.3574 200.5 44.8553 200.2 44.0966 199.695L36.3925 193.233L36.3633 193.208L36.331 193.186C35.1527 192.344 35.059 190.541 36.0185 189.39L36.042 189.361L36.0634 189.331C36.9052 188.153 38.7078 188.058 39.8593 189.018L44.8525 193.262L45.6162 193.911L46.2636 193.145L58.4736 178.69Z" fill="white" stroke="#0C4745" stroke-width="2"/>
<path d="M81.25 126.25H142.5C143.948 126.25 145.25 127.552 145.25 129C145.25 130.448 143.948 131.75 142.5 131.75H81.25C79.8023 131.75 78.5 130.448 78.5 129C78.5 127.552 79.8023 126.25 81.25 126.25Z" fill="white" stroke="#0C4745" stroke-width="2"/>
<path d="M81.25 144.75H105.25C106.698 144.75 108 146.052 108 147.5C108 148.948 106.698 150.25 105.25 150.25H81.25C79.8023 150.25 78.5 148.948 78.5 147.5C78.5 146.052 79.8023 144.75 81.25 144.75Z" fill="white" stroke="#0C4745" stroke-width="2"/>
<path d="M81.25 75H142.5C143.948 75 145.25 76.3023 145.25 77.75C145.25 79.1977 143.948 80.5 142.5 80.5H81.25C79.8023 80.5 78.5 79.1977 78.5 77.75C78.5 76.3023 79.8023 75 81.25 75Z" fill="white" stroke="#0C4745" stroke-width="2"/>
<path d="M81.25 93.75H105.25C106.698 93.75 108 95.0523 108 96.5C108 97.9477 106.698 99.25 105.25 99.25H81.25C79.8023 99.25 78.5 97.9477 78.5 96.5C78.5 95.0523 79.8023 93.75 81.25 93.75Z" fill="white" stroke="#0C4745" stroke-width="2"/>
<path d="M81.25 195.75H105.25C106.904 195.75 108 197.008 108 198.5C108 199.948 106.698 201.25 105.25 201.25H81.25C79.8023 201.25 78.5 199.948 78.5 198.5C78.5 197.052 79.8023 195.75 81.25 195.75Z" fill="white" stroke="#0C4745" stroke-width="2"/>
</svg>
