<svg width="272" height="245" viewBox="0 0 272 245" fill="none" xmlns="http://www.w3.org/2000/svg">
<path d="M81.4727 61.4182C81.2949 62.158 80.5215 62.3466 79.7969 61.8269C78.8626 61.1567 76.226 60.03 74.7569 59.6734C72.1549 59.0416 69.3068 59.2174 66.8094 60.1872C61.5522 62.2287 58.5937 68.7599 59.0238 74.1654C59.1565 75.8325 59.2882 76.284 59.4966 76.8821C59.666 77.3681 60.1584 77.6625 60.6671 77.5848C60.9674 77.5389 61.4101 77.4799 62.0772 77.4012C68.348 76.6612 82.489 72.0307 85.7288 70.0849C86.5494 69.5922 86.9357 69.4554 87.2957 69.5298C87.8359 69.6416 88.202 70.2101 88.061 70.7186C87.9864 70.9878 87.931 71.0379 87.1118 71.576C82.0007 74.9327 66.9384 79.0733 62.7804 79.5316C62.2028 79.5952 61.7319 79.6683 61.7283 79.6946C61.7132 79.8094 63.4737 80.6227 64.6686 81.053C66.9188 81.863 68.7964 82.2765 71.7869 82.6205C73.7649 82.8481 76.9669 83.1218 77.0421 83.0696C77.1093 83.0229 76.8289 78.9333 76.8276 78.9103C76.7558 77.6814 76.8331 77.3012 77.2113 77.0215C77.4341 76.8567 77.5722 76.8277 77.9017 76.877C78.4123 76.9534 78.6977 77.2794 78.7375 77.8316C78.8115 78.8526 79.9037 89.1738 79.8498 89.763C79.7829 90.4955 78.963 91.0456 78.2126 90.5646C77.6439 90.2002 77.7351 90.2616 77.2833 85.2304L77.0253 85.2457C76.0276 85.3045 71.295 84.8231 68.8099 84.4098C64.9784 83.7728 61.8838 82.4986 59.3136 80.5002C58.2076 79.6401 57.8786 79.1378 57.3934 77.5685C57.1929 76.9196 57.0109 76.2267 56.9907 76.035C56.3446 69.8946 58.4348 61.8372 64.4684 58.8761C68.8355 56.7326 72.8193 56.6016 76.4455 57.9283C77.5758 58.3418 80.4619 59.8155 80.9258 60.2158C81.4031 60.628 81.5729 61.0016 81.4727 61.4182Z" fill="#DBAB33"/>
<path d="M88.1546 67.8496C88.1244 68.4509 87.669 68.9069 87.0429 68.9634C86.336 69.0271 83.5803 68.748 82.8792 68.5417C81.3895 68.1032 80.3862 67.4126 80.0126 66.5687C79.4934 65.3956 80.4594 63.1217 82.2047 62.2332C82.7213 61.9703 83.3648 61.8441 83.6501 61.9498C83.7824 61.9988 84.1765 62.2877 84.517 62.5852C85.0291 63.0326 85.4025 63.4706 86.595 65.0232C87.9986 66.8504 88.0506 66.9289 88.106 67.2989C88.1379 67.512 88.1596 67.7561 88.1546 67.8496ZM83.1494 64.0222C82.9685 63.9513 82.4963 64.4476 82.2047 65.0148C82.0723 65.2728 81.9746 65.559 81.9848 65.6592C82.0235 66.0376 83.6794 66.6152 84.8397 66.6547L85.2928 66.6703C85.0381 66.3484 83.3137 64.0867 83.1494 64.0222Z" fill="#DBAB33"/>
<path d="M62.2163 84.3904C62.0544 84.6935 62.0244 84.7133 61.2521 85.0238C58.8721 85.9807 50.0195 91.084 44.5437 95.29C40.3534 98.5085 36.7686 101.941 33.3133 106.044C26.8964 113.664 24.9972 119.209 24.988 119.226C30.5344 119.259 33.1148 119.036 35.3979 119.042C39.5166 119.053 44.2869 119.839 48.2075 121.151C48.6989 121.315 48.8287 121.399 49.0441 121.69C49.2655 121.989 49.2909 122.089 49.2375 122.446C49.1871 122.784 49.1236 122.897 48.8869 123.072C48.7268 123.19 48.4721 123.307 48.3154 123.333C48.1515 123.361 47.3469 123.177 46.4013 122.896C38.6222 120.585 34.0537 121.356 25.8811 121.453C25.8811 121.453 25.2854 122.659 25.1237 122.952C23.9801 125.029 21.1756 131.812 21.8091 136.777C21.9147 137.605 22.1835 138.601 22.5702 139.597C22.8516 140.322 22.9809 140.543 23.6833 141.499C24.3807 142.448 24.5781 142.665 25.2945 143.27C26.0359 143.895 26.8153 144.59 27.686 145.036C29.1157 145.769 30.8397 146.196 32.4295 146.398C41.2161 147.515 54.9257 141.601 61.8205 139.035C76.642 133.52 76.0955 132.944 77.033 133.826C77.4391 134.208 77.3667 135.076 76.9001 135.422C76.7516 135.531 76.7606 135.568 77.0232 135.923C78.2078 137.525 76.3794 138.837 75.4934 137.27C75.3217 136.966 75.1825 136.819 74.9268 136.671C74.2816 136.298 75.0536 136.429 62.9024 140.971C62.1894 141.238 60.2252 141.99 58.5334 142.645C53.4222 144.623 48.2133 146.461 42.8634 147.685C40.134 148.31 37.3104 148.813 34.4989 148.728C32.148 148.657 29.1908 148.372 27.1056 147.228C25.1438 146.152 23.213 144.645 21.8851 142.829C19.5347 139.615 18.935 135.203 20.1569 130.112C21.376 125.032 23.783 121.245 23.7887 121.223C23.7925 121.209 23.6506 121.11 23.4811 121.009C23.0857 120.774 22.765 120.236 22.7239 119.738C22.4994 117.018 30.9404 101.814 46.5886 91.0636C50.8382 88.1442 59.1231 83.3082 61.0313 83.0064C61.9663 82.8582 62.6243 83.6266 62.2163 84.3904Z" fill="#DBAB33"/>
<path d="M82.8783 76.0621C82.6694 76.2166 82.1655 76.2614 81.9019 76.1488C80.9607 75.7468 81.1502 74.486 82.1562 74.2994C82.7028 74.198 83.1822 74.5553 83.2748 75.1333C83.3202 75.4174 83.122 75.8818 82.8783 76.0621Z" fill="#DBAB33"/>
<path d="M84.4302 73.6162C84.6937 73.5474 85.1545 73.6885 85.3927 73.9109C86.0468 74.5216 86.5885 77.7123 86.4669 80.2368C86.4136 81.3427 86.0415 83.3914 85.7801 84.019C84.9999 85.8914 83.5892 87.1802 81.9038 87.5602C81.119 87.737 80.4376 87.1675 80.5329 86.4144C80.5957 85.9182 80.8556 85.6769 81.6803 85.35C82.3051 85.1023 82.4108 85.0349 82.7782 84.65C83.2153 84.1922 83.7525 83.4182 83.691 83.3352C83.582 83.1878 82.1239 83.3385 82.3046 82.1308C82.3536 81.8035 82.4219 81.6778 82.6378 81.5181C83.1636 81.1292 84.0624 81.3121 84.1547 81.3117L84.2694 80.3382C84.5632 77.8456 84.0033 75.3108 83.8512 75.1053C83.4752 74.5968 83.7917 73.7829 84.4302 73.6162Z" fill="#DBAB33"/>
<path d="M106.365 115.054C105.24 116.075 104.752 116.309 101.697 117.291C100.287 117.744 99.0955 118.144 99.0437 118.182C98.8593 118.318 98.7675 119.378 97.8368 119.674C96.4384 120.119 94.5048 122.484 85.8406 126C82.0459 127.54 80.4424 128.084 78.065 128.639C75.2417 129.297 75.972 128.877 74.8922 128.667C74.4453 128.581 74.2569 128.437 72.993 127.218C72.0336 126.292 71.8367 126.058 70.5304 124.299C69.0903 122.36 68.7576 122.074 66.1156 116.071C65.8331 115.429 65.5786 114.903 65.5471 114.897C65.5159 114.891 65.1821 115.255 64.8112 115.701C61.08 120.183 55.8653 123.768 54.7899 123.479C54.448 123.387 54.0867 122.932 54.078 122.583C54.0499 121.464 55.3633 121.847 60.0542 117.512C61.5081 116.169 61.8335 115.826 63.3645 114.022L64.5156 112.665L63.9888 111.536C62.5676 108.49 62.1877 107.332 61.3728 103.561C60.889 101.323 60.901 100.937 61.4664 100.518C61.717 100.333 61.8498 100.297 62.131 100.339C62.6157 100.412 62.8772 100.768 63.0081 101.533C63.1627 102.436 63.9196 105.296 64.3788 106.713C64.7981 108.006 65.5335 109.694 67.2545 113.311C69.6394 118.324 70.9207 122.643 75.6737 126.732C75.8446 126.879 76.9335 126.701 78.6536 126.245C80.8103 125.672 85.6098 123.823 88.7136 122.369C90.6175 121.477 96.3759 118.239 96.4051 118.044C96.4117 117.999 94.147 114.742 93.9048 114.766C93.0808 114.845 90.1217 116.229 84.0541 116.303C80.9473 116.34 78.2065 116.402 77.9193 116.441C77.4804 116.5 77.0429 116.229 76.8909 115.803C76.6803 115.212 77.0692 114.651 77.8006 114.489C78.1894 114.403 78.2186 114.384 78.1363 114.273C77.9293 113.993 76.8674 103.838 74.8628 98.4192C73.8302 95.6281 72.0147 93.6424 70.0215 93.124C69.6335 93.0231 69.2542 92.8606 69.1361 92.7447C68.7056 92.3224 68.8711 91.5089 69.4436 91.2343C69.8086 91.059 70.1132 91.0741 70.9057 91.3067C72.3529 91.7313 73.8222 92.7581 74.9491 94.1328L75.6034 94.9309L75.4108 94.1792C74.9013 92.1902 74.4663 91.0644 73.5363 89.3285C73.0154 88.3564 72.9566 88.0746 73.1919 87.6805C73.37 87.3823 73.4532 87.314 73.715 87.2517C73.8166 87.2274 74.0373 87.2344 74.2112 87.2672C74.5002 87.3219 74.5598 87.3756 74.9863 87.9651C75.9019 89.2306 76.7944 91.1843 77.3881 93.2227C78.3073 96.3777 79.0401 99.8116 78.9388 100.489C78.8769 100.903 78.632 101.224 78.3107 101.314C78.1055 101.372 78.0032 101.569 78.1061 101.708C78.1504 101.768 78.8091 104.98 79.2611 107.338C79.5647 108.923 80.2087 113.643 80.1716 114.011C80.1552 114.174 80.1854 114.283 80.2486 114.288C80.5005 114.311 85.891 114.053 86.8752 113.97C91.1547 113.614 92.8594 112.422 94.3824 112.586L94.8856 112.64C95.1368 112.314 96.7476 108.714 100.929 106.64C102.095 106.061 102.457 106.015 103.353 106.333C104.485 106.736 106.875 108.705 107.962 110.131C109.262 111.839 107.957 113.608 106.365 115.054ZM103.56 108.97C102.591 108.286 102.579 108.284 101.968 108.585C97.7519 110.661 96.3733 114.151 96.3593 114.167C96.37 114.181 98.0152 116.314 97.9307 116.204L102.893 114.626C103.24 114.515 103.567 114.347 103.859 114.13C104.734 113.479 105.442 112.992 105.834 112.472C106.301 111.851 106.359 111.652 106.152 111.372C105.835 110.944 104.171 109.402 103.56 108.97Z" fill="#DBAB33"/>
<path d="M122.548 57.007C121.471 57.0529 119.099 58.1402 115.63 60.1786C113.452 61.458 109.072 64.8575 110.271 64.3371C112.465 63.3851 118.851 60.7301 119.358 60.5592C120.203 60.2743 120.634 60.2286 120.961 60.3888C121.755 60.7786 121.708 61.7835 120.873 62.2287C120.678 62.3331 119.392 62.8907 118.011 63.4701C109.239 67.1504 108.941 67.2538 107.787 67.0199C106.918 66.8438 106.479 66.2396 106.605 65.3951C106.705 64.7282 107.313 63.8907 108.611 62.6313C109.115 62.1422 112.694 59.3839 113.311 59.0089C117.286 56.5918 120.722 55.0768 122.351 55.0223C123.203 54.9938 123.833 55.5262 123.731 56.189C123.648 56.7342 123.3 56.9749 122.548 57.007Z" fill="#DBAB33"/>
<path d="M152.709 143.885C154.304 147.766 155.419 151.5 156.317 155.963C157.171 160.211 157.533 163.007 157.722 166.827C157.989 172.22 157.891 174.11 157.181 177.317C155.645 184.252 154.248 182.028 152.041 187.829C151.83 188.385 151.34 189.459 150.953 190.217C150.367 191.362 150.118 191.751 149.478 192.52C147.682 194.678 147.259 195.023 146.544 194.916C146.022 194.838 145.669 194.411 145.699 193.893C145.724 193.474 145.835 193.303 146.653 192.414C150.831 187.875 149.236 186.394 152.761 182.118C153.698 180.982 154.123 180.177 154.559 178.709C155.884 174.252 155.763 171.51 155.526 166.868C155.361 163.625 155.192 162.117 154.64 158.959C153.171 150.552 151.524 145.807 146.909 136.692C142.605 128.193 141.711 125.404 140.418 115.5C139.859 111.219 138.94 101.263 139.117 96.9757C139.158 95.9757 139.158 95.1889 139.118 95.2188C139.103 95.2295 121.163 105.473 115.307 107.876C112.251 109.129 110.675 110.497 109.816 109.336C109.59 109.03 109.564 108.931 109.618 108.572C109.739 107.762 110.277 107.844 112.418 106.781C116.366 104.821 112.724 107.393 136.126 94.3778C139.271 92.629 139.441 92.5241 139.424 92.3531C139.387 91.9874 140.031 88.9024 140.303 88.1478C140.679 87.099 141.216 86.1107 141.556 85.8377C141.705 85.7183 141.821 85.6129 141.814 85.6033C141.72 85.4763 137.023 84.9353 131.486 79.4272C129.917 77.8669 127.777 74.8452 125.202 70.556C123.55 67.8032 123.468 67.5944 123.806 66.9959C124.119 66.4428 124.656 66.2794 125.2 66.5721C125.478 66.7217 125.571 66.858 126.822 68.9592C130.068 74.4083 132.828 78.9716 138.508 81.9892C141.39 83.5204 143.801 84.0423 147.812 83.3003C150.079 82.8812 151.167 82.3747 153.182 80.8025C154.68 79.6338 155.068 79.2013 156.252 77.3799C157.008 76.2172 157.593 75.0043 157.95 73.8641C158.068 73.4851 158.265 73.0613 158.382 72.9342C158.68 72.6112 159.184 72.5446 159.621 72.7704C159.896 72.9121 159.965 72.9898 160.063 73.2626C160.202 73.6524 160.089 73.8399 159.435 75.6981C159.164 76.4697 158.555 77.6972 158.563 77.6791C164.54 75.6593 161.047 76.8606 165.96 75.2564L168.341 73.4951C173.539 69.6502 173.129 69.3887 174.088 69.4683C175.063 69.5493 175.318 70.637 174.497 71.2166C174.158 71.4565 172.102 73.2792 172.09 73.3507C172.087 73.3706 172.392 73.2927 172.77 73.1772C174.194 72.7425 176.626 72.3569 177.697 72.3965C178.016 72.4082 178.744 72.5652 179.327 72.7481C180.677 73.1713 180.997 73.1362 181.757 72.4819C182.31 72.0061 184.028 70.0033 183.961 69.9127C183.861 69.7785 180.76 69.6633 179.032 69.7297C177.789 69.7775 176.451 69.8609 176.582 68.6165C176.621 68.2417 176.661 68.1708 176.95 67.9642C178.415 66.9169 185.227 68.1204 185.433 67.9565C185.485 67.9147 185.774 67.3982 186.077 66.8035C186.727 65.5308 186.731 65.4503 186.239 63.9828C185.522 61.8432 184.842 61.0137 184.509 60.4156L184.43 60.7026C184.241 61.3951 183.573 61.6895 182.872 61.3894C182.653 61.2959 181.525 60.5543 180.357 59.7373C177.888 58.0088 177.726 57.8373 177.869 57.1037C178.008 56.384 178.573 56.1192 179.708 56.2411C180.246 56.299 180.882 56.5761 181.075 56.8368C181.255 57.0805 181.369 57.5618 181.277 57.6926C181.243 57.7412 181.747 58.1171 182.515 58.6156C183.228 59.0788 183.823 59.4224 183.84 59.3804C183.856 59.3384 183.427 58.7057 182.881 57.9675C180.724 55.0521 179.828 54.9713 175.984 55.2254C172.256 55.472 168.561 55.0986 168.308 55.0872C168.306 55.1119 168.115 57.7773 167.595 60.0786C166.941 62.9741 167.016 64.0646 166.664 64.442C166.124 65.022 165.226 64.8648 164.868 64.1275C164.685 63.7492 164.892 62.2211 165.519 59.3266C165.942 57.378 166.281 55.113 166.172 54.9658C166.149 54.9352 165.211 54.8469 164.088 54.7696C159.199 54.4334 148.506 53.2629 148.058 53.2111C140.915 52.3834 135.926 52.5513 135.912 52.5617C135.835 52.6188 135.44 55.5714 135.258 57.4509C134.995 60.1772 134.677 61.6194 134.201 62.249C134.027 62.4794 133.942 62.5328 133.665 62.5868C133.297 62.6582 132.797 62.4916 132.607 62.2348C132.398 61.9527 132.384 61.2778 132.572 60.6002C132.82 59.7072 133.053 57.0724 133.475 54.3429L133.752 52.5546C133.093 52.5938 130.521 52.7147 129.114 52.8514C127.586 52.9997 125.029 53.4296 124.706 53.5923C124.353 53.7705 123.82 53.6856 123.541 53.4071C123.138 53.0048 123.267 52.2141 123.798 51.8256C123.906 51.7469 124.322 51.602 124.724 51.5037C129.544 50.322 133.545 50.4681 134.08 50.3464C134.121 50.337 134.193 50.1284 134.243 49.8755C134.316 49.5059 134.388 49.3802 134.632 49.1999C134.987 48.9373 135.328 48.9163 135.697 49.1343C136.006 49.3174 136.154 49.6035 136.165 50.0378L136.171 50.3344C148.918 50.6028 153.307 51.8654 164.916 52.6273L166.66 52.7417C166.786 52.5029 166.896 51.7091 167.641 51.5634C168.238 51.4466 168.821 51.9301 168.877 52.5886L168.905 52.923L169.382 52.9699C170.857 53.1152 174.404 53.1729 175.488 53.0691C179.763 52.6593 181.573 53.1468 183.555 55.2402C184.254 55.9794 184.885 56.852 185.966 58.5732C187.356 60.7872 187.775 61.6335 188.384 63.4632C189.015 65.3558 188.979 65.9153 188.119 67.6266C187.35 69.1561 186.767 70.0221 185.229 71.9189C183.688 73.8202 183.982 73.4889 181.891 75.0523C181.399 75.0802 180.578 75.4753 178.698 74.8507C177.757 74.538 177.313 74.5283 175.715 74.785C174.306 75.0115 173.611 75.1878 171.588 75.8322C169.617 76.4602 167.178 77.1808 167.196 77.1753C161.293 81.3539 157.753 84.3038 147.448 90.4547C145.087 91.8641 142.08 93.6068 141.71 93.7798C141.519 93.8692 141.487 93.9832 141.431 94.7677C141.072 99.8263 141.398 101.697 141.859 108.164C143.415 129.989 147.52 131.256 152.709 143.885ZM153.848 83.887C155.629 82.7123 160.253 79.5057 160.263 79.4381C160.28 79.3226 157.665 80.4439 157.146 80.4082C156.844 80.3875 156.833 80.3937 156.435 80.8448C155.788 81.5756 154.411 82.7543 153.505 83.3509C151.441 84.7111 149.655 85.3366 146.917 85.658C146.4 85.7188 145.614 85.7665 144.9 85.7904C144.588 85.8008 144.288 85.9089 144.04 86.0989C143.561 86.4667 143.206 86.8799 142.931 87.3267C142.226 88.4741 142.056 89.8423 141.718 91.2268C141.734 91.218 147.74 87.9152 153.848 83.887Z" fill="#DBAB33"/>
<path d="M109.548 69.1416C110.297 68.8288 111.104 69.2753 111.083 69.9905C111.073 70.3051 110.789 70.7613 110.539 70.8611C109.359 71.3338 104.49 81.7652 104.153 82.4413C104.306 82.6559 106.187 82.5923 104.699 86.6894C103.887 88.9264 102.407 91.6719 101.752 92.1565C100.958 92.7436 99.9555 92.0315 100.232 91.0772C100.408 90.47 102.186 87.4294 102.68 85.8676L102.822 85.4188L102.522 85.4361C101.641 85.4872 101.102 84.7385 101.303 83.7436C101.656 81.9974 107.559 69.9723 109.548 69.1416Z" fill="#DBAB33"/>
<path d="M113.248 68.3632C113.74 67.5281 114.114 67.1264 114.538 66.9764C114.906 66.8468 115.56 67.0031 115.755 67.2671C116.1 67.7337 115.949 68.5143 115.476 68.7099C115.074 68.8761 114.089 71.0579 112.904 74.4076C108.06 88.1005 108.206 102.219 107.322 104.536C107.296 104.605 107.142 104.759 106.982 104.878C106.613 105.151 105.988 105.126 105.667 104.827C104.955 104.162 105.408 103.942 105.745 100.126C106.564 90.83 108.489 76.4429 113.248 68.3632Z" fill="#DBAB33"/>
<path d="M68.052 122.372C68.3983 122.644 68.5207 122.934 68.4598 123.341C68.3494 124.079 67.9707 124.253 66.1772 124.391C58.9543 124.948 52.6189 126.472 45.5321 128.301C41.6697 129.298 40.6179 129.617 39.9885 129.982C39.4907 130.27 39.3807 130.301 39.0713 130.236C38.4118 130.097 38.1343 129.368 38.505 128.748C38.6819 128.452 39.1031 128.129 39.5911 127.915C40.7355 127.414 45.2859 126.061 48.2354 125.344C56.0978 123.435 59.6981 122.792 65.552 122.25C67.3767 122.081 67.7013 122.097 68.052 122.372Z" fill="#DBAB33"/>
<path d="M145.752 55.4061C145.528 55.4895 145.528 55.4986 145.772 55.9212C146.099 56.4875 146.13 56.9155 145.868 57.2669C145.701 57.4918 145.602 57.5577 145.335 57.6239C144.561 57.8157 144.024 56.9069 143.741 56.6483C143.728 56.6607 142.018 58.0968 141.306 59.2982C140.97 59.8642 140.69 60.0243 140.172 59.9451C139.455 59.8357 139.097 58.9484 139.451 58.1599C139.864 57.2403 142.038 55.1919 143.736 54.1233C145.023 53.3138 145.63 53.2601 146.113 53.9134C146.499 54.4356 146.315 55.1966 145.752 55.4061Z" fill="#DBAB33"/>
<path d="M132.125 63.6499C132.803 63.5132 132.749 63.8789 152.935 65.5399C162.415 66.3199 165.515 66.7454 170.259 67.1312C170.253 67.083 169.575 65.9105 170.594 65.4141C171.251 65.0939 173.464 65.1382 174.287 65.488C174.86 65.7317 175.261 66.1879 175.36 66.7087C175.544 67.681 174.617 68.2818 173.833 67.698C173.318 67.3142 173.132 67.2485 172.449 67.2079C172.01 67.1817 171.732 67.2162 171.601 67.3131C171.496 67.3904 171.271 67.4544 171.116 67.4512C170.842 67.4452 170.829 67.4537 170.878 67.5998C171.042 68.0819 171.048 68.3516 170.901 68.6251C170.496 69.3785 170.046 69.4055 165.816 68.9304C156.899 67.9287 141.015 66.9323 134.317 65.8923C131.669 65.4812 131.54 65.4507 131.348 65.1909C130.907 64.5953 131.3 63.8162 132.125 63.6499Z" fill="#DBAB33"/>
<path d="M100.908 101.572C100.53 101.592 100.12 101.367 99.9547 101.047C99.6738 100.503 100.009 99.9572 100.143 99.4752C99.8405 99.3447 98.904 99.3047 98.6944 98.446C98.501 97.6544 98.7696 97.0798 100.491 94.6013C101.655 92.9265 101.907 92.6239 102.229 92.5229C102.3 92.5004 102.508 92.4996 102.685 92.5211C102.948 92.553 103.057 92.6231 103.252 92.8877C103.663 93.4422 103.609 93.5735 101.93 96.1241C101.539 96.7174 101.212 97.2477 101.202 97.3023C101.192 97.3579 101.315 97.4661 101.482 97.5475C101.905 97.7541 102.33 98.353 102.41 98.8544C102.582 99.9441 101.706 101.528 100.908 101.572Z" fill="#DBAB33"/>
<path d="M47.5712 158.894C48.1227 159.014 48.4134 159.394 48.3363 159.895C48.2553 160.421 48.0779 160.579 47.2343 160.881C45.9107 161.353 40.3334 164.057 32.1941 167.795C25.5608 170.842 23.2838 171.971 20.2831 173.698C16.3466 175.963 10.7904 179.743 8.25093 181.883C-15.5306 201.922 -16.8888 221.033 -17.6324 223.042C-18.0245 224.101 -19.8753 223.851 -19.6146 222.109C-19.5164 221.454 -18.706 217.935 -18.2871 216.346C-14.179 200.763 -0.31059 184.501 12.3169 176.093C16.3948 173.378 19.3847 171.595 22.7816 169.852C25.3906 168.514 25.987 168.229 31.3844 165.754C34.9711 164.11 43.3766 160.102 46.3597 159.087C47.0137 158.864 47.256 158.825 47.5712 158.894Z" fill="#DBAB33"/>
<path d="M71.0677 149.659C68.9135 150.374 67.7225 151.034 64.0467 153.551C59.5915 156.6 57.9366 157.522 55.5638 158.277C52.5811 159.225 50.7687 159.162 49.2274 158.056C46.86 156.358 47.8532 153.848 50.361 152.364C51.4741 151.705 52.8254 151.079 55.6163 149.93C59.8191 148.199 62.0099 147.136 64.3663 145.681C65.9343 144.714 70.9293 141.018 71.7463 140.222C72.2282 139.752 72.4526 139.579 72.7222 139.473C73.5753 139.136 74.1142 139.498 73.9524 140.355C73.8745 140.768 73.6486 141.136 73.3475 141.429C72.8104 141.951 72.0312 142.901 68.9019 145.216C65.0296 148.08 62.3178 149.553 56.5739 151.909C54.8096 152.633 48.9693 154.867 50.3199 156.117C51.2271 156.956 52.6525 156.947 55.2041 156.086C57.0422 155.466 58.5552 154.616 61.9406 152.305C65.9774 149.549 67.2135 148.807 68.9383 148.105C72.093 146.821 73.506 146.769 75.901 147.849C77.4005 148.524 78.1723 148.807 78.399 149.114C78.8779 149.761 78.4975 150.695 77.7025 150.823C77.3388 150.882 76.9483 150.758 75.8685 150.242C73.514 149.119 72.914 149.046 71.0677 149.659Z" fill="#DBAB33"/>
<path d="M110.707 162.145C110.81 162.561 110.632 163.04 110.277 163.303C110.082 163.447 109.917 163.483 109.598 163.449C109.241 163.412 109.072 163.321 108.483 162.852L107.789 162.299L107.349 162.652C106.568 163.277 99.2139 169.544 95.8717 171.659C95.05 172.179 93.2639 173.167 92.7316 172.974C92.4246 172.863 91.8419 172.178 89.3687 169.019C87.3578 166.452 85.4836 163.491 83.7726 160.178C82.5777 157.865 80.7192 153.464 79.6828 150.492C78.9039 148.259 76.6883 140.814 76.4719 139.244C76.451 139.093 76.4839 138.942 76.5611 138.811C76.9806 138.096 77.7162 137.303 78.2838 136.758C79.1987 135.881 80.1299 135.018 81.2974 134.49C82.284 134.044 83.4405 133.598 84.5411 133.607L84.8988 133.61C84.4413 131.925 85.0912 134.049 83.6127 129.294C83.4112 128.646 83.7591 128.093 84.4046 128.035C85.1503 127.967 85.3524 128.277 86.2339 130.835C86.6245 131.968 87.1311 133.677 87.36 134.634C88.3801 138.898 91.7058 147.906 92.5074 150.162C93.9922 154.343 95.5488 157.412 96.7785 158.583C97.0135 158.807 97.0806 158.817 97.6519 158.716C98.3564 158.59 102.557 157.235 102.574 157.127C102.616 156.858 93.6706 147.691 92.0784 145.557C91.5012 144.783 92.3669 143.716 93.3371 144.195C93.5249 144.288 94.1028 144.857 95.099 145.929C95.9174 146.811 96.9325 147.87 97.365 148.293C98.5039 149.408 100.773 151.804 102.824 154.058C103.808 155.14 104.7 156.093 104.81 156.181C104.991 156.327 105.105 156.312 106.063 156.019C108.198 155.366 109.525 155.097 110.897 155.04C112.36 154.979 112.857 155.097 113.226 155.596C113.511 155.982 113.517 156.455 113.242 156.958C112.959 157.475 112.31 158.173 110.703 159.685C109.738 160.594 109.516 160.837 109.592 160.901C110.497 161.665 110.623 161.805 110.707 162.145ZM104.338 158.916C102.88 159.337 98.1651 161.074 96.1531 160.799C95.8091 160.752 95.4982 160.569 95.2796 160.3C94.424 159.244 94.062 158.997 92.5748 156.145C91.2577 153.619 86.1558 138.984 85.5378 136.423C85.4407 136.021 85.3375 135.661 85.3083 135.623C85.2331 135.526 84.3529 135.567 83.904 135.688C82.7589 135.997 81.6833 136.566 80.7573 137.305C80.2949 137.673 79.8715 138.087 79.4932 138.542C79.4448 138.6 79.1947 138.924 78.9827 139.2C78.7985 139.439 78.7408 139.751 78.8276 140.04C79.6735 142.861 83.246 158.36 91.5899 168.313C92.197 169.037 92.783 169.779 93.3873 170.505C93.4631 170.596 93.647 170.692 93.8941 170.509C94.0542 170.355 94.39 170.09 94.549 169.965C95.1886 169.462 95.8409 168.975 96.4927 168.488C96.6629 168.361 96.8332 168.234 97.0036 168.107C101.892 164.467 106.107 160.792 106.115 160.758C106.126 160.713 104.4 158.979 104.338 158.916ZM109.794 157.588C109.888 157.491 109.804 157.33 109.671 157.351C108.818 157.491 106.722 158.095 106.745 158.171C106.759 158.219 107.01 158.502 107.298 158.796L107.824 159.332C108.503 158.71 109.368 158.032 109.794 157.588Z" fill="#DBAB33"/>
<path d="M99.1947 122.136C97.6474 124.376 96.8126 126.384 93.7108 129.285C92.6475 130.28 92.2776 130.551 91.9374 130.587C91.0751 130.678 90.4947 129.758 90.935 128.999C91.034 128.828 91.5171 128.315 92.0085 127.858C96.1469 124.01 97.3564 120.702 98.2898 120.359C99.1043 120.061 100.104 120.82 99.1947 122.136Z" fill="#DBAB33"/>
<path d="M47.9085 169.739C47.3193 167.277 47.0974 166.637 46.6014 165.966C45.7596 164.828 45.4991 164.849 45.3873 164.29C45.2617 163.661 45.759 163.079 46.3895 163.117C46.977 163.152 47.3683 163.471 48.1507 164.551C48.9941 165.716 49.293 166.432 49.9101 168.765C51.7808 175.84 50.535 180.945 52.9183 181.987C54.2243 182.558 57.596 182.097 63.4412 180.548C67.3138 179.522 70.0889 178.609 72.4966 177.572C74.2609 176.811 74.919 176.769 75.3758 177.387C75.7896 177.946 75.512 178.561 74.649 178.996C69.9266 181.379 58.4402 184.457 54.4209 184.417C47.6657 184.349 49.899 178.058 47.9085 169.739Z" fill="#DBAB33"/>
<path d="M99.8591 141.048C99.6376 141.943 98.6155 144.479 98.2744 144.979C97.1192 146.674 95.2547 145.339 96.2709 143.989C96.426 143.783 96.8054 143.008 97.1115 142.271C98.0183 140.089 98.118 138.741 97.4892 137.169C97.2569 136.588 96.3467 135.322 95.8314 134.862C94.2802 133.479 91.5389 133.09 89.5386 133.37C89.1459 133.425 88.7747 133.479 88.4741 133.147C87.8474 132.456 88.5805 131.562 89.2933 131.366C89.9535 131.185 90.6458 131.309 91.3161 131.356C93.3351 131.498 95.4187 131.942 97.0671 133.18C99.4714 134.986 100.58 138.135 99.8591 141.048Z" fill="#DBAB33"/>
<path d="M-22.0016 232.222C-24.4211 240.728 -24.1357 248.061 -26.3937 259.707C-27.4355 265.079 -29.1564 269.605 -31.6284 274.402C-37.1243 285.066 -42.0119 289.125 -42.4619 301.11C-42.5528 303.526 -42.4417 308.854 -42.2574 310.923C-42.145 312.187 -42.1592 312.444 -42.3611 312.786C-42.5763 313.15 -42.9333 313.292 -43.388 313.192C-43.697 313.125 -43.8166 313.046 -44.0123 312.782C-44.1462 312.601 -44.2923 312.276 -44.3393 312.054C-44.5122 311.239 -44.7069 306.186 -44.6913 302.921C-44.6222 288.588 -39.087 284.177 -33.5054 273.248C-31.1704 268.676 -29.598 264.714 -28.4631 258.846C-26.1891 247.09 -26.409 237.582 -23.4604 229.667C-22.9841 228.389 -22.0781 226.443 -21.6751 225.833C-21.2482 225.187 -20.6838 224.676 -20.3072 224.595C-19.6659 224.457 -19.1397 224.826 -19.083 225.454C-18.9927 226.451 -20.0645 225.411 -22.0016 232.222Z" fill="#DBAB33"/>
<path d="M41.0378 250.551C34.3221 247.169 24.0889 252.189 13.4544 252.996C9.63981 253.286 2.61037 252.677 -1.44629 251.706C-4.90212 250.878 -8.12435 248.706 -11.245 245.101C-12.0818 244.134 -12.4967 243.538 -14.0278 241.105C-16.0723 237.856 -16.6553 236.633 -17.6427 233.524C-18.2159 231.718 -18.376 230.853 -18.2751 230.103C-18.2061 229.589 -17.9274 228.945 -17.7044 228.784C-17.6452 228.742 -17.4696 228.679 -17.3037 228.642C-16.9887 228.571 -16.672 228.658 -16.3826 228.897C-16.1245 229.109 -16.0571 229.599 -16.2202 230.077C-16.3913 230.58 -16.3007 231.044 -15.7002 232.744C-14.6771 235.64 -13.9075 237.181 -11.8939 240.367C-6.74297 248.517 -2.2539 249.674 3.85222 250.384C11.5832 251.283 15.4403 250.992 24.6865 248.812C29.0802 247.776 30.2712 247.563 32.7505 247.365C35.9951 247.106 38.2226 247.221 39.9472 247.738C40.766 247.984 42.4512 248.756 43.0487 249.16C45.3245 250.7 47.2556 253.6 48.5603 255.166C52.3253 259.685 52.2091 262.897 53.4544 268.512C54.9588 275.296 56.2595 277.506 60.2686 275.48C62.4684 274.368 65.5777 271.027 66.9253 271.038C67.5925 271.043 76.4925 266.175 76.7828 266.015C79.8127 264.342 79.6177 264.547 82.3906 263.11C87.8206 260.298 91.6585 258.598 96.6413 257.429C102.415 256.075 102.88 255.935 104.237 255.144C107.451 253.271 108.531 252.985 109.84 253.66C110.36 253.929 110.455 254.013 110.848 254.551C111.6 255.58 111.76 256.578 111.968 256.858C111.993 256.893 112.111 256.849 112.23 256.761C112.565 256.513 114.014 255.867 114.692 255.663C115.344 255.467 117.874 255 118.559 254.949C118.774 254.933 118.961 254.897 118.965 254.871C118.987 254.724 116.392 252.939 114.385 251.72C112.785 250.749 109.517 249.021 108.695 248.712C106.764 247.986 105.69 247.784 104.158 247.859C101.187 248.004 97.8485 248.736 95.4643 249.765C85.9577 253.869 79.4388 257.813 74.4856 259.747C72.8189 260.398 71.3295 260.821 69.9633 260.946C69.311 261.005 69.3322 261.54 67.3686 260.525C65.2484 259.43 64.4971 258.642 63.3985 256.363C62.931 255.393 62.6502 254.514 62.2577 252.79C61.8103 250.825 61.7548 250.491 61.4568 247.964C61.146 245.329 61.0587 244.223 60.9692 241.786C60.6755 233.803 59.2948 228.757 56.8229 223.309C55.0483 219.397 54.2331 217.98 52.0932 215.087C50.5894 213.054 49.8078 212.148 48.3087 210.701C46.5016 208.957 43.0514 205.884 41.5362 204.669C39.9009 203.358 37.1417 201.394 36.5194 201.098C36.023 200.862 35.8986 200.706 35.8589 200.273C35.8227 199.876 36.0034 199.568 36.4017 199.349C36.9965 199.022 37.315 199.163 40.1023 200.99C42.5218 202.576 43.6369 203.46 46.7104 206.228C50.3028 209.463 51.5384 210.725 53.227 212.88C55.3605 215.604 56.7962 217.996 58.4431 221.572C60.1308 225.236 60.6889 226.706 61.3801 229.31C62.5537 233.73 62.9536 236.548 63.1715 241.935C63.2692 244.347 63.329 245.093 63.6325 247.691C64.2084 252.618 65.0937 255.59 66.4645 257.198C66.9601 257.779 67.8926 258.416 68.4625 258.563C68.6568 258.614 69.0225 258.72 69.2671 258.798C69.7897 258.964 70.5132 258.864 71.781 258.451C73.646 257.845 75.6005 256.945 81.6256 253.921C84.3502 252.553 93.6161 247.951 96.9089 246.912C98.9737 246.261 103.335 245.373 106.023 245.72C107.35 245.891 109.383 246.543 110.768 247.243C114.921 249.342 118.325 251.461 120.604 253.368C121.78 254.351 121.819 254.399 122.333 255.482C122.499 255.833 123.51 258.339 123.785 259.621C124.123 261.203 124.391 263.051 124.465 264.537C124.521 265.659 124.402 266.036 123.918 266.271C123.412 266.518 119.415 265.946 116.651 265.232C113.737 264.48 112.146 263.717 110.81 262.433C109.847 261.507 109.529 260.074 110.056 259.036L110.249 258.657L109.86 257.577C109.554 256.729 109.3 256.239 109.117 255.935C108.959 255.671 108.662 255.522 108.355 255.555C107.951 255.599 107.661 255.741 105.114 257.175C102.561 258.612 97.3607 259.322 93.8297 260.444C87.3565 262.501 75.7643 269.244 69.4695 272.176C68.0294 272.847 68.049 273.053 67.5519 273.094C67.1327 273.128 66.5658 273.523 63.9455 275.602C62.3571 276.862 62.1879 276.978 61.303 277.417C58.0992 279.007 55.6889 278.897 53.6594 275.847C52.7482 274.478 52.1634 272.796 51.401 269.352C49.5 260.763 50.4327 261.079 45.8583 255.279C43.4064 252.17 42.5127 251.294 41.0378 250.551ZM112.358 260.846C114.367 263.081 122.238 264.157 122.242 263.995C122.252 263.622 121.867 260.642 121.69 259.717C121.402 258.207 120.983 256.89 120.776 256.838C120.388 256.742 117.94 257.096 116.407 257.471C115.321 257.736 115.058 257.825 114.184 258.223C113.305 258.622 112.911 258.905 112.402 259.498C112.072 260.013 111.722 260.139 112.358 260.846Z" fill="#DBAB33"/>
<path d="M-17.4997 239.989C-16.4632 242.656 -15.8418 243.858 -14.1352 246.495C-12.1598 249.547 -10.7523 251.991 -9.8926 253.86C-9.07934 255.628 -8.57268 257.789 -8.47279 259.919C-8.32957 262.97 -10.2029 270.016 -11.1494 270.865C-11.4473 271.133 -11.4928 271.146 -11.8907 271.087C-12.2231 271.037 -12.3559 270.967 -12.5053 270.765C-12.8718 270.27 -12.8445 270.089 -11.9664 267.198C-11.2514 264.844 -10.7093 262.206 -10.6611 260.848C-10.6065 259.306 -10.9539 257.187 -11.5097 255.67C-12.1041 254.048 -13.5535 251.483 -16.2361 247.306C-16.8411 246.364 -17.5099 245.263 -17.7265 244.853C-19.4089 241.67 -20.5801 238.118 -20.8705 235.319C-20.9971 234.098 -20.943 233.756 -20.5805 233.488C-20.3438 233.313 -20.2097 233.284 -19.8763 233.334C-19.2404 233.429 -19.0514 233.747 -18.8932 234.987C-18.6766 236.686 -18.4068 237.654 -17.4997 239.989Z" fill="#DBAB33"/>
<path d="M100.106 213.816C100.181 214.268 100.035 214.612 99.6451 214.9C99.3388 215.127 99.2464 215.149 98.8762 215.081C98.3565 214.987 98.3002 214.915 97.1956 212.931C94.2254 207.597 90.0173 198.021 86.374 188.307C80.4714 172.568 80.1136 166.87 79.6742 165.632C79.5692 165.336 79.7464 164.771 80.0041 164.58C80.1033 164.507 80.3266 164.434 80.4986 164.418C81.2099 164.355 81.6307 164.928 81.9189 166.352C82.4452 168.953 84.3996 175.914 85.7602 180.035C87.6049 185.622 91.309 195.181 94.0724 201.485C97.9951 210.434 99.9921 213.132 100.106 213.816Z" fill="#DBAB33"/>
<path d="M96.8147 182.631C98.034 186.107 99.2217 188.973 101.274 193.39C102.239 195.467 103.632 198.467 104.378 200.073C108.188 208.278 109.821 209.528 108.48 210.52C108.167 210.751 108.085 210.77 107.66 210.707C107.231 210.642 107.162 210.601 106.909 210.26C106.745 210.037 106.63 209.793 106.628 209.661C106.624 209.418 105.957 208.056 104.719 205.762C103.988 204.407 103.034 202.398 99.2296 194.202C96.5718 188.477 95.9702 186.974 94.1988 181.636C93.6046 179.846 93.0206 178.14 92.9036 177.854C92.7852 177.565 92.6359 177.196 92.5675 177.025C92.315 176.394 92.697 175.756 93.3644 175.695C93.7882 175.657 94.1259 175.873 94.4101 176.362C94.7111 176.881 95.7257 179.526 96.8147 182.631Z" fill="#DBAB33"/>
<path d="M171.499 229.406C170.532 229.934 169.562 230.449 168.568 230.924C167.911 231.238 166.454 231.956 165.331 232.519C162.065 234.156 146.918 241.121 143.397 242.055C140.857 242.73 138.476 242.691 135.601 241.93C134.261 241.575 128.477 239.465 126.618 238.653C125.822 238.305 124.736 238.031 124.352 238.08C123.716 238.162 123.036 237.856 120.973 236.56C119.595 235.694 115.492 232.641 115.23 232.287C114.962 231.925 114.958 231.467 115.215 230.84C115.608 229.881 115.832 229.766 118.416 229.195C119.82 228.885 124.098 228.285 126.194 228.105C128.433 227.912 130.899 228.567 131.408 230.737C131.564 231.403 131.469 230.863 132.573 232.137C133.598 233.318 134.387 233.892 135.284 234.107C135.78 234.226 136.145 234.116 136.758 233.663C137.336 233.235 138.896 232.421 139.564 232.198C139.801 232.119 140.966 231.794 142.152 231.475C149.181 229.585 150.752 228.834 161.701 224.655C162.457 224.366 163.071 224.114 163.073 224.092C163.075 224.06 162.95 223.47 162.854 223.025C162.791 222.736 162.61 222.488 162.355 222.338C162.051 222.158 161.545 221.941 157.495 221.286C153.422 220.627 148.014 219.455 138.348 217.136C127.958 214.643 125.073 214.926 120.157 213.012C118.033 212.185 119.325 212.826 117.866 212.87C114.416 212.975 104.867 218.062 92.0478 222.572C88.2779 223.898 84.0908 224.849 75.123 226.415C63.7606 228.398 62.7254 228.873 62.1071 228.799C61.4331 228.718 61.033 228.189 61.1507 227.535C61.1959 227.284 61.2757 227.18 61.605 226.941C62.8661 226.025 80.777 223.588 88.3016 221.44C91.7517 220.455 99.6612 217.569 103.956 215.588C105.361 214.941 106.731 214.374 110.886 212.725C116.454 210.514 116.908 211.513 115.624 210.462C114.679 209.689 113.896 208.832 112.834 207.409C111.749 205.954 111.567 205.632 110.002 202.415C108.704 199.745 108.316 198.864 107.632 197.038C106.598 194.279 105.343 189.157 105.41 187.974C105.434 187.546 105.696 186.939 105.922 186.789C105.981 186.75 106.14 186.677 106.276 186.628C107.12 186.321 108.178 187.168 107.727 188.094C107.397 188.774 108.934 194.513 110.202 197.581C110.829 199.096 112.549 202.718 113.319 204.141C114.113 205.611 115.839 207.796 116.918 208.697C118.311 209.86 120.564 210.955 123.148 211.726C126.152 212.622 130.606 213.027 139.395 215.134C158.123 219.623 161.794 219.595 163.304 220.631C164.347 221.346 164.45 221.442 164.59 221.823C164.828 222.466 165.139 224.75 165.103 224.988C165.03 225.479 164.896 225.582 163.757 226.023C163.342 226.184 162.027 226.728 160.829 227.234C144.228 234.255 141.844 232.999 137.868 235.542C136.786 236.235 136.468 236.346 135.593 236.34C134.182 236.331 132.108 235.153 131.098 233.788C130.923 233.552 130.849 233.502 130.797 233.584C129.526 235.568 127.749 236.429 127.393 236.701L127.658 236.753C127.804 236.782 128.991 237.222 130.307 237.735C135.282 239.675 138.653 241.014 142.649 239.967C147.638 238.661 166.031 229.73 166.995 229.307C167.823 228.944 168.656 228.587 169.467 228.187C170.81 227.523 171.813 226.159 172.241 224.75C172.755 223.056 172.851 221.82 172.593 220.245C171.627 214.367 166.599 212.551 161.093 208.877C159.256 207.651 154.812 204.936 153.19 203.843C152.539 203.404 151.092 202.443 149.968 201.701C146.046 199.113 143.555 197.288 138.811 193.526C136.394 191.609 135.976 191.239 135.784 190.843C135.468 190.193 135.986 189.442 136.699 189.515C137.231 189.57 137.484 189.981 140.098 191.874C140.808 192.388 142.174 193.409 143.141 194.148C151.39 200.45 159.773 205.331 162.355 207.081C164.538 208.56 168.247 210.502 170.743 212.715C171.474 213.363 171.697 213.615 172.534 214.741C173.268 215.727 173.563 216.186 173.801 216.712C175.058 219.488 175.25 222.387 174.367 225.279C174.138 226.028 173.883 226.777 173.436 227.426C172.884 228.229 172.369 228.93 171.499 229.406ZM128.337 233.216C129.743 231.489 129.51 230.53 127.635 230.315C126.121 230.142 120.448 231.009 118.934 231.324C117.87 231.546 117.776 231.58 117.939 231.683C118.247 231.878 121.869 234.815 123.558 235.8C123.811 235.947 124.056 236.016 124.227 235.989C125.044 235.856 127.581 234.145 128.337 233.216Z" fill="#DBAB33"/>
<path d="M89.165 248.302C86.2433 245.634 78.7435 234.42 74.2434 229.823C73.277 228.836 73.1397 228.622 73.2026 228.202C73.2464 227.91 73.3109 227.809 73.5825 227.608C73.8611 227.402 73.9683 227.375 74.3034 227.425C74.6473 227.477 74.7734 227.557 75.3016 228.06C78.1324 230.759 79.8862 232.867 84.6226 239.263C87.8642 243.641 88.8863 244.92 90.1402 246.169C90.5311 246.559 90.9351 247 91.0336 247.146C91.6553 248.064 90.5284 249.547 89.165 248.302Z" fill="#DBAB33"/>
<path d="M181.742 223.031C181.764 220.71 182.163 219.098 182.939 218.196C183.565 217.469 184.214 217.206 185.05 217.341C185.337 217.387 185.421 217.372 185.357 217.286C185.31 217.222 185.286 216.999 185.306 216.802C185.339 216.468 185.439 216.319 186.444 215.1C190.082 210.686 187.519 210.503 186.828 206.03C186.487 203.824 187.933 197.989 188.455 195.843C189.298 192.381 190.614 184.455 190.641 182.678L190.642 182.614C190.647 182.261 190.446 181.938 190.127 181.787C189.475 181.477 188.016 180.451 187.336 179.822C187.053 179.561 186.564 179.047 186.26 178.69L186.036 178.429C185.826 178.183 185.501 178.068 185.184 178.129C183.705 178.414 179.272 179.418 174.738 182.031C174.156 182.366 172.639 183.198 171.365 183.879C163.854 187.895 162.55 188.649 159.74 190.591C157.438 192.182 156.873 192.518 155.287 193.235C154.02 193.808 151.409 194.87 151.031 194.967C150.483 195.107 149.861 194.615 149.806 193.998C149.779 193.684 149.993 193.171 150.223 193.001C150.292 192.949 151.202 192.562 152.255 192.136C155.239 190.928 155.632 190.721 157.882 189.17C161.195 186.887 162.669 186.031 170.109 182.065C171.245 181.459 172.767 180.624 173.481 180.215C176.446 178.516 179.454 177.324 182.761 176.537C184.748 176.065 186.511 176.012 187.18 176.404C187.344 176.501 187.64 176.828 187.985 177.295C188.845 178.458 190.131 179.539 191.44 180.201C192.495 180.735 192.785 181.182 192.686 182.123C192.653 182.437 192.592 183.281 192.55 183.991C192.448 185.714 191.659 191.481 191.272 193.33C191.102 194.142 190.678 195.994 190.33 197.446C189.535 200.768 188.914 204.244 188.951 205.17C189.106 209.089 192.984 210.813 188.107 216.533C187.196 217.602 186.949 217.828 186.642 217.873C186.456 217.9 186.46 217.914 186.751 218.194C186.917 218.356 187.559 219.18 188.176 220.027C189.737 222.167 189.581 222.226 190.129 223.258L190.264 222.988C190.826 221.867 191.259 219.504 191.602 218.811C191.818 218.374 194.875 209.887 195.186 208.452C195.905 205.132 196.713 187.272 196.839 183.888C196.88 182.792 196.937 181.489 196.966 180.993C197.064 179.348 197.05 177.597 196.935 176.998C196.804 176.31 195.94 174.352 195.119 172.88C193.656 170.257 191.936 168.954 189.428 168.569C187.226 168.232 184.829 168.569 175.359 168.746C161.497 169.004 159.295 170.111 158.636 169.219C158.461 168.982 158.431 168.848 158.481 168.515C158.533 168.169 158.591 168.067 158.849 167.877C159.113 167.681 159.415 167.622 161.053 167.449C167.387 166.778 169.267 166.645 173.122 166.594C186.997 166.414 189.303 165.582 192.783 167.391C195.12 168.605 196.511 170.364 198.314 174.384C199.283 176.545 199.126 179.208 199.091 181.522C199.04 184.973 198.156 205.44 197.275 209.151C196.729 211.446 192.969 221.369 192.83 221.885C192.176 224.313 191.338 225.433 191.245 226.165C191.199 226.532 191.079 226.712 189.702 228.477C187.457 231.355 185.896 233.089 185.285 233.383C184.657 233.685 183.314 231.886 182.683 229.563C181.972 226.943 181.722 225.203 181.742 223.031ZM185.262 230.424C185.439 230.293 187.028 228.5 187.957 227.383C188.977 226.156 189.067 226.023 189.045 225.767C188.976 224.942 185.805 220.008 185.015 219.64C184.664 219.476 184.526 219.57 184.316 220.117C184.09 220.707 183.891 222.465 183.914 223.664C183.969 226.391 185.188 230.479 185.262 230.424Z" fill="#DBAB33"/>
<path d="M74.5886 256.058C74.4331 255.981 73.9594 255.51 73.3644 254.841C71.4116 252.644 71.1417 252.366 69.7152 251.077C68.4416 249.926 66.6108 248.461 64.6717 247.041C64.1522 246.66 64.0579 246.559 63.9694 246.289C63.7875 245.734 64.187 245.133 64.7953 245.046C65.1812 244.99 65.4681 245.159 67.6731 246.738C71.1423 249.223 72.1607 250.152 75.2186 253.62C75.9888 254.494 76.038 254.566 76.0913 254.903C76.2319 255.79 75.3784 256.446 74.5886 256.058Z" fill="#DBAB33"/>
<path d="M140.662 249.775C134.574 249.597 132.887 249.653 128.255 250.186C118.836 251.27 119.022 251.188 118.661 250.85C118.101 250.327 118.351 249.401 119.106 249.205C119.124 249.2 130.489 247.428 135.83 247.479C138.509 247.505 143.523 247.659 145.718 247.784C147.674 247.895 149.825 248.24 151.209 248.664C151.972 248.898 152.602 249.158 153.304 249.529C153.932 249.861 154.569 250.179 155.201 250.505C156.865 251.362 158.529 252.238 160.101 253.258L161.087 253.897L161.31 254.388C161.596 255.017 161.614 255.458 161.372 255.84C161.198 256.113 161.113 256.175 160.566 256.426C159.856 256.751 153.075 258.72 151.246 259.132C148.134 259.833 146.436 259.721 145.517 258.756C145.331 258.56 145.03 258.345 144.843 258.274C144.658 258.204 144.006 257.74 143.396 257.244C142.007 256.117 141.595 255.898 140.699 255.809C139.478 255.688 138.528 255.933 136.059 257.007C131.674 258.915 129.98 258.599 125.062 258.379C124.182 258.339 123.775 258.176 123.584 257.787C123.397 257.404 123.533 256.909 123.903 256.636C124.245 256.383 124.356 256.375 126.908 256.417C131.162 256.488 132.215 256.281 136.179 254.591C138.372 253.657 140.745 253.097 142.886 254.185C143.273 254.382 143.974 254.888 144.89 255.632L145.182 255.869L145.388 255.463C146.323 253.624 149.379 250.585 149.482 250.469C148.115 250.3 148.55 250.004 140.662 249.775ZM147.345 256.479C147.236 256.696 147.158 256.973 147.17 257.102C147.19 257.32 147.226 257.338 147.759 257.388C148.348 257.444 150.963 257.017 152.17 256.668C152.818 256.481 149.824 257.347 158.506 254.836C157.89 254.471 152.349 251.228 152.065 251.134C151.828 251.055 151.858 251.032 150.767 252.134C149.798 253.112 147.835 255.499 147.345 256.479Z" fill="#DBAB33"/>
</svg>
