<svg width="250" height="250" viewBox="0 0 250 250" fill="none" xmlns="http://www.w3.org/2000/svg">
<g clip-path="url(#clip0_97_40327)">
<path d="M51.0332 2.62891C53.0432 0.619767 56.2232 0.448623 58.4365 2.23047L94.2666 31.084C96.3421 32.755 97.0842 35.5409 96.1152 38.0244L77.3428 86.0889C76.8346 87.3897 75.4289 88.0734 74.1104 87.707L73.8486 87.6201C72.4609 87.0781 71.7755 85.5133 72.3174 84.126L91.0049 36.2803L91.2715 35.5977L90.7002 35.1377L55.6455 6.90918L54.9463 6.3457L41.5957 19.6963L41.9258 20.3438L53.2842 42.6318C53.6278 43.3061 53.6719 44.0943 53.4062 44.8037L30.1689 106.738C24.1455 122.793 22.255 139.389 24.5566 156.057C26.7158 171.696 32.6593 186.891 41.7451 200.004C50.8305 213.117 62.9697 224.02 76.8535 231.536C91.65 239.546 107.853 243.605 125.001 243.605C151.75 243.605 176.922 233.342 195.868 214.705C196.93 213.661 198.637 213.674 199.683 214.737C200.727 215.799 200.713 217.508 199.651 218.552C179.69 238.187 153.181 249.001 125.001 249.001C106.936 249.001 89.8769 244.72 74.2852 236.28C59.665 228.366 46.8782 216.884 37.3115 203.077C27.7448 189.27 21.4859 173.264 19.2119 156.795C16.7867 139.233 18.7729 121.757 25.1182 104.844L47.7832 44.4346L47.9375 44.0225L47.7373 43.6299L36.8398 22.2451C35.7445 20.0952 36.154 17.5086 37.8594 15.8027L51.0332 2.62891Z" fill="#DBAB33" stroke="#0C4745" stroke-width="2"/>
<path d="M191.565 2.23047C193.779 0.448737 196.96 0.620055 198.969 2.62793L212.144 15.8027C213.849 17.5086 214.258 20.0953 213.163 22.2451L202.265 43.6289L202.064 44.0215L202.22 44.4346L224.884 104.844C231.274 121.876 233.242 139.471 230.737 157.15C228.388 173.727 222.006 189.81 212.279 203.653C211.755 204.4 210.92 204.8 210.068 204.8C209.6 204.8 209.129 204.679 208.702 204.426L208.521 204.31L208.304 204.14C207.27 203.245 207.062 201.694 207.865 200.552C217.103 187.404 223.165 172.137 225.396 156.395C227.773 139.616 225.899 122.906 219.833 106.738L196.596 44.8037C196.33 44.0944 196.374 43.3062 196.718 42.6318L208.077 20.3428L208.407 19.6953L207.893 19.1816L195.691 6.98047L195.057 6.34473L194.357 6.9082L159.302 35.1377L158.73 35.5977L158.997 36.2803L190.936 118.051C201.971 146.306 190.241 178.263 163.645 192.702L163.013 193.04C159.884 194.69 156.061 193.977 153.708 191.293V191.292L146.521 183.096L146.408 182.975C145.831 182.384 145.039 182.048 144.208 182.048H105.297C104.41 182.048 103.568 182.431 102.984 183.096H102.983L95.9561 191.11C93.6573 193.732 89.9795 194.472 86.9004 192.983L86.6045 192.832L86.0146 192.511C73.6765 185.702 64.0738 174.69 58.9365 161.434C53.5372 147.501 53.5816 132.095 59.0674 118.05L66.3779 99.334C66.8865 98.0332 68.2926 97.3499 69.6104 97.7158L69.8721 97.8027C71.2595 98.3448 71.9449 99.9087 71.4033 101.296L64.0928 120.013C59.1017 132.791 59.0552 146.811 63.9668 159.484C68.72 171.749 77.6652 181.905 89.1582 188.08C90.0304 188.548 91.0869 188.351 91.7695 187.691L91.9004 187.554L98.9287 179.539C100.537 177.705 102.858 176.653 105.297 176.653H144.208C146.647 176.653 148.968 177.705 150.576 179.539L157.764 187.735C158.432 188.498 159.564 188.759 160.494 188.268C185.107 175.276 196.034 145.933 185.91 120.013L153.887 38.0244C152.917 35.5399 153.661 32.7539 155.736 31.083L191.565 2.23047Z" fill="#DBAB33" stroke="#0C4745" stroke-width="2"/>
<path d="M124.751 195.18C133.594 195.18 140.789 202.375 140.789 211.218C140.789 220.06 133.594 227.256 124.751 227.256C115.908 227.256 108.713 220.06 108.713 211.218C108.713 202.375 115.909 195.18 124.751 195.18ZM124.751 200.574C118.881 200.574 114.107 205.348 114.106 211.218C114.106 217.088 118.882 221.861 124.751 221.861C130.621 221.861 135.395 217.088 135.395 211.218C135.394 205.348 130.621 200.574 124.751 200.574Z" fill="white" stroke="#0C4745" stroke-width="2"/>
<path d="M172.581 207.471C173.858 206.705 175.515 207.118 176.281 208.396V208.396C177 209.594 176.68 211.124 175.585 211.942L175.356 212.097L170.189 215.196C169.754 215.458 169.276 215.581 168.805 215.581C167.885 215.581 166.993 215.113 166.488 214.271C165.722 212.994 166.136 211.338 167.414 210.571L172.581 207.471Z" fill="white" stroke="#0C4745" stroke-width="2"/>
<path d="M194.918 184.031C195.799 182.831 197.486 182.571 198.688 183.452C199.888 184.333 200.148 186.02 199.267 187.222L196.425 191.098C195.897 191.817 195.08 192.2 194.247 192.2C193.694 192.2 193.137 192.03 192.654 191.677C191.529 190.851 191.231 189.317 191.924 188.138L192.075 187.907L194.918 184.031Z" fill="white" stroke="#0C4745" stroke-width="2"/>
<path d="M206.792 156.652C207.241 155.232 208.754 154.444 210.176 154.892C211.508 155.312 212.283 156.67 212.006 158.009L211.937 158.276L210.386 163.186C210.023 164.334 208.961 165.071 207.814 165.071C207.546 165.071 207.273 165.031 207.001 164.945H207.002C205.581 164.496 204.793 162.981 205.241 161.561L206.792 156.652Z" fill="white" stroke="#0C4745" stroke-width="2"/>
<path d="M208.097 124.437C209.464 124.182 210.791 125.015 211.176 126.328L211.24 126.597L212.016 130.77C212.287 132.234 211.321 133.642 209.855 133.914C209.689 133.945 209.523 133.96 209.359 133.96C208.086 133.96 206.953 133.051 206.712 131.754L205.937 127.581C205.682 126.208 206.516 124.885 207.828 124.501L208.097 124.437Z" fill="white" stroke="#0C4745" stroke-width="2"/>
<path d="M199.426 98.0186C200.829 97.5215 202.37 98.2573 202.867 99.6621L204.673 104.767C205.17 106.171 204.434 107.712 203.03 108.208H203.029C202.73 108.314 202.428 108.364 202.131 108.364C201.019 108.364 199.979 107.671 199.588 106.565L197.782 101.461C197.285 100.057 198.021 98.5162 199.426 98.0195V98.0186Z" fill="white" stroke="#0C4745" stroke-width="2"/>
<path d="M190.858 75.4707C192.228 74.8867 193.813 75.5242 194.396 76.8945V76.8955L196.731 82.377C197.315 83.7475 196.678 85.3324 195.308 85.916H195.307C194.961 86.0638 194.603 86.1328 194.252 86.1328C193.201 86.1327 192.206 85.5162 191.77 84.4922L189.434 79.0098V79.0088C188.85 77.6383 189.487 76.0543 190.857 75.4707H190.858Z" fill="white" stroke="#0C4745" stroke-width="2"/>
<path d="M181.794 51.5566C183.164 50.9723 184.748 51.6107 185.332 52.9814L187.667 58.4629C188.251 59.8335 187.614 61.4173 186.243 62.001L186.242 62.002C185.897 62.1497 185.539 62.2188 185.188 62.2188C184.137 62.2186 183.141 61.602 182.705 60.5781L180.369 55.0957L180.273 54.8359C179.868 53.5307 180.509 52.1048 181.793 51.5576L181.794 51.5566Z" fill="white" stroke="#0C4745" stroke-width="2"/>
<path d="M73.2227 208.396C73.989 207.118 75.6468 206.705 76.9238 207.471L82.0908 210.571V210.57C83.2885 211.289 83.7266 212.79 83.1455 214.027L83.0156 214.271C82.5106 215.113 81.6193 215.582 80.7002 215.582C80.2871 215.582 79.8698 215.488 79.4805 215.289L79.3154 215.197L74.1484 212.097C72.8707 211.33 72.4564 209.673 73.2227 208.396Z" fill="white" stroke="#0C4745" stroke-width="2"/>
<path d="M50.8154 183.452C52.0167 182.571 53.7045 182.831 54.585 184.032L57.4277 187.908C58.3086 189.109 58.0486 190.797 56.8477 191.678C56.3657 192.031 55.8085 192.2 55.2559 192.2C54.4229 192.2 53.6055 191.818 53.0771 191.098L50.2354 187.223C49.3543 186.022 49.6144 184.333 50.8154 183.452Z" fill="white" stroke="#0C4745" stroke-width="2"/>
<path d="M39.3262 154.892C40.6607 154.472 42.075 155.138 42.6162 156.393L42.7119 156.651L44.2627 161.561C44.7108 162.981 43.9223 164.495 42.502 164.944C42.2297 165.03 41.9566 165.071 41.6895 165.071C40.6149 165.071 39.6145 164.423 39.1943 163.396L39.1182 163.185L37.5674 158.276C37.1192 156.857 37.9057 155.341 39.3252 154.891L39.3262 154.892Z" fill="white" stroke="#0C4745" stroke-width="2"/>
<path d="M38.2627 126.596C38.5349 125.132 39.9456 124.165 41.4062 124.436V124.437C42.8712 124.709 43.838 126.116 43.5664 127.58L42.791 131.754C42.5497 133.051 41.4168 133.959 40.1436 133.959C39.9798 133.959 39.8144 133.944 39.6475 133.913C38.1825 133.641 37.2157 132.234 37.4873 130.77L38.2627 126.596Z" fill="white" stroke="#0C4745" stroke-width="2"/>
<path d="M46.6367 99.6621C47.1335 98.2574 48.6741 97.5222 50.0781 98.0195H50.0791C51.3956 98.4852 52.1242 99.8686 51.8008 101.196L51.7217 101.461L49.916 106.565C49.5248 107.671 48.486 108.364 47.374 108.364C47.0763 108.364 46.7732 108.315 46.4756 108.209L46.4746 108.208L46.2188 108.104C45.0651 107.559 44.4502 106.27 44.752 105.031L44.8311 104.767L46.6367 99.6621Z" fill="white" stroke="#0C4745" stroke-width="2"/>
<path d="M55.1074 76.8994C55.6551 75.6142 57.0808 74.9738 58.3857 75.3799L58.6455 75.4746C60.0158 76.0582 60.6532 77.6422 60.0693 79.0127V79.0137L57.7344 84.4951C57.298 85.5195 56.3013 86.1367 55.251 86.1367C54.9002 86.1367 54.5429 86.0677 54.1963 85.9199H54.1953C52.8249 85.3363 52.1874 83.7514 52.7715 82.3809L55.1074 76.8994Z" fill="white" stroke="#0C4745" stroke-width="2"/>
<path d="M64.1719 52.9814C64.7557 51.6106 66.3395 50.9721 67.71 51.5566V51.5576C68.9946 52.1047 69.6355 53.5306 69.2295 54.8359L69.1338 55.0957L66.7988 60.5771C66.3624 61.6011 65.3662 62.2188 64.3154 62.2188C63.9647 62.2187 63.6074 62.1497 63.2607 62.002L63.2598 62.001C61.9754 61.4536 61.3343 60.0274 61.7402 58.7227L61.8359 58.4639L64.1719 52.9814Z" fill="white" stroke="#0C4745" stroke-width="2"/>
</g>
<defs>
<clipPath id="clip0_97_40327">
<rect width="250" height="250" fill="white"/>
</clipPath>
</defs>
</svg>
