<svg width="343" height="252" viewBox="0 0 343 252" fill="none" xmlns="http://www.w3.org/2000/svg">
<path d="M197.829 14.918C209.468 3.96269 221.114 -0.899322 231.396 1.67871C238.356 3.42399 244.213 8.4479 248.814 16.2197C253.419 23.9968 256.724 34.4613 258.579 46.917C262.288 71.824 260.169 104.49 251.299 138.989C243.757 168.325 229.123 197.886 213.116 219.262C205.111 229.951 196.795 238.552 188.89 244.057C180.958 249.58 173.611 251.873 167.455 250.309C160.97 248.66 155.838 242.738 151.815 234.406C147.811 226.111 145.019 215.656 143.095 205.355C142.825 203.914 142.575 202.476 142.339 201.049C144.024 208.165 146.271 215.249 149.286 221.081C152.791 227.862 157.444 233.161 163.65 234.617C170.062 236.122 177.277 233.331 184.529 227.913C191.815 222.471 199.332 214.237 206.432 204.446C220.633 184.864 233.301 158.869 239.188 135.97C244.313 116.046 246.889 96.7869 247.119 79.6689C247.359 62.1671 245.154 46.8492 240.693 35.3301C236.24 23.8307 229.457 15.9341 220.437 13.6719V13.6709C211.084 11.3267 200.922 15.4455 191.123 24.0859C188.242 26.6268 185.377 29.5712 182.556 32.8809C187.519 25.833 192.654 19.7894 197.829 14.918Z" stroke="#DBAB33" stroke-width="2"/>
<mask id="path-2-inside-1_105_28214" fill="white">
<path d="M343 141.617C341.623 137.975 338.136 134.969 332.551 132.604C334.269 129.755 335.167 126.473 335.252 122.752C333.561 123.211 331.273 124.167 328.409 125.615C328.369 122.326 326.868 118.049 323.879 112.782C324.364 115.979 324.115 118.507 323.138 120.355C321.375 113.182 316.17 106.684 307.55 100.873C308.475 103.933 308.815 106.402 308.573 108.275C301.723 97.5589 290.133 92.0499 273.805 91.7421C277.646 95.0894 279.213 97.8799 278.505 100.107C275.004 96.989 270.894 94.7749 266.194 93.4779C264.857 108.603 262.117 124.573 257.968 140.7C254.435 154.443 250.043 167.701 244.963 180.049C249.525 181.844 253.484 182.394 256.827 181.726C264.333 178.922 273.031 178.032 282.923 179.047C282.923 179.047 281.782 183.003 279.495 190.923C272.946 194.218 268.095 194.866 264.936 192.868C264.057 190.032 261.357 188.165 256.853 187.261C256.853 187.261 253.596 190.065 247.08 195.679C242.878 199.203 247.27 200.506 260.269 199.596C273.215 201.161 282.189 200.303 287.177 197.015C288.829 192.384 291.956 186.829 296.544 180.344C301.815 172.903 301.415 176.479 299.107 167.426C297.626 163.909 295.102 162.533 291.536 163.293C286.745 163.385 279.613 162.952 270.127 162.009C270.127 162.009 271.629 158.963 274.644 152.884C281.14 147.349 289.793 144.526 300.582 144.415C297.318 153.173 299.33 160.234 306.606 165.592C311.995 169.634 315.41 174.114 316.832 179.021C315.154 179.84 314.191 182.021 313.928 185.565C313.928 185.565 315.738 187.726 319.336 192.069C324.475 193.445 328.323 191.716 330.873 186.862C332.813 178.988 333.24 169.798 332.151 159.304C335.055 152.472 336.15 146.432 335.422 141.198C338.221 143.085 340.168 145.718 341.276 149.098C341.014 144.729 339.906 141.283 337.946 138.781C339.644 139.534 341.322 140.478 343 141.617ZM322.266 149.078L325.695 145.371L326.921 155.066L322.266 149.078ZM246.47 76.8986L243.835 75.8047C244.202 70.584 242.688 66.3589 239.686 63.5357C237.785 61.7408 235.281 60.5159 232.285 59.9394C223.934 58.3477 216.638 63.778 215.019 73.0863C208.398 68.442 173.126 77.4882 172.182 77.7895C186.642 75.4313 192.706 75.4313 190.306 76.7611C187.029 78.569 183.666 80.7831 180.362 83.3705C179.242 84.2417 142.179 89.4297 142.31 90.504C142.441 91.5783 175.118 87.8118 174.188 88.7026C171.316 91.4342 168.668 94.3164 166.105 97.5982C165.791 98.0043 166.105 98.7642 167.678 100.127C152.779 113.129 160.769 129.551 184.263 126.296C187.927 125.785 191.585 124.429 194.639 122.464C194.639 122.464 192.817 125.569 192.424 126.027C191.749 126.82 190.857 127.416 189.933 127.868C188.399 128.621 186.714 129.034 185.036 129.296C182.362 129.715 179.635 129.755 176.934 129.643C172.87 129.473 168.819 128.929 164.814 128.241C162.9 127.907 160.999 127.514 159.098 127.128C158.921 127.023 155.217 125.752 153.211 125.045C151.192 124.337 149.206 123.492 147.168 122.844C145.968 122.464 144.729 122.221 143.503 121.946C141.117 121.403 138.712 120.957 136.293 120.63C131.436 119.981 126.519 119.896 121.642 120.381C120.567 120.492 119.479 120.63 118.378 120.793C117.198 121.088 115.946 121.54 114.674 122.071C111.679 119.595 108.965 116.916 103.616 114.931C92.9639 110.981 77.8807 110.981 60.1033 124.246C23.6375 151.43 0.50474 134.287 0 133.901C0.485074 134.556 21.0548 161.596 45.6101 146.34C35.6202 157.064 32.9523 157.273 32.9523 157.273C32.9523 157.273 57.5141 158.688 74.354 138.408C87.6477 122.398 103.812 124.246 103.812 124.246C103.812 124.246 93.9471 126.119 86.14 133.58C94.4846 130.488 100.063 129.748 104.52 129.709C98.1161 136.698 95.2057 142.259 93.4621 147.821C90.3353 157.771 90.0075 164.374 87.1233 172.398C81.5908 187.805 72.2695 180.901 64.5411 194.382C57.5993 203.965 43.2831 203.952 33.5291 213.162C34.5124 215.441 33.6209 218.14 30.8547 221.265C28.508 221.219 25.9843 220.669 23.3032 219.608C23.3032 219.608 21.0745 223.479 16.604 231.235C23.8932 233.396 30.4679 231.877 36.3347 226.656C46.8949 213.09 60.6736 207.299 73.6199 200.834C82.4823 196.412 82.738 196.301 92.5312 194.506C110.918 191.126 114.615 191.978 124.068 185.368C127.004 183.305 129.462 181.189 131.652 179.158C133.258 177.658 134.726 176.204 136.116 174.855L138.122 163.968L138.305 172.785C140.259 170.977 141.799 169.758 143.857 168.691C147.62 166.732 151.966 166.313 158.41 168.533C181.32 176.459 199.897 181.582 214.298 183.39C221.299 169.712 227.644 153.205 232.521 134.255C235.995 120.735 238.349 107.116 239.476 94.1592C238.912 94.2967 238.335 94.4409 237.765 94.5915C236.67 94.8928 230.699 98.6528 229.244 98.9083C223.849 99.8516 220.302 99.1048 219.037 93.7793C218.526 91.611 221.017 83.3378 220.375 81.4316C221.817 85.0016 225.088 89.1219 227.506 90.5499C228.581 91.1787 230.397 91.1067 231.361 90.3992C235.032 87.7004 238.244 83.7767 240.236 79.4468C238.401 78.9555 236.493 78.1629 234.946 77.2917C236.703 77.5471 238.473 77.7044 240.249 77.7699C242.308 77.8485 244.379 77.8026 246.437 77.6454C247.132 77.5864 247.185 77.1934 246.47 76.8986ZM224.471 109.592C222.105 110.221 219.693 110.555 217.425 111.505C217.064 111.656 216.658 111.832 216.212 112.035C215.242 112.468 214.311 112.9 213.413 113.319C212.594 113.699 211.801 114.079 211.034 114.453C209.782 115.062 208.595 115.658 207.468 116.234C202.866 110.516 194.351 106.821 181.936 105.649C188.327 105.505 194.528 106.179 200.559 107.634L207.632 102.603C206.563 97.9454 205.822 93.2028 205.449 88.3489C209.552 99.3799 213.675 105.092 224.471 109.592Z"/>
</mask>
<path d="M343 141.617C341.623 137.975 338.136 134.969 332.551 132.604C334.269 129.755 335.167 126.473 335.252 122.752C333.561 123.211 331.273 124.167 328.409 125.615C328.369 122.326 326.868 118.049 323.879 112.782C324.364 115.979 324.115 118.507 323.138 120.355C321.375 113.182 316.17 106.684 307.55 100.873C308.475 103.933 308.815 106.402 308.573 108.275C301.723 97.5589 290.133 92.0499 273.805 91.7421C277.646 95.0894 279.213 97.8799 278.505 100.107C275.004 96.989 270.894 94.7749 266.194 93.4779C264.857 108.603 262.117 124.573 257.968 140.7C254.435 154.443 250.043 167.701 244.963 180.049C249.525 181.844 253.484 182.394 256.827 181.726C264.333 178.922 273.031 178.032 282.923 179.047C282.923 179.047 281.782 183.003 279.495 190.923C272.946 194.218 268.095 194.866 264.936 192.868C264.057 190.032 261.357 188.165 256.853 187.261C256.853 187.261 253.596 190.065 247.08 195.679C242.878 199.203 247.27 200.506 260.269 199.596C273.215 201.161 282.189 200.303 287.177 197.015C288.829 192.384 291.956 186.829 296.544 180.344C301.815 172.903 301.415 176.479 299.107 167.426C297.626 163.909 295.102 162.533 291.536 163.293C286.745 163.385 279.613 162.952 270.127 162.009C270.127 162.009 271.629 158.963 274.644 152.884C281.14 147.349 289.793 144.526 300.582 144.415C297.318 153.173 299.33 160.234 306.606 165.592C311.995 169.634 315.41 174.114 316.832 179.021C315.154 179.84 314.191 182.021 313.928 185.565C313.928 185.565 315.738 187.726 319.336 192.069C324.475 193.445 328.323 191.716 330.873 186.862C332.813 178.988 333.24 169.798 332.151 159.304C335.055 152.472 336.15 146.432 335.422 141.198C338.221 143.085 340.168 145.718 341.276 149.098C341.014 144.729 339.906 141.283 337.946 138.781C339.644 139.534 341.322 140.478 343 141.617ZM322.266 149.078L325.695 145.371L326.921 155.066L322.266 149.078ZM246.47 76.8986L243.835 75.8047C244.202 70.584 242.688 66.3589 239.686 63.5357C237.785 61.7408 235.281 60.5159 232.285 59.9394C223.934 58.3477 216.638 63.778 215.019 73.0863C208.398 68.442 173.126 77.4882 172.182 77.7895C186.642 75.4313 192.706 75.4313 190.306 76.7611C187.029 78.569 183.666 80.7831 180.362 83.3705C179.242 84.2417 142.179 89.4297 142.31 90.504C142.441 91.5783 175.118 87.8118 174.188 88.7026C171.316 91.4342 168.668 94.3164 166.105 97.5982C165.791 98.0043 166.105 98.7642 167.678 100.127C152.779 113.129 160.769 129.551 184.263 126.296C187.927 125.785 191.585 124.429 194.639 122.464C194.639 122.464 192.817 125.569 192.424 126.027C191.749 126.82 190.857 127.416 189.933 127.868C188.399 128.621 186.714 129.034 185.036 129.296C182.362 129.715 179.635 129.755 176.934 129.643C172.87 129.473 168.819 128.929 164.814 128.241C162.9 127.907 160.999 127.514 159.098 127.128C158.921 127.023 155.217 125.752 153.211 125.045C151.192 124.337 149.206 123.492 147.168 122.844C145.968 122.464 144.729 122.221 143.503 121.946C141.117 121.403 138.712 120.957 136.293 120.63C131.436 119.981 126.519 119.896 121.642 120.381C120.567 120.492 119.479 120.63 118.378 120.793C117.198 121.088 115.946 121.54 114.674 122.071C111.679 119.595 108.965 116.916 103.616 114.931C92.9639 110.981 77.8807 110.981 60.1033 124.246C23.6375 151.43 0.50474 134.287 0 133.901C0.485074 134.556 21.0548 161.596 45.6101 146.34C35.6202 157.064 32.9523 157.273 32.9523 157.273C32.9523 157.273 57.5141 158.688 74.354 138.408C87.6477 122.398 103.812 124.246 103.812 124.246C103.812 124.246 93.9471 126.119 86.14 133.58C94.4846 130.488 100.063 129.748 104.52 129.709C98.1161 136.698 95.2057 142.259 93.4621 147.821C90.3353 157.771 90.0075 164.374 87.1233 172.398C81.5908 187.805 72.2695 180.901 64.5411 194.382C57.5993 203.965 43.2831 203.952 33.5291 213.162C34.5124 215.441 33.6209 218.14 30.8547 221.265C28.508 221.219 25.9843 220.669 23.3032 219.608C23.3032 219.608 21.0745 223.479 16.604 231.235C23.8932 233.396 30.4679 231.877 36.3347 226.656C46.8949 213.09 60.6736 207.299 73.6199 200.834C82.4823 196.412 82.738 196.301 92.5312 194.506C110.918 191.126 114.615 191.978 124.068 185.368C127.004 183.305 129.462 181.189 131.652 179.158C133.258 177.658 134.726 176.204 136.116 174.855L138.122 163.968L138.305 172.785C140.259 170.977 141.799 169.758 143.857 168.691C147.62 166.732 151.966 166.313 158.41 168.533C181.32 176.459 199.897 181.582 214.298 183.39C221.299 169.712 227.644 153.205 232.521 134.255C235.995 120.735 238.349 107.116 239.476 94.1592C238.912 94.2967 238.335 94.4409 237.765 94.5915C236.67 94.8928 230.699 98.6528 229.244 98.9083C223.849 99.8516 220.302 99.1048 219.037 93.7793C218.526 91.611 221.017 83.3378 220.375 81.4316C221.817 85.0016 225.088 89.1219 227.506 90.5499C228.581 91.1787 230.397 91.1067 231.361 90.3992C235.032 87.7004 238.244 83.7767 240.236 79.4468C238.401 78.9555 236.493 78.1629 234.946 77.2917C236.703 77.5471 238.473 77.7044 240.249 77.7699C242.308 77.8485 244.379 77.8026 246.437 77.6454C247.132 77.5864 247.185 77.1934 246.47 76.8986ZM224.471 109.592C222.105 110.221 219.693 110.555 217.425 111.505C217.064 111.656 216.658 111.832 216.212 112.035C215.242 112.468 214.311 112.9 213.413 113.319C212.594 113.699 211.801 114.079 211.034 114.453C209.782 115.062 208.595 115.658 207.468 116.234C202.866 110.516 194.351 106.821 181.936 105.649C188.327 105.505 194.528 106.179 200.559 107.634L207.632 102.603C206.563 97.9454 205.822 93.2028 205.449 88.3489C209.552 99.3799 213.675 105.092 224.471 109.592Z" stroke="white" stroke-width="4" mask="url(#path-2-inside-1_105_28214)"/>
</svg>
