<svg width="275" height="300" viewBox="0 0 275 300" fill="none" xmlns="http://www.w3.org/2000/svg">
<path d="M196.179 23.4098C207.193 22.7874 219.867 33.8257 230.303 35.1859C238.757 36.288 250.171 31.979 250.447 22.834C254.226 30.0055 248.373 39.8715 239.814 40.7544C246.689 43.387 255.418 40.7979 259.367 34.9553C262.725 42.2108 257.12 51.7148 248.717 53.0116C260.785 60.8904 268.138 75.9933 260.674 88.8707C257.427 58.0073 242.843 74.0534 227.639 60.4604C230.528 68.9982 246.798 71.0977 253.092 85.6531C255.874 92.0868 255.221 100.105 250.079 105.138C251.058 96.3813 247.441 86.6383 239.134 82.369C231.681 78.5389 224.383 80.3619 213.773 56.4423C213.382 65.3155 206.865 70.8854 198.798 75.0822C203.327 69.558 203.793 61.4487 199.924 55.5098C198.935 63.1014 194.466 70.2576 187.874 74.8553C191.85 70.486 192.728 63.8873 189.984 58.7679C187.425 69.8887 176.285 76.3691 166.169 81.4907C176.107 73.9022 167.908 56.8563 175.317 48.8225" stroke="white" stroke-width="1.3" stroke-miterlimit="10" stroke-linecap="round" stroke-linejoin="round"/>
<path d="M189.983 58.769C190.994 54.7036 191.515 48.5219 189.833 45.0469" stroke="#DBAB33" stroke-width="1.3" stroke-miterlimit="10" stroke-linecap="round" stroke-linejoin="round"/>
<path d="M176.338 70.5687C184.97 66.9776 185.051 56.8168 184.835 49.627" stroke="#DBAB33" stroke-width="1.3" stroke-miterlimit="10" stroke-linecap="round" stroke-linejoin="round"/>
<path d="M177.153 62.1114C177.839 58.6081 178.524 55.1048 179.209 51.6016" stroke="#DBAB33" stroke-width="1.3" stroke-miterlimit="10" stroke-linecap="round" stroke-linejoin="round"/>
<path d="M199.924 55.5108C200.163 50.0272 199.225 44.5214 196.179 39.8145" stroke="#DBAB33" stroke-width="1.3" stroke-miterlimit="10" stroke-linecap="round" stroke-linejoin="round"/>
<path d="M213.774 56.4428C213.175 47.129 206.957 37.9038 199.524 33.1113" stroke="#DBAB33" stroke-width="1.3" stroke-miterlimit="10" stroke-linecap="round" stroke-linejoin="round"/>
<path d="M205.155 65.5645C208.488 58.5007 207.107 49.7299 201.735 43.8438" stroke="#DBAB33" stroke-width="1.3" stroke-miterlimit="10" stroke-linecap="round" stroke-linejoin="round"/>
<path d="M248.718 53.0113C237.399 55.6119 221.591 48.7199 212.614 41.6133" stroke="#DBAB33" stroke-width="1.3" stroke-miterlimit="10" stroke-linecap="round" stroke-linejoin="round"/>
<path d="M239.816 40.7533C232.066 39.4038 222.875 36.5192 216.731 31.9375" stroke="#DBAB33" stroke-width="1.3" stroke-miterlimit="10" stroke-linecap="round" stroke-linejoin="round"/>
<path d="M249.333 46.0656C237.012 51.0918 224.101 44.1249 213.968 38.3809" stroke="#DBAB33" stroke-width="1.3" stroke-miterlimit="10" stroke-linecap="round" stroke-linejoin="round"/>
<path d="M259.182 72.3257C255.619 59.3704 238.175 59.7874 234.55 59.1321C228.991 58.1285 224.505 54.4534 220.316 50.9219" stroke="#DBAB33" stroke-width="1.3" stroke-miterlimit="10" stroke-linecap="round" stroke-linejoin="round"/>
<path d="M248.718 88.3179C235.623 69.3222 226.631 79.7449 219.47 62.793" stroke="#DBAB33" stroke-width="1.3" stroke-miterlimit="10" stroke-linecap="round" stroke-linejoin="round"/>
<path d="M210.914 36.972C209.311 36.3847 207.803 35.5744 206.456 34.5762" stroke="#DBAB33" stroke-width="1.3" stroke-miterlimit="10" stroke-linecap="round" stroke-linejoin="round"/>
<path d="M251.334 94.9153C251.388 93.9385 251.19 92.951 250.762 92.0566" stroke="#DBAB33" stroke-width="1.3" stroke-miterlimit="10" stroke-linecap="round" stroke-linejoin="round"/>
<path d="M260.636 78.0029C260.422 77.1422 260.208 76.2807 259.995 75.4199" stroke="#DBAB33" stroke-width="1.3" stroke-miterlimit="10" stroke-linecap="round" stroke-linejoin="round"/>
<path d="M176.15 65.0156C175.879 65.7985 175.607 66.5813 175.336 67.3641" stroke="#DBAB33" stroke-width="1.3" stroke-miterlimit="10" stroke-linecap="round" stroke-linejoin="round"/>
<path d="M218.483 60.0903C217.053 58.4376 216.089 56.4412 215.712 54.3516" stroke="#DBAB33" stroke-width="1.3" stroke-miterlimit="10" stroke-linecap="round" stroke-linejoin="round"/>
<path d="M194.782 60.8205C195.855 56.2892 195.783 51.5288 194.573 47.0273" stroke="#DBAB33" stroke-width="1.3" stroke-miterlimit="10" stroke-linecap="round" stroke-linejoin="round"/>
<path d="M193.569 44.1971C193.102 43.4166 192.635 42.636 192.169 41.8555" stroke="#DBAB33" stroke-width="1.3" stroke-miterlimit="10" stroke-linecap="round" stroke-linejoin="round"/>
<path d="M203.74 69.1986C203.912 68.5884 204.082 67.9774 204.254 67.3672" stroke="#DBAB33" stroke-width="1.3" stroke-miterlimit="10" stroke-linecap="round" stroke-linejoin="round"/>
<path d="M175.317 48.823C208.147 25.0195 191.106 19.054 196.199 8.43568C204.368 -8.59342 179.622 10.3045 174.683 21.3788C172.889 25.4029 172.259 29.8234 170.291 33.7773C166.937 40.5188 161.078 45.778 160.938 53.6506" stroke="#DBAB33" stroke-width="1.3" stroke-miterlimit="10" stroke-linecap="round" stroke-linejoin="round"/>
<path d="M193.165 4.30273C183.397 10.4653 174.831 26.1029 178.172 36.6082C181.302 46.4466 169.706 43.0343 167.907 54.2398" stroke="#DBAB33" stroke-width="1.3" stroke-miterlimit="10" stroke-linecap="round" stroke-linejoin="round"/>
<path d="M189.588 13.7324C186.654 14.1112 184.278 16.766 184.417 19.5086C184.44 19.9714 184.523 20.4526 184.343 20.8841C183.973 21.7715 182.65 22.1015 182.363 23.0149C182.024 24.0887 183.346 25.0709 183.29 26.1882C183.234 27.2666 181.915 28.0793 182.037 29.1531C182.125 29.9321 182.97 30.55 182.896 31.3305C182.866 31.6505 182.682 31.9369 182.543 32.231C181.658 34.1029 183.209 35.6174 182.982 37.4931C182.765 39.2955 181.81 40.7329 180.07 41.6158" stroke="#DBAB33" stroke-width="1.3" stroke-miterlimit="10" stroke-linecap="round" stroke-linejoin="round"/>
<path d="M171.464 39.5807C170.454 38.6283 170.059 37.155 170.469 35.875" stroke="#DBAB33" stroke-width="1.3" stroke-miterlimit="10" stroke-linecap="round" stroke-linejoin="round"/>
<path d="M169.822 40.971C169.305 40.3234 168.968 39.5528 168.855 38.7539" stroke="#DBAB33" stroke-width="1.3" stroke-miterlimit="10" stroke-linecap="round" stroke-linejoin="round"/>
<path d="M168.279 42.2707C168.045 41.9239 167.811 41.5772 167.577 41.2305" stroke="#DBAB33" stroke-width="1.3" stroke-miterlimit="10" stroke-linecap="round" stroke-linejoin="round"/>
<path d="M167.154 44.1039C166.852 43.9343 166.646 43.6281 166.614 43.3027" stroke="#DBAB33" stroke-width="1.3" stroke-miterlimit="10" stroke-linecap="round" stroke-linejoin="round"/>
<path d="M166.04 45.6581C165.804 45.581 165.633 45.3572 165.634 45.125" stroke="#DBAB33" stroke-width="1.3" stroke-miterlimit="10" stroke-linecap="round" stroke-linejoin="round"/>
<path d="M164.917 47.2144C164.706 47.1029 164.554 46.9036 164.509 46.6836" stroke="#DBAB33" stroke-width="1.3" stroke-miterlimit="10" stroke-linecap="round" stroke-linejoin="round"/>
<path d="M164.084 49.4101C163.888 49.2863 163.736 49.1023 163.658 48.8945" stroke="#DBAB33" stroke-width="1.3" stroke-miterlimit="10" stroke-linecap="round" stroke-linejoin="round"/>
<path d="M163.239 51.2445C163.062 51.2452 162.893 51.1268 162.846 50.9688" stroke="#DBAB33" stroke-width="1.3" stroke-miterlimit="10" stroke-linecap="round" stroke-linejoin="round"/>
<path d="M162.818 53.064C162.603 53.0503 162.396 52.9479 162.264 52.7891" stroke="#DBAB33" stroke-width="1.3" stroke-miterlimit="10" stroke-linecap="round" stroke-linejoin="round"/>
<path d="M190.452 32.3848C188.848 33.454 186.946 34.1383 184.983 34.3514" stroke="#DBAB33" stroke-width="1.3" stroke-miterlimit="10" stroke-linecap="round" stroke-linejoin="round"/>
<path d="M191.298 29.2676C189.697 30.7737 187.529 31.752 185.262 31.9926" stroke="#DBAB33" stroke-width="1.3" stroke-miterlimit="10" stroke-linecap="round" stroke-linejoin="round"/>
<path d="M191.583 26.541C189.87 28.4534 187.363 29.7396 184.705 30.071" stroke="#DBAB33" stroke-width="1.3" stroke-miterlimit="10" stroke-linecap="round" stroke-linejoin="round"/>
<path d="M190.597 24.7188C189.212 26.0499 187.453 27.0443 185.543 27.5774" stroke="#DBAB33" stroke-width="1.3" stroke-miterlimit="10" stroke-linecap="round" stroke-linejoin="round"/>
<path d="M190.056 23.1816C188.982 24.0034 187.722 24.6144 186.381 24.9634" stroke="#DBAB33" stroke-width="1.3" stroke-miterlimit="10" stroke-linecap="round" stroke-linejoin="round"/>
<path d="M189.345 21.3457C188.698 22.0598 187.787 22.5646 186.802 22.7548" stroke="#DBAB33" stroke-width="1.3" stroke-miterlimit="10" stroke-linecap="round" stroke-linejoin="round"/>
<path d="M188.767 19.5117C188.433 19.8714 187.992 20.1456 187.507 20.2945" stroke="#DBAB33" stroke-width="1.3" stroke-miterlimit="10" stroke-linecap="round" stroke-linejoin="round"/>
<path d="M188.202 17.8086C187.779 17.9422 187.394 18.1737 187.089 18.4769" stroke="#DBAB33" stroke-width="1.3" stroke-miterlimit="10" stroke-linecap="round" stroke-linejoin="round"/>
<path d="M192.79 28.3548C192.887 28.1203 193.049 27.9088 193.256 27.7461" stroke="#DBAB33" stroke-width="1.3" stroke-miterlimit="10" stroke-linecap="round" stroke-linejoin="round"/>
<path d="M192.899 25.506C193.022 25.3601 193.145 25.2142 193.267 25.0684" stroke="#DBAB33" stroke-width="1.3" stroke-miterlimit="10" stroke-linecap="round" stroke-linejoin="round"/>
<path d="M193.075 22.7207C192.971 23.0438 192.728 23.3263 192.412 23.4936" stroke="#DBAB33" stroke-width="1.3" stroke-miterlimit="10" stroke-linecap="round" stroke-linejoin="round"/>
<path d="M192.509 21.248C192.267 21.5696 191.943 21.8377 191.571 22.0248" stroke="#DBAB33" stroke-width="1.3" stroke-miterlimit="10" stroke-linecap="round" stroke-linejoin="round"/>
<path d="M192.047 19.4316C191.859 19.6913 191.671 19.951 191.484 20.2107" stroke="#DBAB33" stroke-width="1.3" stroke-miterlimit="10" stroke-linecap="round" stroke-linejoin="round"/>
<path d="M191.379 17.8633C191.199 18.2062 190.852 18.4689 190.454 18.5659" stroke="#DBAB33" stroke-width="1.3" stroke-miterlimit="10" stroke-linecap="round" stroke-linejoin="round"/>
<path d="M191.199 15.873C190.97 16.2267 190.685 16.5482 190.357 16.8262" stroke="#DBAB33" stroke-width="1.3" stroke-miterlimit="10" stroke-linecap="round" stroke-linejoin="round"/>
<path d="M220.085 31.744C236.045 15.51 236.688 17.4315 239.395 13.8504C240.12 12.8911 240.475 10.0668 242.166 10.8137C244.938 12.0395 243.435 27.7909 236.002 35.1564" stroke="#DBAB33" stroke-width="1.3" stroke-miterlimit="10" stroke-linecap="round" stroke-linejoin="round"/>
<path d="M239.842 15.7441C231.557 25.8942 227.984 28.7163 225.41 33.9731" stroke="#DBAB33" stroke-width="1.3" stroke-miterlimit="10" stroke-linecap="round" stroke-linejoin="round"/>
<path d="M239.255 22.668C237.718 25.5641 236.181 28.4594 234.644 31.3555" stroke="#DBAB33" stroke-width="1.3" stroke-miterlimit="10" stroke-linecap="round" stroke-linejoin="round"/>
<path d="M224.817 31.8628C224.021 31.6459 223.227 31.4298 222.432 31.2129" stroke="#DBAB33" stroke-width="1.3" stroke-miterlimit="10" stroke-linecap="round" stroke-linejoin="round"/>
<path d="M225.658 30.3059C224.95 30.2906 224.25 30.0599 223.691 29.6582" stroke="#DBAB33" stroke-width="1.3" stroke-miterlimit="10" stroke-linecap="round" stroke-linejoin="round"/>
<path d="M226.63 28.9085C226.258 28.8169 225.886 28.7245 225.513 28.6328" stroke="#DBAB33" stroke-width="1.3" stroke-miterlimit="10" stroke-linecap="round" stroke-linejoin="round"/>
<path d="M227.488 27.5583C227.252 27.4796 227.014 27.4009 226.778 27.3223" stroke="#DBAB33" stroke-width="1.3" stroke-miterlimit="10" stroke-linecap="round" stroke-linejoin="round"/>
<path d="M228.324 26.0137C228.23 26.0137 228.136 26.0137 228.043 26.0137" stroke="#DBAB33" stroke-width="1.3" stroke-miterlimit="10" stroke-linecap="round" stroke-linejoin="round"/>
<path d="M229.585 24.7129C229.492 24.7129 229.398 24.7129 229.305 24.7129" stroke="#DBAB33" stroke-width="1.3" stroke-miterlimit="10" stroke-linecap="round" stroke-linejoin="round"/>
<path d="M231.549 23.2852C231.409 23.2852 231.269 23.2852 231.128 23.2852" stroke="#DBAB33" stroke-width="1.3" stroke-miterlimit="10" stroke-linecap="round" stroke-linejoin="round"/>
<path d="M232.672 21.8555C232.578 21.8555 232.485 21.8555 232.392 21.8555" stroke="#DBAB33" stroke-width="1.3" stroke-miterlimit="10" stroke-linecap="round" stroke-linejoin="round"/>
<path d="M233.372 20.6836C233.325 20.6836 233.279 20.6836 233.232 20.6836" stroke="#DBAB33" stroke-width="1.3" stroke-miterlimit="10" stroke-linecap="round" stroke-linejoin="round"/>
<path d="M232.391 33.0312C230.978 33.4047 229.455 33.4078 228.041 33.0404" stroke="#DBAB33" stroke-width="1.3" stroke-miterlimit="10" stroke-linecap="round" stroke-linejoin="round"/>
<path d="M232.537 31.0957C231.387 31.5364 230.065 31.5822 228.882 31.221" stroke="#DBAB33" stroke-width="1.3" stroke-miterlimit="10" stroke-linecap="round" stroke-linejoin="round"/>
<path d="M232.671 29.2578C232.028 29.3892 231.365 29.4342 230.709 29.3922" stroke="#DBAB33" stroke-width="1.3" stroke-miterlimit="10" stroke-linecap="round" stroke-linejoin="round"/>
<path d="M232.675 27.7227C232.395 27.7674 232.115 27.8114 231.835 27.8554" stroke="#DBAB33" stroke-width="1.3" stroke-miterlimit="10" stroke-linecap="round" stroke-linejoin="round"/>
<path d="M232.816 26.2734C232.722 26.2734 232.628 26.2734 232.535 26.2734" stroke="#DBAB33" stroke-width="1.3" stroke-miterlimit="10" stroke-linecap="round" stroke-linejoin="round"/>
<path d="M174.684 21.3793C167.031 21.109 162.288 24.2983 155.852 27.6344C150.939 30.1814 147.883 31.6913 143.184 34.8181C133.5 41.264 125.922 51.3019 113.936 54.3225C106.153 56.2838 91.0832 54.1735 84.3492 68.0973C101.328 60.1582 110.736 63.0482 111.273 63.802C114.692 68.6113 81.217 92.5499 76.7697 71.9183C71.3121 86.1567 82.5099 88.3677 85.8448 91.0408C88.0862 92.8371 89.3222 96.3885 87.1047 98.21C83.9545 100.798 63.9057 93.5481 53.766 120.617C58.9005 115.151 66.9975 112.208 74.7722 112.98C56.2974 114.896 60.4332 142.455 44.915 149.227C51.0969 149.084 57.2071 146.985 61.9972 143.36C57.0489 155.043 53.5682 166.834 40.3943 172.691C46.5499 173.082 52.8307 170.294 56.36 165.603C54.0799 177.901 44.9315 188.926 32.6921 194.126C42.2377 194.185 51.6375 189.218 56.4432 181.573C60.2849 193.167 44.8886 207.495 35.371 205.373C46.9709 211.762 63.3692 206.074 66.5047 194.062C65.6873 216.238 77.0754 237.202 65.7458 249.593C73.4876 246.217 79.0754 238.927 79.967 231.042C86.551 240.853 92.5253 252.139 86.7331 262.582C94.1882 257.219 98.4154 248.229 97.5799 239.517C101.45 250.252 109.043 259.804 118.958 266.412C113.705 258.931 110.571 250.183 109.95 241.277C115.226 251.308 127.312 257.9 139.335 257.302C126.642 253.523 118.97 236.479 116.03 225.558C120.402 231.747 126.795 236.69 134.148 239.566C120.149 228.703 113.054 210.788 113.437 200.841C113.473 199.906 113.514 197.004 113.187 195.502C117.977 198.946 123.978 200.918 130.039 201.041C116.037 189.503 109.158 170.994 112.525 153.912C116.801 157.68 119.653 162.809 120.487 168.223C122.41 156.749 116.514 145.526 110.788 135.197C117.472 137.829 122.144 144.352 122.167 151.083C126.045 141.985 122.516 131.682 117.995 122.842C123.915 124.597 129.497 132.872 129.541 138.445C136.425 124.232 114.928 118.958 128.802 93.3511C129.039 99.6512 131.801 103.73 135.922 108.28C135.651 89.2246 144.2 70.8383 162.036 60.3598" stroke="url(#paint0_linear_37_16078)" stroke-width="1.3" stroke-miterlimit="10" stroke-linecap="round" stroke-linejoin="round"/>
<path d="M110.803 63.5059C123.179 66.7457 143.522 61.3017 150.761 49.5195" stroke="#DBAB33" stroke-width="1.3" stroke-miterlimit="10" stroke-linecap="round" stroke-linejoin="round"/>
<path d="M158.701 32.5312C145.505 36.1926 136.674 53.5295 123.179 56.0896" stroke="#DBAB33" stroke-width="1.3" stroke-miterlimit="10" stroke-linecap="round" stroke-linejoin="round"/>
<path d="M118.334 57.4414C115.266 57.6629 112.199 57.8836 109.131 58.1051" stroke="#DBAB33" stroke-width="1.3" stroke-miterlimit="10" stroke-linecap="round" stroke-linejoin="round"/>
<path d="M153.219 40.7539C148.704 47.7956 135.716 58.2626 129.151 58.7682" stroke="#DBAB33" stroke-width="1.3" stroke-miterlimit="10" stroke-linecap="round" stroke-linejoin="round"/>
<path d="M128.803 93.3488C126.781 84.5986 127.149 74.8762 130.725 66.5645" stroke="#DBAB33" stroke-width="1.3" stroke-miterlimit="10" stroke-linecap="round" stroke-linejoin="round"/>
<path d="M133.03 92.9706C131.365 83.957 133.526 74.3843 138.953 66.7461" stroke="#DBAB33" stroke-width="1.3" stroke-miterlimit="10" stroke-linecap="round" stroke-linejoin="round"/>
<path d="M138.215 81.1391C139.491 72.1308 144.332 63.5937 151.613 57.5098" stroke="#DBAB33" stroke-width="1.3" stroke-miterlimit="10" stroke-linecap="round" stroke-linejoin="round"/>
<path d="M86.502 91.6509C100.651 97.9021 120.156 92.9256 127.561 80.0879" stroke="#DBAB33" stroke-width="1.3" stroke-miterlimit="10" stroke-linecap="round" stroke-linejoin="round"/>
<path d="M82.2904 84.3348C93.6217 91.2711 110.446 88.9012 119.042 79.1582" stroke="#DBAB33" stroke-width="1.3" stroke-miterlimit="10" stroke-linecap="round" stroke-linejoin="round"/>
<path d="M96.4145 82.5975C102.062 81.94 107.343 78.9278 110.52 74.5508" stroke="#DBAB33" stroke-width="1.3" stroke-miterlimit="10" stroke-linecap="round" stroke-linejoin="round"/>
<path d="M115.199 120.716C110.534 114.914 108.582 107.302 109.933 100.176" stroke="#DBAB33" stroke-width="1.3" stroke-miterlimit="10" stroke-linecap="round" stroke-linejoin="round"/>
<path d="M123.875 119.249C119.754 111.791 117.975 103.234 118.813 94.8906" stroke="#DBAB33" stroke-width="1.3" stroke-miterlimit="10" stroke-linecap="round" stroke-linejoin="round"/>
<path d="M117.558 114.626C115.705 110.838 114.311 106.855 113.412 102.779" stroke="#DBAB33" stroke-width="1.3" stroke-miterlimit="10" stroke-linecap="round" stroke-linejoin="round"/>
<path d="M110.789 135.194C94.062 129.635 94.6735 108.005 99.9522 94.3359" stroke="#DBAB33" stroke-width="1.3" stroke-miterlimit="10" stroke-linecap="round" stroke-linejoin="round"/>
<path d="M117.753 131.534C110.23 125.091 105.229 116.171 103.865 106.762" stroke="#DBAB33" stroke-width="1.3" stroke-miterlimit="10" stroke-linecap="round" stroke-linejoin="round"/>
<path d="M107.813 129.635C105.186 125.581 103.181 121.18 101.876 116.607" stroke="#DBAB33" stroke-width="1.3" stroke-miterlimit="10" stroke-linecap="round" stroke-linejoin="round"/>
<path d="M74.7706 112.979C82.2891 114.627 87.9041 112.33 92.2805 109.527" stroke="#DBAB33" stroke-width="1.3" stroke-miterlimit="10" stroke-linecap="round" stroke-linejoin="round"/>
<path d="M66.4348 106.838C76.3322 106.275 87.3397 105.23 93.8562 98.3027" stroke="#DBAB33" stroke-width="1.3" stroke-miterlimit="10" stroke-linecap="round" stroke-linejoin="round"/>
<path d="M81.5238 109.892C85.3193 109.8 89.039 108.137 91.479 105.441" stroke="#DBAB33" stroke-width="1.3" stroke-miterlimit="10" stroke-linecap="round" stroke-linejoin="round"/>
<path d="M61.9963 143.36C70.8926 131.534 84.0911 129.171 88.7824 128.027C92.919 127.019 97.7635 121.759 97.1241 117.84" stroke="#DBAB33" stroke-width="1.3" stroke-miterlimit="10" stroke-linecap="round" stroke-linejoin="round"/>
<path d="M58.4977 140.263C66.7133 117.296 92.0713 128.712 94.0622 117.838" stroke="#DBAB33" stroke-width="1.3" stroke-miterlimit="10" stroke-linecap="round" stroke-linejoin="round"/>
<path d="M79.413 118.254C72.9444 118.387 66.591 121.17 62.3745 125.719" stroke="#DBAB33" stroke-width="1.3" stroke-miterlimit="10" stroke-linecap="round" stroke-linejoin="round"/>
<path d="M112.526 153.909C95.5984 143.847 92.8791 139.367 91.479 133.482" stroke="#DBAB33" stroke-width="1.3" stroke-miterlimit="10" stroke-linecap="round" stroke-linejoin="round"/>
<path d="M110.544 147.416C104.391 143.991 99.5683 138.559 97.1275 132.303" stroke="#DBAB33" stroke-width="1.3" stroke-miterlimit="10" stroke-linecap="round" stroke-linejoin="round"/>
<path d="M113.247 195.543C100.539 184.951 92.2701 167.838 92.3657 151.998" stroke="#DBAB33" stroke-width="1.3" stroke-miterlimit="10" stroke-linecap="round" stroke-linejoin="round"/>
<path d="M117.343 192.311C104.737 181.545 97.9269 165.213 99.4456 149.389" stroke="#DBAB33" stroke-width="1.3" stroke-miterlimit="10" stroke-linecap="round" stroke-linejoin="round"/>
<path d="M110.778 178.154C107.847 171.729 106.035 164.867 105.435 157.914" stroke="#DBAB33" stroke-width="1.3" stroke-miterlimit="10" stroke-linecap="round" stroke-linejoin="round"/>
<path d="M56.3586 165.603C65.1675 157.273 70.7883 141.687 83.9275 138.055" stroke="#DBAB33" stroke-width="1.3" stroke-miterlimit="10" stroke-linecap="round" stroke-linejoin="round"/>
<path d="M59.6195 155.959C63.598 150.463 67.8731 145.152 72.4226 140.051C74.4324 137.799 76.9564 135.39 80.1067 135.519" stroke="#DBAB33" stroke-width="1.3" stroke-miterlimit="10" stroke-linecap="round" stroke-linejoin="round"/>
<path d="M56.442 181.572C55.9344 170.057 75.0116 147.17 83.4753 147.17" stroke="#DBAB33" stroke-width="1.3" stroke-miterlimit="10" stroke-linecap="round" stroke-linejoin="round"/>
<path d="M66.5044 194.062C69.1957 172.843 92.2819 162.343 88.7196 139.549" stroke="#DBAB33" stroke-width="1.3" stroke-miterlimit="10" stroke-linecap="round" stroke-linejoin="round"/>
<path d="M57.1081 198.349C68.7978 187.919 64.9825 168.034 79.413 153.959" stroke="#DBAB33" stroke-width="1.3" stroke-miterlimit="10" stroke-linecap="round" stroke-linejoin="round"/>
<path d="M97.5804 239.516C88.5251 220.47 85.9236 195.139 91.719 175.031" stroke="#DBAB33" stroke-width="1.3" stroke-miterlimit="10" stroke-linecap="round" stroke-linejoin="round"/>
<path d="M109.95 241.275C110.164 233.04 110.033 226.719 108.687 219.596C106.118 206.007 96.8949 193.289 98.6411 179.588" stroke="#DBAB33" stroke-width="1.3" stroke-miterlimit="10" stroke-linecap="round" stroke-linejoin="round"/>
<path d="M104.507 242.705C99.7536 227.356 105.058 208.621 93.837 195.543" stroke="#DBAB33" stroke-width="1.3" stroke-miterlimit="10" stroke-linecap="round" stroke-linejoin="round"/>
<path d="M116.029 225.555C111.201 217.223 108.161 206.063 107.791 196.611" stroke="#DBAB33" stroke-width="1.3" stroke-miterlimit="10" stroke-linecap="round" stroke-linejoin="round"/>
<path d="M120.407 248.479C117.558 243.457 114.711 238.434 111.862 233.412" stroke="#DBAB33" stroke-width="1.3" stroke-miterlimit="10" stroke-linecap="round" stroke-linejoin="round"/>
<path d="M75.2559 221.538C73.1826 204.779 76.4895 183.548 85.347 168.502" stroke="#DBAB33" stroke-width="1.3" stroke-miterlimit="10" stroke-linecap="round" stroke-linejoin="round"/>
<path d="M93.1512 243.186C91.5065 230.498 80.148 220.277 83.7342 196.629" stroke="#DBAB33" stroke-width="1.3" stroke-miterlimit="10" stroke-linecap="round" stroke-linejoin="round"/>
<path d="M175.239 17.7091C158.69 7.8263 138.767 25.1342 124.108 29.1759C115.654 31.5068 96.5233 32.5188 95.2304 20.722C91.4292 35.2629 102.923 58.2751 123.052 50.401" stroke="white" stroke-width="1.3" stroke-miterlimit="10" stroke-linecap="round" stroke-linejoin="round"/>
<path d="M97.6482 31.959C100.165 40.7748 110.817 46.8404 120.439 44.9357" stroke="#DBAB33" stroke-width="1.3" stroke-miterlimit="10" stroke-linecap="round" stroke-linejoin="round"/>
<path d="M105.934 33.4912C116.275 45.2818 135.648 29.8886 146.68 28.3184" stroke="#DBAB33" stroke-width="1.3" stroke-miterlimit="10" stroke-linecap="round" stroke-linejoin="round"/>
<path d="M102.415 46.5601C96.4203 39.106 83.5407 48.1044 78.3006 49.4875C56.4307 55.2629 51.8499 34.034 63.5677 62.6735C64.4206 64.7577 65.3196 66.9092 67.027 68.4787C68.7344 70.0481 71.8031 72.0071 74.5117 71.5244" stroke="white" stroke-width="1.3" stroke-miterlimit="10" stroke-linecap="round" stroke-linejoin="round"/>
<path d="M65.1827 55.6294C73.7436 60.7266 86.5326 58.1582 92.0504 50.2344" stroke="#DBAB33" stroke-width="1.3" stroke-miterlimit="10" stroke-linecap="round" stroke-linejoin="round"/>
<path d="M72.3684 64.0293C74.9147 66.3847 79.3431 66.7108 82.2585 64.7571" stroke="#DBAB33" stroke-width="1.3" stroke-miterlimit="10" stroke-linecap="round" stroke-linejoin="round"/>
<path d="M86.4567 73.7445C91.1257 73.1503 95.695 71.8879 99.9511 70.0137" stroke="#DBAB33" stroke-width="1.3" stroke-miterlimit="10" stroke-linecap="round" stroke-linejoin="round"/>
<path d="M74.5123 71.5254C45.2393 75.894 55.2101 110.475 28.1958 110.307C34.3464 117.43 51.1764 118.111 58.1725 111.694" stroke="white" stroke-width="1.3" stroke-miterlimit="10" stroke-linecap="round" stroke-linejoin="round"/>
<path d="M40.4485 109.95C56.9853 104.922 56.593 77.3955 70.2456 80.3023" stroke="#DBAB33" stroke-width="1.3" stroke-miterlimit="10" stroke-linecap="round" stroke-linejoin="round"/>
<path d="M54.6415 106.074C58.9726 99.0592 66.2076 93.6298 74.5123 91.1621" stroke="#DBAB33" stroke-width="1.3" stroke-miterlimit="10" stroke-linecap="round" stroke-linejoin="round"/>
<path d="M48.8989 115.725C28.1225 120.714 38.151 151.103 18.2135 156.145C22.2537 159.304 26.5024 162.562 31.651 163.669C36.7996 164.777 53.9708 161.812 55.9345 157.264" stroke="white" stroke-width="1.3" stroke-miterlimit="10" stroke-linecap="round" stroke-linejoin="round"/>
<path d="M52.3712 120.703C38.3626 126.467 39.0226 144.714 28.1231 153.719" stroke="#DBAB33" stroke-width="1.3" stroke-miterlimit="10" stroke-linecap="round" stroke-linejoin="round"/>
<path d="M54.6003 127.57C43.5829 129.272 44.3163 151.624 29.8545 157.263" stroke="#DBAB33" stroke-width="1.3" stroke-miterlimit="10" stroke-linecap="round" stroke-linejoin="round"/>
<path d="M36.1238 163.855C26.0286 166.53 21.3407 181.804 19.6728 187.908C17.5345 195.734 8.20472 212.503 0.999361 208.091C6.24929 213.161 16.8258 218.275 22.9657 216.111C40.7055 209.856 30.0103 197.329 55.9345 190.947" stroke="white" stroke-width="1.3" stroke-miterlimit="10" stroke-linecap="round" stroke-linejoin="round"/>
<path d="M13.1403 207.637C24.9981 205.342 26.6545 172.277 37.8572 168.787" stroke="#DBAB33" stroke-width="1.3" stroke-miterlimit="10" stroke-linecap="round" stroke-linejoin="round"/>
<path d="M23.558 208.322C25.2077 205.478 26.8574 202.633 28.508 199.789" stroke="#DBAB33" stroke-width="1.3" stroke-miterlimit="10" stroke-linecap="round" stroke-linejoin="round"/>
<path d="M29.9116 186.665C31.16 184.381 32.6803 182.225 34.4355 180.248" stroke="#DBAB33" stroke-width="1.3" stroke-miterlimit="10" stroke-linecap="round" stroke-linejoin="round"/>
<path d="M23.7524 215.822C18.2141 226.478 24.1414 239.303 10.82 251.571C32.5614 261.996 64.8677 245.719 69.1947 219.908" stroke="white" stroke-width="1.3" stroke-miterlimit="10" stroke-linecap="round" stroke-linejoin="round"/>
<path d="M33.1067 249.396C46.8153 243.75 56.2752 230.2 56.2126 216.297" stroke="#DBAB33" stroke-width="1.3" stroke-miterlimit="10" stroke-linecap="round" stroke-linejoin="round"/>
<path d="M30.0105 243.05C39.0271 236.514 44.7747 226.254 45.354 215.658" stroke="#DBAB33" stroke-width="1.3" stroke-miterlimit="10" stroke-linecap="round" stroke-linejoin="round"/>
<path d="M28.8207 233.42C32.7168 228.035 34.6714 221.465 34.303 214.99" stroke="#DBAB33" stroke-width="1.3" stroke-miterlimit="10" stroke-linecap="round" stroke-linejoin="round"/>
<path d="M101.601 248.087C105.666 272.186 57.107 300.061 28.1232 288.563C34.9817 288.378 41.8343 277.931 44.88 272.233C47.9256 266.535 50.0994 253.13 50.7801 246.803" stroke="white" stroke-width="1.3" stroke-miterlimit="10" stroke-linecap="round" stroke-linejoin="round"/>
<path d="M49.0616 280.495C74.6569 275.301 83.3109 260.586 86.0311 250.564" stroke="#DBAB33" stroke-width="1.3" stroke-miterlimit="10" stroke-linecap="round" stroke-linejoin="round"/>
<path d="M57.7463 270.103C65.8779 268.757 72.3054 261.347 71.9766 253.697" stroke="#DBAB33" stroke-width="1.3" stroke-miterlimit="10" stroke-linecap="round" stroke-linejoin="round"/>
<path d="M61.6246 249.104C61.6691 253.986 60.0367 258.87 57.0223 262.874" stroke="#DBAB33" stroke-width="1.3" stroke-miterlimit="10" stroke-linecap="round" stroke-linejoin="round"/>
<path d="M122.918 253.697C130.443 264.733 128.733 293.763 93.1517 293.763C102.06 289.277 104.085 269.031 97.9995 263.155" stroke="white" stroke-width="1.3" stroke-miterlimit="10" stroke-linecap="round" stroke-linejoin="round"/>
<path d="M110.731 280.494C113.799 277.729 115.867 274.025 116.533 270.107" stroke="#DBAB33" stroke-width="1.3" stroke-miterlimit="10" stroke-linecap="round" stroke-linejoin="round"/>
<path d="M107.473 272.765C108.457 269.032 107.849 264.959 105.809 261.613" stroke="#DBAB33" stroke-width="1.3" stroke-miterlimit="10" stroke-linecap="round" stroke-linejoin="round"/>
<path d="M101.258 278.514C98.1497 288.4 76.5551 299.54 66.1755 298.5C69.9628 295.802 80.0028 286.15 77.7648 281.649" stroke="white" stroke-width="1.3" stroke-miterlimit="10" stroke-linecap="round" stroke-linejoin="round"/>
<path d="M96.6228 272.705C94.1416 278.49 88.8868 283.196 82.5648 285.296" stroke="#DBAB33" stroke-width="1.3" stroke-miterlimit="10" stroke-linecap="round" stroke-linejoin="round"/>
<path d="M167.924 30.6777C166.247 30.5295 164.521 30.8809 163.064 31.6675" stroke="#DBAB33" stroke-width="1.3" stroke-miterlimit="10" stroke-linecap="round" stroke-linejoin="round"/>
<path d="M128.266 43.2598C127.154 43.8211 125.952 44.2312 124.713 44.4734" stroke="#DBAB33" stroke-width="1.3" stroke-miterlimit="10" stroke-linecap="round" stroke-linejoin="round"/>
<path d="M151.27 28.0078C150.896 28.0078 150.522 28.0078 150.148 28.0078" stroke="#DBAB33" stroke-width="1.3" stroke-miterlimit="10" stroke-linecap="round" stroke-linejoin="round"/>
<path d="M105.83 58.4709C103.455 58.141 100.997 58.335 98.7157 59.0323" stroke="#DBAB33" stroke-width="1.3" stroke-miterlimit="10" stroke-linecap="round" stroke-linejoin="round"/>
<path d="M159.879 36.5312C158.236 36.7993 156.714 37.6593 155.704 38.8897" stroke="#DBAB33" stroke-width="1.3" stroke-miterlimit="10" stroke-linecap="round" stroke-linejoin="round"/>
<path d="M142.854 61.6348C141.939 62.4947 141.178 63.4945 140.61 64.5813" stroke="#DBAB33" stroke-width="1.3" stroke-miterlimit="10" stroke-linecap="round" stroke-linejoin="round"/>
<path d="M137.045 86.7688C137.109 85.7866 137.173 84.8044 137.237 83.8223" stroke="#DBAB33" stroke-width="1.3" stroke-miterlimit="10" stroke-linecap="round" stroke-linejoin="round"/>
<path d="M124.502 72.5449C123.744 74.1037 122.678 75.5319 121.37 76.7378" stroke="#DBAB33" stroke-width="1.3" stroke-miterlimit="10" stroke-linecap="round" stroke-linejoin="round"/>
<path d="M93.4796 82.9642C92.3341 83.0024 91.1813 82.8176 90.1167 82.4258" stroke="#DBAB33" stroke-width="1.3" stroke-miterlimit="10" stroke-linecap="round" stroke-linejoin="round"/>
<path d="M101.899 48.2829C99.7981 47.1044 96.9247 47.2495 94.975 48.6334" stroke="#DBAB33" stroke-width="1.3" stroke-miterlimit="10" stroke-linecap="round" stroke-linejoin="round"/>
<path d="M69.5327 62.6933C68.5413 62.2977 67.6852 61.6157 67.1149 60.7656" stroke="#DBAB33" stroke-width="1.3" stroke-miterlimit="10" stroke-linecap="round" stroke-linejoin="round"/>
<path d="M83.7585 73.7905C82.3329 74.0288 80.806 73.6981 79.6425 72.8984" stroke="#DBAB33" stroke-width="1.3" stroke-miterlimit="10" stroke-linecap="round" stroke-linejoin="round"/>
<path d="M121.297 67.8555C117.974 75.1209 111.501 81.0987 103.65 84.1529" stroke="#DBAB33" stroke-width="1.3" stroke-miterlimit="10" stroke-linecap="round" stroke-linejoin="round"/>
<path d="M52.7719 107.961C51.5194 109.419 49.6488 110.407 47.6571 110.662" stroke="#DBAB33" stroke-width="1.3" stroke-miterlimit="10" stroke-linecap="round" stroke-linejoin="round"/>
<path d="M78.3315 110.164C77.0229 110.044 75.7144 109.924 74.405 109.805" stroke="#DBAB33" stroke-width="1.3" stroke-miterlimit="10" stroke-linecap="round" stroke-linejoin="round"/>
<path d="M119.659 92.4901C119.595 91.6691 119.726 90.8351 120.042 90.0645" stroke="#DBAB33" stroke-width="1.3" stroke-miterlimit="10" stroke-linecap="round" stroke-linejoin="round"/>
<path d="M110.661 98.0339C110.747 97.1349 111.014 96.2505 111.443 95.4395" stroke="#DBAB33" stroke-width="1.3" stroke-miterlimit="10" stroke-linecap="round" stroke-linejoin="round"/>
<path d="M103.39 103.93C103.257 101.706 103.577 99.4593 104.327 97.3438" stroke="#DBAB33" stroke-width="1.3" stroke-miterlimit="10" stroke-linecap="round" stroke-linejoin="round"/>
<path d="M121.56 138.246C121.264 136.373 120.326 134.591 118.915 133.223" stroke="#DBAB33" stroke-width="1.3" stroke-miterlimit="10" stroke-linecap="round" stroke-linejoin="round"/>
<path d="M100.761 113.466C100.569 112.671 100.513 111.848 100.597 111.037" stroke="#DBAB33" stroke-width="1.3" stroke-miterlimit="10" stroke-linecap="round" stroke-linejoin="round"/>
<path d="M117.475 155.563C116.441 153.057 114.645 150.826 112.348 149.195" stroke="#DBAB33" stroke-width="1.3" stroke-miterlimit="10" stroke-linecap="round" stroke-linejoin="round"/>
<path d="M86.3948 116.605C85.1546 117.572 83.5008 118.068 81.8848 117.96" stroke="#DBAB33" stroke-width="1.3" stroke-miterlimit="10" stroke-linecap="round" stroke-linejoin="round"/>
<path d="M79.0799 89.3691C78.4075 89.7976 77.6378 90.0947 76.836 90.236" stroke="#DBAB33" stroke-width="1.3" stroke-miterlimit="10" stroke-linecap="round" stroke-linejoin="round"/>
<path d="M79.9973 95.6067C75.3695 95.1836 70.5744 96.7073 67.2008 99.6744" stroke="#DBAB33" stroke-width="1.3" stroke-miterlimit="10" stroke-linecap="round" stroke-linejoin="round"/>
<path d="M62.7939 102.672C59.6873 104.668 58.1941 108.381 54.9573 110.192" stroke="#DBAB33" stroke-width="1.3" stroke-miterlimit="10" stroke-linecap="round" stroke-linejoin="round"/>
<path d="M52.405 151.641C50.4479 153.77 48.3021 155.779 45.7921 157.332C43.2812 158.885 40.379 159.967 37.3647 160.114" stroke="#DBAB33" stroke-width="1.3" stroke-miterlimit="10" stroke-linecap="round" stroke-linejoin="round"/>
<path d="M43.9683 153.889C42.4224 155.629 40.1505 156.8 37.7402 157.099" stroke="#DBAB33" stroke-width="1.3" stroke-miterlimit="10" stroke-linecap="round" stroke-linejoin="round"/>
<path d="M96.3492 129.733C95.9734 128.865 95.8729 127.895 96.0632 126.977" stroke="#DBAB33" stroke-width="1.3" stroke-miterlimit="10" stroke-linecap="round" stroke-linejoin="round"/>
<path d="M122.089 195.635C121.198 195.233 120.377 194.7 119.666 194.061" stroke="#DBAB33" stroke-width="1.3" stroke-miterlimit="10" stroke-linecap="round" stroke-linejoin="round"/>
<path d="M92.7312 149.516C92.7312 148.476 92.7312 147.437 92.7312 146.396" stroke="#DBAB33" stroke-width="1.3" stroke-miterlimit="10" stroke-linecap="round" stroke-linejoin="round"/>
<path d="M84.2607 193.54C84.4428 191.125 84.9744 188.731 85.8363 186.445" stroke="#DBAB33" stroke-width="1.3" stroke-miterlimit="10" stroke-linecap="round" stroke-linejoin="round"/>
<path d="M87.0969 164.926C88.4121 163.29 89.1496 161.263 89.1727 159.223" stroke="#DBAB33" stroke-width="1.3" stroke-miterlimit="10" stroke-linecap="round" stroke-linejoin="round"/>
<path d="M107.71 193.717C107.639 193.057 107.442 192.409 107.13 191.812" stroke="#DBAB33" stroke-width="1.3" stroke-miterlimit="10" stroke-linecap="round" stroke-linejoin="round"/>
<path d="M108.394 250.783C107.296 249.559 106.481 248.118 106.02 246.584" stroke="#DBAB33" stroke-width="1.3" stroke-miterlimit="10" stroke-linecap="round" stroke-linejoin="round"/>
<path d="M93.1367 245.721C92.9761 247.092 92.5822 248.441 91.9749 249.701" stroke="#DBAB33" stroke-width="1.3" stroke-miterlimit="10" stroke-linecap="round" stroke-linejoin="round"/>
<path d="M75.1689 224.572C75.1343 226.325 74.8739 228.074 74.3943 229.77" stroke="#DBAB33" stroke-width="1.3" stroke-miterlimit="10" stroke-linecap="round" stroke-linejoin="round"/>
<path d="M62.4511 241.213C62.3885 242.657 62.325 244.102 62.2624 245.546" stroke="#DBAB33" stroke-width="1.3" stroke-miterlimit="10" stroke-linecap="round" stroke-linejoin="round"/>
<path d="M53.6378 271.002C52.6044 271.252 51.6016 271.612 50.6564 272.073" stroke="#DBAB33" stroke-width="1.3" stroke-miterlimit="10" stroke-linecap="round" stroke-linejoin="round"/>
<path d="M45.7885 281.08C44.9307 281.252 44.0457 281.311 43.1706 281.254" stroke="#DBAB33" stroke-width="1.3" stroke-miterlimit="10" stroke-linecap="round" stroke-linejoin="round"/>
<path d="M108.795 282.447C107.644 283.543 106.325 284.488 104.892 285.246" stroke="#DBAB33" stroke-width="1.3" stroke-miterlimit="10" stroke-linecap="round" stroke-linejoin="round"/>
<path d="M56.45 212.958C56.4162 211.383 56.6058 209.806 57.0112 208.277" stroke="#DBAB33" stroke-width="1.3" stroke-miterlimit="10" stroke-linecap="round" stroke-linejoin="round"/>
<path d="M28.9666 251.115C27.8427 251.536 26.6107 251.705 25.4035 251.605" stroke="#DBAB33" stroke-width="1.3" stroke-miterlimit="10" stroke-linecap="round" stroke-linejoin="round"/>
<path d="M26.5251 245.371C25.7802 245.78 25.0353 246.191 24.2903 246.6" stroke="#DBAB33" stroke-width="1.3" stroke-miterlimit="10" stroke-linecap="round" stroke-linejoin="round"/>
<path d="M34.2397 212.098C34.416 211.115 34.5923 210.13 34.7687 209.146" stroke="#DBAB33" stroke-width="1.3" stroke-miterlimit="10" stroke-linecap="round" stroke-linejoin="round"/>
<path d="M39.7902 175.658C38.5788 176.123 37.4886 176.857 36.6382 177.781" stroke="#DBAB33" stroke-width="1.3" stroke-miterlimit="10" stroke-linecap="round" stroke-linejoin="round"/>
<path d="M66.3282 166.629C63.4738 170.129 62.6827 174.669 61.9807 179.008" stroke="#DBAB33" stroke-width="1.3" stroke-miterlimit="10" stroke-linecap="round" stroke-linejoin="round"/>
<path d="M60.8304 182.982C60.3945 185.845 59.3348 188.624 57.7337 191.106" stroke="#DBAB33" stroke-width="1.3" stroke-miterlimit="10" stroke-linecap="round" stroke-linejoin="round"/>
<path d="M72.9189 85.5254C70.2474 85.7988 67.7695 87.0147 65.6839 88.5865C63.5983 90.1582 61.8579 92.0806 60.1315 93.9899" stroke="#DBAB33" stroke-width="1.3" stroke-miterlimit="10" stroke-linecap="round" stroke-linejoin="round"/>
<path d="M203.26 188.029C203.981 228.036 239.303 247.078 241.679 269.48" stroke="#DBAB33" stroke-width="1.3" stroke-miterlimit="10" stroke-linecap="round" stroke-linejoin="round"/>
<path d="M245.864 88.2051C249.025 98.0123 238.786 100.457 250.097 123.18C263.737 150.583 254.586 140.557 266.548 161.391C283.496 190.91 266.666 192.122 263.573 203.538C262.815 206.337 263.981 218.447 250.16 217.514C245.517 217.201 241.238 215.173 237.107 213.185C229.079 215.579 225.12 216.504 221.794 215.196C213.661 211.999 216.877 201.838 214.649 198.639C213.558 197.072 211.879 195.957 210.288 194.817C202.578 189.291 198.326 179.728 190.321 174.815C168.549 161.452 170.797 162.508 165.79 160.341C159.346 157.552 144.166 154.26 139.36 138.279C137.428 131.856 137.991 125.046 138.57 118.4" stroke="#DBAB33" stroke-width="1.3" stroke-miterlimit="10" stroke-linecap="round" stroke-linejoin="round"/>
<path d="M153.219 74.0293C148.635 80.2278 145.529 87.3604 144.189 94.7717" stroke="#DBAB33" stroke-width="1.3" stroke-miterlimit="10" stroke-linecap="round" stroke-linejoin="round"/>
<path d="M133.877 138.055C128.602 154.041 120.875 173.91 123.834 190.572" stroke="white" stroke-width="1.3" stroke-miterlimit="10" stroke-linecap="round" stroke-linejoin="round"/>
<path d="M160.327 158.242C148.057 180.737 147.282 208.298 152.624 232.646" stroke="white" stroke-width="1.3" stroke-miterlimit="10" stroke-linecap="round" stroke-linejoin="round"/>
<path d="M237.107 213.185C232.252 208.077 233.045 203.447 231.805 199.918C229.084 192.175 218.194 186.618 216.045 167.959" stroke="#DBAB33" stroke-width="1.3" stroke-miterlimit="10" stroke-linecap="round" stroke-linejoin="round"/>
<path d="M266.149 185.168C258.584 193.526 267.555 205.176 252.993 212.851" stroke="#DBAB33" stroke-width="1.3" stroke-miterlimit="10" stroke-linecap="round" stroke-linejoin="round"/>
<path d="M243.948 172.77C227.505 198.573 243.901 210.834 253.862 204.721C258.401 201.934 260.986 193.789 261.916 189.209C263.924 179.312 255.273 171.706 250.045 173.82C248.931 174.272 247.194 176.468 247.365 178.604C247.614 181.721 251.316 183.837 252.509 187.852C253.894 192.506 250.196 195.761 246.945 194.64C243.287 193.379 241.961 186.672 243.812 182.228" stroke="white" stroke-width="1.3" stroke-miterlimit="10" stroke-linecap="round" stroke-linejoin="round"/>
<path d="M196.977 82.7777C193.771 75.1449 186.184 76.1462 179.383 81.3442C179.338 84.8887 182.571 87.3846 185.97 89.0091C191.837 91.8143 194.212 89.0893 196.566 88.6799C198.574 88.3309 199.939 89.8316 196.977 82.7777Z" stroke="#DBAB33" stroke-width="1.3" stroke-miterlimit="10" stroke-linecap="round" stroke-linejoin="round"/>
<path d="M195.174 82.7006C190.946 74.8013 181.478 81.012 181.038 82.2416C180.399 84.0326 184.315 86.808 187.143 87.7024C191.169 88.9755 192.163 87.2937 193.494 87.1379C195.615 86.8897 198.364 88.6616 195.174 82.7006Z" stroke="white" stroke-width="0.3" stroke-miterlimit="10" stroke-linecap="round" stroke-linejoin="round"/>
<path d="M194.85 82.1465C195.061 83.9932 194.144 86.7488 192 87.7035" stroke="white" stroke-width="0.3" stroke-miterlimit="10" stroke-linecap="round" stroke-linejoin="round"/>
<path d="M182.96 80.6094C181.639 82.4126 181.849 84.9398 183.876 86.1045" stroke="white" stroke-width="0.3" stroke-miterlimit="10" stroke-linecap="round" stroke-linejoin="round"/>
<path d="M190.5 78.9199C193.95 80.2985 193.245 84.7213 189.881 85.3819C186.29 86.0869 183.106 82.0436 185.738 79.3216" stroke="white" stroke-width="0.3" stroke-miterlimit="10" stroke-linecap="round" stroke-linejoin="round"/>
<path d="M208.613 88.1305C206.812 83.904 206.748 78.7044 202.948 75.541" stroke="#DBAB33" stroke-width="1.3" stroke-miterlimit="10" stroke-linecap="round" stroke-linejoin="round"/>
<path d="M198.948 73.1281C197.59 72.0368 195.77 71.4525 193.975 71.5327" stroke="#DBAB33" stroke-width="1.3" stroke-miterlimit="10" stroke-linecap="round" stroke-linejoin="round"/>
<path d="M188.411 71.5586C185.344 72.304 182.481 73.7627 180.16 75.766" stroke="#DBAB33" stroke-width="1.3" stroke-miterlimit="10" stroke-linecap="round" stroke-linejoin="round"/>
<path d="M193.396 75.1601C186.034 73.6594 183.144 76.3959 178.673 79.9664" stroke="#DBAB33" stroke-width="1.3" stroke-miterlimit="10" stroke-linecap="round" stroke-linejoin="round"/>
<path d="M189.375 93.2193C185.727 93.4476 181.999 92.1019 179.478 89.6465" stroke="#DBAB33" stroke-width="1.3" stroke-miterlimit="10" stroke-linecap="round" stroke-linejoin="round"/>
<path d="M177.668 87.7072C177.233 87.0076 176.992 86.2057 176.974 85.3984" stroke="#DBAB33" stroke-width="1.3" stroke-miterlimit="10" stroke-linecap="round" stroke-linejoin="round"/>
<path d="M227.189 76.5983C241.652 97.847 232.916 81.9337 234.775 100.777C237.404 127.42 238.275 116.14 218.647 89.4948C214.966 84.4968 219.199 86.7224 217.823 64.6641" stroke="#DBAB33" stroke-width="1.3" stroke-miterlimit="10" stroke-linecap="round" stroke-linejoin="round"/>
<path d="M233.501 182.544C233.394 179.299 234.278 176.03 236.024 173.215" stroke="#DBAB33" stroke-width="1.3" stroke-miterlimit="10" stroke-linecap="round" stroke-linejoin="round"/>
<path d="M249.282 192.773C250.084 191.331 250.495 189.705 250.467 188.084" stroke="#DBAB33" stroke-width="1.3" stroke-miterlimit="10" stroke-linecap="round" stroke-linejoin="round"/>
<path d="M246.69 190.986C247.836 189.253 248.409 187.199 248.311 185.168" stroke="#DBAB33" stroke-width="1.3" stroke-miterlimit="10" stroke-linecap="round" stroke-linejoin="round"/>
<path d="M244.837 187.796C245.697 185.564 246.017 183.154 245.766 180.795" stroke="#DBAB33" stroke-width="1.3" stroke-miterlimit="10" stroke-linecap="round" stroke-linejoin="round"/>
<path d="M226.558 208.01C224.562 208.444 222.71 206.682 222.171 204.848C220.8 200.183 224.486 197.523 213.413 188.621" stroke="#DBAB33" stroke-width="1.3" stroke-miterlimit="10" stroke-linecap="round" stroke-linejoin="round"/>
<path d="M205.525 183.685C203.591 181.88 201.657 180.076 199.723 178.271" stroke="#DBAB33" stroke-width="1.3" stroke-miterlimit="10" stroke-linecap="round" stroke-linejoin="round"/>
<path d="M212.158 100.793C209.03 117.695 228.775 129.749 235.623 143.62" stroke="white" stroke-width="1.3" stroke-miterlimit="10" stroke-linecap="round" stroke-linejoin="round"/>
<path d="M226.525 142.26C223.065 138.573 218.742 135.587 213.941 133.568" stroke="white" stroke-width="1.3" stroke-miterlimit="10" stroke-linecap="round" stroke-linejoin="round"/>
<path d="M209.492 127.236C202.856 121.529 197.595 114.458 194.198 106.682" stroke="white" stroke-width="1.3" stroke-miterlimit="10" stroke-linecap="round" stroke-linejoin="round"/>
<path d="M214.568 180.107C212.55 181.025 211.868 183.787 213.255 185.426" stroke="#DBAB33" stroke-width="1.3" stroke-miterlimit="10" stroke-linecap="round" stroke-linejoin="round"/>
<path d="M213.247 177.01C210.955 178.004 208.962 179.581 207.543 181.523" stroke="#DBAB33" stroke-width="1.3" stroke-miterlimit="10" stroke-linecap="round" stroke-linejoin="round"/>
<path d="M194.98 172.844C188.62 166.285 180.768 160.974 172.089 157.361" stroke="#DBAB33" stroke-width="1.3" stroke-miterlimit="10" stroke-linecap="round" stroke-linejoin="round"/>
<path d="M163.642 153.898C156.841 154.524 149.883 150.235 147.877 144.18" stroke="#DBAB33" stroke-width="1.3" stroke-miterlimit="10" stroke-linecap="round" stroke-linejoin="round"/>
<path d="M145.142 139.548C144.898 138.456 144.653 137.364 144.409 136.271" stroke="#DBAB33" stroke-width="1.3" stroke-miterlimit="10" stroke-linecap="round" stroke-linejoin="round"/>
<path d="M152.713 243.84C154.399 252.297 156.691 260.651 159.57 268.828" stroke="white" stroke-width="1.3" stroke-miterlimit="10" stroke-linecap="round" stroke-linejoin="round"/>
<path d="M124.061 202.723C123.709 210.31 125.59 221.026 128.519 228.119" stroke="white" stroke-width="1.3" stroke-miterlimit="10" stroke-linecap="round" stroke-linejoin="round"/>
<path d="M205.204 89.2552C201.123 89.8303 200.938 83.6799 199.337 81.6621" stroke="#DBAB33" stroke-width="1.3" stroke-miterlimit="10" stroke-linecap="round" stroke-linejoin="round"/>
<path d="M198.115 78.4643C197.709 77.9687 197.304 77.4722 196.898 76.9766" stroke="#DBAB33" stroke-width="1.3" stroke-miterlimit="10" stroke-linecap="round" stroke-linejoin="round"/>
<path d="M191.551 82.8828C191.127 83.8024 190.361 84.7784 189.547 85.4352" stroke="white" stroke-width="0.3" stroke-miterlimit="10" stroke-linecap="round" stroke-linejoin="round"/>
<path d="M190.499 82.8633C189.859 83.7553 189.134 84.6298 188.335 85.4035" stroke="white" stroke-width="0.3" stroke-miterlimit="10" stroke-linecap="round" stroke-linejoin="round"/>
<path d="M189.726 82.4316C188.999 83.2145 187.993 84.2959 187.266 85.0788" stroke="white" stroke-width="0.3" stroke-miterlimit="10" stroke-linecap="round" stroke-linejoin="round"/>
<path d="M189.577 81.2715C188.647 82.2766 187.225 83.494 186.17 84.3868" stroke="white" stroke-width="0.3" stroke-miterlimit="10" stroke-linecap="round" stroke-linejoin="round"/>
<path d="M189.124 80.2832C187.754 81.4831 186.305 82.8264 185.004 84.1019" stroke="white" stroke-width="0.3" stroke-miterlimit="10" stroke-linecap="round" stroke-linejoin="round"/>
<path d="M189.036 79.5312C187.556 80.4569 186.125 81.5521 185.037 82.8642" stroke="white" stroke-width="0.3" stroke-miterlimit="10" stroke-linecap="round" stroke-linejoin="round"/>
<path d="M188.585 78.7695C187.313 79.4034 185.603 80.8278 184.789 81.9337" stroke="white" stroke-width="0.3" stroke-miterlimit="10" stroke-linecap="round" stroke-linejoin="round"/>
<path d="M191.938 84.1016C192.543 84.5209 193.459 84.9295 194.069 85.4572" stroke="white" stroke-width="0.3" stroke-miterlimit="10" stroke-linecap="round" stroke-linejoin="round"/>
<path d="M188.741 85.4512C188.641 86.0591 188.497 87.4186 188.396 88.0265" stroke="white" stroke-width="0.3" stroke-miterlimit="10" stroke-linecap="round" stroke-linejoin="round"/>
<path d="M185.234 83.2637C184.35 83.8082 183.36 84.4016 182.621 84.895" stroke="white" stroke-width="0.3" stroke-miterlimit="10" stroke-linecap="round" stroke-linejoin="round"/>
<path d="M184.074 82.4336C183.814 82.5146 183.555 82.5955 183.296 82.6757" stroke="white" stroke-width="0.3" stroke-miterlimit="10" stroke-linecap="round" stroke-linejoin="round"/>
<path d="M183.763 81.5723C183.607 81.5988 183.449 81.6253 183.293 81.6519" stroke="white" stroke-width="0.3" stroke-miterlimit="10" stroke-linecap="round" stroke-linejoin="round"/>
<path d="M186.805 85.7168C186.693 86.0147 186.58 86.3125 186.468 86.6096" stroke="white" stroke-width="0.3" stroke-miterlimit="10" stroke-linecap="round" stroke-linejoin="round"/>
<path d="M185.877 85.5039C185.821 85.7162 185.726 85.9201 185.599 86.105" stroke="white" stroke-width="0.3" stroke-miterlimit="10" stroke-linecap="round" stroke-linejoin="round"/>
<path d="M184.935 85.0645C184.808 85.2371 184.68 85.4097 184.553 85.5823" stroke="white" stroke-width="0.3" stroke-miterlimit="10" stroke-linecap="round" stroke-linejoin="round"/>
<path d="M191.708 86.6733C191.577 86.4786 191.446 86.2846 191.315 86.0898" stroke="white" stroke-width="0.3" stroke-miterlimit="10" stroke-linecap="round" stroke-linejoin="round"/>
<path d="M190.753 87.1123C190.726 86.9909 190.699 86.8695 190.672 86.748" stroke="white" stroke-width="0.3" stroke-miterlimit="10" stroke-linecap="round" stroke-linejoin="round"/>
<path d="M189.556 87.2621C189.512 87.1139 189.468 86.9658 189.425 86.8184" stroke="white" stroke-width="0.3" stroke-miterlimit="10" stroke-linecap="round" stroke-linejoin="round"/>
<path d="M194.144 83.1047C194.013 83.0314 193.882 82.9581 193.752 82.8848" stroke="white" stroke-width="0.3" stroke-miterlimit="10" stroke-linecap="round" stroke-linejoin="round"/>
<path d="M194.003 84.1038C193.84 83.9885 193.678 83.8731 193.516 83.7578" stroke="white" stroke-width="0.3" stroke-miterlimit="10" stroke-linecap="round" stroke-linejoin="round"/>
<path d="M246.473 170.658C248.854 169.358 251.948 169.261 254.418 170.409" stroke="#DBAB33" stroke-width="1.3" stroke-miterlimit="10" stroke-linecap="round" stroke-linejoin="round"/>
<path d="M258.896 172.629C258.895 173.39 259.233 174.146 259.816 174.683" stroke="#DBAB33" stroke-width="1.3" stroke-miterlimit="10" stroke-linecap="round" stroke-linejoin="round"/>
<path d="M133.977 113.023C131.196 110.407 129.163 107.115 128.136 103.568" stroke="#DBAB33" stroke-width="1.3" stroke-miterlimit="10" stroke-linecap="round" stroke-linejoin="round"/>
<path d="M131.038 115.062C129.336 113.804 128.043 112.077 127.367 110.158" stroke="#DBAB33" stroke-width="1.3" stroke-miterlimit="10" stroke-linecap="round" stroke-linejoin="round"/>
<path d="M128.777 117.836C128.273 117.261 127.77 116.687 127.266 116.113" stroke="#DBAB33" stroke-width="1.3" stroke-miterlimit="10" stroke-linecap="round" stroke-linejoin="round"/>
<path d="M128.07 142.764C127.561 142.078 127.051 141.391 126.542 140.705" stroke="#DBAB33" stroke-width="1.3" stroke-miterlimit="10" stroke-linecap="round" stroke-linejoin="round"/>
<path d="M126.908 145.92C126.664 145.684 126.421 145.448 126.177 145.211" stroke="#DBAB33" stroke-width="1.3" stroke-miterlimit="10" stroke-linecap="round" stroke-linejoin="round"/>
<path d="M120.583 173.301C118.732 172.603 117.219 171.174 116.497 169.447" stroke="#DBAB33" stroke-width="1.3" stroke-miterlimit="10" stroke-linecap="round" stroke-linejoin="round"/>
<path d="M119.091 176.401C118.025 175.801 117.125 174.949 116.499 173.949" stroke="#DBAB33" stroke-width="1.3" stroke-miterlimit="10" stroke-linecap="round" stroke-linejoin="round"/>
<path d="M118.731 180.886C118.199 180.748 117.757 180.343 117.602 179.852" stroke="#DBAB33" stroke-width="1.3" stroke-miterlimit="10" stroke-linecap="round" stroke-linejoin="round"/>
<path d="M120.591 206.217C119.334 205.74 118.184 205.018 117.241 204.111" stroke="#DBAB33" stroke-width="1.3" stroke-miterlimit="10" stroke-linecap="round" stroke-linejoin="round"/>
<path d="M120.187 211.111C119.32 210.639 118.453 210.167 117.586 209.695" stroke="#DBAB33" stroke-width="1.3" stroke-miterlimit="10" stroke-linecap="round" stroke-linejoin="round"/>
<path d="M120.567 217.356C119.96 217.092 119.353 216.828 118.747 216.564" stroke="#DBAB33" stroke-width="1.3" stroke-miterlimit="10" stroke-linecap="round" stroke-linejoin="round"/>
<path d="M148.953 158.872C144.521 157.198 140.707 154.15 138.27 150.334" stroke="#DBAB33" stroke-width="1.3" stroke-miterlimit="10" stroke-linecap="round" stroke-linejoin="round"/>
<path d="M144.829 162.676C141.428 161.16 138.47 158.798 136.35 155.904" stroke="#DBAB33" stroke-width="1.3" stroke-miterlimit="10" stroke-linecap="round" stroke-linejoin="round"/>
<path d="M140.065 166.642C138.562 166.093 137.237 165.131 136.302 163.91" stroke="#DBAB33" stroke-width="1.3" stroke-miterlimit="10" stroke-linecap="round" stroke-linejoin="round"/>
<path d="M136.702 171.869C136.495 171.474 136.033 171.207 135.56 171.207" stroke="#DBAB33" stroke-width="1.3" stroke-miterlimit="10" stroke-linecap="round" stroke-linejoin="round"/>
<path d="M135.187 176.037C134.813 175.806 134.439 175.575 134.065 175.344" stroke="#DBAB33" stroke-width="1.3" stroke-miterlimit="10" stroke-linecap="round" stroke-linejoin="round"/>
<path d="M134.004 181.293C133.755 181.062 133.506 180.831 133.256 180.6" stroke="#DBAB33" stroke-width="1.3" stroke-miterlimit="10" stroke-linecap="round" stroke-linejoin="round"/>
<path d="M133.335 185.018C133.086 184.902 132.836 184.786 132.587 184.67" stroke="#DBAB33" stroke-width="1.3" stroke-miterlimit="10" stroke-linecap="round" stroke-linejoin="round"/>
<path d="M131.447 207.931C131.197 207.815 130.948 207.699 130.699 207.584" stroke="#DBAB33" stroke-width="1.3" stroke-miterlimit="10" stroke-linecap="round" stroke-linejoin="round"/>
<path d="M131.791 213.211C131.417 213.095 131.043 212.979 130.67 212.863" stroke="#DBAB33" stroke-width="1.3" stroke-miterlimit="10" stroke-linecap="round" stroke-linejoin="round"/>
<path d="M132.569 219.024C132.194 218.909 131.82 218.793 131.446 218.678" stroke="#DBAB33" stroke-width="1.3" stroke-miterlimit="10" stroke-linecap="round" stroke-linejoin="round"/>
<path d="M133.69 225.266C133.316 225.266 132.942 225.266 132.568 225.266" stroke="#DBAB33" stroke-width="1.3" stroke-miterlimit="10" stroke-linecap="round" stroke-linejoin="round"/>
<path d="M134.44 230.466C134.367 230.186 133.983 230.02 133.705 230.147" stroke="#DBAB33" stroke-width="1.3" stroke-miterlimit="10" stroke-linecap="round" stroke-linejoin="round"/>
<path d="M135.561 245.026C135.311 244.911 135.062 244.795 134.812 244.68" stroke="#DBAB33" stroke-width="1.3" stroke-miterlimit="10" stroke-linecap="round" stroke-linejoin="round"/>
<path d="M137.069 250.194C136.697 250.073 136.325 249.952 135.953 249.83" stroke="#DBAB33" stroke-width="1.3" stroke-miterlimit="10" stroke-linecap="round" stroke-linejoin="round"/>
<path d="M168.461 166.71C167.344 166.237 166.228 165.763 165.112 165.289" stroke="#DBAB33" stroke-width="1.3" stroke-miterlimit="10" stroke-linecap="round" stroke-linejoin="round"/>
<path d="M165.094 170.866C164.347 170.516 163.601 170.166 162.855 169.816" stroke="#DBAB33" stroke-width="1.3" stroke-miterlimit="10" stroke-linecap="round" stroke-linejoin="round"/>
<path d="M164.347 176.838C163.551 176.742 162.782 176.456 162.137 176.014" stroke="#DBAB33" stroke-width="1.3" stroke-miterlimit="10" stroke-linecap="round" stroke-linejoin="round"/>
<path d="M162.118 182.277C161.744 182.277 161.37 182.277 160.996 182.277" stroke="#DBAB33" stroke-width="1.3" stroke-miterlimit="10" stroke-linecap="round" stroke-linejoin="round"/>
<path d="M160.227 189.249C159.979 189.131 159.73 189.014 159.482 188.896" stroke="#DBAB33" stroke-width="1.3" stroke-miterlimit="10" stroke-linecap="round" stroke-linejoin="round"/>
<path d="M158.751 197.531C158.627 197.531 158.501 197.531 158.377 197.531" stroke="#DBAB33" stroke-width="1.3" stroke-miterlimit="10" stroke-linecap="round" stroke-linejoin="round"/>
<path d="M157.629 204.464C157.505 204.349 157.38 204.233 157.255 204.117" stroke="#DBAB33" stroke-width="1.3" stroke-miterlimit="10" stroke-linecap="round" stroke-linejoin="round"/>
<path d="M157.629 213.132C157.505 213.017 157.38 212.9 157.255 212.785" stroke="#DBAB33" stroke-width="1.3" stroke-miterlimit="10" stroke-linecap="round" stroke-linejoin="round"/>
<path d="M158.751 220.065C158.501 219.95 158.252 219.834 158.003 219.719" stroke="#DBAB33" stroke-width="1.3" stroke-miterlimit="10" stroke-linecap="round" stroke-linejoin="round"/>
<path d="M161.016 231.831C160.749 231.619 160.482 231.407 160.215 231.195" stroke="#DBAB33" stroke-width="1.3" stroke-miterlimit="10" stroke-linecap="round" stroke-linejoin="round"/>
<path d="M160.248 238.439C160.123 238.323 159.998 238.207 159.874 238.092" stroke="#DBAB33" stroke-width="1.3" stroke-miterlimit="10" stroke-linecap="round" stroke-linejoin="round"/>
<path d="M160.225 250.246C159.976 250.014 159.728 249.782 159.479 249.551" stroke="#DBAB33" stroke-width="1.3" stroke-miterlimit="10" stroke-linecap="round" stroke-linejoin="round"/>
<path d="M229.441 201.342C228.896 202.105 228.109 202.718 227.204 203.083" stroke="#DBAB33" stroke-width="1.3" stroke-miterlimit="10" stroke-linecap="round" stroke-linejoin="round"/>
<path d="M227.606 198.605C226.985 199.07 226.364 199.535 225.742 199.999" stroke="#DBAB33" stroke-width="1.3" stroke-miterlimit="10" stroke-linecap="round" stroke-linejoin="round"/>
<path d="M225.345 196.178C224.974 196.302 224.604 196.427 224.233 196.551" stroke="#DBAB33" stroke-width="1.3" stroke-miterlimit="10" stroke-linecap="round" stroke-linejoin="round"/>
<path d="M223.837 193.545C223.779 193.766 223.517 193.921 223.277 193.878" stroke="#DBAB33" stroke-width="1.3" stroke-miterlimit="10" stroke-linecap="round" stroke-linejoin="round"/>
<path d="M222.527 191.465C222.34 191.523 222.153 191.58 221.966 191.638" stroke="#DBAB33" stroke-width="1.3" stroke-miterlimit="10" stroke-linecap="round" stroke-linejoin="round"/>
<path d="M221.03 189.385C220.994 189.525 220.802 189.608 220.663 189.544" stroke="#DBAB33" stroke-width="1.3" stroke-miterlimit="10" stroke-linecap="round" stroke-linejoin="round"/>
<path d="M219.347 186.785C219.284 186.843 219.222 186.9 219.159 186.959" stroke="#DBAB33" stroke-width="1.3" stroke-miterlimit="10" stroke-linecap="round" stroke-linejoin="round"/>
<path d="M218.225 184.531C218.225 184.589 218.225 184.647 218.225 184.705" stroke="#DBAB33" stroke-width="1.3" stroke-miterlimit="10" stroke-linecap="round" stroke-linejoin="round"/>
<path d="M250.518 201.894C249.697 200.408 249.096 198.816 248.74 197.18" stroke="#DBAB33" stroke-width="1.3" stroke-miterlimit="10" stroke-linecap="round" stroke-linejoin="round"/>
<path d="M248.093 201.887C247.663 200.95 247.428 199.936 247.403 198.918" stroke="#DBAB33" stroke-width="1.3" stroke-miterlimit="10" stroke-linecap="round" stroke-linejoin="round"/>
<path d="M245.447 201.186C245.299 200.498 245.269 199.788 245.358 199.092" stroke="#DBAB33" stroke-width="1.3" stroke-miterlimit="10" stroke-linecap="round" stroke-linejoin="round"/>
<path d="M243.449 198.914C243.516 198.453 243.584 197.991 243.652 197.529" stroke="#DBAB33" stroke-width="1.3" stroke-miterlimit="10" stroke-linecap="round" stroke-linejoin="round"/>
<path d="M242.139 197.179C242.205 196.949 242.271 196.718 242.337 196.488" stroke="#DBAB33" stroke-width="1.3" stroke-miterlimit="10" stroke-linecap="round" stroke-linejoin="round"/>
<path d="M252.454 200.302C251.893 199.378 251.331 198.454 250.77 197.529" stroke="#DBAB33" stroke-width="1.3" stroke-miterlimit="10" stroke-linecap="round" stroke-linejoin="round"/>
<path d="M253.924 197.921C253.391 197.692 252.938 197.304 252.65 196.83" stroke="#DBAB33" stroke-width="1.3" stroke-miterlimit="10" stroke-linecap="round" stroke-linejoin="round"/>
<path d="M241.602 195.105C241.477 195.279 241.352 195.452 241.228 195.626" stroke="#DBAB33" stroke-width="1.3" stroke-miterlimit="10" stroke-linecap="round" stroke-linejoin="round"/>
<path d="M241.229 193.371C241.104 193.486 240.979 193.602 240.854 193.718" stroke="#DBAB33" stroke-width="1.3" stroke-miterlimit="10" stroke-linecap="round" stroke-linejoin="round"/>
<path d="M157.618 132.697C157.216 133.44 156.559 134.061 155.767 134.449" stroke="#DBAB33" stroke-width="1.3" stroke-miterlimit="10" stroke-linecap="round" stroke-linejoin="round"/>
<path d="M155.027 128.912C154.03 129.491 153.033 130.069 152.036 130.648" stroke="#DBAB33" stroke-width="1.3" stroke-miterlimit="10" stroke-linecap="round" stroke-linejoin="round"/>
<path d="M151.288 125.803C151.039 125.919 150.789 126.035 150.541 126.151" stroke="#DBAB33" stroke-width="1.3" stroke-miterlimit="10" stroke-linecap="round" stroke-linejoin="round"/>
<path d="M150.509 121.564C150.012 121.687 149.515 121.81 149.019 121.932" stroke="#DBAB33" stroke-width="1.3" stroke-miterlimit="10" stroke-linecap="round" stroke-linejoin="round"/>
<path d="M149.413 116.441C149.041 116.563 148.67 116.684 148.297 116.806" stroke="#DBAB33" stroke-width="1.3" stroke-miterlimit="10" stroke-linecap="round" stroke-linejoin="round"/>
<path d="M148.652 111.209C148.402 111.209 148.153 111.209 147.904 111.209" stroke="#DBAB33" stroke-width="1.3" stroke-miterlimit="10" stroke-linecap="round" stroke-linejoin="round"/>
<path d="M149.4 105.662C149.15 105.662 148.902 105.662 148.652 105.662" stroke="#DBAB33" stroke-width="1.3" stroke-miterlimit="10" stroke-linecap="round" stroke-linejoin="round"/>
<path d="M149.027 102.543C148.902 102.543 148.777 102.543 148.653 102.543" stroke="#DBAB33" stroke-width="1.3" stroke-miterlimit="10" stroke-linecap="round" stroke-linejoin="round"/>
<path d="M166.607 148.65C166.233 148.882 165.858 149.112 165.484 149.344" stroke="#DBAB33" stroke-width="1.3" stroke-miterlimit="10" stroke-linecap="round" stroke-linejoin="round"/>
<path d="M160.248 146.916C159.998 146.916 159.749 146.916 159.5 146.916" stroke="#DBAB33" stroke-width="1.3" stroke-miterlimit="10" stroke-linecap="round" stroke-linejoin="round"/>
<path d="M156.132 144.145C156.008 144.145 155.883 144.145 155.758 144.145" stroke="#DBAB33" stroke-width="1.3" stroke-miterlimit="10" stroke-linecap="round" stroke-linejoin="round"/>
<path d="M152.392 139.637C151.894 139.637 151.395 139.637 150.896 139.637" stroke="#DBAB33" stroke-width="1.3" stroke-miterlimit="10" stroke-linecap="round" stroke-linejoin="round"/>
<path d="M147.903 135.129C147.779 135.129 147.654 135.129 147.529 135.129" stroke="#DBAB33" stroke-width="1.3" stroke-miterlimit="10" stroke-linecap="round" stroke-linejoin="round"/>
<path d="M144.517 129.274C144.269 129.156 144.02 129.039 143.772 128.922" stroke="#DBAB33" stroke-width="1.3" stroke-miterlimit="10" stroke-linecap="round" stroke-linejoin="round"/>
<path d="M144.538 121.609C144.414 121.609 144.288 121.609 144.164 121.609" stroke="#DBAB33" stroke-width="1.3" stroke-miterlimit="10" stroke-linecap="round" stroke-linejoin="round"/>
<path d="M142.668 114.676C142.543 114.676 142.418 114.676 142.294 114.676" stroke="#DBAB33" stroke-width="1.3" stroke-miterlimit="10" stroke-linecap="round" stroke-linejoin="round"/>
<path d="M220.822 128.875C220.134 129.652 219.244 130.275 218.248 130.674" stroke="#DBAB33" stroke-width="1.3" stroke-miterlimit="10" stroke-linecap="round" stroke-linejoin="round"/>
<path d="M217.877 126.855C217.384 127.098 216.892 127.34 216.4 127.583" stroke="#DBAB33" stroke-width="1.3" stroke-miterlimit="10" stroke-linecap="round" stroke-linejoin="round"/>
<path d="M213.754 123.029C213.505 123.145 213.255 123.261 213.006 123.378" stroke="#DBAB33" stroke-width="1.3" stroke-miterlimit="10" stroke-linecap="round" stroke-linejoin="round"/>
<path d="M210.742 119.529C210.618 119.645 210.493 119.761 210.368 119.876" stroke="#DBAB33" stroke-width="1.3" stroke-miterlimit="10" stroke-linecap="round" stroke-linejoin="round"/>
<path d="M208.874 115.717C208.749 115.832 208.624 115.948 208.5 116.064" stroke="#DBAB33" stroke-width="1.3" stroke-miterlimit="10" stroke-linecap="round" stroke-linejoin="round"/>
<path d="M207.004 108.09C206.381 108.437 205.757 108.783 205.134 109.13" stroke="#DBAB33" stroke-width="1.3" stroke-miterlimit="10" stroke-linecap="round" stroke-linejoin="round"/>
<path d="M206.262 104.646C205.765 104.769 205.269 104.892 204.772 105.015" stroke="#DBAB33" stroke-width="1.3" stroke-miterlimit="10" stroke-linecap="round" stroke-linejoin="round"/>
<path d="M205.507 100.809C205.133 100.809 204.759 100.809 204.385 100.809" stroke="#DBAB33" stroke-width="1.3" stroke-miterlimit="10" stroke-linecap="round" stroke-linejoin="round"/>
<path d="M207 112.948C206.714 112.854 206.36 113.024 206.277 113.295" stroke="#DBAB33" stroke-width="1.3" stroke-miterlimit="10" stroke-linecap="round" stroke-linejoin="round"/>
<path d="M180.097 154.559C179.744 155.034 179.39 155.509 179.037 155.984" stroke="#DBAB33" stroke-width="1.3" stroke-miterlimit="10" stroke-linecap="round" stroke-linejoin="round"/>
<path d="M176.706 153.156C176.456 153.272 176.207 153.388 175.958 153.503" stroke="#DBAB33" stroke-width="1.3" stroke-miterlimit="10" stroke-linecap="round" stroke-linejoin="round"/>
<path d="M170.341 150.732C170.443 150.998 170.26 151.326 169.967 151.403" stroke="#DBAB33" stroke-width="1.3" stroke-miterlimit="10" stroke-linecap="round" stroke-linejoin="round"/>
<path d="M206.255 175.344C206.006 175.69 205.757 176.037 205.507 176.384" stroke="#DBAB33" stroke-width="1.3" stroke-miterlimit="10" stroke-linecap="round" stroke-linejoin="round"/>
<path d="M202.888 173.611C202.639 173.611 202.39 173.611 202.14 173.611" stroke="#DBAB33" stroke-width="1.3" stroke-miterlimit="10" stroke-linecap="round" stroke-linejoin="round"/>
<path d="M198.775 171.184C198.65 171.184 198.525 171.184 198.401 171.184" stroke="#DBAB33" stroke-width="1.3" stroke-miterlimit="10" stroke-linecap="round" stroke-linejoin="round"/>
<path d="M195.034 166.678C194.91 166.793 194.785 166.909 194.66 167.024" stroke="#DBAB33" stroke-width="1.3" stroke-miterlimit="10" stroke-linecap="round" stroke-linejoin="round"/>
<path d="M191.292 164.316C191.043 164.314 190.794 164.311 190.544 164.309" stroke="#DBAB33" stroke-width="1.3" stroke-miterlimit="10" stroke-linecap="round" stroke-linejoin="round"/>
<defs>
<linearGradient id="paint0_linear_37_16078" x1="419.498" y1="226.374" x2="46.3656" y2="154.981" gradientUnits="userSpaceOnUse">
<stop stop-color="white"/>
<stop offset="1" stop-color="#DBAB33"/>
</linearGradient>
</defs>
</svg>
