<svg width="250" height="250" viewBox="0 0 250 250" fill="none" xmlns="http://www.w3.org/2000/svg">
<mask id="path-1-inside-1_43_18200" fill="white">
<path d="M29.1667 64.5816H117.489C126.42 27.8788 159.308 2.05393 197.082 2.08205H199.79C205.769 2.08882 211.73 2.73674 217.571 4.01485L246.738 10.5148C248.984 11.0148 250.4 13.2408 249.9 15.4872C249.666 16.5351 249.038 17.4528 248.144 18.0486L237.498 25.1449V47.9151C237.498 48.4453 237.397 48.9703 237.2 49.4625L220.534 91.1288C219.901 92.7106 218.369 93.7481 216.665 93.7481H199.998V106.248C199.965 119.922 193.859 132.874 183.332 141.602V192.401C192.147 196.598 198.286 204.919 199.696 214.581H209.048C211.35 208.072 218.492 204.661 225 206.962C231.509 209.263 234.92 216.406 232.618 222.914C230.317 229.422 223.176 232.834 216.667 230.533C213.107 229.274 210.307 226.474 209.049 222.914H199.696C197.405 238.849 182.629 249.909 166.695 247.617C158.696 246.467 151.534 242.048 146.918 235.414H57.2487C48.0436 248.627 29.8703 251.876 16.6579 242.671C3.44554 233.465 0.196609 215.292 9.40173 202.08C12.3048 197.913 16.2454 194.577 20.8339 192.401V152.082C20.8339 149.781 22.6995 147.915 25.0006 147.915H41.6671V102.082C41.6655 97.8231 42.3926 93.5955 43.817 89.582H37.5004C35.2005 89.5846 33.3364 91.4486 33.3338 93.7486V118.748C33.3156 134.849 20.2683 147.897 4.1674 147.915C1.86639 147.915 0.000793457 146.049 0.000793457 143.748V93.7486C0.0185089 77.6477 13.0663 64.5999 29.1667 64.5816ZM220.832 222.914C223.133 222.914 224.998 221.048 224.998 218.747C224.998 216.446 223.133 214.581 220.832 214.581C218.531 214.581 216.665 216.446 216.665 218.747C216.668 221.048 218.532 222.911 220.832 222.914ZM170.832 239.58C182.338 239.58 191.665 230.253 191.665 218.747C191.665 207.242 182.338 197.914 170.832 197.914C159.326 197.914 149.999 207.242 149.999 218.747C150.012 230.248 159.332 239.568 170.832 239.58ZM49.9998 194.832C52.8217 196.805 55.2753 199.259 57.2482 202.081H146.917C148.89 199.259 151.344 196.805 154.166 194.832V143.748H91.4619C89.288 165.023 71.3861 181.215 49.9998 181.247V194.832ZM142.885 227.081C141.259 221.644 141.259 215.85 142.885 210.414H61.2804C62.9059 215.85 62.9059 221.644 61.2804 227.081H142.885ZM12.5002 218.747C12.5002 230.253 21.8277 239.58 33.3333 239.58C44.8389 239.58 54.1664 230.253 54.1664 218.747C54.1664 207.242 44.8389 197.914 33.3333 197.914C21.8329 197.927 12.5132 207.247 12.5002 218.747ZM29.1667 156.248V189.883C33.3505 189.275 37.6166 189.587 41.6665 190.8V177.081C41.6665 174.78 43.5322 172.914 45.8332 172.914H49.9998C68.3965 172.883 83.3021 157.978 83.3328 139.581C83.3328 137.28 85.1985 135.414 87.4995 135.414H158.332C160.633 135.414 162.499 137.28 162.499 139.581V190.8C166.549 189.587 170.815 189.274 174.999 189.883V139.581C174.999 138.27 175.616 137.035 176.665 136.248C186.086 129.147 191.637 118.045 191.665 106.248V39.5818H199.998V85.4148H213.844L229.165 47.1125V22.9152C229.165 21.522 229.861 20.2215 231.021 19.4486L235.403 16.5262L215.777 12.1513C210.526 11.0028 205.166 10.4211 199.79 10.4153H197.082C161.996 10.3872 131.778 35.1542 124.918 69.5634C124.53 71.5118 122.819 72.9149 120.833 72.9149H79.1662C63.0653 72.9331 50.0181 85.9804 49.9998 102.081V152.081C49.9998 154.382 48.1342 156.248 45.8332 156.248H29.1667ZM8.33351 139.164C18.0272 137.171 24.9875 128.644 25 118.748V93.7481C25.0078 86.8476 30.5995 81.256 37.4999 81.2482H48.0035C50.1144 78.1039 52.6862 75.2946 55.6326 72.9149H29.1667C17.6662 72.9279 8.34654 82.2477 8.33351 93.7481V139.164Z"/>
</mask>
<path d="M29.1667 64.5816H117.489C126.42 27.8788 159.308 2.05393 197.082 2.08205H199.79C205.769 2.08882 211.73 2.73674 217.571 4.01485L246.738 10.5148C248.984 11.0148 250.4 13.2408 249.9 15.4872C249.666 16.5351 249.038 17.4528 248.144 18.0486L237.498 25.1449V47.9151C237.498 48.4453 237.397 48.9703 237.2 49.4625L220.534 91.1288C219.901 92.7106 218.369 93.7481 216.665 93.7481H199.998V106.248C199.965 119.922 193.859 132.874 183.332 141.602V192.401C192.147 196.598 198.286 204.919 199.696 214.581H209.048C211.35 208.072 218.492 204.661 225 206.962C231.509 209.263 234.92 216.406 232.618 222.914C230.317 229.422 223.176 232.834 216.667 230.533C213.107 229.274 210.307 226.474 209.049 222.914H199.696C197.405 238.849 182.629 249.909 166.695 247.617C158.696 246.467 151.534 242.048 146.918 235.414H57.2487C48.0436 248.627 29.8703 251.876 16.6579 242.671C3.44554 233.465 0.196609 215.292 9.40173 202.08C12.3048 197.913 16.2454 194.577 20.8339 192.401V152.082C20.8339 149.781 22.6995 147.915 25.0006 147.915H41.6671V102.082C41.6655 97.8231 42.3926 93.5955 43.817 89.582H37.5004C35.2005 89.5846 33.3364 91.4486 33.3338 93.7486V118.748C33.3156 134.849 20.2683 147.897 4.1674 147.915C1.86639 147.915 0.000793457 146.049 0.000793457 143.748V93.7486C0.0185089 77.6477 13.0663 64.5999 29.1667 64.5816ZM220.832 222.914C223.133 222.914 224.998 221.048 224.998 218.747C224.998 216.446 223.133 214.581 220.832 214.581C218.531 214.581 216.665 216.446 216.665 218.747C216.668 221.048 218.532 222.911 220.832 222.914ZM170.832 239.58C182.338 239.58 191.665 230.253 191.665 218.747C191.665 207.242 182.338 197.914 170.832 197.914C159.326 197.914 149.999 207.242 149.999 218.747C150.012 230.248 159.332 239.568 170.832 239.58ZM49.9998 194.832C52.8217 196.805 55.2753 199.259 57.2482 202.081H146.917C148.89 199.259 151.344 196.805 154.166 194.832V143.748H91.4619C89.288 165.023 71.3861 181.215 49.9998 181.247V194.832ZM142.885 227.081C141.259 221.644 141.259 215.85 142.885 210.414H61.2804C62.9059 215.85 62.9059 221.644 61.2804 227.081H142.885ZM12.5002 218.747C12.5002 230.253 21.8277 239.58 33.3333 239.58C44.8389 239.58 54.1664 230.253 54.1664 218.747C54.1664 207.242 44.8389 197.914 33.3333 197.914C21.8329 197.927 12.5132 207.247 12.5002 218.747ZM29.1667 156.248V189.883C33.3505 189.275 37.6166 189.587 41.6665 190.8V177.081C41.6665 174.78 43.5322 172.914 45.8332 172.914H49.9998C68.3965 172.883 83.3021 157.978 83.3328 139.581C83.3328 137.28 85.1985 135.414 87.4995 135.414H158.332C160.633 135.414 162.499 137.28 162.499 139.581V190.8C166.549 189.587 170.815 189.274 174.999 189.883V139.581C174.999 138.27 175.616 137.035 176.665 136.248C186.086 129.147 191.637 118.045 191.665 106.248V39.5818H199.998V85.4148H213.844L229.165 47.1125V22.9152C229.165 21.522 229.861 20.2215 231.021 19.4486L235.403 16.5262L215.777 12.1513C210.526 11.0028 205.166 10.4211 199.79 10.4153H197.082C161.996 10.3872 131.778 35.1542 124.918 69.5634C124.53 71.5118 122.819 72.9149 120.833 72.9149H79.1662C63.0653 72.9331 50.0181 85.9804 49.9998 102.081V152.081C49.9998 154.382 48.1342 156.248 45.8332 156.248H29.1667ZM8.33351 139.164C18.0272 137.171 24.9875 128.644 25 118.748V93.7481C25.0078 86.8476 30.5995 81.256 37.4999 81.2482H48.0035C50.1144 78.1039 52.6862 75.2946 55.6326 72.9149H29.1667C17.6662 72.9279 8.34654 82.2477 8.33351 93.7481V139.164Z" fill="#DBAB33" stroke="#0C4745" stroke-width="5" mask="url(#path-1-inside-1_43_18200)"/>
<path d="M78.168 82.2744C68.0159 82.7901 59.8761 90.9291 59.3604 101.081H65.7061C66.2 94.4257 71.5126 89.113 78.168 88.6191V82.2744Z" fill="white" stroke="#0C4745" stroke-width="2"/>
<path d="M209.331 44.748V51.0811H215.664V44.748H209.331Z" fill="white" stroke="#0C4745" stroke-width="2"/>
<path d="M170.833 207.248C164.683 207.255 159.662 212.084 159.348 218.157L159.332 218.749C159.333 225.1 164.481 230.248 170.832 230.248C177.183 230.248 182.332 225.099 182.332 218.748C182.332 212.397 177.184 207.249 170.833 207.248ZM170.832 213.581C173.685 213.581 175.999 215.895 175.999 218.748C175.999 221.601 173.685 223.915 170.832 223.915H170.831C167.98 223.912 165.668 221.601 165.665 218.749V218.748C165.665 215.895 167.979 213.581 170.832 213.581Z" fill="white" stroke="#0C4745" stroke-width="2"/>
<path d="M33.332 207.248C26.9808 207.248 21.832 212.397 21.832 218.748C21.8321 225.099 26.9808 230.248 33.332 230.248C39.683 230.248 44.8315 225.1 44.832 218.749C44.8248 212.401 39.6806 207.256 33.332 207.248ZM28.165 218.747C28.1683 215.896 30.4797 213.584 33.3311 213.581H33.332C36.1853 213.581 38.499 215.895 38.499 218.748C38.499 221.601 36.1853 223.915 33.332 223.915C30.4788 223.915 28.1651 221.601 28.165 218.748V218.747Z" fill="white" stroke="#0C4745" stroke-width="2"/>
<path d="M175.999 94.748V102.794C176.016 109.17 173.608 115.3 169.287 119.955L173.769 124.436C179.279 118.595 182.354 110.854 182.332 102.799V94.748H175.999Z" fill="white" stroke="#0C4745" stroke-width="2"/>
</svg>
