<svg width="343" height="252" viewBox="0 0 343 252" fill="none" xmlns="http://www.w3.org/2000/svg">
<path d="M197.83 14.918C209.287 4.13399 220.75 -0.745545 230.913 1.56348L231.396 1.67871C238.357 3.42399 244.214 8.4479 248.815 16.2197C253.42 23.9968 256.725 34.4613 258.58 46.917C262.231 71.4348 260.235 103.471 251.711 137.373L251.3 138.989C243.758 168.325 229.124 197.886 213.117 219.262C205.112 229.951 196.796 238.552 188.891 244.057C181.207 249.407 174.072 251.726 168.037 250.443L167.456 250.309C160.971 248.66 155.839 242.738 151.816 234.406C147.812 226.111 145.02 215.656 143.096 205.355C142.826 203.914 142.576 202.476 142.34 201.049C144.025 208.165 146.272 215.249 149.287 221.081C152.683 227.65 157.155 232.829 163.074 234.47L163.651 234.617C170.063 236.122 177.278 233.331 184.53 227.913C191.816 222.471 199.333 214.237 206.433 204.446C220.412 185.17 232.905 159.679 238.908 137.045L239.189 135.97C244.314 116.046 246.889 96.7869 247.12 79.6689C247.36 62.1671 245.155 46.8492 240.694 35.3301C236.311 24.0105 229.67 16.1811 220.859 13.7812L220.438 13.6719V13.6709C211.085 11.3267 200.923 15.4455 191.124 24.0859C188.243 26.6268 185.378 29.5712 182.557 32.8809C187.52 25.833 192.655 19.7894 197.83 14.918Z" stroke="white" stroke-width="2"/>
<mask id="path-2-inside-1_3_47034" fill="white">
<path d="M343 141.614C341.623 137.971 338.136 134.965 332.551 132.6C334.269 129.751 335.167 126.469 335.252 122.748C333.561 123.207 331.273 124.163 328.409 125.611C328.369 122.322 326.868 118.045 323.879 112.778C324.364 115.975 324.115 118.503 323.138 120.351C321.375 113.178 316.17 106.68 307.55 100.87C308.475 103.929 308.815 106.398 308.573 108.272C301.723 97.555 290.133 92.046 273.805 91.7381C277.646 95.0854 279.213 97.876 278.505 100.103C275.004 96.9851 270.894 94.771 266.194 93.474C264.857 108.599 262.117 124.569 257.968 140.696C254.435 154.439 250.043 167.698 244.963 180.045C249.525 181.84 253.484 182.39 256.827 181.722C264.333 178.919 273.031 178.028 282.923 179.043C282.923 179.043 281.782 183 279.495 190.919C272.946 194.214 268.095 194.862 264.936 192.865C264.057 190.028 261.357 188.161 256.853 187.257C256.853 187.257 253.596 190.061 247.08 195.675C242.878 199.199 247.27 200.502 260.269 199.592C273.215 201.157 282.189 200.299 287.177 197.011C288.829 192.38 291.956 186.825 296.544 180.34C301.815 172.899 301.415 176.475 299.107 167.422C297.626 163.905 295.102 162.529 291.536 163.289C286.745 163.381 279.613 162.948 270.127 162.005C270.127 162.005 271.629 158.959 274.644 152.88C281.14 147.345 289.793 144.522 300.582 144.411C297.318 153.169 299.33 160.23 306.606 165.588C311.995 169.63 315.41 174.111 316.832 179.017C315.154 179.836 314.191 182.017 313.928 185.561C313.928 185.561 315.738 187.722 319.336 192.065C324.475 193.441 328.323 191.712 330.873 186.858C332.813 178.984 333.24 169.794 332.151 159.3C335.055 152.468 336.15 146.428 335.422 141.194C338.221 143.081 340.168 145.714 341.276 149.094C341.014 144.725 339.906 141.279 337.946 138.777C339.644 139.53 341.322 140.474 343 141.614ZM322.266 149.075L325.695 145.367L326.921 155.062L322.266 149.075ZM246.47 76.8947L243.835 75.8008C244.202 70.5801 242.688 66.355 239.686 63.5318C237.785 61.7369 235.281 60.512 232.285 59.9355C223.934 58.3438 216.638 63.7741 215.019 73.0824C208.398 68.4381 173.126 77.4843 172.182 77.7856C186.642 75.4274 192.706 75.4274 190.306 76.7572C187.029 78.5651 183.666 80.7792 180.362 83.3666C179.242 84.2378 142.179 89.4258 142.31 90.5001C142.441 91.5744 175.118 87.8079 174.188 88.6987C171.316 91.4303 168.668 94.3125 166.105 97.5943C165.791 98.0004 166.105 98.7603 167.678 100.123C152.779 113.125 160.769 129.548 184.263 126.292C187.927 125.781 191.585 124.425 194.639 122.46C194.639 122.46 192.817 125.565 192.424 126.023C191.749 126.816 190.857 127.412 189.933 127.864C188.399 128.617 186.714 129.03 185.036 129.292C182.362 129.711 179.635 129.751 176.934 129.639C172.87 129.469 168.819 128.925 164.814 128.237C162.9 127.903 160.999 127.51 159.098 127.124C158.921 127.019 155.217 125.748 153.211 125.041C151.192 124.333 149.206 123.488 147.168 122.84C145.968 122.46 144.729 122.218 143.503 121.942C141.117 121.399 138.712 120.953 136.293 120.626C131.436 119.977 126.519 119.892 121.642 120.377C120.567 120.488 119.479 120.626 118.378 120.79C117.198 121.084 115.946 121.536 114.674 122.067C111.679 119.591 108.965 116.912 103.616 114.927C92.9639 110.977 77.8807 110.977 60.1033 124.242C23.6375 151.426 0.50474 134.284 0 133.897C0.485074 134.552 21.0548 161.593 45.6101 146.336C35.6202 157.06 32.9523 157.269 32.9523 157.269C32.9523 157.269 57.5141 158.684 74.354 138.404C87.6477 122.394 103.812 124.242 103.812 124.242C103.812 124.242 93.9471 126.115 86.14 133.576C94.4846 130.484 100.063 129.744 104.52 129.705C98.1161 136.694 95.2057 142.255 93.4621 147.817C90.3353 157.767 90.0075 164.37 87.1233 172.394C81.5908 187.801 72.2695 180.897 64.5411 194.378C57.5993 203.961 43.2831 203.948 33.5291 213.158C34.5124 215.438 33.6209 218.136 30.8547 221.261C28.508 221.215 25.9843 220.665 23.3032 219.604C23.3032 219.604 21.0745 223.475 16.604 231.231C23.8932 233.392 30.4679 231.873 36.3347 226.652C46.8949 213.086 60.6736 207.295 73.6199 200.83C82.4823 196.408 82.738 196.297 92.5312 194.502C110.918 191.122 114.615 191.974 124.068 185.364C127.004 183.301 129.462 181.185 131.652 179.154C133.258 177.654 134.726 176.2 136.116 174.851L138.122 163.964L138.305 172.781C140.259 170.973 141.799 169.754 143.857 168.687C147.62 166.728 151.966 166.309 158.41 168.53C181.32 176.456 199.897 181.578 214.298 183.386C221.299 169.709 227.644 153.201 232.521 134.251C235.995 120.731 238.349 107.112 239.476 94.1553C238.912 94.2928 238.335 94.437 237.765 94.5876C236.67 94.8889 230.699 98.6489 229.244 98.9044C223.849 99.8476 220.302 99.1009 219.037 93.7753C218.526 91.6071 221.017 83.3339 220.375 81.4277C221.817 84.9977 225.088 89.1179 227.506 90.546C228.581 91.1748 230.397 91.1027 231.361 90.3953C235.032 87.6965 238.244 83.7728 240.236 79.4429C238.401 78.9516 236.493 78.159 234.946 77.2878C236.703 77.5432 238.473 77.7005 240.249 77.766C242.308 77.8446 244.379 77.7987 246.437 77.6415C247.132 77.5825 247.185 77.1895 246.47 76.8947ZM224.471 109.588C222.105 110.217 219.693 110.551 217.425 111.501C217.064 111.652 216.658 111.828 216.212 112.032C215.242 112.464 214.311 112.896 213.413 113.315C212.594 113.695 211.801 114.075 211.034 114.449C209.782 115.058 208.595 115.654 207.468 116.23C202.866 110.512 194.351 106.817 181.936 105.645C188.327 105.501 194.528 106.175 200.559 107.63L207.632 102.599C206.563 97.9415 205.822 93.1989 205.449 88.345C209.552 99.376 213.675 105.088 224.471 109.588Z"/>
</mask>
<path d="M343 141.614C341.623 137.971 338.136 134.965 332.551 132.6C334.269 129.751 335.167 126.469 335.252 122.748C333.561 123.207 331.273 124.163 328.409 125.611C328.369 122.322 326.868 118.045 323.879 112.778C324.364 115.975 324.115 118.503 323.138 120.351C321.375 113.178 316.17 106.68 307.55 100.87C308.475 103.929 308.815 106.398 308.573 108.272C301.723 97.555 290.133 92.046 273.805 91.7381C277.646 95.0854 279.213 97.876 278.505 100.103C275.004 96.9851 270.894 94.771 266.194 93.474C264.857 108.599 262.117 124.569 257.968 140.696C254.435 154.439 250.043 167.698 244.963 180.045C249.525 181.84 253.484 182.39 256.827 181.722C264.333 178.919 273.031 178.028 282.923 179.043C282.923 179.043 281.782 183 279.495 190.919C272.946 194.214 268.095 194.862 264.936 192.865C264.057 190.028 261.357 188.161 256.853 187.257C256.853 187.257 253.596 190.061 247.08 195.675C242.878 199.199 247.27 200.502 260.269 199.592C273.215 201.157 282.189 200.299 287.177 197.011C288.829 192.38 291.956 186.825 296.544 180.34C301.815 172.899 301.415 176.475 299.107 167.422C297.626 163.905 295.102 162.529 291.536 163.289C286.745 163.381 279.613 162.948 270.127 162.005C270.127 162.005 271.629 158.959 274.644 152.88C281.14 147.345 289.793 144.522 300.582 144.411C297.318 153.169 299.33 160.23 306.606 165.588C311.995 169.63 315.41 174.111 316.832 179.017C315.154 179.836 314.191 182.017 313.928 185.561C313.928 185.561 315.738 187.722 319.336 192.065C324.475 193.441 328.323 191.712 330.873 186.858C332.813 178.984 333.24 169.794 332.151 159.3C335.055 152.468 336.15 146.428 335.422 141.194C338.221 143.081 340.168 145.714 341.276 149.094C341.014 144.725 339.906 141.279 337.946 138.777C339.644 139.53 341.322 140.474 343 141.614ZM322.266 149.075L325.695 145.367L326.921 155.062L322.266 149.075ZM246.47 76.8947L243.835 75.8008C244.202 70.5801 242.688 66.355 239.686 63.5318C237.785 61.7369 235.281 60.512 232.285 59.9355C223.934 58.3438 216.638 63.7741 215.019 73.0824C208.398 68.4381 173.126 77.4843 172.182 77.7856C186.642 75.4274 192.706 75.4274 190.306 76.7572C187.029 78.5651 183.666 80.7792 180.362 83.3666C179.242 84.2378 142.179 89.4258 142.31 90.5001C142.441 91.5744 175.118 87.8079 174.188 88.6987C171.316 91.4303 168.668 94.3125 166.105 97.5943C165.791 98.0004 166.105 98.7603 167.678 100.123C152.779 113.125 160.769 129.548 184.263 126.292C187.927 125.781 191.585 124.425 194.639 122.46C194.639 122.46 192.817 125.565 192.424 126.023C191.749 126.816 190.857 127.412 189.933 127.864C188.399 128.617 186.714 129.03 185.036 129.292C182.362 129.711 179.635 129.751 176.934 129.639C172.87 129.469 168.819 128.925 164.814 128.237C162.9 127.903 160.999 127.51 159.098 127.124C158.921 127.019 155.217 125.748 153.211 125.041C151.192 124.333 149.206 123.488 147.168 122.84C145.968 122.46 144.729 122.218 143.503 121.942C141.117 121.399 138.712 120.953 136.293 120.626C131.436 119.977 126.519 119.892 121.642 120.377C120.567 120.488 119.479 120.626 118.378 120.79C117.198 121.084 115.946 121.536 114.674 122.067C111.679 119.591 108.965 116.912 103.616 114.927C92.9639 110.977 77.8807 110.977 60.1033 124.242C23.6375 151.426 0.50474 134.284 0 133.897C0.485074 134.552 21.0548 161.593 45.6101 146.336C35.6202 157.06 32.9523 157.269 32.9523 157.269C32.9523 157.269 57.5141 158.684 74.354 138.404C87.6477 122.394 103.812 124.242 103.812 124.242C103.812 124.242 93.9471 126.115 86.14 133.576C94.4846 130.484 100.063 129.744 104.52 129.705C98.1161 136.694 95.2057 142.255 93.4621 147.817C90.3353 157.767 90.0075 164.37 87.1233 172.394C81.5908 187.801 72.2695 180.897 64.5411 194.378C57.5993 203.961 43.2831 203.948 33.5291 213.158C34.5124 215.438 33.6209 218.136 30.8547 221.261C28.508 221.215 25.9843 220.665 23.3032 219.604C23.3032 219.604 21.0745 223.475 16.604 231.231C23.8932 233.392 30.4679 231.873 36.3347 226.652C46.8949 213.086 60.6736 207.295 73.6199 200.83C82.4823 196.408 82.738 196.297 92.5312 194.502C110.918 191.122 114.615 191.974 124.068 185.364C127.004 183.301 129.462 181.185 131.652 179.154C133.258 177.654 134.726 176.2 136.116 174.851L138.122 163.964L138.305 172.781C140.259 170.973 141.799 169.754 143.857 168.687C147.62 166.728 151.966 166.309 158.41 168.53C181.32 176.456 199.897 181.578 214.298 183.386C221.299 169.709 227.644 153.201 232.521 134.251C235.995 120.731 238.349 107.112 239.476 94.1553C238.912 94.2928 238.335 94.437 237.765 94.5876C236.67 94.8889 230.699 98.6489 229.244 98.9044C223.849 99.8476 220.302 99.1009 219.037 93.7753C218.526 91.6071 221.017 83.3339 220.375 81.4277C221.817 84.9977 225.088 89.1179 227.506 90.546C228.581 91.1748 230.397 91.1027 231.361 90.3953C235.032 87.6965 238.244 83.7728 240.236 79.4429C238.401 78.9516 236.493 78.159 234.946 77.2878C236.703 77.5432 238.473 77.7005 240.249 77.766C242.308 77.8446 244.379 77.7987 246.437 77.6415C247.132 77.5825 247.185 77.1895 246.47 76.8947ZM224.471 109.588C222.105 110.217 219.693 110.551 217.425 111.501C217.064 111.652 216.658 111.828 216.212 112.032C215.242 112.464 214.311 112.896 213.413 113.315C212.594 113.695 211.801 114.075 211.034 114.449C209.782 115.058 208.595 115.654 207.468 116.23C202.866 110.512 194.351 106.817 181.936 105.645C188.327 105.501 194.528 106.175 200.559 107.63L207.632 102.599C206.563 97.9415 205.822 93.1989 205.449 88.345C209.552 99.376 213.675 105.088 224.471 109.588Z" stroke="#DBAB33" stroke-width="4" mask="url(#path-2-inside-1_3_47034)"/>
</svg>
