<svg width="194" height="195" viewBox="0 0 194 195" fill="none" xmlns="http://www.w3.org/2000/svg">
<g clip-path="url(#clip0_96_33638)">
<path d="M93.861 14.0019C93.9312 13.9953 94.0017 13.9905 94.0722 13.9873C108.617 13.3221 124.163 17.2232 136.895 24.2327C138.3 25.0046 139.681 25.8171 141.038 26.6702C142.396 27.5234 143.727 28.4155 145.031 29.347C146.336 30.2786 147.612 31.2476 148.86 32.2542C150.108 33.2608 151.325 34.3033 152.511 35.3815C153.024 35.8394 153.531 36.3038 154.032 36.7744C154.534 37.2448 155.029 37.7214 155.518 38.2043C156.008 38.6871 156.491 39.1759 156.969 39.6707C157.446 40.1654 157.917 40.6659 158.382 41.1723C158.847 41.6787 159.306 42.1908 159.758 42.7086C160.21 43.2264 160.656 43.7498 161.095 44.2786C161.535 44.8074 161.968 45.3414 162.394 45.881C162.82 46.4206 163.239 46.9652 163.652 47.515C164.065 48.065 164.47 48.6199 164.869 49.1797C165.268 49.7396 165.66 50.3043 166.045 50.874C166.43 51.4437 166.808 52.0179 167.179 52.5969C167.549 53.1759 167.913 53.7594 168.269 54.3475C168.626 54.9353 168.975 55.5278 169.316 56.1243C169.658 56.7209 169.992 57.3215 170.319 57.9264C170.646 58.5313 170.965 59.1401 171.277 59.7529C171.588 60.3658 171.892 60.9823 172.189 61.6026C172.485 62.2228 172.774 62.8467 173.055 63.4742C173.336 64.1016 173.609 64.7325 173.875 65.3666C174.14 66.0007 174.398 66.6382 174.647 67.2788C174.897 67.9193 175.139 68.5629 175.372 69.2095C175.606 69.8561 175.832 70.5054 176.049 71.1575C176.267 71.8097 176.477 72.4645 176.678 73.1217C176.88 73.7791 177.073 74.4388 177.258 75.1009C177.443 75.7631 177.62 76.4273 177.789 77.0938C177.957 77.7603 178.118 78.4287 178.27 79.0991C178.422 79.7696 178.566 80.442 178.702 81.1159C178.837 81.7899 178.964 82.4655 179.083 83.1426C179.202 83.8197 179.312 84.4984 179.414 85.1783C179.516 85.8583 179.61 86.5391 179.695 87.2214C179.78 87.9036 179.857 88.5868 179.925 89.2709C179.994 89.955 180.053 90.6397 180.105 91.3253C180.156 92.0109 180.199 92.6969 180.233 93.3837C180.261 94.0629 180.281 94.7425 180.293 95.422C180.305 96.1018 180.309 96.7816 180.304 97.4613C180.3 98.1411 180.287 98.8206 180.266 99.5002C180.245 100.18 180.216 100.859 180.179 101.538C180.142 102.216 180.097 102.895 180.043 103.572C179.99 104.25 179.928 104.927 179.858 105.603C179.789 106.279 179.711 106.955 179.625 107.629C179.539 108.303 179.445 108.977 179.343 109.649C179.241 110.321 179.13 110.992 179.012 111.661C178.894 112.33 178.768 112.998 178.633 113.665C178.499 114.331 178.356 114.996 178.206 115.659C178.056 116.322 177.898 116.983 177.731 117.642C177.565 118.301 177.391 118.958 177.209 119.613C177.027 120.268 176.837 120.921 176.64 121.571C176.442 122.222 176.236 122.87 176.023 123.515C175.81 124.161 175.589 124.804 175.36 125.444C175.131 126.084 174.895 126.721 174.651 127.356C174.407 127.99 174.155 128.622 173.896 129.25C173.637 129.879 173.37 130.504 173.096 131.126C172.822 131.748 172.54 132.367 172.251 132.982C171.962 133.597 171.665 134.209 171.361 134.817C171.058 135.425 170.747 136.029 170.428 136.63C170.11 137.231 169.784 137.827 169.451 138.42C169.119 139.013 168.779 139.602 168.432 140.186C168.085 140.771 167.731 141.352 167.371 141.928C167.01 142.504 166.642 143.075 166.267 143.643C165.893 144.21 165.512 144.773 165.124 145.331C164.735 145.889 164.341 146.443 163.939 146.991C163.538 147.54 163.13 148.084 162.716 148.622C162.301 149.161 161.88 149.695 161.453 150.224C161.026 150.753 160.592 151.276 160.152 151.794C159.712 152.313 159.266 152.826 158.814 153.333C143.484 170.261 123.122 179.629 100.338 180.761C96.7058 180.835 93.0923 180.818 89.4713 180.485C88.9087 180.433 88.3465 180.375 87.785 180.312C87.2237 180.248 86.6629 180.179 86.1027 180.104C85.5426 180.029 84.9834 179.948 84.425 179.862C83.8665 179.776 83.309 179.684 82.7526 179.586C82.1959 179.488 81.6405 179.385 81.0859 179.276C80.5314 179.167 79.9782 179.052 79.4261 178.932C78.8741 178.812 78.3233 178.686 77.7737 178.554C77.2241 178.422 76.676 178.285 76.1293 178.143C75.5825 178 75.0373 177.851 74.4935 177.698C73.9498 177.544 73.4078 177.384 72.8673 177.219C72.3268 177.055 71.7882 176.884 71.2511 176.708C70.7141 176.532 70.1789 176.351 69.6456 176.164C69.1123 175.977 68.5811 175.785 68.0518 175.587C67.5222 175.39 66.995 175.187 66.4698 174.978C65.9445 174.77 65.4214 174.556 64.9006 174.337C64.3798 174.118 63.8612 173.894 63.345 173.664C62.8287 173.434 62.3147 173.2 61.8032 172.959C61.2917 172.719 60.7826 172.474 60.2762 172.223C59.7698 171.973 59.2659 171.717 58.7646 171.457C58.2633 171.196 57.7646 170.93 57.2688 170.659C56.773 170.388 56.2799 170.112 55.7896 169.831C55.2995 169.55 54.812 169.264 54.3276 168.973C53.8432 168.682 53.3618 168.386 52.8834 168.085C52.405 167.785 51.9299 167.479 51.4578 167.169C50.9856 166.858 50.5167 166.543 50.0509 166.223C49.5852 165.903 49.1227 165.578 48.6637 165.249C48.2047 164.919 47.7488 164.585 47.2966 164.246C46.8444 163.908 46.3958 163.564 45.9504 163.216C45.5051 162.868 45.0635 162.516 44.6253 162.159C44.1873 161.802 43.7529 161.441 43.3221 161.075C42.8914 160.709 42.4644 160.339 42.0414 159.965C41.6181 159.59 41.1989 159.212 40.7834 158.829C40.2785 158.367 39.7791 157.9 39.2856 157.426C38.7921 156.952 38.3046 156.473 37.823 155.987C37.3414 155.501 36.8659 155.009 36.3964 154.512C35.9268 154.014 35.4635 153.511 35.0064 153.002C34.5494 152.493 34.0987 151.979 33.6543 151.459C33.21 150.939 32.772 150.413 32.3406 149.882C31.9092 149.352 31.4845 148.815 31.0663 148.274C30.6482 147.733 30.2367 147.187 29.8321 146.635C29.4274 146.084 29.0295 145.527 28.6387 144.966C28.2477 144.404 27.8636 143.838 27.4868 143.267C27.1098 142.697 26.74 142.121 26.3772 141.542C26.0144 140.962 25.6588 140.377 25.3104 139.789C24.962 139.2 24.621 138.607 24.2873 138.01C23.9537 137.413 23.6275 136.811 23.3086 136.206C22.9898 135.601 22.6783 134.992 22.3744 134.379C22.0707 133.766 21.7744 133.15 21.4859 132.53C21.1972 131.91 20.9162 131.286 20.643 130.659C20.3698 130.032 20.1044 129.401 19.8467 128.768C19.5891 128.134 19.3392 127.497 19.0973 126.857C18.8553 126.218 18.6214 125.575 18.3953 124.929C18.1693 124.284 17.9513 123.635 17.7412 122.984C17.5311 122.333 17.3291 121.68 17.1351 121.024C16.9411 120.368 16.7554 119.71 16.5777 119.049C16.4 118.388 16.2305 117.726 16.0692 117.061C15.9078 116.396 15.7547 115.73 15.61 115.061C15.4651 114.393 15.3285 113.723 15.2002 113.051C15.072 112.379 14.9518 111.705 14.8401 111.031C14.7283 110.356 14.625 109.68 14.5299 109.002C14.4348 108.325 14.3482 107.646 14.27 106.967C14.1918 106.287 14.1218 105.607 14.0605 104.925C13.9991 104.244 13.946 103.562 13.9013 102.88C13.8566 102.197 13.8204 101.514 13.7928 100.831C13.7697 100.232 13.753 99.6338 13.7428 99.0353C13.7325 98.4366 13.7287 97.8379 13.7312 97.2393C13.7338 96.6406 13.7428 96.0419 13.7583 95.4435C13.7736 94.845 13.7954 94.2467 13.8236 93.6486C13.8519 93.0505 13.8865 92.4529 13.9275 91.8556C13.9686 91.2582 14.0159 90.6615 14.0697 90.0653C14.1236 89.469 14.1838 88.8734 14.2503 88.2783C14.3168 87.6833 14.3897 87.0891 14.4691 86.4958C14.5485 85.9022 14.6341 85.3098 14.726 84.7181C14.8181 84.1265 14.9164 83.5359 15.021 82.9465C15.1256 82.3572 15.2366 81.7687 15.3539 81.1816C15.4711 80.5945 15.5947 80.0087 15.7244 79.4242C15.8542 78.8398 15.9902 78.2568 16.1327 77.6752C16.275 77.0938 16.4235 76.5139 16.5783 75.9355C16.7331 75.3571 16.8939 74.7804 17.061 74.2056C17.2281 73.6306 17.4013 73.0575 17.5807 72.4863C17.7601 71.9151 17.9456 71.3458 18.1371 70.7785C18.3287 70.2113 18.5263 69.6462 18.7299 69.0833C18.9336 68.5203 19.1431 67.9595 19.3589 67.401C19.5745 66.8425 19.7962 66.2864 20.0237 65.7327C20.2512 65.1789 20.4848 64.6276 20.7243 64.0787C20.9636 63.5299 21.2089 62.9839 21.4599 62.4403C21.711 61.8968 21.9679 61.3561 22.2306 60.818C22.4934 60.2802 22.7617 59.745 23.0358 59.2126C23.3099 58.6804 23.5898 58.1511 23.8753 57.625C24.1608 57.0987 24.4518 56.5756 24.7485 56.0556C25.0451 55.5355 25.3473 55.0187 25.6552 54.5051C25.963 53.9915 26.2762 53.4813 26.5949 52.9745C26.9135 52.4677 27.2377 51.9645 27.5671 51.4646C27.8966 50.9646 28.2314 50.4684 28.5714 49.9756C28.9115 49.4829 29.2569 48.9937 29.6076 48.5085C29.9582 48.0231 30.3138 47.5415 30.6747 47.0639C32.46 44.6924 34.4331 42.4415 36.4426 40.2588C50.9777 24.4705 72.4834 14.9026 93.861 14.0019Z" fill="#0C4745"/>
<path d="M93.7321 22.9879C93.7594 22.9852 93.7867 22.9816 93.8139 22.9799C98.2223 22.6961 102.817 23.061 107.176 23.7281C121.288 25.8873 134.939 31.8302 145.699 41.3074C146.16 41.7102 146.617 42.1187 147.069 42.5326C147.52 42.9466 147.967 43.3662 148.408 43.7912C148.85 44.2161 149.286 44.6465 149.716 45.0823C150.147 45.518 150.572 45.9589 150.992 46.405C151.412 46.8512 151.827 47.3025 152.235 47.7589C152.644 48.2153 153.047 48.6766 153.445 49.1428C153.843 49.6091 154.234 50.0801 154.62 50.556C155.006 51.0319 155.386 51.5125 155.76 51.9977C156.134 52.4829 156.502 52.9726 156.865 53.4669C157.227 53.9612 157.583 54.4598 157.932 54.9628C158.282 55.4658 158.626 55.973 158.963 56.4845C159.301 56.9959 159.632 57.5114 159.956 58.031C160.281 58.5507 160.599 59.0742 160.911 59.6014C161.223 60.1288 161.528 60.6601 161.827 61.1949C162.126 61.7297 162.418 62.2683 162.704 62.8104C162.989 63.3524 163.268 63.898 163.54 64.447C163.812 64.9959 164.078 65.5481 164.336 66.1036C164.595 66.6589 164.847 67.2174 165.092 67.7791C165.336 68.3409 165.574 68.9054 165.805 69.4729C166.036 70.0403 166.26 70.6105 166.477 71.1836C166.694 71.7567 166.904 72.3323 167.107 72.9103C167.31 73.4885 167.506 74.069 167.694 74.6519C167.883 75.2349 168.064 75.8201 168.238 76.4076C168.412 76.9951 168.58 77.5845 168.739 78.176C168.899 78.7674 169.051 79.3608 169.196 79.9561C169.342 80.5513 169.479 81.1483 169.61 81.747C169.74 82.3456 169.863 82.9458 169.979 83.5475C170.095 84.149 170.203 84.7521 170.304 85.3564C170.405 85.9608 170.499 86.5663 170.585 87.1729C170.671 87.7795 170.749 88.3871 170.82 88.9956C170.891 89.6043 170.955 90.2136 171.011 90.8237C171.067 91.4339 171.116 92.0445 171.157 92.6559C171.195 93.2725 171.225 93.8896 171.247 94.507C171.27 95.1244 171.285 95.7419 171.292 96.3597C171.3 96.9775 171.299 97.5953 171.291 98.2131C171.283 98.8309 171.268 99.4483 171.244 100.066C171.221 100.683 171.19 101.3 171.152 101.917C171.113 102.533 171.067 103.149 171.013 103.765C170.96 104.381 170.898 104.995 170.829 105.609C170.761 106.223 170.684 106.836 170.6 107.448C170.516 108.06 170.424 108.671 170.325 109.281C170.226 109.891 170.119 110.499 170.005 111.107C169.891 111.714 169.769 112.319 169.64 112.923C169.511 113.528 169.374 114.13 169.23 114.731C169.086 115.332 168.935 115.931 168.776 116.528C168.617 117.124 168.451 117.72 168.277 118.313C168.103 118.906 167.923 119.496 167.734 120.085C167.546 120.673 167.351 121.259 167.148 121.843C166.946 122.427 166.736 123.008 166.519 123.586C166.302 124.164 166.078 124.74 165.846 125.313C165.615 125.886 165.377 126.456 165.131 127.023C164.886 127.59 164.634 128.154 164.374 128.714C164.115 129.275 163.849 129.833 163.576 130.387C163.303 130.941 163.023 131.492 162.736 132.039C162.45 132.587 162.156 133.13 161.856 133.67C161.556 134.21 161.249 134.746 160.936 135.279C160.623 135.811 160.303 136.34 159.976 136.864C159.65 137.389 159.317 137.909 158.977 138.426C158.638 138.942 158.293 139.454 157.941 139.962C157.589 140.469 157.231 140.973 156.866 141.472C156.502 141.971 156.131 142.465 155.755 142.955C155.378 143.444 154.995 143.93 154.607 144.41C154.218 144.89 153.824 145.366 153.423 145.836C153.023 146.307 152.617 146.772 152.205 147.233C151.864 147.614 151.52 147.993 151.171 148.367C150.823 148.742 150.47 149.113 150.114 149.48C149.758 149.847 149.397 150.21 149.033 150.57C148.669 150.93 148.302 151.286 147.93 151.637C147.559 151.989 147.184 152.337 146.805 152.681C146.426 153.025 146.044 153.365 145.658 153.701C145.272 154.037 144.883 154.369 144.49 154.697C144.097 155.025 143.701 155.349 143.301 155.668C142.902 155.988 142.499 156.303 142.092 156.614C141.686 156.925 141.277 157.232 140.864 157.535C140.451 157.837 140.036 158.135 139.617 158.429C139.198 158.723 138.776 159.012 138.351 159.297C137.926 159.582 137.498 159.862 137.067 160.138C136.636 160.415 136.202 160.686 135.766 160.953C135.329 161.22 134.89 161.482 134.448 161.739C134.006 161.997 133.561 162.25 133.114 162.498C132.666 162.747 132.216 162.99 131.764 163.229C131.311 163.468 130.856 163.702 130.399 163.932C129.942 164.161 129.482 164.385 129.02 164.605C128.558 164.825 128.093 165.039 127.627 165.25C127.16 165.459 126.691 165.664 126.22 165.865C125.749 166.065 125.276 166.26 124.801 166.45C124.327 166.64 123.849 166.826 123.371 167.006C122.892 167.186 122.411 167.361 121.928 167.531C121.446 167.701 120.962 167.866 120.476 168.026C119.99 168.186 119.502 168.341 119.013 168.491C118.523 168.641 118.033 168.785 117.54 168.925C117.048 169.064 116.554 169.198 116.059 169.327C115.564 169.456 115.068 169.58 114.57 169.699C114.072 169.818 113.573 169.931 113.073 170.039C112.573 170.147 112.072 170.251 111.57 170.348C111.067 170.446 110.564 170.538 110.06 170.625C106.908 171.176 103.72 171.44 100.53 171.636C81.7481 172.709 62.1556 165.791 48.1108 153.31C47.6488 152.902 47.1918 152.488 46.74 152.069C46.2881 151.649 45.8414 151.225 45.4 150.794C44.9587 150.364 44.5226 149.928 44.092 149.487C43.6613 149.046 43.2364 148.6 42.8168 148.148C42.3971 147.697 41.9832 147.24 41.5749 146.778C41.1666 146.316 40.764 145.85 40.3673 145.378C39.9704 144.906 39.5796 144.429 39.1946 143.948C38.8096 143.467 38.4307 142.98 38.0577 142.49C37.6847 141.999 37.3179 141.504 36.9572 141.004C36.5965 140.504 36.242 140 35.8936 139.491C35.5454 138.982 35.2034 138.469 34.8679 137.952C34.5324 137.435 34.2031 136.914 33.8805 136.389C33.5576 135.864 33.2414 135.335 32.9319 134.802C32.6221 134.269 32.3192 133.732 32.0227 133.191C31.7264 132.651 31.4367 132.107 31.1538 131.559C30.8708 131.012 30.5946 130.461 30.3254 129.906C30.0562 129.352 29.7936 128.794 29.538 128.233C29.2824 127.672 29.0339 127.108 28.7923 126.541C28.5508 125.974 28.3162 125.404 28.0887 124.831C27.8611 124.258 27.6408 123.682 27.4275 123.104C27.2142 122.525 27.008 121.945 26.8091 121.361C26.6102 120.778 26.4185 120.192 26.2341 119.604C26.0496 119.016 25.8725 118.425 25.7025 117.833C25.5326 117.24 25.37 116.646 25.2149 116.049C25.0597 115.452 24.9119 114.854 24.7715 114.254C24.6312 113.654 24.4984 113.052 24.3727 112.448C24.2471 111.845 24.1291 111.24 24.0187 110.633C23.908 110.027 23.805 109.419 23.7095 108.81C23.6138 108.201 23.5259 107.591 23.4454 106.98C23.3649 106.369 23.2919 105.757 23.2266 105.144C23.1612 104.531 23.1034 103.917 23.0532 103.303C23.003 102.688 22.9606 102.074 22.9255 101.458C22.8926 100.849 22.867 100.24 22.849 99.6302C22.831 99.0207 22.8204 98.4109 22.8173 97.801C22.8143 97.1912 22.8187 96.5815 22.8306 95.9717C22.8425 95.362 22.8619 94.7525 22.8888 94.1433C22.9157 93.534 22.95 92.9251 22.9918 92.3167C23.0337 91.7084 23.083 91.1005 23.1396 90.4933C23.1964 89.8861 23.2607 89.2796 23.3323 88.6739C23.4039 88.0683 23.4829 87.4637 23.5695 86.8599C23.6559 86.2563 23.7496 85.6539 23.851 85.0523C23.9524 84.451 24.0609 83.851 24.1769 83.2522C24.293 82.6535 24.4163 82.0563 24.5469 81.4607C24.6776 80.8649 24.8155 80.2709 24.9608 79.6787C25.1061 79.0863 25.2586 78.4959 25.4183 77.9073C25.578 77.3187 25.745 76.7323 25.9191 76.1479C26.0932 75.5634 26.2745 74.981 26.463 74.4011C26.6515 73.8212 26.847 73.2435 27.0495 72.6684C27.2521 72.093 27.4618 71.5205 27.6785 70.9504C27.8951 70.3803 28.1188 69.8129 28.3494 69.2484C28.5799 68.6838 28.8175 68.1221 29.0619 67.5634C29.3063 67.0047 29.5575 66.4492 29.8155 65.8965C30.0736 65.3439 30.3384 64.7947 30.6099 64.2485C30.8814 63.7025 31.1597 63.1599 31.4445 62.6205C31.7292 62.0813 32.0208 61.5458 32.3188 61.0136C32.6168 60.4814 32.9213 59.953 33.2321 59.4284C33.543 58.9038 33.8606 58.3832 34.1843 57.8664C34.5081 57.3496 34.8381 56.8367 35.1744 56.328C35.5107 55.8193 35.8532 55.3148 36.202 54.8145C36.5508 54.3141 36.9056 53.8183 37.2665 53.3267C37.6275 52.8351 37.9942 52.348 38.3671 51.8655C38.7399 51.3829 39.1186 50.9049 39.5032 50.4315C39.8878 49.9582 40.2783 49.4897 40.6744 49.0261C41.0706 48.5623 41.4722 48.1035 41.8795 47.6497C42.1793 47.3137 42.482 46.9802 42.7878 46.6496C43.0936 46.319 43.4024 45.9911 43.714 45.6662C44.0257 45.3413 44.3403 45.019 44.6581 44.6998C44.9758 44.3805 45.2961 44.0642 45.6195 43.7508C45.9429 43.4373 46.2692 43.1269 46.5983 42.8195C46.9273 42.512 47.2591 42.2075 47.5936 41.9061C47.9284 41.6047 48.2656 41.3063 48.6057 41.0109C48.9458 40.7158 49.2885 40.4236 49.6339 40.1345C49.9792 39.8456 50.3271 39.5597 50.6777 39.2771C51.0282 38.9942 51.3814 38.7148 51.737 38.4385C52.0926 38.1623 52.4508 37.8893 52.8116 37.6197C53.1721 37.3499 53.5353 37.0836 53.9007 36.8204C54.2662 36.5573 54.6341 36.2975 55.0043 36.0412C55.3747 35.7849 55.7471 35.5318 56.1219 35.2823C56.4968 35.0327 56.8738 34.7865 57.2533 34.5438C57.6326 34.3011 58.0141 34.0618 58.3978 33.8259C58.7814 33.5902 59.1673 33.358 59.5553 33.1293C59.9431 32.9006 60.3332 32.6754 60.7252 32.4537C61.1172 32.2321 61.5112 32.014 61.9072 31.7995C62.3033 31.5853 62.7012 31.3744 63.1011 31.1671C63.5011 30.9601 63.9027 30.7564 64.3062 30.5565C64.7098 30.3567 65.1152 30.1606 65.5223 29.9681C65.9295 29.7756 66.3383 29.5869 66.7489 29.4018C67.1594 29.2167 67.5717 29.0356 67.9856 28.8581C68.3996 28.6806 68.815 28.5068 69.232 28.3369C69.649 28.167 70.0677 28.001 70.4877 27.8386C70.9077 27.6763 71.3293 27.5177 71.7523 27.3631C72.1754 27.2085 72.5996 27.0577 73.0253 26.9109C73.451 26.7641 73.878 26.621 74.3063 26.482C74.7347 26.3429 75.1644 26.2076 75.595 26.0763C76.0258 25.9451 76.4578 25.8177 76.8909 25.6944C77.3241 25.5711 77.7584 25.4515 78.1935 25.3362C79.4652 25.0129 80.744 24.7214 82.0298 24.4614C83.3158 24.2015 84.6075 23.9736 85.9047 23.7775C87.2018 23.5814 88.5032 23.4176 89.8087 23.2859C91.1141 23.1542 92.4218 23.0548 93.7321 22.9879Z" fill="#2CA289"/>
<path d="M147.265 58.9844C149.983 60.1806 152.275 63.7023 153.325 66.3723C153.936 67.9247 154.358 69.5447 154.484 71.2107C154.724 74.3983 154.52 77.6751 154.518 80.8711C154.563 86.7002 154.571 92.5293 154.541 98.3584L154.531 112.932C154.525 115.336 154.659 117.839 154.442 120.232C154.277 122.061 153.746 123.918 153.001 125.594C152.94 125.734 152.877 125.875 152.813 126.014C152.748 126.153 152.681 126.292 152.613 126.429C152.545 126.567 152.476 126.704 152.404 126.84C152.333 126.976 152.259 127.111 152.185 127.245C152.11 127.379 152.033 127.512 151.955 127.644C151.877 127.776 151.797 127.908 151.715 128.038C151.634 128.168 151.551 128.297 151.466 128.425C151.381 128.553 151.295 128.68 151.207 128.806C151.119 128.932 151.03 129.057 150.939 129.181C150.848 129.305 150.755 129.427 150.661 129.549C150.567 129.67 150.472 129.79 150.375 129.909C150.278 130.028 150.179 130.146 150.079 130.263C149.979 130.379 149.878 130.495 149.775 130.609C149.672 130.723 149.568 130.835 149.462 130.947C149.357 131.058 149.25 131.168 149.141 131.277C149.033 131.386 148.923 131.494 148.812 131.599C148.701 131.706 148.588 131.81 148.474 131.913C148.361 132.017 148.246 132.118 148.13 132.219C148.013 132.319 147.896 132.418 147.777 132.515C147.658 132.613 147.538 132.709 147.417 132.803C147.296 132.898 147.174 132.991 147.051 133.082C146.927 133.173 146.803 133.263 146.677 133.352C146.551 133.44 146.425 133.527 146.297 133.612C146.169 133.697 146.04 133.78 145.91 133.862C145.78 133.944 145.649 134.024 145.517 134.103C145.385 134.182 145.252 134.259 145.118 134.334C144.985 134.409 144.85 134.483 144.714 134.555C144.579 134.627 144.442 134.697 144.305 134.766C144.167 134.834 144.029 134.901 143.89 134.966C143.751 135.031 143.611 135.095 143.47 135.156C143.329 135.218 143.188 135.278 143.046 135.336C142.904 135.394 142.761 135.45 142.617 135.504C138.956 136.894 135.394 136.664 131.572 136.679C128.592 136.711 125.613 136.7 122.634 136.647L105.597 136.631C102.307 136.633 98.9141 136.477 95.6381 136.724L95.513 136.831C93.797 138.305 92.2315 140.054 90.6416 141.665L81.175 151.282L78.5358 153.932C78.1159 154.358 77.662 154.921 77.1774 155.26C76.4008 155.804 75.2779 156.072 74.3464 156C73.2152 155.912 72.1923 155.401 71.4637 154.531C71.0421 154.027 69.7847 151.431 69.5699 151.352C69.3878 151.285 69.0841 151.276 68.8867 151.245C69.8618 151.216 70.7233 151.162 71.5665 150.615C73.0265 149.668 74.4907 147.728 75.7624 146.467C80.5644 141.707 85.2496 136.829 90.0865 132.103C99.454 132.358 108.858 132.233 118.228 132.243L127.486 132.251C129.709 132.252 131.962 132.336 134.173 132.069C134.764 131.997 135.351 131.898 135.933 131.773C136.515 131.647 137.091 131.495 137.659 131.317C138.227 131.138 138.786 130.934 139.335 130.705C139.885 130.475 140.423 130.221 140.949 129.942C141.082 129.871 141.214 129.798 141.346 129.723C141.477 129.649 141.608 129.573 141.738 129.495C141.867 129.417 141.996 129.338 142.123 129.257C142.251 129.176 142.378 129.094 142.503 129.01C142.629 128.926 142.754 128.84 142.877 128.753C143.001 128.666 143.123 128.578 143.244 128.488C143.366 128.398 143.486 128.306 143.605 128.213C143.724 128.12 143.842 128.026 143.959 127.93C144.076 127.834 144.191 127.736 144.306 127.638C144.42 127.539 144.533 127.439 144.645 127.337C144.757 127.236 144.868 127.133 144.977 127.029C145.086 126.924 145.194 126.819 145.301 126.712C145.408 126.605 145.514 126.497 145.618 126.387C145.722 126.278 145.824 126.167 145.926 126.055C146.027 125.943 146.127 125.829 146.226 125.715C146.324 125.6 146.422 125.485 146.517 125.368C146.613 125.251 146.707 125.133 146.8 125.014C146.893 124.894 146.984 124.774 147.074 124.652C147.164 124.531 147.252 124.408 147.339 124.285C147.426 124.161 147.511 124.036 147.595 123.911C147.679 123.785 147.761 123.658 147.842 123.53C147.923 123.403 148.002 123.274 148.079 123.144C148.157 123.014 148.233 122.884 148.307 122.752C148.381 122.621 148.454 122.488 148.525 122.355C148.596 122.221 148.666 122.087 148.733 121.952C148.801 121.817 148.867 121.681 148.931 121.544C148.996 121.408 149.059 121.27 149.12 121.132C149.181 120.994 149.24 120.855 149.297 120.715C149.355 120.575 149.411 120.435 149.465 120.294C149.519 120.153 149.572 120.011 149.622 119.869C149.673 119.726 149.722 119.583 149.769 119.44C149.816 119.296 149.861 119.152 149.905 119.007C150.091 118.364 150.24 117.713 150.352 117.054C150.463 116.394 150.537 115.73 150.574 115.062C150.741 111.912 150.61 108.698 150.605 105.542L150.576 87.786L150.558 75.4134C150.552 72.7703 150.677 70.0551 150.333 67.4323C149.92 64.2817 148.769 61.7303 147.265 58.9844Z" fill="#0C4745"/>
<path d="M52.3257 129.069C50.6316 127.869 49.1243 126.521 47.8019 124.917C47.5376 124.596 47.284 124.266 47.0409 123.928C46.7978 123.59 46.5657 123.244 46.3448 122.891C46.1239 122.538 45.9146 122.179 45.7168 121.812C45.519 121.446 45.3332 121.073 45.1594 120.695C44.9857 120.317 44.8241 119.933 44.675 119.545C44.5257 119.156 44.3891 118.763 44.2652 118.365C44.1413 117.968 44.0303 117.567 43.9321 117.162C43.8342 116.758 43.7491 116.35 43.6771 115.94C43.1361 112.863 43.378 109.501 43.3789 106.378L43.3793 91.1035L43.3788 76.5374C43.3769 73.8369 43.2173 71.0514 43.4799 68.3661C43.497 68.2026 43.5161 68.0393 43.5371 67.8762C43.5582 67.713 43.5813 67.5501 43.6063 67.3878C43.6315 67.2252 43.6586 67.063 43.6876 66.901C43.7166 66.7393 43.7476 66.5778 43.7806 66.4166C43.8137 66.2556 43.8488 66.0949 43.8857 65.9346C43.9227 65.7744 43.9615 65.6147 44.0024 65.4553C44.0434 65.296 44.0862 65.1372 44.1311 64.979C44.176 64.8209 44.2226 64.6632 44.2713 64.5062C44.32 64.3491 44.3705 64.1926 44.423 64.0367C44.4755 63.8808 44.5301 63.7256 44.5863 63.5712C44.6428 63.4168 44.7011 63.263 44.7612 63.1099C44.8213 62.9568 44.8832 62.8045 44.9471 62.6529C45.0109 62.5014 45.0766 62.3506 45.1443 62.2007C45.2119 62.0509 45.2812 61.9018 45.3525 61.7536C45.4237 61.6053 45.4968 61.4581 45.5717 61.3116C45.6465 61.1652 45.7232 61.0197 45.8017 60.8751C45.8801 60.7306 45.9602 60.5871 46.0423 60.4445C46.1243 60.3018 46.2079 60.1603 46.2933 60.0199C46.3787 59.8793 46.4659 59.7399 46.5547 59.6016C46.6436 59.4631 46.7343 59.326 46.8266 59.1899C46.9189 59.0537 47.0127 58.9188 47.1083 58.7849C47.2038 58.6509 47.301 58.5183 47.3999 58.387C47.4986 58.2555 47.599 58.1254 47.7011 57.9964C47.8032 57.8674 47.9069 57.7397 48.012 57.6133C48.1172 57.4869 48.2238 57.3617 48.332 57.238C48.4402 57.1141 48.5501 56.9917 48.6613 56.8706C48.7725 56.7496 48.8852 56.6298 48.9994 56.5114C49.1137 56.393 49.2293 56.2761 49.3463 56.1608C49.4634 56.0452 49.582 55.9311 49.7019 55.8186C49.8219 55.7061 49.9429 55.5951 50.0655 55.4854C50.1881 55.3757 50.3122 55.2677 50.4374 55.1612C50.5626 55.0545 50.6892 54.9496 50.8171 54.8461C50.9965 54.6986 51.1782 54.5538 51.3621 54.4119C51.5463 54.2702 51.7327 54.1315 51.9212 53.9959C52.1099 53.8602 52.3007 53.7278 52.4937 53.5984C52.6866 53.469 52.8815 53.3428 53.0788 53.2199C53.276 53.0969 53.4749 52.9772 53.6759 52.8607C53.8769 52.7442 54.0798 52.6311 54.2846 52.5214C54.4894 52.4115 54.6959 52.305 54.9041 52.2021C55.1123 52.0991 55.3221 51.9994 55.5337 51.9032C55.7451 51.8071 55.9581 51.7145 56.1727 51.6253C56.3872 51.536 56.6032 51.4504 56.8205 51.3684C57.0378 51.2863 57.2564 51.2077 57.4763 51.1329C57.6963 51.0578 57.9174 50.9864 58.1396 50.9188C58.3618 50.8511 58.585 50.7871 58.8095 50.7267C59.0338 50.6662 59.2591 50.6096 59.4853 50.5567C59.7115 50.5037 59.9385 50.4544 60.1664 50.409C60.3941 50.3633 60.6226 50.3216 60.8518 50.2835C62.7744 49.984 64.7002 50.0321 66.6385 50.0369L72.7449 50.046L94.8551 50.0462L120.092 50.0463L127.888 50.0456C129.551 50.0462 131.249 49.9761 132.904 50.1441C137.6 50.6206 141.693 52.7406 144.922 56.1594C145.763 57.0506 146.498 58.0358 147.267 58.9889C148.77 61.7348 149.921 64.2862 150.334 67.4368C150.678 70.0596 150.553 72.7749 150.56 75.4179L150.578 87.7905L150.607 105.546C150.612 108.702 150.742 111.916 150.575 115.067C150.539 115.735 150.465 116.399 150.353 117.058C150.241 117.718 150.092 118.369 149.906 119.012C149.863 119.157 149.817 119.301 149.77 119.444C149.723 119.588 149.674 119.731 149.624 119.873C149.573 120.016 149.521 120.157 149.466 120.298C149.412 120.44 149.356 120.58 149.299 120.72C149.241 120.859 149.182 120.998 149.121 121.137C149.06 121.275 148.997 121.412 148.933 121.549C148.869 121.686 148.802 121.822 148.735 121.957C148.667 122.092 148.597 122.226 148.526 122.359C148.455 122.493 148.383 122.625 148.309 122.757C148.234 122.888 148.158 123.019 148.081 123.149C148.003 123.279 147.924 123.407 147.843 123.535C147.763 123.663 147.68 123.789 147.597 123.915C147.513 124.041 147.428 124.166 147.341 124.289C147.254 124.413 147.166 124.536 147.076 124.657C146.986 124.778 146.894 124.899 146.801 125.018C146.709 125.137 146.614 125.255 146.519 125.372C146.423 125.489 146.326 125.605 146.227 125.719C146.128 125.834 146.028 125.947 145.927 126.059C145.826 126.171 145.723 126.282 145.619 126.392C145.515 126.501 145.409 126.609 145.302 126.716C145.196 126.823 145.088 126.929 144.978 127.033C144.869 127.137 144.758 127.24 144.646 127.342C144.534 127.443 144.421 127.543 144.307 127.642C144.193 127.741 144.077 127.838 143.96 127.934C143.843 128.03 143.726 128.125 143.606 128.218C143.487 128.311 143.367 128.402 143.246 128.492C143.124 128.582 143.002 128.671 142.878 128.758C142.755 128.845 142.63 128.931 142.505 129.015C142.379 129.099 142.252 129.181 142.125 129.262C141.997 129.343 141.869 129.422 141.739 129.5C141.609 129.577 141.479 129.653 141.347 129.728C141.216 129.802 141.083 129.875 140.95 129.947C140.424 130.225 139.886 130.48 139.337 130.709C138.787 130.939 138.228 131.143 137.66 131.321C137.092 131.5 136.517 131.652 135.935 131.777C135.352 131.903 134.766 132.002 134.175 132.074C131.964 132.341 129.71 132.256 127.487 132.255L118.23 132.247C108.859 132.238 99.4554 132.362 90.0879 132.107C85.2509 136.834 80.5658 141.712 75.7637 146.472C74.4921 147.733 73.0278 149.672 71.5679 150.619C70.7246 151.166 69.8632 151.221 68.8881 151.249C68.0141 151.074 67.2521 150.791 66.5661 150.202C65.6393 149.406 65.1585 148.376 65.0615 147.17C64.8427 146.153 64.9671 144.91 64.9685 143.863L64.9821 137.729C64.4844 137.517 63.9909 137.296 63.5019 137.065C63.0127 136.833 62.5283 136.593 62.0488 136.343C61.5693 136.092 61.0947 135.833 60.6252 135.564C60.1558 135.295 59.6918 135.017 59.2333 134.73C58.7747 134.443 58.3219 134.148 57.875 133.843C57.428 133.538 56.9874 133.225 56.5528 132.903C56.1182 132.58 55.69 132.25 55.2683 131.911C54.8467 131.572 54.4318 131.225 54.0238 130.87C53.4414 130.355 52.6908 129.762 52.3257 129.069Z" fill="#0C4745"/>
<path d="M52.3242 129.062C56.7161 131.537 60.0304 132.254 65.0574 132.102C65.0466 137.117 65.1633 142.152 65.06 147.164C64.8412 146.146 64.9657 144.904 64.967 143.857L64.9806 137.723C64.4829 137.511 63.9894 137.289 63.5004 137.058C63.0113 136.827 62.5268 136.586 62.0473 136.336C61.5678 136.086 61.0932 135.827 60.6238 135.558C60.1543 135.289 59.6903 135.011 59.2319 134.724C58.7732 134.437 58.3204 134.141 57.8735 133.836C57.4266 133.532 56.9859 133.218 56.5513 132.896C56.1167 132.574 55.6885 132.244 55.2668 131.905C54.8453 131.566 54.4304 131.219 54.0223 130.864C53.4399 130.348 52.6893 129.755 52.3242 129.062Z" fill="#2CA289"/>
<path d="M47.3392 116.947C47.0459 115.934 46.7972 114.902 46.7466 113.845C46.6087 110.962 46.7504 108.018 46.7489 105.129L46.7354 87.1565L46.7305 76.3255C46.7197 73.3217 46.4499 70.1281 47.081 67.1828C47.1107 67.0434 47.1424 66.9044 47.1757 66.7659C47.2089 66.6272 47.2439 66.4891 47.2807 66.3513C47.3172 66.2136 47.3557 66.0763 47.3959 65.9395C47.4358 65.8027 47.4777 65.6665 47.5211 65.5306C47.5647 65.3948 47.6098 65.2597 47.6566 65.125C47.7034 64.9903 47.7519 64.8562 47.8021 64.7228C47.8523 64.5892 47.904 64.4564 47.9574 64.3244C48.0108 64.1921 48.0658 64.0607 48.1224 63.9299C48.1791 63.799 48.2374 63.6691 48.2973 63.5397C48.3573 63.4103 48.4187 63.2816 48.4818 63.1537C48.5449 63.0259 48.6095 62.8989 48.6758 62.7728C48.7419 62.6464 48.8098 62.521 48.8791 62.3965C48.9484 62.272 49.0193 62.1483 49.0917 62.0254C49.164 61.9026 49.2379 61.7808 49.3133 61.6597C49.3887 61.5387 49.4656 61.4187 49.5441 61.2996C49.6223 61.1804 49.7023 61.0624 49.7835 60.9453C49.8648 60.8282 49.9476 60.7121 50.0317 60.5971C50.116 60.4821 50.2015 60.368 50.2884 60.2551C50.3754 60.1422 50.4639 60.0304 50.5537 59.9196C50.6435 59.8088 50.7346 59.6993 50.8271 59.5907C50.9195 59.4821 51.0133 59.3749 51.1084 59.2686C51.2035 59.1625 51.2999 59.0576 51.3977 58.9538C51.4954 58.8499 51.5945 58.7474 51.6947 58.6461C51.795 58.5447 51.8965 58.4447 51.9992 58.3458C52.1021 58.2471 52.2059 58.1495 52.311 58.0533C52.4162 57.9571 52.5227 57.8621 52.6301 57.7685C52.7375 57.6748 52.8462 57.5825 52.9561 57.4916C53.0658 57.4006 53.1768 57.311 53.2888 57.2229C53.4008 57.1348 53.5139 57.0481 53.6281 56.9626C53.7422 56.8772 53.8574 56.7932 53.9737 56.7108C54.0898 56.6282 54.2071 56.5471 54.3253 56.4676C54.4435 56.3878 54.5627 56.3098 54.683 56.233C54.9658 56.05 55.2536 55.8753 55.5465 55.709C55.8396 55.5429 56.137 55.385 56.439 55.2359C56.7412 55.0868 57.0474 54.9468 57.3575 54.8155C57.6676 54.6842 57.9816 54.5621 58.2989 54.4489C58.6162 54.3358 58.9364 54.232 59.2598 54.1375C59.5832 54.0429 59.9089 53.9579 60.2372 53.8823C60.5655 53.8067 60.8955 53.7406 61.2277 53.6841C61.5598 53.6277 61.8932 53.5809 62.228 53.5437C65.1476 53.2268 68.8189 53.4538 71.8257 53.453L91.0877 53.463L120.998 53.4918L127.599 53.4771C129.881 53.4623 132.188 53.3334 134.434 53.8243C138.148 54.6363 142.029 57.2943 144.07 60.5099C143.329 60.3978 142.521 60.0338 141.79 59.8256C140.517 59.463 139.219 59.1735 137.931 58.8685C136.298 58.1094 134.337 57.652 132.542 57.524C128.868 57.2619 125.089 57.444 121.402 57.4442L100.747 57.4467L76.8861 57.4345C72.7299 57.433 68.4947 57.2657 64.3495 57.4783C62.8009 57.5577 61.2951 57.8142 59.8363 58.3526C56.4589 59.5994 53.6243 62.3188 52.1405 65.5882C51.5369 66.918 51.2209 68.3239 51.0881 69.7757C50.9585 71.1945 50.9955 72.6508 50.9879 74.0759L50.9733 80.946L50.9608 101.562C50.9602 104.101 51.2213 108.044 50.7333 110.366C50.6692 110.672 50.595 110.976 50.5105 111.276C50.426 111.577 50.3314 111.874 50.2269 112.169C50.1223 112.463 50.0079 112.754 49.8838 113.041C49.7597 113.327 49.6259 113.609 49.4827 113.887C49.3395 114.165 49.1871 114.437 49.0255 114.705C48.8639 114.972 48.6936 115.233 48.5144 115.489C48.335 115.745 48.1474 115.995 47.9513 116.238C47.7553 116.481 47.5512 116.717 47.3392 116.947Z" fill="#F9EACD"/>
<path d="M137.934 58.8672C139.222 59.1722 140.52 59.4617 141.793 59.8243C142.524 60.0325 143.332 60.3965 144.072 60.5086C145.681 62.3154 146.661 65.1025 147.015 67.4653C147.391 69.975 147.242 72.6342 147.251 75.174L147.254 88.2857L147.284 105.578C147.292 108.532 147.436 111.566 147.275 114.512C147.062 118.427 145.091 122.383 142.175 124.988C141.934 125.201 141.686 125.407 141.431 125.605C141.177 125.803 140.917 125.992 140.65 126.173C140.384 126.355 140.112 126.527 139.835 126.691C139.557 126.855 139.275 127.009 138.988 127.155C138.7 127.301 138.409 127.438 138.113 127.565C137.817 127.692 137.517 127.81 137.213 127.918C136.91 128.026 136.603 128.124 136.293 128.212C135.983 128.301 135.671 128.379 135.356 128.448C133.244 128.886 131.041 128.776 128.895 128.77L122.073 128.755L97.2701 128.741C95.7253 128.738 89.9851 128.528 88.8264 128.837C88.4092 128.948 88.0371 129.289 87.7223 129.571C85.8762 131.226 84.1787 133.127 82.4333 134.892L73.1151 144.261C72.3139 145.071 70.1846 147.522 69.3226 147.908C69.0337 147.88 68.97 147.897 68.7809 147.653C68.5796 147.393 68.5288 146.891 68.503 146.578C68.3946 145.265 68.4892 143.882 68.4903 142.56L68.4971 134.286C68.4981 133.063 68.7103 131.365 68.3238 130.203C68.1224 129.598 67.5565 128.979 66.9321 128.802C65.8397 128.492 64.2725 128.762 63.1284 128.75C62.9913 128.749 62.8541 128.747 62.7169 128.743C62.58 128.74 62.4428 128.734 62.3058 128.727C62.1688 128.719 62.0321 128.71 61.8953 128.7C61.7585 128.689 61.6219 128.676 61.4855 128.662C61.3491 128.648 61.2129 128.632 61.0768 128.615C60.9408 128.597 60.805 128.578 60.6695 128.557C60.5341 128.536 60.3988 128.513 60.2637 128.489C60.1286 128.464 59.9941 128.438 59.8598 128.411C59.7255 128.383 59.5913 128.353 59.4578 128.322C59.3242 128.291 59.1912 128.258 59.0584 128.224C58.9256 128.189 58.7932 128.153 58.6613 128.116C58.5294 128.078 58.3982 128.038 58.2672 127.997C58.1363 127.956 58.0062 127.913 57.8764 127.869C57.7466 127.825 57.6172 127.778 57.4886 127.731C57.36 127.683 57.2321 127.634 57.1046 127.583C56.9773 127.533 56.8505 127.48 56.7243 127.426C56.5984 127.372 56.4729 127.316 56.3483 127.259C56.2234 127.202 56.0995 127.143 55.9764 127.083C55.853 127.023 55.7307 126.961 55.609 126.898C55.4874 126.834 55.3665 126.77 55.2464 126.703C55.1265 126.637 55.0073 126.569 54.8889 126.5C54.7705 126.43 54.653 126.359 54.5365 126.287C54.42 126.215 54.3043 126.141 54.1896 126.066C54.075 125.991 53.9612 125.914 53.8484 125.836C53.7357 125.758 53.6239 125.678 53.5131 125.598C53.4023 125.517 53.2926 125.434 53.1838 125.351C53.0753 125.267 52.9677 125.182 52.861 125.096C52.7543 125.009 52.6488 124.922 52.5444 124.833C52.44 124.744 52.3368 124.653 52.2347 124.562C52.1326 124.47 52.0318 124.377 51.9319 124.283C51.8321 124.189 51.7336 124.094 51.6362 123.997C51.5388 123.901 51.4426 123.803 51.3477 123.704C53.2304 123.529 55.2009 123.637 57.0936 123.636L67.7592 123.639C70.0185 123.64 72.3885 123.801 74.6062 123.312C78.2335 122.513 80.919 120.241 82.8859 117.159C83.4427 118.026 84.044 118.848 84.763 119.589C87.2263 122.129 90.504 123.509 94.035 123.548C101.78 123.633 109.536 123.545 117.281 123.541L124.276 123.536C126.547 123.534 128.864 123.641 131.098 123.155C133.568 122.618 136.01 121.059 137.79 119.305C140.7 116.436 142.251 112.809 142.285 108.727L142.286 81.2484L142.296 72.8017C142.299 70.2493 142.531 67.4911 141.904 65.0043C141.236 62.3556 139.798 60.7549 137.934 58.8672Z" fill="#FFCD65"/>
<path d="M47.3398 116.944C47.5518 116.714 47.7559 116.478 47.952 116.235C48.1481 115.991 48.3356 115.742 48.515 115.486C48.6942 115.23 48.8646 114.968 49.0262 114.701C49.1878 114.434 49.3401 114.161 49.4833 113.884C49.6265 113.606 49.7603 113.324 49.8844 113.037C50.0085 112.751 50.1229 112.46 50.2275 112.165C50.3321 111.871 50.4266 111.573 50.5111 111.273C50.5956 110.972 50.6699 110.669 50.7339 110.363C51.2219 108.04 50.9609 104.097 50.9614 101.558L50.9739 80.9427L50.9885 74.0725C50.9961 72.6475 50.9592 71.1911 51.0887 69.7723C51.2215 68.3206 51.5376 66.9146 52.1412 65.5849C53.6249 62.3155 56.4595 59.5961 59.8369 58.3493C61.2957 57.8108 62.8015 57.5543 64.3501 57.4749C68.4953 57.2624 72.7305 57.4297 76.8868 57.4312L100.747 57.4433L121.402 57.4408C125.089 57.4406 128.869 57.2586 132.543 57.5206C134.338 57.6487 136.299 58.106 137.932 58.8651C139.796 60.7529 141.234 62.3535 141.901 65.0023C142.528 67.489 142.296 70.2473 142.294 72.7996L142.284 81.2464L142.283 108.724C142.249 112.807 140.698 116.434 137.787 119.303C136.008 121.057 133.566 122.616 131.096 123.153C128.862 123.639 126.545 123.532 124.273 123.534L117.279 123.539C109.534 123.543 101.777 123.631 94.0328 123.546C90.5018 123.507 87.2241 122.127 84.7608 119.587C84.0418 118.846 83.4405 118.024 82.8837 117.157C80.9168 120.239 78.2313 122.511 74.604 123.31C72.3863 123.798 70.0162 123.638 67.757 123.637L57.0914 123.634C55.1987 123.635 53.2282 123.527 51.3455 123.702C49.4363 121.821 48.22 119.445 47.3398 116.944Z" fill="#DBAB33"/>
<path d="M66.1824 104.921C68.3336 104.784 70.5551 104.891 72.7138 104.893L84.9812 104.907C86.4518 104.908 96.0443 104.736 96.7497 104.954C97.2472 105.109 97.6727 105.434 97.9071 105.904C98.117 106.325 98.1564 106.849 97.9743 107.287C97.7293 107.876 97.293 108.151 96.7224 108.377C94.7388 108.413 92.7373 108.335 90.751 108.326L77.6818 108.294C75.9593 108.292 67.1711 108.517 66.0367 108.176C65.6328 108.055 65.2184 107.805 65.0313 107.411C64.8365 107.001 64.7857 106.416 64.9504 105.987C65.1705 105.416 65.6474 105.149 66.1824 104.921Z" fill="#0C4745"/>
<path d="M66.4254 69.4071C71.3614 69.3276 76.3089 69.4092 81.2457 69.4126L103.973 69.3836L119.447 69.4081C122.191 69.4081 124.974 69.298 127.712 69.4088C128.183 69.428 128.654 69.4719 129.056 69.7385C129.426 69.9838 129.644 70.3764 129.728 70.8062C129.739 70.8599 129.747 70.914 129.753 70.9684C129.758 71.0228 129.761 71.0773 129.761 71.1321C129.761 71.1868 129.758 71.2414 129.752 71.2958C129.747 71.3502 129.739 71.4043 129.728 71.458C129.717 71.5116 129.704 71.5646 129.688 71.6169C129.672 71.6692 129.653 71.7205 129.632 71.7709C129.61 71.8213 129.587 71.8706 129.561 71.9187C129.535 71.9668 129.506 72.0134 129.475 72.0587C129.183 72.4922 128.83 72.7089 128.327 72.819L85.5529 72.775L72.4062 72.7741C71.0783 72.7745 69.7489 72.7618 68.4211 72.7771C67.8432 72.7837 67.2412 72.8555 66.6665 72.8156C66.3236 72.7917 65.9563 72.6784 65.6621 72.5011C65.6088 72.4691 65.5575 72.4342 65.5078 72.3969C65.4584 72.3596 65.4108 72.3196 65.3654 72.2773C65.3201 72.2349 65.2769 72.1902 65.2362 72.1434C65.1954 72.0966 65.1572 72.0477 65.1216 71.997C65.0859 71.946 65.053 71.8935 65.0228 71.8391C64.9927 71.7848 64.9654 71.7291 64.941 71.672C64.9168 71.6148 64.8955 71.5565 64.8772 71.4972C64.859 71.4379 64.8438 71.3776 64.8319 71.3168C64.7515 70.9021 64.8239 70.47 65.0835 70.1301C65.4285 69.678 65.8809 69.4954 66.4254 69.4071Z" fill="#0C4745"/>
<path d="M66.1153 93.156C68.7449 93.0118 71.4393 93.1346 74.0763 93.1368L89.3735 93.1476L115.791 93.1571C120.055 93.1573 124.324 93.0972 128.587 93.1501C128.999 93.4062 129.356 93.7048 129.572 94.1502C129.778 94.5765 129.835 95.073 129.647 95.516C129.412 96.0686 128.987 96.3094 128.461 96.5411C126.34 96.7228 124.099 96.5858 121.969 96.5841L109.51 96.5735L78.0482 96.5762C76.0127 96.5745 66.8754 96.7739 65.8591 96.4091C65.4588 96.2655 65.1282 96.0015 64.9537 95.6073C64.7406 95.1261 64.802 94.5767 65.0026 94.1025C65.2288 93.568 65.6005 93.3691 66.1153 93.156Z" fill="#0C4745"/>
<path d="M66.5602 81.0466C70.0494 80.9358 73.5696 81.0381 77.0633 81.0396L98.1163 81.0542L117.41 81.0492C119.521 81.0481 127.403 80.7768 128.923 81.2898C129.315 81.4217 129.502 81.7089 129.671 82.0708C129.862 82.4806 129.88 82.933 129.711 83.3541C129.454 83.9994 128.977 84.2929 128.357 84.5352L85.458 84.5214L72.2057 84.5198C70.4302 84.5202 68.6215 84.6161 66.8521 84.5649C66.4259 84.5526 65.9987 84.4473 65.6359 84.2178C65.5845 84.1855 65.5349 84.1506 65.4871 84.1131C65.4392 84.0756 65.3936 84.0358 65.35 83.9935C65.3062 83.9513 65.2649 83.907 65.2259 83.8604C65.187 83.8139 65.1505 83.7654 65.1166 83.715C65.0827 83.6648 65.0512 83.6127 65.0226 83.5591C64.994 83.5055 64.9684 83.4506 64.9455 83.3943C64.9226 83.338 64.9029 83.2808 64.886 83.2225C64.8691 83.1641 64.8553 83.105 64.8445 83.0453C64.7687 82.6145 64.8436 82.1746 65.1008 81.8158C65.4708 81.2999 65.9562 81.1366 66.5602 81.0466Z" fill="#0C4745"/>
</g>
<defs>
<clipPath id="clip0_96_33638">
<rect width="194" height="194" fill="white" transform="translate(0 0.5)"/>
</clipPath>
</defs>
</svg>
