<svg width="250" height="250" viewBox="0 0 250 250" fill="none" xmlns="http://www.w3.org/2000/svg">
<g clip-path="url(#clip0_71_24453)">
<path d="M155.273 184.18H226.562C228.171 184.18 229.475 185.483 229.475 187.092C229.475 188.7 228.171 190.004 226.562 190.004H155.273C153.665 190.004 152.361 188.7 152.361 187.092C152.361 185.483 153.665 184.18 155.273 184.18Z" fill="white" stroke="#0C4745" stroke-width="1.5"/>
<path d="M155.273 154.883H226.562C228.171 154.883 229.475 156.187 229.475 157.795C229.475 159.403 228.171 160.707 226.562 160.707H155.273C153.665 160.707 152.361 159.403 152.361 157.795C152.361 156.187 153.665 154.883 155.273 154.883Z" fill="white" stroke="#0C4745" stroke-width="1.5"/>
<path d="M155.273 125.586H226.562C228.171 125.586 229.475 126.89 229.475 128.498C229.475 130.106 228.171 131.41 226.562 131.41H155.273C153.665 131.41 152.361 130.106 152.361 128.498C152.361 126.89 153.665 125.586 155.273 125.586Z" fill="white" stroke="#0C4745" stroke-width="1.5"/>
<path d="M104.736 25.1641H127.197C128.806 25.1641 130.109 26.4679 130.109 28.0762C130.109 29.6845 128.806 30.9883 127.197 30.9883H104.736C103.128 30.9883 101.824 29.6844 101.824 28.0762C101.824 26.4679 103.128 25.1641 104.736 25.1641Z" fill="white" stroke="#0C4745" stroke-width="1.5"/>
<path d="M143.799 25.1641H156.006C157.615 25.1641 158.918 26.4679 158.918 28.0762C158.918 29.6845 157.615 30.9883 156.006 30.9883H143.799C142.19 30.9883 140.887 29.6845 140.887 28.0762C140.887 26.4679 142.19 25.1641 143.799 25.1641Z" fill="white" stroke="#0C4745" stroke-width="1.5"/>
<path d="M104.736 49.5781H161.377C162.986 49.5781 164.289 50.8819 164.289 52.4902C164.289 54.0985 162.986 55.4023 161.377 55.4023H104.736C103.128 55.4023 101.824 54.0985 101.824 52.4902C101.824 50.882 103.128 49.5781 104.736 49.5781Z" fill="white" stroke="#0C4745" stroke-width="1.5"/>
<path d="M94.9707 0.75H202.364C203.132 0.743006 203.888 1.03974 204.452 1.60352L248.397 45.5488C248.954 46.1054 249.25 46.8491 249.25 47.6074V81.6357C249.25 83.243 247.945 84.5479 246.338 84.5479C244.731 84.5478 243.426 83.243 243.426 81.6357V50.5195H212.158C205.169 50.5194 199.48 44.8318 199.48 37.8418V6.57422H94.9707C88.497 6.57422 83.2345 11.8368 83.2344 18.3105V94.499L83.666 94.7012C98.9607 101.873 113.101 106.177 126.622 107.784V107.785C130.534 108.253 133.483 111.579 133.483 115.521V165.733L133.484 165.747C134.102 183.654 128.258 200.166 116.074 214.863L115.489 215.562C114.865 216.3 114.226 217.033 113.571 217.761L112.447 219.012H231.689C238.161 219.012 243.426 213.748 243.426 207.275V98.7256C243.426 97.1174 244.729 95.8136 246.338 95.8135C247.947 95.8135 249.25 97.1173 249.25 98.7256V207.274C249.25 216.957 241.372 224.835 231.689 224.835H106.567L106.353 225.032C97.516 233.13 86.5387 240.632 73.1045 247.761H73.1035C71.2368 248.753 69.1879 249.249 67.1396 249.249L66.7559 249.243C64.836 249.185 62.926 248.691 61.1738 247.76H61.1729C42.6517 237.927 28.8008 227.392 18.793 215.563C6.20964 200.691 0.16762 183.937 0.793945 165.747L0.794922 165.733V153.074C0.795004 151.466 2.09883 150.162 3.70703 150.162C5.31508 150.162 6.61906 151.466 6.61914 153.074V165.784L6.61719 165.888C6.02621 182.628 11.6322 198.083 23.2393 211.802C32.7927 223.094 46.109 233.169 63.9053 242.616C65.9306 243.693 68.347 243.693 70.3711 242.617L70.3721 242.618C87.3761 233.594 100.76 223.587 110.147 212.842L111.043 211.8C122.467 198.296 128.076 183.11 127.685 166.672L127.662 165.888C127.661 165.851 127.66 165.817 127.66 165.785V115.521C127.66 114.53 126.922 113.688 125.935 113.569H125.934C108.682 111.52 90.5203 105.31 70.4043 94.5537H70.4033C68.3592 93.4595 65.9178 93.4597 63.875 94.5527C43.7578 105.31 25.5971 111.519 8.34277 113.569H8.3418C7.35483 113.687 6.61914 114.531 6.61914 115.521V135.985C6.61896 137.593 5.31502 138.897 3.70703 138.897C2.0989 138.897 0.795103 137.593 0.794922 135.985V115.521C0.794922 111.579 3.74448 108.253 7.65332 107.786L7.65234 107.785C23.7033 105.878 40.6235 100.17 59.3135 90.3779L61.1279 89.418C64.8926 87.403 69.3876 87.403 73.1533 89.4189C74.2132 89.9861 75.2677 90.5403 76.3164 91.0811L77.4102 91.6445V18.3105C77.4102 8.62723 85.2874 0.750087 94.9707 0.75ZM205.305 37.8418C205.305 41.6217 208.378 44.6952 212.158 44.6953H239.308L238.027 43.415L206.585 11.9736L205.305 10.6934V37.8418Z" fill="#DBAB33" stroke="#0C4745" stroke-width="1.5"/>
<path d="M89.627 141.436C94.3277 136.735 101.978 136.735 106.678 141.436C111.379 146.136 111.378 153.787 106.678 158.487L68.3262 196.838C65.3797 199.784 61.5091 201.259 57.6357 201.259C53.7621 201.259 49.8923 199.785 46.9453 196.838L27.6016 177.494C25.3233 175.216 24.0703 172.19 24.0703 168.969C24.0703 165.949 25.1715 163.1 27.1865 160.879L27.6016 160.443L27.6084 160.436L27.6094 160.437C29.8877 158.158 32.9128 156.904 36.1348 156.904C39.3567 156.904 42.3818 158.158 44.6602 160.437L57.6426 173.419L58.1738 172.889L89.627 141.436ZM102.56 145.554C100.205 143.199 96.4218 143.126 93.9775 145.333L93.7451 145.554L61.4287 177.87C60.4167 178.882 59.0748 179.437 57.6436 179.438C56.2121 179.438 54.8696 178.882 53.8574 177.87L40.542 164.555C39.3657 163.378 37.798 162.729 36.1348 162.729C34.4711 162.729 32.9038 163.378 31.7275 164.554L31.7207 164.562H31.7197C29.3653 166.916 29.2923 170.7 31.5 173.144L31.7207 173.376L51.0635 192.72C54.6879 196.343 60.5841 196.344 64.209 192.72L102.56 154.368C104.99 151.938 104.99 147.984 102.56 145.554Z" fill="white" stroke="#0C4745" stroke-width="1.5"/>
<path d="M188.006 107.102L187.481 106.937C185.768 106.396 184.197 105.446 182.881 104.13H182.88C181.475 102.724 180.459 100.967 179.943 99.0479V99.0469C179.526 97.4942 180.447 95.8969 182 95.4795C183.552 95.0622 185.15 95.9828 185.567 97.5361C185.819 98.4716 186.313 99.3279 186.998 100.013C188.072 101.086 189.504 101.673 191.037 101.634L191.036 101.633C194.057 101.571 196.459 98.9789 196.459 95.9062C196.459 94.9895 196.179 94.105 195.653 93.3525L195.652 93.3516L195.446 93.0801C194.942 92.4676 194.282 92.001 193.526 91.7236L193.524 91.7227L186.312 89.0977C182.272 87.6308 179.553 83.7519 179.553 79.4492V79.3877C179.553 74.272 182.907 69.8703 187.488 68.377L188.006 68.208V65.6738C188.006 64.0656 189.31 62.7617 190.918 62.7617C192.526 62.762 193.829 64.0659 193.829 65.6738V68.2002L194.352 68.3662C196.074 68.914 197.661 69.8686 198.95 71.1582H198.951C200.275 72.4815 201.25 74.1109 201.788 75.8887L201.89 76.2461C202.304 77.7998 201.38 79.3953 199.826 79.8096C198.274 80.2238 196.677 79.3009 196.263 77.7471V77.7461L196.157 77.4014C195.887 76.6054 195.433 75.8767 194.833 75.2764C193.76 74.2029 192.333 73.6328 190.805 73.6592H190.803C187.781 73.7197 185.377 76.314 185.377 79.3877V79.4492C185.377 81.3118 186.551 82.9872 188.301 83.623V83.624L195.524 86.2529V86.252C197.522 86.9847 199.211 88.2829 200.423 90.0098C201.642 91.7532 202.283 93.7891 202.283 95.9062C202.283 101.022 198.929 105.424 194.348 106.917L193.83 107.086V109.618C193.83 111.226 192.526 112.53 190.918 112.53C189.31 112.53 188.006 111.226 188.006 109.618V107.102Z" fill="white" stroke="#0C4745" stroke-width="1.5"/>
</g>
<defs>
<clipPath id="clip0_71_24453">
<rect width="250" height="250" fill="white"/>
</clipPath>
</defs>
</svg>
