<svg width="511" height="314" viewBox="0 0 511 314" fill="none" xmlns="http://www.w3.org/2000/svg">
<path d="M384.896 18.8304C384.069 19.5363 383.016 19.1047 382.615 17.8953C382.098 16.336 379.996 12.819 378.598 11.1729C376.12 8.25728 372.68 6.06852 368.979 5.09204C361.187 3.03674 352.282 8.10197 348.239 14.712C346.992 16.7506 346.765 17.3831 346.504 18.2496C346.291 18.9537 346.613 19.7075 347.267 20.045C347.652 20.2441 348.214 20.5477 349.051 21.017C356.921 25.4283 377.158 31.9519 382.537 32.4236C383.899 32.5432 384.461 32.7096 384.814 33.098C385.345 33.6809 385.291 34.6456 384.701 35.115C384.388 35.3635 384.282 35.3748 382.883 35.3089C374.156 34.8966 353.266 27.0327 348.075 24.0703C347.353 23.6588 346.748 23.3477 346.721 23.3752C346.608 23.4952 347.96 25.914 348.98 27.415C350.9 30.2411 352.724 32.2961 355.892 35.2053C357.987 37.1298 361.459 40.1354 361.59 40.1382C361.706 40.1407 364.817 35.1776 364.835 35.1499C365.784 33.6691 366.193 33.2945 366.865 33.2887C367.261 33.2853 367.445 33.3678 367.784 33.7016C368.31 34.2187 368.366 34.8352 367.949 35.5071C367.177 36.7495 359.771 49.5981 359.214 50.2339C358.521 51.0245 357.111 50.9718 356.648 49.7855C356.297 48.8866 356.35 49.0342 360.054 42.8386L359.743 42.6396C358.54 41.8698 353.473 37.3385 350.948 34.7736C347.053 30.8192 344.546 26.7471 343.253 22.2784C342.697 20.3552 342.739 19.4983 343.496 17.2766C343.809 16.3581 344.181 15.4043 344.318 15.1657C348.729 7.52484 357.912 -0.0340711 367.374 1.61029C374.222 2.80023 378.938 5.99466 382.015 10.5739C382.975 12.0012 385.073 16.1287 385.273 16.9811C385.479 17.8584 385.361 18.433 384.896 18.8304Z" fill="#DBAB33"/>
<path d="M387.219 31.8757C386.679 32.5453 385.769 32.6901 384.998 32.2296C384.127 31.7094 381.176 29.0724 380.539 28.2451C379.185 26.487 378.605 24.846 378.882 23.5567C379.267 21.7646 382.294 19.9472 385.058 20.386C385.876 20.5159 386.726 20.9105 386.967 21.2723C387.078 21.4401 387.291 22.1051 387.435 22.7349C387.651 23.6821 387.715 24.5022 387.79 27.2985C387.878 30.5895 387.872 30.724 387.625 31.1982C387.483 31.4713 387.303 31.7718 387.219 31.8757ZM384.647 23.2474C384.498 23.0135 383.535 23.1907 382.722 23.6015C382.352 23.7885 381.998 24.0373 381.926 24.1617C381.653 24.6317 383.082 26.69 384.39 27.7103L384.901 28.1088C384.877 27.5228 384.783 23.4601 384.647 23.2474Z" fill="#DBAB33"/>
<path d="M343.342 29.2123C342.9 29.4267 342.849 29.4244 341.695 29.1346C338.14 28.2419 323.621 26.7063 313.758 26.9695C306.211 27.1707 299.184 28.1283 291.744 29.9693C277.926 33.388 271.073 38.2037 271.048 38.2156C277.433 42.9114 280.603 44.8212 283.237 46.7457C287.989 50.2179 292.844 55.132 296.274 59.9414C296.704 60.5442 296.784 60.7499 296.788 61.2674C296.793 61.7994 296.739 61.9356 296.376 62.3043C296.035 62.652 295.867 62.7294 295.446 62.733C295.161 62.7354 294.769 62.6562 294.566 62.555C294.353 62.4491 293.577 61.561 292.72 60.4421C285.668 51.2377 279.739 48.2918 270.211 41.5396C270.211 41.5396 268.509 42.4333 268.076 42.6367C265.01 44.0769 256.071 49.5631 252.633 55.8348C252.06 56.8801 251.534 58.2574 251.145 59.7335C250.861 60.8078 250.825 61.1718 250.834 62.8669C250.843 64.55 250.889 64.9666 251.21 66.2669C251.541 67.6131 251.859 69.0705 252.49 70.3178C253.527 72.3659 255.162 74.3076 256.83 75.8763C266.05 84.5464 286.865 89.224 296.99 92.0491C318.756 98.1211 318.608 96.9965 318.951 98.8039C319.099 99.5868 318.286 100.53 317.457 100.537C317.193 100.539 317.173 100.589 317.178 101.22C317.202 104.066 313.986 104.048 314.278 101.492C314.335 100.997 314.297 100.71 314.126 100.324C313.694 99.3507 314.477 100.15 296.615 95.1958C295.566 94.9051 292.664 94.1252 290.158 93.461C282.589 91.4546 275.023 89.2049 267.811 86.1271C264.131 84.5568 260.444 82.7666 257.266 80.3074C254.607 78.2511 251.429 75.4372 249.979 72.3637C248.615 69.472 247.648 66.1086 247.638 62.8945C247.62 57.2053 250.633 51.6009 256.321 46.742C261.997 41.8937 267.96 39.5369 267.985 39.5169C268.001 39.5033 267.92 39.2701 267.809 39.0111C267.55 38.407 267.631 37.5153 268.001 36.9056C270.026 33.5727 292.554 23.0858 319.672 23.8013C327.036 23.9955 340.675 25.3633 343.134 26.6171C344.34 27.2311 344.455 28.6719 343.342 29.2123Z" fill="#DBAB33"/>
<path d="M374.223 36.9377C373.851 36.9409 373.231 36.5694 373.021 36.218C372.271 34.9627 373.549 33.6643 374.868 34.2936C375.585 34.6355 375.84 35.4512 375.461 36.1971C375.275 36.5636 374.656 36.934 374.223 36.9377Z" fill="#DBAB33"/>
<path d="M378.07 35.4133C378.433 35.5551 378.847 36.1052 378.935 36.5624C379.179 37.8178 377.125 41.9611 374.864 44.7774C373.874 46.011 371.723 48.0668 370.894 48.5727C368.419 50.082 365.706 50.387 363.439 49.4107C362.383 48.9561 362.073 47.7254 362.816 46.9349C363.306 46.414 363.809 46.3534 365.036 46.6681C365.967 46.9064 366.146 46.9173 366.894 46.7809C367.783 46.6188 369.054 46.1753 369.053 46.0277C369.051 45.7658 367.239 44.7153 368.462 43.471C368.793 43.1338 368.978 43.0459 369.362 43.0426C370.296 43.0346 371.181 44.0009 371.289 44.0779L372.239 43.049C374.672 40.4143 376.153 37.0138 376.15 36.6485C376.143 35.7448 377.192 35.0698 378.07 35.4133Z" fill="#DBAB33"/>
<path d="M368.626 101.737C366.467 101.973 365.707 101.833 361.351 100.402C359.34 99.7409 357.627 99.2031 357.535 99.2039C357.207 99.2067 356.211 100.355 354.887 99.9154C352.896 99.2555 348.675 100.365 335.706 97.1525C330.026 95.7457 327.716 95.028 324.502 93.6723C320.685 92.0622 321.882 92.1897 320.81 91.0409C320.366 90.5654 320.269 90.241 319.832 87.7698C319.5 85.8941 319.469 85.4587 319.436 82.328C319.4 78.8762 319.255 78.267 321.243 69.1081C321.456 68.1286 321.603 67.3075 321.572 67.2738C321.541 67.2403 320.849 67.3814 320.046 67.5848C311.969 69.6322 302.929 69.3972 301.929 68.1594C301.611 67.766 301.575 66.9373 301.858 66.5265C302.766 65.2085 303.962 66.7551 313.026 65.6836C315.835 65.3515 316.499 65.2282 319.784 64.4287L322.254 63.8276L322.593 62.0798C323.509 57.3649 324.043 55.7065 326.267 50.6632C327.588 47.6694 327.926 47.2334 328.931 47.2248C329.376 47.221 329.56 47.2911 329.85 47.5759C330.349 48.0668 330.352 48.6978 329.861 49.6921C329.281 50.8664 327.754 54.8085 327.095 56.8314C326.494 58.6787 325.927 61.247 324.878 66.8744C323.425 74.6721 321.278 80.741 323.338 89.4599C323.413 89.7733 324.821 90.4822 327.193 91.3993C330.166 92.5492 337.267 94.4427 342.077 95.3683C345.027 95.9359 354.403 97.0291 354.601 96.8282C354.646 96.7822 354.763 91.1151 354.464 90.9386C353.444 90.3386 348.861 89.453 341.785 84.4421C338.162 81.8763 334.942 79.646 334.577 79.4497C334.02 79.1496 333.743 78.4683 333.925 77.848C334.177 76.9886 335.098 76.6661 336.08 77.0934C336.601 77.3206 336.651 77.3234 336.649 77.1255C336.645 76.6281 343.947 63.9968 346.18 56.0493C347.331 51.9556 346.9 48.1353 345.031 45.8619C344.667 45.4195 344.365 44.9131 344.326 44.68C344.183 43.8301 345.058 43.0288 345.95 43.1921C346.519 43.2961 346.859 43.5693 347.579 44.5038C348.896 46.2102 349.732 48.6311 349.88 51.1668L349.966 52.6388L350.375 51.608C351.456 48.881 351.899 47.2142 352.282 44.4264C352.496 42.8652 352.665 42.49 353.268 42.232C353.724 42.0369 353.878 42.0279 354.233 42.1756C354.37 42.233 354.62 42.4264 354.793 42.6104C355.081 42.9163 355.105 43.0285 355.103 44.0681C355.099 46.3 354.49 49.308 353.464 52.1631C351.877 56.5823 349.84 61.1673 349.154 61.865C348.735 62.2916 348.181 62.4578 347.734 62.2919C347.449 62.186 347.165 62.3276 347.168 62.5749C347.168 62.6813 345.232 66.9474 343.774 70.0537C342.793 72.1411 339.574 78.1383 339.222 78.5326C339.066 78.707 339.01 78.8578 339.078 78.9175C339.35 79.1553 345.799 83.3838 347.005 84.1154C352.252 87.2976 355.223 87.3518 356.847 88.8196L357.383 89.3047C357.947 89.1389 362.832 86.3309 369.409 87.4446C371.243 87.7551 371.7 88.0064 372.468 89.1263C373.439 90.5419 374.548 94.8259 374.606 97.3872C374.675 100.453 371.68 101.402 368.626 101.737ZM370.493 92.3485C369.947 90.7442 369.935 90.7306 368.976 90.5652C362.359 89.4241 357.833 92.3014 357.804 92.3084C357.804 92.3334 357.915 96.1807 357.909 95.983L364.971 98.3256C365.465 98.4894 365.985 98.569 366.505 98.5633C368.062 98.5465 369.29 98.5784 370.181 98.3056C371.242 97.9805 371.476 97.7989 371.472 97.3023C371.465 96.5404 370.837 93.3603 370.493 92.3485Z" fill="#DBAB33"/>
<path d="M436.084 48.229C434.8 47.3772 431.145 46.6422 425.423 46.0851C421.831 45.7353 413.912 45.9858 415.736 46.3917C419.071 47.1334 428.683 49.4279 429.414 49.6565C430.63 50.0368 431.166 50.3456 431.409 50.8051C432 51.9231 431.101 53.0448 429.763 52.8588C429.449 52.8151 427.494 52.3798 425.411 51.8896C412.18 48.777 411.749 48.6464 410.611 47.4067C409.754 46.4733 409.754 45.4057 410.609 44.5356C411.285 43.8484 412.691 43.3908 415.249 43.0254C416.243 42.8834 422.696 42.7005 423.724 42.785C430.35 43.3296 435.594 44.464 437.524 45.7695C438.532 46.4517 438.813 47.5961 438.139 48.2774C437.585 48.8373 436.98 48.8233 436.084 48.229Z" fill="#DBAB33"/>
<path d="M397.985 173.988C396.569 179.813 394.723 185.066 392.012 190.98C389.431 196.608 387.501 200.145 384.511 204.719C380.291 211.178 378.591 213.28 375.077 216.391C367.476 223.118 367.729 219.373 360.306 224.227C359.595 224.691 358.127 225.522 357.042 226.072C355.404 226.904 354.79 227.145 353.404 227.496C349.514 228.483 348.736 228.526 347.998 227.802C347.461 227.273 347.412 226.483 347.882 225.909C348.262 225.447 348.534 225.341 350.227 225.001C358.868 223.263 358.269 220.212 365.935 218.23C367.972 217.703 369.139 217.128 370.877 215.798C376.151 211.759 378.315 208.488 381.94 202.922C384.472 199.035 385.543 197.149 387.557 193.036C392.92 182.084 395.001 175.214 397.321 160.801C399.484 147.362 400.793 143.387 407.617 130.852C410.567 125.434 417.866 113.153 421.67 108.345C422.558 107.224 423.219 106.314 423.147 106.315C423.122 106.315 393.779 103.089 384.992 100.948C380.406 99.8305 377.436 100.089 377.418 98.0249C377.413 97.4804 377.466 97.3453 377.83 96.9755C378.65 96.141 379.204 96.6867 382.572 97.2567C388.781 98.307 382.411 98.2206 420.395 102.83C425.499 103.449 425.784 103.472 425.908 103.259C426.172 102.805 429.508 99.7805 430.455 99.1358C431.772 98.24 433.222 97.5479 433.845 97.5183C434.117 97.5053 434.34 97.4808 434.339 97.4637C434.337 97.2379 429.362 92.6677 427.588 81.65C427.085 78.529 427.148 73.2384 427.774 66.1176C428.176 61.5476 428.257 61.2373 429.15 60.8295C429.976 60.4526 430.734 60.7148 431.118 61.5103C431.314 61.9169 431.306 62.1521 430.988 65.6322C430.164 74.6574 429.522 82.2507 433.553 90.5092C435.599 94.6999 437.948 97.3281 443.208 99.8394C446.18 101.258 447.864 101.587 451.513 101.462C454.226 101.369 455.038 101.195 457.937 100.084C459.787 99.3744 461.482 98.4641 462.852 97.4451C463.307 97.1063 463.891 96.782 464.133 96.7333C464.748 96.61 465.387 96.9565 465.703 97.5849C465.901 97.9791 465.916 98.1276 465.8 98.5247C465.633 99.0922 465.345 99.2138 463.029 100.813C462.067 101.477 460.332 102.384 460.357 102.37C468.963 105.055 463.915 103.51 470.942 105.782L475.174 105.746C484.412 105.667 484.158 105.021 485.199 105.918C486.259 106.831 485.64 108.302 484.205 108.283C483.611 108.275 479.703 108.655 479.63 108.728C479.609 108.748 480.027 108.915 480.561 109.098C482.572 109.791 485.708 111.389 486.913 112.334C487.271 112.615 487.98 113.408 488.501 114.109C489.706 115.732 490.105 115.96 491.534 115.842C492.572 115.756 496.24 114.884 496.239 114.723C496.237 114.485 492.749 111.747 490.695 110.372C489.218 109.383 487.602 108.356 488.798 107.028C489.158 106.627 489.264 106.579 489.772 106.583C492.345 106.602 499.209 113.715 499.584 113.698C499.68 113.694 500.447 113.339 501.297 112.907C503.117 111.981 503.19 111.892 503.854 109.782C504.822 106.707 504.733 105.176 504.849 104.205L504.517 104.471C503.716 105.112 502.697 104.892 502.139 103.956C501.965 103.664 501.283 101.859 500.62 99.9344C499.218 95.8625 499.174 95.528 499.955 94.7994C500.72 94.0846 501.596 94.253 502.806 95.3473C503.379 95.8663 503.882 96.7206 503.886 97.1839C503.889 97.617 503.616 98.269 503.401 98.343C503.32 98.3705 503.587 99.2283 504.056 100.449C504.492 101.584 504.891 102.481 504.945 102.446C505 102.412 505.035 101.32 505.023 100.008C504.979 94.8264 504.01 93.9799 499.353 91.0451C494.837 88.1993 490.879 84.6642 490.597 84.4392C490.573 84.4654 488.113 87.3861 485.58 89.6098C482.392 92.4077 481.562 93.7313 480.839 93.8722C479.727 94.0888 478.821 93.1529 479.027 92.0004C479.133 91.4088 480.656 89.8166 483.812 86.9974C485.937 85.0997 488.231 82.7659 488.229 82.5042C488.228 82.4499 487.218 81.56 485.984 80.527C480.615 76.0323 469.237 65.6988 468.763 65.263C461.201 58.307 455.292 54.3106 455.267 54.3108C455.13 54.312 452.194 57.3937 450.406 59.4139C447.812 62.3444 446.233 63.7445 445.154 64.0725C444.759 64.1925 444.616 64.1831 444.25 64.0123C443.765 63.7862 443.327 63.1735 443.323 62.7171C443.319 62.2158 443.869 61.4235 444.655 60.7984C445.692 59.9741 448.174 57.1237 450.955 54.3234L452.777 52.4887C451.981 51.9801 448.907 49.9601 447.165 48.9361C445.275 47.8243 441.958 46.174 441.448 46.0911C440.891 46.0006 440.345 45.4543 440.257 44.8981C440.129 44.0948 440.942 43.2888 441.882 43.286C442.073 43.2853 442.676 43.4677 443.222 43.691C449.787 46.3732 454.29 49.9026 455.01 50.211C455.065 50.2346 455.324 50.0543 455.594 49.8039C455.989 49.4379 456.178 49.3534 456.611 49.3497C457.242 49.3443 457.654 49.6062 457.897 50.168C458.101 50.6398 458.032 51.0948 457.679 51.6054L457.438 51.954C471.948 62.97 475.961 68.1157 488.742 78.7466L490.661 80.3433C491.008 80.1734 491.801 79.348 492.785 79.8052C493.573 80.1713 493.84 81.2196 493.352 82.0282L493.105 82.4387L493.616 82.893C495.2 84.3003 499.251 87.3456 500.591 88.1357C505.877 91.2525 507.561 93.3368 508.093 97.4208C508.28 98.8627 508.277 100.402 508.081 103.299C507.829 107.026 507.602 108.356 506.77 110.983C505.909 113.7 505.398 114.317 502.966 115.573C500.793 116.695 499.391 117.207 496.021 118.108C492.642 119.011 493.261 118.875 489.531 118.927C488.938 118.546 487.657 118.313 486.008 116.012C485.183 114.86 484.678 114.476 482.615 113.43C480.796 112.509 479.844 112.129 476.965 111.175C474.159 110.245 470.734 109.03 470.759 109.038C460.426 108.911 453.857 109.349 436.779 107.804C432.865 107.45 427.925 106.939 427.353 106.829C427.057 106.772 426.924 106.876 426.2 107.737C421.537 113.283 420.343 115.719 415.443 123.582C398.912 150.118 402.593 155.031 397.985 173.988ZM449.693 105.587C452.738 105.725 460.776 105.901 460.845 105.832C460.962 105.713 456.996 104.812 456.426 104.335C456.095 104.057 456.077 104.056 455.238 104.242C453.877 104.545 451.294 104.75 449.747 104.679C446.218 104.518 443.628 103.741 440.193 101.813C439.544 101.449 438.596 100.844 437.75 100.272C437.381 100.022 436.943 99.8948 436.497 99.9065C435.635 99.9295 434.876 100.108 434.184 100.394C432.405 101.128 431.06 102.568 429.506 103.884C429.531 103.887 439.248 105.113 449.693 105.587Z" fill="#DBAB33"/>
<path d="M410.865 51.336C411.994 51.6035 412.552 52.7978 411.927 53.6067C411.652 53.9625 410.94 54.2509 410.568 54.1568C408.806 53.7115 394.416 61.6811 393.459 62.1799C393.456 62.5563 395.683 64.0623 390.523 67.5493C387.705 69.4533 383.688 71.3841 382.524 71.394C381.113 71.4061 380.552 69.7407 381.673 68.8696C382.387 68.3155 386.996 66.294 388.879 64.9034L389.42 64.5039L389.059 64.2723C387.997 63.591 388.002 62.2725 389.071 61.2914C390.946 59.5697 407.868 50.6259 410.865 51.336Z" fill="#DBAB33"/>
<path d="M415.796 53.5436C417.066 52.9913 417.836 52.8408 418.453 53.0243C418.986 53.183 419.611 53.9129 419.615 54.3822C419.622 55.2114 418.792 55.9868 418.08 55.8155C417.476 55.6698 414.505 57.3647 410.322 60.2418C393.222 72.0024 381.533 88.4468 378.565 90.3826C378.477 90.4396 378.17 90.4889 377.885 90.4913C377.229 90.4969 376.527 89.9441 376.408 89.3281C376.143 87.9621 376.852 88.088 380.446 83.96C389.201 73.9018 403.509 58.8871 415.796 53.5436Z" fill="#DBAB33"/>
<path d="M318.188 78.02C318.36 78.625 318.258 79.0637 317.846 79.483C317.098 80.243 316.514 80.1262 314.325 78.7798C305.508 73.3572 296.904 69.7981 287.175 65.9606C281.873 63.8691 280.389 63.3545 279.356 63.2472C278.538 63.1624 278.385 63.1052 278.082 62.7702C277.436 62.0563 277.728 60.9804 278.677 60.5749C279.13 60.3815 279.888 60.3621 280.632 60.5247C282.376 60.9064 288.773 63.1637 292.784 64.8128C303.477 69.2085 308.179 71.4887 315.401 75.7792C317.652 77.1166 318.014 77.4075 318.188 78.02Z" fill="#DBAB33"/>
<path d="M464.252 65.8659C463.923 65.7742 463.916 65.7849 463.843 66.4784C463.745 67.4075 463.421 67.928 462.823 68.1144C462.441 68.2338 462.272 68.2273 461.907 68.0794C460.851 67.6508 460.994 66.1495 460.884 65.6127C460.859 65.6166 457.676 65.84 455.843 66.6309C454.98 67.0034 454.522 66.953 453.989 66.4265C453.253 65.6983 453.584 64.3715 454.655 63.7573C455.905 63.0409 460.139 62.4994 463 62.6902C465.166 62.8347 465.913 63.2823 465.923 64.4434C465.931 65.3715 465.079 66.0967 464.252 65.8659Z" fill="#DBAB33"/>
<path d="M441.577 63.9504C442.475 64.3617 442.105 64.739 464.045 83.6126C474.349 92.4764 477.576 95.5719 482.736 100.002C482.769 99.941 482.97 98.0168 484.565 98.2986C485.594 98.4803 488.114 100.389 488.772 101.485C489.23 102.249 489.31 103.113 488.987 103.798C488.383 105.076 486.806 104.992 486.391 103.659C486.117 102.782 485.958 102.55 485.203 101.93C484.717 101.531 484.366 101.337 484.133 101.339C483.948 101.341 483.634 101.226 483.457 101.091C483.145 100.855 483.123 100.853 483.057 101.064C482.842 101.759 482.623 102.076 482.223 102.268C481.122 102.799 480.579 102.452 476.089 98.3508C466.622 89.7034 449.096 75.2108 442.227 68.3835C439.511 65.6842 439.388 65.5404 439.384 65.0788C439.375 64.0204 440.484 63.4498 441.577 63.9504Z" fill="#DBAB33"/>
<path d="M373.639 81.5689C373.185 81.2756 372.901 80.67 372.978 80.1618C373.11 79.2974 373.956 78.9474 374.516 78.5028C374.276 78.098 373.227 77.2653 373.706 76.0965C374.147 75.0191 374.94 74.5805 379.012 73.1612C381.764 72.2022 382.31 72.0648 382.766 72.2177C382.868 72.2518 383.108 72.4252 383.295 72.5989C383.573 72.8568 383.639 73.0291 383.643 73.4994C383.652 74.4849 383.48 74.5915 379.396 76.13C378.447 76.4879 377.622 76.8256 377.565 76.8804C377.507 76.9362 377.559 77.1652 377.683 77.3993C377.999 77.9932 377.987 79.0426 377.658 79.6889C376.942 81.0934 374.599 82.1895 373.639 81.5689Z" fill="#DBAB33"/>
<path d="M263.84 103.038C264.377 103.64 264.393 104.323 263.884 104.838C263.348 105.378 263.01 105.412 261.782 105.052C259.855 104.487 251.137 102.927 238.588 100.413C228.361 98.3644 224.781 97.7565 219.862 97.2327C213.408 96.5454 203.811 96.2482 199.078 96.5891C154.756 99.7812 137.135 120.733 134.589 122.43C133.245 123.326 131.316 121.483 133.08 119.688C133.745 119.012 137.637 115.625 139.456 114.14C157.292 99.5767 186.982 92.4251 208.641 93.3115C215.635 93.5978 220.589 94.0476 225.979 94.8858C230.12 95.5296 231.048 95.702 239.366 97.374C244.894 98.4849 257.976 100.912 262.277 102.244C263.22 102.535 263.533 102.694 263.84 103.038Z" fill="#DBAB33"/>
<path d="M298.758 112.096C295.667 111.114 293.736 110.876 287.373 110.698C279.661 110.482 276.974 110.158 273.598 109.037C269.353 107.628 267.311 106.033 266.458 103.46C265.148 99.5084 268.403 97.4419 272.549 97.8322C274.389 98.0054 276.477 98.4167 280.668 99.4322C286.98 100.961 290.406 101.572 294.352 101.87C296.977 102.068 305.855 101.991 307.468 101.757C308.42 101.618 308.824 101.607 309.225 101.711C310.495 102.038 310.813 102.909 309.906 103.764C309.47 104.175 308.899 104.412 308.305 104.497C307.246 104.649 305.547 105.094 299.986 105.141C293.104 105.2 288.732 104.624 280.113 102.524C277.466 101.879 268.838 99.5569 269.35 102.136C269.693 103.868 271.349 105.055 275.022 106.202C277.668 107.029 280.13 107.318 285.985 107.489C292.966 107.693 295.018 107.874 297.601 108.511C302.326 109.677 304.003 110.804 305.866 114.063C307.032 116.103 307.686 117.079 307.691 117.623C307.7 118.774 306.476 119.534 305.45 119.014C304.98 118.776 304.633 118.305 303.817 116.803C302.04 113.526 301.407 112.938 298.758 112.096Z" fill="#DBAB33"/>
<path d="M334.094 159.821C333.863 160.389 333.255 160.793 332.624 160.799C332.277 160.802 332.057 160.704 331.717 160.398C331.336 160.055 331.217 159.808 330.93 158.772L330.591 157.549L329.787 157.587C328.359 157.654 314.594 158.722 308.954 158.36C307.567 158.272 304.673 157.913 304.22 157.243C303.958 156.856 303.86 155.575 303.653 149.847C303.485 145.19 303.806 140.193 304.61 134.927C305.171 131.249 306.719 124.6 308.017 120.295C308.992 117.059 312.684 106.591 313.752 104.595C313.855 104.403 314.02 104.256 314.219 104.169C315.305 103.695 316.821 103.396 317.935 103.243C319.729 102.997 321.53 102.782 323.323 103.152C324.838 103.465 326.549 103.922 327.814 104.856L328.225 105.16C329.112 102.828 328.079 105.829 330.364 99.0904C330.675 98.1719 331.542 97.8244 332.337 98.2993C333.255 98.8481 333.229 99.3752 332.1 103.073C331.6 104.711 330.749 107.112 330.211 108.41C327.809 114.196 324.088 127.403 323.119 130.685C321.325 136.764 320.547 141.619 320.984 144.006C321.068 144.462 321.137 144.531 321.883 144.893C322.802 145.34 328.797 147.301 328.907 147.191C329.182 146.914 326.54 128.804 326.491 125C326.474 123.621 328.371 123.114 329.09 124.483C329.229 124.748 329.42 125.891 329.67 127.968C329.876 129.674 330.16 131.751 330.305 132.603C330.685 134.849 331.295 139.525 331.773 143.852C332.002 145.929 332.232 147.781 332.285 147.975C332.373 148.295 332.518 148.374 333.871 148.839C336.887 149.878 338.647 150.682 340.281 151.768C342.024 152.926 342.499 153.48 342.506 154.366C342.512 155.052 342.121 155.604 341.381 155.954C340.62 156.315 339.283 156.576 336.156 156.975C334.277 157.214 333.815 157.309 333.849 157.447C334.255 159.09 334.282 159.359 334.094 159.821ZM329.444 150.74C327.404 150.002 320.495 148.05 318.4 146.043C318.042 145.7 317.836 145.227 317.81 144.731C317.708 142.792 317.497 142.203 318.173 137.657C318.771 133.631 325.165 112.427 326.601 108.948C326.827 108.402 327.01 107.899 327.008 107.831C327.003 107.656 325.951 106.963 325.33 106.726C323.747 106.122 322.025 105.877 320.335 105.952C319.491 105.99 318.654 106.113 317.835 106.321C317.73 106.347 317.169 106.512 316.692 106.652C316.278 106.775 315.949 107.087 315.807 107.494C314.415 111.466 305.528 132.382 306.814 150.896C306.908 152.243 306.962 153.593 307.051 154.94C307.062 155.109 307.195 155.374 307.634 155.369C307.948 155.327 308.559 155.302 308.847 155.291C310.009 155.247 311.172 155.232 312.335 155.216C312.639 155.212 312.942 155.208 313.246 155.205C321.954 155.103 329.913 154.395 329.951 154.361C330.001 154.319 329.462 150.866 329.444 150.74ZM336.867 153.787C337.056 153.753 337.095 153.497 336.923 153.41C335.819 152.855 332.889 151.793 332.852 151.899C332.828 151.967 332.88 152.506 332.966 153.086L333.124 154.149C334.431 154 336 153.943 336.867 153.787Z" fill="#DBAB33"/>
<path d="M354.388 103.903C350.718 105.193 348.066 106.813 342.044 107.561C339.98 107.818 339.324 107.821 338.901 107.577C337.828 106.957 337.929 105.407 339.076 104.899C339.334 104.785 340.323 104.597 341.275 104.482C349.291 103.509 353.467 100.701 354.834 101.089C356.026 101.428 356.544 103.145 354.388 103.903Z" fill="#DBAB33"/>
<path d="M255.121 115.858C256.508 112.517 256.789 111.591 256.779 110.399C256.761 108.377 256.442 108.182 256.783 107.441C257.166 106.609 258.23 106.354 258.927 106.927C259.576 107.461 259.761 108.158 259.758 110.064C259.755 112.119 259.499 113.197 258.253 116.413C254.473 126.163 248.746 131.018 250.625 134.225C251.656 135.982 255.94 138.281 263.999 141.399C269.338 143.465 273.312 144.741 276.966 145.563C279.645 146.166 280.441 146.67 280.45 147.768C280.459 148.762 279.621 149.24 278.258 149.018C270.798 147.806 254.935 141.717 250.322 138.295C242.57 132.543 250.435 127.146 255.121 115.858Z" fill="#DBAB33"/>
<path d="M339.272 126.323C338.264 127.171 334.954 129.244 334.139 129.536C331.38 130.525 330.346 127.415 332.654 126.709C333.007 126.601 334.097 126.023 335.069 125.429C337.95 123.668 339.197 122.194 339.79 119.848C340.01 118.982 340.021 116.753 339.811 115.789C339.18 112.887 336.338 110.135 333.79 108.779C333.29 108.513 332.816 108.263 332.747 107.627C332.603 106.302 334.202 105.884 335.19 106.257C336.105 106.602 336.801 107.326 337.537 107.944C339.751 109.803 341.787 112.066 342.653 114.882C343.915 118.99 342.552 123.561 339.272 126.323Z" fill="#DBAB33"/>
<path d="M121.828 129.373C111.887 137.174 106.058 145.891 93.6671 157.457C87.9507 162.792 82.1603 166.579 75.2739 170.048C59.9646 177.759 50.9054 178.346 40.3187 191.824C38.185 194.54 33.8386 200.793 32.3137 203.339C31.3826 204.894 31.1503 205.179 30.6296 205.405C30.0748 205.646 29.5433 205.51 29.1009 205.013C28.8004 204.675 28.7282 204.484 28.7242 204.014C28.7215 203.692 28.8256 203.194 28.9573 202.898C29.4421 201.81 33.461 195.805 36.2211 192.045C48.3387 175.534 58.4422 175.083 74.0732 167.137C80.6121 163.814 85.7573 160.554 91.9979 154.724C104.501 143.043 112.232 131.867 122.287 125.194C123.912 124.117 126.593 122.628 127.571 122.262C128.608 121.873 129.689 121.757 130.193 121.979C131.05 122.359 131.348 123.227 130.887 124C130.154 125.228 129.788 123.127 121.828 129.373Z" fill="#DBAB33"/>
<path d="M179.308 203.506C174.385 193.956 158.339 191.164 145.368 183.166C140.715 180.297 133.1 173.69 129.226 169.16C125.926 165.301 124.026 160.084 123.446 153.295C123.291 151.474 123.312 150.437 123.585 146.339C123.951 140.866 124.304 138.962 125.774 134.538C126.628 131.97 127.169 130.836 127.916 130.053C128.428 129.516 129.29 129.006 129.683 129.008C129.787 129.008 130.042 129.084 130.266 129.18C130.69 129.362 130.982 129.729 131.117 130.248C131.236 130.711 130.903 131.333 130.313 131.749C129.693 132.186 129.407 132.799 128.674 135.269C127.425 139.475 127.02 141.903 126.672 147.277C125.782 161.025 129.999 166.133 136.461 172.082C144.644 179.614 149.347 182.517 161.866 187.763C167.815 190.256 169.371 191.009 172.404 192.862C176.372 195.288 178.85 197.292 180.409 199.338C181.15 200.31 182.449 202.618 182.8 203.587C184.138 207.278 183.934 212.253 184.127 215.159C184.685 223.545 181.853 227.16 178.576 234.698C174.618 243.803 174.265 247.45 180.601 248.476C184.078 249.038 190.479 247.786 192.027 248.931C192.794 249.497 207.171 251.345 207.641 251.403C212.548 252.015 212.151 252.087 216.563 252.756C225.202 254.065 231.066 255.324 237.808 258.157C245.62 261.441 246.275 261.67 248.508 261.895C253.796 262.429 255.286 263.005 256.231 264.885C256.607 265.633 256.646 265.81 256.649 266.762C256.654 268.583 256.001 269.87 256.005 270.369C256.006 270.43 256.179 270.479 256.39 270.477C256.986 270.472 259.203 270.942 260.159 271.276C261.077 271.597 264.394 273.181 265.228 273.698C265.489 273.86 265.736 273.975 265.763 273.949C265.911 273.797 264.412 269.555 263.115 266.459C262.082 263.993 259.754 259.25 259.064 258.203C257.441 255.742 256.369 254.607 254.536 253.407C250.979 251.079 246.505 249.122 242.884 248.309C228.448 245.069 217.6 244.153 210.25 242.228C207.777 241.581 205.7 240.819 204.015 239.816C203.211 239.337 202.787 239.973 201.369 237.151C199.838 234.104 199.631 232.562 200.275 229.005C200.549 227.491 200.963 226.239 201.957 223.917C203.09 221.27 203.307 220.836 205.085 217.665C206.939 214.357 207.767 213.005 209.71 210.114C216.075 200.639 218.716 193.646 220.435 185.271C221.669 179.259 221.917 176.936 221.873 171.795C221.842 168.181 221.699 166.478 221.181 163.546C220.557 160.012 219.15 153.562 218.418 150.885C217.629 147.996 216.089 143.408 215.618 142.544C215.243 141.854 215.23 141.569 215.548 141.035C215.84 140.545 216.307 140.341 216.951 140.423C217.914 140.544 218.163 140.975 219.851 145.428C221.316 149.294 221.862 151.252 223.09 157.033C224.526 163.79 224.895 166.286 225.037 170.196C225.216 175.137 224.866 179.108 223.767 184.624C222.641 190.277 222.051 192.446 220.663 196.036C218.307 202.131 216.403 205.725 212.131 212.135C210.218 215.006 209.66 215.918 207.829 219.176C204.357 225.356 202.884 229.535 203.119 232.545C203.203 233.633 203.746 235.153 204.281 235.802C204.464 236.023 204.797 236.453 205.015 236.748C205.479 237.379 206.399 237.871 208.211 238.459C210.877 239.324 213.892 239.926 223.397 241.49C227.695 242.197 242.272 244.66 246.95 246.224C249.885 247.205 255.671 249.842 258.488 252.5C259.878 253.812 261.681 256.274 262.693 258.246C265.732 264.16 267.887 269.469 268.921 273.587C269.454 275.711 269.459 275.8 269.143 277.484C269.041 278.029 268.105 281.775 267.345 283.488C266.407 285.601 265.166 287.962 264.003 289.742C263.125 291.086 262.671 291.422 261.914 291.288C261.122 291.147 256.981 287.129 254.386 283.983C251.649 280.665 250.451 278.448 249.985 275.84C249.649 273.962 250.485 272.038 251.966 271.282L252.508 271.005L252.965 269.429C253.324 268.192 253.441 267.412 253.485 266.908C253.524 266.469 253.306 266.047 252.924 265.829C252.419 265.54 251.965 265.461 247.816 264.979C243.658 264.496 237.05 260.949 232.026 259.281C222.815 256.222 203.752 254.28 194.012 252.384C191.784 251.95 191.634 252.204 191.025 251.834C190.511 251.522 189.525 251.501 184.75 251.704C181.855 251.827 181.562 251.819 180.17 251.584C175.131 250.731 172.437 248.579 172.653 243.349C172.75 241 173.486 238.565 175.497 233.944C180.513 222.418 181.326 223.567 180.909 213.021C180.686 207.367 180.389 205.603 179.308 203.506ZM253.107 275.307C253.552 279.577 261.748 287.432 261.889 287.248C262.213 286.825 264.271 283.057 264.844 281.84C265.778 279.852 266.401 277.978 266.205 277.744C265.836 277.307 262.709 275.66 260.623 274.805C259.145 274.2 258.765 274.081 257.421 273.807C256.07 273.532 255.377 273.527 254.29 273.785C253.477 274.103 252.966 273.955 253.107 275.307Z" fill="#DBAB33"/>
<path d="M120.509 142.131C119.467 146.085 119.176 147.996 118.934 152.478C118.654 157.666 118.229 161.672 117.653 164.555C117.108 167.282 115.878 170.206 114.205 172.752C111.809 176.399 103.725 182.972 101.918 183.158C101.349 183.217 101.285 183.194 100.875 182.791C100.533 182.454 100.437 182.263 100.434 181.904C100.427 181.023 100.611 180.836 104.054 178.232C106.857 176.111 109.699 173.518 110.895 171.989C112.254 170.252 113.632 167.51 114.263 165.29C114.938 162.915 115.417 158.733 115.824 151.651C115.916 150.054 116.067 148.22 116.161 147.564C116.89 142.472 118.519 137.382 120.535 133.902C121.414 132.384 121.763 132.035 122.407 132.029C122.828 132.026 123.008 132.104 123.351 132.442C124.006 133.086 123.958 133.612 123.099 135.179C121.923 137.325 121.421 138.671 120.509 142.131Z" fill="#DBAB33"/>
<path d="M278.441 210.652C278.148 211.237 277.691 211.512 276.998 211.518C276.453 211.522 276.328 211.47 275.957 211.081C275.435 210.535 275.431 210.405 275.82 207.184C276.866 198.523 280.044 183.92 283.991 169.63C290.387 146.478 294.759 139.59 295.29 137.791C295.418 137.36 296.097 136.855 296.555 136.851C296.732 136.85 297.051 136.953 297.263 137.08C298.138 137.604 298.143 138.62 297.28 140.508C295.705 143.957 292.117 153.646 290.229 159.552C287.669 167.56 283.923 181.721 281.823 191.33C278.841 204.969 278.884 209.765 278.441 210.652Z" fill="#DBAB33"/>
<path d="M300.829 171.837C299.319 176.88 298.285 181.19 296.947 188.02C296.318 191.231 295.41 195.869 294.923 198.352C292.436 211.038 293.273 213.854 290.892 213.875C290.335 213.879 290.224 213.832 289.786 213.401C289.344 212.967 289.299 212.861 289.294 212.255C289.29 211.859 289.363 211.48 289.471 211.325C289.67 211.042 290.043 208.907 290.539 205.215C290.832 203.035 291.417 199.911 293.902 187.242C295.638 178.391 296.205 176.149 298.641 168.49C299.457 165.921 300.214 163.46 300.32 163.031C300.426 162.597 300.563 162.045 300.627 161.79C300.866 160.848 301.843 160.432 302.665 160.922C303.187 161.234 303.397 161.767 303.314 162.572C303.226 163.424 302.178 167.334 300.829 171.837Z" fill="#DBAB33"/>
<path d="M97.3378 169.889C97.869 169.08 98.447 168.133 98.6246 167.781C98.8 167.433 99.0706 167.053 99.2178 166.95C99.5539 166.712 100.255 166.697 100.665 166.918C101.357 167.29 101.507 168.332 101.013 169.326C99.9827 171.397 99.1674 171.902 93.6599 183.076C91.2279 188.01 90.2925 189.754 88.5506 192.599C82.9211 201.797 76.2261 208.418 58.2846 215.197C42.8768 221.02 36.5841 223.038 30.7766 227.01C27.7397 229.087 26.145 230.58 18.8672 238.167C3.76229 253.913 4.42622 253.059 3.47326 252.665C2.91936 252.437 2.6512 252.03 2.64591 251.411C2.63371 249.985 3.92347 249.263 17.0793 235.509C22.271 230.081 24.4613 227.932 26.4885 226.277C35.3628 219.029 47.9365 216.491 63.7069 209.613C86.8582 199.515 87.2857 185.198 97.3378 169.889Z" fill="#DBAB33"/>
<path d="M347.879 288.633C346.318 288.432 344.764 288.212 343.216 287.926C342.193 287.737 339.906 287.344 338.134 287.051C332.984 286.201 309.625 281.53 304.769 279.653C301.268 278.3 298.548 276.256 295.863 272.961C294.612 271.425 289.698 264.128 288.231 261.629C287.602 260.557 286.578 259.328 286.092 259.063C285.288 258.623 284.759 257.699 283.463 254.467C282.598 252.309 280.418 245.333 280.413 244.704C280.407 244.061 280.787 243.528 281.611 243.019C282.871 242.241 283.226 242.296 286.692 243.806C288.575 244.627 294.025 247.527 296.6 249.078C299.349 250.736 301.651 253.565 300.416 256.5C300.037 257.401 300.381 256.697 300.588 259.097C300.779 261.323 301.21 262.65 302.066 263.651C302.54 264.205 303.055 264.385 304.144 264.376C305.171 264.367 307.658 264.736 308.617 265.039C308.958 265.147 310.578 265.749 312.217 266.377C321.929 270.096 324.376 270.547 340.543 274.911C341.659 275.213 342.581 275.438 342.601 275.413C342.631 275.378 342.981 274.591 343.245 273.995C343.416 273.609 343.414 273.17 343.246 272.782C343.045 272.319 342.642 271.643 338.511 267.485C334.355 263.303 329.088 257.405 319.862 246.607C309.944 234.999 306.372 232.902 302.297 226.561C300.536 223.82 301.492 225.647 299.768 224.473C295.692 221.696 280.381 219.558 261.773 214.004C256.301 212.371 250.663 209.954 238.981 204.232C224.18 196.982 222.585 196.661 221.932 196.056C221.221 195.397 221.203 194.449 221.888 193.792C222.151 193.54 222.331 193.486 222.913 193.486C225.14 193.487 247.891 205.713 258.394 209.549C263.209 211.308 274.777 214.615 281.404 215.932C283.572 216.364 285.632 216.86 291.821 218.442C300.114 220.563 299.8 222.099 299.198 219.806C298.755 218.118 298.57 216.47 298.538 213.933C298.506 211.34 298.565 210.814 299.458 205.782C300.2 201.605 300.491 200.261 301.234 197.575C302.356 193.518 305.207 186.542 306.278 185.231C306.665 184.757 307.478 184.276 307.864 184.292C307.967 184.296 308.211 184.346 308.41 184.403C309.644 184.757 310.155 186.625 308.855 187.317C307.903 187.824 304.859 195.75 303.749 200.362C303.201 202.64 302.148 208.271 301.842 210.563C301.526 212.93 301.686 216.905 302.177 218.852C302.81 221.367 304.494 224.525 306.834 227.586C309.555 231.145 314.363 235.354 322.753 245.172C340.633 266.09 344.9 269.14 345.776 271.606C346.38 273.309 346.419 273.505 346.262 274.065C345.996 275.008 344.437 277.909 344.196 278.154C343.699 278.66 343.458 278.666 341.771 278.22C341.156 278.057 339.179 277.582 337.369 277.161C312.282 271.334 310.58 267.879 303.848 267.481C302.016 267.372 301.555 267.234 300.548 266.492C298.925 265.297 297.516 262.193 297.495 259.768C297.492 259.347 297.448 259.227 297.318 259.278C294.184 260.504 291.406 260.007 290.766 260.023L291.028 260.306C291.173 260.461 292.175 261.966 293.266 263.665C297.388 270.085 300.161 274.465 305.659 276.611C312.523 279.291 341.286 284.414 342.755 284.735C344.017 285.011 345.281 285.299 346.554 285.517C348.664 285.878 350.969 285.144 352.648 283.873C354.664 282.347 355.814 281 356.837 278.962C360.658 271.355 356.371 265.032 353.091 256.161C351.997 253.202 349.141 246.33 348.183 243.704C347.799 242.651 346.935 240.324 346.258 238.523C343.897 232.237 342.551 228.036 340.227 219.702C339.042 215.456 338.87 214.677 338.98 214.058C339.161 213.041 340.391 212.608 341.154 213.292C341.723 213.802 341.67 214.49 343.102 218.873C343.49 220.063 344.212 222.391 344.71 224.057C348.952 238.271 354.544 250.953 356.059 255.146C357.34 258.689 359.996 264.048 361.024 268.704C361.325 270.067 361.371 270.545 361.393 272.549C361.413 274.306 361.368 275.084 361.202 275.892C360.324 280.157 358.11 283.669 354.661 286.27C353.767 286.944 352.844 287.596 351.782 287.972C350.47 288.435 349.284 288.813 347.879 288.633ZM294.785 256.787C297.859 255.971 298.396 254.668 296.409 252.844C294.804 251.371 287.518 247.61 285.504 246.703C284.087 246.065 283.949 246.025 284.051 246.282C284.244 246.765 285.964 253.203 287.09 255.76C287.258 256.142 287.483 256.429 287.704 256.54C288.76 257.074 293.13 257.226 294.785 256.787Z" fill="#DBAB33"/>
<path d="M236.831 241.327C235.694 235.79 236.442 216.528 235.101 207.434C234.813 205.481 234.834 205.119 235.26 204.685C235.555 204.385 235.714 204.323 236.197 204.319C236.692 204.314 236.839 204.373 237.184 204.712C237.538 205.061 237.617 205.259 237.805 206.285C238.811 211.782 239.068 215.692 239.171 227.064C239.241 234.847 239.349 237.184 239.749 239.681C239.874 240.46 239.97 241.31 239.961 241.561C239.909 243.144 237.361 243.911 236.831 241.327Z" fill="#DBAB33"/>
<path d="M365.073 289.867C367.048 287.202 368.863 285.674 370.518 285.283C371.852 284.969 372.824 285.21 373.677 286.068C373.97 286.363 374.079 286.416 374.078 286.263C374.077 286.149 374.237 285.872 374.425 285.66C374.744 285.301 374.985 285.213 377.17 284.648C385.083 282.601 382.274 280.237 385.231 274.485C386.69 271.648 393.263 266.118 395.668 264.077C399.55 260.783 407.729 252.725 409.253 250.693L409.307 250.62C409.609 250.217 409.648 249.674 409.407 249.231C408.912 248.326 408.088 245.913 407.83 244.616C407.722 244.077 407.589 243.071 407.536 242.404L407.498 241.914C407.461 241.453 407.182 241.048 406.764 240.852C404.815 239.938 398.847 237.376 391.411 236.589C390.458 236.488 388.004 236.174 385.96 235.892C373.905 234.227 371.764 234.002 366.885 233.888C362.887 233.794 361.951 233.708 359.516 233.204C357.57 232.802 353.66 231.838 353.142 231.632C352.39 231.334 352.084 230.242 352.54 229.483C352.772 229.097 353.451 228.684 353.859 228.68C353.982 228.679 355.359 228.996 356.934 229.387C361.398 230.497 362.026 230.588 365.929 230.685C371.677 230.828 374.1 231.076 386.032 232.74C387.853 232.994 390.315 233.307 391.483 233.434C396.339 233.96 400.817 235.108 405.299 236.976C407.995 238.099 410.077 239.518 410.52 240.534C410.628 240.783 410.696 241.411 410.703 242.24C410.721 244.306 411.298 246.637 412.255 248.501C413.026 250.004 412.986 250.765 412.082 251.77C411.781 252.104 411 253.029 410.356 253.814C408.791 255.721 403.036 261.724 401.034 263.537C400.156 264.333 398.111 266.118 396.49 267.504C392.779 270.676 389.143 274.172 388.407 275.275C385.296 279.936 388.331 285.186 377.889 287.702C375.938 288.172 375.463 288.226 375.07 288.02C374.832 287.895 374.826 287.915 374.925 288.483C374.983 288.809 375.032 290.301 375.034 291.798C375.041 295.583 374.812 295.52 374.579 297.173L374.961 296.975C376.552 296.151 379.037 293.783 380.015 293.27C380.633 292.946 391.295 285.702 392.858 284.305C396.479 281.071 412.413 261.104 415.4 257.298C416.368 256.064 417.529 254.606 417.979 254.058C419.473 252.238 420.928 250.202 421.299 249.414C421.724 248.508 422.37 245.519 422.658 243.128C423.17 238.866 422.276 235.915 419.699 233.364C417.437 231.125 414.383 229.502 403.288 221.753C387.045 210.409 383.571 209.839 383.558 208.254C383.554 207.834 383.633 207.654 383.97 207.311C384.321 206.954 384.474 206.885 384.932 206.882C385.402 206.878 385.8 207.063 387.839 208.238C395.724 212.782 398.009 214.207 402.508 217.387C418.699 228.832 422.063 229.807 424.567 234.82C426.249 238.186 426.38 241.388 425.088 247.55C424.394 250.862 421.975 253.808 419.992 256.454C417.034 260.4 398.823 283.317 394.687 286.867C392.128 289.062 379.447 297.375 378.854 297.854C376.058 300.112 374.149 300.703 373.427 301.471C373.065 301.857 372.776 301.964 369.702 302.848C364.69 304.29 361.428 304.983 360.474 304.81C359.495 304.632 359.453 301.424 360.675 298.208C362.054 294.583 363.225 292.362 365.073 289.867ZM362.933 301.37C363.248 301.367 366.59 300.629 368.603 300.118C370.813 299.556 371.028 299.478 371.218 299.164C371.831 298.153 372.309 289.785 371.705 288.697C371.437 288.212 371.198 288.205 370.497 288.661C369.74 289.152 368.033 291.017 367.053 292.424C364.826 295.622 362.802 301.371 362.933 301.37Z" fill="#DBAB33"/>
<path d="M213.468 238.05C213.352 237.831 213.2 236.889 213.074 235.615C212.662 231.436 212.584 230.887 212.017 228.199C211.512 225.799 210.626 222.568 209.577 219.297C209.296 218.421 209.272 218.225 209.396 217.839C209.652 217.044 210.619 216.684 211.395 217.095C211.888 217.355 212.078 217.791 213.301 221.468C215.224 227.254 215.621 229.183 216.243 235.761C216.4 237.418 216.396 237.543 216.175 237.977C215.592 239.12 214.055 239.162 213.468 238.05Z" fill="#DBAB33"/>
<path d="M217.306 257.136C218.482 257.756 215.966 258.191 228.96 262.519C232.376 263.657 245.08 268.099 248.525 269.67C249.78 270.242 250.116 270.652 250.034 271.509C249.994 271.93 249.891 272.149 249.612 272.405C249.044 272.927 248.479 272.989 247.572 272.629C230.525 265.857 226.325 265.472 219.29 261.996C216.121 260.429 215.323 259.689 215.311 258.304C215.307 257.809 215.362 257.685 215.736 257.353C216.22 256.923 216.759 256.848 217.306 257.136Z" fill="#DBAB33"/>
<path d="M295.124 286.28C288.235 280.962 286.238 279.61 280.436 276.336C268.637 269.678 268.921 269.74 268.787 269.046C268.579 267.971 269.647 267.11 270.684 267.517C270.709 267.527 285.335 275.024 291.466 279.568C294.542 281.848 300.207 286.238 302.64 288.225C304.809 289.997 307.005 292.202 308.249 293.855C308.934 294.766 309.445 295.595 309.944 296.614C310.392 297.526 310.86 298.428 311.317 299.335C312.522 301.724 313.709 304.134 314.67 306.633L315.273 308.199L315.118 308.956C314.92 309.922 314.571 310.448 313.97 310.685C313.54 310.855 313.39 310.855 312.547 310.686C311.453 310.466 301.96 307.047 299.501 305.987C295.315 304.183 293.445 302.628 293.193 300.74C293.142 300.357 292.975 299.856 292.819 299.617C292.664 299.381 292.3 298.298 292.01 297.211C291.352 294.742 291.06 294.143 290.098 293.287C288.789 292.121 287.485 291.607 283.728 290.775C277.056 289.298 275.365 287.51 269.865 283.125C268.88 282.34 268.547 281.81 268.653 281.199C268.758 280.599 269.332 280.142 269.988 280.136C270.595 280.131 270.731 280.215 273.646 282.407C278.504 286.062 279.895 286.707 285.896 288.083C289.216 288.844 292.43 290.191 293.99 293.246C294.273 293.799 294.658 294.973 295.092 296.603L295.23 297.122L295.809 296.826C298.435 295.485 304.519 294.538 304.737 294.491C303.298 293.147 304.05 293.17 295.124 286.28ZM297.218 299.643C296.91 299.803 296.588 300.058 296.493 300.217C296.333 300.486 296.36 300.536 296.933 301.042C297.568 301.601 300.95 303.304 302.638 303.914C303.544 304.242 299.355 302.728 311.501 307.118C311.095 306.178 307.414 297.776 307.164 297.428C306.956 297.139 307.01 297.137 304.823 297.495C302.882 297.812 298.608 298.922 297.218 299.643Z" fill="#DBAB33"/>
</svg>
