<svg width="235" height="235" viewBox="0 0 235 235" fill="none" xmlns="http://www.w3.org/2000/svg">
<g clip-path="url(#clip0_43_14055)">
<path d="M87.9521 26.2852H147.048C148.158 26.2852 149.183 26.8813 149.732 27.8457L168.81 61.3281L169.24 62.0859H211.519C223.638 62.0859 233.5 71.9483 233.5 84.0674V211.519C233.5 223.638 223.638 233.5 211.519 233.5H23.4814C11.362 233.5 1.5 223.638 1.5 211.519V84.0674C1.5 73.4214 9.11404 64.5148 19.1846 62.5107L20.3916 62.2705V51.0898C20.3917 47.0311 23.6961 43.7266 27.7549 43.7266H51.7725C55.8312 43.7266 59.1357 47.0315 59.1357 51.0898V62.0859H65.7598L66.1904 61.3281L85.2676 27.8457C85.8173 26.881 86.8422 26.2853 87.9521 26.2852ZM117.5 87.9434C84.4974 87.9434 57.6506 114.79 57.6504 147.793C57.6504 173.394 73.9141 196.158 98.1221 204.438C99.7364 204.99 100.598 206.746 100.046 208.36V208.361C99.4936 209.976 97.7362 210.837 96.123 210.285L96.1221 210.284C88.1045 207.542 80.8788 203.36 74.6895 198.086L74.2695 197.728H7.67969V211.519C7.67969 220.233 14.7669 227.32 23.4814 227.32H211.519C220.233 227.32 227.32 220.233 227.32 211.519V197.727H160.732L160.312 198.085C154.307 203.202 147.325 207.291 139.592 210.035L138.841 210.297C138.507 210.411 138.171 210.464 137.843 210.464C136.556 210.464 135.357 209.653 134.919 208.371V208.37C134.368 206.756 135.23 204.999 136.845 204.448C161.072 196.178 177.35 173.409 177.35 147.793C177.35 114.79 150.503 87.9434 117.5 87.9434ZM7.67969 191.548H67.9346L65.9814 189.109C56.8036 177.654 51.4707 163.189 51.4707 147.793C51.4707 132.591 56.6362 118.578 65.3027 107.403L67.1787 104.984H7.67969V191.548ZM169.697 107.403C178.364 118.578 183.529 132.591 183.529 147.793C183.529 163.192 178.198 177.655 169.021 189.109L167.067 191.548H227.32V104.984H167.821L169.697 107.403ZM23.4814 68.2656C14.7669 68.2657 7.67969 75.3532 7.67969 84.0674V98.8047H73.2773L73.7031 98.4258C85.3689 88.064 100.711 81.7637 117.5 81.7637C134.289 81.7637 149.631 88.0645 161.297 98.4258L161.723 98.8047H227.32V84.0674C227.32 75.3531 220.233 68.2656 211.519 68.2656H23.4814ZM26.5713 62.0859H52.9561V49.9062H26.5713V62.0859ZM89.3164 33.2227L74.1494 59.8438L72.8711 62.0859H162.129L160.851 59.8438L145.684 33.2227L145.252 32.4648H89.748L89.3164 33.2227Z" fill="#DBAB33" stroke="#0C4745" stroke-width="3"/>
<path d="M117.5 104.137C141.571 104.137 161.156 123.722 161.156 147.793C161.156 171.864 141.571 191.449 117.5 191.449C93.429 191.449 73.8438 171.864 73.8438 147.793C73.8438 123.722 93.429 104.137 117.5 104.137ZM117.5 110.316C96.8343 110.316 80.0234 127.127 80.0234 147.793C80.0234 168.459 96.8343 185.269 117.5 185.27V185.271C138.166 185.271 154.977 168.459 154.977 147.793C154.977 143.529 154.251 139.433 152.934 135.612L151.928 132.693L150.255 135.289C149.69 136.166 149.031 136.988 148.279 137.74C145.509 140.51 141.835 142.032 137.917 142.032C133.999 142.032 130.323 140.511 127.553 137.74C124.782 134.97 123.261 131.294 123.261 127.376C123.261 123.458 124.784 119.783 127.554 117.014C128.306 116.262 129.128 115.603 130.005 115.038L132.6 113.365L129.681 112.359C125.86 111.042 121.764 110.316 117.5 110.316ZM137.917 118.9C135.656 118.9 133.522 119.784 131.923 121.383C130.324 122.982 129.44 125.115 129.44 127.376C129.44 129.637 130.324 131.77 131.923 133.369C133.522 134.968 135.656 135.853 137.917 135.853C140.178 135.852 142.311 134.967 143.909 133.369C145.508 131.77 146.393 129.637 146.393 127.376C146.393 125.115 145.509 122.981 143.91 121.383C142.311 119.784 140.178 118.901 137.917 118.9Z" fill="white" stroke="#0C4745" stroke-width="3"/>
<path d="M39.7637 1.5C41.4701 1.5 42.8535 2.88366 42.8535 4.58984V19.2217C42.8535 20.9279 41.4701 22.3115 39.7637 22.3115C38.0572 22.3115 36.6738 20.9279 36.6738 19.2217V4.58984C36.6738 2.88366 38.0572 1.5 39.7637 1.5Z" fill="white" stroke="#0C4745" stroke-width="3"/>
<path d="M62.791 13.9229C63.6174 12.4913 65.4164 11.9709 66.8721 12.7158L67.0117 12.792C68.4898 13.6456 68.9959 15.5351 68.1426 17.0127L60.8271 29.6846C60.2558 30.6742 59.2186 31.2305 58.1465 31.2305C57.6245 31.2304 57.0947 31.0968 56.6055 30.8145C55.1283 29.9605 54.6226 28.0719 55.4756 26.5947L62.791 13.9229Z" fill="white" stroke="#0C4745" stroke-width="3"/>
<path d="M12.5166 12.792C13.9934 11.9387 15.884 12.4449 16.7373 13.9229L24.0527 26.5947C24.9061 28.0725 24.3997 29.9624 22.9219 30.8154C22.4326 31.0977 21.9025 31.2305 21.3809 31.2305C20.3088 31.2303 19.2724 30.6741 18.7012 29.6846L11.3857 17.0127C10.559 15.581 11.0083 13.7628 12.3809 12.875L12.5166 12.792Z" fill="white" stroke="#0C4745" stroke-width="3"/>
<path d="M201.885 88.127C204.42 88.127 206.475 86.072 206.475 83.5371C206.475 81.0022 204.42 78.9473 201.885 78.9473C199.35 78.9473 197.295 81.0022 197.295 83.5371C197.295 86.072 199.35 88.127 201.885 88.127Z" fill="white"/>
<path d="M117.5 215.322C120.035 215.322 122.09 213.267 122.09 210.732C122.09 208.198 120.035 206.143 117.5 206.143C114.965 206.143 112.91 208.198 112.91 210.732C112.91 213.267 114.965 215.322 117.5 215.322Z" fill="white"/>
</g>
<defs>
<clipPath id="clip0_43_14055">
<rect width="235" height="235" fill="white"/>
</clipPath>
</defs>
</svg>
