<svg width="314" height="190" viewBox="0 0 314 190" fill="none" xmlns="http://www.w3.org/2000/svg">
<g clip-path="url(#clip0_320_30003)">
<path d="M283.534 79.6139V148.552C242.669 160.963 201.34 173.912 160.48 186.318C160.454 177.183 160.085 156.332 159.568 131.589C158.634 85.9698 157.253 27.1268 157.058 4.17725L268.098 70.4045L283.534 79.6139Z" fill="#0C4745"/>
<g opacity="0.1">
<path d="M283.535 79.6141V148.552C242.67 160.964 201.34 173.913 160.481 186.318C160.454 177.183 160.085 156.332 159.568 131.59C165.28 127.945 172.763 126.958 179.682 127.623C188.689 128.462 197.354 131.537 206.34 132.644C230.24 135.598 256.112 121.985 264.481 99.4042C267.904 90.1948 268.421 80.2998 268.099 70.3994L283.535 79.6088V79.6141Z" fill="#0C4745"/>
</g>
<path d="M160.38 5.87577V186.318C119.515 173.907 78.1859 160.958 37.3262 148.552V79.614L76.124 4.10352L160.385 5.87577H160.38Z" fill="#0C4745"/>
<g opacity="0.1">
<path d="M160.38 158.326V186.318C119.515 173.907 78.1859 160.958 37.3262 148.552V94.562C37.6479 95.8912 38.017 97.194 38.4336 98.5021C41.582 108.081 48.8701 117.116 58.816 118.767C63.789 119.606 69.031 118.519 73.8563 119.948C82.1517 122.433 86.5604 131.152 90.9375 138.636C95.3198 146.094 102.534 153.874 111.051 152.324C120.897 150.551 126.803 136.938 136.702 138.362C146.352 139.739 148.667 153.948 157.701 157.614C158.587 157.983 159.499 158.205 160.385 158.326H160.38Z" fill="#0C4745"/>
</g>
<path d="M160.475 190C159.695 190 158.925 189.752 158.282 189.277C157.348 188.586 156.794 187.489 156.794 186.324C156.789 172.631 155.908 131.753 155.065 92.2203C154.311 57.1551 153.535 20.8978 153.377 4.20909C153.356 2.17839 154.991 0.516906 157.021 0.495807C158.988 0.474709 160.713 2.10982 160.734 4.14052C160.892 20.787 161.667 57.0232 162.416 92.0621C163.181 127.649 163.967 164.323 164.119 181.366C182.946 175.637 201.857 169.804 220.768 163.965C240.497 157.878 260.225 151.791 279.854 145.826V79.6247C279.854 77.594 281.499 75.943 283.535 75.943C285.57 75.943 287.216 77.5887 287.216 79.6247V148.558C287.216 150.177 286.156 151.607 284.605 152.081C264.128 158.295 243.534 164.65 222.941 171.006C202.437 177.336 181.934 183.66 161.541 189.852C161.193 189.958 160.829 190.011 160.47 190.011L160.475 190Z" fill="#E6E6E6"/>
<path d="M160.391 190C160.038 190 159.679 189.947 159.32 189.842C138.912 183.644 118.387 177.315 97.862 170.98C77.2897 164.635 56.7175 158.284 36.2559 152.076C34.7055 151.607 33.6455 150.177 33.6455 148.553V79.6196C33.6455 77.5889 35.2909 75.938 37.3265 75.938C39.3621 75.938 41.0074 77.5836 41.0074 79.6196V145.821C60.6199 151.781 80.3273 157.862 100.035 163.944C120.549 170.273 141.058 176.603 161.461 182.795C163.407 183.386 164.504 185.443 163.914 187.384C163.434 188.972 161.973 189.995 160.396 189.995L160.391 190Z" fill="#E6E6E6"/>
<path d="M310.324 83.3593C299.962 58.4423 289.604 33.52 279.242 8.60303H157.279C167.642 33.52 177.999 58.4423 188.362 83.3593H310.324Z" fill="#0C4745"/>
<path d="M310.324 87.0356H188.362C186.875 87.0356 185.535 86.139 184.965 84.7676L153.883 10.0113C153.414 8.8773 153.535 7.57976 154.22 6.5565C154.901 5.53324 156.05 4.92139 157.279 4.92139H279.241C280.729 4.92139 282.068 5.81806 282.638 7.18945L313.72 81.9457C314.19 83.0797 314.068 84.3773 313.383 85.4005C312.702 86.4238 311.553 87.0356 310.324 87.0356ZM190.819 79.6776H304.813L276.789 12.2794H162.795L190.819 79.6776Z" fill="#0C4745"/>
<path d="M3.67578 83.3593C14.0384 58.4423 24.401 33.52 34.7583 8.60303H156.721C146.358 33.52 136.001 58.4423 125.638 83.3593H3.67578Z" fill="#0C4745"/>
<path d="M125.638 87.0356H3.67607C2.44733 87.0356 1.29768 86.4238 0.61739 85.4005C-0.0629028 84.3773 -0.189469 83.0797 0.27988 81.9457L31.3677 7.18945C31.9372 5.81806 33.2767 4.92139 34.7639 4.92139H156.726C157.955 4.92139 159.105 5.53324 159.785 6.5565C160.465 7.57976 160.592 8.8773 160.122 10.0113L129.04 84.7676C128.47 86.139 127.131 87.0356 125.644 87.0356H125.638ZM9.19224 79.6776H123.186L151.21 12.2794H37.2161L9.19224 79.6776Z" fill="#0C4745"/>
<path d="M194.095 153.215C192.792 153.215 191.584 152.382 191.173 151.074C190.662 149.46 191.558 147.735 193.172 147.223L241.151 132.027C242.754 131.516 244.489 132.412 244.995 134.026C245.507 135.64 244.61 137.365 242.997 137.877L195.018 153.073C194.712 153.168 194.401 153.215 194.095 153.215Z" fill="white"/>
<path d="M254.814 134.316C253.738 134.316 252.694 133.747 252.13 132.739C251.307 131.257 251.84 129.395 253.322 128.572L258.49 125.698C259.972 124.875 261.839 125.413 262.661 126.89C263.484 128.372 262.951 130.234 261.469 131.057L256.301 133.931C255.832 134.195 255.315 134.316 254.814 134.316Z" fill="white"/>
<path d="M310.319 78.4326H188.372C180.124 58.5898 171.855 38.7469 163.608 18.8987C161.493 13.8246 159.399 8.75576 157.279 3.68164H279.252C279.4 4.00339 279.521 4.34623 279.669 4.66798C289.857 29.2632 300.099 53.8374 310.314 78.4326H310.319Z" fill="#DBAB33"/>
<g opacity="0.1">
<path d="M310.319 78.4326H188.372C180.124 58.5897 171.855 38.7469 163.607 18.8987C168.333 22.5434 173.379 25.8664 178.379 29.1419C185.614 33.8943 192.855 38.6466 200.09 43.399C208.929 49.2116 218.479 55.2193 229.037 55.0927C237.432 55.0189 245.232 51.0313 252.668 47.1651C259.903 43.3727 267.413 39.3587 272.138 32.6864C276.177 27.0004 277.728 19.9589 278.761 13.0651C279.178 10.259 279.473 7.45293 279.674 4.66797C289.862 29.2632 300.104 53.8374 310.319 78.4326Z" fill="#0C4745"/>
</g>
<path d="M156.715 3.68701C153.34 11.7887 149.97 19.9115 146.595 28.0133C139.629 44.8285 132.636 61.6227 125.649 78.438H3.67578C12.1452 58.0518 20.6356 37.6921 29.105 17.3059C30.9982 12.7751 32.8704 8.22313 34.7689 3.69229H156.715V3.68701Z" fill="#DBAB33"/>
<g opacity="0.1">
<path d="M146.595 28.013C139.629 44.8283 132.636 61.6225 125.649 78.4378H3.67578C12.1452 58.0516 20.6356 37.6918 29.105 17.3057C33.1446 25.8504 40.9231 32.7179 50.1994 32.8181C56.6964 32.892 63.4414 29.7431 69.5007 32.1535C77.8963 35.524 79.6893 47.4181 87.568 51.9015C96.0849 56.7277 106.621 50.4721 113.388 43.3831C120.159 36.3152 126.804 27.5752 136.502 26.3463C140.072 25.8768 143.468 26.5414 146.595 28.0183V28.013Z" fill="#0C4745"/>
</g>
<path d="M310.324 82.1143H188.362C186.875 82.1143 185.535 81.2176 184.965 79.8462L153.883 5.08994C153.414 3.95592 153.535 2.65838 154.22 1.63511C154.901 0.611848 156.05 0 157.279 0H279.241C280.729 0 282.068 0.896674 282.638 2.26806L313.72 77.0243C314.19 78.1583 314.068 79.4559 313.383 80.4792C312.702 81.5024 311.553 82.1143 310.324 82.1143ZM190.819 74.7563H304.813L276.789 7.358H162.795L190.819 74.7563Z" fill="#E6E6E6"/>
<path d="M125.638 82.1143H3.67607C2.44733 82.1143 1.29768 81.5024 0.61739 80.4792C-0.0629028 79.4559 -0.189469 78.1583 0.27988 77.0243L31.3677 2.26806C31.9372 0.896674 33.2767 0 34.7639 0H156.726C157.955 0 159.105 0.611848 159.785 1.63511C160.465 2.65838 160.592 3.95592 160.122 5.08994L129.04 79.8462C128.47 81.2176 127.131 82.1143 125.644 82.1143H125.638ZM9.19224 74.7563H123.186L151.21 7.358H37.2161L9.19224 74.7563Z" fill="#E6E6E6"/>
</g>
<defs>
<clipPath id="clip0_320_30003">
<rect width="314" height="190" fill="white"/>
</clipPath>
</defs>
</svg>
