<svg width="250" height="250" viewBox="0 0 250 250" fill="none" xmlns="http://www.w3.org/2000/svg">
<path d="M71.0312 5.54395C65.0671 -0.419668 55.4199 -0.513101 49.3408 5.26465L49.0537 5.54395L5.54395 49.0537C-0.514174 55.1118 -0.51447 64.972 5.54395 71.0303C8.48045 73.9668 12.3805 75.582 16.5332 75.582C20.6858 75.582 24.585 73.9667 27.5215 71.0303L29.5166 69.0352L42.5596 82.0781L41.8525 82.7852L40.4961 84.1406C37.5773 87.059 35.9727 90.9343 35.9727 95.0615C35.9727 99.1888 37.5777 103.065 40.4961 105.983L144.1 209.587C147.018 212.505 150.893 214.11 155.021 214.11C159.063 214.11 162.862 212.567 165.759 209.761L166.466 209.076L175.179 217.789C178.341 220.951 182.541 222.69 187.013 222.69C191.485 222.69 195.686 220.952 198.848 217.789L204.847 211.789L205.554 211.082L242.326 247.854C243.09 248.618 244.088 249 245.091 249C246.093 249 247.091 248.618 247.855 247.854C249.382 246.328 249.382 243.853 247.855 242.326L211.083 205.554L211.79 204.847L217.789 198.847C220.951 195.685 222.691 191.485 222.691 187.013C222.691 182.541 220.951 178.34 217.789 175.178L209.772 167.161L209.077 166.465L209.762 165.758C212.568 162.861 214.111 159.063 214.111 155.021C214.111 150.893 212.505 147.018 209.587 144.1L105.983 40.4961C103.065 37.5777 99.1899 35.9727 95.0625 35.9727C90.9349 35.9727 87.06 37.5779 84.1416 40.4961L82.0781 42.5596L81.3711 41.8525L69.7432 30.2236L69.0361 29.5166L71.0312 27.5215C77.0895 21.4628 77.0894 11.6021 71.0312 5.54395ZM212.261 180.707C213.944 182.39 214.873 184.633 214.873 187.013C214.873 189.393 213.944 191.637 212.261 193.319V193.318L193.318 212.261C191.636 213.943 189.393 214.873 187.013 214.873C184.633 214.873 182.39 213.944 180.707 212.261L171.987 203.541L203.541 171.987L212.261 180.707ZM95.0625 43.791C97.0971 43.7911 99.0153 44.5857 100.454 46.0244L178.852 124.421L179.145 124.714L204.059 149.629C205.498 151.068 206.293 152.986 206.293 155.021C206.293 157.056 205.498 158.975 204.059 160.414V160.413L160.413 204.059C158.974 205.498 157.055 206.292 155.021 206.292C152.986 206.292 151.068 205.497 149.629 204.059L127.573 182.004L126.866 181.297L154.081 154.082C155.608 152.555 155.608 150.079 154.082 148.553L154.081 148.554C152.554 147.027 150.079 147.027 148.553 148.553L121.338 175.768L120.631 175.061L101.298 155.729L100.611 155.042L101.277 154.335L128.946 125.009C128.939 124.016 128.56 123.031 127.806 122.277C126.278 120.751 123.804 120.751 122.277 122.277L95.0156 149.539L94.3115 148.738L74.6826 126.421H72.4277L73.7148 125.319L72.9238 124.421H74.7666L101.548 101.513C103.057 99.9843 103.051 97.5224 101.53 96.002C100.003 94.4753 97.5288 94.4756 96.002 96.002L68.7871 123.217L68.0801 122.51L46.0254 100.454C44.5865 99.0152 43.7912 97.0979 43.79 95.0625V95.0615C43.7901 93.0269 44.5852 91.1088 46.0244 89.6699L89.6699 46.0244C91.109 44.585 93.0276 43.791 95.0625 43.791ZM76.5498 48.0879L48.0879 76.5498L35.0449 63.5068L63.5068 35.0449L76.5498 48.0879ZM60.042 8.81348C62.017 8.81348 63.9962 9.56618 65.502 11.0723C68.5136 14.0839 68.5136 18.9815 65.502 21.9932L21.9922 65.502C20.5351 66.9596 18.5928 67.7646 16.5322 67.7646C14.4717 67.7646 12.5293 66.9596 11.0723 65.502C8.06141 62.4908 8.06149 57.5935 11.0723 54.582L54.582 11.0723C56.0878 9.56606 58.0675 8.81354 60.042 8.81348Z" fill="#DBAB33" stroke="#0C4745" stroke-width="2"/>
<path d="M127.89 85.8145C126.319 84.3335 123.844 84.4071 122.363 85.9785C120.882 87.5497 120.956 90.0234 122.527 91.5039C125.586 94.3866 127.112 95.9749 128.87 97.8027H128.871C130.301 99.2892 131.913 100.967 134.558 103.536L134.559 103.537C135.317 104.275 136.298 104.642 137.281 104.643C138.302 104.643 139.32 104.246 140.087 103.457C141.59 101.909 141.555 99.4336 140.007 97.9297C137.458 95.4526 135.955 93.8887 134.507 92.3838H134.506C132.965 90.7815 131.505 89.2629 129.021 86.8877L127.89 85.8145Z" fill="white" stroke="#0C4745" stroke-width="2"/>
<path d="M112.818 70.7383C111.291 69.2121 108.817 69.2121 107.29 70.7383C105.764 72.2647 105.764 74.7411 107.29 76.2676L109.658 78.6367H109.659C110.422 79.4002 111.42 79.7812 112.423 79.7812C113.425 79.7812 114.424 79.4005 115.188 78.6367C116.714 77.1103 116.714 74.6339 115.188 73.1074L112.818 70.7383Z" fill="white" stroke="#0C4745" stroke-width="2"/>
<path d="M185.783 1.73828C185.602 1.73828 185.366 1.82967 185.21 2.13184L185.148 2.27441L181.115 13.6143C180.86 14.3303 180.341 14.938 179.639 15.2549L169.564 19.7939H169.563C169.289 19.9177 169.086 20.2298 169.086 20.6572C169.086 21.0847 169.289 21.3967 169.563 21.5205H169.564L179.639 26.0596C180.341 26.3763 180.86 26.9843 181.115 27.7002V27.7012L185.148 39.04C185.297 39.4577 185.576 39.5771 185.783 39.5771C185.99 39.5771 186.269 39.4576 186.418 39.04L190.451 27.7012V27.7002C190.706 26.9848 191.224 26.3765 191.928 26.0596L202.002 21.5205L202.102 21.4658C202.325 21.3174 202.48 21.0315 202.48 20.6572C202.48 20.2296 202.277 19.9176 202.002 19.7939L191.928 15.2549C191.313 14.9776 190.838 14.4775 190.559 13.877L190.451 13.6143L186.418 2.27441C186.27 1.85759 185.991 1.7384 185.783 1.73828Z" fill="white" stroke="#0C4745" stroke-width="2"/>
<path d="M220.153 88.8984C220.122 88.8985 220.087 88.908 220.053 88.9326C220.029 88.9497 219.993 88.9835 219.959 89.0488L219.926 89.125L216.935 97.5352C216.724 98.1278 216.292 98.6361 215.701 98.9023L208.229 102.269C208.138 102.309 208.026 102.434 208.026 102.674C208.026 102.853 208.088 102.969 208.158 103.032L208.229 103.079L215.701 106.445C216.293 106.712 216.724 107.22 216.935 107.812L219.926 116.223C219.967 116.34 220.021 116.392 220.053 116.415C220.087 116.44 220.121 116.449 220.153 116.449C220.185 116.449 220.22 116.44 220.254 116.415C220.286 116.392 220.339 116.34 220.381 116.223L223.372 107.812C223.582 107.22 224.014 106.712 224.606 106.445H224.605L232.079 103.079C232.17 103.038 232.281 102.914 232.281 102.674C232.281 102.434 232.17 102.309 232.079 102.268L224.605 98.9023C224.013 98.6357 223.584 98.1266 223.373 97.5371L223.372 97.5352L220.381 89.124C220.339 89.0074 220.286 88.9554 220.255 88.9326C220.221 88.908 220.185 88.8984 220.153 88.8984Z" fill="white" stroke="#0C4745" stroke-width="2"/>
<path d="M131.245 12.8516C126.934 12.8516 123.439 16.3463 123.439 20.6572C123.439 24.9682 126.934 28.4629 131.245 28.4629C135.556 28.4629 139.051 24.9682 139.051 20.6572C139.051 16.3463 135.556 12.8516 131.245 12.8516Z" fill="white" stroke="#0C4745" stroke-width="2"/>
<path d="M225.437 57.6073C223.934 57.252 222.426 58.1829 222.071 59.6865C221.716 61.19 222.647 62.6974 224.15 63.053C225.654 63.4084 227.161 62.4773 227.516 60.9738C227.872 59.4701 226.941 57.9628 225.437 57.6073Z" fill="white" stroke="#0C4745" stroke-width="2"/>
</svg>
