<svg width="237" height="230" viewBox="0 0 237 230" fill="none" xmlns="http://www.w3.org/2000/svg">
<path d="M130.545 31.0186V147.886L103.586 145.291V28.2754L130.545 31.0186Z" fill="white" stroke="#0C4745" stroke-width="51"/>
<path d="M157.286 8.64844L157.322 8.65137L157.357 8.65039L236.214 5.36426V172.568L159.837 175.854L75.1719 167.706L75.1318 167.702L75.0918 167.705L0.5 172.513V5.31152L77.2422 0.500977L157.286 8.64844Z" fill="#0C4745" stroke="#0C4745"/>
<path d="M154.248 17.8242L154.282 17.8281L154.316 17.8262L226.985 14.9189V162.836L156.597 165.742L78.542 158.53L78.5029 158.527L78.4648 158.529L9.72852 162.784V14.8691L80.4424 10.6113L154.248 17.8242Z" fill="white" stroke="#0C4745"/>
<path d="M213.808 117.845C214.209 117.762 214.582 117.751 214.866 117.8C215.091 117.839 215.212 117.905 215.272 117.957L215.313 118.003C215.368 118.091 215.4 118.258 215.387 118.581C215.38 118.734 215.365 118.893 215.351 119.073C215.336 119.247 215.322 119.438 215.322 119.627C215.322 119.993 215.373 120.445 215.665 120.812C215.971 121.198 216.453 121.384 217.073 121.416V121.417C217.804 121.456 218.353 121.11 218.761 120.712C219.146 120.337 219.483 119.83 219.723 119.522C219.856 119.352 219.963 119.234 220.056 119.159C220.143 119.089 220.182 119.087 220.188 119.087C220.188 119.087 220.242 119.083 220.367 119.188C220.496 119.295 220.666 119.491 220.88 119.825C221.794 121.253 222.493 122.389 222.867 123.619C223.211 124.751 223.286 125.989 222.934 127.622L222.857 127.955C222.43 129.721 221.492 131.099 220.49 132.311C219.98 132.927 219.485 133.464 219.006 134.022C218.541 134.564 218.108 135.107 217.798 135.665L217.797 135.666C217.383 136.411 216.562 136.616 215.606 136.399C214.637 136.179 213.761 135.563 213.452 134.989C213.271 134.654 213.112 134.24 212.931 133.772C212.755 133.321 212.559 132.823 212.312 132.384C212.066 131.945 211.745 131.517 211.295 131.239C210.827 130.95 210.268 130.852 209.616 130.989C209.124 131.093 208.481 131.134 207.737 131.159C207.012 131.183 206.183 131.192 205.39 131.234C204.591 131.278 203.785 131.358 203.066 131.536C202.353 131.713 201.678 131.998 201.188 132.487C200.483 133.193 199.756 133.318 199.355 133.2C199.163 133.143 199.052 133.037 198.999 132.915C198.945 132.79 198.92 132.571 199.055 132.234V132.233C199.396 131.379 199.941 129.974 200.372 128.638C200.587 127.97 200.777 127.31 200.899 126.738C201.016 126.191 201.09 125.645 201.011 125.249L201.01 125.247C201.01 125.246 201.011 125.243 201.012 125.237C201.014 125.226 201.021 125.202 201.042 125.166C201.087 125.089 201.175 124.985 201.326 124.855C201.629 124.596 202.089 124.315 202.646 124.012C203.209 123.706 203.803 123.411 204.411 123.09C205 122.778 205.582 122.452 206.04 122.116C206.987 121.421 207.316 120.693 207.337 120.068C207.338 120.032 207.335 119.996 207.334 119.961C207.705 120.018 208.178 120.077 208.677 120.097C209.239 120.119 209.86 120.095 210.415 119.956C210.963 119.819 211.522 119.551 211.848 119.022C212.201 118.448 212.985 118.015 213.808 117.845Z" fill="#0C4745" stroke="#0C4745"/>
<path d="M72.4463 31.627C73.7513 31.0898 74.9296 31.2438 75.8457 31.6445C76.7855 32.0557 77.4086 32.7079 77.6016 33.0928V33.0918C77.7806 33.45 78.1569 33.5609 78.4189 33.6006C78.7079 33.6444 79.057 33.6332 79.4238 33.5967C80.1629 33.523 81.1167 33.3301 82.1104 33.124C83.1162 32.9154 84.1767 32.6895 85.167 32.5361C86.1646 32.3817 87.0452 32.3083 87.6982 32.3848C88.332 32.4595 88.7474 32.6774 89.0137 32.9316C89.2814 33.1874 89.4273 33.5083 89.4766 33.8369C89.5264 34.17 89.4747 34.4979 89.3613 34.748C89.2737 34.9412 89.1664 35.0565 89.0713 35.1152L88.9805 35.1562C87.6821 35.526 86.2482 36.4383 84.8486 37.8379C84.1545 38.5314 83.7002 38.9795 83.1045 39.2773C82.521 39.5691 81.7573 39.7354 80.4336 39.7354C79.6894 39.7354 79.1432 39.8755 78.7061 40.1738C78.2836 40.4621 78.0168 40.8665 77.7754 41.2441C77.2975 41.9917 76.7544 42.9283 75.0742 43.8877V43.8887C74.2691 44.3491 73.6186 44.4094 73.1221 44.2979C72.6185 44.1847 72.2135 43.8809 71.9307 43.5098C71.6414 43.13 71.5117 42.7228 71.5117 42.4561C71.5118 42.3407 71.5359 42.2872 71.5449 42.2715C71.551 42.2703 71.5615 42.2686 71.5771 42.2686C72.6236 42.2685 73.4126 41.4248 73.8721 40.6201C74.113 40.1982 74.2933 39.7392 74.3965 39.3076C74.4845 38.9394 74.5251 38.5543 74.4736 38.2158L74.4453 38.0742C74.3126 37.5255 73.9208 36.8631 73.5244 36.2285C73.1072 35.5605 72.6543 34.8773 72.2988 34.208C71.9378 33.5281 71.7314 32.9554 71.7393 32.5195C71.743 32.3164 71.7927 32.157 71.8867 32.0254C71.9825 31.8914 72.1496 31.7493 72.4463 31.627Z" fill="#0C4745" stroke="#0C4745"/>
<path d="M109.195 61.5371C109.215 61.7919 109.317 62.0225 109.427 62.208C109.601 62.5025 109.86 62.7943 110.077 63.042C110.311 63.3088 110.509 63.5387 110.642 63.7598C110.773 63.979 110.792 64.1147 110.773 64.2061C110.73 64.4091 110.732 64.6092 110.789 64.8008C110.846 64.9915 110.948 65.1439 111.062 65.2646C111.268 65.4832 111.564 65.6446 111.76 65.7607C112.204 66.0243 112.487 66.2347 112.523 66.7295V66.7305C112.565 67.2854 112.298 67.7343 111.834 68.0361C111.359 68.3452 110.696 68.4803 110.049 68.3604C109.895 68.3319 109.817 68.2993 109.78 68.2793C109.787 68.2463 109.805 68.1834 109.854 68.0801C109.953 67.8744 110.103 67.6467 110.286 67.3496C110.414 67.1422 110.555 66.9058 110.667 66.6572L110.769 66.4053C110.915 65.9886 110.869 65.6017 110.71 65.2754C110.559 64.9653 110.316 64.7313 110.094 64.5635C109.868 64.3933 109.634 64.2693 109.461 64.1895C109.373 64.149 109.298 64.1186 109.244 64.0977C109.217 64.0872 109.195 64.079 109.179 64.0732C109.171 64.0704 109.164 64.0681 109.159 64.0664C109.157 64.0656 109.154 64.065 109.152 64.0645L109.15 64.0635H109.149L108.991 64.5371L109.148 64.0635L109.034 64.0254L108.915 64.043C108.805 64.0599 108.705 64.0825 108.621 64.1016C108.532 64.1219 108.471 64.1366 108.413 64.1475C108.359 64.1575 108.329 64.1581 108.314 64.1582C108.3 64.1437 108.269 64.1083 108.227 64.0293C108.146 63.8795 108.052 63.6282 107.941 63.2148C107.872 62.9559 107.928 62.6975 108.093 62.4355C108.261 62.1667 108.53 61.9204 108.82 61.7354C108.957 61.6484 109.085 61.5836 109.195 61.5371Z" fill="#0C4745" stroke="#0C4745"/>
<path d="M106.818 65.2285C106.842 65.2785 106.871 65.3283 106.906 65.376C106.995 65.4962 107.104 65.5811 107.191 65.6406C107.277 65.6986 107.374 65.7526 107.444 65.793C107.602 65.8837 107.712 65.955 107.799 66.0547C107.876 66.1437 107.955 66.2802 107.986 66.5283C108.014 66.7523 107.963 66.89 107.896 66.9863C107.82 67.0942 107.697 67.1881 107.536 67.2646C107.377 67.3404 107.206 67.387 107.068 67.4141C107.034 67.4209 107.002 67.4245 106.975 67.4287C106.919 67.4007 106.842 67.3613 106.746 67.3057C106.516 67.1715 106.176 66.9491 105.752 66.6064C105.755 66.5705 105.77 66.4985 105.824 66.3857C105.948 66.1299 106.198 65.8155 106.492 65.5244C106.603 65.4145 106.714 65.3152 106.818 65.2285Z" fill="#0C4745" stroke="#0C4745"/>
<path d="M180.202 103.801C180.375 103.758 180.551 103.791 180.758 103.929C180.976 104.073 181.203 104.32 181.427 104.648C181.873 105.305 182.225 106.165 182.449 106.781V106.782C182.784 107.698 183.686 107.877 184.224 108.005C184.796 108.141 185.09 108.238 185.235 108.483L185.289 108.599C185.425 108.972 185.686 109.384 185.903 109.729C186.14 110.107 186.332 110.42 186.424 110.671C186.455 110.755 186.463 110.81 186.466 110.841C186.431 110.858 186.354 110.889 186.202 110.905C186.009 110.926 185.734 110.923 185.356 110.883C184.724 110.815 184.008 110.393 183.256 109.698C182.516 109.014 181.801 108.121 181.172 107.22C180.545 106.321 180.014 105.431 179.64 104.764C179.489 104.495 179.365 104.263 179.27 104.083C179.462 104.009 179.757 103.912 180.202 103.801Z" fill="#0C4745" stroke="#0C4745"/>
<path d="M192.225 103.31C192.914 102.966 193.497 103.032 193.753 103.181C193.873 103.25 193.883 103.309 193.884 103.322C193.885 103.336 193.886 103.403 193.805 103.516L193.693 103.645C193.048 104.291 192.84 105.331 192.768 106.095C192.73 106.495 192.726 106.859 192.731 107.122C192.734 107.254 192.74 107.363 192.744 107.438C192.746 107.476 192.748 107.506 192.75 107.527C192.751 107.538 192.751 107.546 192.752 107.552C192.752 107.554 192.752 107.557 192.752 107.559L192.753 107.562C192.79 108.074 192.967 108.534 193.136 108.919C193.318 109.336 193.47 109.632 193.549 109.931C193.62 110.198 193.608 110.391 193.503 110.577C193.384 110.787 193.103 111.064 192.46 111.386C191.875 111.678 191.385 111.707 190.988 111.611C190.584 111.514 190.235 111.276 189.961 110.973C189.685 110.667 189.505 110.315 189.431 110.03C189.393 109.887 189.388 109.782 189.396 109.719C189.397 109.707 189.399 109.698 189.4 109.691C189.856 109.291 190.105 108.625 190.235 107.986C190.374 107.309 190.403 106.549 190.342 105.881C190.296 105.369 190.411 104.92 190.695 104.51C190.987 104.09 191.477 103.682 192.224 103.309L192.225 103.31Z" fill="#0C4745" stroke="#0C4745"/>
<path d="M204.316 108.243C205.331 108.141 206.235 108.419 206.99 108.721C207.332 108.857 207.736 109.04 208.004 109.141C208.151 109.196 208.308 109.246 208.459 109.272C208.605 109.298 208.801 109.31 208.995 109.231L208.994 109.23C209.159 109.165 209.642 109.102 210.199 109.25C210.734 109.392 211.292 109.719 211.669 110.377C211.952 110.873 212.424 111.273 212.894 111.601C213.364 111.929 213.901 112.23 214.328 112.488C214.789 112.766 215.097 112.981 215.244 113.161C215.28 113.206 215.295 113.234 215.3 113.247C215.295 113.258 215.283 113.281 215.251 113.316C215.17 113.406 215.114 113.433 215.086 113.441C215.059 113.45 215.02 113.454 214.952 113.437C214.786 113.395 214.575 113.262 214.255 113.031C213.967 112.824 213.601 112.547 213.207 112.354C212.801 112.156 212.315 112.023 211.772 112.139H211.771C210.928 112.32 210.405 112.57 210.079 112.806C209.916 112.924 209.803 113.038 209.727 113.135C209.719 113.145 209.712 113.155 209.705 113.165C209.571 113.245 209.467 113.304 209.386 113.348C209.384 113.339 209.38 113.33 209.378 113.321C209.325 113.106 209.274 112.829 209.185 112.41C208.991 111.504 208.554 110.815 207.818 110.336C207.197 109.932 206.396 109.699 205.426 109.568L204.999 109.519C204.492 109.468 204.095 109.33 203.819 109.167C203.535 108.999 203.413 108.826 203.379 108.723C203.356 108.654 203.36 108.602 203.438 108.529C203.546 108.429 203.804 108.295 204.316 108.243Z" fill="#0C4745" stroke="#0C4745"/>
<path d="M62.4502 31.6885C62.7772 31.8237 63.1471 31.9279 63.5557 31.9863C63.9725 32.0457 64.3832 32.0749 64.7334 32.0996C64.9685 32.1162 65.167 32.1307 65.3311 32.1484C65.1085 32.3818 64.9514 32.627 64.8906 32.9014C64.8182 33.2287 64.896 33.5144 65.001 33.7432C65.0969 33.9522 65.245 34.1688 65.3428 34.3252C65.4526 34.5009 65.5381 34.6559 65.5898 34.8203V34.8213C65.6392 34.9798 65.6297 35.0696 65.6162 35.1152C65.6043 35.1553 65.5777 35.2018 65.5029 35.2539C65.3267 35.3766 64.9591 35.4766 64.3623 35.4766C64.0507 35.4766 63.7941 35.4897 63.5957 35.541C63.4892 35.5686 63.3759 35.6125 63.2725 35.6895C63.1638 35.7703 63.091 35.8687 63.042 35.9668C62.9979 36.0552 62.9738 36.1433 62.959 36.2002C62.9401 36.2728 62.9334 36.3052 62.916 36.3662C62.8915 36.4523 62.8534 36.5539 62.7773 36.6816C62.7664 36.6792 62.7523 36.678 62.7363 36.6729C62.5882 36.6249 62.3693 36.488 62.1279 36.2627C61.8939 36.0443 61.6737 35.7758 61.5156 35.5117C61.3502 35.2353 61.2862 35.0198 61.2861 34.8975C61.2861 34.8229 61.3049 34.7852 61.373 34.7344C61.4681 34.6635 61.6263 34.6001 61.8623 34.5352C61.9762 34.5038 62.0915 34.4761 62.2168 34.4453C62.3372 34.4157 62.4675 34.3825 62.5898 34.3438C62.7105 34.3056 62.8443 34.2558 62.9668 34.1846C63.0584 34.1313 63.1608 34.0562 63.2461 33.9502L63.3242 33.834C63.4982 33.521 63.4403 33.1479 63.3555 32.8857C63.2609 32.594 63.0865 32.2902 62.8516 32.0332C62.7364 31.9072 62.6011 31.7898 62.4502 31.6885ZM60.8945 30.2314C61.0059 30.5586 61.2254 30.863 61.5039 31.1113C61.645 31.2371 61.8071 31.3522 61.9863 31.458C61.5924 31.3252 61.1322 31.3187 60.6348 31.5459H60.6338C60.0877 31.7965 59.4275 31.7853 58.8584 31.6865C58.8957 31.6877 58.9345 31.6871 58.9746 31.6807C59.1095 31.6588 59.2144 31.5948 59.29 31.5303L59.291 31.5312C59.5018 31.3519 60.101 30.8216 60.6396 30.4141C60.7305 30.3453 60.8172 30.2855 60.8945 30.2314ZM58.0156 30.9609C58.049 30.9962 58.0861 31.0459 58.1338 31.1162C58.1719 31.1724 58.2372 31.2736 58.292 31.3467C58.34 31.4107 58.4464 31.5484 58.6113 31.627C58.6232 31.6326 58.6367 31.6365 58.6494 31.6416C58.4588 31.6002 58.2924 31.5569 58.166 31.5166C58.0815 31.4896 58.0147 31.4666 57.9707 31.4502C57.9491 31.4421 57.933 31.4357 57.9229 31.4316C57.9178 31.4296 57.914 31.4275 57.9121 31.4268H57.9111L57.6855 31.332L57.6045 31.377C57.8137 31.0933 57.9474 30.9888 58.0078 30.9531C58.0102 30.9555 58.0129 30.9581 58.0156 30.9609Z" fill="#0C4745" stroke="#0C4745"/>
<mask id="path-12-inside-1_14_8761" fill="white">
<path d="M85.3726 109.477C84.2659 108.881 82.987 107.434 81.7083 107.775C80.4331 108.113 78.0486 108.199 77.8756 105.815C77.7063 103.431 75.9198 101.557 73.4482 102.579C70.9792 103.601 70.8066 98.1507 69.7877 99.1734C68.7637 100.194 68.1682 98.4043 66.5491 99.1734C64.932 99.9392 64.59 98.235 63.5689 98.4044C62.5462 98.5745 60.759 99.9392 59.8222 100.621C58.8837 101.301 58.7136 100.365 56.8418 99.9394C54.9671 99.5131 55.5624 96.8731 55.5624 95.6803C55.5624 94.4875 53.7748 95.3384 53.0924 94.3174C52.411 93.2952 53.9458 92.1879 52.9231 91.5069C51.9013 90.825 50.6234 93.3798 48.9193 94.1473C47.216 94.914 46.1951 90.6554 45.9389 89.973C45.6837 89.2938 45.598 88.1004 47.5577 86.6518C49.5165 85.2043 50.7928 86.0563 52.0697 84.949C53.3485 83.8415 53.9456 84.5225 55.1348 84.949C56.3295 85.3753 55.4776 89.3775 56.4135 89.4632C57.3511 89.5465 57.6063 86.3983 57.4367 84.7789C57.2645 83.1605 59.991 82.3929 61.1847 82.1377C62.3763 81.8824 63.0591 79.5835 63.0591 78.561C63.0591 77.5387 64.9315 77.1981 66.5488 75.8356C68.1679 74.4735 66.2946 73.4517 66.7194 71.2357C67.147 69.0226 69.4449 68.6816 72.1708 68.6816C74.8959 68.6816 76.2584 70.0436 77.1969 66.0425C78.1332 62.0387 72.597 64.5941 74.2986 62.379C76.0017 60.1656 74.7268 58.1204 74.1301 57.1842C73.5337 56.2466 72.7663 59.2274 71.4892 59.4839C70.2113 59.7392 70.8919 58.1204 71.1481 56.4162C71.4042 54.7127 70.8062 54.2868 69.871 55.2248C68.9335 56.162 67.6573 54.3737 66.3792 55.6506C65.1016 56.9285 65.0173 57.4393 65.0173 58.7172C65.0173 59.9955 66.2944 61.1023 64.6753 62.2092C63.0589 63.3169 64.163 64.9347 62.802 66.127C61.4396 67.3185 61.609 64.3379 61.9495 62.8062C62.2899 61.2722 61.9495 61.3568 60.6724 61.6128C59.3954 61.8677 55.989 61.5282 56.3293 59.3977C56.6695 57.2697 55.5619 58.5467 55.3908 56.8425C55.2223 55.1402 56.5845 52.6698 58.9675 52.584C61.354 52.4994 62.0355 50.9654 62.0355 50.711C62.0355 50.4545 62.6326 49.0925 65.1858 48.9218C67.7416 48.7521 67.3176 45.0034 66.5486 44.0667C65.7826 43.1306 65.0173 45.7708 63.4841 46.3672C61.9493 46.9627 62.0353 45.2604 62.8877 43.6408C63.7387 42.0246 63.5684 38.8712 62.1223 38.8712C60.6722 38.8712 58.2884 42.6188 58.5437 44.0666C58.799 45.5146 56.2448 45.1746 54.9665 44.3218C53.6875 43.4718 53.6875 43.8977 51.7298 44.8336C49.7714 45.7706 48.2374 43.9827 49.5161 42.1931C49.5942 42.0827 49.6461 41.9722 49.6704 41.8644C50.038 41.2104 51.1896 39.7573 54.3701 39.0437C58.5437 38.1047 58.7129 35.6363 56.8412 35.21C54.9665 34.7842 52.2401 33.5914 52.2401 32.2298C52.2401 30.8677 50.879 30.611 48.6635 31.8881C46.448 33.1662 41.9337 32.6546 41.3384 34.4431C40.7436 36.2323 38.6147 38.021 37.4214 37.7657C35.3753 37.4237 32.651 31.1216 26.2656 31.4622C19.8747 31.8028 21.2386 38.2757 21.2386 38.2757C21.2386 38.2757 19.6205 37.1684 17.4069 38.1915C15.1932 39.2143 18.7696 39.7247 18.8544 41.1724C18.9392 42.6188 16.8963 41.2561 14.9368 42.3647C12.9766 43.4718 14.1703 45.6005 14.0853 48.0707C13.9986 50.5411 16.9806 49.5182 17.1516 50.3704C17.3212 51.221 14.2554 52.4135 13.1478 53.9474C12.041 55.4803 17.2357 53.605 18.4294 53.5211C19.6205 53.436 20.5572 51.3057 20.8132 49.6889C21.0695 48.0707 23.0288 49.0921 23.5392 48.4106C24.0497 47.7299 24.646 50.4542 26.0942 50.1141C27.5421 49.7723 29.927 51.818 29.2454 53.3507C28.5632 54.883 29.0762 55.9912 30.6075 58.292C32.1401 60.5899 32.736 61.8674 31.2064 61.6124C29.6721 61.3565 29.1594 61.8674 29.927 63.9116C30.6926 65.9554 32.651 67.2326 30.9488 71.5767C29.2454 75.9221 31.5434 81.6275 32.7362 82.4783C33.929 83.3303 34.8667 86.3116 35.3753 88.5265C35.8885 90.7407 37.8485 91.8475 37.4214 89.546C36.9934 87.2486 34.6953 84.6077 35.8883 83.841C37.082 83.0748 37.2503 87.6741 38.444 88.3546C39.6359 89.0369 40.4876 90.4846 40.4876 92.6992C40.4876 94.9134 44.9159 96.4457 45.6831 95.9359C46.448 95.4236 48.0669 97.8953 50.3667 98.5741C52.6662 99.2564 53.0065 98.746 53.7741 100.108C54.5417 101.471 56.7536 102.152 58.4584 102.407C60.1617 102.663 58.8828 104.281 58.7988 105.389C58.7127 106.496 57.0956 107.348 56.4983 107.944C55.9032 108.54 55.7325 110.328 56.1588 111.35C56.5842 112.372 58.0323 111.862 58.9673 115.184C59.9061 118.504 63.8227 119.357 64.3342 120.294C64.8458 121.23 65.4416 124.04 64.7603 125.063C64.0789 126.085 64.4191 131.365 64.4191 132.047C64.4191 132.728 65.2715 134.516 64.1628 135.795C63.0587 137.073 64.334 139.199 63.9945 140.562C63.6524 141.925 65.5259 142.694 64.5048 144.14C63.4839 145.588 66.2942 147.888 66.6345 149.847C66.9749 151.805 69.1041 151.296 70.9785 151.208C72.851 151.124 70.041 149.25 69.1041 147.377C68.1675 145.503 68.5079 146.782 69.6156 145.588C70.722 144.395 70.041 143.884 69.7869 141.841C69.5288 139.798 70.5513 140.82 71.0627 138.689C71.576 136.561 72.5967 137.241 73.8737 135.965C75.1508 134.688 72.6809 133.068 76.1733 132.644C79.6644 132.217 78.558 131.111 79.4946 127.703C80.4322 124.298 80.3454 124.721 84.1775 123.19C88.012 121.658 85.8824 118.76 86.0535 116.631C86.2227 114.503 88.4364 114.503 89.0328 112.117C89.6299 109.733 86.4794 110.074 85.3726 109.477Z"/>
</mask>
<path d="M85.3726 109.477C84.2659 108.881 82.987 107.434 81.7083 107.775C80.4331 108.113 78.0486 108.199 77.8756 105.815C77.7063 103.431 75.9198 101.557 73.4482 102.579C70.9792 103.601 70.8066 98.1507 69.7877 99.1734C68.7637 100.194 68.1682 98.4043 66.5491 99.1734C64.932 99.9392 64.59 98.235 63.5689 98.4044C62.5462 98.5745 60.759 99.9392 59.8222 100.621C58.8837 101.301 58.7136 100.365 56.8418 99.9394C54.9671 99.5131 55.5624 96.8731 55.5624 95.6803C55.5624 94.4875 53.7748 95.3384 53.0924 94.3174C52.411 93.2952 53.9458 92.1879 52.9231 91.5069C51.9013 90.825 50.6234 93.3798 48.9193 94.1473C47.216 94.914 46.1951 90.6554 45.9389 89.973C45.6837 89.2938 45.598 88.1004 47.5577 86.6518C49.5165 85.2043 50.7928 86.0563 52.0697 84.949C53.3485 83.8415 53.9456 84.5225 55.1348 84.949C56.3295 85.3753 55.4776 89.3775 56.4135 89.4632C57.3511 89.5465 57.6063 86.3983 57.4367 84.7789C57.2645 83.1605 59.991 82.3929 61.1847 82.1377C62.3763 81.8824 63.0591 79.5835 63.0591 78.561C63.0591 77.5387 64.9315 77.1981 66.5488 75.8356C68.1679 74.4735 66.2946 73.4517 66.7194 71.2357C67.147 69.0226 69.4449 68.6816 72.1708 68.6816C74.8959 68.6816 76.2584 70.0436 77.1969 66.0425C78.1332 62.0387 72.597 64.5941 74.2986 62.379C76.0017 60.1656 74.7268 58.1204 74.1301 57.1842C73.5337 56.2466 72.7663 59.2274 71.4892 59.4839C70.2113 59.7392 70.8919 58.1204 71.1481 56.4162C71.4042 54.7127 70.8062 54.2868 69.871 55.2248C68.9335 56.162 67.6573 54.3737 66.3792 55.6506C65.1016 56.9285 65.0173 57.4393 65.0173 58.7172C65.0173 59.9955 66.2944 61.1023 64.6753 62.2092C63.0589 63.3169 64.163 64.9347 62.802 66.127C61.4396 67.3185 61.609 64.3379 61.9495 62.8062C62.2899 61.2722 61.9495 61.3568 60.6724 61.6128C59.3954 61.8677 55.989 61.5282 56.3293 59.3977C56.6695 57.2697 55.5619 58.5467 55.3908 56.8425C55.2223 55.1402 56.5845 52.6698 58.9675 52.584C61.354 52.4994 62.0355 50.9654 62.0355 50.711C62.0355 50.4545 62.6326 49.0925 65.1858 48.9218C67.7416 48.7521 67.3176 45.0034 66.5486 44.0667C65.7826 43.1306 65.0173 45.7708 63.4841 46.3672C61.9493 46.9627 62.0353 45.2604 62.8877 43.6408C63.7387 42.0246 63.5684 38.8712 62.1223 38.8712C60.6722 38.8712 58.2884 42.6188 58.5437 44.0666C58.799 45.5146 56.2448 45.1746 54.9665 44.3218C53.6875 43.4718 53.6875 43.8977 51.7298 44.8336C49.7714 45.7706 48.2374 43.9827 49.5161 42.1931C49.5942 42.0827 49.6461 41.9722 49.6704 41.8644C50.038 41.2104 51.1896 39.7573 54.3701 39.0437C58.5437 38.1047 58.7129 35.6363 56.8412 35.21C54.9665 34.7842 52.2401 33.5914 52.2401 32.2298C52.2401 30.8677 50.879 30.611 48.6635 31.8881C46.448 33.1662 41.9337 32.6546 41.3384 34.4431C40.7436 36.2323 38.6147 38.021 37.4214 37.7657C35.3753 37.4237 32.651 31.1216 26.2656 31.4622C19.8747 31.8028 21.2386 38.2757 21.2386 38.2757C21.2386 38.2757 19.6205 37.1684 17.4069 38.1915C15.1932 39.2143 18.7696 39.7247 18.8544 41.1724C18.9392 42.6188 16.8963 41.2561 14.9368 42.3647C12.9766 43.4718 14.1703 45.6005 14.0853 48.0707C13.9986 50.5411 16.9806 49.5182 17.1516 50.3704C17.3212 51.221 14.2554 52.4135 13.1478 53.9474C12.041 55.4803 17.2357 53.605 18.4294 53.5211C19.6205 53.436 20.5572 51.3057 20.8132 49.6889C21.0695 48.0707 23.0288 49.0921 23.5392 48.4106C24.0497 47.7299 24.646 50.4542 26.0942 50.1141C27.5421 49.7723 29.927 51.818 29.2454 53.3507C28.5632 54.883 29.0762 55.9912 30.6075 58.292C32.1401 60.5899 32.736 61.8674 31.2064 61.6124C29.6721 61.3565 29.1594 61.8674 29.927 63.9116C30.6926 65.9554 32.651 67.2326 30.9488 71.5767C29.2454 75.9221 31.5434 81.6275 32.7362 82.4783C33.929 83.3303 34.8667 86.3116 35.3753 88.5265C35.8885 90.7407 37.8485 91.8475 37.4214 89.546C36.9934 87.2486 34.6953 84.6077 35.8883 83.841C37.082 83.0748 37.2503 87.6741 38.444 88.3546C39.6359 89.0369 40.4876 90.4846 40.4876 92.6992C40.4876 94.9134 44.9159 96.4457 45.6831 95.9359C46.448 95.4236 48.0669 97.8953 50.3667 98.5741C52.6662 99.2564 53.0065 98.746 53.7741 100.108C54.5417 101.471 56.7536 102.152 58.4584 102.407C60.1617 102.663 58.8828 104.281 58.7988 105.389C58.7127 106.496 57.0956 107.348 56.4983 107.944C55.9032 108.54 55.7325 110.328 56.1588 111.35C56.5842 112.372 58.0323 111.862 58.9673 115.184C59.9061 118.504 63.8227 119.357 64.3342 120.294C64.8458 121.23 65.4416 124.04 64.7603 125.063C64.0789 126.085 64.4191 131.365 64.4191 132.047C64.4191 132.728 65.2715 134.516 64.1628 135.795C63.0587 137.073 64.334 139.199 63.9945 140.562C63.6524 141.925 65.5259 142.694 64.5048 144.14C63.4839 145.588 66.2942 147.888 66.6345 149.847C66.9749 151.805 69.1041 151.296 70.9785 151.208C72.851 151.124 70.041 149.25 69.1041 147.377C68.1675 145.503 68.5079 146.782 69.6156 145.588C70.722 144.395 70.041 143.884 69.7869 141.841C69.5288 139.798 70.5513 140.82 71.0627 138.689C71.576 136.561 72.5967 137.241 73.8737 135.965C75.1508 134.688 72.6809 133.068 76.1733 132.644C79.6644 132.217 78.558 131.111 79.4946 127.703C80.4322 124.298 80.3454 124.721 84.1775 123.19C88.012 121.658 85.8824 118.76 86.0535 116.631C86.2227 114.503 88.4364 114.503 89.0328 112.117C89.6299 109.733 86.4794 110.074 85.3726 109.477Z" fill="#0C4745" stroke="#0C4745" stroke-width="2" mask="url(#path-12-inside-1_14_8761)"/>
<path d="M52.7754 26.1309C53.2258 26.0309 53.6279 26.1098 54.0098 26.2275C54.1062 26.2573 54.1986 26.2885 54.293 26.3203C54.3843 26.3511 54.4814 26.3839 54.5742 26.4111C54.7249 26.4552 54.9325 26.5063 55.1475 26.4854C55.1221 26.8015 55.2937 27.0489 55.4736 27.1953C55.6665 27.3521 55.9146 27.4423 56.1602 27.4785C56.6256 27.5472 57.2088 27.4379 57.667 27.0127L57.7568 26.9229C57.8804 26.7917 58.0263 26.6975 58.165 26.6357C58.1443 26.7079 58.1306 26.7826 58.127 26.8604C58.1152 27.113 58.2064 27.3177 58.293 27.4658C58.3688 27.5955 58.4886 27.7533 58.5557 27.8506C58.6051 27.9223 58.6486 27.995 58.6895 28.0703C58.6542 28.0768 58.612 28.0845 58.5615 28.0898C58.1686 28.1311 57.6239 28.0843 57.1885 28.041C56.6529 27.9879 56.2603 28.1001 55.8936 28.2832C55.7237 28.368 55.5557 28.47 55.3975 28.5645C55.2341 28.662 55.0663 28.7605 54.8711 28.8584H54.8701C54.5639 29.0122 54.4248 28.9225 54.4082 28.9072C54.3981 28.8979 54.3823 28.8784 54.3789 28.8291C54.3762 28.7885 54.3823 28.7206 54.4199 28.627L54.4688 28.5244C54.6164 28.2561 54.7171 27.9097 54.542 27.5859C54.379 27.2846 54.0723 27.189 53.9014 27.1543C53.7267 27.1189 53.5496 27.119 53.4209 27.125C53.3568 27.0775 53.2801 27.0338 53.1885 27.002C52.8357 26.8794 52.4099 26.966 51.9092 27.252H51.9082C51.7602 27.3368 51.7013 27.326 51.6865 27.3232C51.6491 27.3163 51.5892 27.2903 51.4531 27.1895C51.3214 27.0918 51.1333 26.9314 50.8779 26.7939C51.4867 26.5192 52.2829 26.24 52.7744 26.1299L52.7754 26.1309Z" fill="#0C4745" stroke="#0C4745"/>
<path d="M77.6992 22.5039C77.317 22.6224 76.8958 22.735 76.4736 22.8496C75.9513 22.9914 75.416 23.1414 75.0156 23.3096C74.8182 23.3925 74.6148 23.4953 74.457 23.6289C74.3068 23.7562 74.1189 23.9838 74.1416 24.3037C74.1349 24.3176 74.1093 24.3619 74.0195 24.4346C73.8726 24.5535 73.6392 24.6765 73.3584 24.7773C73.0816 24.8768 72.7888 24.9441 72.5391 24.9678C72.4144 24.9796 72.3094 24.98 72.2285 24.9717C72.1888 24.9676 72.1583 24.9618 72.1367 24.9561C72.1152 24.9504 72.1067 24.9459 72.1074 24.9463C71.7459 24.7533 71.3379 24.8573 71.0889 24.9385C70.8178 25.0269 70.4982 25.1766 70.2695 25.2715C70.0098 25.3792 69.8438 25.4266 69.7441 25.4307C69.5693 24.9269 69.6131 24.8267 69.6328 24.7939C69.6484 24.7681 69.697 24.7083 69.8506 24.6211C69.9272 24.5776 70.021 24.5322 70.1357 24.4834L70.5479 24.3252C70.9033 24.1995 71.1885 24.0615 71.4062 23.9082C71.6221 23.7561 71.8021 23.5672 71.8926 23.3311C71.9386 23.2109 71.9551 23.0969 71.9531 22.9902C72.1444 22.968 72.3686 22.9426 72.6172 22.915C73.4323 22.8247 74.5089 22.7127 75.5586 22.6279C76.3329 22.5654 77.0826 22.5186 77.6992 22.5039Z" fill="#0C4745" stroke="#0C4745"/>
<path d="M66.5049 25.4043C66.416 25.7505 66.4041 26.0684 66.4951 26.3906C66.5646 26.6366 66.6866 26.8543 66.8252 27.0625C66.9612 27.2667 67.1352 27.4934 67.3203 27.7393V27.7383C67.5963 28.1057 67.5644 28.4522 67.4697 28.6309C67.4209 28.723 67.3677 28.7534 67.3457 28.7607C67.3375 28.7635 67.3046 28.7772 67.2285 28.7266H67.2295C66.976 28.5572 66.7137 28.4614 66.4385 28.4365C66.1684 28.4121 65.9147 28.4585 65.6807 28.5322C65.4501 28.6049 65.2182 28.711 64.9951 28.8174C64.7634 28.9279 64.5381 29.0404 64.2812 29.1533C64.1315 29.2193 64.031 29.2082 63.9531 29.1797C63.8596 29.1453 63.7575 29.0687 63.6543 28.9492C63.5529 28.8318 63.4716 28.6962 63.4141 28.585C63.386 28.5307 63.3649 28.485 63.3516 28.4541C63.3449 28.4387 63.3396 28.4267 63.3369 28.4199C63.3358 28.4171 63.3354 28.4151 63.335 28.4141V28.415L63.2969 28.3125L63.2197 28.2354L63.124 28.1328C62.9204 27.8997 62.8513 27.7038 62.8359 27.5605C62.8184 27.3962 62.8656 27.2461 62.9551 27.1182C63.0486 26.9845 63.177 26.8926 63.2822 26.8525C63.3172 26.8392 63.3405 26.8338 63.3545 26.832C64.1937 27.4805 65.4906 27.0269 66.0039 25.9014V25.9004C66.1016 25.6845 66.2927 25.5155 66.5049 25.4043Z" fill="#0C4745" stroke="#0C4745"/>
<path d="M199.178 92.2422C199.368 92.2062 199.61 92.2391 199.901 92.4336C200.47 92.8133 200.749 93.5837 200.919 94.7119C201.002 95.2618 201.053 95.8436 201.118 96.4551C201.182 97.0563 201.259 97.6779 201.394 98.2627L201.395 98.2637C201.644 99.34 201.5 99.6577 201.555 100.341C201.609 101.023 201.897 101.673 202.852 102.888C203.265 103.413 203.25 103.722 203.187 103.877C203.111 104.061 202.873 104.277 202.383 104.418C201.422 104.695 199.922 104.552 198.762 103.869C198.743 103.853 198.717 103.83 198.684 103.801C198.611 103.737 198.507 103.642 198.384 103.522C198.137 103.283 197.82 102.951 197.531 102.572C197.24 102.19 196.994 101.784 196.867 101.396C196.742 101.011 196.744 100.688 196.88 100.418L196.881 100.417C197.735 98.7064 198.485 97.0453 198.117 94.8311C197.967 93.9264 198.203 93.0994 198.586 92.6328C198.774 92.4039 198.98 92.2796 199.178 92.2422Z" fill="#0C4745" stroke="#0C4745"/>
<mask id="path-17-inside-2_14_8761" fill="white">
<path d="M213.296 30.6959C213.296 30.6959 215.511 30.0148 217.896 31.5488C220.281 33.0806 218.916 32.4003 217.555 34.9565C216.192 37.511 215.169 36.6563 216.022 39.5533C216.873 42.4495 217.045 41.0864 215.34 42.9598C213.638 44.8336 213.126 44.4941 212.955 46.5386C212.786 48.5814 206.994 48.0709 208.696 50.1143C210.399 52.1581 211.933 55.9062 210.399 58.4614C208.867 61.0155 206.311 58.9718 206.823 56.0767C207.334 53.1809 209.378 47.2183 206.483 47.8994C203.587 48.5813 206.141 47.0486 204.438 50.4542C202.733 53.8612 197.285 49.4331 197.796 52.6697C198.307 55.9062 200.691 57.6085 202.054 59.6528C203.416 61.6967 203.587 65.6164 201.712 67.8298C199.84 70.0435 197.964 72.94 199.156 75.3247C200.349 77.709 199.329 80.0952 197.455 80.0952C195.58 80.0952 193.368 73.1106 190.812 78.2217C188.255 83.3307 196.946 80.2635 192.515 86.0561C188.086 91.8479 184.85 88.6113 185.532 92.6994C186.213 96.7869 189.449 98.4902 186.894 100.876C184.338 103.26 179.23 103.772 180.591 100.365C181.954 96.957 177.013 94.2329 174.8 94.7435C172.585 95.2549 172.926 89.1211 171.222 91.8479C169.52 94.5716 167.986 94.233 167.986 97.9806C167.986 101.727 171.222 106.156 167.815 104.281C164.41 102.407 164.663 90.8247 160.492 91.337C153.246 92.2238 155.807 83.8412 151.037 88.1849C149.502 89.5849 147.804 91.4211 148.822 94.317C150.442 98.9165 144.48 96.1923 142.777 99.0864C141.072 101.983 139.71 104.281 140.391 108.03C141.072 111.778 141.584 113.311 139.541 116.036C137.495 118.76 135.796 122.012 136.134 124.893C136.899 131.452 125.742 134.943 123.018 132.217C120.291 129.493 122.336 126.085 120.462 122.678C118.588 119.271 118.077 115.866 118.928 113.991C119.78 112.117 119.78 107.349 117.567 105.303C115.351 103.26 114.841 102.069 110.922 103.26C107.005 104.452 100.533 102.918 100.533 96.4457C100.533 89.9726 100.873 90.6549 105.302 85.8858C109.732 81.1164 111.774 82.6493 114.672 80.7765C117.567 78.9015 119.61 80.6055 120.462 82.3092C121.313 84.0106 123.869 85.8858 125.573 84.3524C127.276 82.8192 127.276 85.2041 131.024 84.3524C134.77 83.4999 137.495 80.2635 134.941 80.0954C134.941 80.0954 130.085 81.7976 130.256 79.6671C130.426 77.5386 130.426 76.3466 134.685 76.7729C138.944 77.1978 139.88 75.7493 137.922 74.4734C135.964 73.1954 135.877 70.8116 133.833 72.6838C131.788 74.5571 130.256 73.0258 130.426 74.8132C130.596 76.6028 128.637 76.9427 127.19 77.1132C125.742 77.2847 128.383 78.9018 127.276 80.9459C126.169 82.9901 125.232 79.2428 124.634 78.1357C124.039 77.0284 121.741 73.5362 120.377 73.1956C119.015 72.8552 121.4 76.0916 122.676 76.8577C123.953 77.6239 123.528 80.5209 122.676 80.6059C121.826 80.6905 119.866 80.2639 121.144 79.4982C122.422 78.7321 122.081 76.6887 120.291 76.432C118.503 76.1763 119.098 74.3875 118.419 74.0464C117.736 73.707 115.607 74.1333 115.351 75.6651C115.097 77.1981 114.415 77.4547 112.796 77.5387C111.179 77.6239 111.093 78.9018 111.69 79.6673C112.285 80.4345 108.113 81.7978 107.176 80.4345C106.239 79.072 104.962 76.5178 106.495 75.2393C108.027 73.9623 111.093 76.0916 111.348 74.9011C111.605 73.707 109.133 72.1735 110.327 71.5774C111.518 70.9823 111.434 70.3864 112.455 69.6186C113.478 68.8528 112.796 67.4904 114.415 66.979C116.033 66.4663 117.652 66.637 118.588 65.5291C118.588 65.5291 118.816 64.7633 120.631 65.2173C122.449 65.6723 124.208 65.6723 124.606 65.0485C125.004 64.424 122.278 62.7208 123.358 61.9815C124.436 61.2431 126.991 61.4701 126.198 60.2213C125.402 58.9723 123.584 59.1412 123.869 57.6672C124.152 56.191 126.139 54.5997 125.685 53.6362C125.232 52.67 125.515 51.0241 124.493 51.989C123.471 52.9537 121.426 55.1124 121.938 56.191C122.448 57.2699 121.712 58.2926 122.506 59.0296C123.301 59.7664 123.301 60.1073 122.108 61.4143C120.916 62.719 120.009 64.4226 119.098 63.1163C118.189 61.8121 119.098 59.9387 117.113 61.3007C115.125 62.6631 114.444 61.1311 114.898 58.6879C115.351 56.2466 115.977 56.1338 117.453 54.7127C118.928 53.2952 119.158 51.5912 119.213 51.0241C119.268 50.4545 119.156 47.7872 122.562 47.1629C125.97 46.5388 128.126 44.6646 128.126 47.1629C128.126 49.6608 136.985 46.8783 134.941 50.7391C132.896 54.5995 130.796 50.7392 131.192 52.2727C131.591 53.8054 132.159 56.474 134.883 53.9759C137.61 51.476 136.472 48.9793 139.368 48.7521C142.264 48.5249 145.274 47.7303 144.594 46.8783C143.912 46.0268 144.706 45.0036 146.24 45.6299C147.772 46.2538 150.612 48.9219 149.476 46.5937C148.34 44.2673 147.034 41.8817 148.34 41.2565C149.646 40.632 150.271 40.5764 150.669 42.7904C151.067 45.0036 150.669 46.8783 151.576 48.4111C152.484 49.9433 153.622 48.7523 153.565 46.254C153.507 43.756 153.054 42.5069 154.7 42.223C156.346 41.9382 154.814 41.2007 154.019 39.6109C153.224 38.0214 154.814 37.8509 156.346 36.4304C157.88 35.0113 155.042 33.8188 157.538 32.1718C160.038 30.5256 161.06 30.9807 161.797 29.0503C162.535 27.1189 164.637 27.1189 164.977 28.6534C165.317 30.1871 168.554 30.5833 166.964 33.1384C165.373 35.6932 169.121 35.1828 169.803 33.5918C170.484 32.0014 173.494 33.9891 174.458 34.1587C175.425 34.3303 176.389 32.9115 177.809 32.2858C179.229 31.6604 179.512 34.5009 181.159 35.1828C182.806 35.8633 184.111 35.4091 184.509 33.819C184.906 32.2303 185.303 29.8447 188.596 30.8112C191.891 31.7763 193.025 32.4564 194.502 30.8681C195.978 29.2766 196.602 29.1061 198.194 30.3572C199.782 31.6048 199.156 32.7963 201.486 30.9234C203.815 29.0505 206.141 28.0847 208.696 29.2766C211.252 30.469 213.296 30.6959 213.296 30.6959Z"/>
</mask>
<path d="M213.296 30.6959C213.296 30.6959 215.511 30.0148 217.896 31.5488C220.281 33.0806 218.916 32.4003 217.555 34.9565C216.192 37.511 215.169 36.6563 216.022 39.5533C216.873 42.4495 217.045 41.0864 215.34 42.9598C213.638 44.8336 213.126 44.4941 212.955 46.5386C212.786 48.5814 206.994 48.0709 208.696 50.1143C210.399 52.1581 211.933 55.9062 210.399 58.4614C208.867 61.0155 206.311 58.9718 206.823 56.0767C207.334 53.1809 209.378 47.2183 206.483 47.8994C203.587 48.5813 206.141 47.0486 204.438 50.4542C202.733 53.8612 197.285 49.4331 197.796 52.6697C198.307 55.9062 200.691 57.6085 202.054 59.6528C203.416 61.6967 203.587 65.6164 201.712 67.8298C199.84 70.0435 197.964 72.94 199.156 75.3247C200.349 77.709 199.329 80.0952 197.455 80.0952C195.58 80.0952 193.368 73.1106 190.812 78.2217C188.255 83.3307 196.946 80.2635 192.515 86.0561C188.086 91.8479 184.85 88.6113 185.532 92.6994C186.213 96.7869 189.449 98.4902 186.894 100.876C184.338 103.26 179.23 103.772 180.591 100.365C181.954 96.957 177.013 94.2329 174.8 94.7435C172.585 95.2549 172.926 89.1211 171.222 91.8479C169.52 94.5716 167.986 94.233 167.986 97.9806C167.986 101.727 171.222 106.156 167.815 104.281C164.41 102.407 164.663 90.8247 160.492 91.337C153.246 92.2238 155.807 83.8412 151.037 88.1849C149.502 89.5849 147.804 91.4211 148.822 94.317C150.442 98.9165 144.48 96.1923 142.777 99.0864C141.072 101.983 139.71 104.281 140.391 108.03C141.072 111.778 141.584 113.311 139.541 116.036C137.495 118.76 135.796 122.012 136.134 124.893C136.899 131.452 125.742 134.943 123.018 132.217C120.291 129.493 122.336 126.085 120.462 122.678C118.588 119.271 118.077 115.866 118.928 113.991C119.78 112.117 119.78 107.349 117.567 105.303C115.351 103.26 114.841 102.069 110.922 103.26C107.005 104.452 100.533 102.918 100.533 96.4457C100.533 89.9726 100.873 90.6549 105.302 85.8858C109.732 81.1164 111.774 82.6493 114.672 80.7765C117.567 78.9015 119.61 80.6055 120.462 82.3092C121.313 84.0106 123.869 85.8858 125.573 84.3524C127.276 82.8192 127.276 85.2041 131.024 84.3524C134.77 83.4999 137.495 80.2635 134.941 80.0954C134.941 80.0954 130.085 81.7976 130.256 79.6671C130.426 77.5386 130.426 76.3466 134.685 76.7729C138.944 77.1978 139.88 75.7493 137.922 74.4734C135.964 73.1954 135.877 70.8116 133.833 72.6838C131.788 74.5571 130.256 73.0258 130.426 74.8132C130.596 76.6028 128.637 76.9427 127.19 77.1132C125.742 77.2847 128.383 78.9018 127.276 80.9459C126.169 82.9901 125.232 79.2428 124.634 78.1357C124.039 77.0284 121.741 73.5362 120.377 73.1956C119.015 72.8552 121.4 76.0916 122.676 76.8577C123.953 77.6239 123.528 80.5209 122.676 80.6059C121.826 80.6905 119.866 80.2639 121.144 79.4982C122.422 78.7321 122.081 76.6887 120.291 76.432C118.503 76.1763 119.098 74.3875 118.419 74.0464C117.736 73.707 115.607 74.1333 115.351 75.6651C115.097 77.1981 114.415 77.4547 112.796 77.5387C111.179 77.6239 111.093 78.9018 111.69 79.6673C112.285 80.4345 108.113 81.7978 107.176 80.4345C106.239 79.072 104.962 76.5178 106.495 75.2393C108.027 73.9623 111.093 76.0916 111.348 74.9011C111.605 73.707 109.133 72.1735 110.327 71.5774C111.518 70.9823 111.434 70.3864 112.455 69.6186C113.478 68.8528 112.796 67.4904 114.415 66.979C116.033 66.4663 117.652 66.637 118.588 65.5291C118.588 65.5291 118.816 64.7633 120.631 65.2173C122.449 65.6723 124.208 65.6723 124.606 65.0485C125.004 64.424 122.278 62.7208 123.358 61.9815C124.436 61.2431 126.991 61.4701 126.198 60.2213C125.402 58.9723 123.584 59.1412 123.869 57.6672C124.152 56.191 126.139 54.5997 125.685 53.6362C125.232 52.67 125.515 51.0241 124.493 51.989C123.471 52.9537 121.426 55.1124 121.938 56.191C122.448 57.2699 121.712 58.2926 122.506 59.0296C123.301 59.7664 123.301 60.1073 122.108 61.4143C120.916 62.719 120.009 64.4226 119.098 63.1163C118.189 61.8121 119.098 59.9387 117.113 61.3007C115.125 62.6631 114.444 61.1311 114.898 58.6879C115.351 56.2466 115.977 56.1338 117.453 54.7127C118.928 53.2952 119.158 51.5912 119.213 51.0241C119.268 50.4545 119.156 47.7872 122.562 47.1629C125.97 46.5388 128.126 44.6646 128.126 47.1629C128.126 49.6608 136.985 46.8783 134.941 50.7391C132.896 54.5995 130.796 50.7392 131.192 52.2727C131.591 53.8054 132.159 56.474 134.883 53.9759C137.61 51.476 136.472 48.9793 139.368 48.7521C142.264 48.5249 145.274 47.7303 144.594 46.8783C143.912 46.0268 144.706 45.0036 146.24 45.6299C147.772 46.2538 150.612 48.9219 149.476 46.5937C148.34 44.2673 147.034 41.8817 148.34 41.2565C149.646 40.632 150.271 40.5764 150.669 42.7904C151.067 45.0036 150.669 46.8783 151.576 48.4111C152.484 49.9433 153.622 48.7523 153.565 46.254C153.507 43.756 153.054 42.5069 154.7 42.223C156.346 41.9382 154.814 41.2007 154.019 39.6109C153.224 38.0214 154.814 37.8509 156.346 36.4304C157.88 35.0113 155.042 33.8188 157.538 32.1718C160.038 30.5256 161.06 30.9807 161.797 29.0503C162.535 27.1189 164.637 27.1189 164.977 28.6534C165.317 30.1871 168.554 30.5833 166.964 33.1384C165.373 35.6932 169.121 35.1828 169.803 33.5918C170.484 32.0014 173.494 33.9891 174.458 34.1587C175.425 34.3303 176.389 32.9115 177.809 32.2858C179.229 31.6604 179.512 34.5009 181.159 35.1828C182.806 35.8633 184.111 35.4091 184.509 33.819C184.906 32.2303 185.303 29.8447 188.596 30.8112C191.891 31.7763 193.025 32.4564 194.502 30.8681C195.978 29.2766 196.602 29.1061 198.194 30.3572C199.782 31.6048 199.156 32.7963 201.486 30.9234C203.815 29.0505 206.141 28.0847 208.696 29.2766C211.252 30.469 213.296 30.6959 213.296 30.6959Z" fill="#0C4745" stroke="#0C4745" stroke-width="2" mask="url(#path-17-inside-2_14_8761)"/>
<path d="M180.853 177.491C180.853 178.223 180.262 178.817 179.528 178.817H88.7092C87.9792 178.817 87.3848 178.223 87.3848 177.491V89.3275C87.3848 88.5948 87.9794 88 88.7092 88H179.528C180.261 88 180.853 88.5948 180.853 89.3275L180.853 177.491Z" fill="#DBAB33"/>
<path opacity="0.5" d="M105.247 105.565C111.269 99.6196 121.726 102.413 121.575 97.2154C121.446 92.738 94.8431 95.014 94.8431 95.014C94.2994 95.014 93.8582 95.4541 93.8582 95.9971C93.8582 95.9971 91.5559 121.839 94.6708 123.017C98.0602 124.3 99.3346 111.403 105.247 105.565Z" fill="white"/>
<path d="M170.62 170.457C170.62 171.359 169.89 172.091 168.989 172.091H148.842C147.937 172.091 147.207 171.359 147.207 170.457V152.487C147.207 151.585 147.937 150.854 148.842 150.854H168.989C169.89 150.854 170.62 151.585 170.62 152.487V170.457H170.62Z" fill="#DBAB33"/>
<path d="M120.594 157.24C120.594 157.984 119.991 158.588 119.246 158.588H98.968C98.2256 158.588 97.6191 157.984 97.6191 157.24C97.6191 156.495 98.2256 155.892 98.968 155.892H119.246C119.991 155.892 120.594 156.495 120.594 157.24Z" fill="#DBAB33"/>
<path d="M120.594 162.428C120.594 163.174 119.991 163.777 119.246 163.777H98.968C98.2256 163.777 97.6191 163.174 97.6191 162.428C97.6191 161.684 98.2256 161.08 98.968 161.08H119.246C119.991 161.08 120.594 161.684 120.594 162.428Z" fill="#DBAB33"/>
<path d="M120.594 167.618C120.594 168.362 119.991 168.965 119.246 168.965H98.968C98.2256 168.965 97.6191 168.362 97.6191 167.618C97.6191 166.873 98.2256 166.27 98.968 166.27H119.246C119.991 166.27 120.594 166.873 120.594 167.618Z" fill="#DBAB33"/>
<path d="M143.535 87.9688H124.959V110.968H143.535V87.9688Z" fill="white"/>
<path d="M179.528 88H170.548C170.007 99.6829 170.436 135.481 169.343 141.813C168.577 146.244 166.058 151.52 162.562 154.639C158.28 158.458 152.01 159.908 146.492 159.872C140.147 159.832 87.4165 159.841 87.4165 159.841L87.3848 177.491C87.3848 178.223 87.9794 178.817 88.7092 178.817H179.528C180.261 178.817 180.853 178.223 180.853 177.491V89.3275C180.853 88.5948 180.262 88 179.528 88Z" fill="#FFD66F"/>
<path d="M188.668 227.953C188.668 228.686 188.074 229.279 187.342 229.279H80.8978C80.1633 229.279 79.5703 228.686 79.5703 227.953V178.712C79.5703 177.978 80.1633 177.385 80.8978 177.385H187.342C188.074 177.385 188.668 177.978 188.668 178.712V227.953Z" fill="#DBAB33"/>
<path d="M180.555 224.099C180.555 224.825 179.965 225.413 179.239 225.413H163.025C162.299 225.413 161.709 224.825 161.709 224.099V209.636C161.709 208.91 162.298 208.322 163.025 208.322H179.239C179.965 208.322 180.555 208.91 180.555 209.636V224.099Z" fill="#DBAB33"/>
<path d="M108.51 212.289C108.51 212.946 107.979 213.479 107.32 213.479H89.4304C88.7731 213.479 88.2363 212.946 88.2363 212.289C88.2363 211.632 88.7731 211.1 89.4304 211.1H107.32C107.979 211.1 108.51 211.632 108.51 212.289Z" fill="#DBAB33"/>
<path d="M108.51 216.868C108.51 217.524 107.979 218.057 107.32 218.057H89.4304C88.7731 218.057 88.2363 217.524 88.2363 216.868C88.2363 216.211 88.7731 215.679 89.4304 215.679H107.32C107.979 215.679 108.51 216.211 108.51 216.868Z" fill="#DBAB33"/>
<path d="M108.51 221.446C108.51 222.102 107.979 222.636 107.32 222.636H89.4304C88.7731 222.636 88.2363 222.102 88.2363 221.446C88.2363 220.788 88.7731 220.256 89.4304 220.256H107.32C107.979 220.256 108.51 220.788 108.51 221.446Z" fill="#DBAB33"/>
<path d="M143.409 177.385H124.83V197.729H143.409V177.385Z" fill="white"/>
<path opacity="0.5" d="M93.1917 189.406C97.7487 184.904 105.665 187.019 105.551 183.086C105.453 179.695 85.3133 181.417 85.3133 181.417C84.9045 181.417 84.57 181.751 84.57 182.162C84.57 182.162 82.8271 201.724 85.1821 202.616C87.7502 203.589 88.7159 193.825 93.1917 189.406Z" fill="white"/>
<path d="M187.342 177.385H178.957C179.143 184.363 179.11 191.332 178.096 198.289C177.363 203.293 175.824 208.878 171.012 211.492C166.973 213.686 162.612 214.352 158.148 214.352C144.841 214.352 92.3967 214.399 79.5703 214.441V227.953C79.5703 228.686 80.1633 229.279 80.8978 229.279H187.342C188.074 229.279 188.668 228.686 188.668 227.953V178.712C188.668 177.978 188.074 177.385 187.342 177.385Z" fill="#FFD66F"/>
<path d="M111.819 228.04C111.819 229.017 111.028 229.809 110.051 229.809H38.7165C37.7395 229.809 36.9492 229.017 36.9492 228.04V140.201C36.9492 139.225 37.7397 138.433 38.7165 138.433H110.051C111.028 138.433 111.819 139.225 111.819 140.201V228.04Z" fill="#00837E"/>
<path d="M106.395 143.296H41.7812V224.946H106.395V143.296Z" fill="white"/>
<path d="M59.8438 125.76V144.81H89.1911V125.76H59.8438ZM85.4189 141.365H63.6169V128.901H85.4189V141.365Z" fill="white"/>
<path d="M92.5459 140.54H56.4863V148.153H92.5459V140.54Z" fill="#DBAB33"/>
<path d="M61.2547 166.778C61.2547 166.964 61.1056 167.115 60.9182 167.115H49.8006C49.6161 167.115 49.4629 166.964 49.4629 166.778V155.998C49.4629 155.811 49.6161 155.66 49.8006 155.66H60.9182C61.1056 155.66 61.2547 155.811 61.2547 155.998V166.778Z" fill="#00837E"/>
<path d="M100.09 158.752C100.09 159.525 99.3721 160.151 98.49 160.151H69.3064C68.4196 160.151 67.7031 159.525 67.7031 158.752C67.7031 157.98 68.4198 157.354 69.3064 157.354H98.4901C99.372 157.353 100.09 157.98 100.09 158.752Z" fill="#0B837A"/>
<path d="M100.09 164.024C100.09 164.796 99.3721 165.422 98.49 165.422H69.3064C68.4196 165.422 67.7031 164.796 67.7031 164.024C67.7031 163.252 68.4198 162.626 69.3064 162.626H98.4901C99.372 162.626 100.09 163.252 100.09 164.024Z" fill="#0B837A"/>
<path d="M61.2547 184.023C61.2547 184.207 61.1056 184.359 60.9182 184.359H49.8006C49.6161 184.359 49.4629 184.207 49.4629 184.023V173.242C49.4629 173.056 49.6161 172.904 49.8006 172.904H60.9182C61.1056 172.904 61.2547 173.056 61.2547 173.242V184.023Z" fill="#00837E"/>
<path d="M100.09 175.996C100.09 176.768 99.3721 177.394 98.49 177.394H69.3064C68.4196 177.394 67.7031 176.768 67.7031 175.996C67.7031 175.222 68.4198 174.598 69.3064 174.598H98.4901C99.372 174.598 100.09 175.222 100.09 175.996Z" fill="#0B837A"/>
<path d="M100.09 181.267C100.09 182.041 99.3721 182.665 98.49 182.665H69.3064C68.4196 182.665 67.7031 182.041 67.7031 181.267C67.7031 180.496 68.4198 179.869 69.3064 179.869H98.4901C99.372 179.869 100.09 180.496 100.09 181.267Z" fill="#0B837A"/>
<path d="M61.2547 201.266C61.2547 201.451 61.1056 201.603 60.9182 201.603H49.8006C49.6161 201.603 49.4629 201.451 49.4629 201.266V190.485C49.4629 190.301 49.6161 190.148 49.8006 190.148H60.9182C61.1056 190.148 61.2547 190.301 61.2547 190.485V201.266Z" fill="#00837E"/>
<path d="M100.09 193.239C100.09 194.012 99.3721 194.638 98.49 194.638H69.3064C68.4196 194.638 67.7031 194.012 67.7031 193.239C67.7031 192.468 68.4198 191.842 69.3064 191.842H98.4901C99.372 191.842 100.09 192.468 100.09 193.239Z" fill="#0B837A"/>
<path d="M100.09 198.512C100.09 199.283 99.3721 199.911 98.49 199.911H69.3064C68.4196 199.911 67.7031 199.283 67.7031 198.512C67.7031 197.738 68.4198 197.112 69.3064 197.112H98.4901C99.372 197.112 100.09 197.738 100.09 198.512Z" fill="#0B837A"/>
<path d="M61.2547 218.51C61.2547 218.695 61.1056 218.846 60.9182 218.846H49.8006C49.6161 218.846 49.4629 218.695 49.4629 218.51V207.728C49.4629 207.544 49.6161 207.392 49.8006 207.392H60.9182C61.1056 207.392 61.2547 207.544 61.2547 207.728V218.51Z" fill="#00837E"/>
<path d="M100.09 210.482C100.09 211.257 99.3721 211.882 98.49 211.882H69.3064C68.4196 211.882 67.7031 211.256 67.7031 210.482C67.7031 209.711 68.4198 209.084 69.3064 209.084H98.4901C99.372 209.084 100.09 209.711 100.09 210.482Z" fill="#0B837A"/>
<path d="M100.09 215.754C100.09 216.526 99.3721 217.154 98.49 217.154H69.3064C68.4196 217.154 67.7031 216.526 67.7031 215.754C67.7031 214.983 68.4198 214.356 69.3064 214.356H98.4901C99.372 214.357 100.09 214.983 100.09 215.754Z" fill="#0B837A"/>
<path d="M110.051 138.433H98.8455C99.8847 143.225 100.428 148.141 100.428 153.097C100.428 171.481 93.035 189.315 80.0438 202.306C68.4972 213.852 53.1275 220.97 36.9492 222.412V228.04C36.9492 229.018 37.7397 229.809 38.7165 229.809H110.051C111.028 229.809 111.819 229.018 111.819 228.04V140.202C111.819 139.225 111.028 138.433 110.051 138.433Z" fill="#0C4745"/>
<path d="M52.3808 154.156C56.7279 149.866 64.2694 151.882 64.1614 148.132C64.0685 144.901 44.8749 146.543 44.8749 146.543C44.4855 146.543 44.1662 146.861 44.1662 147.254C44.1662 147.254 42.5071 165.896 44.753 166.746C47.1975 167.672 48.1205 158.367 52.3808 154.156Z" fill="white"/>
</svg>
