<svg width="235" height="235" viewBox="0 0 235 235" fill="none" xmlns="http://www.w3.org/2000/svg">
<g clip-path="url(#clip0_70_22488)">
<path d="M58.75 161.562C56.7221 161.562 55.0781 159.919 55.0781 157.891C55.0781 155.863 56.7221 154.219 58.75 154.219C60.7779 154.219 62.4219 155.863 62.4219 157.891C62.4219 159.919 60.7779 161.562 58.75 161.562Z" fill="white"/>
<path d="M36.834 61.2796C37.3407 59.3114 39.3382 58.1438 41.3063 58.6358L48.6501 60.5232C50.6109 61.0299 51.7932 63.031 51.2938 64.9918C50.8679 66.6515 49.3771 67.7494 47.7395 67.7494C47.4347 67.7494 47.1299 67.7127 46.8215 67.6356L39.4777 65.7482C37.517 65.2452 36.3346 63.244 36.834 61.2796Z" fill="#DBAB33"/>
<mask id="path-3-inside-1_70_22488" fill="white">
<path d="M3.67252 128.517H18.36C20.3906 128.517 22.0319 130.162 22.0319 132.189V183.595C22.0319 185.619 23.6769 187.267 25.7038 187.267H33.0475V176.252C33.0475 172.202 36.3412 168.908 40.3913 168.908H44.1696C43.7547 168.357 43.3031 167.839 42.9469 167.237C40.45 163.015 39.7487 158.076 40.9677 153.325C42.0399 149.157 44.5111 145.753 47.702 143.337C39.8148 139.695 35.3718 130.845 37.6043 122.132L38.5186 118.578L34.9606 117.663C26.4124 115.464 19.2302 110.074 14.7359 102.473C10.2415 94.872 8.98204 85.9824 11.1741 77.4342L15.742 59.6514L5.0715 56.9121C3.11072 56.4054 1.92836 54.4042 2.42775 52.4435L5.16696 41.773C12.731 12.3576 42.8184 -5.42529 72.2227 2.12776L129.122 16.7418L131.861 6.07503C132.368 4.1069 134.373 2.94659 136.334 3.43128L164.787 10.7383C165.731 10.9806 166.539 11.5865 167.031 12.4274C167.53 13.2646 167.669 14.2633 167.427 15.2107L164.688 25.8774L232.261 43.2307C234.222 43.7374 235.405 45.7386 234.905 47.6994L233.08 54.8155C231.112 62.4787 225.314 68.1407 218.264 70.3402C217.945 79.8173 216.355 90.3996 213.634 101C209.749 116.117 203.977 129.843 197.382 139.643C189.664 151.107 183.055 154.096 178.259 154.096C177.238 154.096 176.295 153.96 175.443 153.743C175.057 153.644 174.664 153.512 174.264 153.361C174.062 153.343 173.864 153.336 173.662 153.284L136.323 143.693H136.315L95.4216 133.192L94.511 136.746C92.385 145.022 84.9054 150.541 76.7208 150.541C76.2985 150.541 75.8689 150.49 75.4467 150.46C77.132 154.232 77.5727 158.399 76.5335 162.457C75.913 164.876 74.7894 167.024 73.3684 168.904H77.11C81.1601 168.904 84.4538 172.198 84.4538 176.248V187.264C84.4538 191.314 81.1601 194.607 77.11 194.607H73.4381V198.279C73.4381 208.403 65.2021 216.639 55.0788 216.639H29.3756V231.326C29.3756 233.353 27.7343 234.998 25.7038 234.998H3.67252C1.64197 234.998 0.000656128 233.353 0.000656128 231.326V212.967V132.189C0.000656128 130.162 1.64197 128.517 3.67252 128.517ZM138.063 11.458L136.238 18.5704L157.575 24.0525L159.4 16.9401L138.063 11.458ZM170.332 130.162C171.165 139.434 173.824 145.746 177.275 146.631C180.719 147.53 186.091 143.267 191.291 135.545C197.43 126.421 202.842 113.503 206.518 99.1754C208.993 89.5404 210.45 79.9789 210.843 71.3389C209.323 71.2765 207.788 71.0672 206.257 70.6743L203.602 69.9914C203.382 76.4906 202.402 85.696 199.409 97.3468C194.463 116.595 187.894 127.691 184.417 132.593C183.719 133.581 182.596 134.139 181.424 134.139C181.12 134.139 180.815 134.102 180.51 134.025C179.038 133.647 177.951 132.399 177.778 130.889C177.091 124.923 176.68 112.042 181.626 92.779C184.119 83.0816 187.424 74.2177 191.18 66.8005L183.899 64.9315C180.176 72.5874 176.934 81.5431 174.514 90.9541C170.827 105.282 169.344 119.206 170.332 130.162ZM196.071 73.4319C193.718 78.5762 191.052 85.5931 188.735 94.6076C186.455 103.494 185.375 110.878 184.946 116.738C187.395 111.395 190.013 104.404 192.293 95.5219C194.595 86.5625 195.645 79.149 196.071 73.4319ZM138.148 136.581L165.745 143.668C164.482 140.436 163.502 136.258 163.014 130.816C161.956 119.048 163.513 104.243 167.394 89.1255C169.795 79.7806 173.001 70.8689 176.666 63.0735L144.79 54.8853C141.063 62.5521 137.81 71.4638 135.386 80.9005C127.187 112.849 131.465 134.862 138.148 136.581ZM93.6922 125.165L126.717 133.647C121.8 121.074 123.122 99.135 128.274 79.0756C130.683 69.7086 133.888 60.83 137.556 53.031L131.568 51.4924C123.724 49.4729 115.705 54.2206 113.689 62.0601C112.228 67.7589 108.629 72.5507 103.562 75.5432C100.118 77.5774 96.2845 78.6203 92.385 78.6203C90.5491 78.6203 88.6948 78.3889 86.8662 77.9189L61.5045 71.405C59.5438 70.8983 58.3614 68.8971 58.8608 66.9364C59.3675 64.9719 61.3687 63.7932 63.3331 64.2926L88.6948 70.8065C92.4952 71.7869 96.4424 71.2214 99.8242 69.2239C103.202 67.2301 105.596 64.0356 106.573 60.2352C109.599 48.4668 121.639 41.3617 133.396 44.38L208.086 63.5619C215.933 65.5704 223.948 60.8337 225.964 52.9906L226.878 49.4325L159.309 32.0792L130.852 24.7722C130.848 24.7722 130.844 24.7685 130.841 24.7685L70.3941 9.24385C44.9187 2.68588 18.8337 18.1114 12.2867 43.6016L10.4581 50.7177L21.1249 53.4569H21.1286L27.9142 55.1974C29.8787 55.7041 31.061 57.7053 30.558 59.6697C30.0476 61.6378 28.0391 62.8055 26.0856 62.3135L22.858 61.4836L18.2939 79.2665C14.7652 92.992 23.0674 107.03 36.7928 110.555L43.8979 112.379C43.9016 112.379 43.9052 112.379 43.9089 112.379C43.9126 112.379 43.9126 112.383 43.9163 112.383L93.6922 125.165ZM73.9852 142.849C79.8676 144.35 85.8858 140.8 87.3949 134.921L88.3056 131.367L45.6273 120.406L44.713 123.961C43.2039 129.847 46.762 135.861 52.6443 137.37L73.9852 142.849ZM49.2699 163.499C50.7643 166.033 53.162 167.828 56.0114 168.559C58.8535 169.286 61.824 168.871 64.3539 167.373C66.8875 165.875 68.6867 163.481 69.4174 160.632C70.1481 157.782 69.7295 154.819 68.2314 152.285C66.737 149.752 64.3392 147.956 61.4899 147.226C60.5755 146.991 59.6502 146.873 58.7286 146.873C56.7862 146.873 54.8621 147.394 53.1437 148.408C50.6101 149.906 48.8109 152.3 48.0802 155.149C47.3531 158.003 47.7717 160.966 49.2699 163.499ZM69.7663 187.267H77.11V176.252H58.769H58.747H58.7176H40.3913L40.3876 187.267H69.7663ZM7.34439 227.658H22.0319V216.642H7.34439V227.658ZM7.34439 209.299H25.7038H55.0788C61.152 209.299 66.0944 204.356 66.0944 198.283V194.611H40.3913H25.7038C19.6305 194.611 14.6881 189.669 14.6881 183.595V135.861H7.34439V209.299Z"/>
</mask>
<path d="M3.67252 128.517H18.36C20.3906 128.517 22.0319 130.162 22.0319 132.189V183.595C22.0319 185.619 23.6769 187.267 25.7038 187.267H33.0475V176.252C33.0475 172.202 36.3412 168.908 40.3913 168.908H44.1696C43.7547 168.357 43.3031 167.839 42.9469 167.237C40.45 163.015 39.7487 158.076 40.9677 153.325C42.0399 149.157 44.5111 145.753 47.702 143.337C39.8148 139.695 35.3718 130.845 37.6043 122.132L38.5186 118.578L34.9606 117.663C26.4124 115.464 19.2302 110.074 14.7359 102.473C10.2415 94.872 8.98204 85.9824 11.1741 77.4342L15.742 59.6514L5.0715 56.9121C3.11072 56.4054 1.92836 54.4042 2.42775 52.4435L5.16696 41.773C12.731 12.3576 42.8184 -5.42529 72.2227 2.12776L129.122 16.7418L131.861 6.07503C132.368 4.1069 134.373 2.94659 136.334 3.43128L164.787 10.7383C165.731 10.9806 166.539 11.5865 167.031 12.4274C167.53 13.2646 167.669 14.2633 167.427 15.2107L164.688 25.8774L232.261 43.2307C234.222 43.7374 235.405 45.7386 234.905 47.6994L233.08 54.8155C231.112 62.4787 225.314 68.1407 218.264 70.3402C217.945 79.8173 216.355 90.3996 213.634 101C209.749 116.117 203.977 129.843 197.382 139.643C189.664 151.107 183.055 154.096 178.259 154.096C177.238 154.096 176.295 153.96 175.443 153.743C175.057 153.644 174.664 153.512 174.264 153.361C174.062 153.343 173.864 153.336 173.662 153.284L136.323 143.693H136.315L95.4216 133.192L94.511 136.746C92.385 145.022 84.9054 150.541 76.7208 150.541C76.2985 150.541 75.8689 150.49 75.4467 150.46C77.132 154.232 77.5727 158.399 76.5335 162.457C75.913 164.876 74.7894 167.024 73.3684 168.904H77.11C81.1601 168.904 84.4538 172.198 84.4538 176.248V187.264C84.4538 191.314 81.1601 194.607 77.11 194.607H73.4381V198.279C73.4381 208.403 65.2021 216.639 55.0788 216.639H29.3756V231.326C29.3756 233.353 27.7343 234.998 25.7038 234.998H3.67252C1.64197 234.998 0.000656128 233.353 0.000656128 231.326V212.967V132.189C0.000656128 130.162 1.64197 128.517 3.67252 128.517ZM138.063 11.458L136.238 18.5704L157.575 24.0525L159.4 16.9401L138.063 11.458ZM170.332 130.162C171.165 139.434 173.824 145.746 177.275 146.631C180.719 147.53 186.091 143.267 191.291 135.545C197.43 126.421 202.842 113.503 206.518 99.1754C208.993 89.5404 210.45 79.9789 210.843 71.3389C209.323 71.2765 207.788 71.0672 206.257 70.6743L203.602 69.9914C203.382 76.4906 202.402 85.696 199.409 97.3468C194.463 116.595 187.894 127.691 184.417 132.593C183.719 133.581 182.596 134.139 181.424 134.139C181.12 134.139 180.815 134.102 180.51 134.025C179.038 133.647 177.951 132.399 177.778 130.889C177.091 124.923 176.68 112.042 181.626 92.779C184.119 83.0816 187.424 74.2177 191.18 66.8005L183.899 64.9315C180.176 72.5874 176.934 81.5431 174.514 90.9541C170.827 105.282 169.344 119.206 170.332 130.162ZM196.071 73.4319C193.718 78.5762 191.052 85.5931 188.735 94.6076C186.455 103.494 185.375 110.878 184.946 116.738C187.395 111.395 190.013 104.404 192.293 95.5219C194.595 86.5625 195.645 79.149 196.071 73.4319ZM138.148 136.581L165.745 143.668C164.482 140.436 163.502 136.258 163.014 130.816C161.956 119.048 163.513 104.243 167.394 89.1255C169.795 79.7806 173.001 70.8689 176.666 63.0735L144.79 54.8853C141.063 62.5521 137.81 71.4638 135.386 80.9005C127.187 112.849 131.465 134.862 138.148 136.581ZM93.6922 125.165L126.717 133.647C121.8 121.074 123.122 99.135 128.274 79.0756C130.683 69.7086 133.888 60.83 137.556 53.031L131.568 51.4924C123.724 49.4729 115.705 54.2206 113.689 62.0601C112.228 67.7589 108.629 72.5507 103.562 75.5432C100.118 77.5774 96.2845 78.6203 92.385 78.6203C90.5491 78.6203 88.6948 78.3889 86.8662 77.9189L61.5045 71.405C59.5438 70.8983 58.3614 68.8971 58.8608 66.9364C59.3675 64.9719 61.3687 63.7932 63.3331 64.2926L88.6948 70.8065C92.4952 71.7869 96.4424 71.2214 99.8242 69.2239C103.202 67.2301 105.596 64.0356 106.573 60.2352C109.599 48.4668 121.639 41.3617 133.396 44.38L208.086 63.5619C215.933 65.5704 223.948 60.8337 225.964 52.9906L226.878 49.4325L159.309 32.0792L130.852 24.7722C130.848 24.7722 130.844 24.7685 130.841 24.7685L70.3941 9.24385C44.9187 2.68588 18.8337 18.1114 12.2867 43.6016L10.4581 50.7177L21.1249 53.4569H21.1286L27.9142 55.1974C29.8787 55.7041 31.061 57.7053 30.558 59.6697C30.0476 61.6378 28.0391 62.8055 26.0856 62.3135L22.858 61.4836L18.2939 79.2665C14.7652 92.992 23.0674 107.03 36.7928 110.555L43.8979 112.379C43.9016 112.379 43.9052 112.379 43.9089 112.379C43.9126 112.379 43.9126 112.383 43.9163 112.383L93.6922 125.165ZM73.9852 142.849C79.8676 144.35 85.8858 140.8 87.3949 134.921L88.3056 131.367L45.6273 120.406L44.713 123.961C43.2039 129.847 46.762 135.861 52.6443 137.37L73.9852 142.849ZM49.2699 163.499C50.7643 166.033 53.162 167.828 56.0114 168.559C58.8535 169.286 61.824 168.871 64.3539 167.373C66.8875 165.875 68.6867 163.481 69.4174 160.632C70.1481 157.782 69.7295 154.819 68.2314 152.285C66.737 149.752 64.3392 147.956 61.4899 147.226C60.5755 146.991 59.6502 146.873 58.7286 146.873C56.7862 146.873 54.8621 147.394 53.1437 148.408C50.6101 149.906 48.8109 152.3 48.0802 155.149C47.3531 158.003 47.7717 160.966 49.2699 163.499ZM69.7663 187.267H77.11V176.252H58.769H58.747H58.7176H40.3913L40.3876 187.267H69.7663ZM7.34439 227.658H22.0319V216.642H7.34439V227.658ZM7.34439 209.299H25.7038H55.0788C61.152 209.299 66.0944 204.356 66.0944 198.283V194.611H40.3913H25.7038C19.6305 194.611 14.6881 189.669 14.6881 183.595V135.861H7.34439V209.299Z" fill="url(#paint0_linear_70_22488)" stroke="#0C4745" stroke-width="4" mask="url(#path-3-inside-1_70_22488)"/>
</g>
<defs>
<linearGradient id="paint0_linear_70_22488" x1="82.6179" y1="73.4391" x2="117.501" y2="179.923" gradientUnits="userSpaceOnUse">
<stop stop-color="#DBAB33"/>
<stop offset="1" stop-color="white"/>
</linearGradient>
<clipPath id="clip0_70_22488">
<rect width="235" height="235" fill="white" transform="matrix(-1 0 0 1 235 0)"/>
</clipPath>
</defs>
</svg>
