<svg width="296" height="233" viewBox="0 0 296 233" fill="none" xmlns="http://www.w3.org/2000/svg">
<path d="M137.468 185.71C138.017 188.961 138.002 192.507 137.972 195.632C137.952 197.687 137.835 199.739 137.618 201.783C137.478 203.103 136.385 206.133 136.784 207.321C135.818 204.445 135.233 201.459 134.622 198.486C131.964 185.533 128.797 172.684 125.134 159.978C121.845 148.574 119.773 136.959 113.722 126.512C114.123 127.204 116.201 128.257 116.892 128.93C117.899 129.909 118.608 130.87 119.316 132.066C121.26 135.351 122.543 139.172 123.97 142.699C125.363 146.146 126.756 149.593 128.15 153.039C129.181 155.591 130.213 158.144 131.09 160.753C133.529 168.01 134.562 175.666 136.81 182.9C137.089 183.797 137.304 184.74 137.468 185.71Z" fill="white"/>
<path d="M207.936 82.7758C201.134 76.8969 191.743 75.3822 183.125 72.814C171.788 69.4358 160.131 62.7601 156.564 51.4841C155.212 47.2119 155.158 42.6524 154.415 38.233C153.674 33.8146 152.037 29.2336 148.433 26.5703C151.408 33.1273 149.931 40.4207 151.077 47.53C152.694 57.5532 158.907 66.7408 167.608 71.9753C173.715 75.6502 180.791 77.3797 187.158 80.5881C195.949 85.0188 203.261 92.3234 207.699 101.108C208.089 97.1479 207.034 94.413 204.951 91.0214C202.868 87.6299 200.081 84.7355 197.319 81.8707C198.154 82.737 202.237 83.6595 203.658 84.5943C205.882 86.0589 207.988 87.6524 209.869 89.5446C213.852 93.5487 216.829 98.5634 218.36 104.005C217.89 102.333 218.64 99.9339 218.218 98.0643C217.72 95.8643 216.678 94.4263 215.527 92.6129C213.32 89.1416 211.105 85.5148 207.936 82.7758Z" fill="#DBAB33"/>
<path d="M210 109.626C205.148 105.922 202.184 100.341 198.809 95.2552C195.433 90.1689 191.078 85.1502 185.135 83.75C191.847 87.6539 194.651 96.3721 198.975 102.821C201.323 106.325 204.906 110.565 208.824 112.385C212.952 114.301 216.403 114.501 219.867 118.156C222.162 120.577 223.973 123.408 225.768 126.219C223.684 122.956 223.267 118.952 220.35 116.015C217.507 113.155 213.269 112.123 210 109.626Z" fill="#DBAB33"/>
<path d="M236.937 157.575C237.471 153.69 236.451 149.6 234.118 146.442C236.672 149.898 240.253 149.78 243.995 149.662C246.554 149.581 248.993 149.643 251.52 149.094C253.322 148.704 255.593 147.191 257.329 147.097C241.153 147.975 227.943 141.378 220.213 126.889C218.01 122.761 215.019 118.57 210.524 117.266C214.754 119.958 216.43 124.122 218.077 128.858C219.602 133.245 219.898 138.342 223.124 141.684C225.116 143.748 227.939 144.795 230.143 146.63C233.735 149.62 235.31 154.327 236.719 158.782C236.808 158.381 236.881 157.979 236.937 157.575Z" fill="#DBAB33"/>
<path d="M181.371 61.3342C185.276 63.3788 188.402 66.8726 190 70.979C185.051 66.9523 179.579 63.569 173.764 60.9425C177.793 64.4445 181.822 67.9465 185.85 71.4485C181.085 67.3062 173.758 67.162 168.67 63.3276C163.697 59.5802 160.079 53.9938 158.901 47.8633C160.767 57.5868 174.806 57.8957 181.371 61.3342Z" fill="#DBAB33"/>
<path d="M170.001 45.8492C173.801 47.5419 177.557 49.7593 179.849 53.2306C173.331 50.9937 160.788 49.1149 157.412 42.3104C156.728 40.9337 156.346 39.3945 155.425 38.1641C160.033 42.7522 164.377 43.3434 170.001 45.8492Z" fill="#DBAB33"/>
<path d="M247.246 138.023C239.369 140.725 227.931 137.196 226.647 128.012C229.709 130.54 233.076 132.563 236.657 134.264C238.733 135.25 245.233 138.713 247.246 138.023Z" fill="#DBAB33"/>
<path d="M147.528 39.5125C144.658 38.0417 142.016 36.1291 139.722 33.8637C141.268 36.1741 142.814 38.4856 144.36 40.796C146.295 43.6884 148.259 46.6156 150.859 48.9302C143.41 45.7913 139.821 41.6838 137.68 34.1552C136.271 29.2008 132.915 24.8275 128.493 22.1836C131.715 23.0775 134.978 23.9878 137.864 25.6743C143.16 28.7682 144.517 34.5499 147.528 39.5125Z" fill="#DBAB33"/>
<path d="M212.057 124.076C213.66 128.858 212.81 134.097 213.563 139.085C212.174 129.879 207.744 120.79 200.462 114.816C202.543 115.122 204.576 115.757 206.462 116.69C209.154 118.022 211.128 121.304 212.057 124.076Z" fill="#DBAB33"/>
<path d="M143.355 57.952C139.398 54.1902 135.269 51.5014 130.947 48.1641C146.009 64.8107 160.846 81.7816 174.777 99.3917C187.324 115.253 200.111 130.871 211.495 147.803C209.373 144.647 208.802 139.833 206.736 136.392C204.574 132.788 201.721 129.724 199.491 126.222C194.153 117.841 188.488 109.67 182.489 101.747C170.659 86.1223 157.561 71.4557 143.355 57.952Z" fill="#DBAB33"/>
<path d="M115.051 37.5082C122.42 29.324 120.454 16.7377 113.199 9.25917C110.506 6.48234 106.89 3.86404 106.706 0C106.962 5.67435 107.436 10.6808 111.575 14.7535C115.497 18.6145 116.871 21.9958 117.313 27.7366C117.576 31.1598 117.269 34.8899 115.051 37.5082Z" fill="#DBAB33"/>
<path d="M80.1243 29.7602C73.4889 31.4355 66.4616 26.5323 62.7459 21.2732C61.6441 19.7135 60.752 18.0054 59.5479 16.5234C61.5141 18.9443 65.9184 20.9838 68.3747 23.1674C71.717 26.1385 75.9912 28.0552 80.1243 29.7602Z" fill="#DBAB33"/>
<path d="M71.5699 104.664C71.9586 101.978 72.3576 99.2943 72.7924 96.6146C73.9873 89.2588 74.6513 82.0125 76.7506 74.7508C76.6053 78.9462 76.7874 83.1539 77.2948 87.3217C79.2632 83.9772 80.2044 80.147 81.5752 76.5171C84.7579 68.0884 90.8778 62.5378 99.4468 60.3194C97.9235 60.7142 96.6283 61.8966 96.0963 63.3776C101.164 61.7268 106.944 61.332 111.649 63.8368C107.883 61.8321 105.155 57.0404 100.432 56.9873C95.3413 56.93 91.3852 61.0661 86.5452 62.0398C82.0776 62.9388 71.9975 59.0635 73.3357 53.0547C67.0849 54.8977 63.0592 62.2689 61.5052 68.1478C60.4351 72.1939 60.7665 76.782 63.2167 80.1756C62.4648 75.8513 63.9502 72.8034 67.1974 70.0491C66.7033 70.4684 67.6383 76.0835 67.6731 76.9651C67.758 79.1518 67.8941 81.3538 67.9892 83.517C68.2092 88.5102 67.8 93.6261 67.3416 98.5958C66.4342 108.442 64.5835 118.202 61.8152 127.696C60.3717 132.647 58.08 137.144 56.2692 141.93C55.2585 144.602 54.6303 147.417 54.3725 150.261C54.1444 152.777 55.106 155.982 54.6273 158.337C55.4713 154.19 56.6539 150.111 58.1598 146.156C56.7818 149.502 59.4049 156.345 62.1303 158.395C62.9753 159.031 64.1733 159.514 65.0511 158.923C65.672 158.506 65.8848 157.704 66.0158 156.967C66.5498 153.946 66.4659 150.835 67.1186 147.838C67.7703 144.841 69.3642 141.807 72.1602 140.544C74.9551 139.28 78.9563 140.691 79.477 143.713C80.3803 140.825 78.3291 137.652 75.5976 136.348C73.3479 135.274 70.5202 135.535 68.0762 135.308C70.1499 133.27 73.1996 132.272 76.0774 132.689C73.9014 131.214 71.5075 130.06 68.998 129.278C69.5289 121.045 70.3883 112.831 71.5699 104.664Z" fill="white"/>
<path d="M104.482 54.0469C103.202 52.2765 99.6373 51.7426 98.1079 49.4465C96.9365 47.6884 96.159 45.0793 95.7232 43.047C94.5313 37.4821 95.8756 31.3598 99.4358 26.8984C98.1058 28.494 98.8925 39.094 99.0675 41.3738C99.4092 45.829 101.89 50.4652 104.482 54.0469Z" fill="#DBAB33"/>
<path d="M135.271 101.939C133.945 103.814 132.273 105.434 130.229 106.813C128.091 108.255 125.974 109.7 123.645 110.852C121.527 111.898 118.443 112.42 116.568 113.774C122.387 109.567 127.569 104.48 131.88 98.7389C128.764 101.446 124.84 103.211 120.745 103.744C125.805 99.7382 128.9 93.3612 128.918 86.9085C127.102 90.4115 123.837 93.1341 120.065 94.2919C126.833 85.3621 129.558 73.4866 127.361 62.5C132.096 66.2055 135.756 71.2365 137.932 76.8331C140.222 82.7254 139.914 89.4685 138.242 95.5264C137.58 97.9299 136.598 100.062 135.271 101.939Z" fill="#DBAB33"/>
<path d="M94.0074 151.128C93.3077 152.392 92.5036 153.706 91.7424 155.17C90.3981 157.755 89.9551 160.707 88.9035 163.424C87.9029 166.01 86.0481 168.714 83.1877 169.285C85.3218 166.216 86.8778 161.039 86.9003 157.326C86.2712 157.585 82.3785 159.107 82.2588 159.755C82.891 156.336 85.3658 155.232 87.4784 152.943C89.7649 150.466 89.4324 146.242 89.2758 143.014C88.2037 145.018 86.8165 146.851 85.1806 148.43C86.0727 145.336 86.7459 142.179 87.1929 138.991C86.1095 140.312 84.7663 141.418 83.2614 142.229C83.7852 138.132 84.2936 133.869 82.979 129.953C83.0793 130.252 85.5919 131.156 86.0052 131.421C87.2564 132.222 88.1679 133.271 89.2666 134.239C91.3086 136.037 93.1378 137.639 94.4913 140.102C97.0131 144.688 95.8888 147.727 94.0074 151.128Z" fill="#DBAB33"/>
<path d="M93.112 165.472C91.8424 166.962 90.0111 168.051 88.1113 168.434C88.6464 166.462 90.362 164.855 91.3411 163.058C92.804 160.373 93.7821 157.244 94.7294 154.348C93.4168 158.359 96.2241 161.832 93.112 165.472Z" fill="#DBAB33"/>
<path d="M77.4513 144.344C81.9363 146.599 82.8918 152.49 81.0094 156.711C80.4549 157.955 79.7368 159.113 78.7086 159.996C77.7357 160.833 75.2057 160.939 74.5898 161.62C78.7291 157.048 79.8964 150.007 77.4513 144.344Z" fill="#DBAB33"/>
<path d="M71.1905 168.381C71.2375 167.871 71.2631 167.37 70.9429 167C70.724 166.747 70.3915 166.63 70.0754 166.518C66.2594 165.166 62.6859 163.134 59.5718 160.546C58.6173 159.754 57.629 158.73 57.7047 157.492C55.6392 165.875 67.8901 164.089 67.1137 169.817C67.038 170.373 66.7403 170.903 66.7955 171.461C66.9039 172.576 68.2431 173.063 69.349 173.236C72.8315 173.782 76.4111 173.704 79.8669 173.007C77.8024 172.371 71.1639 171.988 71.1424 169.086C71.1424 168.857 71.169 168.618 71.1905 168.381Z" fill="white"/>
<path d="M103.547 74.7004C105.641 75.2916 108.533 74.5449 110.044 72.9248C112.013 70.8159 110.131 69.9649 110.399 67.9961C109.984 71.0501 106.541 74.1839 103.547 74.7004Z" fill="#DBAB33"/>
<path d="M79.3972 74.6484C79.2417 75.1158 79.0852 75.5833 78.9297 76.0507L79.3972 74.6484Z" fill="#DBAB33"/>
<path d="M104.804 112.554C104.358 108.19 103.308 103.835 103.719 99.4668C104.172 94.6587 106.379 90.1247 106.649 85.3024C106.677 84.8094 106.653 84.2438 106.275 83.9267C106 83.6976 105.615 83.668 105.257 83.668C102.747 83.668 100.292 84.6253 98.2621 86.0991C95.2114 88.3144 93.1244 91.5863 91.1775 94.8142C88.6711 98.9697 86.271 103.189 83.9814 107.467C87.5928 103.234 91.2041 98.9994 94.8165 94.7661C91.1857 102.028 88.3672 109.696 86.4286 117.579C89.3013 113.109 92.6119 108.919 96.2969 105.09C93.7065 111.557 91.7607 118.282 90.4993 125.132C93.196 121.88 95.8928 118.627 98.5905 115.374C98.48 121.05 97.4181 126.706 95.4631 132.036C96.2825 129.802 99.4939 128.392 100.893 126.509C103.707 122.722 105.28 117.208 104.804 112.554Z" fill="#DBAB33"/>
<path d="M116.81 121.708C120.026 120.273 123.527 119.567 126.761 118.17C135.853 114.242 142.101 104.501 141.875 94.6016C140.307 98.7387 138.721 102.913 136.314 106.625C133.907 110.338 130.581 113.605 126.435 115.15C122.297 116.692 117.938 116.993 113.829 118.708C109.878 120.357 106.51 123.283 103.995 126.717C100.662 131.268 98.7102 136.69 97.373 142.17C98.4258 137.857 103.217 133.605 106.065 130.438C109.254 126.892 112.312 123.716 116.81 121.708Z" fill="#DBAB33"/>
<path d="M163.589 89.4342C155.606 80.217 146.548 72 137.516 63.8086C143.515 71.1981 147.265 80.5821 148.958 89.9466C149.184 91.1975 149.522 92.6611 150.693 93.153C151.135 89.8801 151.577 86.6073 152.019 83.3344C154.538 88.5873 156.73 93.9958 158.58 99.5188C159.942 96.7726 160.868 93.8107 161.313 90.7771C163.581 95.4348 165.227 100.394 166.192 105.484C166.972 103.403 167.754 101.323 168.534 99.2426C170.714 105.102 172.57 111.082 174.09 117.147C175.206 115.294 176.203 113.37 177.076 111.392C179.945 117.289 181.105 124.006 180.378 130.524C181.669 128.441 182.96 126.356 184.251 124.273C185.714 129.728 186.312 135.414 186.015 141.054C188.018 139.329 189.574 137.091 190.494 134.614C192.148 138.649 192.954 142.938 193.041 147.289C193.695 145.747 194.754 144.518 194.717 142.761C196.707 145.896 198.646 149.124 201.542 151.528C206.174 155.372 212.574 156.606 217.118 160.555C213.801 156.254 210.421 151.891 206.025 148.701C204.003 147.234 201.773 146.02 200.015 144.245C196.599 140.795 194.333 136.002 191.981 131.816C189.196 126.856 186.355 121.928 183.385 117.076C177.464 107.404 171.022 98.0173 163.589 89.4342Z" fill="#DBAB33"/>
<path d="M107.663 39.7578C109.66 41.5835 111.66 43.4101 113.511 45.3841C118.749 50.9695 122.004 57.3045 124.903 64.3433C124.656 63.7409 125.305 61.7567 125.281 60.9804C125.235 59.5137 124.901 58.0941 124.36 56.7338C123.423 54.3774 122.011 52.0935 120.486 50.0735C117.148 45.6521 112.714 42.0488 107.663 39.7578Z" fill="#DBAB33"/>
<path d="M83.6425 33.6148C86.2492 27.8412 90.8795 23.0035 96.3436 19.8359C92.3936 20.155 88.9398 22.3878 85.8625 24.7176C83.1054 26.8041 82.1028 29.5502 81.0092 32.8252C79.494 37.3591 79.5043 42.2674 80.0209 47.0202C80.5508 44.2813 81.7212 41.6681 83.4113 39.4476C81.9524 43.1961 82.3872 47.6278 84.5479 51.0213C86.7218 54.4354 90.6381 57.2112 90.6196 61.2583C90.7946 57.6602 90.3168 54.0324 89.2181 50.602C88.105 47.1256 86.3433 43.7709 86.2011 40.1237C86.0487 36.2208 87.7705 32.5173 89.4534 28.9928C86.9316 29.496 84.7003 31.2726 83.6425 33.6148Z" fill="white"/>
<path d="M83.3131 57.2251C80.2787 56.3824 77.935 54.0156 75.8572 51.6489C73.2474 48.6778 73.1001 44.555 74.2766 40.785C75.2873 37.55 77.7058 34.9787 80.0506 32.5312C77.2536 35.4513 76.9774 41.3916 77.7529 45.0705C78.7503 49.8018 81.1657 52.9745 83.3131 57.2251Z" fill="white"/>
<path d="M71.4341 46.9392C70.9431 50.8594 66.8642 52.2852 63.5127 53.4573C64.4048 52.144 65.2979 50.8308 66.19 49.5176C68.1624 46.616 69.0064 43.5262 69.1967 40.0508C70.9011 41.8713 71.7441 44.4661 71.4341 46.9392Z" fill="white"/>
<path d="M64.5232 25.8596C67.3928 29.5549 68.2338 34.0694 72.9817 35.6476C67.5821 36.5548 64.0413 31.0185 62.0812 26.8527C60.4586 23.405 59.0284 19.7854 56.5332 16.9062C58.5568 19.1461 60.5804 21.385 62.604 23.6249C63.2618 24.3541 63.9206 25.0844 64.5232 25.8596Z" fill="white"/>
<path d="M104.634 2.75391C101.56 12.7433 105.09 22.5425 105.822 32.3468C105.878 33.1057 105.882 33.9956 105.287 34.4701C104.547 33.2868 103.806 32.1045 103.067 30.9211C100.644 27.0489 99.4554 22.8432 100.001 18.2653C100.64 12.8968 103.345 8.00381 104.634 2.75391Z" fill="white"/>
<path d="M112.379 20.5625C112.622 23.2882 112.693 26.0302 112.591 28.7651C112.698 25.8932 111.344 22.7083 108.75 21.2805C110.297 25.6999 111.271 30.3279 110.813 35.0266C113.808 33.6959 114.647 31.7701 114.889 28.7887C115.03 27.053 115.314 25.5066 114.73 23.8057C114.424 22.9179 112.427 21.1097 112.379 20.5625Z" fill="white"/>
<path d="M136.503 12.7674C141.684 15.1085 145.362 19.8951 147.999 24.9302C145.98 21.9682 142.904 19.8501 139.616 18.4203C136.328 16.9904 132.805 16.1957 129.304 15.4215C132.645 16.9382 135.709 19.0625 138.301 21.6594C136.458 19.8174 131.422 19.0411 129.056 17.8189C126.101 16.2929 123.148 15.0952 119.838 14.456C120.09 13.7554 120.836 13.378 121.53 13.1069C125.933 11.3887 132.117 10.7852 136.503 12.7674Z" fill="white"/>
<path d="M129.962 28.6249C131.258 32.0358 131.762 35.7731 133.926 38.8046C135.216 40.6138 136.993 42.0079 138.745 43.3753C131.97 42.5888 126.058 36.9329 124.975 30.201C124.806 32.9655 124.638 35.7291 124.47 38.4936C124.574 36.7979 123.341 34.8382 123.23 33.1016C123.122 31.3925 123.744 30.9906 124.081 29.5024C124.872 26.0178 122.155 21.9053 120.333 19.0742C120.936 20.0101 124.231 21.0124 125.278 21.8981C126.857 23.2308 128.153 24.8641 129.108 26.6939C129.433 27.3219 129.712 27.9672 129.962 28.6249Z" fill="#DBAB33"/>
<path d="M196.238 111.17C195.094 110.917 194.231 109.998 193.476 109.105C189.343 104.21 187.494 99.4169 185.075 93.631C184.409 92.0386 183.675 90.4533 182.604 89.0991C181.534 87.745 180.091 86.6261 178.41 86.2323C177.459 86.0093 176.361 85.9735 175.705 85.2494C179.287 84.2051 183.371 85.0847 186.206 87.5097C189.672 90.4758 189.616 94.0095 190.314 98.0852C191.114 102.762 193.881 107.144 196.238 111.17Z" fill="#DBAB33"/>
<path d="M162.759 165.303C163.309 164.492 163.824 163.665 164.31 162.838C163.358 169.339 160.956 175.526 158.572 181.65C158.978 180.633 154.391 174.472 153.733 173.342C152.295 170.874 151.589 168.931 150.824 166.275C148.873 159.502 145.232 152.879 142.582 146.339C140.672 141.623 138.761 136.904 137.107 132.092C135.719 128.055 134.519 123.593 136.029 119.6C136.919 117.247 138.659 115.335 140.097 113.27C142.062 110.447 143.5 107.259 144.313 103.918C145.941 109.669 145.048 115.654 142.684 121.144C144.887 119.097 146.518 116.441 147.345 113.55C147.56 118.527 146.982 123.537 145.642 128.335C147.369 126.203 148.873 123.892 150.121 121.449C149.797 127.606 148.853 133.73 147.309 139.699C149.468 137.646 151.304 135.255 152.731 132.64C153.274 137.898 152.68 143.27 151.002 148.283C154.205 145.744 157.19 142.93 159.911 139.881C159.812 146.467 158.461 153.033 155.949 159.122C158.191 156.976 160.18 154.567 161.863 151.96C162.288 158.424 159.398 164.134 158.548 170.331C160.128 168.861 161.527 167.123 162.759 165.303Z" fill="#DBAB33"/>
<path d="M107.975 68.8574C107.975 69.5856 107.385 70.1758 106.657 70.1758C105.928 70.1758 105.338 69.5856 105.338 68.8574C105.338 68.1292 105.928 67.5391 106.657 67.5391C107.385 67.5391 107.975 68.1292 107.975 68.8574Z" fill="white"/>
<path d="M102.557 64.3061C105.178 63.405 109.379 64.5311 110.553 66.5695C110.241 66.0254 106.966 65.6122 106.28 65.5836C104.311 65.5028 102.174 66.2616 100.388 67.0083C100.453 65.5897 101.333 64.7265 102.557 64.3061Z" fill="white"/>
<path d="M70.8509 155.416C70.9614 157.419 71.121 159.558 72.3517 161.141C72.9502 161.91 73.8157 162.591 73.8975 163.562C69.4371 159.997 68.367 154.621 69.3112 149.079C69.5383 147.746 69.9435 146.369 70.9102 145.422C70.634 148.852 70.6279 151.999 70.8509 155.416Z" fill="#DBAB33"/>
<path d="M15.3088 70.1941C11.8919 73.2962 10.6202 75.0472 7.35978 80.4648C10.6611 63.5236 16.3135 47.2247 24.0241 32.418L10.4084 39.7656C2.1177 57.9853 0.123788 80.0506 0 100.736C1.72383 96.5695 3.84255 92.3147 7.49277 88.0896C7.23087 112.333 12.3737 127.661 21.4798 143.857C12.2356 121.163 10.0084 94.5883 15.3088 70.1941Z" fill="#DBAB33"/>
<path d="M280.691 70.1941C284.108 73.2962 285.38 75.0472 288.64 80.4648C285.339 63.5236 279.686 47.2247 271.976 32.418L285.591 39.7656C293.882 57.9853 295.876 80.0506 296 100.736C294.276 96.5695 292.158 92.3147 288.507 88.0896C288.769 112.333 283.626 127.661 274.52 143.857C283.764 121.163 285.991 94.5883 280.691 70.1941Z" fill="#DBAB33"/>
<path d="M75.6144 222.478V219.718H81.9297V222.478H75.6144ZM88.0938 216.565H89.9975V219.204H88.0938V224.24H90.0176V227H83.5412V224.24H85.1024V219.204H83.5211V216.565H85.1024V214.833C85.1024 214.222 85.2098 213.685 85.4247 213.221C85.6396 212.758 85.9249 212.368 86.2808 212.053C86.6434 211.737 87.0597 211.499 87.5298 211.338C87.9998 211.177 88.4933 211.096 89.0104 211.096C89.3931 211.096 89.7356 211.126 90.0377 211.187C90.3399 211.24 90.6051 211.311 90.8334 211.398C91.0618 211.486 91.2531 211.58 91.4076 211.68C91.5687 211.781 91.6963 211.875 91.7903 211.962L90.632 214.087C90.4776 213.973 90.303 213.883 90.1083 213.816C89.9135 213.748 89.6751 213.715 89.3931 213.715C89.2118 213.715 89.0406 213.745 88.8794 213.805C88.725 213.866 88.5874 213.953 88.4665 214.067C88.3523 214.181 88.2617 214.326 88.1945 214.5C88.1274 214.668 88.0938 214.866 88.0938 215.095V216.565ZM91.6997 221.742C91.6997 220.984 91.8373 220.272 92.1126 219.607C92.3879 218.942 92.7707 218.361 93.2608 217.865C93.751 217.368 94.3352 216.975 95.0134 216.686C95.6916 216.397 96.4369 216.253 97.2494 216.253C98.0619 216.253 98.8072 216.397 99.4854 216.686C100.17 216.975 100.758 217.368 101.248 217.865C101.738 218.361 102.118 218.942 102.386 219.607C102.662 220.272 102.799 220.984 102.799 221.742C102.799 222.501 102.665 223.216 102.396 223.888C102.134 224.552 101.758 225.137 101.268 225.64C100.785 226.137 100.201 226.53 99.5157 226.819C98.8375 227.107 98.0821 227.252 97.2494 227.252C96.4101 227.252 95.6479 227.107 94.963 226.819C94.2848 226.53 93.704 226.137 93.2206 225.64C92.7371 225.143 92.3611 224.563 92.0925 223.898C91.8306 223.226 91.6997 222.508 91.6997 221.742ZM94.7112 221.742C94.7112 222.139 94.7784 222.504 94.9127 222.84C95.047 223.169 95.2283 223.455 95.4566 223.696C95.6916 223.938 95.9602 224.126 96.2623 224.26C96.5712 224.395 96.9003 224.462 97.2494 224.462C97.6053 224.462 97.9343 224.398 98.2365 224.27C98.5454 224.136 98.8106 223.948 99.0322 223.706C99.2605 223.465 99.4384 223.179 99.566 222.85C99.6936 222.515 99.7574 222.145 99.7574 221.742C99.7574 221.326 99.6936 220.95 99.566 220.614C99.4384 220.279 99.2605 219.993 99.0322 219.758C98.8106 219.523 98.5454 219.345 98.2365 219.224C97.9343 219.097 97.6053 219.036 97.2494 219.043C96.9003 219.036 96.5712 219.097 96.2623 219.224C95.9602 219.345 95.6916 219.523 95.4566 219.758C95.2283 219.993 95.047 220.279 94.9127 220.614C94.7784 220.95 94.7112 221.326 94.7112 221.742ZM113.798 220.362H110.968V219.285C110.692 219.285 110.441 219.305 110.212 219.345C109.984 219.379 109.783 219.439 109.608 219.526C109.44 219.614 109.296 219.735 109.175 219.889C109.061 220.043 108.98 220.235 108.933 220.463V224.24H111.058V227H104.25V224.24H105.811V219.325H104.27V216.565H108.913V217.301C109.208 217.065 109.541 216.884 109.91 216.757C110.279 216.629 110.682 216.565 111.119 216.565C111.562 216.565 112.019 216.569 112.489 216.575C112.959 216.582 113.395 216.585 113.798 216.585V220.362ZM122.168 219.758C122.168 219.597 122.114 219.443 122.007 219.295C121.906 219.147 121.755 219.019 121.554 218.912C121.352 218.798 121.104 218.707 120.808 218.64C120.519 218.573 120.19 218.539 119.821 218.539C119.68 218.539 119.529 218.553 119.368 218.58C119.207 218.6 119.056 218.64 118.915 218.701C118.78 218.761 118.666 218.845 118.572 218.952C118.485 219.053 118.441 219.184 118.441 219.345C118.441 219.426 118.451 219.503 118.471 219.577C118.498 219.651 118.545 219.721 118.612 219.788C118.68 219.855 118.77 219.919 118.884 219.98C119.005 220.033 119.16 220.077 119.348 220.111L121.241 220.483C121.926 220.618 122.5 220.785 122.964 220.987C123.427 221.188 123.8 221.423 124.082 221.692C124.364 221.961 124.565 222.259 124.686 222.588C124.814 222.917 124.877 223.273 124.877 223.656C124.877 224.254 124.736 224.777 124.454 225.227C124.179 225.677 123.813 226.053 123.356 226.355C122.907 226.651 122.396 226.872 121.826 227.02C121.261 227.175 120.691 227.252 120.113 227.252C119.737 227.252 119.395 227.228 119.086 227.181C118.784 227.134 118.508 227.071 118.26 226.99C118.018 226.909 117.8 226.815 117.605 226.708C117.417 226.594 117.243 226.47 117.082 226.335H115.258V223.535H118.109V223.596C118.116 223.79 118.176 223.962 118.29 224.109C118.404 224.25 118.552 224.371 118.733 224.472C118.921 224.573 119.133 224.65 119.368 224.704C119.603 224.751 119.851 224.774 120.113 224.774C120.718 224.774 121.157 224.697 121.433 224.542C121.708 224.381 121.846 224.176 121.846 223.928C121.846 223.733 121.779 223.569 121.644 223.434C121.51 223.293 121.272 223.183 120.929 223.102L118.995 222.689C117.78 222.454 116.863 222.065 116.246 221.521C115.628 220.97 115.319 220.265 115.319 219.406C115.319 218.902 115.436 218.445 115.671 218.036C115.906 217.619 116.225 217.267 116.628 216.978C117.031 216.683 117.501 216.454 118.038 216.293C118.582 216.132 119.163 216.052 119.781 216.052C120.204 216.052 120.58 216.078 120.909 216.132C121.238 216.179 121.533 216.243 121.795 216.324C122.057 216.404 122.285 216.501 122.48 216.616C122.682 216.723 122.86 216.837 123.014 216.958H124.767V219.758H122.168ZM133.026 226.436C132.791 226.584 132.576 226.711 132.381 226.819C132.186 226.919 131.992 227 131.797 227.06C131.602 227.128 131.401 227.175 131.193 227.201C130.984 227.235 130.756 227.252 130.508 227.252C129.883 227.252 129.323 227.168 128.826 227C128.335 226.825 127.919 226.59 127.577 226.295C127.241 225.993 126.982 225.64 126.801 225.237C126.62 224.828 126.529 224.385 126.529 223.908C126.529 223.424 126.62 222.978 126.801 222.568C126.989 222.159 127.258 221.809 127.607 221.521C127.956 221.225 128.382 220.997 128.886 220.836C129.396 220.668 129.977 220.584 130.629 220.584C131.105 220.584 131.538 220.611 131.928 220.665C132.324 220.712 132.69 220.772 133.026 220.846V220.524C133.026 220.262 132.975 220.037 132.875 219.849C132.774 219.654 132.633 219.496 132.452 219.375C132.27 219.248 132.052 219.157 131.797 219.103C131.542 219.043 131.263 219.013 130.961 219.013C130.33 219.013 129.772 219.077 129.289 219.204C128.812 219.325 128.352 219.503 127.909 219.738L126.942 217.784C127.627 217.314 128.342 216.955 129.088 216.706C129.84 216.458 130.635 216.334 131.475 216.334C132.126 216.334 132.727 216.407 133.278 216.555C133.835 216.696 134.312 216.931 134.708 217.26C135.104 217.583 135.413 218.006 135.634 218.529C135.863 219.053 135.977 219.691 135.977 220.443V224.24H137.377V227H133.026V226.436ZM130.729 224.875C131.206 224.875 131.639 224.798 132.029 224.643C132.418 224.489 132.75 224.301 133.026 224.079V222.75H130.608C130.454 222.75 130.303 222.773 130.155 222.82C130.007 222.867 129.873 222.934 129.752 223.021C129.638 223.109 129.544 223.216 129.47 223.344C129.403 223.471 129.37 223.619 129.37 223.787C129.37 224.096 129.48 224.354 129.702 224.563C129.93 224.771 130.273 224.875 130.729 224.875ZM148.084 220.997C148.084 220.413 147.929 219.956 147.62 219.627C147.311 219.291 146.902 219.124 146.392 219.124C146.042 219.124 145.69 219.201 145.334 219.355C144.978 219.51 144.632 219.798 144.297 220.221V224.24H145.989V227H139.502V224.24H141.033V219.325H139.522V216.565H144.276V217.482C144.713 217.139 145.2 216.871 145.737 216.676C146.281 216.475 146.851 216.374 147.449 216.374C148.705 216.374 149.672 216.726 150.35 217.431C151.028 218.13 151.367 219.154 151.367 220.503V224.24H152.848V227H148.084V220.997ZM164.995 219.758C164.995 219.597 164.941 219.443 164.834 219.295C164.733 219.147 164.582 219.019 164.38 218.912C164.179 218.798 163.931 218.707 163.635 218.64C163.346 218.573 163.017 218.539 162.648 218.539C162.507 218.539 162.356 218.553 162.195 218.58C162.034 218.6 161.883 218.64 161.742 218.701C161.607 218.761 161.493 218.845 161.399 218.952C161.312 219.053 161.268 219.184 161.268 219.345C161.268 219.426 161.278 219.503 161.298 219.577C161.325 219.651 161.372 219.721 161.439 219.788C161.506 219.855 161.597 219.919 161.711 219.98C161.832 220.033 161.987 220.077 162.175 220.111L164.068 220.483C164.753 220.618 165.327 220.785 165.791 220.987C166.254 221.188 166.627 221.423 166.909 221.692C167.191 221.961 167.392 222.259 167.513 222.588C167.64 222.917 167.704 223.273 167.704 223.656C167.704 224.254 167.563 224.777 167.281 225.227C167.006 225.677 166.64 226.053 166.183 226.355C165.733 226.651 165.223 226.872 164.652 227.02C164.088 227.175 163.518 227.252 162.94 227.252C162.564 227.252 162.222 227.228 161.913 227.181C161.611 227.134 161.335 227.071 161.087 226.99C160.845 226.909 160.627 226.815 160.432 226.708C160.244 226.594 160.07 226.47 159.908 226.335H158.085V223.535H160.936V223.596C160.942 223.79 161.003 223.962 161.117 224.109C161.231 224.25 161.379 224.371 161.56 224.472C161.748 224.573 161.96 224.65 162.195 224.704C162.43 224.751 162.678 224.774 162.94 224.774C163.544 224.774 163.984 224.697 164.26 224.542C164.535 224.381 164.673 224.176 164.673 223.928C164.673 223.733 164.605 223.569 164.471 223.434C164.337 223.293 164.098 223.183 163.756 223.102L161.822 222.689C160.607 222.454 159.69 222.065 159.072 221.521C158.455 220.97 158.146 220.265 158.146 219.406C158.146 218.902 158.263 218.445 158.498 218.036C158.733 217.619 159.052 217.267 159.455 216.978C159.858 216.683 160.328 216.454 160.865 216.293C161.409 216.132 161.99 216.052 162.608 216.052C163.031 216.052 163.407 216.078 163.736 216.132C164.065 216.179 164.36 216.243 164.622 216.324C164.884 216.404 165.112 216.501 165.307 216.616C165.508 216.723 165.686 216.837 165.841 216.958H167.593V219.758H164.995ZM173.375 216.565H175.46V219.204H173.355L173.335 223.616C173.335 223.871 173.355 224.079 173.395 224.24C173.435 224.395 173.492 224.519 173.566 224.613C173.647 224.707 173.741 224.771 173.848 224.804C173.956 224.838 174.08 224.855 174.221 224.855C174.476 224.855 174.701 224.831 174.896 224.784C175.09 224.73 175.285 224.67 175.48 224.603L175.913 226.547C175.571 226.762 175.188 226.933 174.765 227.06C174.349 227.188 173.852 227.252 173.274 227.252C172.865 227.252 172.472 227.181 172.096 227.04C171.726 226.899 171.401 226.688 171.119 226.406C170.837 226.117 170.612 225.758 170.444 225.328C170.276 224.898 170.195 224.398 170.202 223.827L170.232 219.204H168.732V216.565H170.242L170.263 214.067L173.395 212.577L173.375 216.565ZM177.414 221.742C177.414 220.984 177.551 220.272 177.827 219.607C178.102 218.942 178.485 218.361 178.975 217.865C179.465 217.368 180.049 216.975 180.728 216.686C181.406 216.397 182.151 216.253 182.964 216.253C183.776 216.253 184.521 216.397 185.2 216.686C185.884 216.975 186.472 217.368 186.962 217.865C187.452 218.361 187.832 218.942 188.1 219.607C188.376 220.272 188.513 220.984 188.513 221.742C188.513 222.501 188.379 223.216 188.11 223.888C187.849 224.552 187.473 225.137 186.982 225.64C186.499 226.137 185.915 226.53 185.23 226.819C184.552 227.107 183.796 227.252 182.964 227.252C182.124 227.252 181.362 227.107 180.677 226.819C179.999 226.53 179.418 226.137 178.935 225.64C178.451 225.143 178.075 224.563 177.807 223.898C177.545 223.226 177.414 222.508 177.414 221.742ZM180.425 221.742C180.425 222.139 180.493 222.504 180.627 222.84C180.761 223.169 180.942 223.455 181.171 223.696C181.406 223.938 181.674 224.126 181.976 224.26C182.285 224.395 182.614 224.462 182.964 224.462C183.319 224.462 183.648 224.398 183.951 224.27C184.26 224.136 184.525 223.948 184.746 223.706C184.975 223.465 185.153 223.179 185.28 222.85C185.408 222.515 185.472 222.145 185.472 221.742C185.472 221.326 185.408 220.95 185.28 220.614C185.153 220.279 184.975 219.993 184.746 219.758C184.525 219.523 184.26 219.345 183.951 219.224C183.648 219.097 183.319 219.036 182.964 219.043C182.614 219.036 182.285 219.097 181.976 219.224C181.674 219.345 181.406 219.523 181.171 219.758C180.942 219.993 180.761 220.279 180.627 220.614C180.493 220.95 180.425 221.326 180.425 221.742ZM199.512 220.362H196.682V219.285C196.407 219.285 196.155 219.305 195.926 219.345C195.698 219.379 195.497 219.439 195.322 219.526C195.154 219.614 195.01 219.735 194.889 219.889C194.775 220.043 194.694 220.235 194.647 220.463V224.24H196.773V227H189.964V224.24H191.525V219.325H189.984V216.565H194.627V217.301C194.923 217.065 195.255 216.884 195.624 216.757C195.994 216.629 196.396 216.565 196.833 216.565C197.276 216.565 197.733 216.569 198.203 216.575C198.673 216.582 199.109 216.585 199.512 216.585V220.362ZM203.934 222.437L203.964 222.75C204.038 223.052 204.162 223.317 204.337 223.545C204.518 223.774 204.73 223.965 204.971 224.119C205.213 224.274 205.482 224.391 205.777 224.472C206.072 224.546 206.371 224.583 206.673 224.583C206.976 224.583 207.261 224.566 207.53 224.532C207.805 224.492 208.07 224.442 208.325 224.381C208.58 224.314 208.829 224.24 209.071 224.16C209.312 224.072 209.557 223.982 209.806 223.888L210.914 225.952C210.531 226.188 210.179 226.389 209.856 226.557C209.541 226.718 209.222 226.852 208.899 226.96C208.577 227.067 208.235 227.144 207.872 227.191C207.509 227.245 207.086 227.272 206.603 227.272C205.696 227.272 204.891 227.124 204.186 226.829C203.481 226.527 202.886 226.12 202.403 225.61C201.926 225.1 201.56 224.502 201.305 223.817C201.057 223.132 200.932 222.407 200.932 221.642C200.932 220.876 201.063 220.158 201.325 219.486C201.594 218.815 201.97 218.23 202.453 217.734C202.937 217.23 203.514 216.834 204.186 216.545C204.857 216.256 205.602 216.112 206.422 216.112C207.241 216.112 207.966 216.25 208.597 216.525C209.235 216.794 209.772 217.17 210.209 217.653C210.645 218.13 210.981 218.694 211.216 219.345C211.451 219.99 211.579 220.685 211.599 221.43C211.619 221.598 211.629 221.766 211.629 221.934C211.636 222.095 211.632 222.263 211.619 222.437H203.934ZM206.341 218.63C205.965 218.63 205.643 218.677 205.374 218.771C205.112 218.858 204.891 218.983 204.709 219.144C204.528 219.298 204.384 219.476 204.276 219.678C204.169 219.879 204.085 220.09 204.024 220.312H208.386C208.339 220.084 208.272 219.869 208.184 219.667C208.097 219.466 207.976 219.288 207.822 219.134C207.667 218.979 207.469 218.858 207.227 218.771C206.992 218.677 206.697 218.63 206.341 218.63ZM212.979 222.478V219.718H219.294V222.478H212.979Z" fill="white"/>
</svg>
