<svg width="239" height="182" viewBox="0 0 239 182" fill="none" xmlns="http://www.w3.org/2000/svg">
<g clip-path="url(#clip0_69_16388)">
<path d="M119.5 146C159.817 146 192.5 113.317 192.5 73C192.5 32.6832 159.817 0 119.5 0C79.1832 0 46.5 32.6832 46.5 73C46.5 113.317 79.1832 146 119.5 146Z" fill="#0C4745"/>
<path d="M101 109.12L138.678 143C169.884 135.517 193 109.952 193 79.3972C193 78.7737 193 78.1501 193 77.5266L163.412 53L101 109.12Z" fill="#193E3C"/>
<path d="M121.873 86.3045C124.492 88.9233 124.492 93.4128 121.873 96.0316L116.448 101.456C113.829 104.075 109.34 104.075 106.721 101.456L82.9641 77.5126C80.3453 74.8937 80.3453 70.4043 82.9641 67.7854L88.3889 62.3606C91.0078 59.7418 95.4972 59.7418 98.1161 62.3606L121.873 86.3045Z" fill="white"/>
<path d="M142.637 44.9641C145.256 42.3453 149.745 42.3453 152.364 44.9641L157.789 50.3889C160.408 53.0078 160.408 57.4972 157.789 60.1161L116.636 101.082C114.017 103.701 109.527 103.701 106.908 101.082L101.484 95.6577C98.8648 93.0389 98.8648 88.5494 101.484 85.9305L142.637 44.9641Z" fill="white"/>
</g>
<circle cx="231" cy="146.5" r="7.5" fill="#DBAB33"/>
<circle cx="9.09233" cy="64.7458" r="7.5" transform="rotate(-170.879 9.09233 64.7458)" fill="#DBAB33"/>
<circle cx="210.5" cy="165" r="5" fill="#DBAB33"/>
<circle cx="32.266" cy="49.7276" r="5" transform="rotate(-170.879 32.266 49.7276)" fill="#DBAB33"/>
<circle cx="75.2308" cy="175.728" r="5" transform="rotate(-170.879 75.2308 175.728)" fill="#DBAB33" fill-opacity="0.2"/>
<circle cx="229.227" cy="10.7277" r="5" transform="rotate(-170.879 229.227 10.7277)" fill="#DBAB33" fill-opacity="0.2"/>
<defs>
<clipPath id="clip0_69_16388">
<rect width="146" height="146" fill="white" transform="translate(46.5)"/>
</clipPath>
</defs>
</svg>
