<svg width="250" height="250" viewBox="0 0 250 250" fill="none" xmlns="http://www.w3.org/2000/svg">
<g clip-path="url(#clip0_113_37325)">
<path d="M51.0332 2.62891C53.0432 0.619767 56.2232 0.448623 58.4365 2.23047L94.2666 31.084C96.3421 32.755 97.0842 35.5409 96.1152 38.0244L77.3428 86.0889C76.8346 87.3897 75.4289 88.0734 74.1104 87.707L73.8486 87.6201C72.4609 87.0781 71.7755 85.5133 72.3174 84.126L91.0049 36.2803L91.2715 35.5977L90.7002 35.1377L55.6455 6.90918L54.9463 6.3457L41.5957 19.6963L41.9258 20.3438L53.2842 42.6318C53.6278 43.3061 53.6719 44.0943 53.4062 44.8037L30.1689 106.738C24.1455 122.793 22.255 139.389 24.5566 156.057C26.7158 171.696 32.6593 186.891 41.7451 200.004C50.8305 213.117 62.9697 224.02 76.8535 231.536C91.65 239.546 107.853 243.605 125.001 243.605C151.75 243.605 176.922 233.342 195.868 214.705C196.93 213.661 198.637 213.674 199.683 214.737C200.727 215.799 200.713 217.508 199.651 218.552C179.69 238.187 153.181 249.001 125.001 249.001C106.936 249.001 89.8769 244.72 74.2852 236.28C59.665 228.366 46.8782 216.884 37.3115 203.077C27.7448 189.27 21.4859 173.264 19.2119 156.795C16.7867 139.233 18.7729 121.757 25.1182 104.844L47.7832 44.4346L47.9375 44.0225L47.7373 43.6299L36.8398 22.2451C35.7445 20.0952 36.154 17.5086 37.8594 15.8027L51.0332 2.62891Z" fill="#DBAB33" stroke="#0C4745" stroke-width="2"/>
<path d="M191.563 2.23047C193.777 0.448737 196.958 0.620055 198.967 2.62793L212.142 15.8027C213.847 17.5086 214.257 20.0953 213.161 22.2451L202.263 43.6289L202.062 44.0215L202.218 44.4346L224.882 104.844C231.272 121.876 233.24 139.471 230.735 157.15C228.386 173.727 222.004 189.81 212.277 203.653C211.753 204.4 210.918 204.8 210.066 204.8C209.598 204.8 209.127 204.679 208.7 204.426L208.52 204.31L208.302 204.14C207.268 203.245 207.06 201.694 207.863 200.552C217.101 187.404 223.163 172.137 225.394 156.395C227.771 139.616 225.897 122.906 219.831 106.738L196.594 44.8037C196.328 44.0944 196.372 43.3062 196.716 42.6318L208.075 20.3428L208.405 19.6953L207.891 19.1816L195.689 6.98047L195.055 6.34473L194.355 6.9082L159.3 35.1377L158.729 35.5977L158.995 36.2803L190.934 118.051C201.969 146.306 190.239 178.263 163.643 192.702L163.011 193.04C159.883 194.69 156.059 193.977 153.706 191.293V191.292L146.519 183.096L146.406 182.975C145.829 182.384 145.037 182.048 144.206 182.048H105.295C104.408 182.048 103.566 182.431 102.982 183.096H102.981L95.9541 191.11C93.6554 193.732 89.9775 194.472 86.8984 192.983L86.6025 192.832L86.0127 192.511C73.6746 185.702 64.0718 174.69 58.9346 161.434C53.5352 147.501 53.5797 132.095 59.0654 118.05L66.376 99.334C66.8845 98.0332 68.2906 97.3499 69.6084 97.7158L69.8701 97.8027C71.2575 98.3448 71.9429 99.9087 71.4014 101.296L64.0908 120.013C59.0998 132.791 59.0532 146.811 63.9648 159.484C68.7181 171.749 77.6633 181.905 89.1562 188.08C90.0285 188.548 91.0849 188.351 91.7676 187.691L91.8984 187.554L98.9268 179.539C100.535 177.705 102.856 176.653 105.295 176.653H144.206C146.645 176.653 148.966 177.705 150.574 179.539L157.762 187.735C158.43 188.498 159.562 188.759 160.492 188.268C185.105 175.276 196.032 145.933 185.908 120.013L153.885 38.0244C152.915 35.5399 153.659 32.7539 155.734 31.083L191.563 2.23047Z" fill="#DBAB33" stroke="#0C4745" stroke-width="2"/>
<path d="M124.753 195.18C133.595 195.18 140.791 202.375 140.791 211.218C140.791 220.06 133.596 227.256 124.753 227.256C115.91 227.256 108.715 220.06 108.715 211.218C108.715 202.375 115.91 195.18 124.753 195.18ZM124.753 200.574C118.883 200.574 114.108 205.348 114.108 211.218C114.108 217.088 118.884 221.861 124.753 221.861C130.623 221.861 135.396 217.088 135.396 211.218C135.396 205.348 130.623 200.574 124.753 200.574Z" fill="white" stroke="#0C4745" stroke-width="2"/>
<path d="M172.579 207.471C173.856 206.705 175.513 207.118 176.279 208.396V208.396C176.998 209.594 176.679 211.124 175.583 211.942L175.354 212.097L170.188 215.196C169.752 215.458 169.274 215.581 168.803 215.581C167.883 215.581 166.991 215.113 166.486 214.271C165.72 212.994 166.134 211.338 167.412 210.571L172.579 207.471Z" fill="white" stroke="#0C4745" stroke-width="2"/>
<path d="M194.916 184.031C195.797 182.831 197.484 182.571 198.686 183.452C199.886 184.333 200.146 186.02 199.265 187.222L196.423 191.098C195.895 191.817 195.078 192.2 194.245 192.2C193.692 192.2 193.135 192.03 192.652 191.677C191.527 190.851 191.229 189.317 191.922 188.138L192.073 187.907L194.916 184.031Z" fill="white" stroke="#0C4745" stroke-width="2"/>
<path d="M206.794 156.652C207.243 155.232 208.756 154.444 210.178 154.892C211.51 155.312 212.285 156.67 212.008 158.009L211.938 158.276L210.388 163.186C210.025 164.334 208.963 165.071 207.816 165.071C207.548 165.071 207.275 165.031 207.003 164.945H207.004C205.583 164.496 204.795 162.981 205.243 161.561L206.794 156.652Z" fill="white" stroke="#0C4745" stroke-width="2"/>
<path d="M208.097 124.437C209.464 124.182 210.791 125.015 211.176 126.328L211.24 126.597L212.016 130.77C212.287 132.234 211.321 133.642 209.855 133.914C209.689 133.945 209.523 133.96 209.359 133.96C208.086 133.96 206.953 133.051 206.712 131.754L205.937 127.581C205.682 126.208 206.516 124.885 207.828 124.501L208.097 124.437Z" fill="white" stroke="#0C4745" stroke-width="2"/>
<path d="M199.424 98.0186C200.827 97.5215 202.368 98.2573 202.865 99.6621L204.671 104.767C205.168 106.171 204.432 107.712 203.028 108.208H203.027C202.729 108.314 202.426 108.364 202.129 108.364C201.017 108.364 199.977 107.671 199.586 106.565L197.78 101.461C197.283 100.057 198.019 98.5162 199.424 98.0195V98.0186Z" fill="white" stroke="#0C4745" stroke-width="2"/>
<path d="M190.856 75.4707C192.227 74.8867 193.811 75.5242 194.395 76.8945V76.8955L196.729 82.377C197.314 83.7475 196.676 85.3324 195.306 85.916H195.305C194.959 86.0638 194.601 86.1328 194.25 86.1328C193.199 86.1327 192.204 85.5162 191.768 84.4922L189.432 79.0098V79.0088C188.848 77.6383 189.485 76.0543 190.855 75.4707H190.856Z" fill="white" stroke="#0C4745" stroke-width="2"/>
<path d="M181.794 51.5566C183.164 50.9723 184.748 51.6107 185.332 52.9814L187.667 58.4629C188.251 59.8335 187.614 61.4173 186.243 62.001L186.242 62.002C185.897 62.1497 185.539 62.2188 185.188 62.2188C184.137 62.2186 183.141 61.602 182.705 60.5781L180.369 55.0957L180.273 54.8359C179.868 53.5307 180.509 52.1048 181.793 51.5576L181.794 51.5566Z" fill="white" stroke="#0C4745" stroke-width="2"/>
<path d="M73.2207 208.396C73.9871 207.118 75.6449 206.705 76.9219 207.471L82.0889 210.571V210.57C83.2866 211.289 83.7246 212.79 83.1436 214.027L83.0137 214.271C82.5087 215.113 81.6174 215.582 80.6982 215.582C80.2851 215.582 79.8678 215.488 79.4785 215.289L79.3135 215.197L74.1465 212.097C72.8687 211.33 72.4544 209.673 73.2207 208.396Z" fill="white" stroke="#0C4745" stroke-width="2"/>
<path d="M50.8174 183.452C52.0187 182.571 53.7065 182.831 54.5869 184.032L57.4297 187.908C58.3105 189.109 58.0505 190.797 56.8496 191.678C56.3677 192.031 55.8105 192.2 55.2578 192.2C54.4249 192.2 53.6074 191.818 53.0791 191.098L50.2373 187.223C49.3562 186.022 49.6164 184.333 50.8174 183.452Z" fill="white" stroke="#0C4745" stroke-width="2"/>
<path d="M39.3262 154.892C40.6607 154.472 42.075 155.138 42.6162 156.393L42.7119 156.651L44.2627 161.561C44.7108 162.981 43.9223 164.495 42.502 164.944C42.2297 165.03 41.9566 165.071 41.6895 165.071C40.6149 165.071 39.6145 164.423 39.1943 163.396L39.1182 163.185L37.5674 158.276C37.1192 156.857 37.9057 155.341 39.3252 154.891L39.3262 154.892Z" fill="white" stroke="#0C4745" stroke-width="2"/>
<path d="M38.2627 126.596C38.5349 125.132 39.9456 124.165 41.4062 124.436V124.437C42.8712 124.709 43.838 126.116 43.5664 127.58L42.791 131.754C42.5497 133.051 41.4168 133.959 40.1436 133.959C39.9798 133.959 39.8144 133.944 39.6475 133.913C38.1825 133.641 37.2157 132.234 37.4873 130.77L38.2627 126.596Z" fill="white" stroke="#0C4745" stroke-width="2"/>
<path d="M46.6367 99.6621C47.1335 98.2574 48.6741 97.5222 50.0781 98.0195H50.0791C51.3956 98.4852 52.1242 99.8686 51.8008 101.196L51.7217 101.461L49.916 106.565C49.5248 107.671 48.486 108.364 47.374 108.364C47.0763 108.364 46.7732 108.315 46.4756 108.209L46.4746 108.208L46.2188 108.104C45.0651 107.559 44.4502 106.27 44.752 105.031L44.8311 104.767L46.6367 99.6621Z" fill="white" stroke="#0C4745" stroke-width="2"/>
<path d="M55.1074 76.8994C55.6551 75.6142 57.0808 74.9738 58.3857 75.3799L58.6455 75.4746C60.0158 76.0582 60.6532 77.6422 60.0693 79.0127V79.0137L57.7344 84.4951C57.298 85.5195 56.3013 86.1367 55.251 86.1367C54.9002 86.1367 54.5429 86.0677 54.1963 85.9199H54.1953C52.8249 85.3363 52.1874 83.7514 52.7715 82.3809L55.1074 76.8994Z" fill="white" stroke="#0C4745" stroke-width="2"/>
<path d="M64.1738 52.9814C64.7576 51.6106 66.3415 50.9721 67.7119 51.5566V51.5576C68.9966 52.1047 69.6374 53.5306 69.2314 54.8359L69.1357 55.0957L66.8008 60.5771C66.3644 61.6011 65.3682 62.2188 64.3174 62.2188C63.9666 62.2187 63.6093 62.1497 63.2627 62.002L63.2617 62.001C61.9774 61.4536 61.3362 60.0274 61.7422 58.7227L61.8379 58.4639L64.1738 52.9814Z" fill="white" stroke="#0C4745" stroke-width="2"/>
</g>
<defs>
<clipPath id="clip0_113_37325">
<rect width="250" height="250" fill="white"/>
</clipPath>
</defs>
</svg>
