<svg width="250" height="250" viewBox="0 0 250 250" fill="none" xmlns="http://www.w3.org/2000/svg">
<path d="M160.156 1.25C162.933 1.25 165.595 2.35313 167.559 4.31641C169.522 6.27968 170.625 8.94227 170.625 11.7188C170.625 14.4952 169.522 17.1578 167.559 19.1211C165.595 21.0844 162.933 22.1875 160.156 22.1875H153.594V16.875H160.156C161.524 16.875 162.836 16.3322 163.803 15.3652C164.77 14.3982 165.312 13.0863 165.312 11.7188C165.312 10.3512 164.77 9.03925 163.803 8.07227C162.836 7.10528 161.524 6.5625 160.156 6.5625H153.594V1.25H160.156Z" fill="#DBAB33" stroke="#0C4745" stroke-width="2.5"/>
<path d="M199.219 1.25H205.781V6.5625H199.219C197.851 6.5625 196.539 7.10528 195.572 8.07227C194.605 9.03925 194.062 10.3512 194.062 11.7188C194.062 13.0863 194.605 14.3982 195.572 15.3652C196.539 16.3322 197.851 16.875 199.219 16.875H205.781V22.1875H199.219C196.442 22.1875 193.78 21.0844 191.816 19.1211C189.853 17.1578 188.75 14.4952 188.75 11.7188C188.75 8.94227 189.853 6.27968 191.816 4.31641C193.78 2.35313 196.442 1.25 199.219 1.25Z" fill="#DBAB33" stroke="#0C4745" stroke-width="2.5"/>
<path d="M220 28.4434L213.744 22.1875H207.031C206.327 22.1875 205.651 21.9073 205.153 21.4092C204.655 20.911 204.375 20.2357 204.375 19.5312V3.90625C204.375 3.20176 204.655 2.52646 205.153 2.02832C205.651 1.53018 206.327 1.25 207.031 1.25H222.656C223.272 1.25019 223.866 1.46445 224.339 1.85156L224.534 2.02832L240.159 17.6533C240.657 18.1513 240.937 18.8269 240.938 19.5312V62.5039C240.961 70.5487 239.385 78.5181 236.301 85.9482C233.216 93.3783 228.686 100.121 222.972 105.784L222.968 105.787C214.289 114.456 203.215 120.328 191.17 122.647L190.156 122.843V144.531C190.156 145.236 189.876 145.911 189.378 146.409C188.88 146.907 188.204 147.188 187.5 147.188H171.875C171.171 147.188 170.495 146.907 169.997 146.409C169.499 145.911 169.219 145.236 169.219 144.531V122.843L168.205 122.647C154.218 119.954 141.604 112.48 132.524 101.506C123.728 90.8747 118.779 77.6006 118.454 63.832L118.438 62.498V19.5312L118.45 19.2686C118.502 18.7477 118.707 18.2535 119.039 17.8486L119.216 17.6533L134.841 2.02832C135.276 1.59251 135.848 1.32327 136.456 1.2627L136.719 1.25H152.344C153.048 1.25 153.724 1.53018 154.222 2.02832C154.72 2.52646 155 3.20177 155 3.90625V19.5312C155 20.2357 154.72 20.911 154.222 21.4092C153.724 21.9073 153.048 22.1875 152.344 22.1875H145.631L139.375 28.4434V62.5C139.375 73.1915 143.623 83.4448 151.183 91.0049C158.743 98.5649 168.996 102.812 179.688 102.812C190.379 102.812 200.632 98.5649 208.192 91.0049C215.752 83.4448 220 73.1915 220 62.5V28.4434ZM235.625 20.6309L221.557 6.5625H209.688V16.875H214.844C215.46 16.8752 216.054 17.0894 216.526 17.4766L216.722 17.6533L224.534 25.4658C225.032 25.9638 225.312 26.6394 225.312 27.3438V62.5C225.312 74.6005 220.506 86.2054 211.949 94.7617C203.393 103.318 191.788 108.125 179.688 108.125C167.587 108.125 155.982 103.318 147.426 94.7617C138.869 86.2054 134.062 74.6005 134.062 62.5V27.3438L134.075 27.0811C134.127 26.5602 134.332 26.066 134.664 25.6611L134.841 25.4658L142.653 17.6533C143.089 17.2175 143.661 16.9483 144.269 16.8877L144.531 16.875H149.688V6.5625H137.818L123.75 20.6309V62.502C123.772 76.035 128.692 89.1027 137.602 99.2891C146.511 109.475 158.809 116.091 172.219 117.914L172.223 117.915C172.861 117.999 173.447 118.313 173.872 118.797C174.297 119.281 174.531 119.903 174.531 120.547V141.875H184.844V120.547L184.854 120.307C184.905 119.75 185.131 119.22 185.503 118.797C185.928 118.313 186.514 117.999 187.152 117.915L187.156 117.914C200.567 116.094 212.866 109.479 221.776 99.292C230.408 89.4235 235.295 76.8499 235.609 63.7695L235.625 62.502V20.6309Z" fill="#DBAB33" stroke="#0C4745" stroke-width="2.5"/>
<path d="M41.7188 118.438V222.656C41.7188 228.168 43.9084 233.453 47.8057 237.351C51.7029 241.248 56.9885 243.438 62.5 243.438C68.0115 243.438 73.2971 241.248 77.1943 237.351C81.0916 233.453 83.2812 228.168 83.2812 222.656V164.062C83.2812 158.178 85.6193 152.535 89.7803 148.374C93.9412 144.213 99.5843 141.875 105.469 141.875C111.353 141.875 116.996 144.213 121.157 148.374C125.318 152.535 127.656 158.178 127.656 164.062V214.844C127.656 222.427 130.669 229.7 136.031 235.062C141.394 240.425 148.666 243.438 156.25 243.438C163.834 243.438 171.106 240.425 176.469 235.062C181.831 229.7 184.844 222.427 184.844 214.844V145.781H190.156V214.844C190.146 223.833 186.57 232.451 180.214 238.808C173.857 245.164 165.239 248.739 156.25 248.749C147.261 248.739 138.643 245.164 132.286 238.808C126.128 232.649 122.58 224.368 122.355 215.684L122.344 214.843V164.062C122.344 159.587 120.566 155.295 117.401 152.13C114.237 148.965 109.944 147.188 105.469 147.188C100.993 147.188 96.7008 148.965 93.5361 152.13C90.3715 155.295 88.5938 159.587 88.5938 164.062V222.656C88.5938 229.577 85.8447 236.214 80.9512 241.107C76.0576 246.001 69.4205 248.75 62.5 248.75C55.5795 248.75 48.9424 246.001 44.0488 241.107C39.1553 236.214 36.4062 229.577 36.4062 222.656V118.438H41.7188Z" fill="#DBAB33" stroke="#0C4745" stroke-width="2.5"/>
<path d="M57.3438 118.438V222.656C57.3438 224.024 57.8865 225.336 58.8535 226.303C59.8205 227.27 61.1325 227.812 62.5 227.812C63.8675 227.812 65.1795 227.27 66.1465 226.303C67.1135 225.336 67.6562 224.024 67.6562 222.656V164.062C67.6562 154.034 71.6402 144.416 78.7314 137.325C85.8227 130.234 95.4403 126.25 105.469 126.25C115.497 126.25 125.115 130.234 132.206 137.325C139.297 144.416 143.281 154.034 143.281 164.062V214.844C143.281 218.283 144.648 221.582 147.08 224.014C149.512 226.446 152.81 227.812 156.25 227.812C159.69 227.812 162.988 226.446 165.42 224.014C167.852 221.582 169.219 218.283 169.219 214.844V145.781H174.531V214.844C174.525 219.69 172.597 224.337 169.17 227.764C165.743 231.191 161.097 233.118 156.25 233.124C151.403 233.118 146.757 231.191 143.33 227.764C140.01 224.443 138.096 219.979 137.975 215.296L137.969 214.842V164.062C137.969 155.443 134.545 147.176 128.45 141.081C122.355 134.986 114.088 131.562 105.469 131.562C96.8492 131.562 88.5822 134.986 82.4873 141.081C76.3924 147.176 72.9688 155.443 72.9688 164.062V222.656C72.9688 225.433 71.8656 228.095 69.9023 230.059C67.9391 232.022 65.2765 233.125 62.5 233.125C59.7235 233.125 57.0609 232.022 55.0977 230.059C53.1344 228.095 52.0312 225.433 52.0312 222.656V118.438H57.3438Z" fill="#DBAB33" stroke="#0C4745" stroke-width="2.5"/>
<path d="M39.498 48.8516C46.8329 47.3926 54.4364 48.141 61.3457 51.0029C68.2549 53.8649 74.1606 58.7115 78.3154 64.9297C82.4703 71.1479 84.6875 78.4589 84.6875 85.9375C84.6761 95.9625 80.6884 105.573 73.5996 112.662C66.5106 119.751 56.8994 123.738 46.874 123.749C39.3957 123.749 32.0851 121.533 25.8672 117.378C19.649 113.223 14.8024 107.317 11.9404 100.408C9.07848 93.4989 8.33004 85.8955 9.78905 78.5605C11.2481 71.2257 14.8495 64.4883 20.1377 59.2002C25.4258 53.912 32.1632 50.3106 39.498 48.8516ZM79.375 85.9365C79.3653 77.3203 75.9383 69.0594 69.8457 62.9668C63.7531 56.8742 55.4921 53.4472 46.876 53.4375H46.875C40.4471 53.4375 34.1639 55.3439 28.8193 58.915C23.4748 62.4862 19.3085 67.5615 16.8486 73.5C14.3888 79.4386 13.745 85.9739 14.999 92.2783C16.2531 98.5826 19.3494 104.374 23.8945 108.919C28.4396 113.464 34.2301 116.559 40.5342 117.813C46.8385 119.067 53.3739 118.424 59.3125 115.964C65.251 113.504 70.3263 109.338 73.8974 103.993C77.4685 98.6486 79.375 92.3653 79.375 85.9375V85.9365Z" fill="#DBAB33" stroke="#0C4745" stroke-width="2.5"/>
<path d="M42.5469 64.1768C46.8507 63.3207 51.3121 63.7592 55.3662 65.4385C59.2938 67.0654 62.6682 69.7858 65.0918 73.2715L65.3232 73.6104C67.7612 77.2591 69.0625 81.5492 69.0625 85.9375C69.0563 91.8201 66.7163 97.4595 62.5566 101.619C58.3968 105.779 52.7569 108.118 46.874 108.124C42.6234 108.124 38.4652 106.904 34.8926 104.611L34.5478 104.386C30.8993 101.948 28.0552 98.4828 26.376 94.4287C24.6967 90.3746 24.2582 85.9132 25.1142 81.6094C25.9704 77.3054 28.0835 73.352 31.1865 70.249C34.2895 67.146 38.2429 65.0329 42.5469 64.1768ZM46.875 69.0625C43.5375 69.0625 40.275 70.0521 37.5 71.9062C34.7249 73.7605 32.5614 76.396 31.2842 79.4795C30.007 82.5629 29.6731 85.9561 30.3242 89.2295C30.9753 92.5029 32.5824 95.5101 34.9424 97.8701C37.3024 100.23 40.3096 101.837 43.583 102.488C46.8564 103.139 50.2495 102.806 53.333 101.528C56.4165 100.251 59.052 98.0876 60.9062 95.3125C62.7604 92.5375 63.75 89.275 63.75 85.9375C63.75 81.462 61.9723 77.1696 58.8076 74.0049C55.6429 70.8402 51.3505 69.0625 46.875 69.0625Z" fill="white" stroke="#0C4745" stroke-width="2.5"/>
<path d="M49.5312 16.875V37.8125H44.2188V16.875H49.5312Z" fill="white" stroke="#0C4745" stroke-width="2.5"/>
<path d="M71.4481 26.3494L75.2046 30.1059L61.3469 43.9635L57.5904 40.207L71.4481 26.3494Z" fill="white" stroke="#0C4745" stroke-width="2.5"/>
<path d="M22.2884 26.3529L36.146 40.2105L32.3895 43.967L18.5319 30.1094L22.2884 26.3529Z" fill="white" stroke="#0C4745" stroke-width="2.5"/>
</svg>
